# https://github.com/mikedh/trimesh
v 0.00017443 -1.15704983 0.24804282
v 0.00017443 -1.15704983 0.24804282
v 0.00017443 -1.15704983 0.24804282
v -0.02230140 -1.15716320 0.24804282
v -0.02230140 -1.15716320 0.24804282
v -0.02230140 -1.15716320 0.24804282
v -0.02230140 -1.15716320 0.24804282
v -0.02230140 -1.15716320 0.24804282
v 0.00017443 -1.15206617 0.23887184
v 0.00017443 -1.15206617 0.23887184
v 0.00017443 -1.15206617 0.23887184
v 0.00017443 -1.15206617 0.23887184
v 0.00017443 -1.02996463 0.24804282
v 0.00017443 -1.02996463 0.24804282
v 0.00017443 -1.02996463 0.24804282
v 0.00017443 -1.02996463 0.24804282
v 0.00017443 -1.02996463 0.24804282
v 0.00017443 -1.02996463 0.24804282
v -0.06673782 -1.15591723 0.24804282
v -0.06673782 -1.15591723 0.24804282
v -0.06673782 -1.15591723 0.24804282
v -0.06673782 -1.14527017 0.22877893
v -0.06673782 -1.14527017 0.22877893
v -0.06673782 -1.14527017 0.22877893
v -0.06673782 -1.14527017 0.22877893
v -0.06673782 -1.14527017 0.22877893
v -0.06673782 -1.14527017 0.22877893
v -0.06673782 -1.14527017 0.22877893
v -0.02230140 -1.14583641 0.22761434
v -0.02230140 -1.14583641 0.22761434
v -0.02230140 -1.14583641 0.22761434
v -0.02230140 -1.14583641 0.22761434
v -0.02230140 -1.14583641 0.22761434
v -0.02230140 -1.14583641 0.22761434
v -0.02230140 -1.14583641 0.22761434
v 0.00017443 -1.14583641 0.22763860
v 0.00017443 -1.14583641 0.22763860
v 0.00017443 -1.14583641 0.22763860
v -0.65767771 -0.79833418 0.24804282
v -0.65767771 -0.79833418 0.24804282
v -0.65767771 -0.79833418 0.24804282
v 0.00017443 -0.00003053 0.12940243
v 0.00017443 -0.00003053 0.12940243
v 0.00017443 -0.00003053 0.12940243
v -0.15567502 -0.00003053 0.13871899
v -0.15567502 -0.00003053 0.13871899
v -0.15567502 -0.00003053 0.13871899
v -0.37798589 -0.00003053 0.14958829
v -0.37798589 -0.00003053 0.14958829
v -0.37798589 -0.00003053 0.14958829
v -0.65767771 -0.00003053 0.16186476
v -0.65767771 -0.00003053 0.16186476
v -0.65767771 -0.00003053 0.16186476
v -0.65767771 -0.00003053 0.16186476
v -0.10112773 -1.15376514 0.24804282
v -0.10112773 -1.15376514 0.24804282
v -0.10112773 -1.15376514 0.24804282
v -0.10112773 -1.15376514 0.24804282
v -0.11168943 -1.14572328 0.23552373
v -0.11168943 -1.14572328 0.23552373
v -0.11168943 -1.14572328 0.23552373
v -0.11168943 -1.14572328 0.23552373
v -0.11168943 -1.14572328 0.23552373
v -0.11168943 -1.14572328 0.23552373
v -0.11168943 -1.14572328 0.23552373
v -0.11123861 -1.12148410 0.19752967
v -0.11123861 -1.12148410 0.19752967
v -0.11123861 -1.12148410 0.19752967
v -0.11123861 -1.12148410 0.19752967
v -0.11123861 -1.12148410 0.19752967
v -0.11123861 -1.12148410 0.19752967
v -0.06673782 -1.12295657 0.19583136
v -0.06673782 -1.12295657 0.19583136
v -0.06673782 -1.12295657 0.19583136
v -0.06673782 -1.12295657 0.19583136
v -0.06673782 -1.12295657 0.19583136
v -0.06673782 -1.12295657 0.19583136
v -0.02230140 -1.12363619 0.19510350
v -0.02230140 -1.12363619 0.19510350
v -0.02230140 -1.12363619 0.19510350
v -0.02230140 -1.12363619 0.19510350
v -0.02230140 -1.12363619 0.19510350
v 0.00017443 -1.12363619 0.19510350
v 0.00017443 -1.12363619 0.19510350
v 0.00017443 -1.12363619 0.19510350
v 0.00017443 -1.12363619 0.19510350
v -0.65767771 -0.95464236 0.24804282
v -0.65767771 -0.95464236 0.24804282
v -0.65767771 -0.95464236 0.24804282
v 0.00017443 -0.00003053 0.04788268
v 0.00017443 -0.00003053 0.04788268
v 0.00017443 -0.00003053 0.04788268
v 0.00017443 -0.00003053 0.04788268
v -0.65767771 -0.00003053 0.03643107
v -0.65767771 -0.00003053 0.03643107
v -0.65767771 -0.00003053 0.03643107
v -0.12102750 -1.15161306 0.24804282
v -0.12102750 -1.15161306 0.24804282
v -0.12102750 -1.15161306 0.24804282
v -0.15567502 -1.13802105 0.23205426
v -0.15567502 -1.13802105 0.23205426
v -0.15567502 -1.13802105 0.23205426
v -0.15567502 -1.13802105 0.23205426
v -0.15567502 -1.13802105 0.23205426
v -0.15567502 -1.13802105 0.23205426
v -0.15567502 -1.13802105 0.23205426
v -0.15567502 -1.13802105 0.23205426
v -0.15567502 -1.11853927 0.20099911
v -0.15567502 -1.11853927 0.20099911
v -0.15567502 -1.11853927 0.20099911
v -0.15567502 -1.11853927 0.20099911
v -0.15567502 -1.11853927 0.20099911
v -0.15567502 -1.11853927 0.20099911
v -0.15567502 -1.11853927 0.20099911
v -0.15567502 -1.11853927 0.20099911
v -0.15567502 -1.11853927 0.20099911
v -0.13629045 -1.14968759 0.24804282
v -0.13629045 -1.14968759 0.24804282
v -0.13629045 -1.14968759 0.24804282
v -0.13629045 -1.14968759 0.24804282
v -0.11123861 -1.09973687 0.17530584
v -0.11123861 -1.09973687 0.17530584
v -0.11123861 -1.09973687 0.17530584
v -0.11123861 -1.09973687 0.17530584
v -0.11123861 -1.09973687 0.17530584
v -0.11123861 -1.09973687 0.17530584
v -0.06673782 -1.10143596 0.17360753
v -0.06673782 -1.10143596 0.17360753
v -0.06673782 -1.10143596 0.17360753
v -0.06673782 -1.10143596 0.17360753
v -0.06673782 -1.10143596 0.17360753
v -0.06673782 -1.10143596 0.17360753
v -0.02230140 -1.10222882 0.17285538
v -0.02230140 -1.10222882 0.17285538
v -0.02230140 -1.10222882 0.17285538
v -0.02230140 -1.10222882 0.17285538
v -0.02230140 -1.10222882 0.17285538
v -0.02230140 -1.10222882 0.17285538
v -0.02230140 -1.10222882 0.17285538
v -0.02230140 -1.10222882 0.17285538
v 0.00017443 -1.11310238 0.18411291
v 0.00017443 -1.11310238 0.18411291
v 0.00017443 -1.11310238 0.18411291
v 0.00017443 -1.11310238 0.18411291
v -0.65767771 -0.95396262 0.24668413
v -0.65767771 -0.95396262 0.24668413
v -0.65767771 -0.95396262 0.24668413
v -0.62837547 -0.97593641 0.24804282
v -0.62837547 -0.97593641 0.24804282
v -0.62837547 -0.97593641 0.24804282
v -0.62837547 -0.97593641 0.24804282
v -0.62837547 -0.97593641 0.24804282
v -0.62837547 -0.97593641 0.24804282
v -0.65767771 -0.40948963 0.00188226
v -0.65767771 -0.40948963 0.00188226
v -0.65767771 -0.40948963 0.00188226
v -0.65767771 -0.40948963 0.00188226
v -0.65767771 -0.40948963 0.00188226
v -0.65767771 -0.40948963 0.00188226
v -0.65767771 -0.40948963 0.00188226
v 0.00017443 -0.77794617 0.00059634
v 0.00017443 -0.77794617 0.00059634
v 0.00017443 -0.77794617 0.00059634
v 0.00017443 -0.77794617 0.00059634
v 0.00017443 -0.77794617 0.00059634
v -0.15567502 -1.14651603 0.24804282
v -0.15567502 -1.14651603 0.24804282
v -0.15567502 -1.14651603 0.24804282
v -0.17531723 -1.14289159 0.24804282
v -0.17531723 -1.14289159 0.24804282
v -0.17531723 -1.14289159 0.24804282
v -0.17531723 -1.14289159 0.24804282
v -0.20017585 -1.12975258 0.23205426
v -0.20017585 -1.12975258 0.23205426
v -0.20017585 -1.12975258 0.23205426
v -0.20017585 -1.12975258 0.23205426
v -0.20017585 -1.12975258 0.23205426
v -0.20017585 -1.12975258 0.23205426
v -0.20017585 -1.12975258 0.23205426
v -0.22419727 -1.11185652 0.20934519
v -0.22419727 -1.11185652 0.20934519
v -0.22419727 -1.11185652 0.20934519
v -0.22419727 -1.11185652 0.20934519
v -0.22419727 -1.11185652 0.20934519
v -0.22419727 -1.11185652 0.20934519
v -0.20017585 -1.11434835 0.20619115
v -0.20017585 -1.11434835 0.20619115
v -0.20017585 -1.11434835 0.20619115
v -0.20017585 -1.11434835 0.20619115
v -0.28911307 -1.08252043 0.19228911
v -0.28911307 -1.08252043 0.19228911
v -0.28911307 -1.08252043 0.19228911
v -0.28911307 -1.08252043 0.19228911
v -0.28911307 -1.08252043 0.19228911
v -0.28911307 -1.06099969 0.17006528
v -0.28911307 -1.06099969 0.17006528
v -0.28911307 -1.06099969 0.17006528
v -0.28911307 -1.06099969 0.17006528
v -0.28911307 -1.06099969 0.17006528
v -0.28911307 -1.06099969 0.17006528
v -0.28911307 -1.06099969 0.17006528
v -0.25613996 -1.06473750 0.16703254
v -0.25613996 -1.06473750 0.16703254
v -0.25613996 -1.06473750 0.16703254
v -0.25613996 -1.06473750 0.16703254
v -0.25613996 -1.06473750 0.16703254
v -0.25613996 -1.06473750 0.16703254
v -0.15567502 -1.09667879 0.17875102
v -0.15567502 -1.09667879 0.17875102
v -0.15567502 -1.09667879 0.17875102
v -0.15567502 -1.09667879 0.17875102
v -0.15567502 -1.09667879 0.17875102
v -0.15567502 -1.09667879 0.17875102
v -0.15567502 -1.07447845 0.16048184
v -0.15567502 -1.07447845 0.16048184
v -0.15567502 -1.07447845 0.16048184
v -0.15567502 -1.07447845 0.16048184
v -0.15567502 -1.07447845 0.16048184
v -0.15567502 -1.07447845 0.16048184
v -0.11123861 -1.07753664 0.15875927
v -0.11123861 -1.07753664 0.15875927
v -0.11123861 -1.07753664 0.15875927
v -0.11123861 -1.07753664 0.15875927
v -0.11123861 -1.07753664 0.15875927
v -0.11123861 -1.07753664 0.15875927
v -0.06673782 -1.07923573 0.15783733
v -0.06673782 -1.07923573 0.15783733
v -0.06673782 -1.07923573 0.15783733
v -0.06673782 -1.07923573 0.15783733
v -0.06673782 -1.07923573 0.15783733
v -0.06673782 -1.07923573 0.15783733
v -0.06673782 -1.07923573 0.15783733
v -0.02230140 -1.08002847 0.15735209
v -0.02230140 -1.08002847 0.15735209
v -0.02230140 -1.08002847 0.15735209
v -0.02230140 -1.08002847 0.15735209
v 0.00017443 -1.08002847 0.15735209
v 0.00017443 -1.08002847 0.15735209
v 0.00017443 -1.08002847 0.15735209
v 0.00017443 -1.08002847 0.15735209
v 0.00017443 -1.10222882 0.17287967
v 0.00017443 -1.10222882 0.17287967
v 0.00017443 -1.10222882 0.17287967
v -0.65767771 -0.94875240 0.23751318
v -0.65767771 -0.94875240 0.23751318
v -0.65767771 -0.94875240 0.23751318
v -0.65767771 -0.94875240 0.23751318
v -0.61124492 -0.97038633 0.22137904
v -0.61124492 -0.97038633 0.22137904
v -0.61124492 -0.97038633 0.22137904
v -0.61124492 -0.97038633 0.22137904
v -0.61124492 -0.97038633 0.22137904
v -0.61124492 -0.97038633 0.22137904
v -0.62032539 -0.98125994 0.24804282
v -0.62032539 -0.98125994 0.24804282
v -0.62032539 -0.98125994 0.24804282
v -0.62032539 -0.98125994 0.24804282
v -0.64389598 -0.95520866 0.23268506
v -0.64389598 -0.95520866 0.23268506
v -0.64389598 -0.95520866 0.23268506
v -0.64389598 -0.95520866 0.23268506
v -0.55586040 -0.55571693 0.00018388
v -0.55586040 -0.55571693 0.00018388
v -0.55586040 -0.55571693 0.00018388
v -0.55586040 -0.55571693 0.00018388
v -0.55586040 -0.55571693 0.00018388
v -0.55586040 -0.55571693 0.00018388
v -0.55586040 -0.55571693 0.00018388
v -0.55586040 -0.55571693 0.00018388
v -0.55586040 -0.55571693 0.00018388
v -0.60029680 -0.51120317 0.00071764
v -0.60029680 -0.51120317 0.00071764
v -0.60029680 -0.51120317 0.00071764
v -0.60029680 -0.51120317 0.00071764
v -0.64479756 -0.46680263 0.00176096
v -0.64479756 -0.46680263 0.00176096
v -0.64479756 -0.46680263 0.00176096
v -0.64479756 -0.46680263 0.00176096
v -0.65767771 -0.45389020 0.00299829
v -0.65767771 -0.45389020 0.00299829
v -0.65767771 -0.45389020 0.00299829
v -0.65767771 -0.45389020 0.00299829
v -0.65767771 -0.45389020 0.00299829
v 0.00017443 -0.80048633 0.00673461
v 0.00017443 -0.80048633 0.00673461
v 0.00017443 -0.80048633 0.00673461
v -0.06673782 -0.77794617 0.00052357
v -0.06673782 -0.77794617 0.00052357
v -0.06673782 -0.77794617 0.00052357
v -0.06673782 -0.77794617 0.00052357
v -0.06673782 -0.77794617 0.00052357
v -0.06673782 -0.77794617 0.00052357
v -0.06673782 -0.77794617 0.00052357
v -0.20017585 -1.13790780 0.24804282
v -0.20017585 -1.13790780 0.24804282
v -0.20017585 -1.13790780 0.24804282
v -0.20017585 -1.13790780 0.24804282
v -0.28911307 -1.11740655 0.24319044
v -0.28911307 -1.11740655 0.24319044
v -0.28911307 -1.11740655 0.24319044
v -0.28911307 -1.11740655 0.24319044
v -0.28911307 -1.11740655 0.24319044
v -0.28911307 -1.11740655 0.24319044
v -0.28911307 -1.11740655 0.24319044
v -0.28911307 -1.11740655 0.24319044
v -0.24126342 -1.12023813 0.23030740
v -0.24126342 -1.12023813 0.23030740
v -0.24126342 -1.12023813 0.23030740
v -0.25382155 -1.10868496 0.21431887
v -0.25382155 -1.10868496 0.21431887
v -0.25382155 -1.10868496 0.21431887
v -0.25382155 -1.10868496 0.21431887
v -0.25382155 -1.10868496 0.21431887
v -0.25382155 -1.10868496 0.21431887
v -0.33348510 -1.07719690 0.19769952
v -0.33348510 -1.07719690 0.19769952
v -0.33348510 -1.07719690 0.19769952
v -0.33348510 -1.07719690 0.19769952
v -0.33348510 -1.07719690 0.19769952
v -0.33348510 -1.07719690 0.19769952
v -0.33348510 -1.07719690 0.19769952
v -0.33348510 -1.05499667 0.17547569
v -0.33348510 -1.05499667 0.17547569
v -0.33348510 -1.05499667 0.17547569
v -0.33348510 -1.05499667 0.17547569
v -0.33348510 -1.05499667 0.17547569
v -0.36903420 -1.02713293 0.16235000
v -0.36903420 -1.02713293 0.16235000
v -0.36903420 -1.02713293 0.16235000
v -0.36903420 -1.02713293 0.16235000
v -0.36903420 -1.02713293 0.16235000
v -0.36903420 -1.02713293 0.16235000
v -0.33348510 -1.03279632 0.15902615
v -0.33348510 -1.03279632 0.15902615
v -0.33348510 -1.03279632 0.15902615
v -0.33348510 -1.03279632 0.15902615
v -0.33348510 -1.03279632 0.15902615
v -0.22651570 -1.06768245 0.16484895
v -0.22651570 -1.06768245 0.16484895
v -0.22651570 -1.06768245 0.16484895
v -0.22651570 -1.06768245 0.16484895
v -0.22651570 -1.06768245 0.16484895
v -0.28911307 -1.03868622 0.15567800
v -0.28911307 -1.03868622 0.15567800
v -0.28911307 -1.03868622 0.15567800
v -0.28911307 -1.03868622 0.15567800
v -0.28911307 -1.03868622 0.15567800
v -0.28911307 -1.03868622 0.15567800
v -0.28911307 -1.03868622 0.15567800
v -0.28911307 -1.03868622 0.15567800
v -0.20017585 -1.07028753 0.16307789
v -0.20017585 -1.07028753 0.16307789
v -0.20017585 -1.07028753 0.16307789
v -0.20017585 -1.07028753 0.16307789
v -0.20017585 -1.07028753 0.16307789
v -0.20017585 -1.04480261 0.14822963
v -0.20017585 -1.04480261 0.14822963
v -0.20017585 -1.04480261 0.14822963
v -0.20017585 -1.04480261 0.14822963
v -0.20017585 -1.04480261 0.14822963
v -0.20017585 -1.04480261 0.14822963
v -0.20017585 -1.04480261 0.14822963
v -0.15567502 -1.04480261 0.14354709
v -0.15567502 -1.04480261 0.14354709
v -0.15567502 -1.04480261 0.14354709
v -0.15567502 -1.04480261 0.14354709
v -0.15567502 -1.04480261 0.14354709
v -0.11123861 -1.04480261 0.14034456
v -0.11123861 -1.04480261 0.14034456
v -0.11123861 -1.04480261 0.14034456
v -0.11123861 -1.04480261 0.14034456
v -0.11123861 -1.04480261 0.14034456
v -0.06673782 -0.82246006 0.01428002
v -0.06673782 -0.82246006 0.01428002
v -0.06673782 -0.82246006 0.01428002
v -0.06673782 -0.82246006 0.01428002
v -0.06673782 -0.82246006 0.01428002
v -0.06673782 -0.82246006 0.01428002
v -0.02230140 -0.82246006 0.01277578
v -0.02230140 -0.82246006 0.01277578
v -0.02230140 -0.82246006 0.01277578
v -0.02230140 -0.82246006 0.01277578
v -0.02230140 -0.82246006 0.01277578
v -0.02230140 -0.82246006 0.01277578
v -0.02230140 -0.82246006 0.01277578
v 0.00017443 -0.82246006 0.01277578
v 0.00017443 -0.82246006 0.01277578
v 0.00017443 -0.82246006 0.01277578
v 0.00017443 -0.82246006 0.01277578
v -0.65767771 -0.93674618 0.21904993
v -0.65767771 -0.93674618 0.21904993
v -0.65767771 -0.93674618 0.21904993
v -0.65767771 -0.93674618 0.21904993
v -0.65767771 -0.93674618 0.21904993
v -0.65767771 -0.93674618 0.21904993
v -0.58162063 -0.98024058 0.20725867
v -0.58162063 -0.98024058 0.20725867
v -0.58162063 -0.98024058 0.20725867
v -0.58162063 -0.98024058 0.20725867
v -0.58162063 -0.98024058 0.20725867
v -0.58162063 -0.98024058 0.20725867
v -0.58162063 -0.98024058 0.20725867
v -0.58162063 -0.98024058 0.20725867
v -0.58162063 -0.98024058 0.20725867
v -0.58162063 -0.98024058 0.20725867
v -0.58162063 -0.98024058 0.20725867
v -0.59797835 -0.98737633 0.23455325
v -0.59797835 -0.98737633 0.23455325
v -0.59797835 -0.98737633 0.23455325
v -0.59797835 -0.98737633 0.23455325
v -0.58445424 -1.00334698 0.24804282
v -0.58445424 -1.00334698 0.24804282
v -0.58445424 -1.00334698 0.24804282
v -0.58445424 -1.00334698 0.24804282
v -0.51135957 -0.60011750 0.00054783
v -0.51135957 -0.60011750 0.00054783
v -0.51135957 -0.60011750 0.00054783
v -0.51135957 -0.60011750 0.00054783
v -0.55586040 -0.60011750 0.00918508
v -0.55586040 -0.60011750 0.00918508
v -0.55586040 -0.60011750 0.00918508
v -0.55586040 -0.60011750 0.00918508
v -0.55586040 -0.60011750 0.00918508
v -0.55586040 -0.60011750 0.00918508
v -0.55586040 -0.60011750 0.00918508
v -0.55586040 -0.60011750 0.00918508
v -0.55586040 -0.60011750 0.00918508
v -0.60029680 -0.55571693 0.00935489
v -0.60029680 -0.55571693 0.00935489
v -0.60029680 -0.55571693 0.00935489
v -0.60029680 -0.55571693 0.00935489
v -0.60029680 -0.55571693 0.00935489
v -0.60029680 -0.55571693 0.00935489
v -0.60029680 -0.55571693 0.00935489
v -0.60029680 -0.55571693 0.00935489
v -0.28911307 -0.73343241 0.00040227
v -0.28911307 -0.73343241 0.00040227
v -0.28911307 -0.73343241 0.00040227
v -0.28911307 -0.73343241 0.00040227
v -0.28911307 -0.73343241 0.00040227
v -0.28911307 -0.73343241 0.00040227
v -0.28911307 -0.73343241 0.00040227
v -0.37798589 -0.68903190 0.00047505
v -0.37798589 -0.68903190 0.00047505
v -0.37798589 -0.68903190 0.00047505
v -0.37798589 -0.68903190 0.00047505
v -0.37798589 -0.68903190 0.00047505
v -0.64801764 -0.51414806 0.01563871
v -0.64801764 -0.51414806 0.01563871
v -0.64801764 -0.51414806 0.01563871
v -0.64801764 -0.51414806 0.01563871
v -0.64801764 -0.51414806 0.01563871
v -0.65767771 -0.50293469 0.01648784
v -0.65767771 -0.50293469 0.01648784
v -0.65767771 -0.50293469 0.01648784
v -0.11123861 -0.77794617 0.00062066
v -0.11123861 -0.77794617 0.00062066
v -0.11123861 -0.77794617 0.00062066
v -0.11123861 -0.77794617 0.00062066
v -0.28286621 -1.12091786 0.24804282
v -0.28286621 -1.12091786 0.24804282
v -0.28286621 -1.12091786 0.24804282
v -0.31178209 -1.11468810 0.24804282
v -0.31178209 -1.11468810 0.24804282
v -0.31178209 -1.11468810 0.24804282
v -0.32189298 -1.11230952 0.24804282
v -0.32189298 -1.11230952 0.24804282
v -0.32189298 -1.11230952 0.24804282
v -0.32189298 -1.11230952 0.24804282
v -0.32189298 -1.11230952 0.24804282
v -0.28911307 -1.10483390 0.22096661
v -0.28911307 -1.10483390 0.22096661
v -0.28911307 -1.10483390 0.22096661
v -0.28911307 -1.10483390 0.22096661
v -0.28911307 -1.10483390 0.22096661
v -0.28911307 -1.10483390 0.22096661
v -0.36935622 -1.07187337 0.20386204
v -0.36935622 -1.07187337 0.20386204
v -0.36935622 -1.07187337 0.20386204
v -0.36935622 -1.07187337 0.20386204
v -0.36935622 -1.07187337 0.20386204
v -0.36935622 -1.07187337 0.20386204
v -0.36935622 -1.07187337 0.20386204
v -0.36935622 -1.07187337 0.20386204
v -0.36935622 -1.07187337 0.20386204
v -0.39872289 -1.02192265 0.16577095
v -0.39872289 -1.02192265 0.16577095
v -0.39872289 -1.02192265 0.16577095
v -0.39872289 -1.02192265 0.16577095
v -0.39872289 -1.02192265 0.16577095
v -0.39872289 -1.02192265 0.16577095
v -0.39872289 -1.02192265 0.16577095
v -0.39872289 -1.02192265 0.16577095
v -0.39872289 -1.02192265 0.16577095
v -0.38152796 -1.00436634 0.15203872
v -0.38152796 -1.00436634 0.15203872
v -0.38152796 -1.00436634 0.15203872
v -0.38152796 -1.00436634 0.15203872
v -0.38152796 -1.00436634 0.15203872
v -0.38152796 -1.00436634 0.15203872
v -0.33348510 -1.00028878 0.14080548
v -0.33348510 -1.00028878 0.14080548
v -0.33348510 -1.00028878 0.14080548
v -0.33348510 -1.00028878 0.14080548
v -0.33348510 -1.00028878 0.14080548
v -0.33348510 -1.00028878 0.14080548
v -0.33348510 -1.00028878 0.14080548
v -0.24261585 -1.04786080 0.15507147
v -0.24261585 -1.04786080 0.15507147
v -0.24261585 -1.04786080 0.15507147
v -0.24261585 -1.04786080 0.15507147
v -0.24261585 -1.04786080 0.15507147
v -0.28576425 -0.99609786 0.13187715
v -0.28576425 -0.99609786 0.13187715
v -0.28576425 -0.99609786 0.13187715
v -0.28576425 -0.99609786 0.13187715
v -0.20017585 -0.81271911 0.02044255
v -0.20017585 -0.81271911 0.02044255
v -0.20017585 -0.81271911 0.02044255
v -0.20017585 -0.81271911 0.02044255
v -0.20017585 -0.81271911 0.02044255
v -0.20017585 -0.81271911 0.02044255
v -0.24461226 -1.00323373 0.13063979
v -0.24461226 -1.00323373 0.13063979
v -0.24461226 -1.00323373 0.13063979
v -0.24461226 -1.00323373 0.13063979
v -0.15567502 -0.81770283 0.01791930
v -0.15567502 -0.81770283 0.01791930
v -0.15567502 -0.81770283 0.01791930
v -0.15567502 -0.81770283 0.01791930
v -0.15567502 -0.81770283 0.01791930
v -0.15567502 -0.81770283 0.01791930
v -0.15567502 -0.81770283 0.01791930
v -0.20017585 -0.77794617 0.00302255
v -0.20017585 -0.77794617 0.00302255
v -0.20017585 -0.77794617 0.00302255
v -0.20017585 -0.77794617 0.00302255
v -0.20017585 -0.77794617 0.00302255
v -0.20017585 -0.77794617 0.00302255
v -0.15567502 -0.77794617 0.00108159
v -0.15567502 -0.77794617 0.00108159
v -0.15567502 -0.77794617 0.00108159
v -0.15567502 -0.77794617 0.00108159
v -0.15567502 -0.77794617 0.00108159
v -0.63275468 -0.94082373 0.20211515
v -0.63275468 -0.94082373 0.20211515
v -0.63275468 -0.94082373 0.20211515
v -0.63275468 -0.94082373 0.20211515
v -0.63275468 -0.94082373 0.20211515
v -0.63275468 -0.94082373 0.20211515
v -0.63275468 -0.94082373 0.20211515
v -0.65767771 -0.92507970 0.20592427
v -0.65767771 -0.92507970 0.20592427
v -0.65767771 -0.92507970 0.20592427
v -0.55586040 -0.98703659 0.19954342
v -0.55586040 -0.98703659 0.19954342
v -0.55586040 -0.98703659 0.19954342
v -0.55586040 -0.98703659 0.19954342
v -0.55586040 -0.98703659 0.19954342
v -0.55586040 -0.98703659 0.19954342
v -0.52237207 -1.01750523 0.21795815
v -0.52237207 -1.01750523 0.21795815
v -0.52237207 -1.01750523 0.21795815
v -0.52237207 -1.01750523 0.21795815
v -0.52237207 -1.01750523 0.21795815
v -0.52237207 -1.01750523 0.21795815
v -0.52237207 -1.01750523 0.21795815
v -0.52237207 -1.01750523 0.21795815
v -0.55605358 -1.00991648 0.23249099
v -0.55605358 -1.00991648 0.23249099
v -0.55605358 -1.00991648 0.23249099
v -0.55605358 -1.00991648 0.23249099
v -0.56416804 -1.01490015 0.24804282
v -0.56416804 -1.01490015 0.24804282
v -0.56416804 -1.01490015 0.24804282
v -0.56416804 -1.01490015 0.24804282
v -0.56416804 -1.01490015 0.24804282
v -0.59559554 -0.95260346 0.18986294
v -0.59559554 -0.95260346 0.18986294
v -0.59559554 -0.95260346 0.18986294
v -0.59559554 -0.95260346 0.18986294
v -0.59559554 -0.95260346 0.18986294
v -0.55586040 -0.96426994 0.17729530
v -0.55586040 -0.96426994 0.17729530
v -0.55586040 -0.96426994 0.17729530
v -0.55586040 -0.96426994 0.17729530
v -0.55586040 -0.96426994 0.17729530
v -0.46692315 -0.64451808 0.00100881
v -0.46692315 -0.64451808 0.00100881
v -0.46692315 -0.64451808 0.00100881
v -0.46692315 -0.64451808 0.00100881
v -0.46692315 -0.64451808 0.00100881
v -0.42242229 -0.68903190 0.00423563
v -0.42242229 -0.68903190 0.00423563
v -0.42242229 -0.68903190 0.00423563
v -0.42242229 -0.68903190 0.00423563
v -0.42242229 -0.68903190 0.00423563
v -0.42242229 -0.68903190 0.00423563
v -0.42242229 -0.68903190 0.00423563
v -0.42242229 -0.68903190 0.00423563
v -0.51477277 -0.64814258 0.01510495
v -0.51477277 -0.64814258 0.01510495
v -0.51477277 -0.64814258 0.01510495
v -0.51477277 -0.64814258 0.01510495
v -0.51477277 -0.64814258 0.01510495
v -0.64164197 -0.81906205 0.13241091
v -0.64164197 -0.81906205 0.13241091
v -0.64164197 -0.81906205 0.13241091
v -0.64164197 -0.81906205 0.13241091
v -0.65767771 -0.82098758 0.13893732
v -0.65767771 -0.82098758 0.13893732
v -0.65767771 -0.82098758 0.13893732
v -0.65767771 -0.82098758 0.13893732
v -0.65767771 -0.82098758 0.13893732
v -0.65767771 -0.80377102 0.13194993
v -0.65767771 -0.80377102 0.13194993
v -0.65767771 -0.80377102 0.13194993
v -0.65767771 -0.80377102 0.13194993
v -0.65767771 -0.78768712 0.12554479
v -0.65767771 -0.78768712 0.12554479
v -0.65767771 -0.78768712 0.12554479
v -0.65767771 -0.78768712 0.12554479
v -0.33348510 -0.73343241 0.00341076
v -0.33348510 -0.73343241 0.00341076
v -0.33348510 -0.73343241 0.00341076
v -0.33348510 -0.73343241 0.00341076
v -0.33348510 -0.73343241 0.00341076
v -0.33348510 -0.73343241 0.00341076
v -0.33348510 -0.73343241 0.00341076
v -0.33348510 -0.73343241 0.00341076
v -0.33348510 -0.73343241 0.00341076
v -0.65767771 -0.50961745 0.01893830
v -0.65767771 -0.50961745 0.01893830
v -0.65767771 -0.50961745 0.01893830
v -0.34359598 -1.10630637 0.24804282
v -0.34359598 -1.10630637 0.24804282
v -0.34359598 -1.10630637 0.24804282
v -0.34359598 -1.10630637 0.24804282
v -0.33438668 -1.10098284 0.23382539
v -0.33438668 -1.10098284 0.23382539
v -0.33438668 -1.10098284 0.23382539
v -0.33438668 -1.10098284 0.23382539
v -0.33438668 -1.10098284 0.23382539
v -0.38172114 -1.08286017 0.22802681
v -0.38172114 -1.08286017 0.22802681
v -0.38172114 -1.08286017 0.22802681
v -0.38172114 -1.08286017 0.22802681
v -0.38172114 -1.08286017 0.22802681
v -0.38172114 -1.08286017 0.22802681
v -0.38172114 -1.08286017 0.22802681
v -0.38172114 -1.08286017 0.22802681
v -0.39898050 -1.06654972 0.21050978
v -0.39898050 -1.06654972 0.21050978
v -0.39898050 -1.06654972 0.21050978
v -0.39898050 -1.06654972 0.21050978
v -0.39898050 -1.06654972 0.21050978
v -0.39898050 -1.06654972 0.21050978
v -0.39898050 -1.06654972 0.21050978
v -0.42242229 -1.03936583 0.19202223
v -0.42242229 -1.03936583 0.19202223
v -0.42242229 -1.03936583 0.19202223
v -0.42242229 -1.03936583 0.19202223
v -0.42242229 -1.01705223 0.16977414
v -0.42242229 -1.01705223 0.16977414
v -0.42242229 -1.01705223 0.16977414
v -0.42242229 -1.01705223 0.16977414
v -0.42242229 -1.01705223 0.16977414
v -0.52314484 -0.97333127 0.16902202
v -0.52314484 -0.97333127 0.16902202
v -0.52314484 -0.97333127 0.16902202
v -0.52314484 -0.97333127 0.16902202
v -0.52314484 -0.97333127 0.16902202
v -0.52314484 -0.97333127 0.16902202
v -0.52314484 -0.97333127 0.16902202
v -0.52314484 -0.97333127 0.16902202
v -0.52314484 -0.97333127 0.16902202
v -0.52314484 -0.97333127 0.16902202
v -0.49352059 -0.97967416 0.16421816
v -0.49352059 -0.97967416 0.16421816
v -0.49352059 -0.97967416 0.16421816
v -0.49352059 -0.97967416 0.16421816
v -0.46692315 -0.98533756 0.16087002
v -0.46692315 -0.98533756 0.16087002
v -0.46692315 -0.98533756 0.16087002
v -0.46692315 -0.98533756 0.16087002
v -0.46692315 -0.98533756 0.16087002
v -0.42242229 -0.99473870 0.15558097
v -0.42242229 -0.99473870 0.15558097
v -0.42242229 -0.99473870 0.15558097
v -0.42242229 -0.99473870 0.15558097
v -0.42242229 -0.99473870 0.15558097
v -0.42003950 -0.95226371 0.13224107
v -0.42003950 -0.95226371 0.13224107
v -0.42003950 -0.95226371 0.13224107
v -0.42003950 -0.95226371 0.13224107
v -0.42003950 -0.95226371 0.13224107
v -0.42003950 -0.95226371 0.13224107
v -0.42003950 -0.95226371 0.13224107
v -0.37798589 -0.96200466 0.12872308
v -0.37798589 -0.96200466 0.12872308
v -0.37798589 -0.96200466 0.12872308
v -0.37798589 -0.96200466 0.12872308
v -0.37798589 -0.96200466 0.12872308
v -0.24461226 -0.77794617 0.00765651
v -0.24461226 -0.77794617 0.00765651
v -0.24461226 -0.77794617 0.00765651
v -0.24461226 -0.77794617 0.00765651
v -0.24461226 -0.77794617 0.00765651
v -0.24461226 -0.77794617 0.00765651
v -0.24461226 -0.77794617 0.00765651
v -0.24461226 -0.77794617 0.00765651
v -0.65767771 -0.90854269 0.18976587
v -0.65767771 -0.90854269 0.18976587
v -0.65767771 -0.90854269 0.18976587
v -0.65767771 -0.90854269 0.18976587
v -0.64614999 -0.91239381 0.18561712
v -0.64614999 -0.91239381 0.18561712
v -0.64614999 -0.91239381 0.18561712
v -0.64614999 -0.91239381 0.18561712
v -0.60963488 -0.92406029 0.17246720
v -0.60963488 -0.92406029 0.17246720
v -0.60963488 -0.92406029 0.17246720
v -0.60963488 -0.92406029 0.17246720
v -0.60963488 -0.92406029 0.17246720
v -0.46692315 -1.02985138 0.20138732
v -0.46692315 -1.02985138 0.20138732
v -0.46692315 -1.02985138 0.20138732
v -0.46692315 -1.02985138 0.20138732
v -0.46692315 -1.02985138 0.20138732
v -0.46692315 -1.02985138 0.20138732
v -0.49274778 -1.02407473 0.20791373
v -0.49274778 -1.02407473 0.20791373
v -0.49274778 -1.02407473 0.20791373
v -0.49274778 -1.02407473 0.20791373
v -0.49274778 -1.02407473 0.20791373
v -0.42242229 -1.06167930 0.21846765
v -0.42242229 -1.06167930 0.21846765
v -0.42242229 -1.06167930 0.21846765
v -0.42242229 -1.06167930 0.21846765
v -0.42242229 -1.06167930 0.21846765
v -0.42242229 -1.06167930 0.21846765
v -0.46531311 -1.05239135 0.23411652
v -0.46531311 -1.05239135 0.23411652
v -0.46531311 -1.05239135 0.23411652
v -0.45166019 -1.06677634 0.24804282
v -0.45166019 -1.06677634 0.24804282
v -0.45166019 -1.06677634 0.24804282
v -0.45166019 -1.06677634 0.24804282
v -0.45166019 -1.06677634 0.24804282
v -0.45166019 -1.06677634 0.24804282
v -0.45166019 -1.06677634 0.24804282
v -0.54143465 -1.02611357 0.24760610
v -0.54143465 -1.02611357 0.24760610
v -0.54143465 -1.02611357 0.24760610
v -0.54143465 -1.02611357 0.24760610
v -0.54143465 -1.02611357 0.24760610
v -0.54098380 -1.02656668 0.24804282
v -0.54098380 -1.02656668 0.24804282
v -0.54098380 -1.02656668 0.24804282
v -0.57994616 -0.93470734 0.16460636
v -0.57994616 -0.93470734 0.16460636
v -0.57994616 -0.93470734 0.16460636
v -0.57994616 -0.93470734 0.16460636
v -0.57994616 -0.93470734 0.16460636
v -0.57994616 -0.93470734 0.16460636
v -0.57994616 -0.93470734 0.16460636
v -0.57994616 -0.93470734 0.16460636
v -0.57994616 -0.93470734 0.16460636
v -0.57994616 -0.93470734 0.16460636
v -0.46692315 -0.69039106 0.01801634
v -0.46692315 -0.69039106 0.01801634
v -0.46692315 -0.69039106 0.01801634
v -0.46692315 -0.69039106 0.01801634
v -0.38069072 -0.73705697 0.01605117
v -0.38069072 -0.73705697 0.01605117
v -0.38069072 -0.73705697 0.01605117
v -0.38069072 -0.73705697 0.01605117
v -0.51000714 -0.90854269 0.13100371
v -0.51000714 -0.90854269 0.13100371
v -0.51000714 -0.90854269 0.13100371
v -0.51000714 -0.90854269 0.13100371
v -0.51000714 -0.90854269 0.13100371
v -0.51000714 -0.90854269 0.13100371
v -0.51000714 -0.90854269 0.13100371
v -0.55586040 -0.91137439 0.14483297
v -0.55586040 -0.91137439 0.14483297
v -0.55586040 -0.91137439 0.14483297
v -0.55586040 -0.91137439 0.14483297
v -0.55586040 -0.91137439 0.14483297
v -0.55586040 -0.91137439 0.14483297
v -0.55586040 -0.91137439 0.14483297
v -0.55586040 -0.91137439 0.14483297
v -0.60029680 -0.86686057 0.13869473
v -0.60029680 -0.86686057 0.13869473
v -0.60029680 -0.86686057 0.13869473
v -0.60029680 -0.86686057 0.13869473
v -0.60029680 -0.86686057 0.13869473
v -0.60029680 -0.86686057 0.13869473
v -0.60029680 -0.86686057 0.13869473
v -0.60029680 -0.86686057 0.13869473
v -0.65767771 -0.85610026 0.15434363
v -0.65767771 -0.85610026 0.15434363
v -0.65767771 -0.85610026 0.15434363
v -0.65767771 -0.85610026 0.15434363
v -0.28930628 -0.78077787 0.01757962
v -0.28930628 -0.78077787 0.01757962
v -0.28930628 -0.78077787 0.01757962
v -0.28930628 -0.78077787 0.01757962
v -0.28930628 -0.78077787 0.01757962
v -0.33348510 -0.76899821 0.02061239
v -0.33348510 -0.76899821 0.02061239
v -0.33348510 -0.76899821 0.02061239
v -0.33348510 -0.76899821 0.02061239
v -0.33348510 -0.76899821 0.02061239
v -0.33348510 -0.76899821 0.02061239
v -0.36021134 -1.10109621 0.24804282
v -0.36021134 -1.10109621 0.24804282
v -0.36021134 -1.10109621 0.24804282
v -0.42242229 -1.07481819 0.24069148
v -0.42242229 -1.07481819 0.24069148
v -0.42242229 -1.07481819 0.24069148
v -0.42242229 -1.07481819 0.24069148
v -0.42242229 -1.07481819 0.24069148
v -0.42242229 -1.07481819 0.24069148
v -0.37985352 -1.09418684 0.24804282
v -0.37985352 -1.09418684 0.24804282
v -0.37985352 -1.09418684 0.24804282
v -0.41044381 -1.08308679 0.24804282
v -0.41044381 -1.08308679 0.24804282
v -0.41044381 -1.08308679 0.24804282
v -0.41044381 -1.08308679 0.24804282
v -0.46692315 -1.00753790 0.17913920
v -0.46692315 -1.00753790 0.17913920
v -0.46692315 -1.00753790 0.17913920
v -0.55586040 -0.94206971 0.16043332
v -0.55586040 -0.94206971 0.16043332
v -0.55586040 -0.94206971 0.16043332
v -0.55586040 -0.94206971 0.16043332
v -0.50955635 -0.95747393 0.15560520
v -0.50955635 -0.95747393 0.15560520
v -0.50955635 -0.95747393 0.15560520
v -0.50955635 -0.95747393 0.15560520
v -0.50955635 -0.95747393 0.15560520
v -0.50955635 -0.95747393 0.15560520
v -0.50955635 -0.95747393 0.15560520
v -0.46692315 -0.95577496 0.14451757
v -0.46692315 -0.95577496 0.14451757
v -0.46692315 -0.95577496 0.14451757
v -0.46692315 -0.95577496 0.14451757
v -0.46692315 -0.95577496 0.14451757
v -0.46692315 -0.95577496 0.14451757
v -0.46692315 -0.92054898 0.12675792
v -0.46692315 -0.92054898 0.12675792
v -0.46692315 -0.92054898 0.12675792
v -0.46692315 -0.92054898 0.12675792
v -0.65767771 -0.88736188 0.17142394
v -0.65767771 -0.88736188 0.17142394
v -0.65767771 -0.88736188 0.17142394
v -0.65767771 -0.88736188 0.17142394
v -0.65767771 -0.88736188 0.17142394
v -0.44303051 -1.07040089 0.24804282
v -0.44303051 -1.07040089 0.24804282
v -0.44303051 -1.07040089 0.24804282
v -0.65767771 -0.88135874 0.16734797
v -0.65767771 -0.88135874 0.16734797
v -0.65767771 -0.88135874 0.16734797
v -0.65767771 -0.88135874 0.16734797
v -0.62985671 -0.89449763 0.16244707
v -0.62985671 -0.89449763 0.16244707
v -0.62985671 -0.89449763 0.16244707
v -0.62985671 -0.89449763 0.16244707
v -0.62985671 -0.89449763 0.16244707
v -0.59701234 -0.91012847 0.15817696
v -0.59701234 -0.91012847 0.15817696
v -0.59701234 -0.91012847 0.15817696
v -0.59701234 -0.91012847 0.15817696
v -0.59701234 -0.91012847 0.15817696
v -0.64473319 -0.86776674 0.15492588
v -0.64473319 -0.86776674 0.15492588
v -0.64473319 -0.86776674 0.15492588
v -0.64473319 -0.86776674 0.15492588
v -0.64473319 -0.86776674 0.15492588
v -0.65767771 -0.86232990 0.15715799
v -0.65767771 -0.86232990 0.15715799
v -0.65767771 -0.86232990 0.15715799
v -0.65767771 -0.86232990 0.15715799
vn 0.00000000 0.00000000 1.00000000
vn 0.00443185 -0.87863856 -0.47746689
vn 1.00000000 0.00000000 0.00000000
vn 0.00000000 0.00000000 1.00000000
vn 0.00047018 -0.87456335 -0.48491106
vn 0.00443185 -0.87863856 -0.47746689
vn -0.02384610 -0.87431475 -0.48477322
vn -0.02453330 -0.87495459 -0.48358307
vn 0.00047018 -0.87456335 -0.48491106
vn 0.00052347 -0.87451818 -0.48499246
vn 0.00443185 -0.87863856 -0.47746689
vn 1.00000000 0.00000000 0.00000000
vn 0.00000000 0.00000000 1.00000000
vn 0.03776332 0.10725137 0.99351451
vn 0.04358007 0.11091313 0.99287414
vn 0.04852294 0.11268698 0.99244505
vn 0.05928210 0.11423422 0.99168351
vn 1.00000000 0.00000000 0.00000000
vn 0.00000000 0.00000000 1.00000000
vn -0.02453330 -0.87495459 -0.48358307
vn -0.05468828 -0.87390823 -0.48300475
vn -0.02384610 -0.87431475 -0.48477322
vn -0.02453330 -0.87495459 -0.48358307
vn -0.02523888 -0.82772176 -0.56057087
vn -0.04873924 -0.82700148 -0.56008306
vn -0.05468828 -0.87390823 -0.48300475
vn -0.06618715 -0.86398125 -0.49915495
vn -0.07211000 -0.84046351 -0.53704864
vn 0.00000000 -0.82582822 -0.56392176
vn 0.00047018 -0.87456335 -0.48491106
vn 0.00052347 -0.87451818 -0.48499246
vn 0.00060835 -0.82602388 -0.56363479
vn -0.02186198 -0.82563085 -0.56378698
vn -0.02384610 -0.87431475 -0.48477322
vn -0.02523888 -0.82772176 -0.56057087
vn 0.00052347 -0.87451818 -0.48499246
vn 0.00060835 -0.82602388 -0.56363479
vn 1.00000000 0.00000000 0.00000000
vn -0.00000000 0.00000000 1.00000000
vn 0.03776332 0.10725137 0.99351451
vn -1.00000000 0.00000000 0.00000000
vn -0.00000000 1.00000000 -0.00000000
vn 0.05928210 0.11423422 0.99168351
vn 1.00000000 0.00000000 0.00000000
vn -0.00000000 1.00000000 -0.00000000
vn 0.04852294 0.11268698 0.99244505
vn 0.05928210 0.11423422 0.99168351
vn -0.00000000 1.00000000 -0.00000000
vn 0.04358007 0.11091313 0.99287414
vn 0.04852294 0.11268698 0.99244505
vn 0.00000000 1.00000000 -0.00000000
vn 0.03776332 0.10725137 0.99351451
vn 0.04358007 0.11091313 0.99287414
vn -1.00000000 0.00000000 0.00000000
vn 0.00000000 0.00000000 1.00000000
vn -0.05468828 -0.87390823 -0.48300475
vn -0.06618715 -0.86398125 -0.49915495
vn -0.09429222 -0.87189550 -0.48052805
vn -0.06618715 -0.86398125 -0.49915495
vn -0.07211000 -0.84046351 -0.53704864
vn -0.09429222 -0.87189550 -0.48052805
vn -0.09742570 -0.83851130 -0.53610356
vn -0.10582162 -0.84235423 -0.52843271
vn -0.10919813 -0.86559987 -0.48868460
vn -0.11211366 -0.86252400 -0.49343984
vn -0.04873924 -0.82700148 -0.56008306
vn -0.05025528 -0.71747335 -0.69477076
vn -0.05390242 -0.71369000 -0.69838464
vn -0.07211000 -0.84046351 -0.53704864
vn -0.09742570 -0.83851130 -0.53610356
vn -0.10144623 -0.71104180 -0.69579323
vn -0.02186198 -0.82563085 -0.56378698
vn -0.02237229 -0.72041085 -0.69318662
vn -0.02458523 -0.71816395 -0.69543951
vn -0.02523888 -0.82772176 -0.56057087
vn -0.04873924 -0.82700148 -0.56008306
vn -0.05025528 -0.71747335 -0.69477076
vn 0.00000000 -0.82582822 -0.56392176
vn 0.00000000 -0.72195011 -0.69194512
vn -0.00132883 -0.72059057 -0.69335955
vn -0.02186198 -0.82563085 -0.56378698
vn -0.02237229 -0.72041085 -0.69318662
vn 0.00000000 -0.82582822 -0.56392176
vn 0.00000000 -0.72195011 -0.69194512
vn 0.00060835 -0.82602388 -0.56363479
vn 1.00000000 0.00000000 0.00000000
vn -0.00000000 -0.00000000 1.00000000
vn -0.54493516 -0.74987214 -0.37514990
vn -1.00000000 0.00000000 0.00000000
vn -0.00000000 1.00000000 -0.00000000
vn 0.01734332 0.08406532 -0.99630931
vn 0.03201535 0.06064285 -0.99764596
vn 1.00000000 0.00000000 0.00000000
vn 0.00000000 1.00000000 -0.00000000
vn 0.01734332 0.08406532 -0.99630931
vn -1.00000000 0.00000000 0.00000000
vn 0.00000000 0.00000000 1.00000000
vn -0.09429222 -0.87189550 -0.48052805
vn -0.10919813 -0.86559987 -0.48868460
vn -0.10582162 -0.84235423 -0.52843271
vn -0.11211366 -0.86252400 -0.49343984
vn -0.14037578 -0.83872282 -0.52615462
vn -0.14300009 -0.87401584 -0.46437839
vn -0.15466601 -0.84678796 -0.50894850
vn -0.15791538 -0.84989854 -0.50272776
vn -0.16082950 -0.87159575 -0.46309256
vn -0.16181469 -0.87088458 -0.46408625
vn -0.09742570 -0.83851130 -0.53610356
vn -0.10144623 -0.71104180 -0.69579323
vn -0.10287794 -0.70950828 -0.69714714
vn -0.10582162 -0.84235423 -0.52843271
vn -0.14037578 -0.83872282 -0.52615462
vn -0.14352827 -0.70590774 -0.69360933
vn -0.14381729 -0.70621324 -0.69323837
vn -0.14689295 -0.71058647 -0.68810561
vn -0.14717484 -0.71141025 -0.68719359
vn 0.00000000 0.00000000 1.00000000
vn -0.10919813 -0.86559987 -0.48868460
vn -0.11211366 -0.86252400 -0.49343984
vn -0.14300009 -0.87401584 -0.46437839
vn -0.05334046 -0.59675206 -0.80065085
vn -0.05390242 -0.71369000 -0.69838464
vn -0.07202202 -0.59605087 -0.79971007
vn -0.10144623 -0.71104180 -0.69579323
vn -0.10287794 -0.70950828 -0.69714714
vn -0.10304413 -0.63204580 -0.76804949
vn -0.02412513 -0.57894954 -0.81500638
vn -0.02458523 -0.71816395 -0.69543951
vn -0.03897136 -0.57867816 -0.81462434
vn -0.05025528 -0.71747335 -0.69477076
vn -0.05334046 -0.59675206 -0.80065085
vn -0.05390242 -0.71369000 -0.69838464
vn 0.00000000 -0.57254604 -0.81987257
vn 0.00075161 -0.71851632 -0.69550969
vn 0.00088555 -0.57314830 -0.81945118
vn -0.00132883 -0.72059057 -0.69335955
vn -0.01916358 -0.57244089 -0.81972201
vn -0.02237229 -0.72041085 -0.69318662
vn -0.02412513 -0.57894954 -0.81500638
vn -0.02458523 -0.71816395 -0.69543951
vn 0.00000000 -0.72195011 -0.69194512
vn 0.00075161 -0.71851632 -0.69550969
vn 1.00000000 0.00000000 0.00000000
vn -0.00132883 -0.72059057 -0.69335955
vn -0.53250364 -0.73595094 -0.41811013
vn -0.54493516 -0.74987214 -0.37514990
vn -1.00000000 0.00000000 0.00000000
vn -0.00000000 -0.00000000 1.00000000
vn -0.48777940 -0.73760564 -0.46691453
vn -0.50074891 -0.72515357 -0.47265508
vn -0.50406034 -0.72508914 -0.46922160
vn -0.53250364 -0.73595094 -0.41811013
vn -0.54493516 -0.74987214 -0.37514990
vn 0.00745847 0.01680595 -0.99983095
vn 0.01734332 0.08406532 -0.99630931
vn 0.03201535 0.06064285 -0.99764596
vn -0.00124598 0.01074637 -0.99994148
vn -0.02748890 -0.00406212 -0.99961386
vn -0.12034443 -0.02494509 -0.99241874
vn -1.00000000 0.00000000 0.00000000
vn 0.00104943 -0.26275670 -0.96486155
vn 0.00108765 0.00086536 -0.99999903
vn 0.00745847 0.01680595 -0.99983095
vn 0.03201535 0.06064285 -0.99764596
vn 1.00000000 0.00000000 0.00000000
vn 0.00000000 0.00000000 1.00000000
vn -0.14300009 -0.87401584 -0.46437839
vn -0.16082950 -0.87159575 -0.46309256
vn 0.00000000 0.00000000 1.00000000
vn -0.16082950 -0.87159575 -0.46309256
vn -0.16181469 -0.87088458 -0.46408625
vn -0.17581256 -0.87693593 -0.44729556
vn -0.15791538 -0.84989854 -0.50272776
vn -0.16181469 -0.87088458 -0.46408625
vn -0.17368352 -0.85445266 -0.48963730
vn -0.17581256 -0.87693593 -0.44729556
vn -0.17768095 -0.87663705 -0.44714312
vn -0.17842866 -0.85872832 -0.48036328
vn -0.17912870 -0.86096499 -0.47608003
vn -0.15466601 -0.84678796 -0.50894850
vn -0.15791538 -0.84989854 -0.50272776
vn -0.16248758 -0.73941527 -0.65334741
vn -0.16806644 -0.74632993 -0.64400722
vn -0.17368352 -0.85445266 -0.48963730
vn -0.18387262 -0.78053079 -0.59746343
vn -0.14037578 -0.83872282 -0.52615462
vn -0.14717484 -0.71141025 -0.68719359
vn -0.15466601 -0.84678796 -0.50894850
vn -0.16248758 -0.73941527 -0.65334741
vn -0.14689295 -0.71058647 -0.68810561
vn -0.14717484 -0.71141025 -0.68719359
vn -0.16248758 -0.73941527 -0.65334741
vn -0.16806644 -0.74632993 -0.64400722
vn -0.16856320 -0.70809977 -0.68569758
vn -0.13765166 -0.54124930 -0.82951867
vn -0.14381729 -0.70621324 -0.69323837
vn -0.14689295 -0.71058647 -0.68810561
vn -0.16653957 -0.57542555 -0.80071843
vn -0.16856320 -0.70809977 -0.68569758
vn -0.17608669 -0.59431117 -0.78472143
vn -0.17895179 -0.69606209 -0.69532282
vn -0.11379075 -0.51446799 -0.84992609
vn -0.12000157 -0.65208103 -0.74859198
vn -0.13382540 -0.53340911 -0.83520386
vn -0.13765166 -0.54124930 -0.82951867
vn -0.14352827 -0.70590774 -0.69360933
vn -0.14381729 -0.70621324 -0.69323837
vn -0.10287794 -0.70950828 -0.69714714
vn -0.10304413 -0.63204580 -0.76804949
vn -0.10431561 -0.63196158 -0.76794715
vn -0.11450594 -0.64286459 -0.75737276
vn -0.12000157 -0.65208103 -0.74859198
vn -0.14352827 -0.70590774 -0.69360933
vn -0.06762386 -0.49449968 -0.86654318
vn -0.07202202 -0.59605087 -0.79971007
vn -0.09101079 -0.49357732 -0.86492686
vn -0.09735115 -0.50102593 -0.85993940
vn -0.10304413 -0.63204580 -0.76804949
vn -0.10431561 -0.63196158 -0.76794715
vn -0.03675151 -0.48996663 -0.87096615
vn -0.03897136 -0.57867816 -0.81462434
vn -0.05334046 -0.59675206 -0.80065085
vn -0.06268933 -0.48933349 -0.86984067
vn -0.06762386 -0.49449968 -0.86654318
vn -0.07202202 -0.59605087 -0.79971007
vn -0.01825149 -0.48939272 -0.87187250
vn -0.01916358 -0.57244089 -0.81972201
vn -0.02412513 -0.57894954 -0.81500638
vn -0.02953443 -0.48777689 -0.87246858
vn -0.03446114 -0.48769993 -0.87233091
vn -0.03675151 -0.48996663 -0.87096615
vn -0.03897136 -0.57867816 -0.81462434
vn 0.00000000 -0.57254604 -0.81987257
vn 0.00000000 -0.48947425 -0.87201775
vn -0.01825149 -0.48939272 -0.87187250
vn -0.01916358 -0.57244089 -0.81972201
vn 0.00000000 -0.57254604 -0.81987257
vn 0.00000000 -0.48947425 -0.87201775
vn 0.00088555 -0.57314830 -0.81945118
vn 1.00000000 0.00000000 0.00000000
vn 0.00075161 -0.71851632 -0.69550969
vn 0.00088555 -0.57314830 -0.81945118
vn 1.00000000 0.00000000 0.00000000
vn -0.50406034 -0.72508914 -0.46922160
vn -0.50411605 -0.72401848 -0.47081232
vn -0.53250364 -0.73595094 -0.41811013
vn -1.00000000 0.00000000 0.00000000
vn -0.47371916 -0.74006635 -0.47738030
vn -0.48284391 -0.70264488 -0.52263938
vn -0.48427556 -0.74003785 -0.46671315
vn -0.48777940 -0.73760564 -0.46691453
vn -0.50074891 -0.72515357 -0.47265508
vn -0.50080013 -0.72407890 -0.47424569
vn -0.00000000 -0.00000000 1.00000000
vn -0.47222035 -0.76692431 -0.43455155
vn -0.48427556 -0.74003785 -0.46671315
vn -0.48777940 -0.73760564 -0.46691453
vn -0.50074891 -0.72515357 -0.47265508
vn -0.50080013 -0.72407890 -0.47424569
vn -0.50406034 -0.72508914 -0.46922160
vn -0.50411605 -0.72401848 -0.47081232
vn 0.00042808 -0.00058634 -0.99999974
vn 0.00108765 0.00086536 -0.99999903
vn 0.00745847 0.01680595 -0.99983095
vn -0.00124598 0.01074637 -0.99994148
vn -0.00572831 -0.00982688 -0.99993531
vn -0.01810246 -0.02633602 -0.99948923
vn -0.18687145 -0.19518535 -0.96279891
vn -0.19825546 -0.19474148 -0.96060946
vn -0.19857166 -0.18668960 -0.96214151
vn -0.00124598 0.01074637 -0.99994148
vn -0.02748890 -0.00406212 -0.99961386
vn -0.19857166 -0.18668960 -0.96214151
vn -0.20839167 -0.18630084 -0.96013797
vn -0.02748890 -0.00406212 -0.99961386
vn -0.12034443 -0.02494509 -0.99241874
vn -0.20839167 -0.18630084 -0.96013797
vn -0.33221839 -0.24408442 -0.91107285
vn -0.12034443 -0.02494509 -0.99241874
vn -0.33221839 -0.24408442 -0.91107285
vn -0.33282903 -0.24440918 -0.91076286
vn -0.36544093 -0.24685611 -0.89750487
vn -1.00000000 0.00000000 0.00000000
vn 0.00020388 -0.26509095 -0.96422339
vn 0.00104943 -0.26275670 -0.96486155
vn 1.00000000 0.00000000 0.00000000
vn 0.00000000 -0.26537585 -0.96414504
vn 0.00020388 -0.26509095 -0.96422339
vn 0.00042808 -0.00058634 -0.99999974
vn 0.00104943 -0.26275670 -0.96486155
vn 0.00108765 0.00086536 -0.99999903
vn -0.00210248 -0.26732573 -0.96360393
vn -0.00218169 -0.01362358 -0.99990481
vn 0.00000000 0.00000000 1.00000000
vn -0.17581256 -0.87693593 -0.44729556
vn -0.17768095 -0.87663705 -0.44714312
vn -0.18355292 -0.89335517 -0.41015225
vn -0.17768095 -0.87663705 -0.44714312
vn -0.17912870 -0.86096499 -0.47608003
vn -0.17989970 -0.85896961 -0.47938221
vn -0.18355292 -0.89335517 -0.41015225
vn -0.18450371 -0.85542964 -0.48394062
vn -0.19304146 -0.89601619 -0.39986246
vn -0.20279844 -0.86205598 -0.46446989
vn -0.20385277 -0.85209588 -0.48205462
vn -0.17842866 -0.85872832 -0.48036328
vn -0.17912870 -0.86096499 -0.47608003
vn -0.17989970 -0.85896961 -0.47938221
vn -0.17368352 -0.85445266 -0.48963730
vn -0.17842866 -0.85872832 -0.48036328
vn -0.17989970 -0.85896961 -0.47938221
vn -0.18387262 -0.78053079 -0.59746343
vn -0.18450371 -0.85542964 -0.48394062
vn -0.19485704 -0.79568180 -0.57351653
vn -0.16806644 -0.74632993 -0.64400722
vn -0.16856320 -0.70809977 -0.68569758
vn -0.17895179 -0.69606209 -0.69532282
vn -0.18387262 -0.78053079 -0.59746343
vn -0.19485704 -0.79568180 -0.57351653
vn -0.21428869 -0.80715001 -0.55008110
vn -0.22082015 -0.69001786 -0.68928500
vn -0.17608669 -0.59431117 -0.78472143
vn -0.17895179 -0.69606209 -0.69532282
vn -0.19561231 -0.61093674 -0.76713241
vn -0.22082015 -0.69001786 -0.68928500
vn -0.23724601 -0.67340913 -0.70016746
vn -0.15746652 -0.48283935 -0.86143511
vn -0.16107196 -0.47917224 -0.86281504
vn -0.16653957 -0.57542555 -0.80071843
vn -0.17608669 -0.59431117 -0.78472143
vn -0.18390548 -0.48749986 -0.85353539
vn -0.19561231 -0.61093674 -0.76713241
vn -0.12962017 -0.48481437 -0.86495875
vn -0.13382540 -0.53340911 -0.83520386
vn -0.13765166 -0.54124930 -0.82951867
vn -0.15746652 -0.48283935 -0.86143511
vn -0.16653957 -0.57542555 -0.80071843
vn -0.10775298 -0.50882658 -0.85409883
vn -0.11199838 -0.51128125 -0.85208441
vn -0.11379075 -0.51446799 -0.84992609
vn -0.11450594 -0.64286459 -0.75737276
vn -0.12000157 -0.65208103 -0.74859198
vn -0.10628772 -0.48114338 -0.87017468
vn -0.10897818 -0.47854332 -0.87127495
vn -0.10959757 -0.47832484 -0.87131723
vn -0.11199838 -0.51128125 -0.85208441
vn -0.11379075 -0.51446799 -0.84992609
vn -0.12098305 -0.47699491 -0.87053946
vn -0.12962017 -0.48481437 -0.86495875
vn -0.13382540 -0.53340911 -0.83520386
vn -0.09735115 -0.50102593 -0.85993940
vn -0.10247600 -0.50076686 -0.85949475
vn -0.10431561 -0.63196158 -0.76794715
vn -0.10775298 -0.50882658 -0.85409883
vn -0.11450594 -0.64286459 -0.75737276
vn -0.09101079 -0.49357732 -0.86492686
vn -0.09168680 -0.48201695 -0.87135136
vn -0.09735115 -0.50102593 -0.85993940
vn -0.10247600 -0.50076686 -0.85949475
vn -0.10313339 -0.47975576 -0.87131964
vn -0.10388271 -0.47971815 -0.87125133
vn -0.10562304 -0.48115457 -0.87024942
vn -0.06268933 -0.48933349 -0.86984067
vn -0.06293881 -0.48309615 -0.87330225
vn -0.06762386 -0.49449968 -0.86654318
vn -0.09101079 -0.49357732 -0.86492686
vn -0.09168680 -0.48201695 -0.87135136
vn -0.03446114 -0.48769993 -0.87233091
vn -0.03675151 -0.48996663 -0.87096615
vn -0.06157479 -0.48293093 -0.87349085
vn -0.06268933 -0.48933349 -0.86984067
vn -0.06293881 -0.48309615 -0.87330225
vn -0.02953443 -0.48777689 -0.87246858
vn -0.03179230 -0.34198458 -0.93916761
vn -0.03446114 -0.48769993 -0.87233091
vn -0.04068866 -0.35789358 -0.93287546
vn -0.05908982 -0.40758597 -0.91125302
vn -0.06157479 -0.48293093 -0.87349085
vn 0.00000000 -0.48947425 -0.87201775
vn 0.00000000 -0.26537585 -0.96414504
vn -0.00210248 -0.26732573 -0.96360393
vn -0.00995155 -0.28186095 -0.95940365
vn -0.01825149 -0.48939272 -0.87187250
vn -0.02953443 -0.48777689 -0.87246858
vn -0.03179230 -0.34198458 -0.93916761
vn 0.00000000 -0.48947425 -0.87201775
vn 0.00000000 -0.26537585 -0.96414504
vn 0.00020388 -0.26509095 -0.96422339
vn 1.00000000 0.00000000 0.00000000
vn -0.47955063 -0.69244213 -0.53903162
vn -0.48284391 -0.70264488 -0.52263938
vn -0.49761796 -0.64831909 -0.57624536
vn -0.50080013 -0.72407890 -0.47424569
vn -0.50411605 -0.72401848 -0.47081232
vn -1.00000000 0.00000000 0.00000000
vn -0.36439062 -0.74122269 -0.56374498
vn -0.37026263 -0.64924125 -0.66437293
vn -0.39163630 -0.76812376 -0.50656382
vn -0.39623331 -0.62418408 -0.67334494
vn -0.41594155 -0.62569906 -0.65991917
vn -0.42949377 -0.77050942 -0.47100991
vn -0.43786036 -0.76883879 -0.46600988
vn -0.44174077 -0.76706305 -0.46527343
vn -0.47371916 -0.74006635 -0.47738030
vn -0.47955063 -0.69244213 -0.53903162
vn -0.48284391 -0.70264488 -0.52263938
vn -0.44174077 -0.76706305 -0.46527343
vn -0.47222035 -0.76692431 -0.43455155
vn -0.47371916 -0.74006635 -0.47738030
vn -0.48427556 -0.74003785 -0.46671315
vn -0.00000000 -0.00000000 1.00000000
vn -0.43786036 -0.76883879 -0.46600988
vn -0.44174077 -0.76706305 -0.46527343
vn -0.47222035 -0.76692431 -0.43455155
vn -0.01810246 -0.02633602 -0.99948923
vn -0.02241918 -0.03281143 -0.99921008
vn -0.18680431 -0.19694768 -0.96245299
vn -0.18687145 -0.19518535 -0.96279891
vn -0.18680431 -0.19694768 -0.96245299
vn -0.18687145 -0.19518535 -0.96279891
vn -0.19825546 -0.19474148 -0.96060946
vn -0.23615198 -0.30301083 -0.92326414
vn -0.25243911 -0.32817755 -0.91026040
vn -0.30852232 -0.37187605 -0.87551252
vn -0.31165827 -0.37037930 -0.87503617
vn -0.34290487 -0.35326069 -0.87041550
vn -0.35130007 -0.34825962 -0.86908198
vn -0.19825546 -0.19474148 -0.96060946
vn -0.19857166 -0.18668960 -0.96214151
vn -0.20839167 -0.18630084 -0.96013797
vn -0.33221839 -0.24408442 -0.91107285
vn -0.33282903 -0.24440918 -0.91076286
vn -0.35130007 -0.34825962 -0.86908198
vn -0.35972119 -0.34520918 -0.86685136
vn -0.39970505 -0.32955876 -0.85535191
vn 0.00042808 -0.00058634 -0.99999974
vn -0.00218169 -0.01362358 -0.99990481
vn -0.00572831 -0.00982688 -0.99993531
vn -0.01036095 -0.04630241 -0.99887373
vn -0.04311864 -0.14434253 -0.98858789
vn -0.06640939 -0.19034004 -0.97946948
vn -0.06704888 -0.13258525 -0.98890121
vn -0.00572831 -0.00982688 -0.99993531
vn -0.01810246 -0.02633602 -0.99948923
vn -0.02241918 -0.03281143 -0.99921008
vn -0.06704888 -0.13258525 -0.98890121
vn -0.07740415 -0.14281953 -0.98671738
vn -0.33282903 -0.24440918 -0.91076286
vn -0.36544093 -0.24685611 -0.89750487
vn -0.39970505 -0.32955876 -0.85535191
vn -0.43430773 -0.31010613 -0.84570148
vn -0.43771295 -0.32186006 -0.83953170
vn -0.36544093 -0.24685611 -0.89750487
vn -0.43430773 -0.31010613 -0.84570148
vn -1.00000000 0.00000000 0.00000000
vn -0.00210248 -0.26732573 -0.96360393
vn -0.00218169 -0.01362358 -0.99990481
vn -0.00995155 -0.28186095 -0.95940365
vn -0.01036095 -0.04630241 -0.99887373
vn -0.00000000 -0.00000000 1.00000000
vn -0.18355292 -0.89335517 -0.41015225
vn -0.19304146 -0.89601619 -0.39986246
vn -0.00000000 -0.00000000 1.00000000
vn -0.19304146 -0.89601619 -0.39986246
vn -0.20279844 -0.86205598 -0.46446989
vn -0.00000000 -0.00000000 1.00000000
vn -0.20279844 -0.86205598 -0.46446989
vn -0.20385277 -0.85209588 -0.48205462
vn -0.21088398 -0.84640993 -0.48899711
vn -0.23520645 -0.85033592 -0.47075126
vn -0.18450371 -0.85542964 -0.48394062
vn -0.19485704 -0.79568180 -0.57351653
vn -0.20385277 -0.85209588 -0.48205462
vn -0.21088398 -0.84640993 -0.48899711
vn -0.21428869 -0.80715001 -0.55008110
vn -0.22117486 -0.81577867 -0.53440325
vn -0.21428869 -0.80715001 -0.55008110
vn -0.22082015 -0.69001786 -0.68928500
vn -0.22117486 -0.81577867 -0.53440325
vn -0.23724601 -0.67340913 -0.70016746
vn -0.25396329 -0.82490747 -0.50500527
vn -0.25569500 -0.67677552 -0.69035857
vn -0.26139080 -0.82126393 -0.50714929
vn -0.26473427 -0.68087511 -0.68287982
vn -0.27424794 -0.69120418 -0.66859916
vn -0.18390548 -0.48749986 -0.85353539
vn -0.18801701 -0.48422845 -0.85450126
vn -0.19561231 -0.61093674 -0.76713241
vn -0.20495162 -0.49516118 -0.84428090
vn -0.21342370 -0.50951969 -0.83357064
vn -0.23724601 -0.67340913 -0.70016746
vn -0.25087021 -0.59108150 -0.76660733
vn -0.25098025 -0.59138115 -0.76634016
vn -0.25569500 -0.67677552 -0.69035857
vn -0.16107196 -0.47917224 -0.86281504
vn -0.16393279 -0.46510541 -0.86994425
vn -0.17980411 -0.46274440 -0.86806573
vn -0.18390548 -0.48749986 -0.85353539
vn -0.18453820 -0.46533802 -0.86568249
vn -0.18801701 -0.48422845 -0.85450126
vn -0.12098305 -0.47699491 -0.87053946
vn -0.12158647 -0.47373441 -0.87223417
vn -0.12962017 -0.48481437 -0.86495875
vn -0.15746652 -0.48283935 -0.86143511
vn -0.15842851 -0.45989999 -0.87372330
vn -0.16107196 -0.47917224 -0.86281504
vn -0.16393279 -0.46510541 -0.86994425
vn -0.10247600 -0.50076686 -0.85949475
vn -0.10562304 -0.48115457 -0.87024942
vn -0.10628772 -0.48114338 -0.87017468
vn -0.10775298 -0.50882658 -0.85409883
vn -0.11199838 -0.51128125 -0.85208441
vn -0.10959757 -0.47832484 -0.87131723
vn -0.11998173 -0.47406224 -0.87227827
vn -0.12098305 -0.47699491 -0.87053946
vn -0.12158647 -0.47373441 -0.87223417
vn -0.10108655 -0.45457653 -0.88495293
vn -0.10313339 -0.47975576 -0.87131964
vn -0.10388271 -0.47971815 -0.87125133
vn -0.10897818 -0.47854332 -0.87127495
vn -0.10959757 -0.47832484 -0.87131723
vn -0.11998173 -0.47406224 -0.87227827
vn -0.10388271 -0.47971815 -0.87125133
vn -0.10562304 -0.48115457 -0.87024942
vn -0.10628772 -0.48114338 -0.87017468
vn -0.10897818 -0.47854332 -0.87127495
vn -0.05908982 -0.40758597 -0.91125302
vn -0.06157479 -0.48293093 -0.87349085
vn -0.06293881 -0.48309615 -0.87330225
vn -0.09168680 -0.48201695 -0.87135136
vn -0.09318513 -0.43912748 -0.89357909
vn -0.10108655 -0.45457653 -0.88495293
vn -0.10313339 -0.47975576 -0.87131964
vn -0.04068866 -0.35789358 -0.93287546
vn -0.04311864 -0.14434253 -0.98858789
vn -0.05908982 -0.40758597 -0.91125302
vn -0.06640939 -0.19034004 -0.97946948
vn -0.09318513 -0.43912748 -0.89357909
vn -0.09929292 -0.28905747 -0.95214846
vn -0.00995155 -0.28186095 -0.95940365
vn -0.01036095 -0.04630241 -0.99887373
vn -0.03179230 -0.34198458 -0.93916761
vn -0.04068866 -0.35789358 -0.93287546
vn -0.04311864 -0.14434253 -0.98858789
vn -0.41584109 -0.61361934 -0.67122835
vn -0.41594155 -0.62569906 -0.65991917
vn -0.43377075 -0.59634114 -0.67544073
vn -0.44069631 -0.59677174 -0.67055965
vn -0.47955063 -0.69244213 -0.53903162
vn -0.48245448 -0.61215645 -0.62649993
vn -0.49761796 -0.64831909 -0.57624536
vn -0.48245448 -0.61215645 -0.62649993
vn -0.49761796 -0.64831909 -0.57624536
vn -1.00000000 0.00000000 0.00000000
vn -0.31834852 -0.68931759 -0.65076530
vn -0.31860020 -0.68981248 -0.65011742
vn -0.35066801 -0.65453394 -0.66978898
vn -0.35758437 -0.73850131 -0.57161983
vn -0.36439062 -0.74122269 -0.56374498
vn -0.37026263 -0.64924125 -0.66437293
vn -0.34662465 -0.79011565 -0.50553794
vn -0.35093376 -0.79965449 -0.48723525
vn -0.35400277 -0.80191108 -0.48126984
vn -0.35758437 -0.73850131 -0.57161983
vn -0.36286825 -0.80615316 -0.46737963
vn -0.36439062 -0.74122269 -0.56374498
vn -0.38379630 -0.79101520 -0.47644028
vn -0.39163630 -0.76812376 -0.50656382
vn -0.38379630 -0.79101520 -0.47644028
vn -0.39163630 -0.76812376 -0.50656382
vn -0.39942313 -0.79176706 -0.46213211
vn -0.42949377 -0.77050942 -0.47100991
vn -0.00000000 -0.00000000 1.00000000
vn -0.39942313 -0.79176706 -0.46213211
vn -0.40794352 -0.81068281 -0.41997078
vn -0.42949377 -0.77050942 -0.47100991
vn -0.43786036 -0.76883879 -0.46600988
vn -0.39620151 -0.61530850 -0.68148354
vn -0.39623331 -0.62418408 -0.67334494
vn -0.40014047 -0.61236179 -0.68183622
vn -0.41584109 -0.61361934 -0.67122835
vn -0.41594155 -0.62569906 -0.65991917
vn -0.34798451 -0.59461730 -0.72480139
vn -0.35066801 -0.65453394 -0.66978898
vn -0.37026263 -0.64924125 -0.66437293
vn -0.39620151 -0.61530850 -0.68148354
vn -0.39623331 -0.62418408 -0.67334494
vn -0.02241918 -0.03281143 -0.99921008
vn -0.07740415 -0.14281953 -0.98671738
vn -0.08922062 -0.16045273 -0.98300285
vn -0.18680431 -0.19694768 -0.96245299
vn -0.23615198 -0.30301083 -0.92326414
vn -0.08922062 -0.16045273 -0.98300285
vn -0.20819913 -0.40045880 -0.89234851
vn -0.22997030 -0.41626066 -0.87968217
vn -0.23615198 -0.30301083 -0.92326414
vn -0.23968279 -0.41203646 -0.87907799
vn -0.25243911 -0.32817755 -0.91026040
vn -0.25998187 -0.39978365 -0.87896670
vn -0.26559198 -0.36236777 -0.89339269
vn -0.25243911 -0.32817755 -0.91026040
vn -0.26559198 -0.36236777 -0.89339269
vn -0.28586823 -0.38426119 -0.87785118
vn -0.30229617 -0.37660179 -0.87566439
vn -0.30852232 -0.37187605 -0.87551252
vn -0.30229617 -0.37660179 -0.87566439
vn -0.30852232 -0.37187605 -0.87551252
vn -0.30876037 -0.38161021 -0.87122941
vn -0.31165827 -0.37037930 -0.87503617
vn -0.30876037 -0.38161021 -0.87122941
vn -0.30915796 -0.38210945 -0.87086952
vn -0.31165827 -0.37037930 -0.87503617
vn -0.34290487 -0.35326069 -0.87041550
vn -1.00000000 0.00000000 0.00000000
vn -0.34290487 -0.35326069 -0.87041550
vn -0.35130007 -0.34825962 -0.86908198
vn -0.35972119 -0.34520918 -0.86685136
vn -1.00000000 0.00000000 0.00000000
vn -0.35972119 -0.34520918 -0.86685136
vn -0.39970505 -0.32955876 -0.85535191
vn -0.43771295 -0.32186006 -0.83953170
vn -1.00000000 0.00000000 0.00000000
vn -0.06640939 -0.19034004 -0.97946948
vn -0.06704888 -0.13258525 -0.98890121
vn -0.07740415 -0.14281953 -0.98671738
vn -0.08922062 -0.16045273 -0.98300285
vn -0.09929292 -0.28905747 -0.95214846
vn -0.17043917 -0.42507633 -0.88896603
vn -0.17514389 -0.42867447 -0.88631982
vn -0.20329203 -0.42631253 -0.88143632
vn -0.20819913 -0.40045880 -0.89234851
vn -0.43430773 -0.31010613 -0.84570148
vn -0.43771295 -0.32186006 -0.83953170
vn -1.00000000 0.00000000 0.00000000
vn -0.00000000 -0.00000000 1.00000000
vn -0.23520645 -0.85033592 -0.47075126
vn -0.26108818 -0.83623119 -0.48223475
vn -0.26241592 -0.83685228 -0.48043328
vn -0.21088398 -0.84640993 -0.48899711
vn -0.22117486 -0.81577867 -0.53440325
vn -0.23520645 -0.85033592 -0.47075126
vn -0.25396329 -0.82490747 -0.50500527
vn -0.26108818 -0.83623119 -0.48223475
vn -0.25396329 -0.82490747 -0.50500527
vn -0.26108818 -0.83623119 -0.48223475
vn -0.26139080 -0.82126393 -0.50714929
vn -0.26241592 -0.83685228 -0.48043328
vn -0.29645914 -0.84278330 -0.44925303
vn -0.30507496 -0.84074668 -0.44729664
vn -0.30536618 -0.84042043 -0.44771084
vn -0.30901080 -0.82851643 -0.46698270
vn -0.26139080 -0.82126393 -0.50714929
vn -0.27424794 -0.69120418 -0.66859916
vn -0.28729803 -0.69558732 -0.65849687
vn -0.30901080 -0.82851643 -0.46698270
vn -0.31606418 -0.73444655 -0.60057614
vn -0.33170575 -0.81207729 -0.48010600
vn -0.33981645 -0.78210031 -0.52234461
vn -0.26473427 -0.68087511 -0.68287982
vn -0.27424794 -0.69120418 -0.66859916
vn -0.28729803 -0.69558732 -0.65849687
vn -0.28733512 -0.67629269 -0.67828219
vn -0.25098025 -0.59138115 -0.76634016
vn -0.25569500 -0.67677552 -0.69035857
vn -0.26473427 -0.68087511 -0.68287982
vn -0.28733433 -0.67629200 -0.67828322
vn -0.28732264 -0.67363590 -0.68092612
vn -0.24164619 -0.49772162 -0.83299479
vn -0.25041626 -0.49125959 -0.83423960
vn -0.25087021 -0.59108150 -0.76660733
vn -0.25098025 -0.59138115 -0.76634016
vn -0.28732264 -0.67363590 -0.68092612
vn -0.28924247 -0.67588863 -0.67787414
vn -0.29970021 -0.53133488 -0.79237809
vn -0.31834852 -0.68931759 -0.65076530
vn -0.34798451 -0.59461730 -0.72480139
vn -0.35066801 -0.65453394 -0.66978898
vn -0.20966352 -0.48158588 -0.85095020
vn -0.21342370 -0.50951969 -0.83357064
vn -0.24164619 -0.49772162 -0.83299479
vn -0.25087021 -0.59108150 -0.76660733
vn -0.20200530 -0.47405267 -0.85701104
vn -0.20390941 -0.47386164 -0.85666569
vn -0.20495162 -0.49516118 -0.84428090
vn -0.20966352 -0.48158588 -0.85095020
vn -0.21342370 -0.50951969 -0.83357064
vn -0.18453820 -0.46533802 -0.86568249
vn -0.18801701 -0.48422845 -0.85450126
vn -0.19163227 -0.46437649 -0.86465689
vn -0.20200530 -0.47405267 -0.85701104
vn -0.20495162 -0.49516118 -0.84428090
vn -0.17744117 -0.44994886 -0.87524891
vn -0.17967862 -0.44845166 -0.87556079
vn -0.17980411 -0.46274440 -0.86806573
vn -0.18453820 -0.46533802 -0.86568249
vn -0.19163227 -0.46437649 -0.86465689
vn -0.19587684 -0.44099295 -0.87587527
vn -0.19621022 -0.44143442 -0.87557821
vn -0.15842851 -0.45989999 -0.87372330
vn -0.16393279 -0.46510541 -0.86994425
vn -0.16534644 -0.45554445 -0.87472270
vn -0.17744117 -0.44994886 -0.87524891
vn -0.17980411 -0.46274440 -0.86806573
vn -0.09318513 -0.43912748 -0.89357909
vn -0.09929292 -0.28905747 -0.95214846
vn -0.10108655 -0.45457653 -0.88495293
vn -0.11998173 -0.47406224 -0.87227827
vn -0.12158647 -0.47373441 -0.87223417
vn -0.15842851 -0.45989999 -0.87372330
vn -0.16534644 -0.45554445 -0.87472270
vn -0.17043917 -0.42507633 -0.88896603
vn -0.44056280 -0.58767509 -0.67863275
vn -0.44069631 -0.59677174 -0.67055965
vn -0.48245448 -0.61215645 -0.62649993
vn -1.00000000 0.00000000 0.00000000
vn -0.43372761 -0.58723186 -0.68340260
vn -0.43377075 -0.59634114 -0.67544073
vn -0.44056280 -0.58767509 -0.67863275
vn -0.44069631 -0.59677174 -0.67055965
vn -0.38975580 -0.53161673 -0.75198010
vn -0.40014047 -0.61236179 -0.68183622
vn -0.41584109 -0.61361934 -0.67122835
vn -0.43372761 -0.58723186 -0.68340260
vn -0.43377075 -0.59634114 -0.67544073
vn -0.28729803 -0.69558732 -0.65849687
vn -0.28733642 -0.67629382 -0.67828051
vn -0.28924247 -0.67588863 -0.67787414
vn -0.31606418 -0.73444655 -0.60057614
vn -0.31834852 -0.68931759 -0.65076530
vn -0.31860020 -0.68981248 -0.65011742
vn -0.31606418 -0.73444655 -0.60057614
vn -0.31860020 -0.68981248 -0.65011742
vn -0.33981645 -0.78210031 -0.52234461
vn -0.34662465 -0.79011565 -0.50553794
vn -0.35758437 -0.73850131 -0.57161983
vn -0.33170575 -0.81207729 -0.48010600
vn -0.33981645 -0.78210031 -0.52234461
vn -0.34264602 -0.80870435 -0.47811190
vn -0.34662465 -0.79011565 -0.50553794
vn -0.35035033 -0.80157061 -0.48449891
vn -0.35093376 -0.79965449 -0.48723525
vn -0.35035033 -0.80157061 -0.48449891
vn -0.35093376 -0.79965449 -0.48723525
vn -0.35400277 -0.80191108 -0.48126984
vn -0.00000000 -0.00000000 1.00000000
vn -0.34193441 -0.81410866 -0.46936974
vn -0.34264602 -0.80870435 -0.47811190
vn -0.35035033 -0.80157061 -0.48449891
vn -0.35400277 -0.80191108 -0.48126984
vn -0.36286825 -0.80615316 -0.46737963
vn -0.36384029 -0.80825193 -0.46297847
vn -0.36286825 -0.80615316 -0.46737963
vn -0.36384029 -0.80825193 -0.46297847
vn -0.38379630 -0.79101520 -0.47644028
vn -0.39942313 -0.79176706 -0.46213211
vn -0.40794352 -0.81068281 -0.41997078
vn -0.00000000 -0.00000000 1.00000000
vn -0.36384029 -0.80825193 -0.46297847
vn -0.40794352 -0.81068281 -0.41997078
vn -0.28113230 -0.43480211 -0.85551841
vn -0.29071112 -0.42596710 -0.85676080
vn -0.29970021 -0.53133488 -0.79237809
vn -0.31890255 -0.44089451 -0.83899535
vn -0.34798451 -0.59461730 -0.72480139
vn -0.37680804 -0.50926546 -0.77373405
vn -0.38307079 -0.51887992 -0.76421227
vn -0.38975580 -0.53161673 -0.75198010
vn -0.39620151 -0.61530850 -0.68148354
vn -0.40014047 -0.61236179 -0.68183622
vn -0.25998187 -0.39978365 -0.87896670
vn -0.26559198 -0.36236777 -0.89339269
vn -0.27318400 -0.39373802 -0.87769065
vn -0.28586823 -0.38426119 -0.87785118
vn -0.20329203 -0.42631253 -0.88143632
vn -0.20745151 -0.43192976 -0.87772465
vn -0.20819913 -0.40045880 -0.89234851
vn -0.22997030 -0.41626066 -0.87968217
vn -0.20698616 -0.43241595 -0.87759511
vn -0.20745151 -0.43192976 -0.87772465
vn -0.20874728 -0.44026743 -0.87326351
vn -0.20943517 -0.44077456 -0.87284288
vn -0.22997030 -0.41626066 -0.87968217
vn -0.23460263 -0.43838503 -0.86762905
vn -0.23968279 -0.41203646 -0.87907799
vn -0.23460263 -0.43838503 -0.86762905
vn -0.23675299 -0.44019409 -0.86612769
vn -0.23968279 -0.41203646 -0.87907799
vn -0.25998187 -0.39978365 -0.87896670
vn -0.27318400 -0.39373802 -0.87769065
vn -0.28113230 -0.43480211 -0.85551841
vn -0.29071112 -0.42596710 -0.85676080
vn -0.29243142 -0.41099024 -0.86346447
vn -0.27318400 -0.39373802 -0.87769065
vn -0.28586823 -0.38426119 -0.87785118
vn -0.29243142 -0.41099024 -0.86346447
vn -0.30229617 -0.37660179 -0.87566439
vn -0.30552275 -0.41012398 -0.85933356
vn -0.30876037 -0.38161021 -0.87122941
vn -0.30915796 -0.38210945 -0.87086952
vn -0.30943793 -0.38669342 -0.86874413
vn -0.30915796 -0.38210945 -0.87086952
vn -0.30943793 -0.38669342 -0.86874413
vn -0.31343260 -0.39095864 -0.86539664
vn -1.00000000 0.00000000 0.00000000
vn -0.16534644 -0.45554445 -0.87472270
vn -0.17043917 -0.42507633 -0.88896603
vn -0.17514389 -0.42867447 -0.88631982
vn -0.17744117 -0.44994886 -0.87524891
vn -0.17967862 -0.44845166 -0.87556079
vn -0.17514389 -0.42867447 -0.88631982
vn -0.17967862 -0.44845166 -0.87556079
vn -0.19587684 -0.44099295 -0.87587527
vn -0.20329203 -0.42631253 -0.88143632
vn -0.20698616 -0.43241595 -0.87759511
vn -0.20745151 -0.43192976 -0.87772465
vn -0.00000000 -0.00000000 1.00000000
vn -0.26241592 -0.83685228 -0.48043328
vn -0.29645914 -0.84278330 -0.44925303
vn -0.30536618 -0.84042043 -0.44771084
vn -0.30901080 -0.82851643 -0.46698270
vn -0.32994970 -0.84755312 -0.41567643
vn -0.33170575 -0.81207729 -0.48010600
vn -0.34193441 -0.81410866 -0.46936974
vn -0.34264602 -0.80870435 -0.47811190
vn -0.00000000 -0.00000000 1.00000000
vn -0.29645914 -0.84278330 -0.44925303
vn -0.30507496 -0.84074668 -0.44729664
vn -0.00000000 -0.00000000 1.00000000
vn -0.30507496 -0.84074668 -0.44729664
vn -0.30536618 -0.84042043 -0.44771084
vn -0.32994970 -0.84755312 -0.41567643
vn -0.28733562 -0.67629313 -0.67828154
vn -0.28732264 -0.67363590 -0.68092612
vn -0.28924247 -0.67588863 -0.67787414
vn -0.23675299 -0.44019409 -0.86612769
vn -0.25041626 -0.49125959 -0.83423960
vn -0.28113230 -0.43480211 -0.85551841
vn -0.29970021 -0.53133488 -0.79237809
vn -0.20390941 -0.47386164 -0.85666569
vn -0.20943517 -0.44077456 -0.87284288
vn -0.20966352 -0.48158588 -0.85095020
vn -0.23460263 -0.43838503 -0.86762905
vn -0.23675299 -0.44019409 -0.86612769
vn -0.24164619 -0.49772162 -0.83299479
vn -0.25041626 -0.49125959 -0.83423960
vn -0.19163227 -0.46437649 -0.86465689
vn -0.19621022 -0.44143442 -0.87557821
vn -0.20200530 -0.47405267 -0.85701104
vn -0.20390941 -0.47386164 -0.85666569
vn -0.20874728 -0.44026743 -0.87326351
vn -0.20943517 -0.44077456 -0.87284288
vn -0.19587684 -0.44099295 -0.87587527
vn -0.19621022 -0.44143442 -0.87557821
vn -0.20698616 -0.43241595 -0.87759511
vn -0.20874728 -0.44026743 -0.87326351
vn -0.38307079 -0.51887992 -0.76421227
vn -0.38975580 -0.53161673 -0.75198010
vn -0.43372761 -0.58723186 -0.68340260
vn -0.44056280 -0.58767509 -0.67863275
vn -1.00000000 0.00000000 0.00000000
vn -0.00000000 -0.00000000 1.00000000
vn -0.32994970 -0.84755312 -0.41567643
vn -0.34193441 -0.81410866 -0.46936974
vn -0.35377788 -0.44154649 -0.82454709
vn -0.37680804 -0.50926546 -0.77373405
vn -0.38307079 -0.51887992 -0.76421227
vn -1.00000000 0.00000000 0.00000000
vn -0.30779268 -0.41253034 -0.85736946
vn -0.31890255 -0.44089451 -0.83899535
vn -0.32211358 -0.41823219 -0.84930835
vn -0.35377788 -0.44154649 -0.82454709
vn -0.37680804 -0.50926546 -0.77373405
vn -0.29071112 -0.42596710 -0.85676080
vn -0.29243142 -0.41099024 -0.86346447
vn -0.30552275 -0.41012398 -0.85933356
vn -0.30779268 -0.41253034 -0.85736946
vn -0.31890255 -0.44089451 -0.83899535
vn -0.30552275 -0.41012398 -0.85933356
vn -0.30779268 -0.41253034 -0.85736946
vn -0.30943793 -0.38669342 -0.86874413
vn -0.31343260 -0.39095864 -0.86539664
vn -0.32211358 -0.41823219 -0.84930835
vn -0.31343260 -0.39095864 -0.86539664
vn -0.32211358 -0.41823219 -0.84930835
vn -0.35377788 -0.44154649 -0.82454709
vn -1.00000000 0.00000000 0.00000000
f 2//2 6//6 11//11
f 3//3 12//12 38//38
f 3//3 38//38 86//86
f 3//3 86//86 143//143
f 3//3 143//143 243//243
f 3//3 243//243 240//240
f 3//3 240//240 389//389
f 3//3 389//389 286//286
f 3//3 286//286 165//165
f 3//3 165//165 93//93
f 3//3 93//93 44//44
f 3//3 44//44 18//18
f 1//1 13//13 39//39
f 1//1 39//39 87//87
f 1//1 87//87 148//148
f 1//1 148//148 254//254
f 1//1 254//254 411//411
f 1//1 411//411 573//573
f 1//1 573//573 757//757
f 1//1 757//757 745//745
f 1//1 745//745 861//861
f 1//1 861//861 828//828
f 1//1 828//828 825//825
f 1//1 825//825 816//816
f 1//1 816//816 635//635
f 1//1 635//635 466//466
f 1//1 466//466 463//463
f 1//1 463//463 460//460
f 1//1 460//460 294//294
f 1//1 294//294 169//169
f 1//1 169//169 166//166
f 1//1 166//166 117//117
f 1//1 117//117 97//97
f 1//1 97//97 55//55
f 1//1 55//55 19//19
f 1//1 19//19 4//4
f 8//8 20//20 23//23
f 7//7 22//22 34//34
f 5//5 30//30 9//9
f 10//10 31//31 36//36
f 17//17 43//43 47//47
f 16//16 46//46 50//50
f 15//15 49//49 53//53
f 14//14 52//52 40//40
f 21//21 56//56 26//26
f 27//27 57//57 59//59
f 28//28 60//60 69//69
f 25//25 66//66 76//76
f 24//24 75//75 35//35
f 33//33 72//72 81//81
f 29//29 78//78 83//83
f 32//32 85//85 37//37
f 41//41 54//54 96//96
f 41//41 96//96 160//160
f 41//41 160//160 283//283
f 41//41 283//283 455//455
f 41//41 455//455 634//634
f 41//41 634//634 622//622
f 41//41 622//622 618//618
f 41//41 618//618 614//614
f 41//41 614//614 804//804
f 41//41 804//804 886//886
f 41//41 886//886 867//867
f 41//41 867//867 860//860
f 41//41 860//860 715//715
f 41//41 715//715 554//554
f 41//41 554//554 395//395
f 41//41 395//395 247//247
f 41//41 247//247 147//147
f 41//41 147//147 89//89
f 42//42 90//90 94//94
f 42//42 94//94 51//51
f 42//42 51//51 48//48
f 42//42 48//48 45//45
f 58//58 98//98 61//61
f 63//63 100//100 111//111
f 62//62 108//108 70//70
f 64//64 99//99 118//118
f 65//65 119//119 101//101
f 71//71 109//109 124//124
f 68//68 122//122 132//132
f 67//67 130//130 77//77
f 74//74 128//128 140//140
f 73//73 138//138 82//82
f 80//80 136//136 144//144
f 79//79 141//141 84//84
f 88//88 146//146 153//153
f 91//91 155//155 95//95
f 92//92 164//164 156//156
f 103//103 120//120 167//167
f 106//106 168//168 170//170
f 107//107 171//171 174//174
f 105//105 173//173 181//181
f 104//104 180//180 188//188
f 102//102 186//186 112//112
f 116//116 187//187 191//191
f 115//115 190//190 197//197
f 114//114 196//196 207//207
f 113//113 206//206 213//213
f 110//110 208//208 125//125
f 126//126 209//209 218//218
f 123//123 215//215 225//225
f 121//121 222//222 131//131
f 129//129 221//221 232//232
f 127//127 228//228 139//139
f 137//137 227//227 236//236
f 133//133 233//233 237//237
f 135//135 239//239 242//242
f 134//134 241//241 142//142
f 145//145 246//246 152//152
f 149//149 251//251 257//257
f 151//151 244//244 260//260
f 150//150 258//258 252//252
f 157//157 265//265 271//271
f 158//158 272//272 275//275
f 159//159 276//276 279//279
f 154//154 163//163 264//264
f 161//161 285//285 290//290
f 162//162 291//291 263//263
f 172//172 295//295 176//176
f 177//177 296//296 298//298
f 179//179 299//299 307//307
f 178//178 306//306 310//310
f 175//175 309//309 184//184
f 185//185 312//312 318//318
f 183//183 315//315 193//193
f 182//182 192//192 189//189
f 194//194 316//316 199//199
f 200//200 322//322 330//330
f 198//198 329//329 337//337
f 195//195 335//335 205//205
f 201//201 317//317 323//323
f 203//203 342//342 212//212
f 204//204 334//334 350//350
f 202//202 347//347 340//340
f 211//211 341//341 355//355
f 210//210 353//353 219//219
f 217//217 351//351 358//358
f 216//216 356//356 366//366
f 214//214 365//365 224//224
f 223//223 363//363 371//371
f 220//220 369//369 231//231
f 230//230 368//368 375//375
f 229//229 373//373 384//384
f 226//226 383//383 235//235
f 234//234 379//379 386//386
f 234//234 386//386 238//238
f 245//245 394//394 261//261
f 248//248 404//404 409//409
f 250//250 410//410 256//256
f 253//253 259//259 393//393
f 249//249 391//391 406//406
f 255//255 408//408 414//414
f 268//268 418//418 420//420
f 269//269 421//421 428//428
f 270//270 429//429 273//273
f 262//262 289//289 436//436
f 266//266 438//438 443//443
f 267//267 444//444 415//415
f 274//274 430//430 277//277
f 278//278 431//431 280//280
f 281//281 432//432 448//448
f 282//282 449//449 453//453
f 284//284 388//388 288//288
f 287//287 387//387 380//380
f 292//292 381//381 456//456
f 293//293 457//457 437//437
f 297//297 461//461 301//301
f 303//303 462//462 464//464
f 304//304 465//465 467//467
f 305//305 468//468 473//473
f 302//302 471//471 313//313
f 300//300 311//311 308//308
f 314//314 472//472 319//319
f 320//320 475//475 477//477
f 321//321 478//478 325//325
f 324//324 488//488 332//332
f 326//326 480//480 491//491
f 331//331 486//486 498//498
f 328//328 495//495 506//506
f 327//327 504//504 336//336
f 333//333 503//503 349//349
f 339//339 346//346 512//512
f 338//338 511//511 354//354
f 348//348 501//501 515//515
f 345//345 513//513 521//521
f 344//344 520//520 526//526
f 343//343 525//525 510//510
f 352//352 508//508 359//359
f 362//362 509//509 524//524
f 361//361 523//523 519//519
f 360//360 518//518 533//533
f 357//357 530//530 367//367
f 364//364 529//529 372//372
f 370//370 528//528 378//378
f 377//377 527//527 536//536
f 376//376 534//534 543//543
f 374//374 542//542 385//385
f 382//382 540//540 458//458
f 390//390 549//549 405//405
f 392//392 553//553 551//551
f 396//396 559//559 566//566
f 398//398 568//568 570//570
f 401//401 572//572 576//576
f 402//402 577//577 412//412
f 403//403 413//413 407//407
f 400//400 546//546 582//582
f 399//399 579//579 587//587
f 397//397 585//585 560//560
f 416//416 445//445 588//588
f 417//417 591//591 419//419
f 422//422 592//592 596//596
f 423//423 598//598 601//601
f 424//424 605//605 607//607
f 425//425 609//609 612//612
f 426//426 613//613 615//615
f 427//427 616//616 433//433
f 434//434 617//617 619//619
f 435//435 620//620 450//450
f 439//439 459//459 541//541
f 440//440 544//544 535//535
f 441//441 537//537 623//623
f 442//442 624//624 446//446
f 447//447 625//625 589//589
f 451//451 632//632 454//454
f 452//452 621//621 633//633
f 470//470 636//636 641//641
f 469//469 639//639 474//474
f 476//476 640//640 479//479
f 481//481 642//642 644//644
f 483//483 646//646 652//652
f 485//485 653//653 660//660
f 484//484 659//659 665//665
f 482//482 664//664 494//494
f 493//493 663//663 671//671
f 492//492 670//670 681//681
f 490//490 679//679 686//686
f 489//489 684//684 691//691
f 487//487 688//688 500//500
f 499//499 687//687 695//695
f 497//497 694//694 703//703
f 496//496 700//700 507//507
f 505//505 699//699 709//709
f 502//502 708//708 516//516
f 514//514 707//707 522//522
f 517//517 706//706 532//532
f 531//531 704//704 538//538
f 539//539 705//705 627//627
f 550//550 552//552 714//714
f 548//548 713//713 719//719
f 547//547 717//717 724//724
f 545//545 722//722 581//581
f 557//557 584//584 677//677
f 555//555 675//675 729//729
f 556//556 730//730 732//732
f 558//558 735//735 564//564
f 561//561 734//734 739//739
f 562//562 741//741 743//743
f 563//563 744//744 749//749
f 565//565 750//750 752//752
f 567//567 754//754 569//569
f 571//571 755//755 574//574
f 575//575 756//756 759//759
f 580//580 721//721 769//769
f 578//578 768//768 586//586
f 583//583 764//764 676//676
f 590//590 626//626 593//593
f 600//600 771//771 602//602
f 594//594 631//631 776//776
f 595//595 777//777 782//782
f 597//597 784//784 787//787
f 599//599 788//788 770//770
f 603//603 773//773 794//794
f 604//604 796//796 606//606
f 608//608 798//798 610//610
f 611//611 799//799 801//801
f 628//628 711//711 806//806
f 629//629 807//807 810//810
f 630//630 813//813 774//774
f 638//638 817//817 647//647
f 637//637 645//645 643//643
f 651//651 820//820 655//655
f 648//648 818//818 826//826
f 649//649 827//827 829//829
f 650//650 830//830 819//819
f 657//657 822//822 736//736
f 658//658 737//737 733//733
f 656//656 731//731 728//728
f 654//654 725//725 661//661
f 662//662 726//726 832//832
f 662//662 832//832 666//666
f 667//667 833//833 672//672
f 674//674 762//762 838//838
f 669//669 836//836 845//845
f 668//668 844//844 680//680
f 673//673 834//834 727//727
f 678//678 841//841 685//685
f 683//683 839//839 849//849
f 682//682 848//848 690//690
f 689//689 846//846 696//696
f 698//698 847//847 853//853
f 697//697 852//852 812//812
f 693//693 811//811 809//809
f 692//692 808//808 702//702
f 701//701 805//805 710//710
f 712//712 859//859 718//718
f 716//716 858//858 723//723
f 720//720 857//857 767//767
f 738//738 824//824 747//747
f 740//740 748//748 742//742
f 746//746 823//823 863//863
f 751//751 758//758 753//753
f 766//766 856//856 866//866
f 765//765 865//865 872//872
f 763//763 869//869 877//877
f 761//761 873//873 791//791
f 760//760 790//790 837//837
f 772//772 789//789 793//793
f 775//775 815//815 779//779
f 780//780 855//855 850//850
f 781//781 851//851 840//840
f 783//783 842//842 785//785
f 778//778 814//814 854//854
f 786//786 843//843 835//835
f 792//792 874//874 795//795
f 800//800 880//880 802//802
f 797//797 875//875 878//878
f 803//803 881//881 883//883
f 821//821 831//831 862//862
f 864//864 885//885 871//871
f 870//870 884//884 882//882
f 868//868 879//879 876//876

