# https://github.com/mikedh/trimesh
v -1.29567599 -0.39777023 0.98800942
v -1.29567599 -0.39777023 0.98800942
v -1.29567599 -0.39777023 0.98800942
v -1.29567599 -0.39777023 0.98800942
v -1.29567599 -0.39777023 0.98800942
v -1.29301786 -0.39777023 0.95788595
v -1.29301786 -0.39777023 0.95788595
v -1.29301786 -0.39777023 0.95788595
v -1.29168880 -0.40730551 0.96083614
v -1.29168880 -0.40730551 0.96083614
v -1.29168880 -0.40730551 0.96083614
v -1.29168880 -0.40730551 0.96083614
v -1.29168880 -0.40730551 0.96083614
v -1.29168880 -0.40730551 0.96083614
v -1.29168880 -0.40730551 0.96083614
v -1.29168880 -0.40730551 0.96083614
v -1.29168880 -0.40730551 0.96083614
v -1.29168880 -0.40730551 0.96083614
v -1.29235339 -0.40995964 0.98800942
v -1.29235339 -0.40995964 0.98800942
v -1.29235339 -0.40995964 0.98800942
v -1.29235339 -0.40995964 0.98800942
v -1.29119039 -0.40599477 1.01262063
v -1.29119039 -0.40599477 1.01262063
v -1.29119039 -0.40599477 1.01262063
v -1.29119039 -0.40599477 1.01262063
v -1.29119039 -0.40599477 1.01262063
v -1.29119039 -0.40599477 1.01262063
v -1.29119039 -0.40599477 1.01262063
v -1.29119039 -0.40599477 1.01262063
v -1.29119039 -0.40599477 1.01262063
v -1.29407012 -0.39777023 1.00547794
v -1.29407012 -0.39777023 1.00547794
v -1.29407012 -0.39777023 1.00547794
v -1.21227562 -0.39777023 0.63328196
v -1.21227562 -0.39777023 0.63328196
v -1.21227562 -0.39777023 0.63328196
v -1.21227562 -0.39777023 0.63328196
v -1.24583519 -0.53506535 0.96401930
v -1.24583519 -0.53506535 0.96401930
v -1.24583519 -0.53506535 0.96401930
v -1.24583519 -0.53506535 0.96401930
v -1.24583519 -0.53506535 0.96401930
v -1.24583519 -0.53506535 0.96401930
v -1.24583519 -0.53506535 0.96401930
v -1.24583519 -0.53506535 0.96401930
v -1.24583519 -0.53506535 0.96401930
v -1.24583519 -0.53506535 0.96401930
v -1.24583519 -0.53506535 0.96401930
v -1.27474284 -0.46674547 0.98800942
v -1.27474284 -0.46674547 0.98800942
v -1.27474284 -0.46674547 0.98800942
v -1.27474284 -0.46674547 0.98800942
v -1.27474284 -0.46674547 0.98800942
v -1.27474284 -0.46674547 0.98800942
v -1.28592944 -0.43217590 0.98800942
v -1.28592944 -0.43217590 0.98800942
v -1.28592944 -0.43217590 0.98800942
v -1.28592944 -0.43217590 0.98800942
v -1.20241821 -0.40589651 0.60346901
v -1.20241821 -0.40589651 0.60346901
v -1.20241821 -0.40589651 0.60346901
v -1.20241821 -0.40589651 0.60346901
v -1.20241821 -0.40589651 0.60346901
v -1.20241821 -0.40589651 0.60346901
v -1.20241821 -0.40589651 0.60346901
v -1.20241821 -0.40589651 0.60346901
v -1.20241821 -0.40589651 0.60346901
v -1.20563018 -0.42132992 0.63444653
v -1.20563018 -0.42132992 0.63444653
v -1.20563018 -0.42132992 0.63444653
v -1.20563018 -0.42132992 0.63444653
v -1.20164287 -0.44679013 0.65059520
v -1.20164287 -0.44679013 0.65059520
v -1.20164287 -0.44679013 0.65059520
v -1.20164287 -0.44679013 0.65059520
v -1.20164287 -0.44679013 0.65059520
v -1.20164287 -0.44679013 0.65059520
v -1.20164287 -0.44679013 0.65059520
v -1.24583519 -0.53503257 1.01137841
v -1.24583519 -0.53503257 1.01137841
v -1.24583519 -0.53503257 1.01137841
v -1.24583519 -0.53503257 1.01137841
v -1.24583519 -0.53503257 1.01137841
v -1.24583519 -0.53503257 1.01137841
v -1.24583519 -0.53503257 1.01137841
v -1.24583519 -0.53503257 1.01137841
v -1.24583519 -0.53503257 1.01137841
v -1.25109613 -0.51121074 1.01735654
v -1.25109613 -0.51121074 1.01735654
v -1.25109613 -0.51121074 1.01735654
v -1.25109613 -0.51121074 1.01735654
v -1.25973523 -0.46674547 1.02488744
v -1.25973523 -0.46674547 1.02488744
v -1.25973523 -0.46674547 1.02488744
v -1.25973523 -0.46674547 1.02488744
v -1.25973523 -0.46674547 1.02488744
v -1.25973523 -0.46674547 1.02488744
v -1.25973523 -0.46674547 1.02488744
v -1.25973523 -0.46674547 1.02488744
v -1.29224265 -0.39777023 1.01401809
v -1.29224265 -0.39777023 1.01401809
v -1.29224265 -0.39777023 1.01401809
v -1.29224265 -0.39777023 1.01401809
v -1.20352578 -0.39777023 0.59912129
v -1.20352578 -0.39777023 0.59912129
v -1.20352578 -0.39777023 0.59912129
v -1.20241821 -0.62576532 0.96184543
v -1.20241821 -0.62576532 0.96184543
v -1.20241821 -0.62576532 0.96184543
v -1.20241821 -0.62576532 0.96184543
v -1.20241821 -0.62576532 0.96184543
v -1.20241821 -0.62576532 0.96184543
v -1.20241821 -0.62576532 0.96184543
v -1.20241821 -0.62576532 0.96184543
v -1.20241821 -0.62576532 0.96184543
v -1.20241821 -0.62576532 0.96184543
v -1.20241821 -0.62576532 0.96184543
v -1.20241821 -0.62576532 0.96184543
v -1.21659517 -0.60010850 0.98800942
v -1.21659517 -0.60010850 0.98800942
v -1.21659517 -0.60010850 0.98800942
v -1.21659517 -0.60010850 0.98800942
v -1.21659517 -0.60010850 0.98800942
v -1.21659517 -0.60010850 0.98800942
v -1.23608840 -0.55810076 0.98800942
v -1.23608840 -0.55810076 0.98800942
v -1.23608840 -0.55810076 0.98800942
v -1.23608840 -0.55810076 0.98800942
v -1.24616742 -0.53585172 0.98800942
v -1.24616742 -0.53585172 0.98800942
v -1.24616742 -0.53585172 0.98800942
v -1.24616742 -0.53585172 0.98800942
v -1.25724316 -0.51121074 0.98800942
v -1.25724316 -0.51121074 0.98800942
v -1.25724316 -0.51121074 0.98800942
v -1.25724316 -0.51121074 0.98800942
v -1.18968105 -0.46366531 0.63444653
v -1.18968105 -0.46366531 0.63444653
v -1.18968105 -0.46366531 0.63444653
v -1.18968105 -0.46366531 0.63444653
v -1.18968105 -0.46366531 0.63444653
v -1.15462637 -0.53001916 0.61604635
v -1.15462637 -0.53001916 0.61604635
v -1.15462637 -0.53001916 0.61604635
v -1.15462637 -0.53001916 0.61604635
v -1.15462637 -0.53001916 0.61604635
v -1.13513303 -0.55567598 0.58786380
v -1.13513303 -0.55567598 0.58786380
v -1.13513303 -0.55567598 0.58786380
v -1.13513303 -0.55567598 0.58786380
v -1.13513303 -0.55567598 0.58786380
v -1.13513303 -0.55567598 0.58786380
v -1.19737875 -0.39777023 0.57668395
v -1.19737875 -0.39777023 0.57668395
v -1.19737875 -0.39777023 0.57668395
v -1.19737875 -0.39777023 0.57668395
v -1.15612149 -0.39990008 0.43235513
v -1.15612149 -0.39990008 0.43235513
v -1.15612149 -0.39990008 0.43235513
v -1.15612149 -0.39990008 0.43235513
v -1.15612149 -0.39990008 0.43235513
v -1.15612149 -0.39990008 0.43235513
v -1.15612149 -0.39990008 0.43235513
v -1.15612149 -0.39990008 0.43235513
v -1.15612149 -0.39990008 0.43235513
v -1.15612149 -0.39990008 0.43235513
v -1.15612149 -0.39990008 0.43235513
v -1.15612149 -0.39990008 0.43235513
v -1.15612149 -0.39990008 0.43235513
v -1.18043280 -0.42228016 0.54337730
v -1.18043280 -0.42228016 0.54337730
v -1.18043280 -0.42228016 0.54337730
v -1.18043280 -0.42228016 0.54337730
v -1.18043280 -0.42228016 0.54337730
v -1.18043280 -0.42228016 0.54337730
v -1.18043280 -0.42228016 0.54337730
v -1.19328070 -0.42132992 0.58832964
v -1.19328070 -0.42132992 0.58832964
v -1.19328070 -0.42132992 0.58832964
v -1.19771099 -0.43555096 0.62101517
v -1.19771099 -0.43555096 0.62101517
v -1.19771099 -0.43555096 0.62101517
v -1.19771099 -0.43555096 0.62101517
v -1.19771099 -0.43555096 0.62101517
v -1.19771099 -0.43555096 0.62101517
v -1.15961039 -0.45222950 0.50999302
v -1.15961039 -0.45222950 0.50999302
v -1.15961039 -0.45222950 0.50999302
v -1.15961039 -0.45222950 0.50999302
v -1.15961039 -0.45222950 0.50999302
v -1.15961039 -0.45222950 0.50999302
v -1.15961039 -0.45222950 0.50999302
v -1.15961039 -0.45222950 0.50999302
v -1.15961039 -0.45222950 0.50999302
v -1.17561483 -0.46674547 0.58786380
v -1.17561483 -0.46674547 0.58786380
v -1.17561483 -0.46674547 0.58786380
v -1.17561483 -0.46674547 0.58786380
v -1.17561483 -0.46674547 0.58786380
v -1.17561483 -0.46674547 0.58786380
v -1.20247364 -0.62586361 1.01300880
v -1.20247364 -0.62586361 1.01300880
v -1.20247364 -0.62586361 1.01300880
v -1.20247364 -0.62586361 1.01300880
v -1.20247364 -0.62586361 1.01300880
v -1.20247364 -0.62586361 1.01300880
v -1.20867598 -0.60010850 1.01953042
v -1.20867598 -0.60010850 1.01953042
v -1.20867598 -0.60010850 1.01953042
v -1.20867598 -0.60010850 1.01953042
v -1.20867598 -0.60010850 1.01953042
v -1.20867598 -0.60010850 1.01953042
v -1.20867598 -0.60010850 1.01953042
v -1.20867598 -0.60010850 1.01953042
v -1.22373903 -0.55216986 1.02356756
v -1.22373903 -0.55216986 1.02356756
v -1.22373903 -0.55216986 1.02356756
v -1.22373903 -0.55216986 1.02356756
v -1.22285295 -0.51121074 1.03451449
v -1.22285295 -0.51121074 1.03451449
v -1.22285295 -0.51121074 1.03451449
v -1.22285295 -0.51121074 1.03451449
v -1.22285295 -0.46674547 1.04072553
v -1.22285295 -0.46674547 1.04072553
v -1.22285295 -0.46674547 1.04072553
v -1.22285295 -0.46674547 1.04072553
v -1.22285295 -0.46674547 1.04072553
v -1.22285295 -0.46674547 1.04072553
v -1.26865113 -0.39777023 1.03016680
v -1.26865113 -0.39777023 1.03016680
v -1.26865113 -0.39777023 1.03016680
v -1.26865113 -0.39777023 1.03016680
v -1.26865113 -0.39777023 1.03016680
v -1.11037874 -0.61989993 0.61503706
v -1.11037874 -0.61989993 0.61503706
v -1.11037874 -0.61989993 0.61503706
v -1.11037874 -0.61989993 0.61503706
v -1.10190570 -0.64313197 0.63087519
v -1.10190570 -0.64313197 0.63087519
v -1.10190570 -0.64313197 0.63087519
v -1.10190570 -0.64313197 0.63087519
v -1.10644686 -0.65728748 0.67668153
v -1.10644686 -0.65728748 0.67668153
v -1.10644686 -0.65728748 0.67668153
v -1.10644686 -0.65728748 0.67668153
v -1.10644686 -0.65728748 0.67668153
v -1.10644686 -0.65728748 0.67668153
v -1.15601087 -0.71105874 0.97054088
v -1.15601087 -0.71105874 0.97054088
v -1.15601087 -0.71105874 0.97054088
v -1.15601087 -0.71105874 0.97054088
v -1.15601087 -0.71105874 0.97054088
v -1.15601087 -0.71105874 0.97054088
v -1.15601087 -0.71105874 0.97054088
v -1.15601087 -0.71105874 0.97054088
v -1.15601087 -0.71105874 0.97054088
v -1.15601087 -0.71105874 0.97054088
v -1.15601087 -0.71105874 0.97054088
v -1.15601087 -0.71105874 0.97054088
v -1.19123173 -0.64978379 0.98800942
v -1.19123173 -0.64978379 0.98800942
v -1.19123173 -0.64978379 0.98800942
v -1.19123173 -0.64978379 0.98800942
v -1.19123173 -0.64978379 0.98800942
v -1.19123173 -0.64978379 0.98800942
v -1.20335960 -0.62756753 0.98800942
v -1.20335960 -0.62756753 0.98800942
v -1.20335960 -0.62756753 0.98800942
v -1.20335960 -0.62756753 0.98800942
v -1.20335960 -0.62756753 0.98800942
v -1.11408913 -0.58244687 0.55750739
v -1.11408913 -0.58244687 0.55750739
v -1.11408913 -0.58244687 0.55750739
v -1.11408913 -0.58244687 0.55750739
v -1.11408913 -0.58244687 0.55750739
v -1.11408913 -0.58244687 0.55750739
v -1.11408913 -0.58244687 0.55750739
v -1.11408913 -0.58244687 0.55750739
v -1.11829782 -0.59057319 0.58786380
v -1.11829782 -0.59057319 0.58786380
v -1.11829782 -0.59057319 0.58786380
v -1.10666835 -0.61282223 0.58786380
v -1.10666835 -0.61282223 0.58786380
v -1.10666835 -0.61282223 0.58786380
v -1.10666835 -0.61282223 0.58786380
v -1.10666835 -0.61282223 0.58786380
v -1.10666835 -0.61282223 0.58786380
v -1.10666835 -0.61282223 0.58786380
v -1.10666835 -0.61282223 0.58786380
v -1.16088414 -0.49934891 0.58786380
v -1.16088414 -0.49934891 0.58786380
v -1.16088414 -0.49934891 0.58786380
v -1.16088414 -0.49934891 0.58786380
v -1.16088414 -0.49934891 0.58786380
v -1.15080523 -0.52156520 0.58786380
v -1.15080523 -0.52156520 0.58786380
v -1.15080523 -0.52156520 0.58786380
v -1.15080523 -0.52156520 0.58786380
v -1.15080523 -0.52156520 0.58786380
v -1.15080523 -0.52156520 0.58786380
v -1.12162054 -0.55760926 0.54298911
v -1.12162054 -0.55760926 0.54298911
v -1.12162054 -0.55760926 0.54298911
v -1.12162054 -0.55760926 0.54298911
v -1.12162054 -0.55760926 0.54298911
v -1.12162054 -0.55760926 0.54298911
v -1.15733981 -0.39777023 0.43445137
v -1.15733981 -0.39777023 0.43445137
v -1.15733981 -0.39777023 0.43445137
v -1.13967407 -0.42228016 0.40999544
v -1.13967407 -0.42228016 0.40999544
v -1.13967407 -0.42228016 0.40999544
v -1.13967407 -0.42228016 0.40999544
v -1.13967407 -0.42228016 0.40999544
v -1.13967407 -0.42228016 0.40999544
v -1.13967407 -0.42228016 0.40999544
v -1.15196812 -0.42496708 0.45005657
v -1.15196812 -0.42496708 0.45005657
v -1.15196812 -0.42496708 0.45005657
v -1.15506935 -0.44161287 0.48033534
v -1.15506935 -0.44161287 0.48033534
v -1.15506935 -0.44161287 0.48033534
v -1.15506935 -0.44161287 0.48033534
v -1.15506935 -0.44161287 0.48033534
v -1.15506935 -0.44161287 0.48033534
v -1.15506935 -0.44161287 0.48033534
v -1.15506935 -0.44161287 0.48033534
v -1.15506935 -0.44161287 0.48033534
v -1.15506935 -0.44161287 0.48033534
v -1.16049647 -0.41195846 0.46201281
v -1.16049647 -0.41195846 0.46201281
v -1.16049647 -0.41195846 0.46201281
v -1.16597903 -0.42496708 0.49663930
v -1.16597903 -0.42496708 0.49663930
v -1.16597903 -0.42496708 0.49663930
v -1.16597903 -0.42496708 0.49663930
v -1.15639842 -0.39777023 0.43150112
v -1.15639842 -0.39777023 0.43150112
v -1.15639842 -0.39777023 0.43150112
v -1.15567851 -0.39777023 0.42940490
v -1.15567851 -0.39777023 0.42940490
v -1.15567851 -0.39777023 0.42940490
v -1.11010182 -0.39777023 0.30308808
v -1.11010182 -0.39777023 0.30308808
v -1.11010182 -0.39777023 0.30308808
v -1.11010182 -0.39777023 0.30308808
v -1.11010182 -0.39777023 0.30308808
v -1.11010182 -0.39777023 0.30308808
v -1.11010182 -0.39777023 0.30308808
v -1.11619341 -0.41081157 0.33150356
v -1.11619341 -0.41081157 0.33150356
v -1.11619341 -0.41081157 0.33150356
v -1.11619341 -0.41081157 0.33150356
v -1.11619341 -0.41081157 0.33150356
v -1.11619341 -0.41081157 0.33150356
v -1.14892232 -0.46694201 0.49663930
v -1.14892232 -0.46694201 0.49663930
v -1.14892232 -0.46694201 0.49663930
v -1.14892232 -0.46694201 0.49663930
v -1.14892232 -0.46694201 0.49663930
v -1.12965047 -0.51121074 0.49889080
v -1.12965047 -0.51121074 0.49889080
v -1.12965047 -0.51121074 0.49889080
v -1.12965047 -0.51121074 0.49889080
v -1.12965047 -0.51121074 0.49889080
v -1.15296495 -0.48188394 0.53219745
v -1.15296495 -0.48188394 0.53219745
v -1.15296495 -0.48188394 0.53219745
v -1.15296495 -0.48188394 0.53219745
v -1.15296495 -0.48188394 0.53219745
v -1.15296495 -0.48188394 0.53219745
v -1.16354239 -0.46694201 0.54555116
v -1.16354239 -0.46694201 0.54555116
v -1.16354239 -0.46694201 0.54555116
v -1.16354239 -0.46694201 0.54555116
v -1.15722919 -0.49138647 0.56185511
v -1.15722919 -0.49138647 0.56185511
v -1.15722919 -0.49138647 0.56185511
v -1.15722919 -0.49138647 0.56185511
v -1.15722919 -0.49138647 0.56185511
v -1.15722919 -0.49138647 0.56185511
v -1.15645385 -0.71171409 1.01067966
v -1.15645385 -0.71171409 1.01067966
v -1.15645385 -0.71171409 1.01067966
v -1.15645385 -0.71171409 1.01067966
v -1.15645385 -0.71171409 1.01067966
v -1.15645385 -0.71171409 1.01067966
v -1.15645385 -0.71171409 1.01067966
v -1.15645385 -0.71171409 1.01067966
v -1.16287780 -0.68907183 1.01774472
v -1.16287780 -0.68907183 1.01774472
v -1.16287780 -0.68907183 1.01774472
v -1.16287780 -0.68907183 1.01774472
v -1.16287780 -0.68907183 1.01774472
v -1.16287780 -0.68907183 1.01774472
v -1.16287780 -0.68907183 1.01774472
v -1.17915916 -0.64224726 1.02457684
v -1.17915916 -0.64224726 1.02457684
v -1.17915916 -0.64224726 1.02457684
v -1.17915916 -0.64224726 1.02457684
v -1.17838383 -0.60010850 1.03661072
v -1.17838383 -0.60010850 1.03661072
v -1.17838383 -0.60010850 1.03661072
v -1.17838383 -0.60010850 1.03661072
v -1.17838383 -0.60010850 1.03661072
v -1.17838383 -0.60010850 1.03661072
v -1.17838383 -0.60010850 1.03661072
v -1.17838383 -0.60010850 1.03661072
v -1.17838383 -0.60010850 1.03661072
v -1.17838383 -0.55567598 1.04119134
v -1.17838383 -0.55567598 1.04119134
v -1.17838383 -0.55567598 1.04119134
v -1.17838383 -0.55567598 1.04119134
v -1.22285295 -0.42228016 1.03971624
v -1.22285295 -0.42228016 1.03971624
v -1.22285295 -0.42228016 1.03971624
v -1.22285295 -0.42228016 1.03971624
v -1.22285295 -0.42228016 1.03971624
v -1.22285295 -0.42228016 1.03971624
v -1.22285295 -0.39777023 1.03684366
v -1.22285295 -0.39777023 1.03684366
v -1.22285295 -0.39777023 1.03684366
v -1.22285295 -0.39777023 1.03684366
v -1.22285295 -0.39777023 1.03684366
v -1.22285295 -0.39777023 1.03684366
v -1.08900249 -0.64457375 0.58786380
v -1.08900249 -0.64457375 0.58786380
v -1.08900249 -0.64457375 0.58786380
v -1.08900249 -0.64457375 0.58786380
v -1.08900249 -0.64457375 0.58786380
v -1.08900249 -0.64457375 0.58786380
v -1.06812465 -0.66813350 0.56270913
v -1.06812465 -0.66813350 0.56270913
v -1.06812465 -0.66813350 0.56270913
v -1.06812465 -0.66813350 0.56270913
v -1.06812465 -0.66813350 0.56270913
v -1.06812465 -0.66813350 0.56270913
v -1.06812465 -0.66813350 0.56270913
v -1.06812465 -0.66813350 0.56270913
v -1.06812465 -0.66813350 0.56270913
v -1.07183504 -0.67373669 0.58786380
v -1.07183504 -0.67373669 0.58786380
v -1.07183504 -0.67373669 0.58786380
v -1.07183504 -0.67373669 0.58786380
v -1.07183504 -0.67373669 0.58786380
v -1.07183504 -0.67373669 0.58786380
v -1.14199996 -0.73248851 0.98653430
v -1.14199996 -0.73248851 0.98653430
v -1.14199996 -0.73248851 0.98653430
v -1.14199996 -0.73248851 0.98653430
v -1.14199996 -0.73248851 0.98653430
v -1.14199996 -0.73248851 0.98653430
v -1.14199996 -0.73248851 0.98653430
v -1.14415979 -0.72934288 0.98645663
v -1.14415979 -0.72934288 0.98645663
v -1.14415979 -0.72934288 0.98645663
v -1.15645385 -0.71171409 1.00019857
v -1.15645385 -0.71171409 1.00019857
v -1.15645385 -0.71171409 1.00019857
v -1.15645385 -0.71171409 1.00019857
v -1.15645385 -0.71171409 1.00019857
v -1.15645385 -0.71171409 1.00019857
v -1.16658819 -0.69336438 0.98645663
v -1.16658819 -0.69336438 0.98645663
v -1.16658819 -0.69336438 0.98645663
v -1.07820356 -0.68343580 0.63235031
v -1.07820356 -0.68343580 0.63235031
v -1.07820356 -0.68343580 0.63235031
v -1.06347287 -0.70565206 0.63235031
v -1.06347287 -0.70565206 0.63235031
v -1.06347287 -0.70565206 0.63235031
v -1.06347287 -0.70565206 0.63235031
v -1.06347287 -0.70565206 0.63235031
v -1.06347287 -0.70565206 0.63235031
v -1.04503167 -0.73248851 0.63110810
v -1.04503167 -0.73248851 0.63110810
v -1.04503167 -0.73248851 0.63110810
v -1.04503167 -0.73248851 0.63110810
v -1.05677199 -0.73248851 0.67349838
v -1.05677199 -0.73248851 0.67349838
v -1.05677199 -0.73248851 0.67349838
v -1.10971415 -0.57366526 0.52784973
v -1.10971415 -0.57366526 0.52784973
v -1.10971415 -0.57366526 0.52784973
v -1.10971415 -0.57366526 0.52784973
v -1.10971415 -0.57366526 0.52784973
v -1.10971415 -0.57366526 0.52784973
v -1.08734107 -0.60010850 0.49889080
v -1.08734107 -0.60010850 0.49889080
v -1.08734107 -0.60010850 0.49889080
v -1.08734107 -0.60010850 0.49889080
v -1.08734107 -0.60010850 0.49889080
v -1.10140729 -0.59840459 0.54298911
v -1.10140729 -0.59840459 0.54298911
v -1.10140729 -0.59840459 0.54298911
v -1.10140729 -0.59840459 0.54298911
v -1.10140729 -0.59840459 0.54298911
v -1.07155824 -0.62986124 0.49889080
v -1.07155824 -0.62986124 0.49889080
v -1.07155824 -0.62986124 0.49889080
v -1.07155824 -0.62986124 0.49889080
v -1.07155824 -0.62986124 0.49889080
v -1.07648683 -0.64545846 0.54609462
v -1.07648683 -0.64545846 0.54609462
v -1.07648683 -0.64545846 0.54609462
v -1.07648683 -0.64545846 0.54609462
v -1.07648683 -0.64545846 0.54609462
v -1.14493501 -0.50819612 0.54555116
v -1.14493501 -0.50819612 0.54555116
v -1.14493501 -0.50819612 0.54555116
v -1.14493501 -0.50819612 0.54555116
v -1.14493501 -0.50819612 0.54555116
v -1.11563969 -0.54197925 0.49889080
v -1.11563969 -0.54197925 0.49889080
v -1.11563969 -0.54197925 0.49889080
v -1.11563969 -0.54197925 0.49889080
v -1.11563969 -0.54197925 0.49889080
v -1.11563969 -0.54197925 0.49889080
v -1.11563969 -0.54197925 0.49889080
v -1.11547351 -0.45301592 0.37762043
v -1.11547351 -0.45301592 0.37762043
v -1.11547351 -0.45301592 0.37762043
v -1.11547351 -0.45301592 0.37762043
v -1.11547351 -0.45301592 0.37762043
v -1.11547351 -0.45301592 0.37762043
v -1.11547351 -0.45301592 0.37762043
v -1.12067914 -0.46740079 0.41053890
v -1.12067914 -0.46740079 0.41053890
v -1.12067914 -0.46740079 0.41053890
v -1.12067914 -0.46740079 0.41053890
v -1.12067914 -0.46740079 0.41053890
v -1.12067914 -0.46740079 0.41053890
v -1.12067914 -0.46740079 0.41053890
v -1.12250662 -0.42427897 0.36387853
v -1.12250662 -0.42427897 0.36387853
v -1.12250662 -0.42427897 0.36387853
v -1.12250662 -0.42427897 0.36387853
v -1.13563144 -0.46674547 0.45448192
v -1.13563144 -0.46674547 0.45448192
v -1.13563144 -0.46674547 0.45448192
v -1.13563144 -0.46674547 0.45448192
v -1.13563144 -0.46674547 0.45448192
v -1.13563144 -0.46674547 0.45448192
v -1.13563144 -0.46674547 0.45448192
v -1.09714317 -0.39777023 0.27684645
v -1.09714317 -0.39777023 0.27684645
v -1.09714317 -0.39777023 0.27684645
v -1.09714317 -0.39777023 0.27684645
v -1.08800566 -0.42228016 0.27661356
v -1.08800566 -0.42228016 0.27661356
v -1.08800566 -0.42228016 0.27661356
v -1.08800566 -0.42228016 0.27661356
v -1.08800566 -0.42228016 0.27661356
v -1.08800566 -0.42228016 0.27661356
v -1.08800566 -0.42228016 0.27661356
v -1.06784785 -0.49033791 0.29749817
v -1.06784785 -0.49033791 0.29749817
v -1.06784785 -0.49033791 0.29749817
v -1.06784785 -0.49033791 0.29749817
v -1.06784785 -0.49033791 0.29749817
v -1.06784785 -0.49033791 0.29749817
v -1.06784785 -0.49033791 0.29749817
v -1.06784785 -0.49033791 0.29749817
v -1.06784785 -0.49033791 0.29749817
v -1.06784785 -0.49033791 0.29749817
v -1.10528386 -0.42427897 0.31846039
v -1.10528386 -0.42427897 0.31846039
v -1.10528386 -0.42427897 0.31846039
v -1.10528386 -0.42427897 0.31846039
v -1.10528386 -0.42427897 0.31846039
v -1.10993564 -0.44043326 0.34804042
v -1.10993564 -0.44043326 0.34804042
v -1.10993564 -0.44043326 0.34804042
v -1.10993564 -0.44043326 0.34804042
v -1.10993564 -0.44043326 0.34804042
v -1.10993564 -0.44043326 0.34804042
v -1.11204004 -0.53418058 0.47567708
v -1.11204004 -0.53418058 0.47567708
v -1.11204004 -0.53418058 0.47567708
v -1.11204004 -0.53418058 0.47567708
v -1.11204004 -0.53418058 0.47567708
v -1.11204004 -0.53418058 0.47567708
v -1.11204004 -0.53418058 0.47567708
v -1.11204004 -0.53418058 0.47567708
v -1.13125646 -0.73248851 1.02092791
v -1.13125646 -0.73248851 1.02092791
v -1.13125646 -0.73248851 1.02092791
v -1.13125646 -0.73248851 1.02092791
v -1.13125646 -0.73248851 1.02092791
v -1.13125646 -0.73248851 1.02092791
v -1.13125646 -0.73248851 1.02092791
v -1.14166772 -0.73248851 0.98925161
v -1.14166772 -0.73248851 0.98925161
v -1.14166772 -0.73248851 0.98925161
v -1.13269639 -0.72934288 1.02131605
v -1.13269639 -0.72934288 1.02131605
v -1.13269639 -0.72934288 1.02131605
v -1.13391471 -0.68907183 1.03482509
v -1.13391471 -0.68907183 1.03482509
v -1.13391471 -0.68907183 1.03482509
v -1.13391471 -0.68907183 1.03482509
v -1.13391471 -0.68907183 1.03482509
v -1.13391471 -0.68907183 1.03482509
v -1.13391471 -0.68907183 1.03482509
v -1.08944559 -0.73248851 1.04002678
v -1.08944559 -0.73248851 1.04002678
v -1.08944559 -0.73248851 1.04002678
v -1.08944559 -0.73248851 1.04002678
v -1.08944559 -0.73248851 1.04002678
v -1.08944559 -0.73248851 1.04002678
v -1.13391471 -0.64457375 1.04111373
v -1.13391471 -0.64457375 1.04111373
v -1.13391471 -0.64457375 1.04111373
v -1.13391471 -0.64457375 1.04111373
v -1.13391471 -0.64457375 1.04111373
v -1.08944559 -0.68907183 1.03808588
v -1.08944559 -0.68907183 1.03808588
v -1.08944559 -0.68907183 1.03808588
v -1.08944559 -0.68907183 1.03808588
v -1.08944559 -0.68907183 1.03808588
v -1.04132140 -0.73248851 1.02892458
v -1.04132140 -0.73248851 1.02892458
v -1.04132140 -0.73248851 1.02892458
v -1.04132140 -0.73248851 1.02892458
v -1.03511894 -0.73248851 1.02612960
v -1.03511894 -0.73248851 1.02612960
v -1.03511894 -0.73248851 1.02612960
v -1.03511894 -0.73248851 1.02612960
v -1.03511894 -0.73248851 1.02612960
v -1.19178545 -0.39777023 1.01984096
v -1.19178545 -0.39777023 1.01984096
v -1.19178545 -0.39777023 1.01984096
v -1.19178545 -0.39777023 1.01984096
v -1.19178545 -0.39777023 1.01984096
v -1.05699360 -0.69598573 0.58786380
v -1.05699360 -0.69598573 0.58786380
v -1.05699360 -0.69598573 0.58786380
v -1.05699360 -0.69598573 0.58786380
v -1.05699360 -0.69598573 0.58786380
v -1.06358361 -0.66089189 0.53312910
v -1.06358361 -0.66089189 0.53312910
v -1.06358361 -0.66089189 0.53312910
v -1.06358361 -0.66089189 0.53312910
v -1.06358361 -0.66089189 0.53312910
v -1.06358361 -0.66089189 0.53312910
v -1.03406680 -0.69034970 0.50098702
v -1.03406680 -0.69034970 0.50098702
v -1.03406680 -0.69034970 0.50098702
v -1.03406680 -0.69034970 0.50098702
v -1.03406680 -0.69034970 0.50098702
v -1.03406680 -0.69034970 0.50098702
v -1.03406680 -0.69034970 0.50098702
v -1.03406680 -0.69034970 0.50098702
v -1.05151105 -0.68540186 0.54609462
v -1.05151105 -0.68540186 0.54609462
v -1.05151105 -0.68540186 0.54609462
v -1.05151105 -0.68540186 0.54609462
v -1.02808583 -0.71915221 0.54337730
v -1.02808583 -0.71915221 0.54337730
v -1.02808583 -0.71915221 0.54337730
v -1.02808583 -0.71915221 0.54337730
v -1.02808583 -0.71915221 0.54337730
v -1.02808583 -0.71915221 0.54337730
v -1.03318071 -0.73248851 0.59034821
v -1.03318071 -0.73248851 0.59034821
v -1.03318071 -0.73248851 0.59034821
v -1.03318071 -0.73248851 0.59034821
v -1.03318071 -0.73248851 0.59034821
v -1.10528386 -0.56419551 0.49889080
v -1.10528386 -0.56419551 0.49889080
v -1.10528386 -0.56419551 0.49889080
v -1.10528386 -0.56419551 0.49889080
v -1.10528386 -0.56419551 0.49889080
v -1.10528386 -0.56419551 0.49889080
v -1.07454860 -0.59968251 0.45774272
v -1.07454860 -0.59968251 0.45774272
v -1.07454860 -0.59968251 0.45774272
v -1.07454860 -0.59968251 0.45774272
v -1.07454860 -0.59968251 0.45774272
v -1.07454860 -0.59968251 0.45774272
v -1.06784785 -0.62347162 0.47466778
v -1.06784785 -0.62347162 0.47466778
v -1.06784785 -0.62347162 0.47466778
v -1.06784785 -0.62347162 0.47466778
v -1.06784785 -0.62347162 0.47466778
v -1.06784785 -0.62347162 0.47466778
v -1.06784785 -0.62347162 0.47466778
v -1.06784785 -0.62347162 0.47466778
v -1.06784785 -0.62347162 0.47466778
v -1.10888350 -0.48267034 0.39602061
v -1.10888350 -0.48267034 0.39602061
v -1.10888350 -0.48267034 0.39602061
v -1.10888350 -0.48267034 0.39602061
v -1.10888350 -0.48267034 0.39602061
v -1.06718326 -0.53336143 0.34338214
v -1.06718326 -0.53336143 0.34338214
v -1.06718326 -0.53336143 0.34338214
v -1.06718326 -0.53336143 0.34338214
v -1.06718326 -0.53336143 0.34338214
v -1.06718326 -0.53336143 0.34338214
v -1.06718326 -0.53336143 0.34338214
v -1.06718326 -0.53336143 0.34338214
v -1.06718326 -0.53336143 0.34338214
v -1.08158171 -0.51560152 0.36116120
v -1.08158171 -0.51560152 0.36116120
v -1.08158171 -0.51560152 0.36116120
v -1.08158171 -0.51560152 0.36116120
v -1.10168421 -0.50973618 0.41053890
v -1.10168421 -0.50973618 0.41053890
v -1.10168421 -0.50973618 0.41053890
v -1.10168421 -0.50973618 0.41053890
v -1.10168421 -0.50973618 0.41053890
v -1.10168421 -0.50973618 0.41053890
v -1.11392295 -0.49390957 0.42567828
v -1.11392295 -0.49390957 0.42567828
v -1.11392295 -0.49390957 0.42567828
v -1.11392295 -0.49390957 0.42567828
v -1.10722208 -0.52356398 0.44601941
v -1.10722208 -0.52356398 0.44601941
v -1.10722208 -0.52356398 0.44601941
v -1.10722208 -0.52356398 0.44601941
v -1.10722208 -0.52356398 0.44601941
v -1.10722208 -0.52356398 0.44601941
v -1.10722208 -0.52356398 0.44601941
v -1.11746716 -0.50973618 0.45828619
v -1.11746716 -0.50973618 0.45828619
v -1.11746716 -0.50973618 0.45828619
v -1.08185863 -0.39777023 0.24804282
v -1.08185863 -0.39777023 0.24804282
v -1.08185863 -0.39777023 0.24804282
v -1.07371795 -0.42228016 0.24804282
v -1.07371795 -0.42228016 0.24804282
v -1.07371795 -0.42228016 0.24804282
v -1.07371795 -0.42228016 0.24804282
v -1.07371795 -0.42228016 0.24804282
v -1.06103623 -0.47480622 0.26784050
v -1.06103623 -0.47480622 0.26784050
v -1.06103623 -0.47480622 0.26784050
v -1.06103623 -0.47480622 0.26784050
v -1.06103623 -0.47480622 0.26784050
v -1.06103623 -0.47480622 0.26784050
v -1.07205665 -0.46268228 0.28026254
v -1.07205665 -0.46268228 0.28026254
v -1.07205665 -0.46268228 0.28026254
v -1.06751549 -0.44518453 0.25386566
v -1.06751549 -0.44518453 0.25386566
v -1.06751549 -0.44518453 0.25386566
v -1.06751549 -0.44518453 0.25386566
v -1.06751549 -0.44518453 0.25386566
v -1.06751549 -0.44518453 0.25386566
v -1.06751549 -0.44518453 0.25386566
v -1.05212021 -0.50757354 0.28026254
v -1.05212021 -0.50757354 0.28026254
v -1.05212021 -0.50757354 0.28026254
v -1.05212021 -0.50757354 0.28026254
v -1.03013492 -0.55354613 0.27894272
v -1.03013492 -0.55354613 0.27894272
v -1.03013492 -0.55354613 0.27894272
v -1.03013492 -0.55354613 0.27894272
v -1.03013492 -0.55354613 0.27894272
v -1.03013492 -0.55354613 0.27894272
v -1.06269765 -0.52326912 0.32102242
v -1.06269765 -0.52326912 0.32102242
v -1.06269765 -0.52326912 0.32102242
v -1.06269765 -0.52326912 0.32102242
v -1.06269765 -0.52326912 0.32102242
v -1.06269765 -0.52326912 0.32102242
v -1.07255507 -0.50102007 0.32102242
v -1.07255507 -0.50102007 0.32102242
v -1.07255507 -0.50102007 0.32102242
v -1.07255507 -0.50102007 0.32102242
v -1.08767343 -0.46674547 0.32102242
v -1.08767343 -0.46674547 0.32102242
v -1.08767343 -0.46674547 0.32102242
v -1.08767343 -0.46674547 0.32102242
v -1.08767343 -0.46674547 0.32102242
v -1.09819543 -0.55167836 0.45828619
v -1.09819543 -0.55167836 0.45828619
v -1.09819543 -0.55167836 0.45828619
v -1.09819543 -0.55167836 0.45828619
v -1.09819543 -0.55167836 0.45828619
v -1.09996748 -0.73248851 1.03552377
v -1.09996748 -0.73248851 1.03552377
v -1.09996748 -0.73248851 1.03552377
v -1.00770640 -0.73248851 0.99701542
v -1.00770640 -0.73248851 0.99701542
v -1.00770640 -0.73248851 0.99701542
v -1.02365553 -0.71253324 1.00788471
v -1.02365553 -0.71253324 1.00788471
v -1.02365553 -0.71253324 1.00788471
v -1.02365553 -0.71253324 1.00788471
v -1.00410676 -0.73248851 0.99080437
v -1.00410676 -0.73248851 0.99080437
v -1.00410676 -0.73248851 0.99080437
v -1.00410676 -0.73248851 0.99080437
v -1.00410676 -0.73248851 0.99080437
v -1.00410676 -0.73248851 0.99080437
v -1.18325722 -0.39777023 1.00369227
v -1.18325722 -0.39777023 1.00369227
v -1.18325722 -0.39777023 1.00369227
v -1.05815649 -0.65207750 0.49889080
v -1.05815649 -0.65207750 0.49889080
v -1.05815649 -0.65207750 0.49889080
v -1.05815649 -0.65207750 0.49889080
v -1.05815649 -0.65207750 0.49889080
v -1.00742960 -0.73022759 0.50098702
v -1.00742960 -0.73022759 0.50098702
v -1.00742960 -0.73022759 0.50098702
v -1.00742960 -0.73022759 0.50098702
v -1.00742960 -0.73022759 0.50098702
v -1.00742960 -0.73022759 0.50098702
v -1.00742960 -0.73022759 0.50098702
v -1.02404320 -0.71318859 0.51721334
v -1.02404320 -0.71318859 0.51721334
v -1.02404320 -0.71318859 0.51721334
v -1.02404320 -0.71318859 0.51721334
v -1.02404320 -0.71318859 0.51721334
v -1.02404320 -0.71318859 0.51721334
v -1.02852881 -0.67544061 0.45448192
v -1.02852881 -0.67544061 0.45448192
v -1.02852881 -0.67544061 0.45448192
v -1.02852881 -0.67544061 0.45448192
v -1.02852881 -0.67544061 0.45448192
v -1.02852881 -0.67544061 0.45448192
v -1.01922524 -0.70604527 0.48755567
v -1.01922524 -0.70604527 0.48755567
v -1.01922524 -0.70604527 0.48755567
v -1.01922524 -0.70604527 0.48755567
v -1.01905906 -0.73248851 0.54337730
v -1.01905906 -0.73248851 0.54337730
v -1.01905906 -0.73248851 0.54337730
v -1.01905906 -0.73248851 0.54337730
v -1.07056129 -0.58454400 0.42241749
v -1.07056129 -0.58454400 0.42241749
v -1.07056129 -0.58454400 0.42241749
v -1.07056129 -0.58454400 0.42241749
v -1.07056129 -0.58454400 0.42241749
v -1.07056129 -0.58454400 0.42241749
v -1.07056129 -0.58454400 0.42241749
v -1.06302977 -0.61419845 0.44508775
v -1.06302977 -0.61419845 0.44508775
v -1.06302977 -0.61419845 0.44508775
v -1.06302977 -0.61419845 0.44508775
v -1.06302977 -0.61419845 0.44508775
v -1.06302977 -0.61419845 0.44508775
v -1.06302977 -0.61419845 0.44508775
v -1.03306997 -0.64516360 0.41232458
v -1.03306997 -0.64516360 0.41232458
v -1.03306997 -0.64516360 0.41232458
v -1.03306997 -0.64516360 0.41232458
v -1.03306997 -0.64516360 0.41232458
v -1.05151105 -0.64080548 0.45774272
v -1.05151105 -0.64080548 0.45774272
v -1.05151105 -0.64080548 0.45774272
v -1.05151105 -0.64080548 0.45774272
v -1.05151105 -0.64080548 0.45774272
v -1.07266581 -0.54476446 0.37303981
v -1.07266581 -0.54476446 0.37303981
v -1.07266581 -0.54476446 0.37303981
v -1.07266581 -0.54476446 0.37303981
v -1.07266581 -0.54476446 0.37303981
v -1.07266581 -0.54476446 0.37303981
v -1.07266581 -0.54476446 0.37303981
v -1.04735768 -0.55567598 0.32102242
v -1.04735768 -0.55567598 0.32102242
v -1.04735768 -0.55567598 0.32102242
v -1.04735768 -0.55567598 0.32102242
v -1.04735768 -0.55567598 0.32102242
v -1.06181145 -0.55803519 0.36116120
v -1.06181145 -0.55803519 0.36116120
v -1.06181145 -0.55803519 0.36116120
v -1.06181145 -0.55803519 0.36116120
v -1.06181145 -0.55803519 0.36116120
v -1.06181145 -0.55803519 0.36116120
v -1.07870197 -0.55803519 0.40852031
v -1.07870197 -0.55803519 0.40852031
v -1.07870197 -0.55803519 0.40852031
v -1.07870197 -0.55803519 0.40852031
v -1.07870197 -0.55803519 0.40852031
v -1.07870197 -0.55803519 0.40852031
v -0.94440854 -0.39777023 0.24804282
v -0.94440854 -0.39777023 0.24804282
v -0.94440854 -0.39777023 0.24804282
v -0.94440854 -0.39777023 0.24804282
v -1.07094908 -0.42919406 0.24804282
v -1.07094908 -0.42919406 0.24804282
v -1.07094908 -0.42919406 0.24804282
v -1.02465236 -0.53726077 0.25114831
v -1.02465236 -0.53726077 0.25114831
v -1.02465236 -0.53726077 0.25114831
v -1.02465236 -0.53726077 0.25114831
v -1.02465236 -0.53726077 0.25114831
v -1.02465236 -0.53726077 0.25114831
v -1.02465236 -0.53726077 0.25114831
v -1.02465236 -0.53726077 0.25114831
v -1.06142390 -0.45082054 0.24804282
v -1.06142390 -0.45082054 0.24804282
v -1.06142390 -0.45082054 0.24804282
v -1.02659059 -0.52883953 0.24804282
v -1.02659059 -0.52883953 0.24804282
v -1.02659059 -0.52883953 0.24804282
v -1.02659059 -0.52883953 0.24804282
v -1.02437544 -0.58093959 0.29532431
v -1.02437544 -0.58093959 0.29532431
v -1.02437544 -0.58093959 0.29532431
v -1.02437544 -0.58093959 0.29532431
v -1.02437544 -0.58093959 0.29532431
v -1.02437544 -0.58093959 0.29532431
v -1.02437544 -0.58093959 0.29532431
v -1.02437544 -0.58093959 0.29532431
v -1.01723158 -0.56688237 0.26566663
v -1.01723158 -0.56688237 0.26566663
v -1.01723158 -0.56688237 0.26566663
v -1.01723158 -0.56688237 0.26566663
v -1.01723158 -0.56688237 0.26566663
v -1.01723158 -0.56688237 0.26566663
v -1.01723158 -0.56688237 0.26566663
v -1.01723158 -0.56688237 0.26566663
v -0.72992653 -0.73248851 0.24812046
v -0.72992653 -0.73248851 0.24812046
v -0.72992653 -0.73248851 0.24812046
v -0.72992653 -0.73248851 0.24812046
v -0.72992653 -0.73248851 0.24812046
v -1.17627943 -0.39777023 0.98645663
v -1.17627943 -0.39777023 0.98645663
v -1.17627943 -0.39777023 0.98645663
v -1.17627943 -0.39777023 0.98645663
v -1.00576818 -0.73248851 0.50083174
v -1.00576818 -0.73248851 0.50083174
v -1.00576818 -0.73248851 0.50083174
v -1.00859249 -0.73248851 0.50968246
v -1.00859249 -0.73248851 0.50968246
v -1.00859249 -0.73248851 0.50968246
v -1.01651168 -0.73248851 0.53514769
v -1.01651168 -0.73248851 0.53514769
v -1.01651168 -0.73248851 0.53514769
v -1.01651168 -0.73248851 0.53514769
v -0.99114823 -0.73248851 0.45626760
v -0.99114823 -0.73248851 0.45626760
v -0.99114823 -0.73248851 0.45626760
v -0.99114823 -0.73248851 0.45626760
v -0.99114823 -0.73248851 0.45626760
v -0.99114823 -0.73248851 0.45626760
v -1.02404320 -0.66875601 0.42878379
v -1.02404320 -0.66875601 0.42878379
v -1.02404320 -0.66875601 0.42878379
v -1.02404320 -0.66875601 0.42878379
v -1.02404320 -0.66875601 0.42878379
v -1.02404320 -0.66875601 0.42878379
v -1.02404320 -0.66875601 0.42878379
v -1.02404320 -0.66875601 0.42878379
v -1.02404320 -0.66875601 0.42878379
v -1.02404320 -0.66875601 0.42878379
v -1.06546652 -0.57438612 0.39275981
v -1.06546652 -0.57438612 0.39275981
v -1.06546652 -0.57438612 0.39275981
v -1.06546652 -0.57438612 0.39275981
v -1.06546652 -0.57438612 0.39275981
v -1.06546652 -0.57438612 0.39275981
v -1.05793500 -0.59968251 0.40852031
v -1.05793500 -0.59968251 0.40852031
v -1.05793500 -0.59968251 0.40852031
v -1.05793500 -0.59968251 0.40852031
v -1.05793500 -0.59968251 0.40852031
v -1.02254796 -0.62193155 0.34384796
v -1.02254796 -0.62193155 0.34384796
v -1.02254796 -0.62193155 0.34384796
v -1.02254796 -0.62193155 0.34384796
v -1.02254796 -0.62193155 0.34384796
v -1.02254796 -0.62193155 0.34384796
v -1.02254796 -0.62193155 0.34384796
v -1.02254796 -0.62193155 0.34384796
v -1.02254796 -0.62193155 0.34384796
v -1.02254796 -0.62193155 0.34384796
v -1.02254796 -0.62193155 0.34384796
v -1.02254796 -0.62193155 0.34384796
v -1.02808583 -0.63074595 0.37350562
v -1.02808583 -0.63074595 0.37350562
v -1.02808583 -0.63074595 0.37350562
v -1.02808583 -0.63074595 0.37350562
v -1.02808583 -0.63074595 0.37350562
v -1.02963650 -0.59099919 0.32102242
v -1.02963650 -0.59099919 0.32102242
v -1.02963650 -0.59099919 0.32102242
v -1.02963650 -0.59099919 0.32102242
v -1.02963650 -0.59099919 0.32102242
v -1.03833091 -0.60430270 0.36139412
v -1.03833091 -0.60430270 0.36139412
v -1.03833091 -0.60430270 0.36139412
v -1.03833091 -0.60430270 0.36139412
v -1.03833091 -0.60430270 0.36139412
v -0.73009264 -0.73222643 0.24804282
v -0.73009264 -0.73222643 0.24804282
v -0.73009264 -0.73222643 0.24804282
v -1.02105272 -0.54027534 0.24804282
v -1.02105272 -0.54027534 0.24804282
v -1.02105272 -0.54027534 0.24804282
v -1.00920165 -0.56190175 0.24804282
v -1.00920165 -0.56190175 0.24804282
v -1.00920165 -0.56190175 0.24804282
v -1.00920165 -0.56190175 0.24804282
v -1.00665426 -0.59751987 0.27894272
v -1.00665426 -0.59751987 0.27894272
v -1.00665426 -0.59751987 0.27894272
v -1.00665426 -0.59751987 0.27894272
v -1.00665426 -0.59751987 0.27894272
v -1.01750851 -0.61321545 0.32102242
v -1.01750851 -0.61321545 0.32102242
v -1.01750851 -0.61321545 0.32102242
v -1.01750851 -0.61321545 0.32102242
v -1.01750851 -0.61321545 0.32102242
v -1.01750851 -0.61321545 0.32102242
v -0.98810238 -0.59978080 0.24804282
v -0.98810238 -0.59978080 0.24804282
v -0.98810238 -0.59978080 0.24804282
v -0.98250914 -0.60974211 0.24804282
v -0.98250914 -0.60974211 0.24804282
v -0.98250914 -0.60974211 0.24804282
v -0.98250914 -0.60974211 0.24804282
v -0.97852182 -0.62261963 0.25402093
v -0.97852182 -0.62261963 0.25402093
v -0.97852182 -0.62261963 0.25402093
v -0.97852182 -0.62261963 0.25402093
v -0.97852182 -0.62261963 0.25402093
v -0.97852182 -0.62261963 0.25402093
v -0.97852182 -0.62261963 0.25402093
v -0.73042494 -0.73248851 0.24804282
v -0.73042494 -0.73248851 0.24804282
v -0.73042494 -0.73248851 0.24804282
v -0.99048364 -0.73248851 0.45440430
v -0.99048364 -0.73248851 0.45440430
v -0.99048364 -0.73248851 0.45440430
v -1.01850533 -0.66040039 0.39912613
v -1.01850533 -0.66040039 0.39912613
v -1.01850533 -0.66040039 0.39912613
v -1.01850533 -0.66040039 0.39912613
v -1.01850533 -0.66040039 0.39912613
v -1.00659883 -0.68576235 0.41232458
v -1.00659883 -0.68576235 0.41232458
v -1.00659883 -0.68576235 0.41232458
v -1.00659883 -0.68576235 0.41232458
v -0.98350596 -0.71908671 0.40999544
v -0.98350596 -0.71908671 0.40999544
v -0.98350596 -0.71908671 0.40999544
v -0.98350596 -0.71908671 0.40999544
v -0.98350596 -0.71908671 0.40999544
v -0.97962940 -0.73248851 0.42412554
v -0.97962940 -0.73248851 0.42412554
v -0.97962940 -0.73248851 0.42412554
v -0.97962940 -0.73248851 0.42412554
v -0.99463707 -0.64722794 0.31939203
v -0.99463707 -0.64722794 0.31939203
v -0.99463707 -0.64722794 0.31939203
v -0.99463707 -0.64722794 0.31939203
v -0.99463707 -0.64722794 0.31939203
v -0.96678150 -0.68861312 0.31939203
v -0.96678150 -0.68861312 0.31939203
v -0.96678150 -0.68861312 0.31939203
v -0.96678150 -0.68861312 0.31939203
v -0.96678150 -0.68861312 0.31939203
v -0.97292858 -0.70312899 0.35642530
v -0.97292858 -0.70312899 0.35642530
v -0.97292858 -0.70312899 0.35642530
v -0.97292858 -0.70312899 0.35642530
v -0.97902024 -0.71230382 0.38608298
v -0.97902024 -0.71230382 0.38608298
v -0.97902024 -0.71230382 0.38608298
v -0.97902024 -0.71230382 0.38608298
v -0.97902024 -0.71230382 0.38608298
v -0.97902024 -0.71230382 0.38608298
v -0.97902024 -0.71230382 0.38608298
v -0.97902024 -0.71230382 0.38608298
v -0.97902024 -0.71230382 0.38608298
v -0.98455817 -0.63143402 0.27661356
v -0.98455817 -0.63143402 0.27661356
v -0.98455817 -0.63143402 0.27661356
v -0.98455817 -0.63143402 0.27661356
v -0.98455817 -0.63143402 0.27661356
v -0.98455817 -0.63143402 0.27661356
v -0.98455817 -0.63143402 0.27661356
v -0.97630674 -0.66384095 0.30347627
v -0.97630674 -0.66384095 0.30347627
v -0.97630674 -0.66384095 0.30347627
v -0.97630674 -0.66384095 0.30347627
v -0.97060269 -0.62848496 0.24804282
v -0.97060269 -0.62848496 0.24804282
v -0.97060269 -0.62848496 0.24804282
v -0.92912394 -0.70440698 0.26318222
v -0.92912394 -0.70440698 0.26318222
v -0.92912394 -0.70440698 0.26318222
v -0.92912394 -0.70440698 0.26318222
v -0.92912394 -0.70440698 0.26318222
v -0.92912394 -0.70440698 0.26318222
v -0.92912394 -0.70440698 0.26318222
v -0.92912394 -0.70440698 0.26318222
v -0.92912394 -0.70440698 0.26318222
v -0.92912394 -0.70440698 0.26318222
v -0.93809533 -0.67773432 0.24804282
v -0.93809533 -0.67773432 0.24804282
v -0.93809533 -0.67773432 0.24804282
v -0.93809533 -0.67773432 0.24804282
v -0.89744735 -0.73248851 0.24804282
v -0.89744735 -0.73248851 0.24804282
v -0.89744735 -0.73248851 0.24804282
v -0.89744735 -0.73248851 0.24804282
v -0.97148871 -0.73248851 0.40269748
v -0.97148871 -0.73248851 0.40269748
v -0.97148871 -0.73248851 0.40269748
v -0.97148871 -0.73248851 0.40269748
v -0.93687701 -0.71544951 0.29283990
v -0.93687701 -0.71544951 0.29283990
v -0.93687701 -0.71544951 0.29283990
v -0.93687701 -0.71544951 0.29283990
v -0.93687701 -0.71544951 0.29283990
v -0.93687701 -0.71544951 0.29283990
v -0.93687701 -0.71544951 0.29283990
v -0.93687701 -0.71544951 0.29283990
v -0.93687701 -0.71544951 0.29283990
v -0.93687701 -0.71544951 0.29283990
v -0.94319016 -0.72429669 0.32102242
v -0.94319016 -0.72429669 0.32102242
v -0.94319016 -0.72429669 0.32102242
v -0.94319016 -0.72429669 0.32102242
v -0.94319016 -0.72429669 0.32102242
v -0.94319016 -0.72429669 0.32102242
v -0.95637035 -0.73248851 0.36589712
v -0.95637035 -0.73248851 0.36589712
v -0.95637035 -0.73248851 0.36589712
v -0.95637035 -0.73248851 0.36589712
v -0.95637035 -0.73248851 0.36589712
v -0.95675802 -0.73248851 0.36682878
v -0.95675802 -0.73248851 0.36682878
v -0.95675802 -0.73248851 0.36682878
v -0.95675802 -0.73248851 0.36682878
v -0.94645751 -0.68936676 0.27746759
v -0.94645751 -0.68936676 0.27746759
v -0.94645751 -0.68936676 0.27746759
v -0.92258930 -0.69922972 0.24804282
v -0.92258930 -0.69922972 0.24804282
v -0.92258930 -0.69922972 0.24804282
v -0.90232068 -0.72606617 0.24804282
v -0.90232068 -0.72606617 0.24804282
v -0.90232068 -0.72606617 0.24804282
v -0.91356254 -0.73248851 0.27459499
v -0.91356254 -0.73248851 0.27459499
v -0.91356254 -0.73248851 0.27459499
v -0.91494703 -0.73248851 0.27707940
v -0.91494703 -0.73248851 0.27707940
v -0.91494703 -0.73248851 0.27707940
v -0.91494703 -0.73248851 0.27707940
v -0.93122840 -0.73248851 0.30828980
v -0.93122840 -0.73248851 0.30828980
v -0.93122840 -0.73248851 0.30828980
v -0.94025511 -0.73248851 0.32793221
v -0.94025511 -0.73248851 0.32793221
v -0.94025511 -0.73248851 0.32793221
v -0.94025511 -0.73248851 0.32793221
vn 0.00000000 1.00000000 -0.00000000
vn -0.96108899 -0.26197441 0.08762053
vn -0.96157648 -0.25991657 0.08839707
vn -0.96363013 -0.26266707 -0.04922389
vn -0.98267557 -0.16379768 -0.08671239
vn 0.00000000 1.00000000 0.00000000
vn -0.94972436 -0.20546677 -0.23623515
vn -0.98267557 -0.16379768 -0.08671239
vn -0.91568138 -0.33420440 -0.22323761
vn -0.92769852 -0.29246150 -0.23203818
vn -0.92805873 -0.33703322 -0.15847904
vn -0.93235399 -0.27561743 -0.23398945
vn -0.93313445 -0.27280570 -0.23417332
vn -0.94838574 -0.30689460 -0.07987614
vn -0.94972436 -0.20546677 -0.23623515
vn -0.95941717 -0.27742059 -0.05056189
vn -0.96363013 -0.26266707 -0.04922389
vn -0.98267557 -0.16379768 -0.08671239
vn -0.95676635 -0.27665409 0.08978117
vn -0.95941717 -0.27742059 -0.05056189
vn -0.96108899 -0.26197441 0.08762053
vn -0.96363013 -0.26266707 -0.04922389
vn -0.67529959 -0.20669550 0.70798830
vn -0.73011181 -0.24958857 0.63611500
vn -0.83909342 -0.29930396 0.45424593
vn -0.92583999 -0.32724117 0.18903315
vn -0.94417845 -0.30553313 0.12319319
vn -0.95676635 -0.27665409 0.08978117
vn -0.96108899 -0.26197441 0.08762053
vn -0.96157648 -0.25991657 0.08839707
vn -0.96548084 -0.15862911 0.20659996
vn 0.00000000 1.00000000 0.00000000
vn -0.96157648 -0.25991657 0.08839707
vn -0.96548084 -0.15862911 0.20659996
vn 0.00000000 1.00000000 0.00000000
vn -0.93313445 -0.27280570 -0.23417332
vn -0.93645521 -0.25596486 -0.23986171
vn -0.94972436 -0.20546677 -0.23623515
vn -0.87872411 -0.41498133 -0.23586955
vn -0.88113432 -0.40924810 -0.23689301
vn -0.88453277 -0.40139109 -0.23766986
vn -0.88514143 -0.40014573 -0.23750376
vn -0.90059162 -0.42950100 -0.06681036
vn -0.90651901 -0.42065997 -0.03561563
vn -0.91058175 -0.41250212 -0.02613180
vn -0.91178762 -0.40983432 -0.02606105
vn -0.91568138 -0.33420440 -0.22323761
vn -0.92768664 -0.36509894 -0.07810416
vn -0.92805873 -0.33703322 -0.15847904
vn -0.92583999 -0.32724117 0.18903315
vn -0.92749606 -0.36502394 0.08067574
vn -0.92768664 -0.36509894 -0.07810416
vn -0.92805873 -0.33703322 -0.15847904
vn -0.94417845 -0.30553313 0.12319319
vn -0.94838574 -0.30689460 -0.07987614
vn -0.94417845 -0.30553313 0.12319319
vn -0.94838574 -0.30689460 -0.07987614
vn -0.95676635 -0.27665409 0.08978117
vn -0.95941717 -0.27742059 -0.05056189
vn -0.92078602 -0.29628086 -0.25371394
vn -0.92088732 -0.29311324 -0.25700422
vn -0.92247859 -0.28572946 -0.25959955
vn -0.92313187 -0.28352077 -0.25969890
vn -0.92665451 -0.28919426 -0.24016263
vn -0.93045505 -0.26319887 -0.25491128
vn -0.93235399 -0.27561743 -0.23398945
vn -0.93313445 -0.27280570 -0.23417332
vn -0.93645521 -0.25596486 -0.23986171
vn -0.92647079 -0.29407554 -0.23488604
vn -0.92665451 -0.28919426 -0.24016263
vn -0.92769852 -0.29246150 -0.23203818
vn -0.93235399 -0.27561743 -0.23398945
vn -0.88514143 -0.40014573 -0.23750376
vn -0.88558690 -0.39695695 -0.24116597
vn -0.89361578 -0.37087105 -0.25279538
vn -0.89886019 -0.35646300 -0.25492056
vn -0.91568138 -0.33420440 -0.22323761
vn -0.92647079 -0.29407554 -0.23488604
vn -0.92769852 -0.29246150 -0.23203818
vn -0.69458011 -0.31563030 0.64647969
vn -0.71169683 -0.32860990 0.62088900
vn -0.83909342 -0.29930396 0.45424593
vn -0.90087725 -0.42886332 0.06705552
vn -0.90646833 -0.42063645 0.03715031
vn -0.91055072 -0.41248806 0.02740411
vn -0.91175676 -0.40982045 0.02732775
vn -0.92583999 -0.32724117 0.18903315
vn -0.92749606 -0.36502394 0.08067574
vn -0.54839067 -0.24210769 0.80040711
vn -0.69458011 -0.31563030 0.64647969
vn -0.73011181 -0.24958857 0.63611500
vn -0.83909342 -0.29930396 0.45424593
vn -0.39136952 -0.12730504 0.91138539
vn -0.39170717 -0.12045057 0.91217167
vn -0.48244941 -0.21640918 0.84876948
vn -0.52506421 -0.23389532 0.81829124
vn -0.54839067 -0.24210769 0.80040711
vn -0.55968882 -0.13492917 0.81764451
vn -0.67529959 -0.20669550 0.70798830
vn -0.73011181 -0.24958857 0.63611500
vn 0.00000000 1.00000000 0.00000000
vn -0.55968882 -0.13492917 0.81764451
vn -0.67529959 -0.20669550 0.70798830
vn -0.96548084 -0.15862911 0.20659996
vn 0.00000000 1.00000000 0.00000000
vn -0.93045505 -0.26319887 -0.25491128
vn -0.93645521 -0.25596486 -0.23986171
vn -0.84459980 -0.48307330 -0.23084924
vn -0.84659109 -0.47903596 -0.23196569
vn -0.85120022 -0.46986587 -0.23384662
vn -0.85903457 -0.45444650 -0.23566499
vn -0.86118917 -0.45013922 -0.23606756
vn -0.87009003 -0.43249727 -0.23640952
vn -0.87330468 -0.48222120 -0.06929400
vn -0.87590588 -0.47815780 -0.06445166
vn -0.87595379 -0.42049699 -0.23640484
vn -0.87872411 -0.41498133 -0.23586955
vn -0.89907071 -0.43336252 -0.06219959
vn -0.90059162 -0.42950100 -0.06681036
vn -0.89907071 -0.43336252 -0.06219959
vn -0.89911515 -0.43338394 0.06140288
vn -0.90059162 -0.42950100 -0.06681036
vn -0.90087725 -0.42886332 0.06705552
vn -0.90646833 -0.42063645 0.03715031
vn -0.90651901 -0.42065997 -0.03561563
vn -0.90646833 -0.42063645 0.03715031
vn -0.90651901 -0.42065997 -0.03561563
vn -0.91055072 -0.41248806 0.02740411
vn -0.91058175 -0.41250212 -0.02613180
vn -0.91055072 -0.41248806 0.02740411
vn -0.91058175 -0.41250212 -0.02613180
vn -0.91175676 -0.40982045 0.02732775
vn -0.91178762 -0.40983432 -0.02606105
vn -0.91175676 -0.40982045 0.02732775
vn -0.91178762 -0.40983432 -0.02606105
vn -0.92749606 -0.36502394 0.08067574
vn -0.92768664 -0.36509894 -0.07810416
vn -0.88429488 -0.40069810 -0.23971566
vn -0.88453277 -0.40139109 -0.23766986
vn -0.88451693 -0.39963713 -0.24066566
vn -0.88514143 -0.40014573 -0.23750376
vn -0.88558690 -0.39695695 -0.24116597
vn -0.88113432 -0.40924810 -0.23689301
vn -0.88187194 -0.40517624 -0.24111014
vn -0.88401301 -0.40105188 -0.24016325
vn -0.88429488 -0.40069810 -0.23971566
vn -0.88453277 -0.40139109 -0.23766986
vn -0.87595379 -0.42049699 -0.23640484
vn -0.87791229 -0.41039297 -0.24667312
vn -0.87872411 -0.41498133 -0.23586955
vn -0.88037015 -0.40448624 -0.24766769
vn -0.88113432 -0.40924810 -0.23689301
vn -0.88187194 -0.40517624 -0.24111014
vn 0.00000000 1.00000000 0.00000000
vn -0.92313187 -0.28352077 -0.25969890
vn -0.92598745 -0.27312845 -0.26066854
vn -0.93045505 -0.26319887 -0.25491128
vn -0.88646427 -0.35583772 -0.29590643
vn -0.88714066 -0.33755208 -0.31470629
vn -0.89392202 -0.34778479 -0.28275284
vn -0.90058126 -0.28826006 -0.32536063
vn -0.90465362 -0.33122770 -0.26812319
vn -0.90709346 -0.26469276 -0.32729070
vn -0.91037904 -0.31871259 -0.26387932
vn -0.91094997 -0.31742242 -0.26346378
vn -0.91684458 -0.24546230 -0.31487184
vn -0.92247859 -0.28572946 -0.25959955
vn -0.92313187 -0.28352077 -0.25969890
vn -0.92514710 -0.23865606 -0.29520523
vn -0.92598745 -0.27312845 -0.26066854
vn -0.90413087 -0.33960347 -0.25926212
vn -0.90418785 -0.33903307 -0.25980937
vn -0.90448914 -0.33785798 -0.26029094
vn -0.91094997 -0.31742242 -0.26346378
vn -0.91814873 -0.30241391 -0.25602489
vn -0.92088732 -0.29311324 -0.25700422
vn -0.92247859 -0.28572946 -0.25959955
vn -0.91814873 -0.30241391 -0.25602489
vn -0.92078602 -0.29628086 -0.25371394
vn -0.92088732 -0.29311324 -0.25700422
vn -0.89886019 -0.35646300 -0.25492056
vn -0.90413087 -0.33960347 -0.25926212
vn -0.91814873 -0.30241391 -0.25602489
vn -0.92078602 -0.29628086 -0.25371394
vn -0.92647079 -0.29407554 -0.23488604
vn -0.92665451 -0.28919426 -0.24016263
vn -0.87859443 -0.39605745 -0.26685262
vn -0.87871034 -0.39623907 -0.26620054
vn -0.87913469 -0.38982239 -0.27415453
vn -0.88234007 -0.39233575 -0.25990124
vn -0.89274626 -0.37283250 -0.25298230
vn -0.89361578 -0.37087105 -0.25279538
vn -0.89886019 -0.35646300 -0.25492056
vn -0.90413087 -0.33960347 -0.25926212
vn -0.90418785 -0.33903307 -0.25980937
vn -0.88323073 -0.39905601 -0.24628801
vn -0.88381618 -0.39522608 -0.25033040
vn -0.88451693 -0.39963713 -0.24066566
vn -0.88558690 -0.39695695 -0.24116597
vn -0.89274626 -0.37283250 -0.25298230
vn -0.89361578 -0.37087105 -0.25279538
vn -0.61189478 -0.32943577 0.71906666
vn -0.69037497 -0.38666150 0.61145342
vn -0.71169683 -0.32860990 0.62088900
vn -0.87886967 -0.47283380 0.06337423
vn -0.89911515 -0.43338394 0.06140288
vn -0.90087725 -0.42886332 0.06705552
vn -0.47762399 -0.23311675 0.84707255
vn -0.47889952 -0.22200400 0.84933472
vn -0.52506421 -0.23389532 0.81829124
vn -0.54839067 -0.24210769 0.80040711
vn -0.57200993 -0.30971524 0.75952690
vn -0.61189478 -0.32943577 0.71906666
vn -0.69458011 -0.31563030 0.64647969
vn -0.71169683 -0.32860990 0.62088900
vn -0.47515872 -0.21758358 0.85257350
vn -0.47889952 -0.22200400 0.84933472
vn -0.48244941 -0.21640918 0.84876948
vn -0.52506421 -0.23389532 0.81829124
vn -0.30757082 -0.13163391 0.94237610
vn -0.39136952 -0.12730504 0.91138539
vn -0.47515872 -0.21758358 0.85257350
vn -0.48244941 -0.21640918 0.84876948
vn 0.03488744 0.02267861 0.99913390
vn -0.19263634 0.02226740 0.98101753
vn -0.21066199 -0.10024676 0.97240532
vn -0.30757082 -0.13163391 0.94237610
vn -0.39136952 -0.12730504 0.91138539
vn -0.39170717 -0.12045057 0.91217167
vn 0.00000000 1.00000000 0.00000000
vn -0.14330304 0.11520272 0.98295095
vn -0.19263634 0.02226740 0.98101753
vn -0.39170717 -0.12045057 0.91217167
vn -0.55968882 -0.13492917 0.81764451
vn -0.84853704 -0.47222230 -0.23872787
vn -0.84856184 -0.47212166 -0.23883876
vn -0.85120022 -0.46986587 -0.23384662
vn -0.85903457 -0.45444650 -0.23566499
vn -0.83847115 -0.49164447 -0.23505710
vn -0.84659109 -0.47903596 -0.23196569
vn -0.84853704 -0.47222230 -0.23872787
vn -0.85120022 -0.46986587 -0.23384662
vn -0.83392545 -0.50062318 -0.23226017
vn -0.83603425 -0.49633529 -0.23387608
vn -0.83831448 -0.49190824 -0.23506408
vn -0.83847115 -0.49164447 -0.23505710
vn -0.84459980 -0.48307330 -0.23084924
vn -0.84659109 -0.47903596 -0.23196569
vn -0.74358679 -0.63725374 -0.20245086
vn -0.76610111 -0.60668745 -0.21217783
vn -0.80709023 -0.54398307 -0.22953820
vn -0.81099178 -0.53773541 -0.23050589
vn -0.82034907 -0.52293257 -0.23144964
vn -0.82337387 -0.56626340 -0.03743318
vn -0.82892954 -0.55880612 -0.02472937
vn -0.83392545 -0.50062318 -0.23226017
vn -0.84459980 -0.48307330 -0.23084924
vn -0.86742294 -0.49699537 -0.02393848
vn -0.87050355 -0.49108407 -0.03255770
vn -0.87330468 -0.48222120 -0.06929400
vn -0.87050355 -0.49108407 -0.03255770
vn -0.87059852 -0.49177661 -0.01462792
vn -0.87192372 -0.48964173 0.00000000
vn -0.87330468 -0.48222120 -0.06929400
vn -0.87590588 -0.47815780 -0.06445166
vn -0.87711240 -0.47881643 0.03753222
vn -0.87590588 -0.47815780 -0.06445166
vn -0.87711240 -0.47881643 0.03753222
vn -0.87886967 -0.47283380 0.06337423
vn -0.89907071 -0.43336252 -0.06219959
vn -0.89911515 -0.43338394 0.06140288
vn -0.85542311 -0.45544592 -0.24661774
vn -0.85664828 -0.44793758 -0.25594070
vn -0.85826912 -0.44364883 -0.25797256
vn -0.86040516 -0.44972943 -0.23967978
vn -0.87009003 -0.43249727 -0.23640952
vn -0.87565761 -0.41240605 -0.25128667
vn -0.87595379 -0.42049699 -0.23640484
vn -0.87791229 -0.41039297 -0.24667312
vn -0.86040516 -0.44972943 -0.23967978
vn -0.86118917 -0.45013922 -0.23606756
vn -0.87009003 -0.43249727 -0.23640952
vn -0.84745241 -0.47150440 -0.24394265
vn -0.84752438 -0.47124187 -0.24419978
vn -0.84856184 -0.47212166 -0.23883876
vn -0.85209613 -0.46090859 -0.24798277
vn -0.85542311 -0.45544592 -0.24661774
vn -0.85903457 -0.45444650 -0.23566499
vn -0.86040516 -0.44972943 -0.23967978
vn -0.86118917 -0.45013922 -0.23606756
vn -0.88254258 -0.40038478 -0.24659810
vn -0.88323073 -0.39905601 -0.24628801
vn -0.88401301 -0.40105188 -0.24016325
vn -0.88429488 -0.40069810 -0.23971566
vn -0.88451693 -0.39963713 -0.24066566
vn -0.88037015 -0.40448624 -0.24766769
vn -0.88073465 -0.40262344 -0.24940098
vn -0.88085577 -0.40239306 -0.24934500
vn -0.88187194 -0.40517624 -0.24111014
vn -0.88254258 -0.40038478 -0.24659810
vn -0.88401301 -0.40105188 -0.24016325
vn -0.87565761 -0.41240605 -0.25128667
vn -0.87680549 -0.40329006 -0.26185734
vn -0.87791229 -0.41039297 -0.24667312
vn -0.87815630 -0.40079735 -0.26115704
vn -0.88037015 -0.40448624 -0.24766769
vn -0.88073465 -0.40262344 -0.24940098
vn -0.00000000 1.00000000 -0.00000000
vn -0.92514710 -0.23865606 -0.29520523
vn -0.92598745 -0.27312845 -0.26066854
vn -0.87739435 -0.37300081 -0.30174417
vn -0.87804773 -0.36366088 -0.31109959
vn -0.87931635 -0.37373081 -0.29517459
vn -0.87981966 -0.37268483 -0.29499726
vn -0.88550073 -0.34172168 -0.31482494
vn -0.88646427 -0.35583772 -0.29590643
vn -0.88714066 -0.33755208 -0.31470629
vn -0.87981966 -0.37268483 -0.29499726
vn -0.88646427 -0.35583772 -0.29590643
vn -0.89392202 -0.34778479 -0.28275284
vn -0.87689418 -0.39193686 -0.27828419
vn -0.87829330 -0.37765361 -0.29322113
vn -0.87913469 -0.38982239 -0.27415453
vn -0.87931635 -0.37373081 -0.29517459
vn -0.87981966 -0.37268483 -0.29499726
vn -0.89392202 -0.34778479 -0.28275284
vn -0.90418785 -0.33903307 -0.25980937
vn -0.90448914 -0.33785798 -0.26029094
vn -0.90465362 -0.33122770 -0.26812319
vn -0.90490341 -0.33095804 -0.26761276
vn -0.90465362 -0.33122770 -0.26812319
vn -0.90490341 -0.33095804 -0.26761276
vn -0.91037904 -0.31871259 -0.26387932
vn -0.90448914 -0.33785798 -0.26029094
vn -0.90490341 -0.33095804 -0.26761276
vn -0.91037904 -0.31871259 -0.26387932
vn -0.91094997 -0.31742242 -0.26346378
vn -0.00000000 1.00000000 -0.00000000
vn -0.91684458 -0.24546230 -0.31487184
vn -0.92514710 -0.23865606 -0.29520523
vn -0.00000000 1.00000000 -0.00000000
vn -0.90709346 -0.26469276 -0.32729070
vn -0.91684458 -0.24546230 -0.31487184
vn -0.00000000 1.00000000 -0.00000000
vn -0.85145156 -0.31343313 -0.42046393
vn -0.85265933 -0.36673824 -0.37212245
vn -0.85452427 -0.36792079 -0.36663683
vn -0.86431744 -0.36047670 -0.35073053
vn -0.90058126 -0.28826006 -0.32536063
vn -0.90709346 -0.26469276 -0.32729070
vn -0.86421843 -0.37180018 -0.33895594
vn -0.86431744 -0.36047670 -0.35073053
vn -0.87383830 -0.36434505 -0.32196164
vn -0.88550073 -0.34172168 -0.31482494
vn -0.88714066 -0.33755208 -0.31470629
vn -0.90058126 -0.28826006 -0.32536063
vn -0.87609852 -0.39388296 -0.27804242
vn -0.87671065 -0.39558379 -0.27366385
vn -0.87689418 -0.39193686 -0.27828419
vn -0.87859443 -0.39605745 -0.26685262
vn -0.87913469 -0.38982239 -0.27415453
vn -0.87630163 -0.39903375 -0.26993984
vn -0.87671065 -0.39558379 -0.27366385
vn -0.87814564 -0.39987344 -0.26260515
vn -0.87859443 -0.39605745 -0.26685262
vn -0.87871034 -0.39623907 -0.26620054
vn -0.87814564 -0.39987344 -0.26260515
vn -0.87819189 -0.40062201 -0.26130634
vn -0.87871034 -0.39623907 -0.26620054
vn -0.88142761 -0.39803708 -0.25426728
vn -0.88185855 -0.39721112 -0.25406460
vn -0.88234007 -0.39233575 -0.25990124
vn -0.88185855 -0.39721112 -0.25406460
vn -0.88234007 -0.39233575 -0.25990124
vn -0.88381618 -0.39522608 -0.25033040
vn -0.89274626 -0.37283250 -0.25298230
vn -0.88085577 -0.40239306 -0.24934500
vn -0.88142761 -0.39803708 -0.25426728
vn -0.88185855 -0.39721112 -0.25406460
vn -0.88254258 -0.40038478 -0.24659810
vn -0.88323073 -0.39905601 -0.24628801
vn -0.88381618 -0.39522608 -0.25033040
vn -0.60350494 -0.38849435 0.69631453
vn -0.67234820 -0.70647960 0.22098526
vn -0.69037497 -0.38666150 0.61145342
vn -0.76316803 -0.63942775 0.09330976
vn -0.82086603 -0.57112080 0.00000000
vn -0.87192372 -0.48964173 0.00000000
vn -0.87711240 -0.47881643 0.03753222
vn -0.87886967 -0.47283380 0.06337423
vn -0.48597107 -0.29113486 0.82405862
vn -0.48624211 -0.28937573 0.82451822
vn -0.55168249 -0.34616786 0.75882425
vn -0.57200993 -0.30971524 0.75952690
vn -0.60350494 -0.38849435 0.69631453
vn -0.61189478 -0.32943577 0.71906666
vn -0.69037497 -0.38666150 0.61145342
vn -0.44277554 -0.23867286 0.86428299
vn -0.47762399 -0.23311675 0.84707255
vn -0.48624211 -0.28937573 0.82451822
vn -0.57200993 -0.30971524 0.75952690
vn -0.19919339 -0.10049300 0.97479390
vn -0.21066199 -0.10024676 0.97240532
vn -0.22231859 -0.12440910 0.96700404
vn -0.25495489 -0.14662535 0.95577142
vn -0.30757082 -0.13163391 0.94237610
vn -0.44277554 -0.23867286 0.86428299
vn -0.47515872 -0.21758358 0.85257350
vn -0.47762399 -0.23311675 0.84707255
vn -0.47889952 -0.22200400 0.84933472
vn 0.03488744 0.02267861 0.99913390
vn 0.07127553 0.03478377 0.99684998
vn -0.19919339 -0.10049300 0.97479390
vn -0.21066199 -0.10024676 0.97240532
vn 0.03488744 0.02267861 0.99913390
vn 0.07127553 0.03478377 0.99684998
vn 0.12290706 0.05540362 0.99087047
vn 0.23789449 0.11306230 0.96468810
vn -0.14330304 0.11520272 0.98295095
vn -0.19263634 0.02226740 0.98101753
vn 0.00000000 1.00000000 0.00000000
vn 0.23789449 0.11306230 0.96468810
vn 0.31081354 0.14634806 0.93913640
vn 0.40276333 0.19728910 0.89378896
vn 0.46670498 0.23446523 0.85276756
vn -0.14330304 0.11520272 0.98295095
vn -0.83831448 -0.49190824 -0.23506408
vn -0.83847115 -0.49164447 -0.23505710
vn -0.83970792 -0.48647975 -0.24130491
vn -0.84745241 -0.47150440 -0.24394265
vn -0.84853704 -0.47222230 -0.23872787
vn -0.84856184 -0.47212166 -0.23883876
vn -0.80562029 -0.53944165 -0.24490538
vn -0.80571081 -0.54059807 -0.24204095
vn -0.80741809 -0.53258461 -0.25382999
vn -0.80771637 -0.53194335 -0.25422539
vn -0.80775604 -0.53882140 -0.23916873
vn -0.83559616 -0.49005212 -0.24824985
vn -0.83603425 -0.49633529 -0.23387608
vn -0.83831448 -0.49190824 -0.23506408
vn -0.83970792 -0.48647975 -0.24130491
vn -0.80775604 -0.53882140 -0.23916873
vn -0.80860793 -0.53938967 -0.23497234
vn -0.81045972 -0.53738263 -0.23318437
vn -0.82034907 -0.52293257 -0.23144964
vn -0.83392545 -0.50062318 -0.23226017
vn -0.83603425 -0.49633529 -0.23387608
vn 0.00000000 -1.00000000 0.00000000
vn 0.00000000 -1.00000000 0.00000000
vn -0.74358679 -0.63725374 -0.20245086
vn -0.76316803 -0.63942775 0.09330976
vn -0.82086603 -0.57112080 0.00000000
vn -0.82337387 -0.56626340 -0.03743318
vn -0.82420570 -0.56618291 -0.01103996
vn -0.82337387 -0.56626340 -0.03743318
vn -0.82420570 -0.56618291 -0.01103996
vn -0.82892954 -0.55880612 -0.02472937
vn -0.82086603 -0.57112080 0.00000000
vn -0.82420570 -0.56618291 -0.01103996
vn -0.82892954 -0.55880612 -0.02472937
vn -0.86742294 -0.49699537 -0.02393848
vn -0.87059852 -0.49177661 -0.01462792
vn -0.87192372 -0.48964173 0.00000000
vn -0.86742294 -0.49699537 -0.02393848
vn -0.87050355 -0.49108407 -0.03255770
vn -0.87059852 -0.49177661 -0.01462792
vn -0.81045972 -0.53738263 -0.23318437
vn -0.81099178 -0.53773541 -0.23050589
vn -0.82034907 -0.52293257 -0.23144964
vn -0.80623590 -0.54317034 -0.23441342
vn -0.80661872 -0.54221895 -0.23529738
vn -0.80709023 -0.54398307 -0.22953820
vn -0.80860793 -0.53938967 -0.23497234
vn -0.81045972 -0.53738263 -0.23318437
vn -0.81099178 -0.53773541 -0.23050589
vn 0.00000000 -1.00000000 0.00000000
vn -0.76610111 -0.60668745 -0.21217783
vn -0.80623590 -0.54317034 -0.23441342
vn -0.80709023 -0.54398307 -0.22953820
vn 0.00000000 -1.00000000 0.00000000
vn -0.74358679 -0.63725374 -0.20245086
vn -0.76610111 -0.60668745 -0.21217783
vn -0.85826912 -0.44364883 -0.25797256
vn -0.86071313 -0.43031004 -0.27204078
vn -0.86085506 -0.42987991 -0.27227160
vn -0.87351653 -0.40717874 -0.26678520
vn -0.87565761 -0.41240605 -0.25128667
vn -0.87680549 -0.40329006 -0.26185734
vn -0.85607961 -0.44915355 -0.25571232
vn -0.85664828 -0.44793758 -0.25594070
vn -0.85826912 -0.44364883 -0.25797256
vn -0.85857513 -0.43494564 -0.27142410
vn -0.86071313 -0.43031004 -0.27204078
vn -0.85209613 -0.46090859 -0.24798277
vn -0.85310640 -0.45723577 -0.25128652
vn -0.85542311 -0.45544592 -0.24661774
vn -0.85607961 -0.44915355 -0.25571232
vn -0.85664828 -0.44793758 -0.25594070
vn -0.82811213 -0.49760543 -0.25810682
vn -0.83569413 -0.48950466 -0.24899902
vn -0.84752438 -0.47124187 -0.24419978
vn -0.85209613 -0.46090859 -0.24798277
vn -0.85310640 -0.45723577 -0.25128652
vn -0.83559616 -0.49005212 -0.24824985
vn -0.83569413 -0.48950466 -0.24899902
vn -0.83970792 -0.48647975 -0.24130491
vn -0.84745241 -0.47150440 -0.24394265
vn -0.84752438 -0.47124187 -0.24419978
vn -0.87815630 -0.40079735 -0.26115704
vn -0.87819189 -0.40062201 -0.26130634
vn -0.88073465 -0.40262344 -0.24940098
vn -0.88085577 -0.40239306 -0.24934500
vn -0.88142761 -0.39803708 -0.25426728
vn -0.87223415 -0.40658097 -0.27184461
vn -0.87351653 -0.40717874 -0.26678520
vn -0.87630163 -0.39903375 -0.26993984
vn -0.87680549 -0.40329006 -0.26185734
vn -0.87814564 -0.39987344 -0.26260515
vn -0.87815630 -0.40079735 -0.26115704
vn -0.87819189 -0.40062201 -0.26130634
vn -0.86539403 -0.38186764 -0.32445383
vn -0.86659150 -0.38616092 -0.31606790
vn -0.86712159 -0.38715224 -0.31338999
vn -0.87176925 -0.38316225 -0.30529503
vn -0.87375995 -0.36665115 -0.31954732
vn -0.87739435 -0.37300081 -0.30174417
vn -0.87804773 -0.36366088 -0.31109959
vn -0.87127935 -0.39092324 -0.29673442
vn -0.87155228 -0.39104569 -0.29576999
vn -0.87176925 -0.38316225 -0.30529503
vn -0.87380855 -0.38919525 -0.29152301
vn -0.87739435 -0.37300081 -0.30174417
vn -0.87829330 -0.37765361 -0.29322113
vn -0.87931635 -0.37373081 -0.29517459
vn -0.87375995 -0.36665115 -0.31954732
vn -0.87383830 -0.36434505 -0.32196164
vn -0.87804773 -0.36366088 -0.31109959
vn -0.88550073 -0.34172168 -0.31482494
vn -0.87328994 -0.39395397 -0.28664430
vn -0.87361637 -0.39434630 -0.28510599
vn -0.87380855 -0.38919525 -0.29152301
vn -0.87471149 -0.39449204 -0.28152413
vn -0.87609852 -0.39388296 -0.27804242
vn -0.87689418 -0.39193686 -0.27828419
vn -0.87829330 -0.37765361 -0.29322113
vn -0.00000000 1.00000000 -0.00000000
vn -0.84760949 -0.28152338 -0.44978077
vn -0.84955063 -0.31268283 -0.42484488
vn -0.85145156 -0.31343313 -0.42046393
vn -0.84262091 -0.33530489 -0.42137945
vn -0.84416367 -0.36838582 -0.38946063
vn -0.84419413 -0.36841749 -0.38936463
vn -0.84600869 -0.36874774 -0.38509011
vn -0.84955063 -0.31268283 -0.42484488
vn -0.85145156 -0.31343313 -0.42046393
vn -0.85265933 -0.36673824 -0.37212245
vn -0.84021694 -0.39102845 -0.37567572
vn -0.84022741 -0.37654066 -0.39017308
vn -0.84208912 -0.39445028 -0.36782453
vn -0.84420833 -0.37011379 -0.38772165
vn -0.84600869 -0.36874774 -0.38509011
vn -0.85265933 -0.36673824 -0.37212245
vn -0.85452427 -0.36792079 -0.36663683
vn -0.85833830 -0.38028592 -0.34443863
vn -0.85911048 -0.37894940 -0.34398624
vn -0.85916079 -0.37714977 -0.34583347
vn -0.85452427 -0.36792079 -0.36663683
vn -0.85916079 -0.37714977 -0.34583347
vn -0.86071047 -0.37753309 -0.34153514
vn -0.86421843 -0.37180018 -0.33895594
vn -0.86431744 -0.36047670 -0.35073053
vn -0.86065505 -0.37890022 -0.34015807
vn -0.86071047 -0.37753309 -0.34153514
vn -0.86421843 -0.37180018 -0.33895594
vn -0.86539403 -0.38186764 -0.32445383
vn -0.87375995 -0.36665115 -0.31954732
vn -0.87383830 -0.36434505 -0.32196164
vn -0.86835304 -0.41059460 -0.27816373
vn -0.86913066 -0.40371042 -0.28570928
vn -0.87223415 -0.40658097 -0.27184461
vn -0.87352786 -0.39566633 -0.28354406
vn -0.87471149 -0.39449204 -0.28152413
vn -0.87609852 -0.39388296 -0.27804242
vn -0.87630163 -0.39903375 -0.26993984
vn -0.87671065 -0.39558379 -0.27366385
vn 0.00000000 -1.00000000 0.00000000
vn 0.00000000 -1.00000000 0.00000000
vn -0.40310788 -0.30128134 0.86413748
vn -0.42397442 -0.29953987 0.85470554
vn -0.55168249 -0.34616786 0.75882425
vn -0.60350494 -0.38849435 0.69631453
vn -0.67234820 -0.70647960 0.22098526
vn 0.00000000 -1.00000000 0.00000000
vn -0.67234820 -0.70647960 0.22098526
vn -0.76316803 -0.63942775 0.09330976
vn -0.42397442 -0.29953987 0.85470554
vn -0.48597107 -0.29113486 0.82405862
vn -0.55168249 -0.34616786 0.75882425
vn -0.25495489 -0.14662535 0.95577142
vn -0.37759175 -0.28103826 0.88229359
vn -0.40310788 -0.30128134 0.86413748
vn -0.42397442 -0.29953987 0.85470554
vn -0.44277554 -0.23867286 0.86428299
vn -0.48597107 -0.29113486 0.82405862
vn -0.48624211 -0.28937573 0.82451822
vn 0.00000000 -1.00000000 0.00000000
vn 0.11200053 0.04437856 0.99271669
vn 0.22458149 0.04351874 0.97348306
vn -0.22231859 -0.12440910 0.96700404
vn -0.25495489 -0.14662535 0.95577142
vn -0.37759175 -0.28103826 0.88229359
vn 0.07127553 0.03478377 0.99684998
vn 0.11200053 0.04437856 0.99271669
vn 0.12290706 0.05540362 0.99087047
vn -0.19919339 -0.10049300 0.97479390
vn -0.22231859 -0.12440910 0.96700404
vn 0.11200053 0.04437856 0.99271669
vn 0.12290706 0.05540362 0.99087047
vn 0.22458149 0.04351874 0.97348306
vn 0.23789449 0.11306230 0.96468810
vn 0.31081354 0.14634806 0.93913640
vn 0.00000000 -1.00000000 0.00000000
vn 0.22458149 0.04351874 0.97348306
vn 0.31081354 0.14634806 0.93913640
vn 0.40276333 0.19728910 0.89378896
vn 0.00000000 -1.00000000 0.00000000
vn 0.40276333 0.19728910 0.89378896
vn 0.46670498 0.23446523 0.85276756
vn 0.62073443 0.30411456 0.72263621
vn 0.71273395 0.20412443 0.67107640
vn 0.00000000 1.00000000 0.00000000
vn 0.46670498 0.23446523 0.85276756
vn 0.62073443 0.30411456 0.72263621
vn 0.80057207 0.41106154 0.43601923
vn 0.80477529 0.41437358 0.42500738
vn -0.80523032 -0.54171148 -0.24114891
vn -0.80571081 -0.54059807 -0.24204095
vn -0.80661872 -0.54221895 -0.23529738
vn -0.80775604 -0.53882140 -0.23916873
vn -0.80860793 -0.53938967 -0.23497234
vn -0.80771637 -0.53194335 -0.25422539
vn -0.80987399 -0.52418190 -0.26332005
vn -0.82630110 -0.49980874 -0.25964923
vn -0.82811213 -0.49760543 -0.25810682
vn -0.83559616 -0.49005212 -0.24824985
vn -0.83569413 -0.48950466 -0.24899902
vn -0.80284882 -0.53627815 -0.26046020
vn -0.80317975 -0.53649920 -0.25898050
vn -0.80371293 -0.53210168 -0.26629556
vn -0.80661791 -0.53401736 -0.25336338
vn -0.80741809 -0.53258461 -0.25382999
vn -0.80771637 -0.53194335 -0.25422539
vn -0.80959186 -0.52406451 -0.26441901
vn -0.80987399 -0.52418190 -0.26332005
vn -0.80521511 -0.53897055 -0.24726376
vn -0.80562029 -0.53944165 -0.24490538
vn -0.80661791 -0.53401736 -0.25336338
vn -0.80741809 -0.53258461 -0.25382999
vn -0.80231768 -0.54305417 -0.24774687
vn -0.80360214 -0.54392357 -0.24160038
vn -0.80521511 -0.53897055 -0.24726376
vn -0.80523032 -0.54171148 -0.24114891
vn -0.80562029 -0.53944165 -0.24490538
vn -0.80571081 -0.54059807 -0.24204095
vn 0.00000000 -1.00000000 0.00000000
vn -0.80360214 -0.54392357 -0.24160038
vn -0.80523032 -0.54171148 -0.24114891
vn -0.80623590 -0.54317034 -0.23441342
vn -0.80661872 -0.54221895 -0.23529738
vn -0.86085506 -0.42987991 -0.27227160
vn -0.86200626 -0.42338053 -0.27873668
vn -0.86318632 -0.42001887 -0.28016698
vn -0.86835304 -0.41059460 -0.27816373
vn -0.87223415 -0.40658097 -0.27184461
vn -0.87351653 -0.40717874 -0.26678520
vn -0.85550150 -0.43774647 -0.27657768
vn -0.85597497 -0.43317441 -0.28225304
vn -0.85857513 -0.43494564 -0.27142410
vn -0.86071313 -0.43031004 -0.27204078
vn -0.86085506 -0.42987991 -0.27227160
vn -0.86200626 -0.42338053 -0.27873668
vn -0.81840516 -0.50673395 -0.27098655
vn -0.82082290 -0.49452344 -0.28582570
vn -0.82224081 -0.49098166 -0.28784902
vn -0.82630110 -0.49980874 -0.25964923
vn -0.82811213 -0.49760543 -0.25810682
vn -0.85310640 -0.45723577 -0.25128652
vn -0.85550150 -0.43774647 -0.27657768
vn -0.85607961 -0.44915355 -0.25571232
vn -0.85857513 -0.43494564 -0.27142410
vn -0.86678893 -0.39104602 -0.30945106
vn -0.86712159 -0.38715224 -0.31338999
vn -0.86763896 -0.39367885 -0.30367678
vn -0.87127935 -0.39092324 -0.29673442
vn -0.87176925 -0.38316225 -0.30529503
vn -0.84518119 -0.42114460 -0.32909875
vn -0.84646076 -0.40067691 -0.35065964
vn -0.85323261 -0.41415637 -0.31696783
vn -0.85851557 -0.38036446 -0.34390971
vn -0.85977877 -0.37924418 -0.34198584
vn -0.86065505 -0.37890022 -0.34015807
vn -0.86539403 -0.38186764 -0.32445383
vn -0.86624073 -0.39134754 -0.31060280
vn -0.86659150 -0.38616092 -0.31606790
vn -0.86624073 -0.39134754 -0.31060280
vn -0.86659150 -0.38616092 -0.31606790
vn -0.86678893 -0.39104602 -0.30945106
vn -0.86712159 -0.38715224 -0.31338999
vn -0.86695916 -0.40010856 -0.29714467
vn -0.86763896 -0.39367885 -0.30367678
vn -0.86835785 -0.40099683 -0.29181531
vn -0.87116415 -0.39597987 -0.29029806
vn -0.87127935 -0.39092324 -0.29673442
vn -0.87155228 -0.39104569 -0.29576999
vn -0.87116415 -0.39597987 -0.29029806
vn -0.87155228 -0.39104569 -0.29576999
vn -0.87328994 -0.39395397 -0.28664430
vn -0.87380855 -0.38919525 -0.29152301
vn -0.86792542 -0.40445649 -0.28830611
vn -0.86835785 -0.40099683 -0.29181531
vn -0.86913066 -0.40371042 -0.28570928
vn -0.87116415 -0.39597987 -0.29029806
vn -0.87328994 -0.39395397 -0.28664430
vn -0.87352786 -0.39566633 -0.28354406
vn -0.87361637 -0.39434630 -0.28510599
vn -0.87352786 -0.39566633 -0.28354406
vn -0.87361637 -0.39434630 -0.28510599
vn -0.87471149 -0.39449204 -0.28152413
vn -0.00000000 1.00000000 -0.00000000
vn 0.00000000 -0.00000000 -1.00000000
vn -0.84760949 -0.28152338 -0.44978077
vn 0.00000000 0.00000000 -1.00000000
vn -0.83900646 -0.33600474 -0.42798245
vn -0.84262091 -0.33530489 -0.42137945
vn -0.84760949 -0.28152338 -0.44978077
vn -0.84955063 -0.31268283 -0.42484488
vn -0.83167477 -0.37507629 -0.40943235
vn -0.83420340 -0.37888699 -0.40068609
vn -0.84022741 -0.37654066 -0.39017308
vn -0.84416367 -0.36838582 -0.38946063
vn -0.84419413 -0.36841749 -0.38936463
vn -0.84420833 -0.37011379 -0.38772165
vn -0.84419413 -0.36841749 -0.38936463
vn -0.84420833 -0.37011379 -0.38772165
vn -0.84600869 -0.36874774 -0.38509011
vn -0.79601128 -0.35059581 -0.49340513
vn -0.79647920 -0.35560583 -0.48904538
vn -0.80322429 -0.35990723 -0.47465516
vn -0.83167477 -0.37507629 -0.40943235
vn -0.83900646 -0.33600474 -0.42798245
vn -0.84262091 -0.33530489 -0.42137945
vn -0.84416367 -0.36838582 -0.38946063
vn -0.83420340 -0.37888699 -0.40068609
vn -0.83435552 -0.38776306 -0.39177886
vn -0.84021694 -0.39102845 -0.37567572
vn -0.84022741 -0.37654066 -0.39017308
vn -0.82469447 -0.40776730 -0.39192456
vn -0.82473438 -0.40170700 -0.39805112
vn -0.83435552 -0.38776306 -0.39177886
vn -0.84021694 -0.39102845 -0.37567572
vn -0.84189135 -0.39614859 -0.36644952
vn -0.84208912 -0.39445028 -0.36782453
vn -0.84189135 -0.39614859 -0.36644952
vn -0.84208912 -0.39445028 -0.36782453
vn -0.84272714 -0.39890958 -0.36149981
vn -0.84646076 -0.40067691 -0.35065964
vn -0.85833830 -0.38028592 -0.34443863
vn -0.85851557 -0.38036446 -0.34390971
vn -0.85833830 -0.38028592 -0.34443863
vn -0.85851557 -0.38036446 -0.34390971
vn -0.85911048 -0.37894940 -0.34398624
vn -0.85977877 -0.37924418 -0.34198584
vn -0.85911048 -0.37894940 -0.34398624
vn -0.85916079 -0.37714977 -0.34583347
vn -0.85977877 -0.37924418 -0.34198584
vn -0.86065505 -0.37890022 -0.34015807
vn -0.86071047 -0.37753309 -0.34153514
vn -0.86318632 -0.42001887 -0.28016698
vn -0.86393152 -0.41493007 -0.28540385
vn -0.86792542 -0.40445649 -0.28830611
vn -0.86835304 -0.41059460 -0.27816373
vn -0.86913066 -0.40371042 -0.28570928
vn 0.00000000 -1.00000000 0.00000000
vn -0.37759175 -0.28103826 0.88229359
vn -0.40310788 -0.30128134 0.86413748
vn 0.00000000 -1.00000000 0.00000000
vn 0.71273395 0.20412443 0.67107640
vn 0.79815695 0.38596465 0.46257624
vn 0.62073443 0.30411456 0.72263621
vn 0.71273395 0.20412443 0.67107640
vn 0.79815695 0.38596465 0.46257624
vn 0.80057207 0.41106154 0.43601923
vn -0.00000000 -1.00000000 0.00000000
vn 0.79815695 0.38596465 0.46257624
vn 0.80057207 0.41106154 0.43601923
vn 0.80477529 0.41437358 0.42500738
vn 0.83509634 0.43394903 0.33808629
vn 0.84339882 0.43787253 0.31136164
vn 0.00000000 1.00000000 0.00000000
vn 0.80477529 0.41437358 0.42500738
vn 0.83509634 0.43394903 0.33808629
vn -0.80959186 -0.52406451 -0.26441901
vn -0.80987399 -0.52418190 -0.26332005
vn -0.81339283 -0.51410275 -0.27219565
vn -0.81840516 -0.50673395 -0.27098655
vn -0.82630110 -0.49980874 -0.25964923
vn -0.78688670 -0.56050675 -0.25815016
vn -0.78808848 -0.56184780 -0.25148278
vn -0.80028276 -0.54553644 -0.24887243
vn -0.80078499 -0.53744643 -0.26437611
vn -0.80122869 -0.54407540 -0.24902722
vn -0.80284882 -0.53627815 -0.26046020
vn -0.80317975 -0.53649920 -0.25898050
vn -0.80122869 -0.54407540 -0.24902722
vn -0.80184295 -0.54354762 -0.24820129
vn -0.80231768 -0.54305417 -0.24774687
vn -0.80317975 -0.53649920 -0.25898050
vn -0.80521511 -0.53897055 -0.24726376
vn -0.80661791 -0.53401736 -0.25336338
vn -0.79943227 -0.53253085 -0.27806283
vn -0.80186623 -0.53382349 -0.26840832
vn -0.80371293 -0.53210168 -0.26629556
vn -0.80959186 -0.52406451 -0.26441901
vn -0.81276499 -0.51338357 -0.27540946
vn -0.81339283 -0.51410275 -0.27219565
vn -0.80078499 -0.53744643 -0.26437611
vn -0.80186623 -0.53382349 -0.26840832
vn -0.80284882 -0.53627815 -0.26046020
vn -0.80371293 -0.53210168 -0.26629556
vn 0.00000000 -1.00000000 0.00000000
vn -0.80184295 -0.54354762 -0.24820129
vn -0.80231768 -0.54305417 -0.24774687
vn -0.80360214 -0.54392357 -0.24160038
vn -0.84918984 -0.43949716 -0.29277784
vn -0.84944359 -0.43709212 -0.29562826
vn -0.85597497 -0.43317441 -0.28225304
vn -0.86121008 -0.41688597 -0.29072889
vn -0.86200626 -0.42338053 -0.27873668
vn -0.86318632 -0.42001887 -0.28016698
vn -0.86393152 -0.41493007 -0.28540385
vn -0.82224081 -0.49098166 -0.28784902
vn -0.82225126 -0.49092986 -0.28790753
vn -0.82976446 -0.47338484 -0.29563107
vn -0.83595403 -0.46011785 -0.29911942
vn -0.84918984 -0.43949716 -0.29277784
vn -0.85550150 -0.43774647 -0.27657768
vn -0.85597497 -0.43317441 -0.28225304
vn -0.80595798 -0.51365802 -0.29425698
vn -0.81397303 -0.50800011 -0.28175130
vn -0.82082290 -0.49452344 -0.28582570
vn -0.82224081 -0.49098166 -0.28784902
vn -0.82225126 -0.49092986 -0.28790753
vn -0.81276499 -0.51338357 -0.27540946
vn -0.81339283 -0.51410275 -0.27219565
vn -0.81397303 -0.50800011 -0.28175130
vn -0.81840516 -0.50673395 -0.27098655
vn -0.82082290 -0.49452344 -0.28582570
vn -0.85310276 -0.41651828 -0.31421046
vn -0.85323261 -0.41415637 -0.31696783
vn -0.86197328 -0.40894978 -0.29960331
vn -0.86624073 -0.39134754 -0.31060280
vn -0.86678893 -0.39104602 -0.30945106
vn -0.86695916 -0.40010856 -0.29714467
vn -0.86763896 -0.39367885 -0.30367678
vn -0.84138236 -0.42211023 -0.33748878
vn -0.84272714 -0.39890958 -0.36149981
vn -0.84411071 -0.42347900 -0.32885048
vn -0.84518119 -0.42114460 -0.32909875
vn -0.84646076 -0.40067691 -0.35065964
vn -0.84323612 -0.42956501 -0.32315128
vn -0.84411071 -0.42347900 -0.32885048
vn -0.84414903 -0.43001324 -0.32015782
vn -0.84518119 -0.42114460 -0.32909875
vn -0.85310276 -0.41651828 -0.31421046
vn -0.85323261 -0.41415637 -0.31696783
vn -0.86121008 -0.41688597 -0.29072889
vn -0.86197328 -0.40894978 -0.29960331
vn -0.86393152 -0.41493007 -0.28540385
vn -0.86695916 -0.40010856 -0.29714467
vn -0.86792542 -0.40445649 -0.28830611
vn -0.86835785 -0.40099683 -0.29181531
vn -0.00000000 1.00000000 -0.00000000
vn 0.00000000 -0.00000000 -1.00000000
vn 0.81397697 0.52164243 0.25559864
vn 0.84180548 0.53941978 0.01974425
vn 0.00000000 0.00000000 -1.00000000
vn -0.79601128 -0.35059581 -0.49340513
vn -0.83900646 -0.33600474 -0.42798245
vn -0.76487874 -0.37039776 -0.52703512
vn -0.76840283 -0.42107758 -0.48192402
vn -0.77245319 -0.42486511 -0.47202298
vn -0.80322429 -0.35990723 -0.47465516
vn -0.82473438 -0.40170700 -0.39805112
vn -0.83167477 -0.37507629 -0.40943235
vn -0.83420340 -0.37888699 -0.40068609
vn -0.83435552 -0.38776306 -0.39177886
vn 0.00000000 0.00000000 -1.00000000
vn -0.79601128 -0.35059581 -0.49340513
vn -0.79647920 -0.35560583 -0.48904538
vn 0.00000000 0.00000000 -1.00000000
vn -0.76487874 -0.37039776 -0.52703512
vn -0.79647920 -0.35560583 -0.48904538
vn -0.80322429 -0.35990723 -0.47465516
vn -0.79456487 -0.47258217 -0.38122534
vn -0.79572663 -0.45025148 -0.40508363
vn -0.81649526 -0.45583456 -0.35433084
vn -0.82469447 -0.40776730 -0.39192456
vn -0.82837125 -0.44291460 -0.34296900
vn -0.84138236 -0.42211023 -0.33748878
vn -0.84189135 -0.39614859 -0.36644952
vn -0.84272714 -0.39890958 -0.36149981
vn -0.77012109 -0.42897043 -0.47212061
vn -0.77130508 -0.43308520 -0.46639649
vn -0.77245319 -0.42486511 -0.47202298
vn -0.77672259 -0.44665207 -0.44407651
vn -0.78250680 -0.45454533 -0.42552515
vn -0.79572663 -0.45025148 -0.40508363
vn -0.82469447 -0.40776730 -0.39192456
vn -0.82473438 -0.40170700 -0.39805112
vn -0.00000000 -1.00000000 0.00000000
vn 0.15105895 -0.19152914 -0.96979265
vn 0.81397697 0.52164243 0.25559864
vn 0.84180548 0.53941978 0.01974425
vn 0.84339882 0.43787253 0.31136164
vn -0.00000000 1.00000000 -0.00000000
vn 0.81397697 0.52164243 0.25559864
vn 0.83509634 0.43394903 0.33808629
vn 0.84339882 0.43787253 0.31136164
vn 0.00000000 -1.00000000 0.00000000
vn -0.78688670 -0.56050675 -0.25815016
vn -0.78808848 -0.56184780 -0.25148278
vn 0.00000000 -1.00000000 0.00000000
vn -0.78808848 -0.56184780 -0.25148278
vn -0.80028276 -0.54553644 -0.24887243
vn 0.00000000 -1.00000000 0.00000000
vn -0.80028276 -0.54553644 -0.24887243
vn -0.80122869 -0.54407540 -0.24902722
vn -0.80184295 -0.54354762 -0.24820129
vn 0.00000000 -1.00000000 0.00000000
vn -0.78688670 -0.56050675 -0.25815016
vn -0.79655243 -0.53365265 -0.28411104
vn -0.79943227 -0.53253085 -0.27806283
vn -0.80078499 -0.53744643 -0.26437611
vn -0.80186623 -0.53382349 -0.26840832
vn -0.79497031 -0.53030035 -0.29462475
vn -0.79540568 -0.52813942 -0.29731894
vn -0.79550099 -0.53334571 -0.28761176
vn -0.79598220 -0.53384700 -0.28534140
vn -0.79655243 -0.53365265 -0.28411104
vn -0.79943227 -0.53253085 -0.27806283
vn -0.80460401 -0.51513774 -0.29537347
vn -0.80595798 -0.51365802 -0.29425698
vn -0.81276499 -0.51338357 -0.27540946
vn -0.81397303 -0.50800011 -0.28175130
vn -0.84264422 -0.44226109 -0.30717396
vn -0.84414903 -0.43001324 -0.32015782
vn -0.84944359 -0.43709212 -0.29562826
vn -0.85310276 -0.41651828 -0.31421046
vn -0.86121008 -0.41688597 -0.29072889
vn -0.86197328 -0.40894978 -0.29960331
vn -0.83595403 -0.46011785 -0.29911942
vn -0.84016390 -0.44804995 -0.30557464
vn -0.84264422 -0.44226109 -0.30717396
vn -0.84918984 -0.43949716 -0.29277784
vn -0.84944359 -0.43709212 -0.29562826
vn -0.77823561 -0.52381562 -0.34636185
vn -0.77943613 -0.52843407 -0.33650670
vn -0.78030114 -0.50716588 -0.36594111
vn -0.78382999 -0.52929644 -0.32473963
vn -0.79290465 -0.52581293 -0.30793339
vn -0.79821267 -0.52023540 -0.30366373
vn -0.81649526 -0.45583456 -0.35433084
vn -0.82837125 -0.44291460 -0.34296900
vn -0.82976446 -0.47338484 -0.29563107
vn -0.83595403 -0.46011785 -0.29911942
vn -0.84016390 -0.44804995 -0.30557464
vn -0.84196185 -0.43172887 -0.32358990
vn -0.79821267 -0.52023540 -0.30366373
vn -0.80460401 -0.51513774 -0.29537347
vn -0.80595798 -0.51365802 -0.29425698
vn -0.82225126 -0.49092986 -0.28790753
vn -0.82976446 -0.47338484 -0.29563107
vn -0.82837125 -0.44291460 -0.34296900
vn -0.84138236 -0.42211023 -0.33748878
vn -0.84196185 -0.43172887 -0.32358990
vn -0.84323612 -0.42956501 -0.32315128
vn -0.84411071 -0.42347900 -0.32885048
vn -0.84016390 -0.44804995 -0.30557464
vn -0.84196185 -0.43172887 -0.32358990
vn -0.84264422 -0.44226109 -0.30717396
vn -0.84323612 -0.42956501 -0.32315128
vn -0.84414903 -0.43001324 -0.32015782
vn 0.00000000 -0.00000000 -1.00000000
vn 0.15105895 -0.19152914 -0.96979265
vn 0.84180548 0.53941978 0.01974425
vn 0.00000000 0.00000000 -1.00000000
vn -0.76487874 -0.37039776 -0.52703512
vn -0.76840283 -0.42107758 -0.48192402
vn 0.00000000 0.00000000 -1.00000000
vn -0.76840283 -0.42107758 -0.48192402
vn -0.77012109 -0.42897043 -0.47212061
vn -0.77245319 -0.42486511 -0.47202298
vn -0.78132276 -0.48180885 -0.39673037
vn -0.78250680 -0.45454533 -0.42552515
vn -0.78555563 -0.48546123 -0.38370529
vn -0.79456487 -0.47258217 -0.38122534
vn -0.79572663 -0.45025148 -0.40508363
vn -0.77909205 -0.50560645 -0.37064496
vn -0.77935640 -0.50638273 -0.36902592
vn -0.78030114 -0.50716588 -0.36594111
vn -0.78555563 -0.48546123 -0.38370529
vn -0.79456487 -0.47258217 -0.38122534
vn -0.81649526 -0.45583456 -0.35433084
vn 0.00000000 0.00000000 -1.00000000
vn -0.77012109 -0.42897043 -0.47212061
vn -0.77130508 -0.43308520 -0.46639649
vn 0.00000000 0.00000000 -1.00000000
vn -0.72633006 -0.46140286 -0.50946250
vn -0.77130508 -0.43308520 -0.46639649
vn -0.77672259 -0.44665207 -0.44407651
vn -0.72633006 -0.46140286 -0.50946250
vn -0.72660200 -0.47959846 -0.49197038
vn -0.74666649 -0.50010257 -0.43861893
vn -0.76340996 -0.50604631 -0.40140051
vn -0.77672259 -0.44665207 -0.44407651
vn -0.78132276 -0.48180885 -0.39673037
vn -0.78250680 -0.45454533 -0.42552515
vn -0.00000000 -1.00000000 0.00000000
vn 0.00000000 -0.00000000 -1.00000000
vn 0.15105895 -0.19152914 -0.96979265
vn 0.00000000 -1.00000000 0.00000000
vn -0.79598220 -0.53384700 -0.28534140
vn -0.79655243 -0.53365265 -0.28411104
vn -0.79290465 -0.52581293 -0.30793339
vn -0.79408162 -0.52877069 -0.29972642
vn -0.79540568 -0.52813942 -0.29731894
vn -0.79821267 -0.52023540 -0.30366373
vn -0.80460401 -0.51513774 -0.29537347
vn -0.79397393 -0.52929854 -0.29907936
vn -0.79408162 -0.52877069 -0.29972642
vn -0.79497031 -0.53030035 -0.29462475
vn -0.79540568 -0.52813942 -0.29731894
vn -0.78562487 -0.54069055 -0.30074457
vn -0.78563353 -0.54193790 -0.29846821
vn -0.79397393 -0.52929854 -0.29907936
vn -0.79497031 -0.53030035 -0.29462475
vn -0.79550099 -0.53334571 -0.28761176
vn 0.00000000 -1.00000000 0.00000000
vn -0.78563353 -0.54193790 -0.29846821
vn -0.79550099 -0.53334571 -0.28761176
vn -0.79598220 -0.53384700 -0.28534140
vn -0.77757442 -0.52175300 -0.35092996
vn -0.77804495 -0.52368729 -0.34698368
vn -0.77823561 -0.52381562 -0.34636185
vn -0.77935640 -0.50638273 -0.36902592
vn -0.78030114 -0.50716588 -0.36594111
vn -0.77717261 -0.52935620 -0.34027159
vn -0.77804495 -0.52368729 -0.34698368
vn -0.77823561 -0.52381562 -0.34636185
vn -0.77825907 -0.52992016 -0.33689383
vn -0.77943613 -0.52843407 -0.33650670
vn -0.77448363 -0.54172442 -0.32666458
vn -0.77825907 -0.52992016 -0.33689383
vn -0.77943613 -0.52843407 -0.33650670
vn -0.78382999 -0.52929644 -0.32473963
vn -0.77279899 -0.54959456 -0.31737601
vn -0.77345644 -0.54606391 -0.32183745
vn -0.77417964 -0.54232641 -0.32638620
vn -0.77448363 -0.54172442 -0.32666458
vn -0.78382999 -0.52929644 -0.32473963
vn -0.78562487 -0.54069055 -0.30074457
vn -0.79290465 -0.52581293 -0.30793339
vn -0.79397393 -0.52929854 -0.29907936
vn -0.79408162 -0.52877069 -0.29972642
vn -0.76340996 -0.50604631 -0.40140051
vn -0.76568278 -0.50935753 -0.39279101
vn -0.76748105 -0.51046677 -0.38780990
vn -0.77123250 -0.51100472 -0.37957161
vn -0.77909205 -0.50560645 -0.37064496
vn -0.78132276 -0.48180885 -0.39673037
vn -0.78555563 -0.48546123 -0.38370529
vn -0.77123250 -0.51100472 -0.37957161
vn -0.77757442 -0.52175300 -0.35092996
vn -0.77909205 -0.50560645 -0.37064496
vn -0.77935640 -0.50638273 -0.36902592
vn 0.00000000 0.00000000 -1.00000000
vn -0.72633006 -0.46140286 -0.50946250
vn -0.72660200 -0.47959846 -0.49197038
vn -0.69904416 -0.52796317 -0.48227809
vn -0.69931846 -0.53064972 -0.47892021
vn -0.70540485 -0.56489846 -0.42812817
vn -0.71058243 -0.51258925 -0.48200091
vn -0.72169812 -0.56338299 -0.40218332
vn -0.72395957 -0.56286516 -0.39882998
vn -0.74666649 -0.50010257 -0.43861893
vn -0.76340996 -0.50604631 -0.40140051
vn -0.76552610 -0.51134136 -0.39051223
vn -0.76568278 -0.50935753 -0.39279101
vn 0.00000000 0.00000000 -1.00000000
vn -0.71058243 -0.51258925 -0.48200091
vn -0.72660200 -0.47959846 -0.49197038
vn -0.74666649 -0.50010257 -0.43861893
vn 0.00000000 -1.00000000 0.00000000
vn -0.00000000 -0.00000000 -1.00000000
vn -0.69931846 -0.53064972 -0.47892021
vn -0.70540485 -0.56489846 -0.42812817
vn 0.00000000 -1.00000000 0.00000000
vn -0.77279899 -0.54959456 -0.31737601
vn -0.78562487 -0.54069055 -0.30074457
vn -0.78563353 -0.54193790 -0.29846821
vn -0.72180198 -0.58070687 -0.37653876
vn -0.72395957 -0.56286516 -0.39882998
vn -0.75143455 -0.56222599 -0.34532311
vn -0.75302863 -0.56050820 -0.34464249
vn -0.76552610 -0.51134136 -0.39051223
vn -0.76748105 -0.51046677 -0.38780990
vn -0.77123250 -0.51100472 -0.37957161
vn -0.77717261 -0.52935620 -0.34027159
vn -0.77757442 -0.52175300 -0.35092996
vn -0.77804495 -0.52368729 -0.34698368
vn -0.75302863 -0.56050820 -0.34464249
vn -0.76847657 -0.55048767 -0.32620097
vn -0.77417964 -0.54232641 -0.32638620
vn -0.77448363 -0.54172442 -0.32666458
vn -0.77717261 -0.52935620 -0.34027159
vn -0.77825907 -0.52992016 -0.33689383
vn 0.00000000 -1.00000000 0.00000000
vn 0.00000000 -1.00000000 0.00000000
vn -0.76847657 -0.55048767 -0.32620097
vn -0.77345644 -0.54606391 -0.32183745
vn -0.77417964 -0.54232641 -0.32638620
vn 0.00000000 -1.00000000 0.00000000
vn 0.00000000 -1.00000000 0.00000000
vn -0.77279899 -0.54959456 -0.31737601
vn -0.77345644 -0.54606391 -0.32183745
vn -0.76552610 -0.51134136 -0.39051223
vn -0.76568278 -0.50935753 -0.39279101
vn -0.76748105 -0.51046677 -0.38780990
vn -0.00000000 -0.00000000 -1.00000000
vn -0.69904416 -0.52796317 -0.48227809
vn -0.71058243 -0.51258925 -0.48200091
vn -0.00000000 -0.00000000 -1.00000000
vn -0.69904416 -0.52796317 -0.48227809
vn -0.69931846 -0.53064972 -0.47892021
vn 0.00000000 -1.00000000 0.00000000
vn -0.70540485 -0.56489846 -0.42812817
vn -0.72169812 -0.56338299 -0.40218332
vn 0.00000000 -1.00000000 0.00000000
vn -0.72169812 -0.56338299 -0.40218332
vn -0.72180198 -0.58070687 -0.37653876
vn -0.72395957 -0.56286516 -0.39882998
vn 0.00000000 -1.00000000 0.00000000
vn -0.72180198 -0.58070687 -0.37653876
vn -0.75143455 -0.56222599 -0.34532311
vn 0.00000000 -1.00000000 0.00000000
vn -0.75143455 -0.56222599 -0.34532311
vn -0.75302863 -0.56050820 -0.34464249
vn -0.76847657 -0.55048767 -0.32620097
f 5//5 8//8 18//18
f 4//4 17//17 22//22
f 2//2 21//21 29//29
f 3//3 30//30 33//33
f 1//1 32//32 101//101
f 1//1 101//101 230//230
f 1//1 230//230 421//421
f 1//1 421//421 631//631
f 1//1 631//631 799//799
f 1//1 799//799 925//925
f 1//1 925//925 882//882
f 1//1 882//882 729//729
f 1//1 729//729 546//546
f 1//1 546//546 344//344
f 1//1 344//344 341//341
f 1//1 341//341 338//338
f 1//1 338//338 308//308
f 1//1 308//308 154//154
f 1//1 154//154 105//105
f 1//1 105//105 35//35
f 1//1 35//35 6//6
f 7//7 38//38 15//15
f 11//11 49//49 53//53
f 14//14 55//55 57//57
f 16//16 59//59 20//20
f 13//13 36//36 67//67
f 12//12 66//66 72//72
f 10//10 71//71 79//79
f 9//9 77//77 47//47
f 19//19 58//58 28//28
f 27//27 56//56 54//54
f 26//26 50//50 87//87
f 25//25 82//82 92//92
f 24//24 91//91 100//100
f 23//23 99//99 103//103
f 31//31 104//104 34//34
f 37//37 107//107 68//68
f 43//43 119//119 122//122
f 44//44 125//125 127//127
f 45//45 129//129 131//131
f 46//46 133//133 135//135
f 48//48 137//137 52//52
f 42//42 73//73 141//141
f 41//41 139//139 147//147
f 40//40 143//143 152//152
f 39//39 150//150 117//117
f 51//51 136//136 88//88
f 65//65 106//106 157//157
f 63//63 155//155 168//168
f 62//62 167//167 177//177
f 61//61 176//176 180//180
f 60//60 179//179 184//184
f 64//64 186//186 70//70
f 69//69 185//185 78//78
f 76//76 181//181 193//193
f 75//75 192//192 201//201
f 74//74 199//199 142//142
f 81//81 204//204 215//215
f 80//80 214//214 90//90
f 86//86 134//134 132//132
f 85//85 130//130 128//128
f 84//84 126//126 124//124
f 83//83 123//123 207//207
f 89//89 211//211 97//97
f 96//96 210//210 219//219
f 95//95 218//218 223//223
f 93//93 221//221 228//228
f 94//94 229//229 233//233
f 98//98 234//234 102//102
f 110//110 237//237 242//242
f 109//109 240//240 248//248
f 108//108 247//247 257//257
f 114//114 260//260 264//264
f 115//115 265//265 267//267
f 118//118 270//270 120//120
f 116//116 148//148 278//278
f 113//113 276//276 282//282
f 112//112 281//281 290//290
f 111//111 288//288 238//238
f 121//121 271//271 206//206
f 140//140 198//198 295//295
f 138//138 294//294 146//146
f 145//145 293//293 301//301
f 144//144 299//299 153//153
f 151//151 296//296 306//306
f 149//149 304//304 279//279
f 156//156 310//310 170//170
f 158//158 316//316 319//319
f 160//160 320//320 326//326
f 162//162 329//329 331//331
f 164//164 333//333 336//336
f 165//165 337//337 174//174
f 169//169 309//309 340//340
f 166//166 339//339 343//343
f 163//163 342//342 350//350
f 161//161 349//349 356//356
f 159//159 355//355 317//317
f 173//173 334//334 328//328
f 172//172 327//327 195//195
f 171//171 194//194 182//182
f 175//175 183//183 178//178
f 189//189 323//323 361//361
f 187//187 360//360 365//365
f 188//188 366//366 369//369
f 190//190 372//372 374//374
f 191//191 376//376 200//200
f 197//197 375//375 382//382
f 196//196 381//381 292//292
f 205//205 269//269 390//390
f 203//203 385//385 397//397
f 202//202 396//396 213//213
f 208//208 399//399 409//409
f 209//209 410//410 217//217
f 212//212 394//394 401//401
f 216//216 408//408 222//222
f 220//220 406//406 227//227
f 226//226 403//403 414//414
f 224//224 411//411 415//415
f 225//225 420//420 232//232
f 231//231 419//419 426//426
f 236//236 285//285 432//432
f 235//235 431//431 241//241
f 239//239 428//428 246//246
f 245//245 427//427 440//440
f 244//244 439//439 447//447
f 243//243 446//446 256//256
f 254//254 453//453 455//455
f 255//255 457//457 460//460
f 258//258 461//461 464//464
f 259//259 465//465 261//261
f 253//253 445//445 469//469
f 252//252 468//468 475//475
f 251//251 472//472 479//479
f 250//250 477//477 482//482
f 249//249 481//481 450//450
f 263//263 463//463 388//388
f 266//266 389//389 268//268
f 262//262 466//466 462//462
f 277//277 302//302 487//487
f 274//274 483//483 491//491
f 273//273 490//490 498//498
f 272//272 496//496 287//287
f 275//275 289//289 280//280
f 286//286 494//494 502//502
f 284//284 501//501 508//508
f 283//283 507//507 430//430
f 291//291 380//380 300//300
f 298//298 377//377 512//512
f 297//297 511//511 307//307
f 305//305 509//509 519//519
f 303//303 517//517 488//488
f 311//311 526//526 532//532
f 313//313 534//534 324//324
f 314//314 325//325 318//318
f 315//315 354//354 538//538
f 312//312 537//537 527//527
f 330//330 335//335 332//332
f 322//322 533//533 545//545
f 321//321 544//544 359//359
f 345//345 549//549 555//555
f 346//346 556//556 562//562
f 347//347 563//563 567//567
f 348//348 571//571 352//352
f 351//351 570//570 574//574
f 353//353 577//577 536//536
f 357//357 543//543 583//583
f 358//358 585//585 363//363
f 362//362 584//584 516//516
f 364//364 518//518 367//367
f 368//368 520//520 510//510
f 370//370 513//513 378//378
f 371//371 379//379 373//373
f 383//383 591//591 395//395
f 387//387 458//458 452//452
f 386//386 451//451 595//595
f 384//384 594//594 592//592
f 393//393 590//590 598//598
f 391//391 597//597 604//604
f 392//392 605//605 400//400
f 398//398 603//603 407//407
f 405//405 599//599 610//610
f 404//404 609//609 616//616
f 402//402 615//615 413//413
f 412//412 612//612 416//416
f 418//418 620//620 422//422
f 417//417 614//614 618//618
f 423//423 621//621 624//624
f 424//424 625//625 627//627
f 425//425 628//628 632//632
f 429//429 506//506 441//441
f 437//437 639//639 442//442
f 438//438 504//504 645//645
f 436//436 641//641 652//652
f 435//435 651//651 658//658
f 433//433 656//656 663//663
f 434//434 664//664 637//637
f 443//443 640//640 473//473
f 444//444 474//474 467//467
f 454//454 459//459 456//456
f 448//448 480//480 476//476
f 448//448 476//476 665//665
f 448//448 665//665 830//830
f 448//448 830//830 935//935
f 448//448 935//935 932//932
f 448//448 932//932 929//929
f 448//448 929//929 939//939
f 448//448 939//939 1031//1031
f 448//448 1031//1031 1048//1048
f 448//448 1048//1048 1107//1107
f 448//448 1107//1107 1132//1132
f 449//449 1133//1133 1128//1128
f 448//448 1127//1127 1155//1155
f 448//448 1155//1155 1152//1152
f 448//448 1152//1152 1148//1148
f 448//448 1148//1148 1145//1145
f 448//448 1145//1145 1103//1103
f 448//448 1103//1103 1028//1028
f 448//448 1028//1028 920//920
f 448//448 920//920 793//793
f 448//448 793//793 786//786
f 448//448 786//786 626//626
f 448//448 626//626 622//622
f 448//448 622//622 606//606
f 448//448 606//606 783//783
f 448//448 783//783 586//586
f 449//449 587//587 593//593
f 471//471 638//638 669//669
f 470//470 668//668 478//478
f 486//486 515//515 675//675
f 485//485 670//670 680//680
f 484//484 679//679 493//493
f 489//489 689//689 497//497
f 492//492 678//678 690//690
f 495//495 687//687 503//503
f 499//499 686//686 644//644
f 500//500 646//646 505//505
f 514//514 580//580 674//674
f 524//524 695//695 530//530
f 525//525 535//535 576//576
f 521//521 575//575 702//702
f 522//522 704//704 706//706
f 523//523 708//708 692//692
f 528//528 694//694 713//713
f 529//529 714//714 716//716
f 531//531 718//718 541//541
f 539//539 717//717 723//723
f 540//540 725//725 727//727
f 542//542 728//728 582//582
f 547//547 731//731 735//735
f 548//548 736//736 554//554
f 552//552 741//741 743//743
f 553//553 745//745 561//561
f 550//550 734//734 751//751
f 551//551 752//752 740//740
f 560//560 744//744 742//742
f 558//558 739//739 756//756
f 557//557 755//755 760//760
f 559//559 762//762 764//764
f 564//564 767//767 769//769
f 565//565 771//771 773//773
f 566//566 774//774 568//568
f 569//569 777//777 573//573
f 572//572 776//776 701//701
f 581//581 726//726 724//724
f 579//579 721//721 782//782
f 578//578 781//781 673//673
f 588//588 785//785 601//601
f 589//589 602//602 596//596
f 600//600 784//784 611//611
f 608//608 623//623 619//619
f 607//607 617//617 613//613
f 630//630 787//787 790//790
f 629//629 789//789 633//633
f 634//634 792//792 795//795
f 635//635 796//796 800//800
f 636//636 662//662 667//667
f 643//643 685//685 806//806
f 642//642 803//803 654//654
f 648//648 813//813 817//817
f 650//650 819//819 657//657
f 653//653 802//802 823//823
f 649//649 822//822 829//829
f 647//647 828//828 812//812
f 655//655 818//818 661//661
f 659//659 816//816 832//832
f 660//660 833//833 666//666
f 672//672 778//778 839//839
f 671//671 838//838 681//681
f 677//677 836//836 847//847
f 676//676 846//846 688//688
f 684//684 841//841 851//851
f 683//683 850//850 857//857
f 682//682 856//856 805//805
f 691//691 707//707 862//862
f 693//693 864//864 710//710
f 700//700 775//775 772//772
f 699//699 770//770 768//768
f 697//697 766//766 869//869
f 696//696 868//868 873//873
f 698//698 875//875 859//859
f 703//703 861//861 705//705
f 709//709 863//863 879//879
f 711//711 881//881 720//720
f 712//712 722//722 715//715
f 719//719 880//880 780//780
f 730//730 883//883 993//993
f 730//730 993//993 1029//1029
f 730//730 1029//1029 1104//1104
f 730//730 1104//1104 1142//1142
f 730//730 1142//1142 1139//1139
f 730//730 1139//1139 1099//1099
f 730//730 1099//1099 1086//1086
f 730//730 1086//1086 1017//1017
f 730//730 1017//1017 1014//1014
f 730//730 1014//1014 999//999
f 730//730 999//999 996//996
f 730//730 996//996 900//900
f 730//730 900//900 897//897
f 730//730 897//897 886//886
f 730//730 886//886 732//732
f 733//733 888//888 750//750
f 737//737 749//749 894//894
f 738//738 895//895 753//753
f 746//746 887//887 898//898
f 747//747 899//899 902//902
f 748//748 903//903 892//892
f 754//754 896//896 759//759
f 761//761 910//910 763//763
f 758//758 893//893 919//919
f 757//757 918//918 907//907
f 765//765 911//911 866//866
f 779//779 878//878 840//840
f 788//788 794//794 791//791
f 798//798 924//924 928//928
f 797//797 927//927 801//801
f 804//804 854//854 825//825
f 808//808 931//931 933//933
f 809//809 934//934 936//936
f 811//811 937//937 814//814
f 810//810 826//826 943//943
f 807//807 940//940 930//930
f 815//815 938//938 831//831
f 821//821 944//944 827//827
f 824//824 853//853 953//953
f 820//820 950//950 942//942
f 837//837 876//876 959//959
f 835//835 957//957 965//965
f 834//834 964//964 845//845
f 844//844 961//961 975//975
f 843//843 974//974 982//982
f 842//842 981//981 852//852
f 849//849 954//954 855//855
f 848//848 980//980 952//952
f 860//860 960//960 877//877
f 858//858 874//874 958//958
f 867//867 987//987 871//871
f 865//865 909//909 984//984
f 870//870 986//986 991//991
f 872//872 992//992 956//956
f 885//885 923//923 995//995
f 884//884 926//926 922//922
f 889//889 901//901 997//997
f 890//890 998//998 1000//1000
f 891//891 1002//1002 914//914
f 905//905 917//917 1007//1007
f 904//904 1006//1006 1012//1012
f 906//906 1013//1013 972//972
f 908//908 973//973 983//983
f 912//912 1001//1001 1015//1015
f 913//913 1016//1016 1019//1019
f 915//915 1020//1020 1025//1025
f 916//916 1027//1027 1004//1004
f 921//921 1030//1030 994//994
f 941//941 949//949 1033//1033
f 951//951 979//979 1038//1038
f 946//946 1036//1036 1042//1042
f 945//945 1041//1041 1046//1046
f 947//947 1047//1047 1050//1050
f 948//948 1051//1051 1032//1032
f 955//955 990//990 963//963
f 962//962 988//988 976//976
f 977//977 989//989 985//985
f 968//968 1010//1010 1056//1056
f 966//966 1054//1054 1059//1059
f 967//967 1061//1061 1064//1064
f 969//969 1065//1065 1070//1070
f 970//970 1072//1072 1034//1034
f 971//971 1037//1037 978//978
f 1005//1005 1081//1081 1011//1011
f 1003//1003 1026//1026 1080//1080
f 1008//1008 1079//1079 1084//1084
f 1009//1009 1085//1085 1055//1055
f 1018//1018 1087//1087 1021//1021
f 1024//1024 1096//1096 1075//1075
f 1022//1022 1088//1088 1101//1101
f 1023//1023 1102//1102 1095//1095
f 1035//1035 1074//1074 1040//1040
f 1039//1039 1073//1073 1045//1045
f 1043//1043 1071//1071 1109//1109
f 1044//1044 1110//1110 1049//1049
f 1052//1052 1083//1083 1119//1119
f 1053//1053 1120//1120 1058//1058
f 1060//1060 1126//1126 1063//1063
f 1057//1057 1118//1118 1125//1125
f 1062//1062 1124//1124 1069//1069
f 1067//1067 1130//1130 1135//1135
f 1066//1066 1134//1134 1108//1108
f 1068//1068 1123//1123 1131//1131
f 1077//1077 1138//1138 1116//1116
f 1078//1078 1117//1117 1082//1082
f 1076//1076 1098//1098 1137//1137
f 1092//1092 1100//1100 1141//1141
f 1089//1089 1140//1140 1143//1143
f 1090//1090 1144//1144 1105//1105
f 1091//1091 1106//1106 1146//1146
f 1093//1093 1147//1147 1149//1149
f 1094//1094 1151//1151 1112//1112
f 1097//1097 1115//1115 1136//1136
f 1111//1111 1150//1150 1153//1153
f 1113//1113 1154//1154 1156//1156
f 1114//1114 1157//1157 1121//1121
f 1122//1122 1158//1158 1129//1129

