# https://github.com/mikedh/trimesh
v 1.15274119 -0.01301007 0.24789867
v 1.15274119 -0.01301007 0.24789867
v 1.15274119 -0.01301007 0.24789867
v 1.15274119 -0.01301007 0.24789867
v 1.15274119 -0.01301007 0.24789867
v 1.15274119 -0.01301007 0.24789867
v 1.15274119 -0.01301007 0.24789867
v 1.15274119 -0.01301007 0.24789867
v 1.14571714 -0.00012388 0.23627469
v 1.14571714 -0.00012388 0.23627469
v 1.14571714 -0.00012388 0.23627469
v 1.14571714 -0.00012388 0.23627469
v 1.14571714 -0.00012388 0.23627469
v 1.15269279 -0.00012388 0.24789867
v 1.15269279 -0.00012388 0.24789867
v 1.15269279 -0.00012388 0.24789867
v 1.15220845 -0.03205919 0.24789867
v 1.15220845 -0.03205919 0.24789867
v 1.15220845 -0.03205919 0.24789867
v 1.15220845 -0.03205919 0.24789867
v 1.14576566 -0.02253463 0.23627469
v 1.14576566 -0.02253463 0.23627469
v 1.14576566 -0.02253463 0.23627469
v 1.14576566 -0.02253463 0.23627469
v 1.14576566 -0.02253463 0.23627469
v 1.14576566 -0.02253463 0.23627469
v 1.13341296 -0.00012388 0.21736154
v 1.13341296 -0.00012388 0.21736154
v 1.13341296 -0.00012388 0.21736154
v 1.12106037 -0.02206775 0.19827890
v 1.12106037 -0.02206775 0.19827890
v 1.12106037 -0.02206775 0.19827890
v 1.12106037 -0.02206775 0.19827890
v 1.12106037 -0.02206775 0.19827890
v 1.12106037 -0.02206775 0.19827890
v 1.12106037 -0.02206775 0.19827890
v 1.02567840 -0.00012388 0.24789867
v 1.02567840 -0.00012388 0.24789867
v 1.02567840 -0.00012388 0.24789867
v 1.15143323 -0.04634603 0.24789867
v 1.15143323 -0.04634603 0.24789867
v 1.15143323 -0.04634603 0.24789867
v 1.15143323 -0.04634603 0.24789867
v 1.14087307 -0.06660911 0.23206103
v 1.14087307 -0.06660911 0.23206103
v 1.14087307 -0.06660911 0.23206103
v 1.14087307 -0.06660911 0.23206103
v 1.14087307 -0.06660911 0.23206103
v 1.14087307 -0.06660911 0.23206103
v 1.11984921 -0.06660911 0.19951394
v 1.11984921 -0.06660911 0.19951394
v 1.11984921 -0.06660911 0.19951394
v 1.11984921 -0.06660911 0.19951394
v 1.11984921 -0.06660911 0.19951394
v 1.12101185 -0.00012388 0.19835156
v 1.12101185 -0.00012388 0.19835156
v 1.12101185 -0.00012388 0.19835156
v 1.09785676 -0.06660911 0.17728314
v 1.09785676 -0.06660911 0.17728314
v 1.09785676 -0.06660911 0.17728314
v 1.09785676 -0.06660911 0.17728314
v 1.09785676 -0.06660911 0.17728314
v 1.09785676 -0.06660911 0.17728314
v 1.09785676 -0.06660911 0.17728314
v 1.09897089 -0.02206775 0.17604807
v 1.09897089 -0.02206775 0.17604807
v 1.09897089 -0.02206775 0.17604807
v 1.09897089 -0.02206775 0.17604807
v 1.09897089 -0.02206775 0.17604807
v 1.09897089 -0.02206775 0.17604807
v 1.09897089 -0.02206775 0.17604807
v 1.11006403 -0.00012388 0.18733299
v 1.11006403 -0.00012388 0.18733299
v 1.11006403 -0.00012388 0.18733299
v 0.65785992 -0.00012388 0.16188139
v 0.65785992 -0.00012388 0.16188139
v 0.65785992 -0.00012388 0.16188139
v 0.65785992 -0.79747933 0.24789867
v 0.65785992 -0.79747933 0.24789867
v 0.65785992 -0.79747933 0.24789867
v 1.14847839 -0.08285687 0.24789867
v 1.14847839 -0.08285687 0.24789867
v 1.14847839 -0.08285687 0.24789867
v 1.14847839 -0.08285687 0.24789867
v 1.14847839 -0.08285687 0.24789867
v 1.13728833 -0.11105707 0.23206103
v 1.13728833 -0.11105707 0.23206103
v 1.13728833 -0.11105707 0.23206103
v 1.13728833 -0.11105707 0.23206103
v 1.13728833 -0.11105707 0.23206103
v 1.13728833 -0.11105707 0.23206103
v 1.11810529 -0.11105707 0.20145127
v 1.11810529 -0.11105707 0.20145127
v 1.11810529 -0.11105707 0.20145127
v 1.11810529 -0.11105707 0.20145127
v 1.11810529 -0.11105707 0.20145127
v 1.11810529 -0.11105707 0.20145127
v 1.07562184 -0.06660911 0.15987140
v 1.07562184 -0.06660911 0.15987140
v 1.07562184 -0.06660911 0.15987140
v 1.07562184 -0.06660911 0.15987140
v 1.07562184 -0.06660911 0.15987140
v 1.09587061 -0.11105707 0.17922044
v 1.09587061 -0.11105707 0.17922044
v 1.09587061 -0.11105707 0.17922044
v 1.09587061 -0.11105707 0.17922044
v 1.09587061 -0.11105707 0.17922044
v 1.09587061 -0.11105707 0.17922044
v 1.09587061 -0.11105707 0.17922044
v 1.07363582 -0.11105707 0.16113067
v 1.07363582 -0.11105707 0.16113067
v 1.07363582 -0.11105707 0.16113067
v 1.07363582 -0.11105707 0.16113067
v 1.07363582 -0.11105707 0.16113067
v 1.07363582 -0.11105707 0.16113067
v 1.07363582 -0.11105707 0.16113067
v 1.07673609 -0.02206775 0.15916911
v 1.07673609 -0.02206775 0.15916911
v 1.07673609 -0.02206775 0.15916911
v 1.07673609 -0.02206775 0.15916911
v 1.07673609 -0.02206775 0.15916911
v 1.07673609 -0.02206775 0.15916911
v 1.07663918 -0.00012388 0.15921754
v 1.07663918 -0.00012388 0.15921754
v 1.07663918 -0.00012388 0.15921754
v 1.07663918 -0.00012388 0.15921754
v 1.09887397 -0.00012388 0.17612070
v 1.09887397 -0.00012388 0.17612070
v 1.09887397 -0.00012388 0.17612070
v 0.65785992 -0.00012388 0.03641534
v 0.65785992 -0.00012388 0.03641534
v 0.65785992 -0.00012388 0.03641534
v 0.65785992 -0.95388764 0.24789867
v 0.65785992 -0.95388764 0.24789867
v 0.65785992 -0.95388764 0.24789867
v 1.14402163 -0.13141346 0.24789867
v 1.14402163 -0.13141346 0.24789867
v 1.14402163 -0.13141346 0.24789867
v 1.14402163 -0.13141346 0.24789867
v 1.13326764 -0.15550503 0.23206103
v 1.13326764 -0.15550503 0.23206103
v 1.13326764 -0.15550503 0.23206103
v 1.13326764 -0.15550503 0.23206103
v 1.13326764 -0.15550503 0.23206103
v 1.13326764 -0.15550503 0.23206103
v 1.13326764 -0.15550503 0.23206103
v 1.11602235 -0.15550503 0.20411509
v 1.11602235 -0.15550503 0.20411509
v 1.11602235 -0.15550503 0.20411509
v 1.11602235 -0.15550503 0.20411509
v 1.11602235 -0.15550503 0.20411509
v 1.11602235 -0.15550503 0.20411509
v 0.82038206 -0.06660911 0.01663035
v 0.82038206 -0.06660911 0.01663035
v 0.82038206 -0.06660911 0.01663035
v 0.82038206 -0.06660911 0.01663035
v 0.82038206 -0.06660911 0.01663035
v 0.82038206 -0.06660911 0.01663035
v 0.82038206 -0.06660911 0.01663035
v 0.82038206 -0.06660911 0.01663035
v 0.82038206 -0.06660911 0.01663035
v 0.82038206 -0.06660911 0.01663035
v 1.09340000 -0.15550503 0.18188429
v 1.09340000 -0.15550503 0.18188429
v 1.09340000 -0.15550503 0.18188429
v 1.09340000 -0.15550503 0.18188429
v 1.09340000 -0.15550503 0.18188429
v 1.06893694 -0.18716021 0.16420618
v 1.06893694 -0.18716021 0.16420618
v 1.06893694 -0.18716021 0.16420618
v 1.06893694 -0.18716021 0.16420618
v 1.06893694 -0.18716021 0.16420618
v 1.06893694 -0.18716021 0.16420618
v 1.07116520 -0.15550503 0.16272897
v 1.07116520 -0.15550503 0.16272897
v 1.07116520 -0.15550503 0.16272897
v 1.07116520 -0.15550503 0.16272897
v 0.81786311 -0.11105707 0.01779276
v 0.81786311 -0.11105707 0.01779276
v 0.81786311 -0.11105707 0.01779276
v 0.81786311 -0.11105707 0.01779276
v 0.81786311 -0.11105707 0.01779276
v 0.81786311 -0.11105707 0.01779276
v 1.04495823 -0.15550503 0.14790842
v 1.04495823 -0.15550503 0.14790842
v 1.04495823 -0.15550503 0.14790842
v 1.04495823 -0.15550503 0.14790842
v 1.04495823 -0.15550503 0.14790842
v 1.04495823 -0.15550503 0.14790842
v 0.82663107 -0.01842600 0.01936686
v 0.82663107 -0.01842600 0.01936686
v 0.82663107 -0.01842600 0.01936686
v 0.82667953 -0.00012388 0.01934266
v 0.82667953 -0.00012388 0.01934266
v 0.82667953 -0.00012388 0.01934266
v 0.82667953 -0.00012388 0.01934266
v 0.82667953 -0.00012388 0.01934266
v 0.77818924 -0.00012388 0.00151926
v 0.77818924 -0.00012388 0.00151926
v 0.77818924 -0.00012388 0.00151926
v 0.77818924 -0.00012388 0.00151926
v 0.77818924 -0.00012388 0.00151926
v 0.77818924 -0.00012388 0.00151926
v 0.77818924 -0.00012388 0.00151926
v 0.65785992 -0.42228621 0.00328702
v 0.65785992 -0.42228621 0.00328702
v 0.65785992 -0.42228621 0.00328702
v 0.65785992 -0.42228621 0.00328702
v 0.65785992 -0.94931209 0.23903540
v 0.65785992 -0.94931209 0.23903540
v 0.65785992 -0.94931209 0.23903540
v 0.65785992 -0.94931209 0.23903540
v 0.67767262 -0.94090807 0.24789867
v 0.67767262 -0.94090807 0.24789867
v 0.67767262 -0.94090807 0.24789867
v 0.67767262 -0.94090807 0.24789867
v 1.14169645 -0.15550503 0.24789867
v 1.14169645 -0.15550503 0.24789867
v 1.14169645 -0.15550503 0.24789867
v 1.14169645 -0.15550503 0.24789867
v 1.14169645 -0.15550503 0.24789867
v 1.11374557 -0.18744034 0.20714217
v 1.11374557 -0.18744034 0.20714217
v 1.11374557 -0.18744034 0.20714217
v 1.11374557 -0.18744034 0.20714217
v 1.11374557 -0.18744034 0.20714217
v 1.11374557 -0.18744034 0.20714217
v 1.11374557 -0.18744034 0.20714217
v 1.11374557 -0.18744034 0.20714217
v 1.12396681 -0.20135365 0.22862226
v 1.12396681 -0.20135365 0.22862226
v 1.12396681 -0.20135365 0.22862226
v 1.12396681 -0.20135365 0.22862226
v 1.12396681 -0.20135365 0.22862226
v 1.12396681 -0.20135365 0.22862226
v 1.12396681 -0.20135365 0.22862226
v 1.12396681 -0.20135365 0.22862226
v 0.77818924 -0.15550503 0.00268161
v 0.77818924 -0.15550503 0.00268161
v 0.77818924 -0.15550503 0.00268161
v 0.77818924 -0.15550503 0.00268161
v 0.77818924 -0.15550503 0.00268161
v 0.77818924 -0.11105707 0.00130129
v 0.77818924 -0.11105707 0.00130129
v 0.77818924 -0.11105707 0.00130129
v 0.77818924 -0.11105707 0.00130129
v 0.77818924 -0.11105707 0.00130129
v 0.80488074 -0.00012388 0.01123005
v 0.80488074 -0.00012388 0.01123005
v 0.80488074 -0.00012388 0.01123005
v 1.06612730 -0.21685444 0.16609505
v 1.06612730 -0.21685444 0.16609505
v 1.06612730 -0.21685444 0.16609505
v 1.06612730 -0.21685444 0.16609505
v 1.06612730 -0.21685444 0.16609505
v 1.06612730 -0.21685444 0.16609505
v 1.06612730 -0.21685444 0.16609505
v 1.06612730 -0.21685444 0.16609505
v 1.04878509 -0.20116691 0.15415630
v 1.04878509 -0.20116691 0.15415630
v 1.04878509 -0.20116691 0.15415630
v 1.04878509 -0.20116691 0.15415630
v 1.04878509 -0.20116691 0.15415630
v 0.81442374 -0.15550503 0.01987538
v 0.81442374 -0.15550503 0.01987538
v 0.81442374 -0.15550503 0.01987538
v 0.81442374 -0.15550503 0.01987538
v 0.81442374 -0.15550503 0.01987538
v 0.77818924 -0.19995299 0.00590241
v 0.77818924 -0.19995299 0.00590241
v 0.77818924 -0.19995299 0.00590241
v 0.77818924 -0.19995299 0.00590241
v 0.77818924 -0.19995299 0.00590241
v 0.77818924 -0.19995299 0.00590241
v 0.77818924 -0.19995299 0.00590241
v 0.77818924 -0.19995299 0.00590241
v 0.77818924 -0.19995299 0.00590241
v 0.77818924 -0.19995299 0.00590241
v 0.73371971 -0.24440096 0.00050211
v 0.73371971 -0.24440096 0.00050211
v 0.73371971 -0.24440096 0.00050211
v 0.73371971 -0.24440096 0.00050211
v 0.68925017 -0.37783822 0.00110757
v 0.68925017 -0.37783822 0.00110757
v 0.68925017 -0.37783822 0.00110757
v 0.68925017 -0.37783822 0.00110757
v 0.68925017 -0.37783822 0.00110757
v 0.68925017 -0.37783822 0.00110757
v 0.68925017 -0.37783822 0.00110757
v 0.65785992 -0.46645403 0.00674999
v 0.65785992 -0.46645403 0.00674999
v 0.65785992 -0.46645403 0.00674999
v 0.65785992 -0.46645403 0.00674999
v 0.65785992 -0.94856513 0.23770347
v 0.65785992 -0.94856513 0.23770347
v 0.65785992 -0.94856513 0.23770347
v 0.67602551 -0.93997431 0.24409664
v 0.67602551 -0.93997431 0.24409664
v 0.67602551 -0.93997431 0.24409664
v 0.67602551 -0.93997431 0.24409664
v 0.67602551 -0.93997431 0.24409664
v 0.67602551 -0.93997431 0.24409664
v 0.67602551 -0.93997431 0.24409664
v 0.67602551 -0.93997431 0.24409664
v 0.68212926 -0.93782663 0.24789867
v 0.68212926 -0.93782663 0.24789867
v 0.68212926 -0.93782663 0.24789867
v 1.13811183 -0.17744888 0.24789867
v 1.13811183 -0.17744888 0.24789867
v 1.13811183 -0.17744888 0.24789867
v 1.11059690 -0.21704118 0.21150115
v 1.11059690 -0.21704118 0.21150115
v 1.11059690 -0.21704118 0.21150115
v 1.11059690 -0.21704118 0.21150115
v 1.11059690 -0.21704118 0.21150115
v 1.11059690 -0.21704118 0.21150115
v 1.07988477 -0.28894231 0.19534868
v 1.07988477 -0.28894231 0.19534868
v 1.07988477 -0.28894231 0.19534868
v 1.07988477 -0.28894231 0.19534868
v 1.07988477 -0.28894231 0.19534868
v 1.07988477 -0.28894231 0.19534868
v 1.08526182 -0.24440096 0.19077176
v 1.08526182 -0.24440096 0.19077176
v 1.08526182 -0.24440096 0.19077176
v 1.08526182 -0.24440096 0.19077176
v 1.13380051 -0.20182055 0.24789867
v 1.13380051 -0.20182055 0.24789867
v 1.13380051 -0.20182055 0.24789867
v 1.12726080 -0.23459627 0.24789867
v 1.12726080 -0.23459627 0.24789867
v 1.12726080 -0.23459627 0.24789867
v 1.12726080 -0.23459627 0.24789867
v 1.12052739 -0.24440096 0.23874480
v 1.12052739 -0.24440096 0.23874480
v 1.12052739 -0.24440096 0.23874480
v 1.12052739 -0.24440096 0.23874480
v 1.12052739 -0.24440096 0.23874480
v 1.12052739 -0.24440096 0.23874480
v 1.12052739 -0.24440096 0.23874480
v 1.12052739 -0.24440096 0.23874480
v 0.73371971 -0.28894231 0.00127703
v 0.73371971 -0.28894231 0.00127703
v 0.73371971 -0.28894231 0.00127703
v 0.73371971 -0.28894231 0.00127703
v 0.73371971 -0.28894231 0.00127703
v 0.73371971 -0.28894231 0.00127703
v 1.06278479 -0.24440096 0.16854092
v 1.06278479 -0.24440096 0.16854092
v 1.06278479 -0.24440096 0.16854092
v 1.06278479 -0.24440096 0.16854092
v 1.06278479 -0.24440096 0.16854092
v 1.06278479 -0.24440096 0.16854092
v 1.03483391 -0.28894231 0.15815204
v 1.03483391 -0.28894231 0.15815204
v 1.03483391 -0.28894231 0.15815204
v 1.03483391 -0.28894231 0.15815204
v 1.03483391 -0.28894231 0.15815204
v 1.04055011 -0.24440096 0.15478593
v 1.04055011 -0.24440096 0.15478593
v 1.04055011 -0.24440096 0.15478593
v 1.04055011 -0.24440096 0.15478593
v 1.04055011 -0.24440096 0.15478593
v 1.02858496 -0.33339027 0.16183296
v 1.02858496 -0.33339027 0.16183296
v 1.02858496 -0.33339027 0.16183296
v 1.02858496 -0.33339027 0.16183296
v 1.02858496 -0.33339027 0.16183296
v 1.02858496 -0.33339027 0.16183296
v 1.02858496 -0.33339027 0.16183296
v 1.02858496 -0.33339027 0.16183296
v 0.78259748 -0.24878974 0.01621866
v 0.78259748 -0.24878974 0.01621866
v 0.78259748 -0.24878974 0.01621866
v 0.77407175 -0.28894231 0.01820445
v 0.77407175 -0.28894231 0.01820445
v 0.77407175 -0.28894231 0.01820445
v 0.77407175 -0.28894231 0.01820445
v 0.77407175 -0.28894231 0.01820445
v 0.77407175 -0.28894231 0.01820445
v 0.77407175 -0.28894231 0.01820445
v 0.73371971 -0.33339027 0.00616878
v 0.73371971 -0.33339027 0.00616878
v 0.73371971 -0.33339027 0.00616878
v 0.73371971 -0.33339027 0.00616878
v 0.73371971 -0.33339027 0.00616878
v 0.73371971 -0.33339027 0.00616878
v 0.73371971 -0.33339027 0.00616878
v 0.73371971 -0.33339027 0.00616878
v 0.68925017 -0.42228621 0.00604773
v 0.68925017 -0.42228621 0.00604773
v 0.68925017 -0.42228621 0.00604773
v 0.68925017 -0.42228621 0.00604773
v 0.68925017 -0.42228621 0.00604773
v 0.68925017 -0.42228621 0.00604773
v 0.68925017 -0.42228621 0.00604773
v 0.68925017 -0.42228621 0.00604773
v 0.68925017 -0.42228621 0.00604773
v 0.68925017 -0.42228621 0.00604773
v 0.65785992 -0.50950134 0.01890671
v 0.65785992 -0.50950134 0.01890671
v 0.65785992 -0.50950134 0.01890671
v 0.65785992 -0.50950134 0.01890671
v 0.65785992 -0.50950134 0.01890671
v 0.65785992 -0.50950134 0.01890671
v 0.65785992 -0.50950134 0.01890671
v 0.65785992 -0.50950134 0.01890671
v 0.65785992 -0.50950134 0.01890671
v 0.65785992 -0.50950134 0.01890671
v 0.65785992 -0.93633252 0.21888721
v 0.65785992 -0.93633252 0.21888721
v 0.65785992 -0.93633252 0.21888721
v 0.65785992 -0.93633252 0.21888721
v 0.66236496 -0.93026298 0.21445554
v 0.66236496 -0.93026298 0.21445554
v 0.66236496 -0.93026298 0.21445554
v 0.66236496 -0.93026298 0.21445554
v 0.66236496 -0.93026298 0.21445554
v 0.66236496 -0.93026298 0.21445554
v 0.69021899 -0.92055166 0.23039007
v 0.69021899 -0.92055166 0.23039007
v 0.69021899 -0.92055166 0.23039007
v 0.69021899 -0.92055166 0.23039007
v 0.74553955 -0.89151114 0.24789867
v 0.74553955 -0.89151114 0.24789867
v 0.74553955 -0.89151114 0.24789867
v 0.74553955 -0.89151114 0.24789867
v 0.74553955 -0.89151114 0.24789867
v 0.74553955 -0.89151114 0.24789867
v 1.10749662 -0.24440096 0.21651396
v 1.10749662 -0.24440096 0.21651396
v 1.10749662 -0.24440096 0.21651396
v 1.10749662 -0.24440096 0.21651396
v 1.10749662 -0.24440096 0.21651396
v 1.07397485 -0.33339027 0.20142704
v 1.07397485 -0.33339027 0.20142704
v 1.07397485 -0.33339027 0.20142704
v 1.07397485 -0.33339027 0.20142704
v 1.07397485 -0.33339027 0.20142704
v 1.07397485 -0.33339027 0.20142704
v 1.05706871 -0.28894231 0.17311788
v 1.05706871 -0.28894231 0.17311788
v 1.05706871 -0.28894231 0.17311788
v 1.05706871 -0.28894231 0.17311788
v 1.05706871 -0.28894231 0.17311788
v 1.05706871 -0.28894231 0.17311788
v 1.12508106 -0.24440096 0.24789867
v 1.12508106 -0.24440096 0.24789867
v 1.12508106 -0.24440096 0.24789867
v 1.11519885 -0.28772840 0.24789867
v 1.11519885 -0.28772840 0.24789867
v 1.11519885 -0.28772840 0.24789867
v 1.11519885 -0.28772840 0.24789867
v 1.11500514 -0.28856879 0.24789867
v 1.11500514 -0.28856879 0.24789867
v 1.11500514 -0.28856879 0.24789867
v 1.11500514 -0.28856879 0.24789867
v 1.11500514 -0.28856879 0.24789867
v 1.10211957 -0.28894231 0.22591001
v 1.10211957 -0.28894231 0.22591001
v 1.10211957 -0.28894231 0.22591001
v 1.10211957 -0.28894231 0.22591001
v 1.10211957 -0.28894231 0.22591001
v 1.10211957 -0.28894231 0.22591001
v 1.10211957 -0.28894231 0.22591001
v 1.02441895 -0.36046991 0.16427884
v 1.02441895 -0.36046991 0.16427884
v 1.02441895 -0.36046991 0.16427884
v 1.02441895 -0.36046991 0.16427884
v 1.02441895 -0.36046991 0.16427884
v 1.02441895 -0.36046991 0.16427884
v 1.02441895 -0.36046991 0.16427884
v 1.02441895 -0.36046991 0.16427884
v 1.00048864 -0.33339027 0.14679447
v 1.00048864 -0.33339027 0.14679447
v 1.00048864 -0.33339027 0.14679447
v 1.00266862 -0.37634417 0.15563351
v 1.00266862 -0.37634417 0.15563351
v 1.00266862 -0.37634417 0.15563351
v 1.00266862 -0.37634417 0.15563351
v 0.99002528 -0.42228621 0.15873322
v 0.99002528 -0.42228621 0.15873322
v 0.99002528 -0.42228621 0.15873322
v 0.99002528 -0.42228621 0.15873322
v 0.99002528 -0.42228621 0.15873322
v 0.99002528 -0.42228621 0.15873322
v 0.99002528 -0.42228621 0.15873322
v 0.73589963 -0.37793162 0.01769590
v 0.73589963 -0.37793162 0.01769590
v 0.73589963 -0.37793162 0.01769590
v 0.73589963 -0.37793162 0.01769590
v 0.73589963 -0.37793162 0.01769590
v 0.68992835 -0.46552023 0.01929420
v 0.68992835 -0.46552023 0.01929420
v 0.68992835 -0.46552023 0.01929420
v 0.68992835 -0.46552023 0.01929420
v 0.68992835 -0.46552023 0.01929420
v 0.94691211 -0.51118219 0.15817624
v 0.94691211 -0.51118219 0.15817624
v 0.94691211 -0.51118219 0.15817624
v 0.94691211 -0.51118219 0.15817624
v 0.94691211 -0.51118219 0.15817624
v 0.94691211 -0.51118219 0.15817624
v 0.93887073 -0.54274392 0.16251102
v 0.93887073 -0.54274392 0.16251102
v 0.93887073 -0.54274392 0.16251102
v 0.93887073 -0.54274392 0.16251102
v 0.93887073 -0.54274392 0.16251102
v 0.91416538 -0.55684406 0.15405944
v 0.91416538 -0.55684406 0.15405944
v 0.91416538 -0.55684406 0.15405944
v 0.91416538 -0.55684406 0.15405944
v 0.89982665 -0.60007811 0.15991983
v 0.89982665 -0.60007811 0.15991983
v 0.89982665 -0.60007811 0.15991983
v 0.89982665 -0.60007811 0.15991983
v 0.89982665 -0.60007811 0.15991983
v 0.89982665 -0.60007811 0.15991983
v 0.86659557 -0.64209825 0.15771613
v 0.86659557 -0.64209825 0.15771613
v 0.86659557 -0.64209825 0.15771613
v 0.86659557 -0.64209825 0.15771613
v 0.86659557 -0.64209825 0.15771613
v 0.85143328 -0.67515403 0.16205090
v 0.85143328 -0.67515403 0.16205090
v 0.85143328 -0.67515403 0.16205090
v 0.85143328 -0.67515403 0.16205090
v 0.85143328 -0.67515403 0.16205090
v 0.85143328 -0.67515403 0.16205090
v 0.85143328 -0.67515403 0.16205090
v 0.82396674 -0.68962765 0.15488279
v 0.82396674 -0.68962765 0.15488279
v 0.82396674 -0.68962765 0.15488279
v 0.82396674 -0.68962765 0.15488279
v 0.78065979 -0.73566306 0.15296969
v 0.78065979 -0.73566306 0.15296969
v 0.78065979 -0.73566306 0.15296969
v 0.78065979 -0.73566306 0.15296969
v 0.78065979 -0.73566306 0.15296969
v 0.78065979 -0.73566306 0.15296969
v 0.73144299 -0.73146105 0.13124743
v 0.73144299 -0.73146105 0.13124743
v 0.73144299 -0.73146105 0.13124743
v 0.73144299 -0.73146105 0.13124743
v 0.68721563 -0.77572227 0.13107789
v 0.68721563 -0.77572227 0.13107789
v 0.68721563 -0.77572227 0.13107789
v 0.68721563 -0.77572227 0.13107789
v 0.68721563 -0.77572227 0.13107789
v 0.68721563 -0.77572227 0.13107789
v 0.65785992 -0.78767467 0.12558073
v 0.65785992 -0.78767467 0.12558073
v 0.65785992 -0.78767467 0.12558073
v 0.65785992 -0.93185043 0.21259087
v 0.65785992 -0.93185043 0.21259087
v 0.65785992 -0.93185043 0.21259087
v 0.65785992 -0.93185043 0.21259087
v 0.65785992 -0.93185043 0.21259087
v 0.71216315 -0.88964349 0.20929745
v 0.71216315 -0.88964349 0.20929745
v 0.71216315 -0.88964349 0.20929745
v 0.71216315 -0.88964349 0.20929745
v 0.71216315 -0.88964349 0.20929745
v 0.71216315 -0.88964349 0.20929745
v 0.71216315 -0.88964349 0.20929745
v 0.71216315 -0.88964349 0.20929745
v 0.71216315 -0.88964349 0.20929745
v 0.71216315 -0.88964349 0.20929745
v 0.72282034 -0.89748734 0.23206103
v 0.72282034 -0.89748734 0.23206103
v 0.72282034 -0.89748734 0.23206103
v 0.72282034 -0.89748734 0.23206103
v 0.75236982 -0.88618857 0.24789867
v 0.75236982 -0.88618857 0.24789867
v 0.75236982 -0.88618857 0.24789867
v 0.75236982 -0.88618857 0.24789867
v 0.75236982 -0.88618857 0.24789867
v 0.75236982 -0.88618857 0.24789867
v 1.06971204 -0.36317787 0.20660940
v 1.06971204 -0.36317787 0.20660940
v 1.06971204 -0.36317787 0.20660940
v 1.06971204 -0.36317787 0.20660940
v 1.06971204 -0.36317787 0.20660940
v 1.06971204 -0.36317787 0.20660940
v 1.06971204 -0.36317787 0.20660940
v 1.06971204 -0.36317787 0.20660940
v 1.06971204 -0.36317787 0.20660940
v 1.05081964 -0.33339027 0.17919624
v 1.05081964 -0.33339027 0.17919624
v 1.05081964 -0.33339027 0.17919624
v 1.05081964 -0.33339027 0.17919624
v 1.05081964 -0.33339027 0.17919624
v 1.05081964 -0.33339027 0.17919624
v 1.11490822 -0.28894231 0.24789867
v 1.11490822 -0.28894231 0.24789867
v 1.11490822 -0.28894231 0.24789867
v 1.11490822 -0.28894231 0.24789867
v 1.10706067 -0.31807625 0.24789867
v 1.10706067 -0.31807625 0.24789867
v 1.10706067 -0.31807625 0.24789867
v 1.10706067 -0.31807625 0.24789867
v 1.10706067 -0.31807625 0.24789867
v 1.09708154 -0.32965514 0.23612937
v 1.09708154 -0.32965514 0.23612937
v 1.09708154 -0.32965514 0.23612937
v 1.09708154 -0.32965514 0.23612937
v 1.01894498 -0.39016417 0.16788709
v 1.01894498 -0.39016417 0.16788709
v 1.01894498 -0.39016417 0.16788709
v 1.01894498 -0.39016417 0.16788709
v 1.01894498 -0.39016417 0.16788709
v 1.01894498 -0.39016417 0.16788709
v 1.01894498 -0.39016417 0.16788709
v 1.01894498 -0.39016417 0.16788709
v 0.98285586 -0.45431489 0.16270477
v 0.98285586 -0.45431489 0.16270477
v 0.98285586 -0.45431489 0.16270477
v 0.98285586 -0.45431489 0.16270477
v 0.98285586 -0.45431489 0.16270477
v 0.95902252 -0.46822822 0.15376884
v 0.95902252 -0.46822822 0.15376884
v 0.95902252 -0.46822822 0.15376884
v 0.95902252 -0.46822822 0.15376884
v 0.86712843 -0.60007811 0.14444545
v 0.86712843 -0.60007811 0.14444545
v 0.86712843 -0.60007811 0.14444545
v 0.86712843 -0.60007811 0.14444545
v 0.97583181 -0.48391575 0.16687000
v 0.97583181 -0.48391575 0.16687000
v 0.97583181 -0.48391575 0.16687000
v 0.97583181 -0.48391575 0.16687000
v 0.97583181 -0.48391575 0.16687000
v 0.97583181 -0.48391575 0.16687000
v 0.97583181 -0.48391575 0.16687000
v 0.93068409 -0.57243818 0.16723323
v 0.93068409 -0.57243818 0.16723323
v 0.93068409 -0.57243818 0.16723323
v 0.93068409 -0.57243818 0.16723323
v 0.93068409 -0.57243818 0.16723323
v 0.93068409 -0.57243818 0.16723323
v 0.93068409 -0.57243818 0.16723323
v 0.93068409 -0.57243818 0.16723323
v 0.93068409 -0.57243818 0.16723323
v 0.89159155 -0.62566370 0.16415775
v 0.89159155 -0.62566370 0.16415775
v 0.89159155 -0.62566370 0.16415775
v 0.89159155 -0.62566370 0.16415775
v 0.89159155 -0.62566370 0.16415775
v 0.89159155 -0.62566370 0.16415775
v 0.89159155 -0.62566370 0.16415775
v 0.88107967 -0.65526456 0.17059934
v 0.88107967 -0.65526456 0.17059934
v 0.88107967 -0.65526456 0.17059934
v 0.88107967 -0.65526456 0.17059934
v 0.88107967 -0.65526456 0.17059934
v 0.88107967 -0.65526456 0.17059934
v 0.88107967 -0.65526456 0.17059934
v 0.83961350 -0.70484823 0.16834718
v 0.83961350 -0.70484823 0.16834718
v 0.83961350 -0.70484823 0.16834718
v 0.83961350 -0.70484823 0.16834718
v 0.83961350 -0.70484823 0.16834718
v 0.83961350 -0.70484823 0.16834718
v 0.83961350 -0.70484823 0.16834718
v 0.80996710 -0.72231001 0.16076741
v 0.80996710 -0.72231001 0.16076741
v 0.80996710 -0.72231001 0.16076741
v 0.80996710 -0.72231001 0.16076741
v 0.80996710 -0.72231001 0.16076741
v 0.80996710 -0.72231001 0.16076741
v 0.76748365 -0.76797187 0.15991983
v 0.76748365 -0.76797187 0.15991983
v 0.76748365 -0.76797187 0.15991983
v 0.76748365 -0.76797187 0.15991983
v 0.76748365 -0.76797187 0.15991983
v 0.76748365 -0.76797187 0.15991983
v 0.73662621 -0.78085804 0.15209788
v 0.73662621 -0.78085804 0.15209788
v 0.73662621 -0.78085804 0.15209788
v 0.73662621 -0.78085804 0.15209788
v 0.73662621 -0.78085804 0.15209788
v 0.73662621 -0.78085804 0.15209788
v 0.69186604 -0.82530606 0.15277594
v 0.69186604 -0.82530606 0.15277594
v 0.69186604 -0.82530606 0.15277594
v 0.69186604 -0.82530606 0.15277594
v 0.69186604 -0.82530606 0.15277594
v 0.69186604 -0.82530606 0.15277594
v 0.69186604 -0.82530606 0.15277594
v 0.69186604 -0.82530606 0.15277594
v 0.65785992 -0.82110399 0.13897252
v 0.65785992 -0.82110399 0.13897252
v 0.65785992 -0.82110399 0.13897252
v 0.65785992 -0.82110399 0.13897252
v 0.65785992 -0.90841258 0.18987572
v 0.65785992 -0.90841258 0.18987572
v 0.65785992 -0.90841258 0.18987572
v 0.65785992 -0.90841258 0.18987572
v 0.68925017 -0.89814097 0.20116067
v 0.68925017 -0.89814097 0.20116067
v 0.68925017 -0.89814097 0.20116067
v 0.68925017 -0.89814097 0.20116067
v 0.68925017 -0.89814097 0.20116067
v 0.74505514 -0.88021237 0.23206103
v 0.74505514 -0.88021237 0.23206103
v 0.74505514 -0.88021237 0.23206103
v 0.69186604 -0.86788642 0.17706519
v 0.69186604 -0.86788642 0.17706519
v 0.69186604 -0.86788642 0.17706519
v 0.69186604 -0.86788642 0.17706519
v 0.69186604 -0.86788642 0.17706519
v 0.72969902 -0.86433810 0.19968346
v 0.72969902 -0.86433810 0.19968346
v 0.72969902 -0.86433810 0.19968346
v 0.72969902 -0.86433810 0.19968346
v 0.75920010 -0.84790355 0.20680314
v 0.75920010 -0.84790355 0.20680314
v 0.75920010 -0.84790355 0.20680314
v 0.75920010 -0.84790355 0.20680314
v 0.75920010 -0.84790355 0.20680314
v 0.75920010 -0.84790355 0.20680314
v 0.75920010 -0.84790355 0.20680314
v 0.75920010 -0.84790355 0.20680314
v 0.75920010 -0.84790355 0.20680314
v 0.75920010 -0.84790355 0.20680314
v 0.77567029 -0.85528040 0.23649266
v 0.77567029 -0.85528040 0.23649266
v 0.77567029 -0.85528040 0.23649266
v 0.77567029 -0.85528040 0.23649266
v 0.77567029 -0.85528040 0.23649266
v 0.79155928 -0.84846377 0.24789867
v 0.79155928 -0.84846377 0.24789867
v 0.79155928 -0.84846377 0.24789867
v 1.07935190 -0.37793162 0.22985733
v 1.07935190 -0.37793162 0.22985733
v 1.07935190 -0.37793162 0.22985733
v 1.07935190 -0.37793162 0.22985733
v 1.07935190 -0.37793162 0.22985733
v 1.07935190 -0.37793162 0.22985733
v 1.07935190 -0.37793162 0.22985733
v 1.06462562 -0.39277872 0.21355957
v 1.06462562 -0.39277872 0.21355957
v 1.06462562 -0.39277872 0.21355957
v 1.06462562 -0.39277872 0.21355957
v 1.06462562 -0.39277872 0.21355957
v 1.06462562 -0.39277872 0.21355957
v 1.06462562 -0.39277872 0.21355957
v 1.03638399 -0.42228621 0.19534868
v 1.03638399 -0.42228621 0.19534868
v 1.03638399 -0.42228621 0.19534868
v 1.03638399 -0.42228621 0.19534868
v 1.03638399 -0.42228621 0.19534868
v 1.03638399 -0.42228621 0.19534868
v 1.04452229 -0.37662432 0.18726033
v 1.04452229 -0.37662432 0.18726033
v 1.04452229 -0.37662432 0.18726033
v 1.04452229 -0.37662432 0.18726033
v 1.09504700 -0.35822886 0.24789867
v 1.09504700 -0.35822886 0.24789867
v 1.09504700 -0.35822886 0.24789867
v 1.01226008 -0.42228621 0.17311788
v 1.01226008 -0.42228621 0.17311788
v 1.01226008 -0.42228621 0.17311788
v 1.01226008 -0.42228621 0.17311788
v 1.01226008 -0.42228621 0.17311788
v 1.01226008 -0.42228621 0.17311788
v 0.96914685 -0.51118219 0.17185861
v 0.96914685 -0.51118219 0.17185861
v 0.96914685 -0.51118219 0.17185861
v 0.96914685 -0.51118219 0.17185861
v 0.96914685 -0.51118219 0.17185861
v 0.96914685 -0.51118219 0.17185861
v 0.95824748 -0.55973876 0.18471760
v 0.95824748 -0.55973876 0.18471760
v 0.95824748 -0.55973876 0.18471760
v 0.95824748 -0.55973876 0.18471760
v 0.94802618 -0.60007811 0.19614783
v 0.94802618 -0.60007811 0.19614783
v 0.94802618 -0.60007811 0.19614783
v 0.94802618 -0.60007811 0.19614783
v 0.94802618 -0.60007811 0.19614783
v 0.94802618 -0.60007811 0.19614783
v 0.92201298 -0.60007811 0.17389283
v 0.92201298 -0.60007811 0.17389283
v 0.92201298 -0.60007811 0.17389283
v 0.92201298 -0.60007811 0.17389283
v 0.92201298 -0.60007811 0.17389283
v 0.92201298 -0.60007811 0.17389283
v 0.91014469 -0.64247173 0.18755093
v 0.91014469 -0.64247173 0.18755093
v 0.91014469 -0.64247173 0.18755093
v 0.91014469 -0.64247173 0.18755093
v 0.89919692 -0.68066341 0.20024043
v 0.89919692 -0.68066341 0.20024043
v 0.89919692 -0.68066341 0.20024043
v 0.89919692 -0.68066341 0.20024043
v 0.89919692 -0.68066341 0.20024043
v 0.89919692 -0.68066341 0.20024043
v 0.87003499 -0.69270915 0.18430591
v 0.87003499 -0.69270915 0.18430591
v 0.87003499 -0.69270915 0.18430591
v 0.87003499 -0.69270915 0.18430591
v 0.85681033 -0.73351538 0.19961080
v 0.85681033 -0.73351538 0.19961080
v 0.85681033 -0.73351538 0.19961080
v 0.85681033 -0.73351538 0.19961080
v 0.85681033 -0.73351538 0.19961080
v 0.85681033 -0.73351538 0.19961080
v 0.82396674 -0.73566306 0.17604807
v 0.82396674 -0.73566306 0.17604807
v 0.82396674 -0.73566306 0.17604807
v 0.82396674 -0.73566306 0.17604807
v 0.79712999 -0.75200421 0.16716060
v 0.79712999 -0.75200421 0.16716060
v 0.79712999 -0.75200421 0.16716060
v 0.79712999 -0.75200421 0.16716060
v 0.79712999 -0.75200421 0.16716060
v 0.79712999 -0.75200421 0.16716060
v 0.79712999 -0.75200421 0.16716060
v 0.79712999 -0.75200421 0.16716060
v 0.75338709 -0.79757273 0.16670048
v 0.75338709 -0.79757273 0.16670048
v 0.75338709 -0.79757273 0.16670048
v 0.75338709 -0.79757273 0.16670048
v 0.75338709 -0.79757273 0.16670048
v 0.75338709 -0.79757273 0.16670048
v 0.72374076 -0.81232649 0.15984717
v 0.72374076 -0.81232649 0.15984717
v 0.72374076 -0.81232649 0.15984717
v 0.72374076 -0.81232649 0.15984717
v 0.72374076 -0.81232649 0.15984717
v 0.70843309 -0.84202069 0.16682157
v 0.70843309 -0.84202069 0.16682157
v 0.70843309 -0.84202069 0.16682157
v 0.70843309 -0.84202069 0.16682157
v 0.70843309 -0.84202069 0.16682157
v 0.70843309 -0.84202069 0.16682157
v 0.70843309 -0.84202069 0.16682157
v 0.70843309 -0.84202069 0.16682157
v 0.70843309 -0.84202069 0.16682157
v 0.67878675 -0.85369295 0.16069478
v 0.67878675 -0.85369295 0.16069478
v 0.67878675 -0.85369295 0.16069478
v 0.67878675 -0.85369295 0.16069478
v 0.67878675 -0.85369295 0.16069478
v 0.65785992 -0.86237711 0.15715915
v 0.65785992 -0.86237711 0.15715915
v 0.65785992 -0.86237711 0.15715915
v 0.65785992 -0.86237711 0.15715915
v 0.65785992 -0.83427024 0.14476025
v 0.65785992 -0.83427024 0.14476025
v 0.65785992 -0.83427024 0.14476025
v 0.65785992 -0.88674879 0.17108366
v 0.65785992 -0.88674879 0.17108366
v 0.65785992 -0.88674879 0.17108366
v 0.65945846 -0.88338721 0.16914636
v 0.65945846 -0.88338721 0.16914636
v 0.65945846 -0.88338721 0.16914636
v 0.65945846 -0.88338721 0.16914636
v 0.65945846 -0.88338721 0.16914636
v 0.65945846 -0.88338721 0.16914636
v 0.65945846 -0.88338721 0.16914636
v 0.73662621 -0.82530606 0.17411077
v 0.73662621 -0.82530606 0.17411077
v 0.73662621 -0.82530606 0.17411077
v 0.73662621 -0.82530606 0.17411077
v 0.73662621 -0.82530606 0.17411077
v 0.77567029 -0.81961000 0.19844839
v 0.77567029 -0.81961000 0.19844839
v 0.77567029 -0.81961000 0.19844839
v 0.77567029 -0.81961000 0.19844839
v 0.77567029 -0.81961000 0.19844839
v 0.80303997 -0.80289525 0.20736009
v 0.80303997 -0.80289525 0.20736009
v 0.80303997 -0.80289525 0.20736009
v 0.80303997 -0.80289525 0.20736009
v 0.80303997 -0.80289525 0.20736009
v 0.78884655 -0.83258945 0.22462654
v 0.78884655 -0.83258945 0.22462654
v 0.78884655 -0.83258945 0.22462654
v 0.78884655 -0.83258945 0.22462654
v 0.78884655 -0.83258945 0.22462654
v 0.78884655 -0.83258945 0.22462654
v 0.79795355 -0.84211409 0.24789867
v 0.79795355 -0.84211409 0.24789867
v 0.79795355 -0.84211409 0.24789867
v 0.79795355 -0.84211409 0.24789867
v 0.79795355 -0.84211409 0.24789867
v 1.08870113 -0.37858528 0.24789867
v 1.08870113 -0.37858528 0.24789867
v 1.08870113 -0.37858528 0.24789867
v 1.08870113 -0.37858528 0.24789867
v 1.07252169 -0.42228621 0.24550119
v 1.07252169 -0.42228621 0.24550119
v 1.07252169 -0.42228621 0.24550119
v 1.07252169 -0.42228621 0.24550119
v 1.07252169 -0.42228621 0.24550119
v 1.07252169 -0.42228621 0.24550119
v 1.07252169 -0.42228621 0.24550119
v 1.07252169 -0.42228621 0.24550119
v 1.05861890 -0.42228621 0.22327039
v 1.05861890 -0.42228621 0.22327039
v 1.05861890 -0.42228621 0.22327039
v 1.05861890 -0.42228621 0.22327039
v 1.05861890 -0.42228621 0.22327039
v 1.02204525 -0.48746413 0.21079886
v 1.02204525 -0.48746413 0.21079886
v 1.02204525 -0.48746413 0.21079886
v 1.02204525 -0.48746413 0.21079886
v 1.02204525 -0.48746413 0.21079886
v 1.02204525 -0.48746413 0.21079886
v 1.02204525 -0.48746413 0.21079886
v 1.02204525 -0.48746413 0.21079886
v 1.02204525 -0.48746413 0.21079886
v 1.02868176 -0.45786327 0.20283163
v 1.02868176 -0.45786327 0.20283163
v 1.02868176 -0.45786327 0.20283163
v 1.02868176 -0.45786327 0.20283163
v 1.02868176 -0.45786327 0.20283163
v 1.02868176 -0.45786327 0.20283163
v 0.99409437 -0.51118219 0.19408941
v 0.99409437 -0.51118219 0.19408941
v 0.99409437 -0.51118219 0.19408941
v 0.99409437 -0.51118219 0.19408941
v 0.98522949 -0.54703933 0.20217776
v 0.98522949 -0.54703933 0.20217776
v 0.98522949 -0.54703933 0.20217776
v 0.98522949 -0.54703933 0.20217776
v 0.98522949 -0.54703933 0.20217776
v 0.98522949 -0.54703933 0.20217776
v 0.98522949 -0.54703933 0.20217776
v 0.93858010 -0.62967896 0.20452678
v 0.93858010 -0.62967896 0.20452678
v 0.93858010 -0.62967896 0.20452678
v 0.93858010 -0.62967896 0.20452678
v 0.93858010 -0.62967896 0.20452678
v 0.93858010 -0.62967896 0.20452678
v 0.93858010 -0.62967896 0.20452678
v 0.97762418 -0.57664019 0.21065357
v 0.97762418 -0.57664019 0.21065357
v 0.97762418 -0.57664019 0.21065357
v 0.97762418 -0.57664019 0.21065357
v 0.97762418 -0.57664019 0.21065357
v 0.97762418 -0.57664019 0.21065357
v 0.97762418 -0.57664019 0.21065357
v 0.97762418 -0.57664019 0.21065357
v 0.97762418 -0.57664019 0.21065357
v 0.97762418 -0.57664019 0.21065357
v 0.88863659 -0.71026421 0.21067777
v 0.88863659 -0.71026421 0.21067777
v 0.88863659 -0.71026421 0.21067777
v 0.88863659 -0.71026421 0.21067777
v 0.88863659 -0.71026421 0.21067777
v 0.88863659 -0.71026421 0.21067777
v 0.88863659 -0.71026421 0.21067777
v 0.88863659 -0.71026421 0.21067777
v 0.84673440 -0.75779366 0.20803815
v 0.84673440 -0.75779366 0.20803815
v 0.84673440 -0.75779366 0.20803815
v 0.84673440 -0.75779366 0.20803815
v 0.84673440 -0.75779366 0.20803815
v 0.84673440 -0.75779366 0.20803815
v 0.84673440 -0.75779366 0.20803815
v 0.84673440 -0.75779366 0.20803815
v 0.84673440 -0.75779366 0.20803815
v 0.84673440 -0.75779366 0.20803815
v 0.84673440 -0.75779366 0.20803815
v 0.81980079 -0.77469516 0.19946551
v 0.81980079 -0.77469516 0.19946551
v 0.81980079 -0.77469516 0.19946551
v 0.81980079 -0.77469516 0.19946551
v 0.81980079 -0.77469516 0.19946551
v 0.78065979 -0.78085804 0.17466772
v 0.78065979 -0.78085804 0.17466772
v 0.78065979 -0.78085804 0.17466772
v 0.78065979 -0.78085804 0.17466772
v 0.78065979 -0.78085804 0.17466772
v 0.65785992 -0.88394749 0.16878310
v 0.65785992 -0.88394749 0.16878310
v 0.65785992 -0.88394749 0.16878310
v 0.65785992 -0.88394749 0.16878310
v 0.83530217 -0.79019582 0.23206103
v 0.83530217 -0.79019582 0.23206103
v 0.83530217 -0.79019582 0.23206103
v 0.83530217 -0.79019582 0.23206103
v 0.83530217 -0.79019582 0.23206103
v 0.84145427 -0.79663891 0.24789867
v 0.84145427 -0.79663891 0.24789867
v 0.84145427 -0.79663891 0.24789867
v 0.84145427 -0.79663891 0.24789867
v 1.07484686 -0.41911137 0.24789867
v 1.07484686 -0.41911137 0.24789867
v 1.07484686 -0.41911137 0.24789867
v 1.07484686 -0.41911137 0.24789867
v 1.07368422 -0.42228621 0.24789867
v 1.07368422 -0.42228621 0.24789867
v 1.07368422 -0.42228621 0.24789867
v 1.07368422 -0.42228621 0.24789867
v 1.07106841 -0.42900944 0.24789867
v 1.07106841 -0.42900944 0.24789867
v 1.07106841 -0.42900944 0.24789867
v 1.06142843 -0.45104668 0.24789867
v 1.06142843 -0.45104668 0.24789867
v 1.06142843 -0.45104668 0.24789867
v 1.06142843 -0.45104668 0.24789867
v 1.06142843 -0.45104668 0.24789867
v 1.06142843 -0.45104668 0.24789867
v 1.04481292 -0.46645403 0.23223051
v 1.04481292 -0.46645403 0.23223051
v 1.04481292 -0.46645403 0.23223051
v 1.04481292 -0.46645403 0.23223051
v 1.03052258 -0.51118219 0.24155390
v 1.03052258 -0.51118219 0.24155390
v 1.03052258 -0.51118219 0.24155390
v 1.03052258 -0.51118219 0.24155390
v 1.02659881 -0.52827030 0.24789867
v 1.02659881 -0.52827030 0.24789867
v 1.02659881 -0.52827030 0.24789867
v 1.02659881 -0.52827030 0.24789867
v 1.02659881 -0.52827030 0.24789867
v 1.01632917 -0.51118219 0.21932310
v 1.01632917 -0.51118219 0.21932310
v 1.01632917 -0.51118219 0.21932310
v 1.01632917 -0.51118219 0.21932310
v 1.01632917 -0.51118219 0.21932310
v 0.92879480 -0.65927982 0.21663505
v 0.92879480 -0.65927982 0.21663505
v 0.92879480 -0.65927982 0.21663505
v 0.92879480 -0.65927982 0.21663505
v 0.92879480 -0.65927982 0.21663505
v 0.92879480 -0.65927982 0.21663505
v 0.92879480 -0.65927982 0.21663505
v 0.92879480 -0.65927982 0.21663505
v 1.00116682 -0.55684406 0.23089862
v 1.00116682 -0.55684406 0.23089862
v 1.00116682 -0.55684406 0.23089862
v 1.00116682 -0.55684406 0.23089862
v 1.00116682 -0.55684406 0.23089862
v 0.98547167 -0.60007811 0.24329752
v 0.98547167 -0.60007811 0.24329752
v 0.98547167 -0.60007811 0.24329752
v 0.98547167 -0.60007811 0.24329752
v 0.98547167 -0.60007811 0.24329752
v 0.98547167 -0.60007811 0.24329752
v 0.97718823 -0.61894047 0.24789867
v 0.97718823 -0.61894047 0.24789867
v 0.97718823 -0.61894047 0.24789867
v 0.97718823 -0.61894047 0.24789867
v 0.97718823 -0.61894047 0.24789867
v 0.97718823 -0.61894047 0.24789867
v 0.97026098 -0.60007811 0.22106668
v 0.97026098 -0.60007811 0.22106668
v 0.97026098 -0.60007811 0.22106668
v 0.89939070 -0.72399080 0.24034309
v 0.89939070 -0.72399080 0.24034309
v 0.89939070 -0.72399080 0.24034309
v 0.89939070 -0.72399080 0.24034309
v 0.89939070 -0.72399080 0.24034309
v 0.89939070 -0.72399080 0.24034309
v 0.89939070 -0.72399080 0.24034309
v 0.88006240 -0.73669022 0.22813791
v 0.88006240 -0.73669022 0.22813791
v 0.88006240 -0.73669022 0.22813791
v 0.88006240 -0.73669022 0.22813791
v 0.88006240 -0.73669022 0.22813791
v 0.91406852 -0.69242901 0.22850117
v 0.91406852 -0.69242901 0.22850117
v 0.91406852 -0.69242901 0.22850117
v 0.91406852 -0.69242901 0.22850117
v 0.87575108 -0.75900763 0.24789867
v 0.87575108 -0.75900763 0.24789867
v 0.87575108 -0.75900763 0.24789867
v 0.87575108 -0.75900763 0.24789867
v 0.87575108 -0.75900763 0.24789867
v 0.85608375 -0.76787847 0.23206103
v 0.85608375 -0.76787847 0.23206103
v 0.85608375 -0.76787847 0.23206103
v 0.85608375 -0.76787847 0.23206103
v 1.02369225 -0.53443331 0.24789867
v 1.02369225 -0.53443331 0.24789867
v 1.02369225 -0.53443331 0.24789867
v 1.02369225 -0.53443331 0.24789867
v 0.97089076 -0.62855840 0.24789867
v 0.97089076 -0.62855840 0.24789867
v 0.97089076 -0.62855840 0.24789867
v 0.97089076 -0.62855840 0.24789867
v 0.93896759 -0.67459381 0.24630037
v 0.93896759 -0.67459381 0.24630037
v 0.93896759 -0.67459381 0.24630037
v 0.93896759 -0.67459381 0.24630037
v 0.93896759 -0.67459381 0.24630037
v 0.93896759 -0.67459381 0.24630037
v 0.93896759 -0.67459381 0.24630037
v 0.93896759 -0.67459381 0.24630037
v 1.02078581 -0.54022270 0.24789867
v 1.02078581 -0.54022270 0.24789867
v 1.02078581 -0.54022270 0.24789867
v 1.02078581 -0.54022270 0.24789867
v 0.98241991 -0.61025631 0.24789867
v 0.98241991 -0.61025631 0.24789867
v 0.98241991 -0.61025631 0.24789867
v 0.99191451 -0.59326148 0.24789867
v 0.99191451 -0.59326148 0.24789867
v 0.99191451 -0.59326148 0.24789867
v 0.90917587 -0.71745437 0.24789867
v 0.90917587 -0.71745437 0.24789867
v 0.90917587 -0.71745437 0.24789867
v 0.90917587 -0.71745437 0.24789867
v 0.90224868 -0.72632527 0.24789867
v 0.90224868 -0.72632527 0.24789867
v 0.90224868 -0.72632527 0.24789867
v 0.88514882 -0.74808240 0.24789867
v 0.88514882 -0.74808240 0.24789867
v 0.88514882 -0.74808240 0.24789867
v 0.88514882 -0.74808240 0.24789867
v 0.94061464 -0.67347324 0.24789867
v 0.94061464 -0.67347324 0.24789867
v 0.94061464 -0.67347324 0.24789867
v 0.93935513 -0.67534083 0.24789867
v 0.93935513 -0.67534083 0.24789867
v 0.93935513 -0.67534083 0.24789867
v 0.92240053 -0.69905883 0.24789867
v 0.92240053 -0.69905883 0.24789867
v 0.92240053 -0.69905883 0.24789867
vn 0.00000000 0.00000000 1.00000000
vn 0.00000000 0.00000000 1.00000000
vn -0.00000000 0.00000000 1.00000000
vn 0.85678289 0.00185489 -0.51567397
vn 0.85744735 0.00322047 -0.51456162
vn 0.86583432 -0.02421477 -0.49974452
vn -0.00000000 0.00000000 1.00000000
vn -0.00000000 0.00000000 1.00000000
vn 0.00000000 1.00000000 -0.00000000
vn 0.83822574 0.00236305 -0.54531827
vn 0.83837146 0.00181503 -0.54509633
vn 0.85678289 0.00185489 -0.51567397
vn 0.85744735 0.00322047 -0.51456162
vn 0.00000000 1.00000000 -0.00000000
vn 0.00000000 0.00000000 1.00000000
vn 0.85744735 0.00322047 -0.51456162
vn 0.00000000 0.00000000 1.00000000
vn 0.85720298 -0.04611999 -0.51290935
vn 0.85756394 -0.04653226 -0.51226833
vn 0.86583432 -0.02421477 -0.49974452
vn 0.83754789 -0.03788761 -0.54504868
vn 0.83837146 0.00181503 -0.54509633
vn 0.83927584 -0.04133614 -0.54213226
vn 0.85678289 0.00185489 -0.51567397
vn 0.85720298 -0.04611999 -0.51290935
vn 0.86583432 -0.02421477 -0.49974452
vn 0.00000000 1.00000000 -0.00000000
vn 0.83753860 0.00366087 -0.54636589
vn 0.83822574 0.00236305 -0.54531827
vn 0.70886575 -0.03726198 -0.70435850
vn 0.70936172 0.00388861 -0.70483390
vn 0.71037231 -0.03880235 -0.70275569
vn 0.83753860 0.00366087 -0.54636589
vn 0.83754789 -0.03788761 -0.54504868
vn 0.83822574 0.00236305 -0.54531827
vn 0.83837146 0.00181503 -0.54509633
vn -0.00000000 1.00000000 -0.00000000
vn 0.00000000 0.00000000 1.00000000
vn -0.22646804 0.10446925 0.96839992
vn 0.00000000 0.00000000 1.00000000
vn 0.85756394 -0.04653226 -0.51226833
vn 0.86902726 -0.07008734 -0.48977483
vn 0.86943568 -0.07036386 -0.48900975
vn 0.83865119 -0.05651647 -0.54172877
vn 0.83927584 -0.04133614 -0.54213226
vn 0.84537967 -0.06818015 -0.52979682
vn 0.85720298 -0.04611999 -0.51290935
vn 0.85756394 -0.04653226 -0.51226833
vn 0.86902726 -0.07008734 -0.48977483
vn 0.70969244 -0.05844606 -0.70208311
vn 0.71037231 -0.03880235 -0.70275569
vn 0.83754789 -0.03788761 -0.54504868
vn 0.83865119 -0.05651647 -0.54172877
vn 0.83927584 -0.04133614 -0.54213226
vn -0.00000000 1.00000000 -0.00000000
vn 0.70937519 0.00390216 -0.70482027
vn 0.83753860 0.00366087 -0.54636589
vn 0.61577404 -0.04979230 -0.78634792
vn 0.61611143 -0.03722728 -0.78677877
vn 0.62988692 -0.06189121 -0.77421699
vn 0.70567239 -0.06229541 -0.70579442
vn 0.70886575 -0.03726198 -0.70435850
vn 0.70969244 -0.05844606 -0.70208311
vn 0.71037231 -0.03880235 -0.70275569
vn 0.60440920 -0.02767366 -0.79619325
vn 0.60463484 0.00442823 -0.79649049
vn 0.60518176 0.00530762 -0.79606963
vn 0.61611143 -0.03722728 -0.78677877
vn 0.70779761 0.00546403 -0.70639414
vn 0.70886575 -0.03726198 -0.70435850
vn 0.70935304 0.00387987 -0.70484269
vn 0.00000000 1.00000000 -0.00000000
vn 0.70779761 0.00546403 -0.70639414
vn 0.70936268 0.00388957 -0.70483293
vn 0.00000000 1.00000000 -0.00000000
vn -0.22646804 0.10446925 0.96839992
vn -1.00000000 0.00000000 0.00000000
vn 0.00000000 0.00000000 1.00000000
vn -0.22646804 0.10446925 0.96839992
vn -1.00000000 0.00000000 0.00000000
vn 0.00000000 0.00000000 1.00000000
vn 0.86943568 -0.07036386 -0.48900975
vn 0.87513116 -0.07916295 -0.47736640
vn 0.87727003 -0.08052009 -0.47319533
vn 0.00000000 0.00000000 1.00000000
vn 0.84519170 -0.07135213 -0.52967902
vn 0.84537967 -0.06818015 -0.52979682
vn 0.84849763 -0.07675372 -0.52360351
vn 0.86902726 -0.07008734 -0.48977483
vn 0.86943568 -0.07036386 -0.48900975
vn 0.87513116 -0.07916295 -0.47736640
vn 0.70503823 -0.07530098 -0.70516016
vn 0.70567239 -0.06229541 -0.70579442
vn 0.70969244 -0.05844606 -0.70208311
vn 0.83865119 -0.05651647 -0.54172877
vn 0.84519170 -0.07135213 -0.52967902
vn 0.84537967 -0.06818015 -0.52979682
vn 0.48887113 -0.04652356 -0.87111456
vn 0.48923582 -0.02598402 -0.87176439
vn 0.60440920 -0.02767366 -0.79619325
vn 0.61577404 -0.04979230 -0.78634792
vn 0.61611143 -0.03722728 -0.78677877
vn 0.62984919 -0.06284807 -0.77417060
vn 0.62988692 -0.06189121 -0.77421699
vn 0.65009210 -0.08101812 -0.75552387
vn 0.65083427 -0.08141532 -0.75484191
vn 0.69857949 -0.08143469 -0.71088331
vn 0.70503823 -0.07530098 -0.70516016
vn 0.70567239 -0.06229541 -0.70579442
vn 0.48811400 -0.05582823 -0.87099250
vn 0.48825379 -0.05045514 -0.87124194
vn 0.48887113 -0.04652356 -0.87111456
vn 0.49141156 -0.05856149 -0.86895640
vn 0.61577404 -0.04979230 -0.78634792
vn 0.62984919 -0.06284807 -0.77417060
vn 0.62988692 -0.06189121 -0.77421699
vn 0.48772413 -0.01367949 -0.87289063
vn 0.48789296 -0.00244596 -0.87290004
vn 0.48832679 0.00408263 -0.87265129
vn 0.48923582 -0.02598402 -0.87176439
vn 0.60440920 -0.02767366 -0.79619325
vn 0.60463484 0.00442823 -0.79649049
vn 0.00000000 1.00000000 -0.00000000
vn 0.48832679 0.00408263 -0.87265129
vn 0.60463484 0.00442823 -0.79649049
vn 0.60518176 0.00530762 -0.79606963
vn 0.00000000 1.00000000 -0.00000000
vn 0.60518176 0.00530762 -0.79606963
vn 0.70779761 0.00546403 -0.70639414
vn 0.00000000 1.00000000 -0.00000000
vn -0.27774096 0.07515446 -0.95771173
vn -1.00000000 0.00000000 0.00000000
vn 0.00000000 0.00000000 1.00000000
vn 0.50308948 -0.76794260 -0.39644060
vn -1.00000000 0.00000000 0.00000000
vn 0.00000000 0.00000000 1.00000000
vn 0.87727003 -0.08052009 -0.47319533
vn 0.87958090 -0.08489199 -0.46811408
vn 0.00000000 0.00000000 1.00000000
vn 0.84586429 -0.10978185 -0.52197849
vn 0.84849763 -0.07675372 -0.52360351
vn 0.85724508 -0.13666590 -0.49644064
vn 0.87377456 -0.14237540 -0.46502394
vn 0.87513116 -0.07916295 -0.47736640
vn 0.87727003 -0.08052009 -0.47319533
vn 0.87958090 -0.08489199 -0.46811408
vn 0.69611223 -0.11677342 -0.70837260
vn 0.69857949 -0.08143469 -0.71088331
vn 0.70503823 -0.07530098 -0.70516016
vn 0.84519170 -0.07135213 -0.52967902
vn 0.84586429 -0.10978185 -0.52197849
vn 0.84849763 -0.07675372 -0.52360351
vn 0.33975099 0.00184803 -0.94051361
vn 0.34189005 0.00338274 -0.93973387
vn 0.34878308 0.00519658 -0.93718907
vn 0.36804869 -0.02886108 -0.92935849
vn 0.40076053 -0.04664096 -0.91499487
vn 0.41598559 -0.00230379 -0.90936829
vn 0.48772413 -0.01367949 -0.87289063
vn 0.48825379 -0.05045514 -0.87124194
vn 0.48887113 -0.04652356 -0.87111456
vn 0.48923582 -0.02598402 -0.87176439
vn 0.65083427 -0.08141532 -0.75484191
vn 0.67184996 -0.11016152 -0.73244936
vn 0.69060860 -0.12361261 -0.71258662
vn 0.69611223 -0.11677342 -0.70837260
vn 0.69857949 -0.08143469 -0.71088331
vn 0.48785634 -0.07807621 -0.86942527
vn 0.49086778 -0.07505860 -0.86799483
vn 0.49983439 -0.10200507 -0.86009334
vn 0.65009210 -0.08101812 -0.75552387
vn 0.65083427 -0.08141532 -0.75484191
vn 0.67184996 -0.11016152 -0.73244936
vn 0.49086778 -0.07505860 -0.86799483
vn 0.49141156 -0.05856149 -0.86895640
vn 0.62984919 -0.06284807 -0.77417060
vn 0.65009210 -0.08101812 -0.75552387
vn 0.40076053 -0.04664096 -0.91499487
vn 0.41854841 -0.06563767 -0.90581948
vn 0.43843743 -0.07588735 -0.89555219
vn 0.48403189 -0.07829039 -0.87154102
vn 0.48811400 -0.05582823 -0.87099250
vn 0.48825379 -0.05045514 -0.87124194
vn 0.48401685 -0.07868379 -0.87151394
vn 0.48403189 -0.07829039 -0.87154102
vn 0.48785634 -0.07807621 -0.86942527
vn 0.48811400 -0.05582823 -0.87099250
vn 0.49086778 -0.07505860 -0.86799483
vn 0.49141156 -0.05856149 -0.86895640
vn 0.41598559 -0.00230379 -0.90936829
vn 0.48772413 -0.01367949 -0.87289063
vn 0.48789296 -0.00244596 -0.87290004
vn -0.00000000 1.00000000 -0.00000000
vn 0.34878308 0.00519658 -0.93718907
vn 0.41598559 -0.00230379 -0.90936829
vn 0.48789296 -0.00244596 -0.87290004
vn 0.48832679 0.00408263 -0.87265129
vn 0.00000000 1.00000000 -0.00000000
vn 0.01207860 0.00196477 -0.99992512
vn 0.33975099 0.00184803 -0.94051361
vn 0.34189005 0.00338274 -0.93973387
vn -0.05744142 0.01461356 -0.99824192
vn -0.10583987 0.02600520 -0.99404308
vn -0.27774096 0.07515446 -0.95771173
vn 0.04142629 -0.07809785 -0.99608463
vn -0.10583987 0.02600520 -0.99404308
vn -0.27774096 0.07515446 -0.95771173
vn -1.00000000 0.00000000 0.00000000
vn 0.50308948 -0.76794260 -0.39644060
vn 0.50473388 -0.76195459 -0.40579418
vn 0.50470490 -0.75296525 -0.42227515
vn -1.00000000 0.00000000 0.00000000
vn -0.00000000 0.00000000 1.00000000
vn 0.50308948 -0.76794260 -0.39644060
vn 0.50473388 -0.76195459 -0.40579418
vn 0.51894005 -0.75053479 -0.40914392
vn 0.00000000 0.00000000 1.00000000
vn 0.00000000 0.00000000 1.00000000
vn 0.87377456 -0.14237540 -0.46502394
vn 0.87407702 -0.14278427 -0.46432965
vn 0.87958090 -0.08489199 -0.46811408
vn 0.69060860 -0.12361261 -0.71258662
vn 0.69611223 -0.11677342 -0.70837260
vn 0.69613752 -0.14610258 -0.70288448
vn 0.70816941 -0.15624246 -0.68853786
vn 0.74568997 -0.17403123 -0.64316374
vn 0.84495148 -0.16480625 -0.50881814
vn 0.84586429 -0.10978185 -0.52197849
vn 0.85724508 -0.13666590 -0.49644064
vn 0.84495148 -0.16480625 -0.50881814
vn 0.84940714 -0.18416243 -0.49456213
vn 0.85724508 -0.13666590 -0.49644064
vn 0.87357171 -0.17645644 -0.45358085
vn 0.87377456 -0.14237540 -0.46502394
vn 0.87407702 -0.14278427 -0.46432965
vn 0.87537281 -0.17466218 -0.45079437
vn 0.87843507 -0.15539426 -0.45188987
vn 0.12375110 -0.03080128 -0.99183514
vn 0.24104407 -0.07014168 -0.96797619
vn 0.36804869 -0.02886108 -0.92935849
vn 0.40076053 -0.04664096 -0.91499487
vn 0.41854841 -0.06563767 -0.90581948
vn 0.01207860 0.00196477 -0.99992512
vn 0.06995695 -0.01735252 -0.99739908
vn 0.12375110 -0.03080128 -0.99183514
vn 0.33975099 0.00184803 -0.94051361
vn 0.36804869 -0.02886108 -0.92935849
vn -0.00000000 1.00000000 -0.00000000
vn 0.34189005 0.00338274 -0.93973387
vn 0.34878308 0.00519658 -0.93718907
vn 0.49625440 -0.10707080 -0.86154943
vn 0.49983439 -0.10200507 -0.86009334
vn 0.51479821 -0.13010549 -0.84738147
vn 0.53158518 -0.13869391 -0.83557237
vn 0.67184996 -0.11016152 -0.73244936
vn 0.69060860 -0.12361261 -0.71258662
vn 0.69557898 -0.14684686 -0.70328222
vn 0.69613752 -0.14610258 -0.70288448
vn 0.47912497 -0.10395401 -0.87156918
vn 0.48401685 -0.07868379 -0.87151394
vn 0.48785634 -0.07807621 -0.86942527
vn 0.49625440 -0.10707080 -0.86154943
vn 0.49983439 -0.10200507 -0.86009334
vn 0.43843743 -0.07588735 -0.89555219
vn 0.47572070 -0.11361346 -0.87222806
vn 0.47912497 -0.10395401 -0.87156918
vn 0.48401685 -0.07868379 -0.87151394
vn 0.48403189 -0.07829039 -0.87154102
vn 0.24104407 -0.07014168 -0.96797619
vn 0.30676268 -0.10412085 -0.94607373
vn 0.41854841 -0.06563767 -0.90581948
vn 0.42444009 -0.14323438 -0.89405510
vn 0.43843743 -0.07588735 -0.89555219
vn 0.46669475 -0.14226514 -0.87290128
vn 0.46758735 -0.14208968 -0.87245206
vn 0.46942396 -0.13821755 -0.87208775
vn 0.47326057 -0.12661828 -0.87177534
vn 0.47572070 -0.11361346 -0.87222806
vn 0.01207860 0.00196477 -0.99992512
vn 0.03855474 -0.01738220 -0.99910530
vn 0.06995695 -0.01735252 -0.99739908
vn -0.05744142 0.01461356 -0.99824192
vn 0.03855474 -0.01738220 -0.99910530
vn 0.04142629 -0.07809785 -0.99608463
vn 0.13202842 -0.10949735 -0.98517959
vn 0.21716283 -0.10678455 -0.97027695
vn 0.21814391 -0.10780401 -0.96994409
vn -0.05744142 0.01461356 -0.99824192
vn -0.10583987 0.02600520 -0.99404308
vn 0.04142629 -0.07809785 -0.99608463
vn 0.13202842 -0.10949735 -0.98517959
vn 0.33944526 -0.25563804 -0.90522158
vn -1.00000000 0.00000000 0.00000000
vn 0.50470490 -0.75296525 -0.42227515
vn 0.50707397 -0.72262104 -0.46978168
vn -1.00000000 0.00000000 0.00000000
vn 0.50473388 -0.76195459 -0.40579418
vn 0.50470490 -0.75296525 -0.42227515
vn 0.50707397 -0.72262104 -0.46978168
vn 0.50852940 -0.72106084 -0.47060505
vn 0.51872195 -0.71250995 -0.47250091
vn 0.51894005 -0.75053479 -0.40914392
vn 0.52231394 -0.71242343 -0.46865873
vn 0.52950202 -0.72493827 -0.44055886
vn -0.00000000 0.00000000 1.00000000
vn 0.51894005 -0.75053479 -0.40914392
vn 0.52950202 -0.72493827 -0.44055886
vn 0.00000000 0.00000000 1.00000000
vn 0.87407702 -0.14278427 -0.46432965
vn 0.87843507 -0.15539426 -0.45188987
vn 0.74568997 -0.17403123 -0.64316374
vn 0.76198951 -0.18613840 -0.62026163
vn 0.78566888 -0.19650555 -0.58660888
vn 0.84495148 -0.16480625 -0.50881814
vn 0.84749010 -0.18704935 -0.49676258
vn 0.84940714 -0.18416243 -0.49456213
vn 0.68550302 -0.18735841 -0.70354988
vn 0.68875392 -0.16102704 -0.70688636
vn 0.69459121 -0.15601575 -0.70228351
vn 0.70816941 -0.15624246 -0.68853786
vn 0.74568997 -0.17403123 -0.64316374
vn 0.76198951 -0.18613840 -0.62026163
vn 0.69459121 -0.15601575 -0.70228351
vn 0.69557898 -0.14684686 -0.70328222
vn 0.69613752 -0.14610258 -0.70288448
vn 0.70816941 -0.15624246 -0.68853786
vn 0.00000000 -0.00000000 1.00000000
vn 0.87537281 -0.17466218 -0.45079437
vn 0.87843507 -0.15539426 -0.45188987
vn -0.00000000 0.00000000 1.00000000
vn 0.87357171 -0.17645644 -0.45358085
vn 0.87537281 -0.17466218 -0.45079437
vn 0.87810906 -0.19521779 -0.43682318
vn 0.84416063 -0.20628844 -0.49481099
vn 0.84549791 -0.20766767 -0.49194250
vn 0.84749010 -0.18704935 -0.49676258
vn 0.84940714 -0.18416243 -0.49456213
vn 0.87299214 -0.20122873 -0.44428788
vn 0.87357171 -0.17645644 -0.45358085
vn 0.87723118 -0.20008071 -0.43638648
vn 0.87810906 -0.19521779 -0.43682318
vn 0.03855474 -0.01738220 -0.99910530
vn 0.06995695 -0.01735252 -0.99739908
vn 0.12375110 -0.03080128 -0.99183514
vn 0.21716283 -0.10678455 -0.97027695
vn 0.24104407 -0.07014168 -0.96797619
vn 0.30676268 -0.10412085 -0.94607373
vn 0.53158518 -0.13869391 -0.83557237
vn 0.53872720 -0.14447545 -0.82999991
vn 0.56423120 -0.15572444 -0.81079779
vn 0.68875392 -0.16102704 -0.70688636
vn 0.69459121 -0.15601575 -0.70228351
vn 0.69557898 -0.14684686 -0.70328222
vn 0.46942396 -0.13821755 -0.87208775
vn 0.47326057 -0.12661828 -0.87177534
vn 0.51479821 -0.13010549 -0.84738147
vn 0.53158518 -0.13869391 -0.83557237
vn 0.53872720 -0.14447545 -0.82999991
vn 0.47326057 -0.12661828 -0.87177534
vn 0.47572070 -0.11361346 -0.87222806
vn 0.47912497 -0.10395401 -0.87156918
vn 0.49625440 -0.10707080 -0.86154943
vn 0.51479821 -0.13010549 -0.84738147
vn 0.46652702 -0.15049698 -0.87160954
vn 0.46689763 -0.14524437 -0.87230194
vn 0.46748025 -0.14240997 -0.87245723
vn 0.46758735 -0.14208968 -0.87245206
vn 0.46942396 -0.13821755 -0.87208775
vn 0.53872720 -0.14447545 -0.82999991
vn 0.56423120 -0.15572444 -0.81079779
vn 0.56971314 -0.16044811 -0.80602937
vn 0.46669475 -0.14226514 -0.87290128
vn 0.46748025 -0.14240997 -0.87245723
vn 0.46758735 -0.14208968 -0.87245206
vn 0.42444009 -0.14323438 -0.89405510
vn 0.45613384 -0.17799917 -0.87192787
vn 0.46307174 -0.15968061 -0.87181803
vn 0.46544936 -0.15168795 -0.87197916
vn 0.46669475 -0.14226514 -0.87290128
vn 0.46689763 -0.14524437 -0.87230194
vn 0.46748025 -0.14240997 -0.87245723
vn 0.21716283 -0.10678455 -0.97027695
vn 0.21814391 -0.10780401 -0.96994409
vn 0.30676268 -0.10412085 -0.94607373
vn 0.41872344 -0.20825959 -0.88391098
vn 0.42444009 -0.14323438 -0.89405510
vn 0.44773513 -0.20342563 -0.87071882
vn 0.45486117 -0.18396889 -0.87135341
vn 0.45613384 -0.17799917 -0.87192787
vn 0.13202842 -0.10949735 -0.98517959
vn 0.21814391 -0.10780401 -0.96994409
vn 0.33944526 -0.25563804 -0.90522158
vn 0.37567398 -0.26609813 -0.88772791
vn 0.41665323 -0.26032801 -0.87099335
vn 0.41872344 -0.20825959 -0.88391098
vn 0.41921861 -0.25706337 -0.87073198
vn 0.43212231 -0.23531860 -0.87057192
vn 0.43460406 -0.23031065 -0.87067578
vn 0.43512583 -0.22896136 -0.87077104
vn 0.30531995 -0.34095850 -0.88911587
vn 0.33732731 -0.33369740 -0.88025924
vn 0.33944526 -0.25563804 -0.90522158
vn 0.35867876 -0.32414624 -0.87537350
vn 0.37313225 -0.31474783 -0.87275777
vn 0.37567398 -0.26609813 -0.88772791
vn 0.38641522 -0.30163132 -0.87160876
vn 0.39251467 -0.29431113 -0.87138579
vn 0.39953107 -0.28363420 -0.87173767
vn -1.00000000 0.00000000 0.00000000
vn 0.46629172 -0.72068084 -0.51302160
vn 0.50707397 -0.72262104 -0.46978168
vn 0.50852940 -0.72106084 -0.47060505
vn -1.00000000 0.00000000 0.00000000
vn 0.46629172 -0.72068084 -0.51302160
vn 0.47420614 -0.65593543 -0.58726250
vn 0.50852940 -0.72106084 -0.47060505
vn 0.51872195 -0.71250995 -0.47250091
vn 0.52168202 -0.70126471 -0.48587620
vn 0.52179482 -0.70249273 -0.48397740
vn 0.51872195 -0.71250995 -0.47250091
vn 0.52179482 -0.70249273 -0.48397740
vn 0.52191997 -0.70270136 -0.48353939
vn 0.52231394 -0.71242343 -0.46865873
vn -0.00000000 0.00000000 1.00000000
vn 0.52191997 -0.70270136 -0.48353939
vn 0.52231394 -0.71242343 -0.46865873
vn 0.52302552 -0.70010424 -0.48610530
vn 0.52950202 -0.72493827 -0.44055886
vn 0.53409490 -0.68538531 -0.49496426
vn 0.78566888 -0.19650555 -0.58660888
vn 0.80825925 -0.21128733 -0.54961318
vn 0.81150975 -0.21277069 -0.54422472
vn 0.84416063 -0.20628844 -0.49481099
vn 0.84749010 -0.18704935 -0.49676258
vn 0.67572567 -0.21915000 -0.70382391
vn 0.67962755 -0.19235620 -0.70788804
vn 0.68550302 -0.18735841 -0.70354988
vn 0.76198951 -0.18613840 -0.62026163
vn 0.78566888 -0.19650555 -0.58660888
vn 0.80825925 -0.21128733 -0.54961318
vn 0.56423120 -0.15572444 -0.81079779
vn 0.56971314 -0.16044811 -0.80602937
vn 0.62424506 -0.19134523 -0.75743323
vn 0.67962755 -0.19235620 -0.70788804
vn 0.68550302 -0.18735841 -0.70354988
vn 0.68875392 -0.16102704 -0.70688636
vn -0.00000000 0.00000000 1.00000000
vn 0.87723118 -0.20008071 -0.43638648
vn 0.87810906 -0.19521779 -0.43682318
vn -0.00000000 0.00000000 1.00000000
vn 0.87299214 -0.20122873 -0.44428788
vn 0.87723118 -0.20008071 -0.43638648
vn -0.00000000 0.00000000 1.00000000
vn -0.00000000 0.00000000 1.00000000
vn 0.84347248 -0.21886001 -0.49056546
vn 0.84549791 -0.20766767 -0.49194250
vn 0.87299214 -0.20122873 -0.44428788
vn -0.00000000 0.00000000 1.00000000
vn 0.81150975 -0.21277069 -0.54422472
vn 0.82997857 -0.23023516 -0.50806234
vn 0.84156145 -0.22715396 -0.49007694
vn 0.84190820 -0.22677720 -0.48965567
vn 0.84347248 -0.21886001 -0.49056546
vn 0.84416063 -0.20628844 -0.49481099
vn 0.84549791 -0.20766767 -0.49194250
vn 0.46307174 -0.15968061 -0.87181803
vn 0.46544936 -0.15168795 -0.87197916
vn 0.46652702 -0.15049698 -0.87160954
vn 0.47908146 -0.18966822 -0.85703379
vn 0.48444186 -0.19298821 -0.85327114
vn 0.56971314 -0.16044811 -0.80602937
vn 0.62424506 -0.19134523 -0.75743323
vn 0.63378130 -0.20738515 -0.74519304
vn 0.46544936 -0.15168795 -0.87197916
vn 0.46652702 -0.15049698 -0.87160954
vn 0.46689763 -0.14524437 -0.87230194
vn 0.45486117 -0.18396889 -0.87135341
vn 0.45613384 -0.17799917 -0.87192787
vn 0.46307174 -0.15968061 -0.87181803
vn 0.47908146 -0.18966822 -0.85703379
vn 0.44677667 -0.20745737 -0.87025976
vn 0.44753323 -0.20802457 -0.86973547
vn 0.44773513 -0.20342563 -0.87071882
vn 0.45486117 -0.18396889 -0.87135341
vn 0.47908146 -0.18966822 -0.85703379
vn 0.48444186 -0.19298821 -0.85327114
vn 0.50508226 -0.21665344 -0.83543593
vn 0.41872344 -0.20825959 -0.88391098
vn 0.43512583 -0.22896136 -0.87077104
vn 0.44384718 -0.21441407 -0.87007258
vn 0.44677667 -0.20745737 -0.87025976
vn 0.44773513 -0.20342563 -0.87071882
vn 0.37567398 -0.26609813 -0.88772791
vn 0.39953107 -0.28363420 -0.87173767
vn 0.40259275 -0.28030969 -0.87140436
vn 0.41220160 -0.26728397 -0.87100466
vn 0.41665323 -0.26032801 -0.87099335
vn 0.43460406 -0.23031065 -0.87067578
vn 0.43512583 -0.22896136 -0.87077104
vn 0.44384718 -0.21441407 -0.87007258
vn 0.45080801 -0.21596901 -0.86610019
vn 0.47408181 -0.23201240 -0.84936252
vn 0.47848020 -0.23799485 -0.84523083
vn 0.43212231 -0.23531860 -0.87057192
vn 0.43460406 -0.23031065 -0.87067578
vn 0.44141369 -0.25835034 -0.85930731
vn 0.47848020 -0.23799485 -0.84523083
vn 0.53044501 -0.27382655 -0.80227621
vn 0.41921861 -0.25706337 -0.87073198
vn 0.43212231 -0.23531860 -0.87057192
vn 0.43839455 -0.26193684 -0.85976701
vn 0.44141369 -0.25835034 -0.85930731
vn 0.41112237 -0.27621859 -0.86872417
vn 0.41220160 -0.26728397 -0.87100466
vn 0.41665323 -0.26032801 -0.87099335
vn 0.41921861 -0.25706337 -0.87073198
vn 0.43839455 -0.26193684 -0.85976701
vn 0.45621363 -0.28639234 -0.84252510
vn 0.39251467 -0.29431113 -0.87138579
vn 0.39953107 -0.28363420 -0.87173767
vn 0.40259275 -0.28030969 -0.87140436
vn 0.40786451 -0.27966664 -0.86915655
vn 0.42072409 -0.30501955 -0.85437364
vn 0.38641522 -0.30163132 -0.87160876
vn 0.39251467 -0.29431113 -0.87138579
vn 0.39507684 -0.32401021 -0.85961135
vn 0.41788152 -0.34458025 -0.84061851
vn 0.42072409 -0.30501955 -0.85437364
vn 0.46530860 -0.34282803 -0.81606180
vn 0.47280405 -0.35884513 -0.80478973
vn 0.37313225 -0.31474783 -0.87275777
vn 0.37638224 -0.31791100 -0.87021205
vn 0.38641522 -0.30163132 -0.87160876
vn 0.39507684 -0.32401021 -0.85961135
vn 0.35718849 -0.33116272 -0.87335424
vn 0.35867876 -0.32414624 -0.87537350
vn 0.36035300 -0.33429407 -0.87085773
vn 0.37313225 -0.31474783 -0.87275777
vn 0.37638224 -0.31791100 -0.87021205
vn 0.38373259 -0.34109299 -0.85814036
vn 0.33732731 -0.33369740 -0.88025924
vn 0.33905001 -0.33542384 -0.87894024
vn 0.35718849 -0.33116272 -0.87335424
vn 0.35867876 -0.32414624 -0.87537350
vn 0.30531995 -0.34095850 -0.88911587
vn 0.30929327 -0.35363685 -0.88276761
vn 0.31339432 -0.35588064 -0.88041636
vn 0.33540611 -0.35109774 -0.87420428
vn 0.33732731 -0.33369740 -0.88025924
vn 0.33905001 -0.33542384 -0.87894024
vn 0.30531995 -0.34095850 -0.88911587
vn 0.30929327 -0.35363685 -0.88276761
vn -1.00000000 0.00000000 0.00000000
vn 0.43703019 -0.62596907 -0.64588493
vn 0.45674983 -0.63617299 -0.62182274
vn 0.46629172 -0.72068084 -0.51302160
vn 0.47420614 -0.65593543 -0.58726250
vn -1.00000000 0.00000000 0.00000000
vn 0.45496166 -0.57851644 -0.67699972
vn 0.45674983 -0.63617299 -0.62182274
vn 0.45881322 -0.57522609 -0.67720409
vn 0.47420614 -0.65593543 -0.58726250
vn 0.48246477 -0.58276890 -0.65391755
vn 0.52168202 -0.70126471 -0.48587620
vn 0.52302552 -0.70010424 -0.48610530
vn 0.53409490 -0.68538531 -0.49496426
vn 0.54170191 -0.67269566 -0.50402341
vn 0.54943079 -0.65049289 -0.52438994
vn 0.52168202 -0.70126471 -0.48587620
vn 0.52179482 -0.70249273 -0.48397740
vn 0.52191997 -0.70270136 -0.48353939
vn 0.52302552 -0.70010424 -0.48610530
vn -0.00000000 0.00000000 1.00000000
vn 0.53409490 -0.68538531 -0.49496426
vn 0.54170191 -0.67269566 -0.50402341
vn 0.57025901 -0.64617818 -0.50720648
vn 0.59963226 -0.63281894 -0.48987890
vn 0.61136653 -0.63510283 -0.47209677
vn 0.66697002 -0.22937416 -0.70889949
vn 0.66924889 -0.24362283 -0.70196428
vn 0.67572567 -0.21915000 -0.70382391
vn 0.70705254 -0.27451321 -0.65170484
vn 0.80825925 -0.21128733 -0.54961318
vn 0.81150975 -0.21277069 -0.54422472
vn 0.82233199 -0.26012694 -0.50606726
vn 0.82997857 -0.23023516 -0.50806234
vn 0.83278947 -0.24110109 -0.49832918
vn 0.62424506 -0.19134523 -0.75743323
vn 0.63378130 -0.20738515 -0.74519304
vn 0.66195730 -0.22950939 -0.71353905
vn 0.66697002 -0.22937416 -0.70889949
vn 0.67572567 -0.21915000 -0.70382391
vn 0.67962755 -0.19235620 -0.70788804
vn -0.00000000 0.00000000 1.00000000
vn -0.00000000 0.00000000 1.00000000
vn 0.84190820 -0.22677720 -0.48965567
vn 0.84347248 -0.21886001 -0.49056546
vn -0.00000000 0.00000000 1.00000000
vn 0.84156145 -0.22715396 -0.49007694
vn 0.84190820 -0.22677720 -0.48965567
vn 0.84571785 -0.24929310 -0.47182016
vn 0.84984592 -0.25427418 -0.46163465
vn 0.82997857 -0.23023516 -0.50806234
vn 0.83278947 -0.24110109 -0.49832918
vn 0.84156145 -0.22715396 -0.49007694
vn 0.84571785 -0.24929310 -0.47182016
vn 0.48444186 -0.19298821 -0.85327114
vn 0.50508226 -0.21665344 -0.83543593
vn 0.54605938 -0.24241445 -0.80190672
vn 0.55063198 -0.24455832 -0.79812008
vn 0.63378130 -0.20738515 -0.74519304
vn 0.65573424 -0.25233791 -0.71157444
vn 0.66195730 -0.22950939 -0.71353905
vn 0.66423966 -0.24357304 -0.70672332
vn 0.44753323 -0.20802457 -0.86973547
vn 0.45080801 -0.21596901 -0.86610019
vn 0.47408181 -0.23201240 -0.84936252
vn 0.50508226 -0.21665344 -0.83543593
vn 0.54605938 -0.24241445 -0.80190672
vn 0.44384718 -0.21441407 -0.87007258
vn 0.44677667 -0.20745737 -0.87025976
vn 0.44753323 -0.20802457 -0.86973547
vn 0.45080801 -0.21596901 -0.86610019
vn 0.40259275 -0.28030969 -0.87140436
vn 0.40786451 -0.27966664 -0.86915655
vn 0.41112237 -0.27621859 -0.86872417
vn 0.41220160 -0.26728397 -0.87100466
vn 0.47408181 -0.23201240 -0.84936252
vn 0.47848020 -0.23799485 -0.84523083
vn 0.53044501 -0.27382655 -0.80227621
vn 0.53767853 -0.27749073 -0.79617881
vn 0.54605938 -0.24241445 -0.80190672
vn 0.55063198 -0.24455832 -0.79812008
vn 0.60871346 -0.28472681 -0.74053937
vn 0.43839455 -0.26193684 -0.85976701
vn 0.44141369 -0.25835034 -0.85930731
vn 0.45621363 -0.28639234 -0.84252510
vn 0.53044501 -0.27382655 -0.80227621
vn 0.53767853 -0.27749073 -0.79617881
vn 0.54149823 -0.35364360 -0.76270300
vn 0.60626192 -0.36093530 -0.70864109
vn 0.60913817 -0.32795570 -0.72207738
vn 0.61192644 -0.35527644 -0.70662910
vn 0.40786451 -0.27966664 -0.86915655
vn 0.41112237 -0.27621859 -0.86872417
vn 0.42072409 -0.30501955 -0.85437364
vn 0.45621363 -0.28639234 -0.84252510
vn 0.46530860 -0.34282803 -0.81606180
vn 0.54149823 -0.35364360 -0.76270300
vn 0.54413138 -0.35832253 -0.75863430
vn 0.46530860 -0.34282803 -0.81606180
vn 0.47280405 -0.35884513 -0.80478973
vn 0.54413138 -0.35832253 -0.75863430
vn 0.54768633 -0.42529539 -0.72053002
vn 0.56292403 -0.42542673 -0.70861036
vn 0.58613964 -0.39245434 -0.70881585
vn 0.58684422 -0.40179096 -0.70297787
vn 0.41788152 -0.34458025 -0.84061851
vn 0.42550018 -0.36247445 -0.82919351
vn 0.47280405 -0.35884513 -0.80478973
vn 0.51360374 -0.44424179 -0.73407114
vn 0.53942498 -0.45152185 -0.71073815
vn 0.54768633 -0.42529539 -0.72053002
vn 0.54873178 -0.44360353 -0.70859674
vn 0.37638224 -0.31791100 -0.87021205
vn 0.38373259 -0.34109299 -0.85814036
vn 0.39507684 -0.32401021 -0.85961135
vn 0.39747438 -0.35409356 -0.84654112
vn 0.41788152 -0.34458025 -0.84061851
vn 0.42550018 -0.36247445 -0.82919351
vn 0.36035300 -0.33429407 -0.87085773
vn 0.36815712 -0.36167653 -0.85653396
vn 0.38202628 -0.37537416 -0.84448219
vn 0.38373259 -0.34109299 -0.85814036
vn 0.39747438 -0.35409356 -0.84654112
vn 0.40916301 -0.38441471 -0.82753305
vn 0.33540611 -0.35109774 -0.87420428
vn 0.33735638 -0.35303832 -0.87267097
vn 0.33905001 -0.33542384 -0.87894024
vn 0.35718849 -0.33116272 -0.87335424
vn 0.36035300 -0.33429407 -0.87085773
vn 0.36815712 -0.36167653 -0.85653396
vn 0.30638592 -0.38306933 -0.87142731
vn 0.30654923 -0.38417600 -0.87088253
vn 0.30656509 -0.38418920 -0.87087112
vn 0.31339432 -0.35588064 -0.88041636
vn 0.33172561 -0.39218851 -0.85798968
vn 0.33540611 -0.35109774 -0.87420428
vn 0.33735638 -0.35303832 -0.87267097
vn 0.34497323 -0.37947280 -0.85848347
vn 0.30638592 -0.38306933 -0.87142731
vn 0.30929327 -0.35363685 -0.88276761
vn 0.31339432 -0.35588064 -0.88041636
vn -1.00000000 0.00000000 0.00000000
vn 0.41976247 -0.59474048 -0.68562616
vn 0.43703019 -0.62596907 -0.64588493
vn 0.43711222 -0.59013553 -0.67872894
vn -1.00000000 0.00000000 0.00000000
vn 0.43703019 -0.62596907 -0.64588493
vn 0.43711222 -0.59013553 -0.67872894
vn 0.44455474 -0.58124757 -0.68155876
vn 0.45496166 -0.57851644 -0.67699972
vn 0.45674983 -0.63617299 -0.62182274
vn 0.54170191 -0.67269566 -0.50402341
vn 0.54943079 -0.65049289 -0.52438994
vn 0.57025901 -0.64617818 -0.50720648
vn 0.43939169 -0.55969176 -0.70262371
vn 0.44455474 -0.58124757 -0.68155876
vn 0.45496166 -0.57851644 -0.67699972
vn 0.45881322 -0.57522609 -0.67720409
vn 0.46146641 -0.56608895 -0.68307543
vn 0.45881322 -0.57522609 -0.67720409
vn 0.46146641 -0.56608895 -0.68307543
vn 0.47409495 -0.55487252 -0.68363036
vn 0.48246477 -0.58276890 -0.65391755
vn 0.47409495 -0.55487252 -0.68363036
vn 0.48246477 -0.58276890 -0.65391755
vn 0.48980788 -0.52148718 -0.69866971
vn 0.50893278 -0.50261571 -0.69883108
vn 0.53141651 -0.50924394 -0.67695428
vn 0.54943079 -0.65049289 -0.52438994
vn 0.57025901 -0.64617818 -0.50720648
vn 0.59963226 -0.63281894 -0.48987890
vn 0.61462683 -0.61513578 -0.49380343
vn 0.61703946 -0.59464291 -0.51542422
vn 0.59963226 -0.63281894 -0.48987890
vn 0.61136653 -0.63510283 -0.47209677
vn 0.61462683 -0.61513578 -0.49380343
vn 0.61544587 -0.61976722 -0.48694453
vn 0.61560056 -0.61509364 -0.49264161
vn -0.00000000 0.00000000 1.00000000
vn 0.61136653 -0.63510283 -0.47209677
vn 0.61544587 -0.61976722 -0.48694453
vn 0.82233199 -0.26012694 -0.50606726
vn 0.82712681 -0.29589556 -0.47781488
vn 0.83278947 -0.24110109 -0.49832918
vn 0.84571785 -0.24929310 -0.47182016
vn 0.84579784 -0.28852145 -0.44875537
vn 0.84984592 -0.25427418 -0.46163465
vn 0.85201103 -0.26560419 -0.45114480
vn 0.70705254 -0.27451321 -0.65170484
vn 0.71340517 -0.28874392 -0.63849825
vn 0.75499538 -0.32288368 -0.57072595
vn 0.77693389 -0.33382638 -0.53379180
vn 0.80097589 -0.32790162 -0.50091730
vn 0.82233199 -0.26012694 -0.50606726
vn 0.82712681 -0.29589556 -0.47781488
vn 0.64883715 -0.28856127 -0.70409001
vn 0.65573424 -0.25233791 -0.71157444
vn 0.66423966 -0.24357304 -0.70672332
vn 0.66924889 -0.24362283 -0.70196428
vn 0.70705254 -0.27451321 -0.65170484
vn 0.71340517 -0.28874392 -0.63849825
vn 0.66195730 -0.22950939 -0.71353905
vn 0.66423966 -0.24357304 -0.70672332
vn 0.66697002 -0.22937416 -0.70889949
vn 0.66924889 -0.24362283 -0.70196428
vn -0.00000000 0.00000000 1.00000000
vn 0.84984592 -0.25427418 -0.46163465
vn 0.85201103 -0.26560419 -0.45114480
vn 0.55063198 -0.24455832 -0.79812008
vn 0.60871346 -0.28472681 -0.74053937
vn 0.63507894 -0.29790819 -0.71268889
vn 0.63856379 -0.29788627 -0.70957738
vn 0.64883715 -0.28856127 -0.70409001
vn 0.65573424 -0.25233791 -0.71157444
vn 0.53767853 -0.27749073 -0.79617881
vn 0.60871346 -0.28472681 -0.74053937
vn 0.60913817 -0.32795570 -0.72207738
vn 0.61717603 -0.32794507 -0.71522428
vn 0.63123088 -0.31584601 -0.70837058
vn 0.63507894 -0.29790819 -0.71268889
vn 0.60913817 -0.32795570 -0.72207738
vn 0.61192644 -0.35527644 -0.70662910
vn 0.61717603 -0.32794507 -0.71522428
vn 0.61994029 -0.35531263 -0.69959057
vn 0.59882055 -0.38922180 -0.69994310
vn 0.60626192 -0.36093530 -0.70864109
vn 0.61192644 -0.35527644 -0.70662910
vn 0.61994029 -0.35531263 -0.69959057
vn 0.62432926 -0.35905495 -0.69375249
vn 0.63586313 -0.39123425 -0.66529230
vn 0.54149823 -0.35364360 -0.76270300
vn 0.54413138 -0.35832253 -0.75863430
vn 0.58613964 -0.39245434 -0.70881585
vn 0.59519920 -0.39253138 -0.70118260
vn 0.59882055 -0.38922180 -0.69994310
vn 0.60626192 -0.36093530 -0.70864109
vn 0.58613964 -0.39245434 -0.70881585
vn 0.58684422 -0.40179096 -0.70297787
vn 0.59519920 -0.39253138 -0.70118260
vn 0.59587906 -0.40183358 -0.69531139
vn 0.56292403 -0.42542673 -0.70861036
vn 0.56388869 -0.44393521 -0.69638428
vn 0.56687233 -0.44637563 -0.69239046
vn 0.58684422 -0.40179096 -0.70297787
vn 0.59587906 -0.40183358 -0.69531139
vn 0.64743264 -0.44829659 -0.61632876
vn 0.54768633 -0.42529539 -0.72053002
vn 0.54873178 -0.44360353 -0.70859674
vn 0.56292403 -0.42542673 -0.70861036
vn 0.56388869 -0.44393521 -0.69638428
vn 0.53552127 -0.46659317 -0.70392314
vn 0.53942498 -0.45152185 -0.71073815
vn 0.54873178 -0.44360353 -0.70859674
vn 0.56388869 -0.44393521 -0.69638428
vn 0.56687233 -0.44637563 -0.69239046
vn 0.57632534 -0.47100164 -0.66783723
vn 0.51360374 -0.44424179 -0.73407114
vn 0.52453400 -0.47839970 -0.70427111
vn 0.53552127 -0.46659317 -0.70392314
vn 0.53942498 -0.45152185 -0.71073815
vn 0.39747438 -0.35409356 -0.84654112
vn 0.40916301 -0.38441471 -0.82753305
vn 0.42550018 -0.36247445 -0.82919351
vn 0.50210102 -0.47468593 -0.72288854
vn 0.51360374 -0.44424179 -0.73407114
vn 0.52196362 -0.48118342 -0.70428438
vn 0.52445928 -0.47857793 -0.70420568
vn 0.52453400 -0.47839970 -0.70427111
vn 0.38202628 -0.37537416 -0.84448219
vn 0.38933062 -0.39602870 -0.83161466
vn 0.40916301 -0.38441471 -0.82753305
vn 0.47673504 -0.48416147 -0.73369706
vn 0.50210102 -0.47468593 -0.72288854
vn 0.50933412 -0.49577116 -0.70341291
vn 0.33735638 -0.35303832 -0.87267097
vn 0.34497323 -0.37947280 -0.85848347
vn 0.36815712 -0.36167653 -0.85653396
vn 0.38202628 -0.37537416 -0.84448219
vn 0.38933062 -0.39602870 -0.83161466
vn 0.33172561 -0.39218851 -0.85798968
vn 0.34497323 -0.37947280 -0.85848347
vn 0.34976119 -0.45995681 -0.81615369
vn 0.38933062 -0.39602870 -0.83161466
vn 0.43939169 -0.55969176 -0.70262371
vn 0.46146641 -0.56608895 -0.68307543
vn 0.47409495 -0.55487252 -0.68363036
vn 0.47673504 -0.48416147 -0.73369706
vn 0.48980788 -0.52148718 -0.69866971
vn 0.30656509 -0.38418920 -0.87087112
vn 0.32663582 -0.44836846 -0.83203051
vn 0.33172561 -0.39218851 -0.85798968
vn 0.34666603 -0.45854356 -0.81826675
vn 0.34976119 -0.45995681 -0.81615369
vn 0.30654923 -0.38417600 -0.87088253
vn 0.30656509 -0.38418920 -0.87087112
vn 0.32663582 -0.44836846 -0.83203051
vn -1.00000000 0.00000000 0.00000000
vn 0.30638592 -0.38306933 -0.87142731
vn 0.30654923 -0.38417600 -0.87088253
vn -1.00000000 0.00000000 0.00000000
vn 0.36983611 -0.58965696 -0.71800134
vn 0.41976247 -0.59474048 -0.68562616
vn -1.00000000 0.00000000 0.00000000
vn 0.34666603 -0.45854356 -0.81826675
vn 0.34976119 -0.45995681 -0.81615369
vn 0.36983611 -0.58965696 -0.71800134
vn 0.41976247 -0.59474048 -0.68562616
vn 0.43711222 -0.59013553 -0.67872894
vn 0.43939169 -0.55969176 -0.70262371
vn 0.44455474 -0.58124757 -0.68155876
vn 0.47673504 -0.48416147 -0.73369706
vn 0.48980788 -0.52148718 -0.69866971
vn 0.50893278 -0.50261571 -0.69883108
vn 0.50933412 -0.49577116 -0.70341291
vn 0.51016675 -0.49661102 -0.70221605
vn 0.50893278 -0.50261571 -0.69883108
vn 0.51016675 -0.49661102 -0.70221605
vn 0.51938792 -0.49453624 -0.69690035
vn 0.53038305 -0.50571296 -0.68040299
vn 0.53141651 -0.50924394 -0.67695428
vn 0.53038305 -0.50571296 -0.68040299
vn 0.53141651 -0.50924394 -0.67695428
vn 0.53350966 -0.50668288 -0.67722958
vn 0.61703946 -0.59464291 -0.51542422
vn 0.62115686 -0.59409323 -0.51109431
vn 0.61462683 -0.61513578 -0.49380343
vn 0.61560056 -0.61509364 -0.49264161
vn 0.61703946 -0.59464291 -0.51542422
vn 0.62115686 -0.59409323 -0.51109431
vn 0.62422593 -0.59531746 -0.50590425
vn 0.62838132 -0.60224215 -0.49238329
vn -0.00000000 0.00000000 1.00000000
vn 0.61544587 -0.61976722 -0.48694453
vn 0.61560056 -0.61509364 -0.49264161
vn 0.62838132 -0.60224215 -0.49238329
vn 0.62997607 -0.60262347 -0.48987255
vn -0.00000000 0.00000000 1.00000000
vn 0.84579784 -0.28852145 -0.44875537
vn 0.84993359 -0.29055862 -0.43953222
vn 0.85201103 -0.26560419 -0.45114480
vn 0.79485019 -0.34802056 -0.49708638
vn 0.79645921 -0.34840345 -0.49423452
vn 0.80097589 -0.32790162 -0.50091730
vn 0.82712681 -0.29589556 -0.47781488
vn 0.84579784 -0.28852145 -0.44875537
vn 0.84925858 -0.33042157 -0.41180268
vn 0.84993359 -0.29055862 -0.43953222
vn 0.85459718 -0.31295921 -0.41439135
vn 0.77693389 -0.33382638 -0.53379180
vn 0.79265848 -0.34915777 -0.49978135
vn 0.79361677 -0.34914950 -0.49826404
vn 0.79485019 -0.34802056 -0.49708638
vn 0.80097589 -0.32790162 -0.50091730
vn 0.68423650 -0.32863023 -0.65101658
vn 0.71641979 -0.35589100 -0.60007023
vn 0.75499538 -0.32288368 -0.57072595
vn 0.75502026 -0.37522053 -0.53773039
vn 0.77693389 -0.33382638 -0.53379180
vn 0.78239033 -0.36889560 -0.50177824
vn 0.78596672 -0.36559924 -0.49859152
vn 0.79265848 -0.34915777 -0.49978135
vn 0.79338903 -0.35635126 -0.49350544
vn 0.63856379 -0.29788627 -0.70957738
vn 0.64883715 -0.28856127 -0.70409001
vn 0.66048660 -0.31684002 -0.68071275
vn 0.68423650 -0.32863023 -0.65101658
vn 0.71340517 -0.28874392 -0.63849825
vn 0.75499538 -0.32288368 -0.57072595
vn 0.63123088 -0.31584601 -0.70837058
vn 0.63507894 -0.29790819 -0.71268889
vn 0.63856379 -0.29788627 -0.70957738
vn 0.66048660 -0.31684002 -0.68071275
vn 0.61717603 -0.32794507 -0.71522428
vn 0.61994029 -0.35531263 -0.69959057
vn 0.62432926 -0.35905495 -0.69375249
vn 0.63123088 -0.31584601 -0.70837058
vn 0.66048660 -0.31684002 -0.68071275
vn 0.68423650 -0.32863023 -0.65101658
vn 0.71641979 -0.35589100 -0.60007023
vn 0.59519920 -0.39253138 -0.70118260
vn 0.59587906 -0.40183358 -0.69531139
vn 0.59882055 -0.38922180 -0.69994310
vn 0.63586313 -0.39123425 -0.66529230
vn 0.64743264 -0.44829659 -0.61632876
vn 0.67022750 -0.45984394 -0.58252782
vn 0.70426916 -0.45554368 -0.54450428
vn 0.62432926 -0.35905495 -0.69375249
vn 0.63586313 -0.39123425 -0.66529230
vn 0.70426916 -0.45554368 -0.54450428
vn 0.71260203 -0.45943253 -0.53020760
vn 0.71641979 -0.35589100 -0.60007023
vn 0.73046473 -0.45554359 -0.50882346
vn 0.74164513 -0.44757329 -0.49964052
vn 0.75502026 -0.37522053 -0.53773039
vn 0.76617545 -0.38487583 -0.51463168
vn 0.76831461 -0.41794755 -0.48478088
vn 0.56687233 -0.44637563 -0.69239046
vn 0.57632534 -0.47100164 -0.66783723
vn 0.64743264 -0.44829659 -0.61632876
vn 0.65823862 -0.55187050 -0.51201647
vn 0.67022750 -0.45984394 -0.58252782
vn 0.67342006 -0.54703800 -0.49724727
vn 0.70402671 -0.49503374 -0.50920329
vn 0.70399630 -0.51204334 -0.49213904
vn 0.52445928 -0.47857793 -0.70420568
vn 0.52453400 -0.47839970 -0.70427111
vn 0.53350966 -0.50668288 -0.67722958
vn 0.53552127 -0.46659317 -0.70392314
vn 0.57632534 -0.47100164 -0.66783723
vn 0.62115686 -0.59409323 -0.51109431
vn 0.62422593 -0.59531746 -0.50590425
vn 0.63555752 -0.59182149 -0.49579629
vn 0.65564517 -0.57047902 -0.49465453
vn 0.65794667 -0.56646632 -0.49620770
vn 0.65823862 -0.55187050 -0.51201647
vn 0.51938792 -0.49453624 -0.69690035
vn 0.52196362 -0.48118342 -0.70428438
vn 0.52445928 -0.47857793 -0.70420568
vn 0.53038305 -0.50571296 -0.68040299
vn 0.53350966 -0.50668288 -0.67722958
vn 0.50210102 -0.47468593 -0.72288854
vn 0.50933412 -0.49577116 -0.70341291
vn 0.51016675 -0.49661102 -0.70221605
vn 0.51938792 -0.49453624 -0.69690035
vn 0.52196362 -0.48118342 -0.70428438
vn 0.32663582 -0.44836846 -0.83203051
vn 0.34666603 -0.45854356 -0.81826675
vn 0.36983611 -0.58965696 -0.71800134
vn -1.00000000 0.00000000 0.00000000
vn 0.62422593 -0.59531746 -0.50590425
vn 0.62838132 -0.60224215 -0.49238329
vn 0.62997607 -0.60262347 -0.48987255
vn 0.63555752 -0.59182149 -0.49579629
vn 0.63811998 -0.59420762 -0.48961229
vn -0.00000000 0.00000000 1.00000000
vn 0.62997607 -0.60262347 -0.48987255
vn 0.63811998 -0.59420762 -0.48961229
vn 0.65019070 -0.59257807 -0.47550319
vn -0.00000000 0.00000000 1.00000000
vn 0.84993359 -0.29055862 -0.43953222
vn 0.85459718 -0.31295921 -0.41439135
vn -0.00000000 0.00000000 1.00000000
vn -0.00000000 0.00000000 1.00000000
vn 0.84925858 -0.33042157 -0.41180268
vn 0.85459718 -0.31295921 -0.41439135
vn -0.00000000 0.00000000 1.00000000
vn -0.00000000 0.00000000 1.00000000
vn 0.79645921 -0.34840345 -0.49423452
vn 0.84925858 -0.33042157 -0.41180268
vn -0.00000000 0.00000000 1.00000000
vn 0.79361677 -0.34914950 -0.49826404
vn 0.79434773 -0.35633765 -0.49197070
vn 0.79485019 -0.34802056 -0.49708638
vn 0.79645921 -0.34840345 -0.49423452
vn 0.80090008 -0.36122419 -0.47757319
vn 0.79265848 -0.34915777 -0.49978135
vn 0.79338903 -0.35635126 -0.49350544
vn 0.79361677 -0.34914950 -0.49826404
vn 0.79434773 -0.35633765 -0.49197070
vn 0.78596672 -0.36559924 -0.49859152
vn 0.79338903 -0.35635126 -0.49350544
vn 0.79434773 -0.35633765 -0.49197070
vn 0.80090008 -0.36122419 -0.47757319
vn -0.00000000 0.00000000 1.00000000
vn 0.78234267 -0.36896418 -0.50180213
vn 0.78239033 -0.36889560 -0.50177824
vn 0.78596672 -0.36559924 -0.49859152
vn 0.80090008 -0.36122419 -0.47757319
vn 0.75502026 -0.37522053 -0.53773039
vn 0.76617545 -0.38487583 -0.51463168
vn 0.76856847 -0.38478085 -0.51112249
vn 0.78234267 -0.36896418 -0.50180213
vn 0.78239033 -0.36889560 -0.50177824
vn 0.67022750 -0.45984394 -0.58252782
vn 0.70402671 -0.49503374 -0.50920329
vn 0.70426916 -0.45554368 -0.54450428
vn 0.71129871 -0.49472100 -0.49930480
vn 0.71260203 -0.45943253 -0.53020760
vn 0.72035993 -0.46610651 -0.51364023
vn 0.72111893 -0.47216259 -0.50700096
vn 0.72123863 -0.48289990 -0.49661104
vn 0.76617545 -0.38487583 -0.51463168
vn 0.76831461 -0.41794755 -0.48478088
vn 0.76856847 -0.38478085 -0.51112249
vn 0.76880334 -0.38596097 -0.50987798
vn 0.77076049 -0.41776340 -0.48104263
vn 0.74164513 -0.44757329 -0.49964052
vn 0.74308375 -0.44766288 -0.49741782
vn 0.76831461 -0.41794755 -0.48478088
vn 0.77076049 -0.41776340 -0.48104263
vn 0.77875074 -0.42390768 -0.46243872
vn 0.78087476 -0.43625584 -0.44711906
vn -0.00000000 0.00000000 1.00000000
vn 0.72035993 -0.46610651 -0.51364023
vn 0.72111893 -0.47216259 -0.50700096
vn 0.73046473 -0.45554359 -0.50882346
vn 0.74164513 -0.44757329 -0.49964052
vn 0.74308375 -0.44766288 -0.49741782
vn 0.71260203 -0.45943253 -0.53020760
vn 0.72035993 -0.46610651 -0.51364023
vn 0.73046473 -0.45554359 -0.50882346
vn 0.67329509 -0.55221608 -0.49166160
vn 0.67342006 -0.54703800 -0.49724727
vn 0.70399630 -0.51204334 -0.49213904
vn 0.70649449 -0.55526429 -0.43880189
vn 0.70823852 -0.55305600 -0.43877928
vn 0.71116018 -0.51163270 -0.48216510
vn 0.71241443 -0.51304306 -0.47880320
vn 0.65794667 -0.56646632 -0.49620770
vn 0.65823862 -0.55187050 -0.51201647
vn 0.65832423 -0.56628203 -0.49591719
vn 0.67329509 -0.55221608 -0.49166160
vn 0.67342006 -0.54703800 -0.49724727
vn 0.70402671 -0.49503374 -0.50920329
vn 0.70399630 -0.51204334 -0.49213904
vn 0.71116018 -0.51163270 -0.48216510
vn 0.71129871 -0.49472100 -0.49930480
vn -0.00000000 0.00000000 1.00000000
vn 0.65019070 -0.59257807 -0.47550319
vn 0.65564517 -0.57047902 -0.49465453
vn 0.65794667 -0.56646632 -0.49620770
vn 0.65832423 -0.56628203 -0.49591719
vn 0.63555752 -0.59182149 -0.49579629
vn 0.63811998 -0.59420762 -0.48961229
vn 0.65019070 -0.59257807 -0.47550319
vn 0.65564517 -0.57047902 -0.49465453
vn -0.00000000 0.00000000 1.00000000
vn 0.76856847 -0.38478085 -0.51112249
vn 0.76880334 -0.38596097 -0.50987798
vn 0.78234267 -0.36896418 -0.50180213
vn -0.00000000 0.00000000 1.00000000
vn 0.72111893 -0.47216259 -0.50700096
vn 0.72123863 -0.48289990 -0.49661104
vn 0.75257266 -0.50729289 -0.41986701
vn 0.71116018 -0.51163270 -0.48216510
vn 0.71129871 -0.49472100 -0.49930480
vn 0.71241443 -0.51304306 -0.47880320
vn 0.72077013 -0.51816578 -0.46042876
vn 0.72123863 -0.48289990 -0.49661104
vn 0.73652020 -0.52649491 -0.42466586
vn 0.75253374 -0.50750935 -0.41967515
vn 0.75257266 -0.50729289 -0.41986701
vn -0.00000000 0.00000000 1.00000000
vn 0.76880334 -0.38596097 -0.50987798
vn 0.77076049 -0.41776340 -0.48104263
vn 0.77875074 -0.42390768 -0.46243872
vn -0.00000000 0.00000000 1.00000000
vn 0.74308375 -0.44766288 -0.49741782
vn 0.78087476 -0.43625584 -0.44711906
vn -0.00000000 0.00000000 1.00000000
vn 0.77875074 -0.42390768 -0.46243872
vn 0.78087476 -0.43625584 -0.44711906
vn -0.00000000 0.00000000 1.00000000
vn 0.70823852 -0.55305600 -0.43877928
vn 0.71241443 -0.51304306 -0.47880320
vn 0.72077013 -0.51816578 -0.46042876
vn -0.00000000 0.00000000 1.00000000
vn 0.70649449 -0.55526429 -0.43880189
vn 0.70823852 -0.55305600 -0.43877928
vn -0.00000000 0.00000000 1.00000000
vn 0.65832423 -0.56628203 -0.49591719
vn 0.67329509 -0.55221608 -0.49166160
vn 0.70649449 -0.55526429 -0.43880189
vn -0.00000000 0.00000000 1.00000000
vn 0.75253374 -0.50750935 -0.41967515
vn 0.75257266 -0.50729289 -0.41986701
vn 0.00000000 -0.00000000 1.00000000
vn 0.73652020 -0.52649491 -0.42466586
vn 0.75253374 -0.50750935 -0.41967515
vn 0.00000000 0.00000000 1.00000000
vn 0.72077013 -0.51816578 -0.46042876
vn 0.73652020 -0.52649491 -0.42466586
f 5//5 13//13 16//16
f 1//1 15//15 38//38
f 1//1 38//38 78//78
f 1//1 78//78 133//133
f 1//1 133//133 213//213
f 1//1 213//213 305//305
f 1//1 305//305 424//424
f 1//1 424//424 573//573
f 1//1 573//573 731//731
f 1//1 731//731 884//884
f 1//1 884//884 987//987
f 1//1 987//987 1070//1070
f 1//1 1070//1070 1112//1112
f 1//1 1112//1112 1109//1109
f 1//1 1109//1109 1105//1105
f 1//1 1105//1105 1122//1122
f 1//1 1122//1122 1119//1119
f 1//1 1119//1119 1116//1116
f 1//1 1116//1116 1083//1083
f 1//1 1083//1083 1045//1045
f 1//1 1045//1045 1099//1099
f 1//1 1099//1099 1102//1102
f 1//1 1102//1102 1095//1095
f 1//1 1095//1095 1079//1079
f 1//1 1079//1079 1016//1016
f 1//1 1016//1016 1002//1002
f 1//1 1002//1002 999//999
f 1//1 999//999 995//995
f 7//7 998//998 994//994
f 1//1 991//991 889//889
f 1//1 889//889 758//758
f 1//1 758//758 598//598
f 1//1 598//598 594//594
f 3//3 595//595 454//454
f 8//8 458//458 453//453
f 1//1 450//450 447//447
f 1//1 447//447 330//330
f 1//1 330//330 327//327
f 1//1 327//327 308//308
f 1//1 308//308 217//217
f 2//2 218//218 136//136
f 7//7 139//139 85//85
f 1//1 81//81 40//40
f 1//1 40//40 17//17
f 6//6 20//20 26//26
f 4//4 24//24 12//12
f 9//9 27//27 55//55
f 9//9 55//55 72//72
f 9//9 72//72 127//127
f 9//9 127//127 123//123
f 9//9 123//123 193//193
f 9//9 193//193 248//248
f 9//9 248//248 198//198
f 9//9 198//198 130//130
f 9//9 130//130 75//75
f 9//9 75//75 37//37
f 9//9 37//37 14//14
f 11//11 22//22 36//36
f 10//10 35//35 29//29
f 19//19 41//41 48//48
f 18//18 47//47 25//25
f 23//23 45//45 54//54
f 21//21 52//52 34//34
f 28//28 33//33 57//57
f 32//32 51//51 64//64
f 30//30 62//62 70//70
f 31//31 71//71 74//74
f 31//31 74//74 56//56
f 39//39 76//76 79//79
f 43//43 82//82 90//90
f 42//42 89//89 49//49
f 46//46 87//87 97//97
f 44//44 95//95 53//53
f 50//50 94//94 63//63
f 59//59 102//102 68//68
f 61//61 93//93 109//109
f 60//60 104//104 116//116
f 58//58 114//114 101//101
f 66//66 122//122 125//125
f 67//67 126//126 128//128
f 69//69 129//129 73//73
f 65//65 100//100 121//121
f 77//77 132//132 208//208
f 77//77 208//208 293//293
f 77//77 293//293 409//409
f 77//77 409//409 553//553
f 77//77 553//553 694//694
f 77//77 694//694 852//852
f 77//77 852//852 849//849
f 77//77 849//849 981//981
f 77//77 981//981 855//855
f 77//77 855//855 698//698
f 77//77 698//698 558//558
f 77//77 558//558 413//413
f 77//77 413//413 296//296
f 77//77 296//296 212//212
f 77//77 212//212 135//135
f 77//77 135//135 80//80
f 84//84 137//137 145//145
f 83//83 144//144 91//91
f 88//88 141//141 152//152
f 86//86 150//150 96//96
f 92//92 149//149 108//108
f 98//98 112//112 161//161
f 99//99 162//162 120//120
f 107//107 148//148 167//167
f 106//106 163//163 172//172
f 105//105 171//171 177//177
f 103//103 176//176 115//115
f 111//111 183//183 160//160
f 113//113 175//175 189//189
f 110//110 187//187 182//182
f 117//117 159//159 191//191
f 118//118 192//192 196//196
f 119//119 197//197 124//124
f 131//131 204//204 207//207
f 134//134 209//209 214//214
f 138//138 221//221 146//146
f 140//140 228//228 151//151
f 143//143 219//219 234//234
f 142//142 232//232 229//229
f 147//147 223//223 166//166
f 157//157 178//178 241//241
f 156//156 240//240 247//247
f 153//153 246//246 200//200
f 154//154 201//201 249//249
f 155//155 250//250 194//194
f 158//158 195//195 190//190
f 165//165 222//222 256//256
f 164//164 255//255 173//173
f 169//169 188//188 174//174
f 170//170 252//252 263//263
f 168//168 261//261 186//186
f 181//181 185//185 268//268
f 180//180 264//264 273//273
f 179//179 271//271 242//242
f 184//184 260//260 267//267
f 199//199 243//243 279//279
f 202//202 282//282 288//288
f 203//203 289//289 206//206
f 205//205 284//284 290//290
f 211//211 294//294 298//298
f 210//210 297//297 215//215
f 216//216 302//302 306//306
f 220//220 309//309 235//235
f 227//227 230//230 314//314
f 226//226 311//311 321//321
f 225//225 320//320 326//326
f 224//224 325//325 258//258
f 236//236 328//328 332//332
f 233//233 331//331 339//339
f 231//231 337//337 316//316
f 237//237 310//310 329//329
f 239//239 269//269 346//346
f 238//238 344//344 245//245
f 244//244 343//343 281//281
f 257//257 324//324 353//353
f 254//254 348//348 357//357
f 253//253 356//356 363//363
f 251//251 362//362 262//262
f 259//259 361//361 266//266
f 265//265 360//360 278//278
f 277//277 359//359 355//355
f 276//276 354//354 368//368
f 275//275 367//367 374//374
f 274//274 372//372 379//379
f 272//272 375//375 386//386
f 270//270 384//384 347//347
f 280//280 342//342 283//283
f 285//285 390//390 291//291
f 286//286 345//345 382//382
f 287//287 383//383 391//391
f 292//292 392//392 402//402
f 295//295 411//411 299//299
f 300//300 412//412 416//416
f 301//301 417//417 420//420
f 303//303 423//423 426//426
f 304//304 428//428 307//307
f 315//315 336//336 434//434
f 313//313 430//430 439//439
f 312//312 438//438 322//322
f 317//317 437//437 445//445
f 318//318 446//446 351//351
f 319//319 352//352 323//323
f 333//333 449//449 341//341
f 340//340 448//448 452//452
f 338//338 451//451 457//457
f 335//335 456//456 465//465
f 334//334 464//464 433//433
f 350//350 441//441 370//370
f 349//349 369//369 358//358
f 364//364 468//468 475//475
f 365//365 476//476 380//380
f 366//366 381//381 373//373
f 371//371 442//442 471//471
f 378//378 474//474 467//467
f 377//377 466//466 479//479
f 376//376 478//478 389//389
f 388//388 477//477 484//484
f 387//387 483//483 492//492
f 385//385 488//488 395//395
f 393//393 493//493 405//405
f 399//399 489//489 499//499
f 398//398 498//498 505//505
f 397//397 504//504 510//510
f 396//396 509//509 516//516
f 394//394 515//515 497//497
f 408//408 494//494 520//520
f 407//407 519//519 525//525
f 406//406 524//524 533//533
f 404//404 531//531 538//538
f 403//403 536//536 544//544
f 401//401 541//541 549//549
f 400//400 545//545 551//551
f 410//410 556//556 414//414
f 415//415 557//557 562//562
f 418//418 564//564 569//569
f 419//419 570//570 421//421
f 422//422 571//571 425//425
f 427//427 572//572 565//565
f 429//429 566//566 574//574
f 432//432 459//459 584//584
f 431//431 583//583 440//440
f 436//436 593//593 444//444
f 435//435 581//581 592//592
f 443//443 588//588 472//472
f 455//455 597//597 463//463
f 462//462 596//596 600//600
f 461//461 599//599 605//605
f 460//460 603//603 586//586
f 473//473 589//589 611//611
f 470//470 607//607 486//486
f 469//469 485//485 480//480
f 482//482 615//615 622//622
f 481//481 621//621 491//491
f 487//487 608//608 618//618
f 490//490 620//620 500//500
f 496//496 514//514 627//627
f 495//495 624//624 521//521
f 503//503 629//629 507//507
f 501//501 623//623 616//616
f 502//502 617//617 628//628
f 506//506 636//636 512//512
f 508//508 630//630 638//638
f 511//511 635//635 517//517
f 518//518 637//637 647//647
f 513//513 645//645 626//626
f 523//523 646//646 528//528
f 522//522 625//625 644//644
f 529//529 648//648 651//651
f 530//530 652//652 660//660
f 527//527 658//658 669//669
f 526//526 667//667 534//534
f 532//532 665//665 539//539
f 540//540 666//666 674//674
f 537//537 671//671 681//681
f 535//535 680//680 543//543
f 542//542 679//679 550//550
f 548//548 677//677 688//688
f 547//547 686//686 693//693
f 546//546 692//692 552//552
f 554//554 696//696 699//699
f 555//555 703//703 560//560
f 567//567 704//704 575//575
f 559//559 702//702 709//709
f 561//561 710//710 712//712
f 563//563 715//715 717//717
f 568//568 721//721 705//705
f 576//576 706//706 722//722
f 577//577 723//723 726//726
f 578//578 727//727 732//732
f 585//585 734//734 746//746
f 582//582 741//741 752//752
f 580//580 751//751 757//757
f 579//579 756//756 591//591
f 587//587 604//604 736//736
f 590//590 754//754 613//613
f 602//602 759//759 739//739
f 601//601 737//737 606//606
f 614//614 755//755 750//750
f 612//612 749//749 766//766
f 610//610 761//761 633//633
f 609//609 632//632 619//619
f 631//631 767//767 639//639
f 634//634 762//762 768//768
f 642//642 769//769 773//773
f 643//643 774//774 779//779
f 641//641 778//778 788//788
f 640//640 783//783 649//649
f 650//650 784//784 653//653
f 656//656 785//785 789//789
f 657//657 790//790 796//796
f 655//655 793//793 801//801
f 654//654 799//799 663//663
f 662//662 804//804 812//812
f 661//661 809//809 817//817
f 659//659 815//815 670//670
f 664//664 800//800 805//805
f 668//668 813//813 675//675
f 676//676 814//814 823//823
f 673//673 821//821 830//830
f 672//672 829//829 682//682
f 678//678 827//827 689//689
f 690//690 828//828 833//833
f 687//687 832//832 843//843
f 685//685 841//841 847//847
f 684//684 846//846 851//851
f 683//683 850//850 691//691
f 695//695 854//854 859//859
f 697//697 860//860 700//700
f 701//701 862//862 708//708
f 707//707 861//861 836//836
f 711//711 837//837 713//713
f 714//714 838//838 716//716
f 718//718 840//840 864//864
f 719//719 865//865 868//868
f 720//720 872//872 874//874
f 725//725 876//876 880//880
f 724//724 878//878 728//728
f 730//730 879//879 886//886
f 729//729 885//885 733//733
f 740//740 760//760 892//892
f 738//738 890//890 897//897
f 735//735 896//896 747//747
f 745//745 895//895 905//905
f 744//744 901//901 910//910
f 743//743 908//908 920//920
f 742//742 919//919 753//753
f 748//748 916//916 765//765
f 764//764 915//915 923//923
f 763//763 922//922 772//772
f 771//771 921//921 928//928
f 770//770 925//925 775//775
f 776//776 926//926 780//780
f 777//777 934//934 787//787
f 781//781 927//927 939//939
f 782//782 940//940 935//935
f 786//786 932//932 791//791
f 792//792 933//933 797//797
f 795//795 949//949 807//807
f 794//794 806//806 802//802
f 798//798 936//936 951//951
f 808//808 950//950 961//961
f 803//803 960//960 811//811
f 810//810 958//958 820//820
f 819//819 957//957 970//970
f 818//818 969//969 977//977
f 816//816 973//973 825//825
f 824//824 863//863 839//839
f 822//822 835//835 831//831
f 826//826 974//974 866//866
f 834//834 857//857 845//845
f 844//844 856//856 979//979
f 842//842 978//978 848//848
f 853//853 980//980 858//858
f 867//867 975//975 869//869
f 870//870 976//976 968//968
f 871//871 971//971 873//873
f 875//875 972//972 959//959
f 877//877 962//962 881//881
f 882//882 963//963 982//982
f 883//883 983//983 887//887
f 888//888 984//984 988//988
f 891//891 992//992 899//899
f 898//898 996//996 1001//1001
f 894//894 1000//1000 1006//1006
f 893//893 1005//1005 904//904
f 900//900 993//993 997//997
f 903//903 1003//1003 1010//1010
f 902//902 1008//1008 913//913
f 912//912 1012//1012 1019//1019
f 911//911 1018//1018 1025//1025
f 909//909 1021//1021 946//946
f 907//907 943//943 931//931
f 906//906 930//930 918//918
f 914//914 1009//1009 1013//1013
f 917//917 929//929 924//924
f 937//937 1026//1026 953//953
f 938//938 941//941 1028//1028
f 947//947 1022//1022 1034//1034
f 948//948 1035//1035 1041//1041
f 945//945 1039//1039 1049//1049
f 944//944 1048//1048 1053//1053
f 942//942 1051//1051 1030//1030
f 954//954 1055//1055 1065//1065
f 952//952 1062//1062 967//967
f 955//955 1027//1027 1066//1066
f 956//956 1067//1067 1056//1056
f 965//965 1072//1072 1078//1078
f 964//964 1075//1075 985//985
f 966//966 1061//1061 1073//1073
f 986//986 1076//1076 989//989
f 990//990 1077//1077 1071//1071
f 1007//1007 1020//1020 1015//1015
f 1004//1004 1014//1014 1011//1011
f 1017//1017 1082//1082 1024//1024
f 1023//1023 1080//1080 1036//1036
f 1031//1031 1052//1052 1046//1046
f 1032//1032 1047//1047 1084//1084
f 1033//1033 1085//1085 1091//1091
f 1029//1029 1088//1088 1069//1069
f 1037//1037 1081//1081 1096//1096
f 1038//1038 1097//1097 1042//1042
f 1040//1040 1100//1100 1050//1050
f 1043//1043 1098//1098 1103//1103
f 1044//1044 1104//1104 1101//1101
f 1059//1059 1068//1068 1087//1087
f 1060//1060 1089//1089 1107//1107
f 1058//1058 1106//1106 1111//1111
f 1057//1057 1110//1110 1115//1115
f 1054//1054 1114//1114 1064//1064
f 1063//1063 1113//1113 1074//1074
f 1086//1086 1118//1118 1094//1094
f 1093//1093 1117//1117 1121//1121
f 1092//1092 1120//1120 1124//1124
f 1090//1090 1123//1123 1108//1108

