# https://github.com/mikedh/trimesh
v -1.35513437 -0.00003053 0.98801732
v -1.35513437 -0.00003053 0.98801732
v -1.35513437 -0.00003053 0.98801732
v -1.35513437 -0.00003053 0.98801732
v -1.35513437 -0.00003053 0.98801732
v -1.35497344 -0.02206662 0.98801732
v -1.35497344 -0.02206662 0.98801732
v -1.35497344 -0.02206662 0.98801732
v -1.35497344 -0.02206662 0.98801732
v -1.35497344 -0.02206662 0.98801732
v -1.34391642 -0.02206662 1.02223444
v -1.34391642 -0.02206662 1.02223444
v -1.34391642 -0.02206662 1.02223444
v -1.34391642 -0.02206662 1.02223444
v -1.34391642 -0.02206662 1.02223444
v -1.34391642 -0.02206662 1.02223444
v -1.34391642 -0.02206662 1.02223444
v -1.34954560 -0.00003053 1.00524229
v -1.34954560 -0.00003053 1.00524229
v -1.34954560 -0.00003053 1.00524229
v -1.34745467 -0.00003053 0.94355837
v -1.34745467 -0.00003053 0.94355837
v -1.34745467 -0.00003053 0.94355837
v -1.34745467 -0.00003053 0.94355837
v -1.34733415 -0.02206662 0.94355837
v -1.34733415 -0.02206662 0.94355837
v -1.34733415 -0.02206662 0.94355837
v -1.34733415 -0.02206662 0.94355837
v -1.34733415 -0.02206662 0.94355837
v -1.34733415 -0.02206662 0.94355837
v -1.34733415 -0.02206662 0.94355837
v -1.34733415 -0.02206662 0.94355837
v -1.35296309 -0.06652811 0.98801732
v -1.35296309 -0.06652811 0.98801732
v -1.35296309 -0.06652811 0.98801732
v -1.35296309 -0.06652811 0.98801732
v -1.35296309 -0.06652811 0.98801732
v -1.35296309 -0.06652811 0.98801732
v -1.35296309 -0.06652811 0.98801732
v -1.35296309 -0.06652811 0.98801732
v -1.35296309 -0.06652811 0.98801732
v -1.35296309 -0.06652811 0.98801732
v -1.34295154 -0.06652811 1.02138102
v -1.34295154 -0.06652811 1.02138102
v -1.34295154 -0.06652811 1.02138102
v -1.34295154 -0.06652811 1.02138102
v -1.34295154 -0.06652811 1.02138102
v -1.34295154 -0.06652811 1.02138102
v -1.34295154 -0.06652811 1.02138102
v -1.34295154 -0.06652811 1.02138102
v -1.31179070 -0.06652811 1.03845078
v -1.31179070 -0.06652811 1.03845078
v -1.31179070 -0.06652811 1.03845078
v -1.31179070 -0.06652811 1.03845078
v -1.31179070 -0.06652811 1.03845078
v -1.31179070 -0.06652811 1.03845078
v -1.31179070 -0.02206662 1.03907144
v -1.31179070 -0.02206662 1.03907144
v -1.31179070 -0.02206662 1.03907144
v -1.31179070 -0.02206662 1.03907144
v -1.31179070 -0.02206662 1.03907144
v -1.34399688 -0.00003053 1.02223444
v -1.34399688 -0.00003053 1.02223444
v -1.34399688 -0.00003053 1.02223444
v -1.34399688 -0.00003053 1.02223444
v -1.27053785 -0.00003053 0.61030989
v -1.27053785 -0.00003053 0.61030989
v -1.27053785 -0.00003053 0.61030989
v -1.27560401 -0.02206662 0.63234542
v -1.27560401 -0.02206662 0.63234542
v -1.27560401 -0.02206662 0.63234542
v -1.27560401 -0.02206662 0.63234542
v -1.27560401 -0.02206662 0.63234542
v -1.27560401 -0.02206662 0.63234542
v -1.34025753 -0.15549004 0.95038623
v -1.34025753 -0.15549004 0.95038623
v -1.34025753 -0.15549004 0.95038623
v -1.33836782 -0.19991262 0.95488647
v -1.33836782 -0.19991262 0.95488647
v -1.33836782 -0.19991262 0.95488647
v -1.33836782 -0.19991262 0.95488647
v -1.33836782 -0.19991262 0.95488647
v -1.33836782 -0.19991262 0.95488647
v -1.33836782 -0.19991262 0.95488647
v -1.33836782 -0.19991262 0.95488647
v -1.28983736 -0.04776240 0.69775367
v -1.28983736 -0.04776240 0.69775367
v -1.28983736 -0.04776240 0.69775367
v -1.28983736 -0.04776240 0.69775367
v -1.28983736 -0.04776240 0.69775367
v -1.28983736 -0.04776240 0.69775367
v -1.33627701 -0.23168196 0.96008500
v -1.33627701 -0.23168196 0.96008500
v -1.33627701 -0.23168196 0.96008500
v -1.33627701 -0.23168196 0.96008500
v -1.33627701 -0.23168196 0.96008500
v -1.33627701 -0.23168196 0.96008500
v -1.33627701 -0.23168196 0.96008500
v -1.33627701 -0.23168196 0.96008500
v -1.33627701 -0.23168196 0.96008500
v -1.33627701 -0.23168196 0.96008500
v -1.33627701 -0.23168196 0.96008500
v -1.33627701 -0.23168196 0.96008500
v -1.33627701 -0.23168196 0.96008500
v -1.33627701 -0.23168196 0.96008500
v -1.33627701 -0.23168196 0.96008500
v -1.33627701 -0.23168196 0.96008500
v -1.33627701 -0.23168196 0.96008500
v -1.34926403 -0.11098961 0.98801732
v -1.34926403 -0.11098961 0.98801732
v -1.34926403 -0.11098961 0.98801732
v -1.34926403 -0.11098961 0.98801732
v -1.33543253 -0.22845051 1.01238051
v -1.33543253 -0.22845051 1.01238051
v -1.33543253 -0.22845051 1.01238051
v -1.33543253 -0.22845051 1.01238051
v -1.33543253 -0.22845051 1.01238051
v -1.33543253 -0.22845051 1.01238051
v -1.33543253 -0.22845051 1.01238051
v -1.33543253 -0.22845051 1.01238051
v -1.33543253 -0.22845051 1.01238051
v -1.33543253 -0.22845051 1.01238051
v -1.33543253 -0.22845051 1.01238051
v -1.33543253 -0.22845051 1.01238051
v -1.33543253 -0.22845051 1.01238051
v -1.33543253 -0.22845051 1.01238051
v -1.33716154 -0.19991262 1.01486346
v -1.33716154 -0.19991262 1.01486346
v -1.33716154 -0.19991262 1.01486346
v -1.33716154 -0.19991262 1.01486346
v -1.33716154 -0.19991262 1.01486346
v -1.33921206 -0.15549004 1.01734632
v -1.33921206 -0.15549004 1.01734632
v -1.33921206 -0.15549004 1.01734632
v -1.33921206 -0.15549004 1.01734632
v -1.34118235 -0.11098961 1.01951882
v -1.34118235 -0.11098961 1.01951882
v -1.34118235 -0.11098961 1.01951882
v -1.34118235 -0.11098961 1.01951882
v -1.31179070 -0.19991262 1.03193319
v -1.31179070 -0.19991262 1.03193319
v -1.31179070 -0.19991262 1.03193319
v -1.31179070 -0.19991262 1.03193319
v -1.31179070 -0.19991262 1.03193319
v -1.31179070 -0.19991262 1.03193319
v -1.31179070 -0.19991262 1.03193319
v -1.31179070 -0.15549004 1.03449368
v -1.31179070 -0.15549004 1.03449368
v -1.31179070 -0.15549004 1.03449368
v -1.31179070 -0.15549004 1.03449368
v -1.31179070 -0.11098961 1.03666621
v -1.31179070 -0.11098961 1.03666621
v -1.31179070 -0.11098961 1.03666621
v -1.31179070 -0.11098961 1.03666621
v -1.26732123 -0.33329713 1.03945941
v -1.26732123 -0.33329713 1.03945941
v -1.26732123 -0.33329713 1.03945941
v -1.26732123 -0.33329713 1.03945941
v -1.26732123 -0.33329713 1.03945941
v -1.26732123 -0.33329713 1.03945941
v -1.26732123 -0.33329713 1.03945941
v -1.26732123 -0.33329713 1.03945941
v -1.26732123 -0.28883561 1.04070085
v -1.26732123 -0.28883561 1.04070085
v -1.26732123 -0.28883561 1.04070085
v -1.26732123 -0.28883561 1.04070085
v -1.26732123 -0.28883561 1.04070085
v -1.31179070 -0.00003053 1.03899390
v -1.31179070 -0.00003053 1.03899390
v -1.31179070 -0.00003053 1.03899390
v -1.31179070 -0.00003053 1.03899390
v -1.31179070 -0.00003053 1.03899390
v -1.26535106 -0.00003053 0.58788642
v -1.26535106 -0.00003053 0.58788642
v -1.26535106 -0.00003053 0.58788642
v -1.26535106 -0.00003053 0.58788642
v -1.26535106 -0.00003053 0.58788642
v -1.26531076 -0.02206662 0.58788642
v -1.26531076 -0.02206662 0.58788642
v -1.26531076 -0.02206662 0.58788642
v -1.26531076 -0.02206662 0.58788642
v -1.26531076 -0.02206662 0.58788642
v -1.26531076 -0.02206662 0.58788642
v -1.26293862 -0.06652811 0.58788642
v -1.26293862 -0.06652811 0.58788642
v -1.26293862 -0.06652811 0.58788642
v -1.26293862 -0.06652811 0.58788642
v -1.26293862 -0.06652811 0.58788642
v -1.26293862 -0.06652811 0.58788642
v -1.25501776 -0.15549004 0.58788642
v -1.25501776 -0.15549004 0.58788642
v -1.25501776 -0.15549004 0.58788642
v -1.25501776 -0.15549004 0.58788642
v -1.25501776 -0.15549004 0.58788642
v -1.24605143 -0.18328822 0.56212659
v -1.24605143 -0.18328822 0.56212659
v -1.24605143 -0.18328822 0.56212659
v -1.24605143 -0.18328822 0.56212659
v -1.24605143 -0.18328822 0.56212659
v -1.24605143 -0.18328822 0.56212659
v -1.24605143 -0.18328822 0.56212659
v -1.24605143 -0.18328822 0.56212659
v -1.24605143 -0.18328822 0.56212659
v -1.24605143 -0.18328822 0.56212659
v -1.24733806 -0.23168196 0.60138706
v -1.24733806 -0.23168196 0.60138706
v -1.24733806 -0.23168196 0.60138706
v -1.24733806 -0.23168196 0.60138706
v -1.24733806 -0.23168196 0.60138706
v -1.24388027 -0.26130998 0.61504288
v -1.24388027 -0.26130998 0.61504288
v -1.24388027 -0.26130998 0.61504288
v -1.24388027 -0.26130998 0.61504288
v -1.24388027 -0.26130998 0.61504288
v -1.24388027 -0.26130998 0.61504288
v -1.24753916 -0.27649385 0.64460462
v -1.24753916 -0.27649385 0.64460462
v -1.24753916 -0.27649385 0.64460462
v -1.24753916 -0.27649385 0.64460462
v -1.24388027 -0.30616081 0.65988982
v -1.24388027 -0.30616081 0.65988982
v -1.24388027 -0.30616081 0.65988982
v -1.24388027 -0.30616081 0.65988982
v -1.24388027 -0.30616081 0.65988982
v -1.24388027 -0.30616081 0.65988982
v -1.29301381 -0.39777017 0.95791250
v -1.29301381 -0.39777017 0.95791250
v -1.29301381 -0.39777017 0.95791250
v -1.29301381 -0.39777017 0.95791250
v -1.29301381 -0.39777017 0.95791250
v -1.29301381 -0.39777017 0.95791250
v -1.29301381 -0.39777017 0.95791250
v -1.29301381 -0.39777017 0.95791250
v -1.29301381 -0.39777017 0.95791250
v -1.29301381 -0.39777017 0.95791250
v -1.31271541 -0.33329713 0.98801732
v -1.31271541 -0.33329713 0.98801732
v -1.31271541 -0.33329713 0.98801732
v -1.31271541 -0.33329713 0.98801732
v -1.31271541 -0.33329713 0.98801732
v -1.31271541 -0.33329713 0.98801732
v -1.32377243 -0.28883561 0.98801732
v -1.32377243 -0.28883561 0.98801732
v -1.32377243 -0.28883561 0.98801732
v -1.32377243 -0.28883561 0.98801732
v -1.33149230 -0.25628760 0.98801732
v -1.33149230 -0.25628760 0.98801732
v -1.33149230 -0.25628760 0.98801732
v -1.33149230 -0.25628760 0.98801732
v -1.33675957 -0.23401794 0.98801732
v -1.33675957 -0.23401794 0.98801732
v -1.33675957 -0.23401794 0.98801732
v -1.33675957 -0.23401794 0.98801732
v -1.34150410 -0.19991262 0.98801732
v -1.34150410 -0.19991262 0.98801732
v -1.34150410 -0.19991262 0.98801732
v -1.34150410 -0.19991262 0.98801732
v -1.34544432 -0.15549004 0.98801732
v -1.34544432 -0.15549004 0.98801732
v -1.34544432 -0.15549004 0.98801732
v -1.34544432 -0.15549004 0.98801732
v -1.24971032 -0.19882248 0.58711053
v -1.24971032 -0.19882248 0.58711053
v -1.24971032 -0.19882248 0.58711053
v -1.24351847 -0.21287730 0.57174774
v -1.24351847 -0.21287730 0.57174774
v -1.24351847 -0.21287730 0.57174774
v -1.24351847 -0.21287730 0.57174774
v -1.24351847 -0.21287730 0.57174774
v -1.24351847 -0.21287730 0.57174774
v -1.24351847 -0.21287730 0.57174774
v -1.24351847 -0.21287730 0.57174774
v -1.29224980 -0.39777017 1.01400995
v -1.29224980 -0.39777017 1.01400995
v -1.29224980 -0.39777017 1.01400995
v -1.29224980 -0.39777017 1.01400995
v -1.29486334 -0.37775859 1.01719111
v -1.29486334 -0.37775859 1.01719111
v -1.29486334 -0.37775859 1.01719111
v -1.29486334 -0.37775859 1.01719111
v -1.30061305 -0.33329713 1.02285522
v -1.30061305 -0.33329713 1.02285522
v -1.30061305 -0.33329713 1.02285522
v -1.30061305 -0.33329713 1.02285522
v -1.30061305 -0.33329713 1.02285522
v -1.30608130 -0.28883561 1.02595878
v -1.30608130 -0.28883561 1.02595878
v -1.30608130 -0.28883561 1.02595878
v -1.30608130 -0.28883561 1.02595878
v -1.30608130 -0.28883561 1.02595878
v -1.30608130 -0.28883561 1.02595878
v -1.29405916 -0.39777017 1.00547504
v -1.29405916 -0.39777017 1.00547504
v -1.29405916 -0.39777017 1.00547504
v -1.29405916 -0.39777017 1.00547504
v -1.29405916 -0.39777017 1.00547504
v -1.26732123 -0.37775859 1.03433847
v -1.26732123 -0.37775859 1.03433847
v -1.26732123 -0.37775859 1.03433847
v -1.26732123 -0.37775859 1.03433847
v -1.26732123 -0.37775859 1.03433847
v -1.22289193 -0.39777017 1.03682131
v -1.22289193 -0.39777017 1.03682131
v -1.22289193 -0.39777017 1.03682131
v -1.22289193 -0.39777017 1.03682131
v -1.22289193 -0.39777017 1.03682131
v -1.22289193 -0.39777017 1.03682131
v -1.22289193 -0.39777017 1.03682131
v -1.26892948 -0.00003053 1.02696741
v -1.26892948 -0.00003053 1.02696741
v -1.26892948 -0.00003053 1.02696741
v -1.26892948 -0.00003053 1.02696741
v -1.25429404 -0.00003053 0.54342744
v -1.25429404 -0.00003053 0.54342744
v -1.25429404 -0.00003053 0.54342744
v -1.25429404 -0.00003053 0.54342744
v -1.25433421 -0.02206662 0.54342744
v -1.25433421 -0.02206662 0.54342744
v -1.25433421 -0.02206662 0.54342744
v -1.25433421 -0.02206662 0.54342744
v -1.25433421 -0.02206662 0.54342744
v -1.24621236 -0.05656126 0.51751243
v -1.24621236 -0.05656126 0.51751243
v -1.24621236 -0.05656126 0.51751243
v -1.24621236 -0.05656126 0.51751243
v -1.24621236 -0.05656126 0.51751243
v -1.24621236 -0.05656126 0.51751243
v -1.24621236 -0.05656126 0.51751243
v -1.24621236 -0.05656126 0.51751243
v -1.24621236 -0.05656126 0.51751243
v -1.24621236 -0.05656126 0.51751243
v -1.25079596 -0.06944808 0.53947035
v -1.25079596 -0.06944808 0.53947035
v -1.25079596 -0.06944808 0.53947035
v -1.25079596 -0.06944808 0.53947035
v -1.25079596 -0.06944808 0.53947035
v -1.24737835 -0.15549004 0.55700566
v -1.24737835 -0.15549004 0.55700566
v -1.24737835 -0.15549004 0.55700566
v -1.24737835 -0.15549004 0.55700566
v -1.24488544 -0.08618928 0.52209022
v -1.24488544 -0.08618928 0.52209022
v -1.24488544 -0.08618928 0.52209022
v -1.24488544 -0.08618928 0.52209022
v -1.24488544 -0.08618928 0.52209022
v -1.24488544 -0.08618928 0.52209022
v -1.23189843 -0.15549004 0.49889086
v -1.23189843 -0.15549004 0.49889086
v -1.23189843 -0.15549004 0.49889086
v -1.23189843 -0.15549004 0.49889086
v -1.23189843 -0.15549004 0.49889086
v -1.22574675 -0.19991262 0.49889086
v -1.22574675 -0.19991262 0.49889086
v -1.22574675 -0.19991262 0.49889086
v -1.22574675 -0.19991262 0.49889086
v -1.22574675 -0.19991262 0.49889086
v -1.22574675 -0.19991262 0.49889086
v -1.22574675 -0.19991262 0.49889086
v -1.23897493 -0.19882248 0.54575513
v -1.23897493 -0.19882248 0.54575513
v -1.23897493 -0.19882248 0.54575513
v -1.22916436 -0.24437413 0.54342744
v -1.22916436 -0.24437413 0.54342744
v -1.22916436 -0.24437413 0.54342744
v -1.22916436 -0.24437413 0.54342744
v -1.22916436 -0.24437413 0.54342744
v -1.22916436 -0.24437413 0.54342744
v -1.22916436 -0.24437413 0.54342744
v -1.22916436 -0.24437413 0.54342744
v -1.24038219 -0.24565890 0.58711053
v -1.24038219 -0.24565890 0.58711053
v -1.24038219 -0.24565890 0.58711053
v -1.24058330 -0.29031506 0.63087121
v -1.24058330 -0.29031506 0.63087121
v -1.24058330 -0.29031506 0.63087121
v -1.24058330 -0.29031506 0.63087121
v -1.24058330 -0.29031506 0.63087121
v -1.22988808 -0.28883561 0.58788642
v -1.22988808 -0.28883561 0.58788642
v -1.22988808 -0.28883561 0.58788642
v -1.22988808 -0.28883561 0.58788642
v -1.22988808 -0.28883561 0.58788642
v -1.22988808 -0.28883561 0.58788642
v -1.22988808 -0.33329713 0.63234542
v -1.22988808 -0.33329713 0.63234542
v -1.22988808 -0.33329713 0.63234542
v -1.22988808 -0.33329713 0.63234542
v -1.22988808 -0.33329713 0.63234542
v -1.22988808 -0.33329713 0.63234542
v -1.22988808 -0.33329713 0.63234542
v -1.24038219 -0.33395895 0.67548537
v -1.24038219 -0.33395895 0.67548537
v -1.24038219 -0.33395895 0.67548537
v -1.24038219 -0.33395895 0.67548537
v -1.29566741 -0.39777017 0.98801732
v -1.29566741 -0.39777017 0.98801732
v -1.29566741 -0.39777017 0.98801732
v -1.30105519 -0.37775859 0.98801732
v -1.30105519 -0.37775859 0.98801732
v -1.30105519 -0.37775859 0.98801732
v -1.30105519 -0.37775859 0.98801732
v -1.22888291 -0.37775859 0.67672682
v -1.22888291 -0.37775859 0.67672682
v -1.22888291 -0.37775859 0.67672682
v -1.22888291 -0.37775859 0.67672682
v -1.21786606 -0.37775859 0.63234542
v -1.21786606 -0.37775859 0.63234542
v -1.21786606 -0.37775859 0.63234542
v -1.21786606 -0.37775859 0.63234542
v -1.21786606 -0.37775859 0.63234542
v -1.21786606 -0.37775859 0.63234542
v -1.21786606 -0.37775859 0.63234542
v -1.21227717 -0.39777017 0.63327649
v -1.21227717 -0.39777017 0.63327649
v -1.21227717 -0.39777017 0.63327649
v -1.21674013 -0.24437413 0.49889086
v -1.21674013 -0.24437413 0.49889086
v -1.21674013 -0.24437413 0.49889086
v -1.21674013 -0.24437413 0.49889086
v -1.21674013 -0.24437413 0.49889086
v -1.21674013 -0.24437413 0.49889086
v -1.21674013 -0.24437413 0.49889086
v -1.26864803 -0.39777017 1.03014868
v -1.26864803 -0.39777017 1.03014868
v -1.26864803 -0.39777017 1.03014868
v -1.26864803 -0.39777017 1.03014868
v -1.26864803 -0.39777017 1.03014868
v -1.19181156 -0.39777017 1.01982915
v -1.19181156 -0.39777017 1.01982915
v -1.19181156 -0.39777017 1.01982915
v -1.19181156 -0.39777017 1.01982915
v -1.24669480 -0.00003053 1.00493196
v -1.24669480 -0.00003053 1.00493196
v -1.24669480 -0.00003053 1.00493196
v -1.24669480 -0.00003053 1.00493196
v -1.24669480 -0.00003053 1.00493196
v -1.24669480 -0.00003053 1.00493196
v -1.24681544 -0.00003053 0.51565026
v -1.24681544 -0.00003053 0.51565026
v -1.24681544 -0.00003053 0.51565026
v -1.24681544 -0.00003053 0.51565026
v -1.24685562 -0.02206662 0.51549509
v -1.24685562 -0.02206662 0.51549509
v -1.24685562 -0.02206662 0.51549509
v -1.24685562 -0.02206662 0.51549509
v -1.24685562 -0.02206662 0.51549509
v -1.23620069 -0.11098961 0.49889086
v -1.23620069 -0.11098961 0.49889086
v -1.23620069 -0.11098961 0.49889086
v -1.23620069 -0.11098961 0.49889086
v -1.23620069 -0.11098961 0.49889086
v -1.21513188 -0.02206662 0.40997288
v -1.21513188 -0.02206662 0.40997288
v -1.21513188 -0.02206662 0.40997288
v -1.21513188 -0.02206662 0.40997288
v -1.21513188 -0.02206662 0.40997288
v -1.21513188 -0.02206662 0.40997288
v -1.21513188 -0.02206662 0.40997288
v -1.21513188 -0.02206662 0.40997288
v -1.21513188 -0.02206662 0.40997288
v -1.22675180 -0.06652811 0.45443187
v -1.22675180 -0.06652811 0.45443187
v -1.22675180 -0.06652811 0.45443187
v -1.22675180 -0.06652811 0.45443187
v -1.22333419 -0.11098961 0.45443187
v -1.22333419 -0.11098961 0.45443187
v -1.22333419 -0.11098961 0.45443187
v -1.22333419 -0.11098961 0.45443187
v -1.22333419 -0.11098961 0.45443187
v -1.22333419 -0.11098961 0.45443187
v -1.22333419 -0.11098961 0.45443187
v -1.21919286 -0.15549004 0.45443187
v -1.21919286 -0.15549004 0.45443187
v -1.21919286 -0.15549004 0.45443187
v -1.21919286 -0.15549004 0.45443187
v -1.21919286 -0.15549004 0.45443187
v -1.21919286 -0.15549004 0.45443187
v -1.21919286 -0.15549004 0.45443187
v -1.21271956 -0.19991262 0.45443187
v -1.21271956 -0.19991262 0.45443187
v -1.21271956 -0.19991262 0.45443187
v -1.21271956 -0.19991262 0.45443187
v -1.21271956 -0.19991262 0.45443187
v -1.21806705 -0.28883561 0.54342744
v -1.21806705 -0.28883561 0.54342744
v -1.21806705 -0.28883561 0.54342744
v -1.21806705 -0.28883561 0.54342744
v -1.21806705 -0.28883561 0.54342744
v -1.21806705 -0.28883561 0.54342744
v -1.20222533 -0.27256161 0.47157923
v -1.20222533 -0.27256161 0.47157923
v -1.20222533 -0.27256161 0.47157923
v -1.20222533 -0.27256161 0.47157923
v -1.20222533 -0.27256161 0.47157923
v -1.20222533 -0.27256161 0.47157923
v -1.20222533 -0.27256161 0.47157923
v -1.20222533 -0.27256161 0.47157923
v -1.20222533 -0.27256161 0.47157923
v -1.20616567 -0.28797910 0.49951157
v -1.20616567 -0.28797910 0.49951157
v -1.20616567 -0.28797910 0.49951157
v -1.20616567 -0.28797910 0.49951157
v -1.20616567 -0.28797910 0.49951157
v -1.21814740 -0.33329713 0.58788642
v -1.21814740 -0.33329713 0.58788642
v -1.21814740 -0.33329713 0.58788642
v -1.21814740 -0.33329713 0.58788642
v -1.21814740 -0.33329713 0.58788642
v -1.21814740 -0.33329713 0.58788642
v -1.20632648 -0.37733036 0.58835196
v -1.20632648 -0.37733036 0.58835196
v -1.20632648 -0.37733036 0.58835196
v -1.20632648 -0.37733036 0.58835196
v -1.20632648 -0.37733036 0.58835196
v -1.20632648 -0.37733036 0.58835196
v -1.20355213 -0.39777017 0.59913696
v -1.20355213 -0.39777017 0.59913696
v -1.20355213 -0.39777017 0.59913696
v -1.20355213 -0.39777017 0.59913696
v -1.20355213 -0.39777017 0.59913696
v -1.20097888 -0.22358388 0.43123250
v -1.20097888 -0.22358388 0.43123250
v -1.20097888 -0.22358388 0.43123250
v -1.20097888 -0.22358388 0.43123250
v -1.20097888 -0.22358388 0.43123250
v -1.20097888 -0.22358388 0.43123250
v -1.20097888 -0.22358388 0.43123250
v -1.20097888 -0.22358388 0.43123250
v -1.20471823 -0.24079229 0.45582847
v -1.20471823 -0.24079229 0.45582847
v -1.20471823 -0.24079229 0.45582847
v -1.20471823 -0.24079229 0.45582847
v -1.18324733 -0.39777017 1.00369048
v -1.18324733 -0.39777017 1.00369048
v -1.18324733 -0.39777017 1.00369048
v -1.17633176 -0.39777017 0.98646551
v -1.17633176 -0.39777017 0.98646551
v -1.17633176 -0.39777017 0.98646551
v -0.94441503 -0.39777017 0.24804285
v -0.94441503 -0.39777017 0.24804285
v -0.94441503 -0.39777017 0.24804285
v -0.94441503 -0.39777017 0.24804285
v -1.02619708 -0.00003053 0.24804285
v -1.02619708 -0.00003053 0.24804285
v -1.02619708 -0.00003053 0.24804285
v -1.21501124 -0.00003053 0.40997288
v -1.21501124 -0.00003053 0.40997288
v -1.21501124 -0.00003053 0.40997288
v -1.20982456 -0.00003053 0.39375660
v -1.20982456 -0.00003053 0.39375660
v -1.20982456 -0.00003053 0.39375660
v -1.20447695 -0.00003053 0.37707476
v -1.20447695 -0.00003053 0.37707476
v -1.20447695 -0.00003053 0.37707476
v -1.20447695 -0.00003053 0.37707476
v -1.20451713 -0.02206662 0.37691958
v -1.20451713 -0.02206662 0.37691958
v -1.20451713 -0.02206662 0.37691958
v -1.20451713 -0.02206662 0.37691958
v -1.20451713 -0.02206662 0.37691958
v -1.20451713 -0.02206662 0.37691958
v -1.20451713 -0.02206662 0.37691958
v -1.21300089 -0.06652811 0.40997288
v -1.21300089 -0.06652811 0.40997288
v -1.21300089 -0.06652811 0.40997288
v -1.21300089 -0.06652811 0.40997288
v -1.21300089 -0.06652811 0.40997288
v -1.21300089 -0.06652811 0.40997288
v -1.21300089 -0.06652811 0.40997288
v -1.21300089 -0.06652811 0.40997288
v -1.20757294 -0.11418212 0.40586061
v -1.20757294 -0.11418212 0.40586061
v -1.20757294 -0.11418212 0.40586061
v -1.20757294 -0.11418212 0.40586061
v -1.20652747 -0.15549004 0.41400755
v -1.20652747 -0.15549004 0.41400755
v -1.20652747 -0.15549004 0.41400755
v -1.20652747 -0.15549004 0.41400755
v -1.20652747 -0.15549004 0.41400755
v -1.20652747 -0.15549004 0.41400755
v -1.20331097 -0.19991262 0.42393905
v -1.20331097 -0.19991262 0.42393905
v -1.20331097 -0.19991262 0.42393905
v -1.20331097 -0.19991262 0.42393905
v -1.20331097 -0.19991262 0.42393905
v -1.20331097 -0.19991262 0.42393905
v -1.20636678 -0.33290777 0.54381538
v -1.20636678 -0.33290777 0.54381538
v -1.20636678 -0.33290777 0.54381538
v -1.20636678 -0.33290777 0.54381538
v -1.20636678 -0.33290777 0.54381538
v -1.20636678 -0.33290777 0.54381538
v -1.20246661 -0.31780177 0.51471919
v -1.20246661 -0.31780177 0.51471919
v -1.20246661 -0.31780177 0.51471919
v -1.20246661 -0.31780177 0.51471919
v -1.20246661 -0.31780177 0.51471919
v -1.20246661 -0.31780177 0.51471919
v -1.20246661 -0.31780177 0.51471919
v -1.19756126 -0.25325084 0.44193991
v -1.19756126 -0.25325084 0.44193991
v -1.19756126 -0.25325084 0.44193991
v -1.19756126 -0.25325084 0.44193991
v -1.19756126 -0.25325084 0.44193991
v -1.17830181 -0.28883561 0.40997288
v -1.17830181 -0.28883561 0.40997288
v -1.17830181 -0.28883561 0.40997288
v -1.17830181 -0.28883561 0.40997288
v -1.17830181 -0.28883561 0.40997288
v -1.17830181 -0.28883561 0.40997288
v -1.17830181 -0.28883561 0.40997288
v -1.17830181 -0.28883561 0.40997288
v -1.17830181 -0.28883561 0.40997288
v -1.19321883 -0.28797910 0.45582847
v -1.19321883 -0.28797910 0.45582847
v -1.19321883 -0.28797910 0.45582847
v -1.19321883 -0.28797910 0.45582847
v -1.19321883 -0.28797910 0.45582847
v -1.18075454 -0.33329713 0.45443187
v -1.18075454 -0.33329713 0.45443187
v -1.18075454 -0.33329713 0.45443187
v -1.18075454 -0.33329713 0.45443187
v -1.18075454 -0.33329713 0.45443187
v -1.19824481 -0.30218962 0.48507986
v -1.19824481 -0.30218962 0.48507986
v -1.19824481 -0.30218962 0.48507986
v -1.19824481 -0.30218962 0.48507986
v -1.19824481 -0.30218962 0.48507986
v -1.19824481 -0.30218962 0.48507986
v -1.19824481 -0.30218962 0.48507986
v -1.20246661 -0.36222434 0.55886782
v -1.20246661 -0.36222434 0.55886782
v -1.20246661 -0.36222434 0.55886782
v -1.20246661 -0.36222434 0.55886782
v -1.19840562 -0.39189130 0.57376507
v -1.19840562 -0.39189130 0.57376507
v -1.19840562 -0.39189130 0.57376507
v -1.19840562 -0.39189130 0.57376507
v -1.19840562 -0.39189130 0.57376507
v -1.19840562 -0.39189130 0.57376507
v -1.19840562 -0.39189130 0.57376507
v -1.19840562 -0.39189130 0.57376507
v -1.19740045 -0.39777017 0.57671349
v -1.19740045 -0.39777017 0.57671349
v -1.19740045 -0.39777017 0.57671349
v -1.19607353 -0.19991262 0.40167076
v -1.19607353 -0.19991262 0.40167076
v -1.19607353 -0.19991262 0.40167076
v -1.19607353 -0.19991262 0.40167076
v -1.19607353 -0.19991262 0.40167076
v -1.17412031 -0.24437413 0.36551388
v -1.17412031 -0.24437413 0.36551388
v -1.17412031 -0.24437413 0.36551388
v -1.17412031 -0.24437413 0.36551388
v -1.17412031 -0.24437413 0.36551388
v -1.17412031 -0.24437413 0.36551388
v -1.17412031 -0.24437413 0.36551388
v -1.17412031 -0.24437413 0.36551388
v -1.19132912 -0.24079229 0.41385236
v -1.19132912 -0.24079229 0.41385236
v -1.19132912 -0.24079229 0.41385236
v -1.19132912 -0.24079229 0.41385236
v -1.08192456 -0.39777017 0.24804285
v -1.08192456 -0.39777017 0.24804285
v -1.08192456 -0.39777017 0.24804285
v -1.08192456 -0.39777017 0.24804285
v -1.15272999 -0.00003053 0.24804285
v -1.15272999 -0.00003053 0.24804285
v -1.15272999 -0.00003053 0.24804285
v -1.19643545 -0.00003053 0.35480647
v -1.19643545 -0.00003053 0.35480647
v -1.19643545 -0.00003053 0.35480647
v -1.19643545 -0.00003053 0.35480647
v -1.20335114 -0.06652811 0.38017836
v -1.20335114 -0.06652811 0.38017836
v -1.20335114 -0.06652811 0.38017836
v -1.20335114 -0.06652811 0.38017836
v -1.20335114 -0.06652811 0.38017836
v -1.19647563 -0.02206662 0.35472888
v -1.19647563 -0.02206662 0.35472888
v -1.19647563 -0.02206662 0.35472888
v -1.19647563 -0.02206662 0.35472888
v -1.19647563 -0.02206662 0.35472888
v -1.19647563 -0.02206662 0.35472888
v -1.19534981 -0.06652811 0.35798767
v -1.19534981 -0.06652811 0.35798767
v -1.19534981 -0.06652811 0.35798767
v -1.19534981 -0.06652811 0.35798767
v -1.19534981 -0.06652811 0.35798767
v -1.19534981 -0.06652811 0.35798767
v -1.20178306 -0.10148996 0.38452341
v -1.20178306 -0.10148996 0.38452341
v -1.20178306 -0.10148996 0.38452341
v -1.20178306 -0.10148996 0.38452341
v -1.20045626 -0.13115691 0.38832530
v -1.20045626 -0.13115691 0.38832530
v -1.20045626 -0.13115691 0.38832530
v -1.20045626 -0.13115691 0.38832530
v -1.20045626 -0.13115691 0.38832530
v -1.20045626 -0.13115691 0.38832530
v -1.19933033 -0.15549004 0.39173926
v -1.19933033 -0.15549004 0.39173926
v -1.19933033 -0.15549004 0.39173926
v -1.19933033 -0.15549004 0.39173926
v -1.19933033 -0.15549004 0.39173926
v -1.19933033 -0.15549004 0.39173926
v -1.19844580 -0.34742978 0.52922849
v -1.19844580 -0.34742978 0.52922849
v -1.19844580 -0.34742978 0.52922849
v -1.19844580 -0.34742978 0.52922849
v -1.19844580 -0.34742978 0.52922849
v -1.19844580 -0.34742978 0.52922849
v -1.19402301 -0.33290777 0.49951157
v -1.19402301 -0.33290777 0.49951157
v -1.19402301 -0.33290777 0.49951157
v -1.18159890 -0.37775859 0.49889086
v -1.18159890 -0.37775859 0.49889086
v -1.18159890 -0.37775859 0.49889086
v -1.18159890 -0.37775859 0.49889086
v -1.18159890 -0.37775859 0.49889086
v -1.18159890 -0.37775859 0.49889086
v -1.18159890 -0.37775859 0.49889086
v -1.18159890 -0.37775859 0.49889086
v -1.16507363 -0.33539951 0.40733482
v -1.16507363 -0.33539951 0.40733482
v -1.16507363 -0.33539951 0.40733482
v -1.16507363 -0.33539951 0.40733482
v -1.16020846 -0.37020558 0.42044751
v -1.16020846 -0.37020558 0.42044751
v -1.16020846 -0.37020558 0.42044751
v -1.16020846 -0.37020558 0.42044751
v -1.16020846 -0.37020558 0.42044751
v -1.16020846 -0.37020558 0.42044751
v -1.16020846 -0.37020558 0.42044751
v -1.16306329 -0.28813481 0.36497076
v -1.16306329 -0.28813481 0.36497076
v -1.16306329 -0.28813481 0.36497076
v -1.16306329 -0.28813481 0.36497076
v -1.16306329 -0.28813481 0.36497076
v -1.15908277 -0.32196760 0.37940247
v -1.15908277 -0.32196760 0.37940247
v -1.15908277 -0.32196760 0.37940247
v -1.15908277 -0.32196760 0.37940247
v -1.15908277 -0.32196760 0.37940247
v -1.15642905 -0.39777017 0.43154284
v -1.15642905 -0.39777017 0.43154284
v -1.15642905 -0.39777017 0.43154284
v -1.15642905 -0.39777017 0.43154284
v -1.15642905 -0.39777017 0.43154284
v -1.15642905 -0.39777017 0.43154284
v -1.15642905 -0.39777017 0.43154284
v -1.16623962 -0.38211909 0.45008682
v -1.16623962 -0.38211909 0.45008682
v -1.16623962 -0.38211909 0.45008682
v -1.16623962 -0.38211909 0.45008682
v -1.16623962 -0.38211909 0.45008682
v -1.19422400 -0.37733036 0.54381538
v -1.19422400 -0.37733036 0.54381538
v -1.19422400 -0.37733036 0.54381538
v -1.15731359 -0.39777017 0.43449127
v -1.15731359 -0.39777017 0.43449127
v -1.15731359 -0.39777017 0.43449127
v -1.15731359 -0.39777017 0.43449127
v -1.15731359 -0.39777017 0.43449127
v -1.15731359 -0.39777017 0.43449127
v -1.18377006 -0.19991262 0.36551388
v -1.18377006 -0.19991262 0.36551388
v -1.18377006 -0.19991262 0.36551388
v -1.18377006 -0.19991262 0.36551388
v -1.18377006 -0.19991262 0.36551388
v -1.18377006 -0.19991262 0.36551388
v -1.18377006 -0.19991262 0.36551388
v -1.18377006 -0.19991262 0.36551388
v -1.16121376 -0.24437413 0.33005533
v -1.16121376 -0.24437413 0.33005533
v -1.16121376 -0.24437413 0.33005533
v -1.16121376 -0.24437413 0.33005533
v -1.16121376 -0.24437413 0.33005533
v -1.16121376 -0.24437413 0.33005533
v -1.15783620 -0.27287307 0.33897816
v -1.15783620 -0.27287307 0.33897816
v -1.15783620 -0.27287307 0.33897816
v -1.15783620 -0.27287307 0.33897816
v -1.15783620 -0.27287307 0.33897816
v -1.15783620 -0.27287307 0.33897816
v -1.15783620 -0.27287307 0.33897816
v -1.08892071 -0.37849835 0.24804285
v -1.08892071 -0.37849835 0.24804285
v -1.08892071 -0.37849835 0.24804285
v -1.08892071 -0.37849835 0.24804285
v -1.09720337 -0.39777017 0.27682866
v -1.09720337 -0.39777017 0.27682866
v -1.09720337 -0.39777017 0.27682866
v -1.09720337 -0.39777017 0.27682866
v -1.10395825 -0.37962741 0.27706145
v -1.10395825 -0.37962741 0.27706145
v -1.10395825 -0.37962741 0.27706145
v -1.10395825 -0.37962741 0.27706145
v -1.10395825 -0.37962741 0.27706145
v -1.10395825 -0.37962741 0.27706145
v -1.15277016 -0.00400170 0.24804285
v -1.15277016 -0.00400170 0.24804285
v -1.15277016 -0.00400170 0.24804285
v -1.15277016 -0.00400170 0.24804285
v -1.15425789 -0.00003053 0.25060332
v -1.15425789 -0.00003053 0.25060332
v -1.15425789 -0.00003053 0.25060332
v -1.18381023 -0.00003053 0.32105489
v -1.18381023 -0.00003053 0.32105489
v -1.18381023 -0.00003053 0.32105489
v -1.18381023 -0.00003053 0.32105489
v -1.19028366 -0.15549004 0.36551388
v -1.19028366 -0.15549004 0.36551388
v -1.19028366 -0.15549004 0.36551388
v -1.19028366 -0.15549004 0.36551388
v -1.19028366 -0.15549004 0.36551388
v -1.19028366 -0.15549004 0.36551388
v -1.19028366 -0.15549004 0.36551388
v -1.18385053 -0.02206662 0.32105489
v -1.18385053 -0.02206662 0.32105489
v -1.18385053 -0.02206662 0.32105489
v -1.18385053 -0.02206662 0.32105489
v -1.18385053 -0.02206662 0.32105489
v -1.18385053 -0.02206662 0.32105489
v -1.18155873 -0.06652811 0.32105489
v -1.18155873 -0.06652811 0.32105489
v -1.18155873 -0.06652811 0.32105489
v -1.18155873 -0.06652811 0.32105489
v -1.18155873 -0.06652811 0.32105489
v -1.18155873 -0.06652811 0.32105489
v -1.18155873 -0.06652811 0.32105489
v -1.17399967 -0.15549004 0.32105489
v -1.17399967 -0.15549004 0.32105489
v -1.17399967 -0.15549004 0.32105489
v -1.17399967 -0.15549004 0.32105489
v -1.17399967 -0.15549004 0.32105489
v -1.17399967 -0.15549004 0.32105489
v -1.15510225 -0.35159561 0.39080818
v -1.15510225 -0.35159561 0.39080818
v -1.15510225 -0.35159561 0.39080818
v -1.15510225 -0.35159561 0.39080818
v -1.15510225 -0.35159561 0.39080818
v -1.15510225 -0.35159561 0.39080818
v -1.15248871 -0.38211909 0.40733482
v -1.15248871 -0.38211909 0.40733482
v -1.15248871 -0.38211909 0.40733482
v -1.15248871 -0.38211909 0.40733482
v -1.15570521 -0.39777017 0.42937033
v -1.15570521 -0.39777017 0.42937033
v -1.15570521 -0.39777017 0.42937033
v -1.15570521 -0.39777017 0.42937033
v -1.15570521 -0.39777017 0.42937033
v -1.15570521 -0.39777017 0.42937033
v -1.15389597 -0.30250111 0.34976314
v -1.15389597 -0.30250111 0.34976314
v -1.15389597 -0.30250111 0.34976314
v -1.15389597 -0.30250111 0.34976314
v -1.15389597 -0.30250111 0.34976314
v -1.15389597 -0.30250111 0.34976314
v -1.15043807 -0.33539951 0.36497076
v -1.15043807 -0.33539951 0.36497076
v -1.15043807 -0.33539951 0.36497076
v -1.15043807 -0.33539951 0.36497076
v -1.15864038 -0.18967324 0.29304494
v -1.15864038 -0.18967324 0.29304494
v -1.15864038 -0.18967324 0.29304494
v -1.15864038 -0.18967324 0.29304494
v -1.15864038 -0.18967324 0.29304494
v -1.15864038 -0.18967324 0.29304494
v -1.15864038 -0.18967324 0.29304494
v -1.16559625 -0.20263793 0.31756335
v -1.16559625 -0.20263793 0.31756335
v -1.16559625 -0.20263793 0.31756335
v -1.16559625 -0.20263793 0.31756335
v -1.15558457 -0.21930125 0.30033839
v -1.15558457 -0.21930125 0.30033839
v -1.15558457 -0.21930125 0.30033839
v -1.15558457 -0.21930125 0.30033839
v -1.15558457 -0.21930125 0.30033839
v -1.15558457 -0.21930125 0.30033839
v -1.15268970 -0.24437413 0.30786462
v -1.15268970 -0.24437413 0.30786462
v -1.15268970 -0.24437413 0.30786462
v -1.15268970 -0.24437413 0.30786462
v -1.15268970 -0.24437413 0.30786462
v -1.15268970 -0.24437413 0.30786462
v -1.14758337 -0.28813481 0.32291704
v -1.14758337 -0.28813481 0.32291704
v -1.14758337 -0.28813481 0.32291704
v -1.14758337 -0.28813481 0.32291704
v -1.14758337 -0.28813481 0.32291704
v -1.13487780 -0.33329713 0.32105489
v -1.13487780 -0.33329713 0.32105489
v -1.13487780 -0.33329713 0.32105489
v -1.13487780 -0.33329713 0.32105489
v -1.13487780 -0.33329713 0.32105489
v -1.13487780 -0.33329713 0.32105489
v -1.10809958 -0.34178448 0.26247457
v -1.10809958 -0.34178448 0.26247457
v -1.10809958 -0.34178448 0.26247457
v -1.10809958 -0.34178448 0.26247457
v -1.10809958 -0.34178448 0.26247457
v -1.10809958 -0.34178448 0.26247457
v -1.10809958 -0.34178448 0.26247457
v -1.10206854 -0.33504909 0.24804285
v -1.10206854 -0.33504909 0.24804285
v -1.10206854 -0.33504909 0.24804285
v -1.10206854 -0.33504909 0.24804285
v -1.11015022 -0.39777017 0.30305403
v -1.11015022 -0.39777017 0.30305403
v -1.11015022 -0.39777017 0.30305403
v -1.11051214 -0.39570671 0.30189021
v -1.11051214 -0.39570671 0.30189021
v -1.11051214 -0.39570671 0.30189021
v -1.11051214 -0.39570671 0.30189021
v -1.11051214 -0.39570671 0.30189021
v -1.11051214 -0.39570671 0.30189021
v -1.11051214 -0.39570671 0.30189021
v -1.11051214 -0.39570671 0.30189021
v -1.11461329 -0.36607870 0.29211386
v -1.11461329 -0.36607870 0.29211386
v -1.11461329 -0.36607870 0.29211386
v -1.11461329 -0.36607870 0.29211386
v -1.11461329 -0.36607870 0.29211386
v -1.11461329 -0.36607870 0.29211386
v -1.11461329 -0.36607870 0.29211386
v -1.15277016 -0.01217762 0.24804285
v -1.15277016 -0.01217762 0.24804285
v -1.15277016 -0.01217762 0.24804285
v -1.15277016 -0.01217762 0.24804285
v -1.15630841 -0.00003053 0.25409487
v -1.15630841 -0.00003053 0.25409487
v -1.15630841 -0.00003053 0.25409487
v -1.15630841 -0.00003053 0.25409487
v -1.16394782 -0.00003053 0.27240604
v -1.16394782 -0.00003053 0.27240604
v -1.16394782 -0.00003053 0.27240604
v -1.16394782 -0.00003053 0.27240604
v -1.16394782 -0.02198875 0.27232847
v -1.16394782 -0.02198875 0.27232847
v -1.16394782 -0.02198875 0.27232847
v -1.16394782 -0.02198875 0.27232847
v -1.16394782 -0.02198875 0.27232847
v -1.16394782 -0.02198875 0.27232847
v -1.16463125 -0.06652811 0.27923396
v -1.16463125 -0.06652811 0.27923396
v -1.16463125 -0.06652811 0.27923396
v -1.16463125 -0.06652811 0.27923396
v -1.16463125 -0.06652811 0.27923396
v -1.16463125 -0.06652811 0.27923396
v -1.16274166 -0.11098961 0.28357899
v -1.16274166 -0.11098961 0.28357899
v -1.16274166 -0.11098961 0.28357899
v -1.16274166 -0.11098961 0.28357899
v -1.16085184 -0.15549004 0.28800161
v -1.16085184 -0.15549004 0.28800161
v -1.16085184 -0.15549004 0.28800161
v -1.16085184 -0.15549004 0.28800161
v -1.16085184 -0.15549004 0.28800161
v -1.16085184 -0.15549004 0.28800161
v -1.13922024 -0.37775859 0.36551388
v -1.13922024 -0.37775859 0.36551388
v -1.13922024 -0.37775859 0.36551388
v -1.13922024 -0.37775859 0.36551388
v -1.13922024 -0.37775859 0.36551388
v -1.13922024 -0.37775859 0.36551388
v -1.13922024 -0.37775859 0.36551388
v -1.12132788 -0.37962741 0.31841683
v -1.12132788 -0.37962741 0.31841683
v -1.12132788 -0.37962741 0.31841683
v -1.12132788 -0.37962741 0.31841683
v -1.15112162 -0.15549004 0.26573333
v -1.15112162 -0.15549004 0.26573333
v -1.15112162 -0.15549004 0.26573333
v -1.15112162 -0.15549004 0.26573333
v -1.15112162 -0.15549004 0.26573333
v -1.15112162 -0.15549004 0.26573333
v -1.14915144 -0.20263793 0.27760458
v -1.14915144 -0.20263793 0.27760458
v -1.14915144 -0.20263793 0.27760458
v -1.14915144 -0.20263793 0.27760458
v -1.14915144 -0.20263793 0.27760458
v -1.14915144 -0.20263793 0.27760458
v -1.13934088 -0.24437413 0.27659589
v -1.13934088 -0.24437413 0.27659589
v -1.13934088 -0.24437413 0.27659589
v -1.13934088 -0.24437413 0.27659589
v -1.13934088 -0.24437413 0.27659589
v -1.13934088 -0.24437413 0.27659589
v -1.13934088 -0.24437413 0.27659589
v -1.13934088 -0.24437413 0.27659589
v -1.12824357 -0.28883561 0.27659589
v -1.12824357 -0.28883561 0.27659589
v -1.12824357 -0.28883561 0.27659589
v -1.12824357 -0.28883561 0.27659589
v -1.12824357 -0.28883561 0.27659589
v -1.12824357 -0.28883561 0.27659589
v -1.12824357 -0.28883561 0.27659589
v -1.11204004 -0.31215647 0.25378448
v -1.11204004 -0.31215647 0.25378448
v -1.11204004 -0.31215647 0.25378448
v -1.11204004 -0.31215647 0.25378448
v -1.11204004 -0.31215647 0.25378448
v -1.11204004 -0.31215647 0.25378448
v -1.11204004 -0.31215647 0.25378448
v -1.11770916 -0.32952061 0.27706145
v -1.11770916 -0.32952061 0.27706145
v -1.11770916 -0.32952061 0.27706145
v -1.10717487 -0.31780177 0.24804285
v -1.10717487 -0.31780177 0.24804285
v -1.10717487 -0.31780177 0.24804285
v -1.15232790 -0.03144946 0.24804285
v -1.15232790 -0.03144946 0.24804285
v -1.15232790 -0.03144946 0.24804285
v -1.15602696 -0.03678329 0.25471556
v -1.15602696 -0.03678329 0.25471556
v -1.15602696 -0.03678329 0.25471556
v -1.15602696 -0.03678329 0.25471556
v -1.15602696 -0.03678329 0.25471556
v -1.15602696 -0.03678329 0.25471556
v -1.15602696 -0.03678329 0.25471556
v -1.15630841 -0.00711634 0.25409487
v -1.15630841 -0.00711634 0.25409487
v -1.15630841 -0.00711634 0.25409487
v -1.15630841 -0.00711634 0.25409487
v -1.15630841 -0.00711634 0.25409487
v -1.15779614 -0.00003053 0.25758636
v -1.15779614 -0.00003053 0.25758636
v -1.15779614 -0.00003053 0.25758636
v -1.15779614 -0.00003053 0.25758636
v -1.15498161 -0.06652811 0.25704324
v -1.15498161 -0.06652811 0.25704324
v -1.15498161 -0.06652811 0.25704324
v -1.15498161 -0.06652811 0.25704324
v -1.15498161 -0.06652811 0.25704324
v -1.15498161 -0.06652811 0.25704324
v -1.15498161 -0.06652811 0.25704324
v -1.15498161 -0.06652811 0.25704324
v -1.14171302 -0.15549004 0.24804285
v -1.14171302 -0.15549004 0.24804285
v -1.14171302 -0.15549004 0.24804285
v -1.14171302 -0.15549004 0.24804285
v -1.13403344 -0.20197606 0.24804285
v -1.13403344 -0.20197606 0.24804285
v -1.13403344 -0.20197606 0.24804285
v -1.13403344 -0.20197606 0.24804285
v -1.12522805 -0.24437413 0.24804285
v -1.12522805 -0.24437413 0.24804285
v -1.12522805 -0.24437413 0.24804285
v -1.12522805 -0.24437413 0.24804285
v -1.11517620 -0.28782335 0.24804285
v -1.11517620 -0.28782335 0.24804285
v -1.11517620 -0.28782335 0.24804285
v -1.11517620 -0.28782335 0.24804285
v -1.11505556 -0.28883561 0.24827558
v -1.11505556 -0.28883561 0.24827558
v -1.11505556 -0.28883561 0.24827558
v -1.11505556 -0.28883561 0.24827558
v -1.11493492 -0.28883561 0.24804285
v -1.11493492 -0.28883561 0.24804285
v -1.11493492 -0.28883561 0.24804285
v -1.11493492 -0.28883561 0.24804285
v -1.14995563 -0.06652811 0.24804285
v -1.14995563 -0.06652811 0.24804285
v -1.14995563 -0.06652811 0.24804285
v -1.14995563 -0.06652811 0.24804285
v -1.14585447 -0.11098961 0.24804285
v -1.14585447 -0.11098961 0.24804285
v -1.14585447 -0.11098961 0.24804285
vn 0.00000000 1.00000000 -0.00000000
vn -0.95117372 -0.00500494 0.30861545
vn -0.95152920 -0.00694915 0.30747991
vn -0.98539245 -0.00538935 -0.17021361
vn -0.98553111 -0.00719747 -0.16934174
vn -0.95121692 -0.02654282 0.30737900
vn -0.95152920 -0.00694915 0.30747991
vn -0.95691003 -0.04326710 0.28714310
vn -0.98457953 -0.04451819 -0.16917823
vn -0.98553111 -0.00719747 -0.16934174
vn -0.46417156 -0.01236342 0.88565902
vn -0.46420638 -0.00169508 0.88572545
vn -0.48025512 -0.02725023 0.87670545
vn -0.95059547 -0.00347116 0.31041295
vn -0.95117372 -0.00500494 0.30861545
vn -0.95121692 -0.02654282 0.30737900
vn -0.95152920 -0.00694915 0.30747991
vn 0.00000000 1.00000000 -0.00000000
vn -0.95059547 -0.00347116 0.31041295
vn -0.95117372 -0.00500494 0.30861545
vn -0.00000000 1.00000000 -0.00000000
vn -0.97438229 -0.00087759 -0.22489640
vn -0.97443785 -0.00532943 -0.22459400
vn -0.98539245 -0.00538935 -0.17021361
vn -0.97322520 -0.06293188 -0.22107078
vn -0.97395494 -0.03192652 -0.22448270
vn -0.97443785 -0.00532943 -0.22459400
vn -0.97686299 -0.06228176 -0.20459638
vn -0.98074584 -0.06125685 -0.18543246
vn -0.98457953 -0.04451819 -0.16917823
vn -0.98539245 -0.00538935 -0.17021361
vn -0.98553111 -0.00719747 -0.16934174
vn -0.95660477 -0.05008733 0.28705150
vn -0.95691003 -0.04326710 0.28714310
vn -0.95855711 -0.05607753 0.27932700
vn -0.96096690 -0.05945953 0.27019841
vn -0.97757496 -0.07630506 0.19627720
vn -0.98074584 -0.06125685 -0.18543246
vn -0.98309840 -0.08179086 0.16379191
vn -0.98457953 -0.04451819 -0.16917823
vn -0.99106416 -0.08238924 -0.10489923
vn -0.99109839 -0.08245644 -0.10452234
vn -0.48013615 -0.03517985 0.87648825
vn -0.48025512 -0.02725023 0.87670545
vn -0.48828336 -0.04255417 0.87164700
vn -0.50455329 -0.04968238 0.86194991
vn -0.52869179 -0.05650971 0.84693072
vn -0.95121692 -0.02654282 0.30737900
vn -0.95660477 -0.05008733 0.28705150
vn -0.95691003 -0.04326710 0.28714310
vn -0.11950909 -0.01385817 0.99273638
vn -0.18676310 -0.02741983 0.98202225
vn -0.25457649 -0.03878363 0.96627462
vn -0.46417156 -0.01236342 0.88565902
vn -0.48013615 -0.03517985 0.87648825
vn -0.48025512 -0.02725023 0.87670545
vn -0.01552878 0.00351858 0.99987323
vn -0.11950909 -0.01385817 0.99273638
vn -0.46161590 0.00312164 0.88707441
vn -0.46417156 -0.01236342 0.88565902
vn -0.46420638 -0.00169508 0.88572545
vn -0.00000000 1.00000000 -0.00000000
vn -0.46161590 0.00312164 0.88707441
vn -0.46420638 -0.00169508 0.88572545
vn -0.95059547 -0.00347116 0.31041295
vn 0.00000000 1.00000000 -0.00000000
vn -0.97427450 -0.00136642 -0.22536046
vn -0.97438229 -0.00087759 -0.22489640
vn -0.97365075 -0.03448538 -0.22542176
vn -0.97395494 -0.03192652 -0.22448270
vn -0.97422868 -0.00178137 -0.22555556
vn -0.97427450 -0.00136642 -0.22536046
vn -0.97438229 -0.00087759 -0.22489640
vn -0.97443785 -0.00532943 -0.22459400
vn -0.97308659 -0.06382587 -0.22142434
vn -0.97322520 -0.06293188 -0.22107078
vn -0.97686299 -0.06228176 -0.20459638
vn -0.96746891 -0.10158509 -0.23169889
vn -0.96790046 -0.09755212 -0.23162962
vn -0.96922220 -0.08629618 -0.23056736
vn -0.97157999 -0.07147125 -0.22566389
vn -0.97308659 -0.06382587 -0.22142434
vn -0.97686299 -0.06228176 -0.20459638
vn -0.98074584 -0.06125685 -0.18543246
vn -0.99106416 -0.08238924 -0.10489923
vn -0.97157999 -0.07147125 -0.22566389
vn -0.97201567 -0.05185977 -0.22912027
vn -0.97308659 -0.06382587 -0.22142434
vn -0.97322520 -0.06293188 -0.22107078
vn -0.97365075 -0.03448538 -0.22542176
vn -0.97395494 -0.03192652 -0.22448270
vn -0.94251042 -0.24250061 -0.22992947
vn -0.94369655 -0.23588734 -0.23193531
vn -0.94542088 -0.22711027 -0.23366705
vn -0.94709766 -0.21876881 -0.23483233
vn -0.95489299 -0.17922507 -0.23676518
vn -0.95777586 -0.16324230 -0.23667984
vn -0.95941641 -0.15397656 -0.23624429
vn -0.96356789 -0.24974096 -0.09574122
vn -0.96746891 -0.10158509 -0.23169889
vn -0.96873575 -0.24091237 -0.05926439
vn -0.97235369 -0.23062695 -0.03659923
vn -0.97251800 -0.23002175 -0.03603797
vn -0.99005605 -0.13773074 -0.02862265
vn -0.99106416 -0.08238924 -0.10489923
vn -0.99109839 -0.08245644 -0.10452234
vn -0.99198963 -0.08514764 -0.09330834
vn -0.99243341 -0.08802754 -0.08559839
vn -0.98309840 -0.08179086 0.16379191
vn -0.98482774 -0.08453290 0.15155368
vn -0.99109839 -0.08245644 -0.10452234
vn -0.99198963 -0.08514764 -0.09330834
vn -0.58788244 -0.10540050 0.80205048
vn -0.62476278 -0.13057437 0.76981933
vn -0.73423626 -0.17839793 0.65503533
vn -0.78902843 -0.19562673 0.58237816
vn -0.94960759 -0.24024748 0.20131214
vn -0.96069655 -0.24040773 0.13880293
vn -0.96188068 -0.23920760 0.13253407
vn -0.96755181 -0.22948802 0.10572954
vn -0.96776864 -0.22889842 0.10502081
vn -0.97757496 -0.07630506 0.19627720
vn -0.98309840 -0.08179086 0.16379191
vn -0.98482774 -0.08453290 0.15155368
vn -0.98581589 -0.08744057 0.14325213
vn -0.98686666 -0.13728705 0.08512619
vn -0.55589685 -0.09120361 0.82623277
vn -0.55677647 -0.07195323 0.82754015
vn -0.58788244 -0.10540050 0.80205048
vn -0.96096690 -0.05945953 0.27019841
vn -0.97757496 -0.07630506 0.19627720
vn -0.54866446 -0.06498445 0.83351325
vn -0.55677647 -0.07195323 0.82754015
vn -0.95855711 -0.05607753 0.27932700
vn -0.96096690 -0.05945953 0.27019841
vn -0.52869179 -0.05650971 0.84693072
vn -0.54866446 -0.06498445 0.83351325
vn -0.95660477 -0.05008733 0.28705150
vn -0.95855711 -0.05607753 0.27932700
vn -0.32323015 -0.05445507 0.94475230
vn -0.41570644 -0.08751332 0.90527873
vn -0.50455329 -0.04968238 0.86194991
vn -0.52869179 -0.05650971 0.84693072
vn -0.54866446 -0.06498445 0.83351325
vn -0.55589685 -0.09120361 0.82623277
vn -0.55677647 -0.07195323 0.82754015
vn -0.29304845 -0.04662156 0.95496023
vn -0.32323015 -0.05445507 0.94475230
vn -0.48828336 -0.04255417 0.87164700
vn -0.50455329 -0.04968238 0.86194991
vn -0.25457649 -0.03878363 0.96627462
vn -0.29304845 -0.04662156 0.95496023
vn -0.48013615 -0.03517985 0.87648825
vn -0.48828336 -0.04255417 0.87164700
vn 0.01884845 -0.02790596 0.99943284
vn -0.10644410 -0.11377041 0.98778841
vn -0.18676310 -0.02741983 0.98202225
vn -0.25457649 -0.03878363 0.96627462
vn -0.29304845 -0.04662156 0.95496023
vn -0.32323015 -0.05445507 0.94475230
vn -0.41570644 -0.08751332 0.90527873
vn -0.43073242 -0.10326215 0.89655257
vn 0.01884845 -0.02790596 0.99943284
vn 0.16133947 0.03067281 0.98642220
vn -0.01552878 0.00351858 0.99987323
vn -0.11950909 -0.01385817 0.99273638
vn -0.18676310 -0.02741983 0.98202225
vn -0.00000000 1.00000000 -0.00000000
vn 0.16133947 0.03067281 0.98642220
vn 0.26974834 0.05504019 0.96135655
vn -0.01552878 0.00351858 0.99987323
vn -0.46161590 0.00312164 0.88707441
vn -0.00000000 1.00000000 -0.00000000
vn -0.97043674 0.00176918 -0.24134915
vn -0.97084686 -0.00177518 -0.23969401
vn -0.97422868 -0.00178137 -0.22555556
vn -0.97427450 -0.00136642 -0.22536046
vn -0.96970801 -0.04845489 -0.23941284
vn -0.96992085 -0.05174800 -0.23785644
vn -0.97084686 -0.00177518 -0.23969401
vn -0.97201567 -0.05185977 -0.22912027
vn -0.97365075 -0.03448538 -0.22542176
vn -0.97422868 -0.00178137 -0.22555556
vn -0.96756762 -0.08614886 -0.23746846
vn -0.96892516 -0.06295871 -0.23920753
vn -0.96922220 -0.08629618 -0.23056736
vn -0.96992085 -0.05174800 -0.23785644
vn -0.97157999 -0.07147125 -0.22566389
vn -0.97201567 -0.05185977 -0.22912027
vn -0.96677941 -0.09020692 -0.23916582
vn -0.96704221 -0.08716633 -0.23923084
vn -0.96756762 -0.08614886 -0.23746846
vn -0.96790046 -0.09755212 -0.23162962
vn -0.96922220 -0.08629618 -0.23056736
vn -0.95181308 -0.15422795 -0.26507659
vn -0.95267018 -0.16464980 -0.25555816
vn -0.95336519 -0.13202281 -0.27141260
vn -0.95759738 -0.15990308 -0.23966282
vn -0.95941641 -0.15397656 -0.23624429
vn -0.96186900 -0.09430885 -0.25673696
vn -0.96322928 -0.09245215 -0.25227357
vn -0.96677941 -0.09020692 -0.23916582
vn -0.96746891 -0.10158509 -0.23169889
vn -0.96790046 -0.09755212 -0.23162962
vn -0.94421409 -0.21575064 -0.24882003
vn -0.94434293 -0.22207123 -0.24269486
vn -0.94589233 -0.20469804 -0.25176659
vn -0.94709766 -0.21876881 -0.23483233
vn -0.95489299 -0.17922507 -0.23676518
vn -0.94024648 -0.23298920 -0.24829941
vn -0.94031785 -0.23905107 -0.24219191
vn -0.94178245 -0.23712746 -0.23836187
vn -0.94434293 -0.22207123 -0.24269486
vn -0.94542088 -0.22711027 -0.23366705
vn -0.94709766 -0.21876881 -0.23483233
vn -0.94178245 -0.23712746 -0.23836187
vn -0.94178421 -0.23833628 -0.23714621
vn -0.94369655 -0.23588734 -0.23193531
vn -0.94542088 -0.22711027 -0.23366705
vn -0.94023280 -0.24877637 -0.23253515
vn -0.94031474 -0.24217823 -0.23907716
vn -0.94067691 -0.24818030 -0.23137307
vn -0.94178421 -0.23833628 -0.23714621
vn -0.94251042 -0.24250061 -0.22992947
vn -0.94369655 -0.23588734 -0.23193531
vn -0.00000000 -1.00000000 0.00000000
vn 0.00000000 -1.00000000 0.00000000
vn -0.93394860 -0.27164263 -0.23227204
vn -0.93582857 -0.26506745 -0.23230182
vn -0.93914572 -0.25314778 -0.23221007
vn -0.94067691 -0.24818030 -0.23137307
vn -0.94251042 -0.24250061 -0.22992947
vn -0.96213634 -0.25903919 -0.08480782
vn -0.96341690 -0.25266043 -0.08939003
vn -0.96356789 -0.24974096 -0.09574122
vn -0.96069655 -0.24040773 0.13880293
vn -0.96188068 -0.23920760 0.13253407
vn -0.96278462 -0.25249461 0.09639635
vn -0.96341690 -0.25266043 -0.08939003
vn -0.96356789 -0.24974096 -0.09574122
vn -0.96873575 -0.24091237 -0.05926439
vn -0.96188068 -0.23920760 0.13253407
vn -0.96755181 -0.22948802 0.10572954
vn -0.96873575 -0.24091237 -0.05926439
vn -0.97235369 -0.23062695 -0.03659923
vn -0.96755181 -0.22948802 0.10572954
vn -0.96776864 -0.22889842 0.10502081
vn -0.97235369 -0.23062695 -0.03659923
vn -0.97251800 -0.23002175 -0.03603797
vn -0.96776864 -0.22889842 0.10502081
vn -0.97251800 -0.23002175 -0.03603797
vn -0.98686666 -0.13728705 0.08512619
vn -0.99005605 -0.13773074 -0.02862265
vn -0.98581589 -0.08744057 0.14325213
vn -0.98686666 -0.13728705 0.08512619
vn -0.99005605 -0.13773074 -0.02862265
vn -0.99243341 -0.08802754 -0.08559839
vn -0.98482774 -0.08453290 0.15155368
vn -0.98581589 -0.08744057 0.14325213
vn -0.99198963 -0.08514764 -0.09330834
vn -0.99243341 -0.08802754 -0.08559839
vn -0.95759738 -0.15990308 -0.23966282
vn -0.95777586 -0.16324230 -0.23667984
vn -0.95941641 -0.15397656 -0.23624429
vn -0.94499288 -0.19362865 -0.26362169
vn -0.94515585 -0.19146134 -0.26461854
vn -0.94589233 -0.20469804 -0.25176659
vn -0.94766573 -0.18057242 -0.26329312
vn -0.95267018 -0.16464980 -0.25555816
vn -0.95489299 -0.17922507 -0.23676518
vn -0.95759738 -0.15990308 -0.23966282
vn -0.95777586 -0.16324230 -0.23667984
vn 0.00000000 -1.00000000 0.00000000
vn -0.55295662 -0.20076655 0.80866048
vn -0.78902843 -0.19562673 0.58237816
vn -0.94960759 -0.24024748 0.20131214
vn -0.54025048 -0.17473044 0.82316383
vn -0.55295662 -0.20076655 0.80866048
vn -0.73423626 -0.17839793 0.65503533
vn -0.78902843 -0.19562673 0.58237816
vn -0.46107117 -0.11809614 0.87946954
vn -0.49224241 -0.14699259 0.85795722
vn -0.54025048 -0.17473044 0.82316383
vn -0.62476278 -0.13057437 0.76981933
vn -0.73423626 -0.17839793 0.65503533
vn -0.41570644 -0.08751332 0.90527873
vn -0.43073242 -0.10326215 0.89655257
vn -0.46107117 -0.11809614 0.87946954
vn -0.55589685 -0.09120361 0.82623277
vn -0.58788244 -0.10540050 0.80205048
vn -0.62476278 -0.13057437 0.76981933
vn 0.00000000 -1.00000000 0.00000000
vn -0.94960759 -0.24024748 0.20131214
vn -0.96069655 -0.24040773 0.13880293
vn -0.96181720 -0.25895326 0.08860519
vn -0.96278462 -0.25249461 0.09639635
vn -0.10644410 -0.11377041 0.98778841
vn -0.14156627 -0.19386053 0.97076109
vn -0.43073242 -0.10326215 0.89655257
vn -0.46107117 -0.11809614 0.87946954
vn -0.49224241 -0.14699259 0.85795722
vn 0.00000000 -1.00000000 0.00000000
vn 0.01884845 -0.02790596 0.99943284
vn 0.16133947 0.03067281 0.98642220
vn 0.26974834 0.05504019 0.96135655
vn 0.47827991 0.07703343 0.87482237
vn -0.10644410 -0.11377041 0.98778841
vn -0.14156627 -0.19386053 0.97076109
vn -0.00000000 1.00000000 -0.00000000
vn 0.26974834 0.05504019 0.96135655
vn 0.47827991 0.07703343 0.87482237
vn 0.69858992 0.12279894 0.70490606
vn 0.00000000 1.00000000 -0.00000000
vn -0.96560845 0.00359108 -0.25997580
vn -0.96597494 0.00176105 -0.25862967
vn -0.97043674 0.00176918 -0.24134915
vn -0.96544647 -0.03312065 -0.25848818
vn -0.96597494 0.00176105 -0.25862967
vn -0.96970801 -0.04845489 -0.23941284
vn -0.97043674 0.00176918 -0.24134915
vn -0.97084686 -0.00177518 -0.23969401
vn -0.95618871 -0.07349913 -0.28337435
vn -0.95655279 -0.03893793 -0.28894741
vn -0.95708269 -0.03467501 -0.28773317
vn -0.95740204 -0.08131151 -0.27707358
vn -0.95947035 -0.08450896 -0.26883988
vn -0.96494237 -0.08175119 -0.24940521
vn -0.96544647 -0.03312065 -0.25848818
vn -0.96892516 -0.06295871 -0.23920753
vn -0.96970801 -0.04845489 -0.23941284
vn -0.96992085 -0.05174800 -0.23785644
vn -0.96494237 -0.08175119 -0.24940521
vn -0.96585467 -0.08802444 -0.24367283
vn -0.96704221 -0.08716633 -0.23923084
vn -0.96756762 -0.08614886 -0.23746846
vn -0.96892516 -0.06295871 -0.23920753
vn -0.96322928 -0.09245215 -0.25227357
vn -0.96585467 -0.08802444 -0.24367283
vn -0.96677941 -0.09020692 -0.23916582
vn -0.96704221 -0.08716633 -0.23923084
vn -0.95947035 -0.08450896 -0.26883988
vn -0.96101035 -0.09290965 -0.26043597
vn -0.96186900 -0.09430885 -0.25673696
vn -0.96322928 -0.09245215 -0.25227357
vn -0.96494237 -0.08175119 -0.24940521
vn -0.96585467 -0.08802444 -0.24367283
vn -0.95309523 -0.13198542 -0.27237717
vn -0.95336519 -0.13202281 -0.27141260
vn -0.95737931 -0.09255860 -0.27360148
vn -0.96101035 -0.09290965 -0.26043597
vn -0.96186900 -0.09430885 -0.25673696
vn -0.94201665 -0.19082543 -0.27602588
vn -0.94515585 -0.19146134 -0.26461854
vn -0.94766573 -0.18057242 -0.26329312
vn -0.95040335 -0.13849372 -0.27848332
vn -0.95181308 -0.15422795 -0.26507659
vn -0.95309523 -0.13198542 -0.27237717
vn -0.95336519 -0.13202281 -0.27141260
vn -0.94766573 -0.18057242 -0.26329312
vn -0.95181308 -0.15422795 -0.26507659
vn -0.95267018 -0.16464980 -0.25555816
vn -0.93720137 -0.23212353 -0.26033107
vn -0.93724275 -0.23392998 -0.25855908
vn -0.93754405 -0.22936007 -0.26154372
vn -0.93947769 -0.23448781 -0.24979418
vn -0.94024440 -0.23298884 -0.24830761
vn -0.94421409 -0.21575064 -0.24882003
vn -0.94499288 -0.19362865 -0.26362169
vn -0.94589233 -0.20469804 -0.25176659
vn -0.94024525 -0.23298899 -0.24830423
vn -0.94421409 -0.21575064 -0.24882003
vn -0.94434293 -0.22207123 -0.24269486
vn -0.93956046 -0.24209450 -0.24210821
vn -0.94031474 -0.24217823 -0.23907716
vn -0.94031785 -0.23905107 -0.24219191
vn -0.94178245 -0.23712746 -0.23836187
vn -0.94178421 -0.23833628 -0.23714621
vn -0.93641117 -0.24727244 -0.24897884
vn -0.93680465 -0.24737634 -0.24739036
vn -0.93947769 -0.23448781 -0.24979418
vn -0.93956046 -0.24209450 -0.24210821
vn -0.94024542 -0.23298902 -0.24830360
vn -0.94031785 -0.23905107 -0.24219191
vn -0.93541749 -0.25292932 -0.24702404
vn -0.93680465 -0.24737634 -0.24739036
vn -0.93875797 -0.25383255 -0.23302899
vn -0.93911699 -0.25314365 -0.23233072
vn -0.93956046 -0.24209450 -0.24210821
vn -0.94023280 -0.24877637 -0.23253515
vn -0.94031474 -0.24217823 -0.23907716
vn -0.93914572 -0.25314778 -0.23221007
vn -0.93911699 -0.25314365 -0.23233072
vn -0.94023280 -0.24877637 -0.23253515
vn -0.94067691 -0.24818030 -0.23137307
vn 0.00000000 -1.00000000 0.00000000
vn -0.96181720 -0.25895326 0.08860519
vn -0.96213634 -0.25903919 -0.08480782
vn -0.96181720 -0.25895326 0.08860519
vn -0.96213634 -0.25903919 -0.08480782
vn -0.96278462 -0.25249461 0.09639635
vn -0.96341690 -0.25266043 -0.08939003
vn -0.93582857 -0.26506745 -0.23230182
vn -0.93875797 -0.25383255 -0.23302899
vn -0.93914572 -0.25314778 -0.23221007
vn -0.93911699 -0.25314365 -0.23233072
vn -0.93246500 -0.27150922 -0.23831024
vn -0.93394860 -0.27164263 -0.23227204
vn -0.93407165 -0.25738453 -0.24751436
vn -0.93503932 -0.25363453 -0.24773168
vn -0.93541749 -0.25292932 -0.24702404
vn -0.93582857 -0.26506745 -0.23230182
vn -0.93875797 -0.25383255 -0.23302899
vn 0.00000000 -1.00000000 0.00000000
vn -0.93246500 -0.27150922 -0.23831024
vn -0.93394860 -0.27164263 -0.23227204
vn -0.93659910 -0.21186591 -0.27909670
vn -0.93754405 -0.22936007 -0.26154372
vn -0.94057613 -0.19398889 -0.27872001
vn -0.94070483 -0.19352569 -0.27860766
vn -0.94201665 -0.19082543 -0.27602588
vn -0.94499288 -0.19362865 -0.26362169
vn -0.94515585 -0.19146134 -0.26461854
vn 0.00000000 -1.00000000 0.00000000
vn -0.14156627 -0.19386053 0.97076109
vn -0.49224241 -0.14699259 0.85795722
vn -0.54025048 -0.17473044 0.82316383
vn -0.55295662 -0.20076655 0.80866048
vn 0.00000000 -1.00000000 0.00000000
vn 0.47827991 0.07703343 0.87482237
vn 0.69858992 0.12279894 0.70490606
vn 0.87486465 0.13810941 0.46426032
vn -0.00000000 1.00000000 -0.00000000
vn 0.69858992 0.12279894 0.70490606
vn 0.87486465 0.13810941 0.46426032
vn 0.91815064 0.14531291 0.36862388
vn 0.94191096 0.19367294 0.27439849
vn 0.94281331 0.15304263 0.29610979
vn 0.00000000 1.00000000 -0.00000000
vn -0.95756090 0.00524231 -0.28818335
vn -0.95765176 0.00377324 -0.28790426
vn -0.96560845 0.00359108 -0.25997580
vn -0.95708269 -0.03467501 -0.28773317
vn -0.95765176 0.00377324 -0.28790426
vn -0.96544647 -0.03312065 -0.25848818
vn -0.96560845 0.00359108 -0.25997580
vn -0.96597494 0.00176105 -0.25862967
vn -0.95676745 -0.08903937 -0.27688992
vn -0.95737931 -0.09255860 -0.27360148
vn -0.95740204 -0.08131151 -0.27707358
vn -0.95947035 -0.08450896 -0.26883988
vn -0.96101035 -0.09290965 -0.26043597
vn -0.95111863 -0.04558596 -0.30544275
vn -0.95210122 0.00388894 -0.30575830
vn -0.95225734 0.00470805 -0.30526021
vn -0.95245436 0.00521435 -0.30463668
vn -0.95434790 -0.04574073 -0.29517432
vn -0.95655279 -0.03893793 -0.28894741
vn -0.95708269 -0.03467501 -0.28773317
vn -0.95756090 0.00524231 -0.28818335
vn -0.95765176 0.00377324 -0.28790426
vn -0.95278227 -0.07323729 -0.29469008
vn -0.95434790 -0.04574073 -0.29517432
vn -0.95618871 -0.07349913 -0.28337435
vn -0.95655279 -0.03893793 -0.28894741
vn -0.94943840 -0.08370734 -0.30258851
vn -0.94953911 -0.08203182 -0.30273132
vn -0.95051857 -0.08845783 -0.29780810
vn -0.95278227 -0.07323729 -0.29469008
vn -0.95618871 -0.07349913 -0.28337435
vn -0.95676745 -0.08903937 -0.27688992
vn -0.95740204 -0.08131151 -0.27707358
vn -0.94556278 -0.13469877 -0.29625540
vn -0.94641719 -0.13791285 -0.29201807
vn -0.95040335 -0.13849372 -0.27848332
vn -0.95051857 -0.08845783 -0.29780810
vn -0.95309523 -0.13198542 -0.27237717
vn -0.95676745 -0.08903937 -0.27688992
vn -0.95737931 -0.09255860 -0.27360148
vn -0.93960712 -0.18189753 -0.28991681
vn -0.94070483 -0.19352569 -0.27860766
vn -0.94201665 -0.19082543 -0.27602588
vn -0.94641719 -0.13791285 -0.29201807
vn -0.95040335 -0.13849372 -0.27848332
vn -0.93395858 -0.24737188 -0.25793122
vn -0.93398501 -0.25019974 -0.25509232
vn -0.93475461 -0.25037755 -0.25208113
vn -0.93641117 -0.24727244 -0.24897884
vn -0.93724275 -0.23392998 -0.25855908
vn -0.93947769 -0.23448781 -0.24979418
vn -0.92503813 -0.23749199 -0.29648273
vn -0.92537172 -0.24561673 -0.28872064
vn -0.92564342 -0.23347953 -0.29777771
vn -0.92811172 -0.25028394 -0.27562037
vn -0.93124841 -0.24713014 -0.26777432
vn -0.93320628 -0.21571240 -0.28739208
vn -0.93659910 -0.21186591 -0.27909670
vn -0.93720137 -0.23212353 -0.26033107
vn -0.93754405 -0.22936007 -0.26154372
vn -0.93124841 -0.24713014 -0.26777432
vn -0.93128906 -0.25041972 -0.26455747
vn -0.93395858 -0.24737188 -0.25793122
vn -0.93720137 -0.23212353 -0.26033107
vn -0.93724275 -0.23392998 -0.25855908
vn -0.93398876 -0.25339660 -0.25190308
vn -0.93475461 -0.25037755 -0.25208113
vn -0.93503932 -0.25363453 -0.24773168
vn -0.93541749 -0.25292932 -0.24702404
vn -0.93641117 -0.24727244 -0.24897884
vn -0.93680465 -0.24737634 -0.24739036
vn -0.93342041 -0.25816222 -0.24915579
vn -0.93343990 -0.25465262 -0.25266973
vn -0.93379921 -0.25374705 -0.25225280
vn -0.93398876 -0.25339660 -0.25190308
vn -0.93407165 -0.25738453 -0.24751436
vn -0.93503932 -0.25363453 -0.24773168
vn 0.00000000 -1.00000000 0.00000000
vn -0.92431124 -0.28521520 -0.25357645
vn -0.93246500 -0.27150922 -0.23831024
vn -0.93342041 -0.25816222 -0.24915579
vn -0.93407165 -0.25738453 -0.24751436
vn -0.92734957 -0.20167454 -0.31519860
vn -0.92736398 -0.20152507 -0.31525178
vn -0.92860070 -0.21590210 -0.30180627
vn -0.93306367 -0.21229405 -0.29038497
vn -0.93449864 -0.18564787 -0.30372217
vn -0.93960712 -0.18189753 -0.28991681
vn -0.94057613 -0.19398889 -0.27872001
vn -0.94070483 -0.19352569 -0.27860766
vn -0.93306367 -0.21229405 -0.29038497
vn -0.93320628 -0.21571240 -0.28739208
vn -0.93659910 -0.21186591 -0.27909670
vn -0.94057613 -0.19398889 -0.27872001
vn 0.00000000 -1.00000000 0.00000000
vn 0.87486465 0.13810941 0.46426032
vn 0.91815064 0.14531291 0.36862388
vn -0.00000000 -1.00000000 0.00000000
vn 0.91815064 0.14531291 0.36862388
vn 0.94281331 0.15304263 0.29610979
vn -0.00000000 -1.00000000 0.00000000
vn -0.00000000 -0.00000000 -1.00000000
vn 0.94191096 0.19367294 0.27439849
vn 0.94281331 0.15304263 0.29610979
vn -0.00000000 1.00000000 -0.00000000
vn 0.00000000 -0.00000000 -1.00000000
vn 0.94191096 0.19367294 0.27439849
vn 0.00000000 1.00000000 -0.00000000
vn -0.95245436 0.00521435 -0.30463668
vn -0.95756090 0.00524231 -0.28818335
vn 0.00000000 1.00000000 -0.00000000
vn -0.95225734 0.00470805 -0.30526021
vn -0.95245436 0.00521435 -0.30463668
vn -0.00000000 1.00000000 -0.00000000
vn -0.94054365 0.00410653 -0.33964803
vn -0.95210122 0.00388894 -0.30575830
vn -0.95225734 0.00470805 -0.30526021
vn -0.93905529 -0.04871982 -0.34029627
vn -0.93956417 -0.04947040 -0.33877994
vn -0.94016776 0.00291362 -0.34069941
vn -0.94054365 0.00410653 -0.33964803
vn -0.95027479 -0.04747858 -0.30777201
vn -0.95111863 -0.04558596 -0.30544275
vn -0.95210122 0.00388894 -0.30575830
vn -0.94824494 -0.08069795 -0.30711459
vn -0.94853780 -0.08163136 -0.30596138
vn -0.94854595 -0.08164240 -0.30593315
vn -0.94953911 -0.08203182 -0.30273132
vn -0.95027479 -0.04747858 -0.30777201
vn -0.95111863 -0.04558596 -0.30544275
vn -0.95278227 -0.07323729 -0.29469008
vn -0.95434790 -0.04574073 -0.29517432
vn -0.94854595 -0.08164240 -0.30593315
vn -0.94900320 -0.08395168 -0.30388326
vn -0.94943840 -0.08370734 -0.30258851
vn -0.94953911 -0.08203182 -0.30273132
vn -0.94264692 -0.13636772 -0.30466480
vn -0.94556278 -0.13469877 -0.29625540
vn -0.94794063 -0.08684747 -0.30637573
vn -0.94900320 -0.08395168 -0.30388326
vn -0.94943840 -0.08370734 -0.30258851
vn -0.95051857 -0.08845783 -0.29780810
vn -0.93449864 -0.18564787 -0.30372217
vn -0.93960712 -0.18189753 -0.28991681
vn -0.94199672 -0.13750915 -0.30615912
vn -0.94264692 -0.13636772 -0.30466480
vn -0.94556278 -0.13469877 -0.29625540
vn -0.94641719 -0.13791285 -0.29201807
vn -0.93327718 -0.25198501 -0.25592430
vn -0.93327817 -0.25435280 -0.25356758
vn -0.93379921 -0.25374705 -0.25225280
vn -0.93398501 -0.25019974 -0.25509232
vn -0.93398876 -0.25339660 -0.25190308
vn -0.93475461 -0.25037755 -0.25208113
vn -0.93039983 -0.25407328 -0.26420244
vn -0.93038695 -0.25265350 -0.26560559
vn -0.93078119 -0.25472937 -0.26221998
vn -0.93128906 -0.25041972 -0.26455747
vn -0.93327718 -0.25198501 -0.25592430
vn -0.93395858 -0.24737188 -0.25793122
vn -0.93398501 -0.25019974 -0.25509232
vn -0.92494005 -0.22613288 -0.30553202
vn -0.92564342 -0.23347953 -0.29777771
vn -0.92860070 -0.21590210 -0.30180627
vn -0.93306367 -0.21229405 -0.29038497
vn -0.93320628 -0.21571240 -0.28739208
vn -0.91782666 -0.24216504 -0.31456370
vn -0.91789900 -0.24298937 -0.31371578
vn -0.92010148 -0.24403129 -0.30636905
vn -0.92096133 -0.22878477 -0.31541679
vn -0.92305258 -0.22510423 -0.31193273
vn -0.92366026 -0.24347788 -0.29592269
vn -0.92494005 -0.22613288 -0.30553202
vn -0.92503813 -0.23749199 -0.29648273
vn -0.92564342 -0.23347953 -0.29777771
vn -0.92366026 -0.24347788 -0.29592269
vn -0.92414022 -0.24478377 -0.29333556
vn -0.92454757 -0.24530087 -0.29161494
vn -0.92503813 -0.23749199 -0.29648273
vn -0.92537172 -0.24561673 -0.28872064
vn -0.92454757 -0.24530087 -0.29161494
vn -0.92537172 -0.24561673 -0.28872064
vn -0.92703242 -0.25080020 -0.27876540
vn -0.92811172 -0.25028394 -0.27562037
vn -0.92814389 -0.25152062 -0.27438350
vn -0.92811172 -0.25028394 -0.27562037
vn -0.92814389 -0.25152062 -0.27438350
vn -0.92888599 -0.25389076 -0.26964847
vn -0.92935133 -0.25372758 -0.26819476
vn -0.93038695 -0.25265350 -0.26560559
vn -0.93124841 -0.24713014 -0.26777432
vn -0.93128906 -0.25041972 -0.26455747
vn -0.93293217 -0.25523037 -0.25395869
vn -0.93327817 -0.25435280 -0.25356758
vn -0.93343990 -0.25465262 -0.25266973
vn -0.93379921 -0.25374705 -0.25225280
vn -0.92174591 -0.28789989 -0.25980402
vn -0.92332193 -0.28215301 -0.26051160
vn -0.92431124 -0.28521520 -0.25357645
vn -0.92894514 -0.26499201 -0.25853463
vn -0.93257346 -0.25588703 -0.25461457
vn -0.93293217 -0.25523037 -0.25395869
vn -0.93342041 -0.25816222 -0.24915579
vn -0.93343990 -0.25465262 -0.25266973
vn -0.00000000 -1.00000000 -0.00000000
vn -0.92174591 -0.28789989 -0.25980402
vn -0.92431124 -0.28521520 -0.25357645
vn -0.92732014 -0.20126199 -0.31554867
vn -0.92736398 -0.20152507 -0.31525178
vn -0.93449864 -0.18564787 -0.30372217
vn -0.93736399 -0.14003281 -0.31896639
vn -0.94199672 -0.13750915 -0.30615912
vn -0.91803619 -0.21342315 -0.33415583
vn -0.91977837 -0.22844020 -0.31909688
vn -0.92073331 -0.19983241 -0.33513756
vn -0.92096133 -0.22878477 -0.31541679
vn -0.92305258 -0.22510423 -0.31193273
vn -0.92732014 -0.20126199 -0.31554867
vn -0.92734957 -0.20167454 -0.31519860
vn -0.92736398 -0.20152507 -0.31525178
vn -0.92305258 -0.22510423 -0.31193273
vn -0.92494005 -0.22613288 -0.30553202
vn -0.92734957 -0.20167454 -0.31519860
vn -0.92860070 -0.21590210 -0.30180627
vn 0.00000000 -1.00000000 0.00000000
vn 0.00000000 0.00000000 -1.00000000
vn -0.84056796 -0.30723404 -0.44615328
vn -0.84061505 -0.30516437 -0.44748302
vn 0.00000000 1.00000000 -0.00000000
vn 0.00000000 -0.00000000 -1.00000000
vn -0.85869714 0.00868685 -0.51240976
vn -0.00000000 1.00000000 -0.00000000
vn -0.93661333 0.00294113 -0.35035243
vn -0.94016776 0.00291362 -0.34069941
vn -0.94054365 0.00410653 -0.33964803
vn -0.93754871 -0.08199042 -0.33805322
vn -0.93956417 -0.04947040 -0.33877994
vn -0.93971289 -0.08336422 -0.33164755
vn -0.94824494 -0.08069795 -0.30711459
vn -0.95027479 -0.04747858 -0.30777201
vn -0.93526465 -0.04820887 -0.35065073
vn -0.93567866 -0.04930100 -0.34939213
vn -0.93635200 0.00171211 -0.35105840
vn -0.93661333 0.00294113 -0.35035243
vn -0.93905529 -0.04871982 -0.34029627
vn -0.94016776 0.00291362 -0.34069941
vn -0.93386390 -0.07935006 -0.34871448
vn -0.93567866 -0.04930100 -0.34939213
vn -0.93581202 -0.08228970 -0.34275979
vn -0.93754871 -0.08199042 -0.33805322
vn -0.93905529 -0.04871982 -0.34029627
vn -0.93956417 -0.04947040 -0.33877994
vn -0.93971289 -0.08336422 -0.33164755
vn -0.94039928 -0.08427924 -0.32946350
vn -0.94824494 -0.08069795 -0.30711459
vn -0.94853780 -0.08163136 -0.30596138
vn -0.94039928 -0.08427924 -0.32946350
vn -0.94157168 -0.08913816 -0.32480327
vn -0.94794063 -0.08684747 -0.30637573
vn -0.94853780 -0.08163136 -0.30596138
vn -0.94854595 -0.08164240 -0.30593315
vn -0.94900320 -0.08395168 -0.30388326
vn -0.93638203 -0.13729985 -0.32301306
vn -0.93736399 -0.14003281 -0.31896639
vn -0.94157168 -0.08913816 -0.32480327
vn -0.94199672 -0.13750915 -0.30615912
vn -0.94264692 -0.13636772 -0.30466480
vn -0.94794063 -0.08684747 -0.30637573
vn -0.93078119 -0.25472937 -0.26221998
vn -0.93079365 -0.25783483 -0.25912234
vn -0.93257346 -0.25588703 -0.25461457
vn -0.93293217 -0.25523037 -0.25395869
vn -0.93327718 -0.25198501 -0.25592430
vn -0.93327817 -0.25435280 -0.25356758
vn -0.92935133 -0.25372758 -0.26819476
vn -0.93039983 -0.25407328 -0.26420244
vn -0.93038695 -0.25265350 -0.26560559
vn -0.92332193 -0.28215301 -0.26051160
vn -0.92718058 -0.26128568 -0.26845104
vn -0.92888599 -0.25389076 -0.26964847
vn -0.92894514 -0.26499201 -0.25853463
vn -0.92935133 -0.25372758 -0.26819476
vn -0.93039983 -0.25407328 -0.26420244
vn -0.93078119 -0.25472937 -0.26221998
vn -0.93079365 -0.25783483 -0.25912234
vn -0.91741065 -0.24420848 -0.31419727
vn -0.91751018 -0.24598499 -0.31251634
vn -0.91789900 -0.24298937 -0.31371578
vn -0.92010148 -0.24403129 -0.30636905
vn -0.91641030 -0.24839108 -0.31383759
vn -0.91648191 -0.25066303 -0.31181558
vn -0.91751018 -0.24598499 -0.31251634
vn -0.91879672 -0.24919907 -0.30612483
vn -0.92010148 -0.24403129 -0.30636905
vn -0.92366026 -0.24347788 -0.29592269
vn -0.92414022 -0.24478377 -0.29333556
vn -0.91483608 -0.23990849 -0.32483667
vn -0.91509932 -0.24443885 -0.32069126
vn -0.91782666 -0.24216504 -0.31456370
vn -0.91977837 -0.22844020 -0.31909688
vn -0.92096133 -0.22878477 -0.31541679
vn -0.91511245 -0.24444236 -0.32065112
vn -0.91518135 -0.24589050 -0.31934458
vn -0.91741065 -0.24420848 -0.31419727
vn -0.91782666 -0.24216504 -0.31456370
vn -0.91789900 -0.24298937 -0.31371578
vn 0.00000000 -1.00000000 0.00000000
vn 0.00000000 -1.00000000 0.00000000
vn -0.91879672 -0.24919907 -0.30612483
vn -0.92414022 -0.24478377 -0.29333556
vn -0.92454757 -0.24530087 -0.29161494
vn -0.92702079 -0.25157197 -0.27810788
vn -0.92703242 -0.25080020 -0.27876540
vn -0.92702079 -0.25157197 -0.27810788
vn -0.92703242 -0.25080020 -0.27876540
vn -0.92718058 -0.26128568 -0.26845104
vn -0.92814389 -0.25152062 -0.27438350
vn -0.92888599 -0.25389076 -0.26964847
vn -0.92894514 -0.26499201 -0.25853463
vn -0.93079365 -0.25783483 -0.25912234
vn -0.93257346 -0.25588703 -0.25461457
vn -0.00000000 -1.00000000 -0.00000000
vn 0.00000000 -1.00000000 0.00000000
vn -0.92174591 -0.28789989 -0.25980402
vn -0.92332193 -0.28215301 -0.26051160
vn -0.92702079 -0.25157197 -0.27810788
vn -0.92718058 -0.26128568 -0.26845104
vn -0.92030922 -0.19767492 -0.33757306
vn -0.92073331 -0.19983241 -0.33513756
vn -0.92719329 -0.15090777 -0.34284025
vn -0.92732014 -0.20126199 -0.31554867
vn -0.92963693 -0.13762467 -0.34181081
vn -0.93022111 -0.13639649 -0.34071201
vn -0.93638203 -0.13729985 -0.32301306
vn -0.93736399 -0.14003281 -0.31896639
vn -0.91113716 -0.21756397 -0.34999285
vn -0.91256455 -0.21058688 -0.35054115
vn -0.91803619 -0.21342315 -0.33415583
vn -0.91857318 -0.19871728 -0.34166469
vn -0.92030922 -0.19767492 -0.33757306
vn -0.92073331 -0.19983241 -0.33513756
vn -0.90451632 -0.22923325 -0.35958636
vn -0.90551891 -0.24033247 -0.34967958
vn -0.90828618 -0.24439068 -0.33954293
vn -0.91113716 -0.21756397 -0.34999285
vn -0.91483608 -0.23990849 -0.32483667
vn -0.91803619 -0.21342315 -0.33415583
vn -0.91977837 -0.22844020 -0.31909688
vn 0.00000000 0.00000000 -1.00000000
vn -0.84061505 -0.30516437 -0.44748302
vn -0.84389172 -0.25536332 -0.47184356
vn -0.85129748 -0.26721225 -0.45154204
vn 0.00000000 -1.00000000 0.00000000
vn -0.83054511 -0.37693249 -0.41002040
vn -0.84056796 -0.30723404 -0.44615328
vn -0.84978169 -0.31092729 -0.42567042
vn -0.84056796 -0.30723404 -0.44615328
vn -0.84061505 -0.30516437 -0.44748302
vn -0.84978169 -0.31092729 -0.42567042
vn -0.85129748 -0.26721225 -0.45154204
vn -0.88208766 -0.25035067 -0.39905626
vn -0.88233579 -0.25306325 -0.39679030
vn 0.00000000 -0.00000000 -1.00000000
vn -0.85869714 0.00868685 -0.51240976
vn -0.86228868 0.00346978 -0.50640517
vn -0.86328756 0.00000000 -0.50471238
vn 0.00000000 1.00000000 -0.00000000
vn -0.85869714 0.00868685 -0.51240976
vn -0.86228868 0.00346978 -0.50640517
vn -0.00000000 1.00000000 -0.00000000
vn -0.92580809 0.00169283 -0.37799009
vn -0.93635200 0.00171211 -0.35105840
vn -0.93661333 0.00294113 -0.35035243
vn -0.93022111 -0.13639649 -0.34071201
vn -0.93581202 -0.08228970 -0.34275979
vn -0.93638203 -0.13729985 -0.32301306
vn -0.93754871 -0.08199042 -0.33805322
vn -0.93971289 -0.08336422 -0.33164755
vn -0.94039928 -0.08427924 -0.32946350
vn -0.94157168 -0.08913816 -0.32480327
vn -0.92481484 -0.04438737 -0.37781911
vn -0.92575202 0.00133588 -0.37812884
vn -0.92580809 0.00169283 -0.37799009
vn -0.92589083 -0.04772569 -0.37476450
vn -0.93526465 -0.04820887 -0.35065073
vn -0.93635200 0.00171211 -0.35105840
vn -0.92427739 -0.07584152 -0.37411144
vn -0.92445692 -0.07638492 -0.37355689
vn -0.92589083 -0.04772569 -0.37476450
vn -0.92630470 -0.07870776 -0.36846261
vn -0.93386390 -0.07935006 -0.34871448
vn -0.93526465 -0.04820887 -0.35065073
vn -0.93567866 -0.04930100 -0.34939213
vn -0.92314051 -0.11389835 -0.36720398
vn -0.92630470 -0.07870776 -0.36846261
vn -0.92963693 -0.13762467 -0.34181081
vn -0.93022111 -0.13639649 -0.34071201
vn -0.93386390 -0.07935006 -0.34871448
vn -0.93581202 -0.08228970 -0.34275979
vn -0.91494712 -0.24640089 -0.31962224
vn -0.91518425 -0.24966868 -0.31639112
vn -0.91518135 -0.24589050 -0.31934458
vn -0.91641030 -0.24839108 -0.31383759
vn -0.91741065 -0.24420848 -0.31419727
vn -0.91751018 -0.24598499 -0.31251634
vn -0.91282024 -0.25802884 -0.31651277
vn -0.91518425 -0.24966868 -0.31639112
vn -0.91641030 -0.24839108 -0.31383759
vn -0.91648191 -0.25066303 -0.31181558
vn 0.00000000 -1.00000000 0.00000000
vn -0.88611709 -0.33566457 -0.31957128
vn -0.90001103 -0.29179159 -0.32378668
vn -0.91282024 -0.25802884 -0.31651277
vn -0.91648191 -0.25066303 -0.31181558
vn -0.91879672 -0.24919907 -0.30612483
vn -0.90828618 -0.24439068 -0.33954293
vn -0.90850437 -0.24649097 -0.33743445
vn -0.90895600 -0.24746930 -0.33549654
vn -0.91330568 -0.24602956 -0.32456462
vn -0.91483608 -0.23990849 -0.32483667
vn -0.91509217 -0.24443694 -0.32071311
vn -0.91330568 -0.24602956 -0.32456462
vn -0.91494712 -0.24640089 -0.31962224
vn -0.91510500 -0.24444037 -0.32067390
vn -0.91518135 -0.24589050 -0.31934458
vn -0.89259907 -0.14480348 -0.42696469
vn -0.89952333 -0.18965729 -0.39355799
vn -0.90998941 -0.11753563 -0.39762375
vn -0.91640888 -0.18223892 -0.35634779
vn -0.92314051 -0.11389835 -0.36720398
vn -0.92719329 -0.15090777 -0.34284025
vn -0.92963693 -0.13762467 -0.34181081
vn -0.91640888 -0.18223892 -0.35634779
vn -0.91857318 -0.19871728 -0.34166469
vn -0.92030922 -0.19767492 -0.33757306
vn -0.92719329 -0.15090777 -0.34284025
vn -0.89428184 -0.20054251 -0.40005337
vn -0.89745047 -0.21862334 -0.38312725
vn -0.89952333 -0.18965729 -0.39355799
vn -0.91256455 -0.21058688 -0.35054115
vn -0.91640888 -0.18223892 -0.35634779
vn -0.91857318 -0.19871728 -0.34166469
vn -0.89638487 -0.22373211 -0.38267234
vn -0.89745047 -0.21862334 -0.38312725
vn -0.89870806 -0.23272350 -0.37170363
vn -0.90451632 -0.22923325 -0.35958636
vn -0.91113716 -0.21756397 -0.34999285
vn -0.91256455 -0.21058688 -0.35054115
vn -0.89859880 -0.23322995 -0.37165035
vn -0.89870806 -0.23272350 -0.37170363
vn -0.90155365 -0.23875729 -0.36082678
vn -0.90451632 -0.22923325 -0.35958636
vn -0.90551891 -0.24033247 -0.34967958
vn -0.90155365 -0.23875729 -0.36082678
vn -0.90210873 -0.24261847 -0.35684188
vn -0.90301704 -0.24396498 -0.35361180
vn -0.90551891 -0.24033247 -0.34967958
vn -0.90828618 -0.24439068 -0.33954293
vn -0.90850437 -0.24649097 -0.33743445
vn -0.84389172 -0.25536332 -0.47184356
vn -0.84608542 -0.25052961 -0.47050438
vn -0.85129748 -0.26721225 -0.45154204
vn -0.88208766 -0.25035067 -0.39905626
vn -0.88938971 -0.23355274 -0.39298737
vn -0.89068426 -0.23507415 -0.38912940
vn -0.89071897 -0.23550823 -0.38878732
vn 0.00000000 0.00000000 -1.00000000
vn -0.84389172 -0.25536332 -0.47184356
vn -0.84603975 -0.25048287 -0.47061139
vn -0.84608542 -0.25052961 -0.47050438
vn 0.00000000 -1.00000000 0.00000000
vn -0.83054511 -0.37693249 -0.41002040
vn -0.88611709 -0.33566457 -0.31957128
vn -0.83054511 -0.37693249 -0.41002040
vn -0.84978169 -0.31092729 -0.42567042
vn -0.88233579 -0.25306325 -0.39679030
vn -0.88611709 -0.33566457 -0.31957128
vn -0.90001103 -0.29179159 -0.32378668
vn -0.90210873 -0.24261847 -0.35684188
vn -0.90301704 -0.24396498 -0.35361180
vn -0.90456712 -0.26610045 -0.33308989
vn -0.88208766 -0.25035067 -0.39905626
vn -0.88233579 -0.25306325 -0.39679030
vn -0.89071897 -0.23550823 -0.38878732
vn -0.89118244 -0.23518927 -0.38791735
vn -0.89859880 -0.23322995 -0.37165035
vn -0.90155365 -0.23875729 -0.36082678
vn -0.90210873 -0.24261847 -0.35684188
vn 0.00000000 0.00000000 -1.00000000
vn -0.86328756 0.00000000 -0.50471238
vn -0.86759499 -0.01991030 -0.49687273
vn -0.86982664 -0.01856686 -0.49300800
vn -0.00000000 1.00000000 -0.00000000
vn -0.86228868 0.00346978 -0.50640517
vn -0.86328756 0.00000000 -0.50471238
vn -0.91996551 0.00000000 -0.39199930
vn 0.00000000 1.00000000 -0.00000000
vn -0.92358838 0.00135444 -0.38338318
vn -0.92575202 0.00133588 -0.37812884
vn -0.92580809 0.00169283 -0.37799009
vn -0.91715881 -0.01703145 -0.39815781
vn -0.92164441 -0.00230901 -0.38802866
vn -0.92358838 0.00135444 -0.38338318
vn -0.92456185 -0.04448539 -0.37842626
vn -0.92481484 -0.04438737 -0.37781911
vn -0.92575202 0.00133588 -0.37812884
vn -0.91427438 -0.07770911 -0.39757221
vn -0.91520792 -0.06330766 -0.39797816
vn -0.92427739 -0.07584152 -0.37411144
vn -0.92456185 -0.04448539 -0.37842626
vn -0.92481484 -0.04438737 -0.37781911
vn -0.92589083 -0.04772569 -0.37476450
vn -0.91375967 -0.07842094 -0.39861437
vn -0.91427438 -0.07770911 -0.39757221
vn -0.92427739 -0.07584152 -0.37411144
vn -0.92445692 -0.07638492 -0.37355689
vn -0.90998941 -0.11753563 -0.39762375
vn -0.91350395 -0.07862749 -0.39915944
vn -0.91375967 -0.07842094 -0.39861437
vn -0.92314051 -0.11389835 -0.36720398
vn -0.92445692 -0.07638492 -0.37355689
vn -0.92630470 -0.07870776 -0.36846261
vn -0.90001103 -0.29179159 -0.32378668
vn -0.90456712 -0.26610045 -0.33308989
vn -0.90895600 -0.24746930 -0.33549654
vn -0.91282024 -0.25802884 -0.31651277
vn -0.91330568 -0.24602956 -0.32456462
vn -0.91494712 -0.24640089 -0.31962224
vn -0.91518425 -0.24966868 -0.31639112
vn -0.90301704 -0.24396498 -0.35361180
vn -0.90456712 -0.26610045 -0.33308989
vn -0.90850437 -0.24649097 -0.33743445
vn -0.90895600 -0.24746930 -0.33549654
vn -0.87365378 -0.14432932 -0.46464839
vn -0.87878483 -0.15072853 -0.45278928
vn -0.87978650 -0.08388030 -0.46791005
vn -0.89259907 -0.14480348 -0.42696469
vn -0.90998941 -0.11753563 -0.39762375
vn -0.91350395 -0.07862749 -0.39915944
vn -0.87388926 -0.18149270 -0.45097445
vn -0.87878483 -0.15072853 -0.45278928
vn -0.87906162 -0.19613252 -0.43449131
vn -0.89259907 -0.14480348 -0.42696469
vn -0.89428184 -0.20054251 -0.40005337
vn -0.89952333 -0.18965729 -0.39355799
vn -0.87779383 -0.20307495 -0.43386468
vn -0.87817535 -0.20411708 -0.43260175
vn -0.87906162 -0.19613252 -0.43449131
vn -0.88162412 -0.21343284 -0.42093388
vn -0.88754338 -0.22152532 -0.40397189
vn -0.89428184 -0.20054251 -0.40005337
vn -0.89638487 -0.22373211 -0.38267234
vn -0.89745047 -0.21862334 -0.38312725
vn -0.88754338 -0.22152532 -0.40397189
vn -0.88938971 -0.23355274 -0.39298737
vn -0.89068426 -0.23507415 -0.38912940
vn -0.89118244 -0.23518927 -0.38791735
vn -0.89638487 -0.22373211 -0.38267234
vn -0.89859880 -0.23322995 -0.37165035
vn -0.89870806 -0.23272350 -0.37170363
vn -0.84132843 -0.22539229 -0.49128891
vn -0.84603975 -0.25048287 -0.47061139
vn -0.84608542 -0.25052961 -0.47050438
vn -0.86642759 -0.21812968 -0.44913547
vn -0.88162412 -0.21343284 -0.42093388
vn -0.88754338 -0.22152532 -0.40397189
vn -0.88938971 -0.23355274 -0.39298737
vn -0.89068426 -0.23507415 -0.38912940
vn -0.89071897 -0.23550823 -0.38878732
vn -0.89118244 -0.23518927 -0.38791735
vn 0.00000000 0.00000000 -1.00000000
vn -0.84132843 -0.22539229 -0.49128891
vn -0.84603975 -0.25048287 -0.47061139
vn 0.00000000 0.00000000 -1.00000000
vn -0.85288292 -0.05767794 -0.51890652
vn -0.86759499 -0.01991030 -0.49687273
vn -0.85288292 -0.05767794 -0.51890652
vn -0.86759499 -0.01991030 -0.49687273
vn -0.86982664 -0.01856686 -0.49300800
vn -0.87103282 -0.06867468 -0.48640066
vn -0.91520792 -0.06330766 -0.39797816
vn -0.91715881 -0.01703145 -0.39815781
vn -0.92456185 -0.04448539 -0.37842626
vn -0.86328756 0.00000000 -0.50471238
vn -0.86982664 -0.01856686 -0.49300800
vn -0.91715881 -0.01703145 -0.39815781
vn -0.91996551 0.00000000 -0.39199930
vn -0.92164441 -0.00230901 -0.38802866
vn 0.00000000 1.00000000 -0.00000000
vn -0.91996551 0.00000000 -0.39199930
vn -0.92164441 -0.00230901 -0.38802866
vn -0.92358838 0.00135444 -0.38338318
vn -0.87027643 -0.08027486 -0.48597828
vn -0.87103282 -0.06867468 -0.48640066
vn -0.87172377 -0.08112731 -0.48323496
vn -0.87978650 -0.08388030 -0.46791005
vn -0.91350395 -0.07862749 -0.39915944
vn -0.91375967 -0.07842094 -0.39861437
vn -0.91427438 -0.07770911 -0.39757221
vn -0.91520792 -0.06330766 -0.39797816
vn 0.00000000 0.00000000 -1.00000000
vn -0.87172377 -0.08112731 -0.48323496
vn -0.87365378 -0.14432932 -0.46464839
vn -0.87978650 -0.08388030 -0.46791005
vn 0.00000000 -0.00000000 -1.00000000
vn -0.87365378 -0.14432932 -0.46464839
vn -0.87388926 -0.18149270 -0.45097445
vn -0.87878483 -0.15072853 -0.45278928
vn -0.00000000 -0.00000000 -1.00000000
vn -0.87388926 -0.18149270 -0.45097445
vn -0.87779383 -0.20307495 -0.43386468
vn -0.87906162 -0.19613252 -0.43449131
vn 0.00000000 0.00000000 -1.00000000
vn -0.86857161 -0.20702926 -0.45024688
vn -0.87779383 -0.20307495 -0.43386468
vn -0.87817535 -0.20411708 -0.43260175
vn -0.86642759 -0.21812968 -0.44913547
vn -0.86857161 -0.20702926 -0.45024688
vn -0.87817535 -0.20411708 -0.43260175
vn -0.88162412 -0.21343284 -0.42093388
vn 0.00000000 0.00000000 -1.00000000
vn -0.84132843 -0.22539229 -0.49128891
vn -0.86642759 -0.21812968 -0.44913547
vn -0.86857161 -0.20702926 -0.45024688
vn 0.00000000 0.00000000 -1.00000000
vn -0.85288292 -0.05767794 -0.51890652
vn -0.87027643 -0.08027486 -0.48597828
vn -0.87103282 -0.06867468 -0.48640066
vn 0.00000000 0.00000000 -1.00000000
vn -0.87027643 -0.08027486 -0.48597828
vn -0.87172377 -0.08112731 -0.48323496
f 3//3 7//7 17//17
f 2//2 15//15 20//20
f 1//1 18//18 62//62
f 1//1 62//62 168//168
f 1//1 168//168 309//309
f 1//1 309//309 432//432
f 1//1 432//432 543//543
f 1//1 543//543 667//667
f 1//1 667//667 805//805
f 1//1 805//805 931//931
f 1//1 931//931 1027//1027
f 1//1 1027//1027 935//935
f 1//1 935//935 808//808
f 1//1 808//808 670//670
f 1//1 670//670 552//552
f 1//1 552//552 549//549
f 1//1 549//549 546//546
f 1//1 546//546 438//438
f 1//1 438//438 313//313
f 1//1 313//313 173//173
f 1//1 173//173 66//66
f 1//1 66//66 21//21
f 4//4 24//24 31//31
f 5//5 32//32 10//10
f 8//8 34//34 50//50
f 6//6 48//48 16//16
f 9//9 30//30 40//40
f 13//13 44//44 56//56
f 11//11 54//54 60//60
f 12//12 61//61 64//64
f 14//14 65//65 19//19
f 22//22 68//68 73//73
f 23//23 74//74 27//27
f 28//28 77//77 83//83
f 29//29 84//84 38//38
f 26//26 70//70 91//91
f 25//25 89//89 76//76
f 41//41 85//85 105//105
f 42//42 106//106 111//111
f 39//39 109//109 123//123
f 37//37 122//122 131//131
f 36//36 130//130 135//135
f 35//35 134//134 139//139
f 33//33 138//138 49//49
f 47//47 136//136 143//143
f 46//46 142//142 150//150
f 45//45 149//149 154//154
f 43//43 153//153 55//55
f 53//53 151//151 158//158
f 52//52 157//157 167//167
f 51//51 166//166 58//58
f 57//57 165//165 171//171
f 59//59 172//172 63//63
f 67//67 177//177 72//72
f 71//71 176//176 183//183
f 69//69 182//182 90//90
f 75//75 88//88 82//82
f 81//81 86//86 188//188
f 80//80 186//186 194//194
f 79//79 193//193 204//204
f 78//78 203//203 100//100
f 87//87 181//181 189//189
f 95//95 208//208 215//215
f 94//94 214//214 219//219
f 93//93 218//218 225//225
f 92//92 224//224 232//232
f 99//99 235//235 240//240
f 101//101 241//241 244//244
f 102//102 245//245 248//248
f 103//103 249//249 251//251
f 104//104 253//253 256//256
f 108//108 257//257 261//261
f 107//107 260//260 112//112
f 98//98 199//199 264//264
f 97//97 263//263 272//272
f 96//96 270//270 209//209
f 110//110 258//258 124//124
f 116//116 275//275 280//280
f 115//115 279//279 285//285
f 114//114 284//284 291//291
f 113//113 290//290 129//129
f 125//125 259//259 254//254
f 126//126 255//255 252//252
f 121//121 250//250 247//247
f 120//120 246//246 243//243
f 119//119 242//242 237//237
f 118//118 236//236 294//294
f 117//117 293//293 276//276
f 127//127 289//289 145//145
f 128//128 146//146 133//133
f 132//132 144//144 137//137
f 141//141 286//286 161//161
f 140//140 160//160 148//148
f 147//147 159//159 152//152
f 162//162 287//287 299//299
f 156//156 297//297 307//307
f 155//155 303//303 163//163
f 164//164 304//304 169//169
f 170//170 305//305 310//310
f 174//174 316//316 320//320
f 175//175 321//321 180//180
f 178//178 319//319 330//330
f 179//179 331//331 187//187
f 185//185 329//329 336//336
f 184//184 335//335 192//192
f 191//191 334//334 340//340
f 190//190 339//339 202//202
f 201//201 337//337 344//344
f 200//200 343//343 351//351
f 197//197 348//348 358//358
f 195//195 356//356 360//360
f 196//196 361//361 269//269
f 198//198 271//271 262//262
f 207//207 267//267 369//369
f 205//205 367//367 371//371
f 206//206 372//372 213//213
f 212//212 376//376 216//216
f 210//210 370//370 382//382
f 211//211 383//383 375//375
f 217//217 377//377 223//223
f 221//221 374//374 390//390
f 220//220 389//389 393//393
f 222//222 394//394 231//231
f 233//233 397//397 399//399
f 234//234 401//401 239//239
f 230//230 391//391 404//404
f 229//229 402//402 411//411
f 228//228 407//407 415//415
f 226//226 413//413 516//516
f 226//226 516//516 643//643
f 226//226 643//643 760//760
f 227//227 761//761 746//746
f 226//226 745//745 848//848
f 226//226 848//848 909//909
f 226//226 909//909 791//791
f 226//226 791//791 663//663
f 226//226 663//663 539//539
f 226//226 539//539 536//536
f 226//226 536//536 533//533
f 226//226 533//533 428//428
f 226//226 428//428 302//302
f 226//226 302//302 423//423
f 226//226 423//423 273//273
f 226//226 273//273 292//292
f 226//226 292//292 395//395
f 238//238 400//400 296//296
f 268//268 359//359 354//354
f 266//266 353//353 422//422
f 265//265 421//421 368//368
f 274//274 427//427 278//278
f 277//277 426//426 283//283
f 282//282 425//425 301//301
f 281//281 300//300 288//288
f 295//295 398//398 396//396
f 298//298 424//424 308//308
f 306//306 429//429 311//311
f 312//312 430//430 433//433
f 314//314 441//441 445//445
f 315//315 446//446 318//318
f 317//317 444//444 328//328
f 326//326 450//450 341//341
f 327//327 345//345 332//332
f 324//324 442//442 458//458
f 323//323 457//457 464//464
f 322//322 463//463 469//469
f 325//325 471//471 449//449
f 333//333 346//346 338//338
f 342//342 451//451 350//350
f 349//349 448//448 478//478
f 347//347 476//476 357//357
f 355//355 474//474 483//483
f 352//352 481//481 420//420
f 365//365 489//489 380//380
f 366//366 382//382 370//370
f 364//364 417//417 498//498
f 362//362 497//497 502//502
f 363//363 503//503 488//488
f 373//373 381//381 388//388
f 378//378 487//487 508//508
f 379//379 509//509 385//385
f 386//386 412//412 403//403
f 387//387 405//405 392//392
f 384//384 507//507 410//410
f 409//409 506//506 515//515
f 408//408 514//514 520//520
f 406//406 518//518 414//414
f 419//419 480//480 528//528
f 418//418 527//527 532//532
f 416//416 531//531 496//496
f 431//431 534//534 434//434
f 435//435 535//535 537//537
f 437//437 538//538 542//542
f 436//436 541//541 545//545
f 439//439 548//548 459//459
f 440//440 460//460 443//443
f 447//447 470//470 477//477
f 455//455 547//547 551//551
f 454//454 550//550 555//555
f 453//453 554//554 562//562
f 452//452 561//561 568//568
f 456//456 570//570 462//462
f 461//461 569//569 468//468
f 466//466 566//566 574//574
f 465//465 573//573 579//579
f 467//467 580//580 475//475
f 472//472 576//576 585//585
f 473//473 586//586 482//482
f 479//479 582//582 526//526
f 486//486 592//592 505//505
f 484//484 501//501 598//598
f 485//485 599//599 590//590
f 495//495 530//530 604//604
f 492//492 601//601 613//613
f 490//490 612//612 617//617
f 491//491 618//618 620//620
f 493//493 622//622 624//624
f 494//494 629//629 499//499
f 500//500 630//630 596//596
f 504//504 591//591 513//513
f 512//512 589//589 634//634
f 511//511 633//633 642//642
f 510//510 641//641 519//519
f 517//517 637//637 645//645
f 524//524 603//603 529//529
f 525//525 581//581 648//648
f 522//522 647//647 658//658
f 521//521 657//657 661//661
f 523//523 662//662 602//602
f 540//540 664//664 787//787
f 540//540 787//787 905//905
f 540//540 905//905 1009//1009
f 540//540 1009//1009 1059//1059
f 540//540 1059//1059 1051//1051
f 540//540 1051//1051 1047//1047
f 540//540 1047//1047 1043//1043
f 540//540 1043//1043 1039//1039
f 540//540 1039//1039 1067//1067
f 540//540 1067//1067 1063//1063
f 540//540 1063//1063 1012//1012
f 540//540 1012//1012 927//927
f 540//540 927//927 801//801
f 540//540 801//801 668//668
f 540//540 668//668 544//544
f 553//553 673//673 559//559
f 560//560 678//678 567//567
f 558//558 672//672 684//684
f 556//556 683//683 689//689
f 557//557 690//690 675//675
f 563//563 677//677 693//693
f 564//564 694//694 698//698
f 565//565 699//699 571//571
f 572//572 700//700 578//578
f 577//577 697//697 706//706
f 575//575 705//705 584//584
f 583//583 704//704 650//650
f 587//587 597//597 711//711
f 588//588 712//712 632//632
f 594//594 628//628 715//715
f 593//593 714//714 721//721
f 595//595 722//722 707//707
f 600//600 660//660 611//611
f 607//607 727//727 732//732
f 610//610 733//733 614//614
f 609//609 659//659 655//655
f 608//608 654//654 739//739
f 605//605 737//737 743//743
f 606//606 744//744 726//726
f 616//616 749//749 619//619
f 615//615 734//734 748//748
f 621//621 751//751 753//753
f 623//623 755//755 625//625
f 627//627 720//720 713//713
f 626//626 756//756 718//718
f 631//631 710//710 640//640
f 639//639 709//709 759//759
f 638//638 757//757 719//719
f 636//636 716//716 763//763
f 635//635 762//762 644//644
f 649//649 702//702 773//773
f 646//646 769//769 656//656
f 653//653 767//767 779//779
f 651//651 776//776 785//785
f 652//652 786//786 738//738
f 665//665 793//793 795//795
f 666//666 796//796 788//788
f 669//669 802//802 806//806
f 671//671 811//811 682//682
f 674//674 688//688 815//815
f 676//676 816//816 691//691
f 681//681 810//810 824//824
f 679//679 823//823 830//830
f 680//680 831//831 686//686
f 685//685 829//829 836//836
f 687//687 837//837 813//813
f 692//692 817//817 695//695
f 696//696 818//818 703//703
f 701//701 814//814 772//772
f 708//708 723//723 758//758
f 717//717 754//754 765//765
f 724//724 742//742 842//842
f 725//725 843//843 730//730
f 728//728 841//841 846//846
f 729//729 847//847 852//852
f 731//731 853//853 747//747
f 735//735 784//784 858//858
f 736//736 859//859 862//862
f 736//736 862//862 740//740
f 741//741 863//863 840//840
f 750//750 764//764 752//752
f 771//771 812//812 835//835
f 770//770 834//834 870//870
f 768//768 869//869 874//874
f 766//766 873//873 778//778
f 777//777 872//872 880//880
f 775//775 878//878 886//886
f 774//774 885//885 783//783
f 780//780 884//884 890//890
f 781//781 891//891 895//895
f 782//782 896//896 854//854
f 789//789 898//898 906//906
f 790//790 798//798 900//900
f 792//792 910//910 912//912
f 794//794 913//913 797//797
f 800//800 914//914 921//921
f 799//799 920//920 901//901
f 804//804 928//928 1022//1022
f 804//804 1022//1022 933//933
f 803//803 932//932 807//807
f 809//809 938//938 821//821
f 820//820 937//937 944//944
f 819//819 943//943 949//949
f 822//822 950//950 827//827
f 825//825 947//947 953//953
f 826//826 954//954 959//959
f 828//828 960//960 833//833
f 832//832 958//958 868//868
f 838//838 861//861 966//966
f 839//839 967//967 845//845
f 844//844 964//964 851//851
f 850//850 961//961 916//916
f 849//849 915//915 911//911
f 855//855 897//897 970//970
f 856//856 971//971 963//963
f 857//857 965//965 860//860
f 867//867 879//879 871//871
f 866//866 955//955 976//976
f 864//864 975//975 981//981
f 865//865 983//983 877//877
f 875//875 982//982 989//989
f 876//876 991//991 882//882
f 881//881 990//990 996//996
f 883//883 998//998 888//888
f 887//887 997//997 924//924
f 889//889 925//925 892//892
f 893//893 926//926 917//917
f 894//894 918//918 968//968
f 899//899 1001//1001 908//908
f 904//904 922//922 1007//1007
f 903//903 1006//1006 994//994
f 902//902 993//993 1005//1005
f 907//907 1000//1000 1011//1011
f 919//919 962//962 969//969
f 923//923 995//995 1008//1008
f 929//929 1014//1014 1016//1016
f 930//930 1017//1017 1023//1023
f 934//934 1025//1025 1028//1028
f 936//936 1030//1030 941//941
f 940//940 1029//1029 1026//1026
f 939//939 1024//1024 1020//1020
f 942//942 1021//1021 948//948
f 946//946 1019//1019 1038//1038
f 945//945 1037//1037 952//952
f 951//951 1036//1036 957//957
f 956//956 1035//1035 977//977
f 974//974 1034//1034 1042//1042
f 972//972 1041//1041 1044//1044
f 973//973 1046//1046 979//979
f 978//978 1045//1045 1048//1048
f 980//980 1050//1050 986//986
f 984//984 1049//1049 1053//1053
f 985//985 1054//1054 1057//1057
f 987//987 1058//1058 1003//1003
f 988//988 1004//1004 992//992
f 1002//1002 1055//1055 1061//1061
f 999//999 1060//1060 1010//1010
f 1013//1013 1064//1064 1015//1015
f 1018//1018 1066//1066 1032//1032
f 1031//1031 1065//1065 1068//1068
f 1033//1033 1069//1069 1040//1040
f 1052//1052 1062//1062 1056//1056

