# https://github.com/mikedh/trimesh
v 0.55072039 -0.00003053 0.15452754
v 0.55072039 -0.00003053 0.15452754
v 0.55072039 -0.00003053 0.15452754
v 0.39992592 -0.00003053 0.15022662
v 0.39992592 -0.00003053 0.15022662
v 0.39992592 -0.00003053 0.15022662
v 0.55072039 -0.00003053 0.04444787
v 0.55072039 -0.00003053 0.04444787
v 0.55072039 -0.00003053 0.04444787
v 0.55072039 0.88016456 0.25143403
v 0.55072039 0.88016456 0.25143403
v 0.55072039 0.88016456 0.25143403
v 0.55072039 0.88016456 0.25143403
v 0.55072039 0.88016456 0.25143403
v 0.37792155 -0.00003053 0.14958763
v 0.37792155 -0.00003053 0.14958763
v 0.37792155 -0.00003053 0.14958763
v 0.37792155 -0.00003053 0.14958763
v -0.00014322 -0.00003053 0.04786408
v -0.00014322 -0.00003053 0.04786408
v -0.00014322 -0.00003053 0.04786408
v -0.00014322 -0.00003053 0.04786408
v 0.55072039 0.56112504 0.00038165
v 0.55072039 0.56112504 0.00038165
v 0.55072039 0.56112504 0.00038165
v 0.55072039 0.56112504 0.00038165
v 0.55072039 0.56112504 0.00038165
v 0.55072039 0.56112504 0.00038165
v 0.55072039 0.56112504 0.00038165
v 0.55072039 1.02255243 0.25143403
v 0.55072039 1.02255243 0.25143403
v 0.55072039 1.02255243 0.25143403
v 0.55072039 1.02255243 0.25143403
v -0.00014322 1.03287691 0.25143403
v -0.00014322 1.03287691 0.25143403
v -0.00014322 1.03287691 0.25143403
v -0.00014322 1.03287691 0.25143403
v -0.00014322 1.03287691 0.25143403
v 0.15566695 -0.00003053 0.13872465
v 0.15566695 -0.00003053 0.13872465
v 0.15566695 -0.00003053 0.13872465
v 0.15566695 -0.00003053 0.13872465
v -0.00014322 -0.00003053 0.12238106
v -0.00014322 -0.00003053 0.12238106
v -0.00014322 -0.00003053 0.12238106
v -0.00014322 0.77828062 0.00057822
v -0.00014322 0.77828062 0.00057822
v -0.00014322 0.77828062 0.00057822
v -0.00014322 0.77828062 0.00057822
v -0.00014322 0.77828062 0.00057822
v 0.51134986 0.60049444 0.00065196
v 0.51134986 0.60049444 0.00065196
v 0.51134986 0.60049444 0.00065196
v 0.51134986 0.60049444 0.00065196
v 0.55072039 0.60049444 0.00787753
v 0.55072039 0.60049444 0.00787753
v 0.55072039 0.60049444 0.00787753
v 0.55072039 0.60049444 0.00787753
v 0.28898737 0.73380578 0.00055367
v 0.28898737 0.73380578 0.00055367
v 0.28898737 0.73380578 0.00055367
v 0.28898737 0.73380578 0.00055367
v 0.28898737 0.73380578 0.00055367
v 0.28898737 0.73380578 0.00055367
v 0.28898737 0.73380578 0.00055367
v 0.28898737 0.73380578 0.00055367
v 0.37792155 0.68933082 0.00062740
v 0.37792155 0.68933082 0.00062740
v 0.37792155 0.68933082 0.00062740
v 0.37792155 0.68933082 0.00062740
v 0.37792155 0.68933082 0.00062740
v 0.55072039 1.01642579 0.23971090
v 0.55072039 1.01642579 0.23971090
v 0.55072039 1.01642579 0.23971090
v 0.54074293 1.02640992 0.24787039
v 0.54074293 1.02640992 0.24787039
v 0.54074293 1.02640992 0.24787039
v 0.54074293 1.02640992 0.24787039
v 0.54074293 1.02640992 0.24787039
v 0.54074293 1.02640992 0.24787039
v 0.54074293 1.02640992 0.24787039
v 0.54074293 1.02640992 0.24787039
v 0.54074293 1.02640992 0.24787039
v 0.54257661 1.02720410 0.25143403
v 0.54257661 1.02720410 0.25143403
v 0.54257661 1.02720410 0.25143403
v -0.00014322 0.00008294 0.12941003
v -0.00014322 0.00008294 0.12941003
v -0.00014322 0.00008294 0.12941003
v -0.00014322 0.00008294 0.12941003
v -0.00014322 1.15892702 0.25143403
v -0.00014322 1.15892702 0.25143403
v -0.00014322 1.15892702 0.25143403
v 0.02223866 -0.00003053 0.12941003
v 0.02223866 -0.00003053 0.12941003
v 0.02223866 -0.00003053 0.12941003
v -0.00014322 0.80074501 0.00694358
v -0.00014322 0.80074501 0.00694358
v -0.00014322 0.80074501 0.00694358
v -0.00014322 0.80074501 0.00694358
v 0.02223866 0.77828062 0.00060278
v 0.02223866 0.77828062 0.00060278
v 0.02223866 0.77828062 0.00060278
v 0.02223866 0.77828062 0.00060278
v 0.02223866 0.77828062 0.00060278
v 0.46685582 0.64496934 0.00109434
v 0.46685582 0.64496934 0.00109434
v 0.46685582 0.64496934 0.00109434
v 0.46685582 0.64496934 0.00109434
v 0.46685582 0.64496934 0.00109434
v 0.46685582 0.64496934 0.00109434
v 0.55072039 0.60650760 0.00957334
v 0.55072039 0.60650760 0.00957334
v 0.55072039 0.60650760 0.00957334
v 0.55072039 0.60650760 0.00957334
v 0.55072039 0.60650760 0.00957334
v 0.33348143 0.73380578 0.00355202
v 0.33348143 0.73380578 0.00355202
v 0.33348143 0.73380578 0.00355202
v 0.33348143 0.73380578 0.00355202
v 0.33348143 0.73380578 0.00355202
v 0.33348143 0.73380578 0.00355202
v 0.33348143 0.73380578 0.00355202
v 0.33348143 0.73380578 0.00355202
v 0.11117288 0.77828062 0.00072569
v 0.11117288 0.77828062 0.00072569
v 0.11117288 0.77828062 0.00072569
v 0.11117288 0.77828062 0.00072569
v 0.15566695 0.77828062 0.00116807
v 0.15566695 0.77828062 0.00116807
v 0.15566695 0.77828062 0.00116807
v 0.15566695 0.77828062 0.00116807
v 0.15566695 0.77828062 0.00116807
v 0.20010708 0.77828062 0.00320792
v 0.20010708 0.77828062 0.00320792
v 0.20010708 0.77828062 0.00320792
v 0.20010708 0.77828062 0.00320792
v 0.20010708 0.77828062 0.00320792
v 0.20010708 0.77828062 0.00320792
v 0.55072039 1.01529127 0.23767102
v 0.55072039 1.01529127 0.23767102
v 0.55072039 1.01529127 0.23767102
v 0.55072039 1.01109332 0.23049456
v 0.55072039 1.01109332 0.23049456
v 0.55072039 1.01109332 0.23049456
v 0.55072039 1.01109332 0.23049456
v 0.52283740 1.01801413 0.21823072
v 0.52283740 1.01801413 0.21823072
v 0.52283740 1.01801413 0.21823072
v 0.52283740 1.01801413 0.21823072
v 0.52283740 1.01801413 0.21823072
v 0.52283740 1.01801413 0.21823072
v 0.52283740 1.01801413 0.21823072
v 0.50935435 1.03230971 0.23265731
v 0.50935435 1.03230971 0.23265731
v 0.50935435 1.03230971 0.23265731
v 0.44938174 1.06952339 0.25047556
v 0.44938174 1.06952339 0.25047556
v 0.44938174 1.06952339 0.25047556
v 0.44938174 1.06952339 0.25047556
v 0.44938174 1.06952339 0.25047556
v 0.44938174 1.06952339 0.25047556
v 0.44938174 1.06952339 0.25047556
v 0.44938174 1.06952339 0.25047556
v 0.44938174 1.06952339 0.25047556
v 0.44938174 1.06952339 0.25047556
v 0.53712946 1.02981359 0.25143403
v 0.53712946 1.02981359 0.25143403
v 0.53712946 1.02981359 0.25143403
v 0.53712946 1.02981359 0.25143403
v 0.02223866 1.15904051 0.25143403
v 0.02223866 1.15904051 0.25143403
v 0.02223866 1.15904051 0.25143403
v 0.02223866 1.15904051 0.25143403
v 0.02223866 1.15904051 0.25143403
v -0.00014322 1.15847319 0.25013146
v -0.00014322 1.15847319 0.25013146
v -0.00014322 1.15847319 0.25013146
v -0.00014322 1.15847319 0.25013146
v -0.00014322 1.15847319 0.25013146
v -0.00014322 0.82275558 0.01318616
v -0.00014322 0.82275558 0.01318616
v -0.00014322 0.82275558 0.01318616
v -0.00014322 0.82275558 0.01318616
v 0.02223866 0.82275558 0.01321071
v 0.02223866 0.82275558 0.01321071
v 0.02223866 0.82275558 0.01321071
v 0.02223866 0.82275558 0.01321071
v 0.02223866 0.82275558 0.01321071
v 0.02223866 0.82275558 0.01321071
v 0.02223866 0.82275558 0.01321071
v 0.02223866 0.82275558 0.01321071
v 0.42241564 0.68933082 0.00458425
v 0.42241564 0.68933082 0.00458425
v 0.42241564 0.68933082 0.00458425
v 0.42241564 0.68933082 0.00458425
v 0.42241564 0.68933082 0.00458425
v 0.42241564 0.68933082 0.00458425
v 0.42241564 0.68933082 0.00458425
v 0.42241564 0.68933082 0.00458425
v 0.42241564 0.68933082 0.00458425
v 0.51512510 0.64882690 0.01495570
v 0.51512510 0.64882690 0.01495570
v 0.51512510 0.64882690 0.01495570
v 0.51512510 0.64882690 0.01495570
v 0.55072039 0.87199569 0.12569892
v 0.55072039 0.87199569 0.12569892
v 0.55072039 0.87199569 0.12569892
v 0.55072039 0.87199569 0.12569892
v 0.24460115 0.77828062 0.00782835
v 0.24460115 0.77828062 0.00782835
v 0.24460115 0.77828062 0.00782835
v 0.24460115 0.77828062 0.00782835
v 0.24460115 0.77828062 0.00782835
v 0.24460115 0.77828062 0.00782835
v 0.24460115 0.77828062 0.00782835
v 0.24460115 0.77828062 0.00782835
v 0.33348143 0.76931763 0.02068207
v 0.33348143 0.76931763 0.02068207
v 0.33348143 0.76931763 0.02068207
v 0.33348143 0.76931763 0.02068207
v 0.33348143 0.76931763 0.02068207
v 0.33348143 0.76931763 0.02068207
v 0.33348143 0.76931763 0.02068207
v 0.33348143 0.76931763 0.02068207
v 0.38051033 0.73720944 0.01606166
v 0.38051033 0.73720944 0.01606166
v 0.38051033 0.73720944 0.01606166
v 0.38051033 0.73720944 0.01606166
v 0.06673273 0.82275558 0.01453787
v 0.06673273 0.82275558 0.01453787
v 0.06673273 0.82275558 0.01453787
v 0.06673273 0.82275558 0.01453787
v 0.06673273 0.82275558 0.01453787
v 0.06673273 0.82275558 0.01453787
v 0.06673273 0.82275558 0.01453787
v 0.15566695 0.81787694 0.01805234
v 0.15566695 0.81787694 0.01805234
v 0.15566695 0.81787694 0.01805234
v 0.15566695 0.81787694 0.01805234
v 0.15566695 0.81787694 0.01805234
v 0.15566695 0.81787694 0.01805234
v 0.55072039 0.99203259 0.20282105
v 0.55072039 0.99203259 0.20282105
v 0.55072039 0.99203259 0.20282105
v 0.55072039 0.99203259 0.20282105
v 0.49317467 1.02470809 0.20751524
v 0.49317467 1.02470809 0.20751524
v 0.49317467 1.02470809 0.20751524
v 0.49317467 1.02470809 0.20751524
v 0.49317467 1.02470809 0.20751524
v 0.49317467 1.02470809 0.20751524
v 0.49317467 1.02470809 0.20751524
v 0.49317467 1.02470809 0.20751524
v 0.46523783 1.05295867 0.23423025
v 0.46523783 1.05295867 0.23423025
v 0.46523783 1.05295867 0.23423025
v 0.46523783 1.05295867 0.23423025
v 0.42241564 1.06237561 0.21840277
v 0.42241564 1.06237561 0.21840277
v 0.42241564 1.06237561 0.21840277
v 0.42241564 1.06237561 0.21840277
v 0.42241564 1.06237561 0.21840277
v 0.42241564 1.07508272 0.24064481
v 0.42241564 1.07508272 0.24064481
v 0.42241564 1.07508272 0.24064481
v 0.42241564 1.07508272 0.24064481
v 0.42241564 1.07508272 0.24064481
v 0.42241564 1.07508272 0.24064481
v 0.40925616 1.08563417 0.25143403
v 0.40925616 1.08563417 0.25143403
v 0.40925616 1.08563417 0.25143403
v 0.40925616 1.08563417 0.25143403
v 0.44841096 1.07031757 0.25143403
v 0.44841096 1.07031757 0.25143403
v 0.44841096 1.07031757 0.25143403
v 0.44992107 1.06963676 0.25143403
v 0.44992107 1.06963676 0.25143403
v 0.44992107 1.06963676 0.25143403
v 0.02223866 1.15847319 0.25015604
v 0.02223866 1.15847319 0.25015604
v 0.02223866 1.15847319 0.25015604
v 0.02223866 1.15847319 0.25015604
v 0.06673273 1.15790588 0.25143403
v 0.06673273 1.15790588 0.25143403
v 0.06673273 1.15790588 0.25143403
v 0.06673273 1.15790588 0.25126198
v 0.06673273 1.15790588 0.25126198
v 0.06673273 1.15790588 0.25126198
v 0.06673273 1.15790588 0.25126198
v 0.06673273 1.15790588 0.25126198
v 0.06673273 1.15790588 0.25126198
v 0.06673273 1.15790588 0.25126198
v 0.02223866 1.14644676 0.22791401
v 0.02223866 1.14644676 0.22791401
v 0.02223866 1.14644676 0.22791401
v 0.02223866 1.14644676 0.22791401
v 0.02223866 1.14644676 0.22791401
v 0.02223866 1.14644676 0.22791401
v 0.02223866 1.14644676 0.22791401
v 0.02223866 1.14644676 0.22791401
v -0.00014322 1.14644676 0.22791401
v -0.00014322 1.14644676 0.22791401
v -0.00014322 1.14644676 0.22791401
v -0.00014322 1.04513019 0.13771701
v -0.00014322 1.04513019 0.13771701
v -0.00014322 1.04513019 0.13771701
v 0.02223866 1.04513019 0.13771701
v 0.02223866 1.04513019 0.13771701
v 0.02223866 1.04513019 0.13771701
v 0.02223866 1.04513019 0.13771701
v 0.02223866 1.04513019 0.13771701
v 0.02223866 1.04513019 0.13771701
v 0.06673273 1.04513019 0.13860178
v 0.06673273 1.04513019 0.13860178
v 0.06673273 1.04513019 0.13860178
v 0.06673273 1.04513019 0.13860178
v 0.06673273 1.04513019 0.13860178
v 0.06673273 1.04513019 0.13860178
v 0.50989372 0.90886903 0.13095838
v 0.50989372 0.90886903 0.13095838
v 0.50989372 0.90886903 0.13095838
v 0.50989372 0.90886903 0.13095838
v 0.50989372 0.90886903 0.13095838
v 0.50989372 0.90886903 0.13095838
v 0.50989372 0.90886903 0.13095838
v 0.50989372 0.90886903 0.13095838
v 0.50989372 0.90886903 0.13095838
v 0.52370036 0.88379514 0.12316748
v 0.52370036 0.88379514 0.12316748
v 0.52370036 0.88379514 0.12316748
v 0.55072039 0.91136509 0.14361545
v 0.55072039 0.91136509 0.14361545
v 0.55072039 0.91136509 0.14361545
v 0.55072039 0.91136509 0.14361545
v 0.55072039 0.91136509 0.14361545
v 0.55072039 0.91136509 0.14361545
v 0.46690974 0.69080573 0.01807690
v 0.46690974 0.69080573 0.01807690
v 0.46690974 0.69080573 0.01807690
v 0.46690974 0.69080573 0.01807690
v 0.28914917 0.78100365 0.01788032
v 0.28914917 0.78100365 0.01788032
v 0.28914917 0.78100365 0.01788032
v 0.20010708 0.81299835 0.02065751
v 0.20010708 0.81299835 0.02065751
v 0.20010708 0.81299835 0.02065751
v 0.20010708 0.81299835 0.02065751
v 0.20010708 0.81299835 0.02065751
v 0.33348143 1.00065523 0.14056790
v 0.33348143 1.00065523 0.14056790
v 0.33348143 1.00065523 0.14056790
v 0.33348143 1.00065523 0.14056790
v 0.33348143 1.00065523 0.14056790
v 0.33348143 1.00065523 0.14056790
v 0.33348143 1.00065523 0.14056790
v 0.33348143 1.00065523 0.14056790
v 0.37792155 0.96196663 0.12864816
v 0.37792155 0.96196663 0.12864816
v 0.37792155 0.96196663 0.12864816
v 0.37792155 0.96196663 0.12864816
v 0.37792155 0.96196663 0.12864816
v 0.37792155 0.96196663 0.12864816
v 0.41950333 0.95232290 0.13213807
v 0.41950333 0.95232290 0.13213807
v 0.41950333 0.95232290 0.13213807
v 0.41950333 0.95232290 0.13213807
v 0.41950333 0.95232290 0.13213807
v 0.41950333 0.95232290 0.13213807
v 0.46685582 0.92078191 0.12665740
v 0.46685582 0.92078191 0.12665740
v 0.46685582 0.92078191 0.12665740
v 0.46685582 0.92078191 0.12665740
v 0.11117288 1.04513019 0.14005181
v 0.11117288 1.04513019 0.14005181
v 0.11117288 1.04513019 0.14005181
v 0.11117288 1.04513019 0.14005181
v 0.15566695 1.04513019 0.14307475
v 0.15566695 1.04513019 0.14307475
v 0.15566695 1.04513019 0.14307475
v 0.15566695 1.04513019 0.14307475
v 0.15566695 1.04513019 0.14307475
v 0.15566695 1.04513019 0.14307475
v 0.20010708 1.04513019 0.14803928
v 0.20010708 1.04513019 0.14803928
v 0.20010708 1.04513019 0.14803928
v 0.20010708 1.04513019 0.14803928
v 0.20010708 1.04513019 0.14803928
v 0.20010708 1.04513019 0.14803928
v 0.20010708 1.04513019 0.14803928
v 0.55072039 0.98851544 0.19883960
v 0.55072039 0.98851544 0.19883960
v 0.55072039 0.98851544 0.19883960
v 0.55072039 0.98851544 0.19883960
v 0.55072039 0.98851544 0.19883960
v 0.46685582 1.03060776 0.20132187
v 0.46685582 1.03060776 0.20132187
v 0.46685582 1.03060776 0.20132187
v 0.46685582 1.03060776 0.20132187
v 0.46685582 1.03060776 0.20132187
v 0.46685582 1.03060776 0.20132187
v 0.39949444 1.06714088 0.21024325
v 0.39949444 1.06714088 0.21024325
v 0.39949444 1.06714088 0.21024325
v 0.39949444 1.06714088 0.21024325
v 0.39949444 1.06714088 0.21024325
v 0.39949444 1.06714088 0.21024325
v 0.39949444 1.06714088 0.21024325
v 0.50735885 0.99884003 0.18846819
v 0.50735885 0.99884003 0.18846819
v 0.50735885 0.99884003 0.18846819
v 0.50735885 0.99884003 0.18846819
v 0.38196650 1.08370537 0.22786486
v 0.38196650 1.08370537 0.22786486
v 0.38196650 1.08370537 0.22786486
v 0.38196650 1.08370537 0.22786486
v 0.38196650 1.08370537 0.22786486
v 0.35678017 1.10594290 0.25143403
v 0.35678017 1.10594290 0.25143403
v 0.35678017 1.10594290 0.25143403
v 0.35678017 1.10594290 0.25143403
v 0.07002261 1.15779251 0.25143403
v 0.07002261 1.15779251 0.25143403
v 0.07002261 1.15779251 0.25143403
v 0.09973924 1.15620416 0.25143403
v 0.09973924 1.15620416 0.25143403
v 0.09973924 1.15620416 0.25143403
v 0.09973924 1.15620416 0.25143403
v 0.09973924 1.15620416 0.25143403
v 0.06673273 1.14576608 0.22901997
v 0.06673273 1.14576608 0.22901997
v 0.06673273 1.14576608 0.22901997
v 0.06673273 1.14576608 0.22901997
v 0.06673273 1.14576608 0.22901997
v 0.06673273 1.14576608 0.22901997
v 0.06673273 1.12352866 0.19643107
v 0.06673273 1.12352866 0.19643107
v 0.06673273 1.12352866 0.19643107
v 0.06673273 1.12352866 0.19643107
v 0.06673273 1.12352866 0.19643107
v 0.06673273 1.12352866 0.19643107
v 0.02223866 1.12420934 0.19576749
v 0.02223866 1.12420934 0.19576749
v 0.02223866 1.12420934 0.19576749
v 0.02223866 1.12420934 0.19576749
v 0.02223866 1.12420934 0.19576749
v 0.02223866 1.12420934 0.19576749
v 0.02223866 1.12420934 0.19576749
v -0.00014322 1.13544148 0.21196362
v -0.00014322 1.13544148 0.21196362
v -0.00014322 1.13544148 0.21196362
v -0.00014322 1.13544148 0.21196362
v -0.00014322 1.07916719 0.15732929
v -0.00014322 1.07916719 0.15732929
v -0.00014322 1.07916719 0.15732929
v 0.02223866 1.07916719 0.15732929
v 0.02223866 1.07916719 0.15732929
v 0.02223866 1.07916719 0.15732929
v 0.02223866 1.07916719 0.15732929
v 0.02223866 1.07916719 0.15732929
v 0.06673273 1.07848638 0.15777168
v 0.06673273 1.07848638 0.15777168
v 0.06673273 1.07848638 0.15777168
v 0.06673273 1.07848638 0.15777168
v 0.06673273 1.07848638 0.15777168
v 0.06673273 1.07848638 0.15777168
v 0.11117288 1.07735187 0.15845984
v 0.11117288 1.07735187 0.15845984
v 0.11117288 1.07735187 0.15845984
v 0.11117288 1.07735187 0.15845984
v 0.11117288 1.07735187 0.15845984
v 0.11117288 1.07735187 0.15845984
v 0.11117288 1.07735187 0.15845984
v 0.46685582 0.95618033 0.14454934
v 0.46685582 0.95618033 0.14454934
v 0.46685582 0.95618033 0.14454934
v 0.46685582 0.95618033 0.14454934
v 0.46685582 0.95618033 0.14454934
v 0.46685582 0.95618033 0.14454934
v 0.50854534 0.95731491 0.15578097
v 0.50854534 0.95731491 0.15578097
v 0.50854534 0.95731491 0.15578097
v 0.50854534 0.95731491 0.15578097
v 0.50854534 0.95731491 0.15578097
v 0.50854534 0.95731491 0.15578097
v 0.50854534 0.95731491 0.15578097
v 0.50854534 0.95731491 0.15578097
v 0.55072039 0.91658407 0.14631888
v 0.55072039 0.91658407 0.14631888
v 0.55072039 0.91658407 0.14631888
v 0.55072039 0.91658407 0.14631888
v 0.28515819 0.99634397 0.13176939
v 0.28515819 0.99634397 0.13176939
v 0.28515819 0.99634397 0.13176939
v 0.28515819 0.99634397 0.13176939
v 0.28898737 1.03798240 0.15558437
v 0.28898737 1.03798240 0.15558437
v 0.28898737 1.03798240 0.15558437
v 0.28898737 1.03798240 0.15558437
v 0.28898737 1.03798240 0.15558437
v 0.28898737 1.03798240 0.15558437
v 0.33348143 1.03242308 0.15885308
v 0.33348143 1.03242308 0.15885308
v 0.33348143 1.03242308 0.15885308
v 0.33348143 1.03242308 0.15885308
v 0.33348143 1.03242308 0.15885308
v 0.33348143 1.03242308 0.15885308
v 0.36756659 1.02731758 0.16226926
v 0.36756659 1.02731758 0.16226926
v 0.36756659 1.02731758 0.16226926
v 0.36756659 1.02731758 0.16226926
v 0.36756659 1.02731758 0.16226926
v 0.36756659 1.02731758 0.16226926
v 0.38061818 1.00439936 0.15194699
v 0.38061818 1.00439936 0.15194699
v 0.38061818 1.00439936 0.15194699
v 0.38061818 1.00439936 0.15194699
v 0.38061818 1.00439936 0.15194699
v 0.42241564 0.99418825 0.15548605
v 0.42241564 0.99418825 0.15548605
v 0.42241564 0.99418825 0.15548605
v 0.42241564 0.99418825 0.15548605
v 0.42241564 0.99418825 0.15548605
v 0.42241564 0.99418825 0.15548605
v 0.15566695 1.07474226 0.16005734
v 0.15566695 1.07474226 0.16005734
v 0.15566695 1.07474226 0.16005734
v 0.15566695 1.07474226 0.16005734
v 0.15566695 1.07474226 0.16005734
v 0.15566695 1.07474226 0.16005734
v 0.20010708 1.07065791 0.16290823
v 0.20010708 1.07065791 0.16290823
v 0.20010708 1.07065791 0.16290823
v 0.20010708 1.07065791 0.16290823
v 0.20010708 1.07065791 0.16290823
v 0.55072039 0.96491647 0.17657298
v 0.55072039 0.96491647 0.17657298
v 0.55072039 0.96491647 0.17657298
v 0.52148908 0.97285843 0.16944569
v 0.52148908 0.97285843 0.16944569
v 0.52148908 0.97285843 0.16944569
v 0.52148908 0.97285843 0.16944569
v 0.52148908 0.97285843 0.16944569
v 0.52148908 0.97285843 0.16944569
v 0.52148908 0.97285843 0.16944569
v 0.52148908 0.97285843 0.16944569
v 0.52148908 0.97285843 0.16944569
v 0.42241564 1.04013807 0.19257250
v 0.42241564 1.04013807 0.19257250
v 0.42241564 1.04013807 0.19257250
v 0.42241564 1.04013807 0.19257250
v 0.42241564 1.04013807 0.19257250
v 0.46685582 1.00712234 0.17907983
v 0.46685582 1.00712234 0.17907983
v 0.46685582 1.00712234 0.17907983
v 0.46685582 1.00712234 0.17907983
v 0.36983174 1.07258660 0.20380414
v 0.36983174 1.07258660 0.20380414
v 0.36983174 1.07258660 0.20380414
v 0.36983174 1.07258660 0.20380414
v 0.36983174 1.07258660 0.20380414
v 0.36983174 1.07258660 0.20380414
v 0.36983174 1.07258660 0.20380414
v 0.36983174 1.07258660 0.20380414
v 0.36983174 1.07258660 0.20380414
v 0.36983174 1.07258660 0.20380414
v 0.34755775 1.10877925 0.25143403
v 0.34755775 1.10877925 0.25143403
v 0.34755775 1.10877925 0.25143403
v 0.34755775 1.10877925 0.25143403
v 0.34755775 1.10877925 0.25143403
v 0.34755775 1.10877925 0.25143403
v 0.12519525 1.15404838 0.25143403
v 0.12519525 1.15404838 0.25143403
v 0.12519525 1.15404838 0.25143403
v 0.11252117 1.14667374 0.23560655
v 0.11252117 1.14667374 0.23560655
v 0.11252117 1.14667374 0.23560655
v 0.11252117 1.14667374 0.23560655
v 0.11252117 1.14667374 0.23560655
v 0.11252117 1.14667374 0.23560655
v 0.11252117 1.14667374 0.23560655
v 0.11117288 1.12228054 0.19765991
v 0.11117288 1.12228054 0.19765991
v 0.11117288 1.12228054 0.19765991
v 0.11117288 1.12228054 0.19765991
v 0.11117288 1.12228054 0.19765991
v 0.11117288 1.12228054 0.19765991
v 0.11117288 1.09958941 0.17544246
v 0.11117288 1.09958941 0.17544246
v 0.11117288 1.09958941 0.17544246
v 0.11117288 1.09958941 0.17544246
v 0.11117288 1.09958941 0.17544246
v 0.11117288 1.09958941 0.17544246
v 0.06673273 1.10072392 0.17418906
v 0.06673273 1.10072392 0.17418906
v 0.06673273 1.10072392 0.17418906
v 0.06673273 1.10072392 0.17418906
v 0.06673273 1.10072392 0.17418906
v 0.06673273 1.10072392 0.17418906
v -0.00014322 1.12420934 0.19579208
v -0.00014322 1.12420934 0.19579208
v -0.00014322 1.12420934 0.19579208
v 0.02223866 1.10140461 0.17355004
v 0.02223866 1.10140461 0.17355004
v 0.02223866 1.10140461 0.17355004
v 0.02223866 1.10140461 0.17355004
v 0.02223866 1.10140461 0.17355004
v 0.02223866 1.10140461 0.17355004
v -0.00014322 1.10140461 0.17355004
v -0.00014322 1.10140461 0.17355004
v -0.00014322 1.10140461 0.17355004
v -0.00014322 1.10140461 0.17355004
v -0.00014322 1.09039932 0.16551340
v -0.00014322 1.09039932 0.16551340
v -0.00014322 1.09039932 0.16551340
v -0.00014322 1.09039932 0.16551340
v 0.46685582 0.98488480 0.16099125
v 0.46685582 0.98488480 0.16099125
v 0.46685582 0.98488480 0.16099125
v 0.46685582 0.98488480 0.16099125
v 0.46685582 0.98488480 0.16099125
v 0.49182642 0.97955239 0.16450575
v 0.49182642 0.97955239 0.16450575
v 0.49182642 0.97955239 0.16450575
v 0.49182642 0.97955239 0.16450575
v 0.49182642 0.97955239 0.16450575
v 0.55072039 0.94596928 0.16207266
v 0.55072039 0.94596928 0.16207266
v 0.55072039 0.94596928 0.16207266
v 0.55072039 0.94596928 0.16207266
v 0.55072039 0.94301945 0.16027856
v 0.55072039 0.94301945 0.16027856
v 0.55072039 0.94301945 0.16027856
v 0.22545522 1.06804842 0.16482526
v 0.22545522 1.06804842 0.16482526
v 0.22545522 1.06804842 0.16482526
v 0.22545522 1.06804842 0.16482526
v 0.22545522 1.06804842 0.16482526
v 0.22545522 1.06804842 0.16482526
v 0.28898737 1.06021994 0.17084658
v 0.28898737 1.06021994 0.17084658
v 0.28898737 1.06021994 0.17084658
v 0.28898737 1.06021994 0.17084658
v 0.28898737 1.06021994 0.17084658
v 0.28898737 1.06021994 0.17084658
v 0.33348143 1.05466062 0.17576194
v 0.33348143 1.05466062 0.17576194
v 0.33348143 1.05466062 0.17576194
v 0.33348143 1.05466062 0.17576194
v 0.33348143 1.05466062 0.17576194
v 0.33348143 1.05466062 0.17576194
v 0.33348143 1.05466062 0.17576194
v 0.39722931 1.02164477 0.16622612
v 0.39722931 1.02164477 0.16622612
v 0.39722931 1.02164477 0.16622612
v 0.39722931 1.02164477 0.16622612
v 0.39722931 1.02164477 0.16622612
v 0.39722931 1.02164477 0.16622612
v 0.39722931 1.02164477 0.16622612
v 0.15566695 1.09697980 0.17841622
v 0.15566695 1.09697980 0.17841622
v 0.15566695 1.09697980 0.17841622
v 0.15566695 1.09697980 0.17841622
v 0.15566695 1.09697980 0.17841622
v 0.15566695 1.09697980 0.17841622
v 0.15566695 1.09697980 0.17841622
v 0.42241564 1.01642579 0.17035502
v 0.42241564 1.01642579 0.17035502
v 0.42241564 1.01642579 0.17035502
v 0.42241564 1.01642579 0.17035502
v 0.42241564 1.01642579 0.17035502
v 0.42241564 1.01642579 0.17035502
v 0.42241564 1.01642579 0.17035502
v 0.38353053 1.04717237 0.18500283
v 0.38353053 1.04717237 0.18500283
v 0.38353053 1.04717237 0.18500283
v 0.38353053 1.04717237 0.18500283
v 0.33348143 1.07780570 0.19797942
v 0.33348143 1.07780570 0.19797942
v 0.33348143 1.07780570 0.19797942
v 0.33348143 1.07780570 0.19797942
v 0.33348143 1.07780570 0.19797942
v 0.33348143 1.07780570 0.19797942
v 0.33348143 1.07780570 0.19797942
v 0.33348143 1.07780570 0.19797942
v 0.28898737 1.10514873 0.22125366
v 0.28898737 1.10514873 0.22125366
v 0.28898737 1.10514873 0.22125366
v 0.28898737 1.10514873 0.22125366
v 0.28898737 1.10514873 0.22125366
v 0.33520725 1.10174495 0.23400906
v 0.33520725 1.10174495 0.23400906
v 0.33520725 1.10174495 0.23400906
v 0.33520725 1.10174495 0.23400906
v 0.32156241 1.11411172 0.25010687
v 0.32156241 1.11411172 0.25010687
v 0.32156241 1.11411172 0.25010687
v 0.32156241 1.11411172 0.25010687
v 0.32156241 1.11411172 0.25010687
v 0.32156241 1.11411172 0.25010687
v 0.32156241 1.11411172 0.25010687
v 0.32156241 1.11411172 0.25010687
v 0.32156241 1.11411172 0.25010687
v 0.31994447 1.11501938 0.25143403
v 0.31994447 1.11501938 0.25143403
v 0.31994447 1.11501938 0.25143403
v 0.13285361 1.15314072 0.25143403
v 0.13285361 1.15314072 0.25143403
v 0.13285361 1.15314072 0.25143403
v 0.13285361 1.15314072 0.25143403
v 0.15566695 1.13929909 0.23206747
v 0.15566695 1.13929909 0.23206747
v 0.15566695 1.13929909 0.23206747
v 0.15566695 1.13929909 0.23206747
v 0.15566695 1.13929909 0.23206747
v 0.15566695 1.13929909 0.23206747
v 0.15566695 1.13929909 0.23206747
v 0.15566695 1.11955768 0.20065829
v 0.15566695 1.11955768 0.20065829
v 0.15566695 1.11955768 0.20065829
v 0.15566695 1.11955768 0.20065829
v 0.15566695 1.11955768 0.20065829
v 0.15566695 1.11955768 0.20065829
v 0.20010708 1.09289533 0.18345451
v 0.20010708 1.09289533 0.18345451
v 0.20010708 1.09289533 0.18345451
v 0.20010708 1.09289533 0.18345451
v 0.20010708 1.09289533 0.18345451
v 0.20010708 1.09289533 0.18345451
v 0.28898737 1.08291119 0.19306403
v 0.28898737 1.08291119 0.19306403
v 0.28898737 1.08291119 0.19306403
v 0.28898737 1.08291119 0.19306403
v 0.20010708 1.11524636 0.20569655
v 0.20010708 1.11524636 0.20569655
v 0.20010708 1.11524636 0.20569655
v 0.20010708 1.11524636 0.20569655
v 0.20010708 1.11524636 0.20569655
v 0.20010708 1.11524636 0.20569655
v 0.22529343 1.11252338 0.20896527
v 0.22529343 1.11252338 0.20896527
v 0.22529343 1.11252338 0.20896527
v 0.22529343 1.11252338 0.20896527
v 0.22529343 1.11252338 0.20896527
v 0.22529343 1.11252338 0.20896527
v 0.25495616 1.10900623 0.21442133
v 0.25495616 1.10900623 0.21442133
v 0.25495616 1.10900623 0.21442133
v 0.25495616 1.10900623 0.21442133
v 0.25495616 1.10900623 0.21442133
v 0.24190456 1.12080568 0.23037168
v 0.24190456 1.12080568 0.23037168
v 0.24190456 1.12080568 0.23037168
v 0.24190456 1.12080568 0.23037168
v 0.24190456 1.12080568 0.23037168
v 0.28898737 1.11762887 0.24349570
v 0.28898737 1.11762887 0.24349570
v 0.28898737 1.11762887 0.24349570
v 0.20010708 1.13067645 0.23206747
v 0.20010708 1.13067645 0.23206747
v 0.20010708 1.13067645 0.23206747
v 0.20010708 1.13067645 0.23206747
v 0.20010708 1.13067645 0.23206747
v 0.20010708 1.13067645 0.23206747
v 0.20010708 1.13067645 0.23206747
v 0.20010708 1.13067645 0.23206747
v 0.20010708 1.14020675 0.25143403
v 0.20010708 1.14020675 0.25143403
v 0.20010708 1.14020675 0.25143403
v 0.20010708 1.14020675 0.25143403
v 0.15566695 1.14928323 0.25143403
v 0.15566695 1.14928323 0.25143403
v 0.15566695 1.14928323 0.25143403
v 0.15566695 1.14928323 0.25143403
v 0.16952752 1.14656025 0.25143403
v 0.16952752 1.14656025 0.25143403
v 0.16952752 1.14656025 0.25143403
vn -0.00000000 -1.00000000 0.00000000
vn 1.00000000 0.00000000 0.00000000
vn -0.02833906 -0.10939139 0.99359470
vn 0.00000000 -1.00000000 -0.00000000
vn -0.02833906 -0.10939139 0.99359470
vn -0.02885316 -0.10930274 0.99358966
vn -0.00000000 -1.00000000 0.00000000
vn 1.00000000 0.00000000 0.00000000
vn -0.00618240 -0.07828513 -0.99691184
vn 0.00000000 0.00000000 1.00000000
vn 1.00000000 0.00000000 0.00000000
vn -0.02833906 -0.10939139 0.99359470
vn -0.02885316 -0.10930274 0.99358966
vn -0.03022621 -0.10903190 0.99357859
vn -0.00000000 -1.00000000 0.00000000
vn -0.02885316 -0.10930274 0.99358966
vn -0.03022621 -0.10903190 0.99357859
vn -0.04849087 -0.11557279 0.99211469
vn -0.00000000 -1.00000000 0.00000000
vn -0.00618240 -0.07828513 -0.99691184
vn -0.02425494 -0.06062478 -0.99786589
vn -1.00000000 0.00000000 0.00000000
vn 0.00008906 0.00113116 -0.99999936
vn 0.00548377 0.00930788 -0.99994164
vn 0.01422525 0.02108935 -0.99967639
vn 0.17742813 0.18407097 -0.96676633
vn 1.00000000 0.00000000 0.00000000
vn -0.00618240 -0.07828513 -0.99691184
vn -0.02425494 -0.06062478 -0.99786589
vn 0.00000000 0.00000000 1.00000000
vn 0.45251510 0.79222903 -0.40939376
vn 0.45296775 0.79013140 -0.41293170
vn 1.00000000 0.00000000 0.00000000
vn 0.00000000 0.00000000 1.00000000
vn -0.03022621 -0.10903190 0.99357859
vn -0.04849087 -0.11557279 0.99211469
vn -0.05934960 -0.11712648 0.99134203
vn -1.00000000 0.00000000 0.00000000
vn -0.00000000 -1.00000000 0.00000000
vn -0.00505626 -0.99736076 0.07242891
vn -0.04849087 -0.11557279 0.99211469
vn -0.05934960 -0.11712648 0.99134203
vn 0.00000000 -1.00000000 0.00000000
vn -0.00506892 -0.99985688 0.01614061
vn -1.00000000 0.00000000 0.00000000
vn 0.00008906 0.00113116 -0.99999936
vn 0.00109715 0.00768473 -0.99996987
vn 0.00105563 0.27262014 -0.96212117
vn -0.02425494 -0.06062478 -0.99786589
vn -1.00000000 0.00000000 0.00000000
vn 0.01422525 0.02108935 -0.99967639
vn 0.02037078 0.03031977 -0.99933265
vn 0.17732779 0.18701493 -0.96621958
vn 0.17742813 0.18407097 -0.96676633
vn 0.17732779 0.18701493 -0.96621958
vn 0.17742813 0.18407097 -0.96676633
vn 0.21652850 0.26499026 -0.93962523
vn 1.00000000 0.00000000 0.00000000
vn 0.00008906 0.00113116 -0.99999936
vn 0.00109715 0.00768473 -0.99996987
vn 0.00138191 0.00939262 -0.99995493
vn 0.00548377 0.00930788 -0.99994164
vn 0.00993264 0.04357553 -0.99900076
vn 0.04533714 0.14955023 -0.98771417
vn 0.06600570 0.19036441 -0.97949203
vn 0.06665012 0.13163699 -0.98905483
vn 0.00548377 0.00930788 -0.99994164
vn 0.01422525 0.02108935 -0.99967639
vn 0.02037078 0.03031977 -0.99933265
vn 0.06665012 0.13163699 -0.98905483
vn 0.07490392 0.13977200 -0.98734654
vn 0.43054798 0.78878110 -0.43869445
vn 0.45296775 0.79013140 -0.41293170
vn 1.00000000 0.00000000 0.00000000
vn 0.37067542 0.81266348 -0.44964185
vn 0.37225637 0.80942133 -0.45416110
vn 0.38019673 0.83029396 -0.40750752
vn 0.39786380 0.83051569 -0.38980519
vn 0.40064063 0.78913780 -0.46556268
vn 0.40712890 0.78839095 -0.46117868
vn 0.43054798 0.78878110 -0.43869445
vn 0.45251510 0.79222903 -0.40939376
vn 0.45296775 0.79013140 -0.41293170
vn 0.00000000 0.00000000 1.00000000
vn 0.39786380 0.83051569 -0.38980519
vn 0.45251510 0.79222903 -0.40939376
vn -0.00506892 -0.99985688 0.01614061
vn -0.00505626 -0.99736076 0.07242891
vn -0.05934960 -0.11712648 0.99134203
vn -1.00000000 0.00000000 0.00000000
vn 0.00000000 0.00000000 1.00000000
vn -0.00478814 0.94431445 -0.32900955
vn -1.00000000 0.00000000 0.00000000
vn 0.00000000 -1.00000000 0.00000000
vn -0.00506892 -0.99985688 0.01614061
vn -0.00505626 -0.99736076 0.07242891
vn 0.00105555 0.27285515 -0.96205455
vn 0.00105563 0.27262014 -0.96212117
vn 0.00118171 0.27273642 -0.96208807
vn -1.00000000 0.00000000 0.00000000
vn 0.00109715 0.00768473 -0.99996987
vn 0.00105563 0.27262014 -0.96212117
vn 0.00118171 0.27273642 -0.96208807
vn 0.00132958 0.27273637 -0.96208789
vn 0.00138191 0.00939262 -0.99995493
vn 0.02037078 0.03031977 -0.99933265
vn 0.07490392 0.13977200 -0.98734654
vn 0.09996172 0.17716410 -0.97909169
vn 0.17732779 0.18701493 -0.96621958
vn 0.21652850 0.26499026 -0.93962523
vn 0.23409327 0.30707721 -0.92244454
vn 0.21652850 0.26499026 -0.93962523
vn 0.23409327 0.30707721 -0.92244454
vn 0.24240968 0.32036353 -0.91575365
vn 0.32012692 0.37965576 -0.86797481
vn 1.00000000 0.00000000 0.00000000
vn 0.06600570 0.19036441 -0.97949203
vn 0.06665012 0.13163699 -0.98905483
vn 0.07490392 0.13977200 -0.98734654
vn 0.09887629 0.28915053 -0.95216356
vn 0.09996172 0.17716410 -0.97909169
vn 0.17149039 0.42803288 -0.88734373
vn 0.20377061 0.42535345 -0.88178908
vn 0.20897036 0.39712577 -0.89365682
vn 0.00132958 0.27273637 -0.96208789
vn 0.00138191 0.00939262 -0.99995493
vn 0.00952125 0.28786372 -0.95762405
vn 0.00993264 0.04357553 -0.99900076
vn 0.00952125 0.28786372 -0.95762405
vn 0.00993264 0.04357553 -0.99900076
vn 0.02805118 0.33880180 -0.94043951
vn 0.04269018 0.36495069 -0.93004760
vn 0.04533714 0.14955023 -0.98771417
vn 0.04269018 0.36495069 -0.93004760
vn 0.04533714 0.14955023 -0.98771417
vn 0.05835693 0.40720111 -0.91147228
vn 0.06600570 0.19036441 -0.97949203
vn 0.09279548 0.43915467 -0.89360628
vn 0.09887629 0.28915053 -0.95216356
vn 0.40712890 0.78839095 -0.46117868
vn 0.43054798 0.78878110 -0.43869445
vn 1.00000000 0.00000000 0.00000000
vn 0.40064063 0.78913780 -0.46556268
vn 0.40712890 0.78839095 -0.46117868
vn 0.41331847 0.74991601 -0.51652088
vn 1.00000000 0.00000000 0.00000000
vn 0.35426269 0.80320775 -0.47891049
vn 0.35747981 0.80557551 -0.47250003
vn 0.36527743 0.80909743 -0.46036263
vn 0.37094589 0.73485279 -0.56779443
vn 0.37225637 0.80942133 -0.45416110
vn 0.40064063 0.78913780 -0.46556268
vn 0.41331847 0.74991601 -0.51652088
vn 0.36527743 0.80909743 -0.46036263
vn 0.37067542 0.81266348 -0.44964185
vn 0.37225637 0.80942133 -0.45416110
vn 0.32864326 0.84376485 -0.42432827
vn 0.33793225 0.86387736 -0.37352069
vn 0.33859444 0.81699961 -0.46676058
vn 0.35314151 0.80521290 -0.47636464
vn 0.35747981 0.80557551 -0.47250003
vn 0.36527743 0.80909743 -0.46036263
vn 0.37067542 0.81266348 -0.44964185
vn 0.38019673 0.83029396 -0.40750752
vn 0.38922491 0.86335210 -0.32113412
vn 0.39311492 0.86087861 -0.32303047
vn 0.00000000 0.00000000 1.00000000
vn 0.38019673 0.83029396 -0.40750752
vn 0.39311492 0.86087861 -0.32303047
vn 0.39786380 0.83051569 -0.38980519
vn 0.00000000 0.00000000 1.00000000
vn 0.00044571 0.91399067 -0.40573496
vn 0.02173347 0.91377488 -0.40563916
vn 0.02549251 0.99967501 0.00000000
vn -0.00478814 0.94431445 -0.32900955
vn 0.00000000 0.87942495 -0.47603756
vn 0.00044571 0.91399067 -0.40573496
vn 0.00052249 0.87964509 -0.47563037
vn -0.00478814 0.94431445 -0.32900955
vn -1.00000000 0.00000000 0.00000000
vn 0.00000000 0.48860655 -0.87250423
vn 0.00095735 0.48853297 -0.87254491
vn 0.00105555 0.27285515 -0.96205455
vn -1.00000000 0.00000000 0.00000000
vn 0.00095735 0.48853297 -0.87254491
vn 0.00105555 0.27285515 -0.96205455
vn 0.00118171 0.27273642 -0.96208807
vn 0.00132958 0.27273637 -0.96208789
vn 0.00952125 0.28786372 -0.95762405
vn 0.01734809 0.48845968 -0.87241400
vn 0.02603927 0.48704478 -0.87298874
vn 0.02805118 0.33880180 -0.94043951
vn 0.09996172 0.17716410 -0.97909169
vn 0.20897036 0.39712577 -0.89365682
vn 0.23211618 0.41413888 -0.88011992
vn 0.23409327 0.30707721 -0.92244454
vn 0.24240968 0.32036353 -0.91575365
vn 0.24541491 0.40832619 -0.87922764
vn 0.25243860 0.40452643 -0.87899552
vn 0.25315242 0.40410637 -0.87898344
vn 0.25918838 0.36420384 -0.89452610
vn 0.24240968 0.32036353 -0.91575365
vn 0.25918838 0.36420384 -0.89452610
vn 0.28266865 0.38982711 -0.87643212
vn 0.32012692 0.37965576 -0.86797481
vn 0.26362065 0.39955976 -0.87798414
vn 0.28266865 0.38982711 -0.87643212
vn 0.32012692 0.37965576 -0.86797481
vn 1.00000000 0.00000000 0.00000000
vn 0.09279548 0.43915467 -0.89360628
vn 0.09887629 0.28915053 -0.95216356
vn 0.10198160 0.45717950 -0.88350815
vn 0.11803271 0.47375972 -0.87270843
vn 0.16312395 0.45679841 -0.87448602
vn 0.16987351 0.45251779 -0.87542597
vn 0.17149039 0.42803288 -0.88734373
vn 0.17185854 0.44073592 -0.88103149
vn 0.17149039 0.42803288 -0.88734373
vn 0.17185854 0.44073592 -0.88103149
vn 0.17410380 0.45055391 -0.87560781
vn 0.17773804 0.44958535 -0.87537546
vn 0.19335250 0.44244557 -0.87570356
vn 0.20377061 0.42535345 -0.88178908
vn 0.20723466 0.43173751 -0.87787044
vn 0.20796969 0.43096926 -0.87807409
vn 0.20377061 0.42535345 -0.88178908
vn 0.20796969 0.43096926 -0.87807409
vn 0.20897036 0.39712577 -0.89365682
vn 0.23211618 0.41413888 -0.88011992
vn 0.02603927 0.48704478 -0.87298874
vn 0.02805118 0.33880180 -0.94043951
vn 0.02848274 0.48701231 -0.87293055
vn 0.04269018 0.36495069 -0.93004760
vn 0.05835693 0.40720111 -0.91147228
vn 0.05940392 0.48163700 -0.87435517
vn 0.06095216 0.48112056 -0.87453293
vn 0.05835693 0.40720111 -0.91147228
vn 0.06095216 0.48112056 -0.87453293
vn 0.09279548 0.43915467 -0.89360628
vn 0.09741297 0.47972433 -0.87199500
vn 0.10198160 0.45717950 -0.88350815
vn 0.10364335 0.47848470 -0.87195783
vn 0.34828419 0.70252946 -0.62060494
vn 0.37094589 0.73485279 -0.56779443
vn 0.41331847 0.74991601 -0.51652088
vn 1.00000000 0.00000000 0.00000000
vn 0.30778522 0.71953007 -0.62253092
vn 0.30904189 0.66794746 -0.67700761
vn 0.31977470 0.66921755 -0.67073990
vn 0.34412488 0.79214254 -0.50407168
vn 0.34828419 0.70252946 -0.62060494
vn 0.35379139 0.80315485 -0.47934740
vn 0.35426269 0.80320775 -0.47891049
vn 0.37094589 0.73485279 -0.56779443
vn 0.35314151 0.80521290 -0.47636464
vn 0.35379139 0.80315485 -0.47934740
vn 0.35426269 0.80320775 -0.47891049
vn 0.35747981 0.80557551 -0.47250003
vn 0.33630380 0.81771259 -0.46716792
vn 0.33859444 0.81699961 -0.46676058
vn 0.34412488 0.79214254 -0.50407168
vn 0.35314151 0.80521290 -0.47636464
vn 0.35379139 0.80315485 -0.47934740
vn 0.31936575 0.83554823 -0.44706227
vn 0.32153471 0.82832026 -0.45880385
vn 0.32641433 0.84342606 -0.42671556
vn 0.32864326 0.84376485 -0.42432827
vn 0.33630380 0.81771259 -0.46716792
vn 0.33859444 0.81699961 -0.46676058
vn 0.00000000 0.00000000 1.00000000
vn 0.32641433 0.84342606 -0.42671556
vn 0.32864326 0.84376485 -0.42432827
vn 0.33793225 0.86387736 -0.37352069
vn 0.00000000 0.00000000 1.00000000
vn 0.33793225 0.86387736 -0.37352069
vn 0.38922491 0.86335210 -0.32113412
vn 0.00000000 0.00000000 1.00000000
vn 0.38922491 0.86335210 -0.32113412
vn 0.39311492 0.86087861 -0.32303047
vn 0.00044571 0.91399067 -0.40573496
vn 0.00052249 0.87964509 -0.47563037
vn 0.02173347 0.91377488 -0.40563916
vn 0.02303188 0.87941187 -0.47550426
vn 0.00000000 0.00000000 1.00000000
vn 0.02549251 0.99967501 0.00000000
vn 0.03443920 0.99940679 0.00000000
vn 0.02173347 0.91377488 -0.40563916
vn 0.02303188 0.87941187 -0.47550426
vn 0.02532868 0.87748466 -0.47893540
vn 0.02549251 0.99967501 0.00000000
vn 0.03443920 0.99940679 0.00000000
vn 0.04769782 0.87676721 -0.47854381
vn 0.05017665 0.93876424 -0.34088709
vn 0.00000000 0.87942495 -0.47603756
vn 0.00000000 0.82309172 -0.56790846
vn 0.00052249 0.87964509 -0.47563037
vn 0.00104459 0.82240550 -0.56890078
vn 0.02106128 0.82222353 -0.56877490
vn 0.02303188 0.87941187 -0.47550426
vn 0.02532868 0.87748466 -0.47893540
vn 0.02663742 0.82572518 -0.56344332
vn 0.00000000 0.87942495 -0.47603756
vn 0.00000000 0.82309172 -0.56790846
vn -1.00000000 0.00000000 0.00000000
vn 0.00000000 0.49925550 -0.86645481
vn 0.00000000 0.48860655 -0.87250423
vn -1.00000000 0.00000000 0.00000000
vn 0.00000000 0.49925550 -0.86645481
vn 0.00000000 0.48860655 -0.87250423
vn 0.00095735 0.48853297 -0.87254491
vn 0.01625176 0.49918957 -0.86634038
vn 0.01723822 0.49820345 -0.86688879
vn 0.01734809 0.48845968 -0.87241400
vn 0.01723822 0.49820345 -0.86688879
vn 0.01734809 0.48845968 -0.87241400
vn 0.02603927 0.48704478 -0.87298874
vn 0.02613757 0.49810725 -0.86672141
vn 0.02832008 0.49585150 -0.86794543
vn 0.02848274 0.48701231 -0.87293055
vn 0.20723466 0.43173751 -0.87787044
vn 0.20796969 0.43096926 -0.87807409
vn 0.20931133 0.44110451 -0.87270589
vn 0.22093329 0.44959977 -0.86547590
vn 0.23211618 0.41413888 -0.88011992
vn 0.23941921 0.44801210 -0.86137309
vn 0.23993914 0.44651743 -0.86200429
vn 0.24541491 0.40832619 -0.87922764
vn 0.24729407 0.40908726 -0.87834689
vn 0.24541491 0.40832619 -0.87922764
vn 0.24729407 0.40908726 -0.87834689
vn 0.25243860 0.40452643 -0.87899552
vn 0.23993914 0.44651743 -0.86200429
vn 0.24729407 0.40908726 -0.87834689
vn 0.25243860 0.40452643 -0.87899552
vn 0.25315242 0.40410637 -0.87898344
vn 0.26362065 0.39955976 -0.87798414
vn 1.00000000 0.00000000 0.00000000
vn 0.25315242 0.40410637 -0.87898344
vn 0.25918838 0.36420384 -0.89452610
vn 0.26362065 0.39955976 -0.87798414
vn 0.28266865 0.38982711 -0.87643212
vn 0.16987351 0.45251779 -0.87542597
vn 0.17185854 0.44073592 -0.88103149
vn 0.17410380 0.45055391 -0.87560781
vn 0.10198160 0.45717950 -0.88350815
vn 0.10364335 0.47848470 -0.87195783
vn 0.10761666 0.47828165 -0.87158781
vn 0.11649874 0.47466672 -0.87242165
vn 0.11803271 0.47375972 -0.87270843
vn 0.11453788 0.48525299 -0.86683944
vn 0.11649874 0.47466672 -0.87242165
vn 0.11803271 0.47375972 -0.87270843
vn 0.12501140 0.49494060 -0.85988718
vn 0.15951605 0.49246629 -0.85558844
vn 0.16312395 0.45679841 -0.87448602
vn 0.16900471 0.48316427 -0.85906327
vn 0.17255351 0.46562975 -0.86799437
vn 0.16312395 0.45679841 -0.87448602
vn 0.16987351 0.45251779 -0.87542597
vn 0.17255351 0.46562975 -0.86799437
vn 0.17410380 0.45055391 -0.87560781
vn 0.17773804 0.44958535 -0.87537546
vn 0.18050263 0.46455328 -0.86695389
vn 0.17773804 0.44958535 -0.87537546
vn 0.18050263 0.46455328 -0.86695389
vn 0.18754239 0.46844254 -0.86335939
vn 0.18811553 0.46835854 -0.86328027
vn 0.19344923 0.44257565 -0.87561646
vn 0.19335250 0.44244557 -0.87570356
vn 0.19344923 0.44257565 -0.87561646
vn 0.19335250 0.44244557 -0.87570356
vn 0.20723466 0.43173751 -0.87787044
vn 0.20931133 0.44110451 -0.87270589
vn 0.02832008 0.49585150 -0.86794543
vn 0.02848274 0.48701231 -0.87293055
vn 0.05888972 0.49518956 -0.86678677
vn 0.05940392 0.48163700 -0.87435517
vn 0.05888972 0.49518956 -0.86678677
vn 0.05940392 0.48163700 -0.87435517
vn 0.06021409 0.49659167 -0.86589317
vn 0.06095216 0.48112056 -0.87453293
vn 0.09645531 0.49517472 -0.86342247
vn 0.09741297 0.47972433 -0.87199500
vn 0.09645531 0.49517472 -0.86342247
vn 0.09741297 0.47972433 -0.87199500
vn 0.10116929 0.50072730 -0.85967258
vn 0.10364335 0.47848470 -0.87195783
vn 0.10761666 0.47828165 -0.87158781
vn 0.11263961 0.48549297 -0.86695380
vn 0.11310030 0.50008022 -0.85856164
vn 0.31977397 0.66677364 -0.67316976
vn 0.31977470 0.66921755 -0.67073990
vn 0.34187876 0.64492441 -0.68351402
vn 0.34828419 0.70252946 -0.62060494
vn 1.00000000 0.00000000 0.00000000
vn 0.27888805 0.66034308 -0.69725782
vn 0.27930556 0.68043880 -0.67748908
vn 0.29017091 0.65804037 -0.69482639
vn 0.30532600 0.66504285 -0.68153799
vn 0.30778522 0.71953007 -0.62253092
vn 0.30904189 0.66794746 -0.67700761
vn 0.26120741 0.81933084 -0.51036033
vn 0.27265261 0.67809228 -0.68253308
vn 0.27930556 0.68043880 -0.67748908
vn 0.30778522 0.71953007 -0.62253092
vn 0.32153471 0.82832026 -0.45880385
vn 0.33630380 0.81771259 -0.46716792
vn 0.34412488 0.79214254 -0.50407168
vn 0.30532600 0.66504285 -0.68153799
vn 0.30904189 0.66794746 -0.67700761
vn 0.31977397 0.66677364 -0.67316976
vn 0.31977470 0.66921755 -0.67073990
vn 0.25231847 0.82365040 -0.50787342
vn 0.25343588 0.82405006 -0.50666730
vn 0.26120741 0.81933084 -0.51036033
vn 0.31936575 0.83554823 -0.44706227
vn 0.32153471 0.82832026 -0.45880385
vn 0.00000000 0.00000000 1.00000000
vn 0.25343588 0.82405006 -0.50666730
vn 0.31936575 0.83554823 -0.44706227
vn 0.32641433 0.84342606 -0.42671556
vn 0.00000000 0.00000000 1.00000000
vn 0.03443920 0.99940679 0.00000000
vn 0.05017665 0.93876424 -0.34088709
vn 0.00000000 0.00000000 1.00000000
vn 0.04769782 0.87676721 -0.47854381
vn 0.05017665 0.93876424 -0.34088709
vn 0.05227885 0.87360601 -0.48381760
vn 0.07450273 0.87974726 -0.46956799
vn 0.02532868 0.87748466 -0.47893540
vn 0.02663742 0.82572518 -0.56344332
vn 0.03875556 0.82539771 -0.56321987
vn 0.04769782 0.87676721 -0.47854381
vn 0.05227885 0.87360601 -0.48381760
vn 0.06123604 0.83861949 -0.54126471
vn 0.02106128 0.82222353 -0.56877490
vn 0.02135332 0.69805987 -0.71572093
vn 0.02663742 0.82572518 -0.56344332
vn 0.03798833 0.69771508 -0.71536742
vn 0.03875556 0.82539771 -0.56321987
vn 0.03937602 0.69906701 -0.71397118
vn 0.00000000 0.69782368 -0.71626958
vn 0.00104459 0.82240550 -0.56890078
vn 0.02095796 0.69767040 -0.71611226
vn 0.02106128 0.82222353 -0.56877490
vn 0.02135332 0.69805987 -0.71572093
vn -0.00062666 0.82132463 -0.57046074
vn -0.00078641 0.69821933 -0.71588347
vn 0.00000000 0.82309172 -0.56790846
vn 0.00104459 0.82240550 -0.56890078
vn -0.00062666 0.82132463 -0.57046074
vn -1.00000000 0.00000000 0.00000000
vn 0.00000000 0.58889048 -0.80821285
vn 0.00000000 0.49925550 -0.86645481
vn -1.00000000 0.00000000 0.00000000
vn 0.00000000 0.58889048 -0.80821285
vn 0.00000000 0.49925550 -0.86645481
vn 0.00032512 0.58931356 -0.80790434
vn 0.01625176 0.49918957 -0.86634038
vn 0.01704727 0.58922795 -0.80778698
vn 0.01625176 0.49918957 -0.86634038
vn 0.01704727 0.58922795 -0.80778698
vn 0.01723822 0.49820345 -0.86688879
vn 0.02063624 0.59381861 -0.80433426
vn 0.02613757 0.49810725 -0.86672141
vn 0.02761027 0.59371865 -0.80419888
vn 0.02613757 0.49810725 -0.86672141
vn 0.02761027 0.59371865 -0.80419888
vn 0.02832008 0.49585150 -0.86794543
vn 0.03788257 0.60650551 -0.79417629
vn 0.05888972 0.49518956 -0.86678677
vn 0.06021409 0.49659167 -0.86589317
vn 0.06400029 0.60569687 -0.79311743
vn 0.18811553 0.46835854 -0.86328027
vn 0.19344923 0.44257565 -0.87561646
vn 0.20696640 0.48627385 -0.84894208
vn 0.20931133 0.44110451 -0.87270589
vn 0.21509432 0.48540167 -0.84741941
vn 0.22093329 0.44959977 -0.86547590
vn 0.21509432 0.48540167 -0.84741941
vn 0.22093329 0.44959977 -0.86547590
vn 0.22416579 0.49735507 -0.83808570
vn 0.23941921 0.44801210 -0.86137309
vn 0.24488800 0.45274107 -0.85735371
vn 0.25227039 0.51185805 -0.82119485
vn 0.25818628 0.50202189 -0.82541739
vn 0.25903369 0.50701552 -0.82209295
vn 0.23941921 0.44801210 -0.86137309
vn 0.23993914 0.44651743 -0.86200429
vn 0.24488800 0.45274107 -0.85735371
vn 1.00000000 0.00000000 0.00000000
vn 0.10761666 0.47828165 -0.87158781
vn 0.11263961 0.48549297 -0.86695380
vn 0.11453788 0.48525299 -0.86683944
vn 0.11649874 0.47466672 -0.87242165
vn 0.11263961 0.48549297 -0.86695380
vn 0.11310030 0.50008022 -0.85856164
vn 0.11453788 0.48525299 -0.86683944
vn 0.11690100 0.50911035 -0.85272551
vn 0.12501140 0.49494060 -0.85988718
vn 0.12763558 0.52779782 -0.83972533
vn 0.12501140 0.49494060 -0.85988718
vn 0.12763558 0.52779782 -0.83972533
vn 0.14747016 0.58131635 -0.80020238
vn 0.15951605 0.49246629 -0.85558844
vn 0.16141887 0.59733459 -0.78557962
vn 0.16801939 0.59666740 -0.78470217
vn 0.15951605 0.49246629 -0.85558844
vn 0.16801939 0.59666740 -0.78470217
vn 0.16900471 0.48316427 -0.85906327
vn 0.19206766 0.49186583 -0.84922201
vn 0.20957206 0.51690864 -0.82999097
vn 0.22048060 0.63864356 -0.73723993
vn 0.16900471 0.48316427 -0.85906327
vn 0.17255351 0.46562975 -0.86799437
vn 0.18050263 0.46455328 -0.86695389
vn 0.18754239 0.46844254 -0.86335939
vn 0.19206766 0.49186583 -0.84922201
vn 0.18754239 0.46844254 -0.86335939
vn 0.18811553 0.46835854 -0.86328027
vn 0.19206766 0.49186583 -0.84922201
vn 0.20696640 0.48627385 -0.84894208
vn 0.20957206 0.51690864 -0.82999097
vn 0.21111778 0.51792519 -0.82896488
vn 0.06021409 0.49659167 -0.86589317
vn 0.06400029 0.60569687 -0.79311743
vn 0.08853107 0.63414957 -0.76812536
vn 0.09645531 0.49517472 -0.86342247
vn 0.10116929 0.50072730 -0.85967258
vn 0.10735873 0.63296982 -0.76669636
vn 0.10116929 0.50072730 -0.85967258
vn 0.10735873 0.63296982 -0.76669636
vn 0.11310030 0.50008022 -0.85856164
vn 0.11690100 0.50911035 -0.85272551
vn 0.12363404 0.65033020 -0.74952336
vn 0.33767685 0.57205094 -0.74748382
vn 0.34187876 0.64492441 -0.68351402
vn 1.00000000 0.00000000 0.00000000
vn 0.25227039 0.51185805 -0.82119485
vn 0.25903369 0.50701552 -0.82209295
vn 0.26237730 0.61222152 -0.74588402
vn 0.27485397 0.64000209 -0.71753232
vn 0.29017091 0.65804037 -0.69482639
vn 0.30532600 0.66504285 -0.68153799
vn 0.31977397 0.66677364 -0.67316976
vn 0.33767685 0.57205094 -0.74748382
vn 0.34187876 0.64492441 -0.68351402
vn 0.25710708 0.66074675 -0.70520188
vn 0.27265261 0.67809228 -0.68253308
vn 0.27533417 0.65730461 -0.70152815
vn 0.27888805 0.66034308 -0.69725782
vn 0.27930556 0.68043880 -0.67748908
vn 0.27485397 0.64000209 -0.71753232
vn 0.27533417 0.65730461 -0.70152815
vn 0.27888805 0.66034308 -0.69725782
vn 0.29017091 0.65804037 -0.69482639
vn 0.20472272 0.80594481 -0.55546518
vn 0.20990690 0.81255360 -0.54377913
vn 0.21022149 0.67702791 -0.70529436
vn 0.23082846 0.65602120 -0.71857805
vn 0.24938231 0.82368198 -0.50927051
vn 0.25231847 0.82365040 -0.50787342
vn 0.25621575 0.66033493 -0.70591165
vn 0.25710708 0.66074675 -0.70520188
vn 0.26120741 0.81933084 -0.51036033
vn 0.27265261 0.67809228 -0.68253308
vn 0.00000000 0.00000000 1.00000000
vn 0.19942099 0.85143696 -0.48506327
vn 0.20477393 0.90614790 -0.37008598
vn 0.24938231 0.82368198 -0.50927051
vn 0.25231847 0.82365040 -0.50787342
vn 0.25343588 0.82405006 -0.50666730
vn 0.00000000 0.00000000 1.00000000
vn 0.07450273 0.87974726 -0.46956799
vn 0.10282316 0.86756875 -0.48657153
vn 0.05227885 0.87360601 -0.48381760
vn 0.06123604 0.83861949 -0.54126471
vn 0.07450273 0.87974726 -0.46956799
vn 0.08764027 0.83653318 -0.54086174
vn 0.10055165 0.84236371 -0.52944570
vn 0.10282316 0.86756875 -0.48657153
vn 0.10745140 0.86438470 -0.49121612
vn 0.03875556 0.82539771 -0.56321987
vn 0.03937602 0.69906701 -0.71397118
vn 0.06123604 0.83861949 -0.54126471
vn 0.08764027 0.83653318 -0.54086174
vn 0.08844007 0.69686816 -0.71172545
vn 0.09057924 0.69890422 -0.70945633
vn 0.03788257 0.60650551 -0.79417629
vn 0.03798833 0.69771508 -0.71536742
vn 0.03937602 0.69906701 -0.71397118
vn 0.06400029 0.60569687 -0.79311743
vn 0.08844007 0.69686816 -0.71172545
vn 0.08853107 0.63414957 -0.76812536
vn 0.02063624 0.59381861 -0.80433426
vn 0.02095796 0.69767040 -0.71611226
vn 0.02135332 0.69805987 -0.71572093
vn 0.02761027 0.59371865 -0.80419888
vn 0.03788257 0.60650551 -0.79417629
vn 0.03798833 0.69771508 -0.71536742
vn -0.00062666 0.82132463 -0.57046074
vn -0.00078641 0.69821933 -0.71588347
vn -1.00000000 0.00000000 0.00000000
vn 0.00000000 0.69782368 -0.71626958
vn 0.00000000 0.58974492 -0.80758958
vn 0.00032512 0.58931356 -0.80790434
vn 0.01704727 0.58922795 -0.80778698
vn 0.02063624 0.59381861 -0.80433426
vn 0.02095796 0.69767040 -0.71611226
vn 0.00000000 0.69782368 -0.71626958
vn 0.00000000 0.58974492 -0.80758958
vn -0.00078641 0.69821933 -0.71588347
vn -1.00000000 0.00000000 0.00000000
vn 0.00000000 0.58974492 -0.80758958
vn 0.00000000 0.58889048 -0.80821285
vn 0.00032512 0.58931356 -0.80790434
vn -1.00000000 0.00000000 0.00000000
vn 0.20696640 0.48627385 -0.84894208
vn 0.21111778 0.51792519 -0.82896488
vn 0.21509432 0.48540167 -0.84741941
vn 0.22416579 0.49735507 -0.83808570
vn 0.23053237 0.55087476 -0.80211709
vn 0.22416579 0.49735507 -0.83808570
vn 0.23053237 0.55087476 -0.80211709
vn 0.24813776 0.58908814 -0.76902719
vn 0.25227039 0.51185805 -0.82119485
vn 0.26237730 0.61222152 -0.74588402
vn 0.25818628 0.50202189 -0.82541739
vn 0.25903369 0.50701552 -0.82209295
vn 0.33767685 0.57205094 -0.74748382
vn 1.00000000 0.00000000 0.00000000
vn 0.24488800 0.45274107 -0.85735371
vn 0.25818628 0.50202189 -0.82541739
vn 1.00000000 0.00000000 0.00000000
vn 0.11690100 0.50911035 -0.85272551
vn 0.12363404 0.65033020 -0.74952336
vn 0.12763558 0.52779782 -0.83972533
vn 0.14395223 0.68343994 -0.71567283
vn 0.14747016 0.58131635 -0.80020238
vn 0.15201389 0.68748987 -0.71010525
vn 0.14747016 0.58131635 -0.80020238
vn 0.15201389 0.68748987 -0.71010525
vn 0.15398291 0.69126384 -0.70600536
vn 0.15723238 0.69090573 -0.70563961
vn 0.16141887 0.59733459 -0.78557962
vn 0.16397151 0.68312975 -0.71165096
vn 0.16141887 0.59733459 -0.78557962
vn 0.16397151 0.68312975 -0.71165096
vn 0.16801939 0.59666740 -0.78470217
vn 0.21022149 0.67702791 -0.70529436
vn 0.22048060 0.63864356 -0.73723993
vn 0.23082846 0.65602120 -0.71857805
vn 0.23086594 0.65386833 -0.72052559
vn 0.20957206 0.51690864 -0.82999097
vn 0.21111778 0.51792519 -0.82896488
vn 0.22048060 0.63864356 -0.73723993
vn 0.23053237 0.55087476 -0.80211709
vn 0.23086594 0.65386833 -0.72052559
vn 0.24813776 0.58908814 -0.76902719
vn 0.25261757 0.65760933 -0.70974244
vn 0.08844007 0.69686816 -0.71172545
vn 0.08853107 0.63414957 -0.76812536
vn 0.09057924 0.69890422 -0.70945633
vn 0.10735873 0.63296982 -0.76669636
vn 0.12363404 0.65033020 -0.74952336
vn 0.14375704 0.69449963 -0.70498524
vn 0.14395223 0.68343994 -0.71567283
vn 0.24813776 0.58908814 -0.76902719
vn 0.25261757 0.65760933 -0.70974244
vn 0.25621575 0.66033493 -0.70591165
vn 0.25710708 0.66074675 -0.70520188
vn 0.26237730 0.61222152 -0.74588402
vn 0.27485397 0.64000209 -0.71753232
vn 0.27533417 0.65730461 -0.70152815
vn 0.23082846 0.65602120 -0.71857805
vn 0.23086594 0.65386833 -0.72052559
vn 0.25261757 0.65760933 -0.70974244
vn 0.25621575 0.66033493 -0.70591165
vn 0.15723238 0.69090573 -0.70563961
vn 0.15728834 0.70321840 -0.69335724
vn 0.16397151 0.68312975 -0.71165096
vn 0.16513300 0.72587664 -0.66770816
vn 0.19903400 0.79954661 -0.56666629
vn 0.20315343 0.80502014 -0.55737892
vn 0.20472272 0.80594481 -0.55546518
vn 0.21022149 0.67702791 -0.70529436
vn 0.19389348 0.85332663 -0.48398241
vn 0.19701023 0.85101632 -0.48678352
vn 0.20315343 0.80502014 -0.55737892
vn 0.20472272 0.80594481 -0.55546518
vn 0.20990690 0.81255360 -0.54377913
vn 0.19701023 0.85101632 -0.48678352
vn 0.19942099 0.85143696 -0.48506327
vn 0.20990690 0.81255360 -0.54377913
vn 0.24938231 0.82368198 -0.50927051
vn 0.18471654 0.88180421 -0.43393679
vn 0.18631889 0.87093521 -0.45470554
vn 0.18749010 0.86634528 -0.46291827
vn 0.18973730 0.90273893 -0.38608571
vn 0.19053513 0.85728857 -0.47828095
vn 0.19389348 0.85332663 -0.48398241
vn 0.19701023 0.85101632 -0.48678352
vn 0.19942099 0.85143696 -0.48506327
vn 0.20477393 0.90614790 -0.37008598
vn 0.00000000 0.00000000 1.00000000
vn 0.18973730 0.90273893 -0.38608571
vn 0.20477393 0.90614790 -0.37008598
vn 0.00000000 0.00000000 1.00000000
vn 0.10282316 0.86756875 -0.48657153
vn 0.10745140 0.86438470 -0.49121612
vn 0.14862356 0.87896430 -0.45313663
vn 0.10055165 0.84236371 -0.52944570
vn 0.10745140 0.86438470 -0.49121612
vn 0.14104333 0.83819104 -0.52682308
vn 0.14862356 0.87896430 -0.45313663
vn 0.15744535 0.84720339 -0.50740258
vn 0.16592721 0.85516992 -0.49107287
vn 0.16995052 0.87590559 -0.45155976
vn 0.08764027 0.83653318 -0.54086174
vn 0.09057924 0.69890422 -0.70945633
vn 0.10055165 0.84236371 -0.52944570
vn 0.14104333 0.83819104 -0.52682308
vn 0.14375704 0.69449963 -0.70498524
vn 0.14717298 0.69769547 -0.70111421
vn 0.14375704 0.69449963 -0.70498524
vn 0.14395223 0.68343994 -0.71567283
vn 0.14717298 0.69769547 -0.70111421
vn 0.15201389 0.68748987 -0.71010525
vn 0.15401413 0.69696038 -0.70037552
vn 0.15398291 0.69126384 -0.70600536
vn 0.15401413 0.69696038 -0.70037552
vn 0.15398291 0.69126384 -0.70600536
vn 0.15723238 0.69090573 -0.70563961
vn 0.15728834 0.70321840 -0.69335724
vn 0.14104333 0.83819104 -0.52682308
vn 0.14717298 0.69769547 -0.70111421
vn 0.15401413 0.69696038 -0.70037552
vn 0.15728834 0.70321840 -0.69335724
vn 0.15744535 0.84720339 -0.50740258
vn 0.16513300 0.72587664 -0.66770816
vn 0.15744535 0.84720339 -0.50740258
vn 0.16513300 0.72587664 -0.66770816
vn 0.16592721 0.85516992 -0.49107287
vn 0.18386678 0.86027283 -0.47552461
vn 0.18971225 0.85715170 -0.47885303
vn 0.19903400 0.79954661 -0.56666629
vn 0.18971225 0.85715170 -0.47885303
vn 0.19053513 0.85728857 -0.47828095
vn 0.19389348 0.85332663 -0.48398241
vn 0.19903400 0.79954661 -0.56666629
vn 0.20315343 0.80502014 -0.55737892
vn 0.18386678 0.86027283 -0.47552461
vn 0.18652830 0.86868701 -0.45890094
vn 0.18749010 0.86634528 -0.46291827
vn 0.18971225 0.85715170 -0.47885303
vn 0.19053513 0.85728857 -0.47828095
vn 0.18631889 0.87093521 -0.45470554
vn 0.18652830 0.86868701 -0.45890094
vn 0.18749010 0.86634528 -0.46291827
vn 0.16592721 0.85516992 -0.49107287
vn 0.16995052 0.87590559 -0.45155976
vn 0.17239133 0.87751034 -0.44750065
vn 0.18326264 0.88204839 -0.43405695
vn 0.18386678 0.86027283 -0.47552461
vn 0.18471654 0.88180421 -0.43393679
vn 0.18631889 0.87093521 -0.45470554
vn 0.18652830 0.86868701 -0.45890094
vn 0.00000000 0.00000000 1.00000000
vn 0.18326264 0.88204839 -0.43405695
vn 0.18471654 0.88180421 -0.43393679
vn 0.18973730 0.90273893 -0.38608571
vn 0.00000000 0.00000000 1.00000000
vn 0.14862356 0.87896430 -0.45313663
vn 0.16995052 0.87590559 -0.45155976
vn 0.17239133 0.87751034 -0.44750065
vn 0.00000000 0.00000000 1.00000000
vn 0.17239133 0.87751034 -0.44750065
vn 0.18326264 0.88204839 -0.43405695
f 1//1 4//4 15//15
f 1//1 15//15 39//39
f 1//1 39//39 94//94
f 1//1 94//94 43//43
f 1//1 43//43 19//19
f 1//1 19//19 7//7
f 2//2 8//8 27//27
f 2//2 27//27 58//58
f 2//2 58//58 116//116
f 2//2 116//116 209//209
f 2//2 209//209 337//337
f 2//2 337//337 491//491
f 2//2 491//491 634//634
f 2//2 634//634 631//631
f 2//2 631//631 538//538
f 2//2 538//538 395//395
f 2//2 395//395 246//246
f 2//2 246//246 146//146
f 2//2 146//146 142//142
f 2//2 142//142 74//74
f 2//2 74//74 33//33
f 2//2 33//33 11//11
f 3//3 12//12 5//5
f 6//6 13//13 16//16
f 9//9 20//20 28//28
f 10//10 30//30 84//84
f 10//10 84//84 167//167
f 10//10 167//167 277//277
f 10//10 277//277 274//274
f 10//10 274//274 270//270
f 10//10 270//270 418//418
f 10//10 418//418 567//567
f 10//10 567//567 705//705
f 10//10 705//705 768//768
f 10//10 768//768 776//776
f 10//10 776//776 772//772
f 10//10 772//772 708//708
f 10//10 708//708 573//573
f 10//10 573//573 425//425
f 10//10 425//425 422//422
f 10//10 422//422 284//284
f 10//10 284//284 171//171
f 10//10 171//171 91//91
f 10//10 91//91 34//34
f 14//14 35//35 17//17
f 18//18 36//36 41//41
f 22//22 45//45 90//90
f 22//22 90//90 38//38
f 22//22 38//38 93//93
f 22//22 93//93 180//180
f 22//22 180//180 304//304
f 22//22 304//304 452//452
f 22//22 452//452 603//603
f 22//22 603//603 613//613
f 22//22 613//613 617//617
f 22//22 617//617 455//455
f 22//22 455//455 307//307
f 22//22 307//307 184//184
f 22//22 184//184 100//100
f 22//22 100//100 50//50
f 21//21 49//49 29//29
f 26//26 54//54 56//56
f 23//23 46//46 59//59
f 24//24 62//62 67//67
f 25//25 68//68 51//51
f 32//32 73//73 83//83
f 31//31 82//82 86//86
f 37//37 89//89 42//42
f 40//40 88//88 96//96
f 44//44 95//95 87//87
f 48//48 98//98 102//102
f 47//47 101//101 60//60
f 53//53 109//109 55//55
f 52//52 69//69 106//106
f 57//57 110//110 112//112
f 66//66 118//118 70//70
f 61//61 105//105 126//126
f 63//63 128//128 130//130
f 64//64 133//133 135//135
f 65//65 137//137 117//117
f 71//71 119//119 107//107
f 72//72 141//141 81//81
f 80//80 140//140 144//144
f 79//79 143//143 152//152
f 76//76 151//151 156//156
f 75//75 155//155 163//163
f 77//77 164//164 168//168
f 78//78 170//170 85//85
f 92//92 175//175 179//179
f 97//97 183//183 186//186
f 99//99 187//187 103//103
f 104//104 188//188 125//125
f 108//108 121//121 193//193
f 111//111 196//196 113//113
f 114//114 197//197 202//202
f 115//115 205//205 208//208
f 120//120 139//139 211//211
f 122//122 216//216 218//218
f 123//123 223//223 226//226
f 124//124 228//228 194//194
f 127//127 189//189 129//129
f 131//131 192//192 231//231
f 132//132 233//233 134//134
f 136//136 234//234 237//237
f 138//138 239//239 210//210
f 145//145 245//245 153//153
f 147//147 253//253 257//257
f 148//148 258//258 161//161
f 149//149 162//162 154//154
f 150//150 244//244 254//254
f 160//160 255//255 262//262
f 159//159 260//260 269//269
f 157//157 267//267 272//272
f 158//158 273//273 275//275
f 165//165 276//276 278//278
f 166//166 279//279 169//169
f 172//172 280//280 177//177
f 174//174 285//285 290//290
f 173//173 287//287 282//282
f 178//178 281//281 296//296
f 176//176 294//294 302//302
f 181//181 306//306 309//309
f 182//182 310//310 185//185
f 190//190 313//313 315//315
f 191//191 316//316 230//230
f 195//195 229//229 324//324
f 198//198 327//327 329//329
f 199//199 331//331 334//334
f 200//200 335//335 338//338
f 201//201 339//339 203//203
f 204//204 341//341 207//207
f 206//206 340//340 336//336
f 217//217 343//343 219//219
f 212//212 241//241 345//345
f 213//213 349//349 352//352
f 214//214 355//355 358//358
f 215//215 359//359 342//342
f 220//220 344//344 361//361
f 221//221 362//362 364//364
f 222//222 369//369 371//371
f 224//224 372//372 320//320
f 225//225 321//321 227//227
f 232//232 319//319 375//375
f 235//235 377//377 379//379
f 236//236 381//381 238//238
f 240//240 383//383 385//385
f 242//242 387//387 346//346
f 243//243 394//394 251//251
f 247//247 400//400 405//405
f 250//250 408//408 261//261
f 252//252 263//263 256//256
f 249//249 392//392 412//412
f 248//248 410//410 401//401
f 259//259 407//407 268//268
f 265//265 406//406 417//417
f 264//264 416//416 420//420
f 266//266 421//421 271//271
f 283//283 288//288 299//299
f 286//286 423//423 291//291
f 293//293 424//424 427//427
f 292//292 426//426 433//433
f 289//289 430//430 300//300
f 301//301 431//431 438//438
f 298//298 436//436 445//445
f 297//297 443//443 450//450
f 295//295 449//449 303//303
f 305//305 454//454 457//457
f 305//305 457//457 308//308
f 311//311 459//459 461//461
f 312//312 463//463 314//314
f 317//317 465//465 467//467
f 318//318 469//469 374//374
f 322//322 373//373 477//477
f 323//323 479//479 481//481
f 325//325 483//483 488//488
f 326//326 489//489 332//332
f 328//328 333//333 330//330
f 347//347 388//388 492//492
f 348//348 495//495 351//351
f 350//350 494//494 498//498
f 353//353 500//500 502//502
f 354//354 505//505 508//508
f 356//356 510//510 514//514
f 357//357 515//515 360//360
f 363//363 516//516 365//365
f 366//366 517//517 519//519
f 367//367 520//520 474//474
f 368//368 475//475 370//370
f 376//376 471//471 378//378
f 380//380 472//472 525//525
f 382//382 528//528 384//384
f 386//386 529//529 531//531
f 390//390 533//533 497//497
f 389//389 496//496 493//493
f 393//393 537//537 547//547
f 391//391 545//545 411//411
f 397//397 552//552 404//404
f 399//399 409//409 544//544
f 398//398 543//543 556//556
f 396//396 555//555 551//551
f 402//402 565//565 415//415
f 403//403 549//549 566//566
f 414//414 572//572 419//419
f 413//413 562//562 571//571
f 429//429 574//574 578//578
f 428//428 576//576 434//434
f 432//432 583//583 440//440
f 435//435 577//577 585//585
f 441//441 584//584 591//591
f 439//439 590//590 600//600
f 437//437 597//597 446//446
f 447//447 601//601 451//451
f 444//444 596//596 609//609
f 442//442 604//604 610//610
f 448//448 612//612 602//602
f 453//453 615//615 456//456
f 458//458 616//616 606//606
f 460//460 607//607 462//462
f 464//464 608//608 595//595
f 466//466 598//598 468//468
f 470//470 599//599 589//589
f 473//473 592//592 526//526
f 476//476 522//522 618//618
f 478//478 620//620 480//480
f 482//482 621//621 623//623
f 485//485 626//626 539//539
f 487//487 540//540 629//629
f 486//486 628//628 633//633
f 484//484 632//632 490//490
f 499//499 534//534 635//635
f 501//501 637//637 503//503
f 504//504 639//639 641//641
f 506//506 645//645 647//647
f 507//507 649//649 509//509
f 513//513 651//651 656//656
f 512//512 654//654 523//523
f 511//511 521//521 518//518
f 524//524 655//655 619//619
f 527//527 594//594 662//662
f 530//530 664//664 532//532
f 535//535 665//665 636//636
f 536//536 630//630 546//546
f 541//541 627//627 672//672
f 542//542 673//673 553//553
f 550//550 554//554 674//674
f 548//548 671//671 564//564
f 563//563 670//670 678//678
f 560//560 675//675 652//652
f 559//559 650//650 686//686
f 557//557 685//685 690//690
f 558//558 691//691 694//694
f 561//561 695//695 570//570
f 568//568 693//693 703//703
f 569//569 704//704 707//707
f 575//575 709//709 581//581
f 582//582 710//710 713//713
f 580//580 712//712 721//721
f 579//579 719//719 586//586
f 588//588 720//720 663//663
f 587//587 661//661 593//593
f 605//605 614//614 611//611
f 622//622 657//657 624//624
f 625//625 659//659 668//668
f 638//638 667//667 726//726
f 640//640 728//728 642//642
f 643//643 730//730 732//732
f 644//644 733//733 679//679
f 646//646 681//681 648//648
f 653//653 676//676 658//658
f 660//660 677//677 669//669
f 666//666 723//723 725//725
f 680//680 734//734 738//738
f 682//682 740//740 742//742
f 683//683 746//746 750//750
f 684//684 751//751 689//689
f 687//687 749//749 701//701
f 688//688 702//702 692//692
f 698//698 754//754 759//759
f 697//697 757//757 766//766
f 696//696 765//765 770//770
f 699//699 771//771 706//706
f 700//700 748//748 756//756
f 711//711 773//773 715//715
f 718//718 774//774 761//761
f 717//717 760//760 743//743
f 716//716 741//741 739//739
f 714//714 735//735 722//722
f 724//724 736//736 727//727
f 729//729 737//737 731//731
f 744//744 764//764 752//752
f 745//745 755//755 747//747
f 753//753 767//767 758//758
f 762//762 775//775 777//777
f 763//763 778//778 769//769

