# https://github.com/mikedh/trimesh
v 0.65785992 -0.95387924 0.24789867
v 0.65785992 -0.95387924 0.24789867
v 0.65785992 -0.95387924 0.24789867
v 0.65785992 -0.95387924 0.24789867
v 0.65785992 -0.95387924 0.24789867
v 0.65785992 -0.95387924 0.24789867
v 0.65785992 -0.95387924 0.24789867
v 0.62844205 -0.97562456 0.24789867
v 0.62844205 -0.97562456 0.24789867
v 0.62844205 -0.97562456 0.24789867
v 0.62844205 -0.97562456 0.24789867
v 0.65785992 -0.95297313 0.24615151
v 0.65785992 -0.95297313 0.24615151
v 0.65785992 -0.95297313 0.24615151
v 0.65785992 -0.79747164 0.24789867
v 0.65785992 -0.79747164 0.24789867
v 0.65785992 -0.79747164 0.24789867
v 0.62374288 -0.97890902 0.24789867
v 0.62374288 -0.97890902 0.24789867
v 0.62374288 -0.97890902 0.24789867
v 0.62374288 -0.97890902 0.24789867
v 0.62374288 -0.97890902 0.24789867
v 0.62374288 -0.97890902 0.24789867
v 0.65785992 -0.94855618 0.23770705
v 0.65785992 -0.94855618 0.23770705
v 0.65785992 -0.94855618 0.23770705
v 0.65785992 -0.94855618 0.23770705
v 0.65785992 -0.94855618 0.23770705
v 0.00023881 -1.02976125 0.24789867
v 0.00023881 -1.02976125 0.24789867
v 0.00023881 -1.02976125 0.24789867
v 0.00023881 -1.02976125 0.24789867
v 0.00023881 -1.02976125 0.24789867
v 0.00023881 -1.02976125 0.24789867
v 0.65785992 -0.00003053 0.16187665
v 0.65785992 -0.00003053 0.16187665
v 0.65785992 -0.00003053 0.16187665
v 0.65785992 -0.00003053 0.16187665
v 0.62000936 -0.98140061 0.24789867
v 0.62000936 -0.98140061 0.24789867
v 0.62000936 -0.98140061 0.24789867
v 0.62000936 -0.98140061 0.24789867
v 0.62000936 -0.98140061 0.24789867
v 0.61125481 -0.97041470 0.22140047
v 0.61125481 -0.97041470 0.22140047
v 0.61125481 -0.97041470 0.22140047
v 0.61125481 -0.97041470 0.22140047
v 0.61125481 -0.97041470 0.22140047
v 0.61125481 -0.97041470 0.22140047
v 0.61125481 -0.97041470 0.22140047
v 0.64376253 -0.95523828 0.23275682
v 0.64376253 -0.95523828 0.23275682
v 0.64376253 -0.95523828 0.23275682
v 0.64376253 -0.95523828 0.23275682
v 0.65785992 -0.93632442 0.21890113
v 0.65785992 -0.93632442 0.21890113
v 0.65785992 -0.93632442 0.21890113
v 0.65785992 -0.93632442 0.21890113
v 0.00023881 -1.15706187 0.24789867
v 0.00023881 -1.15706187 0.24789867
v 0.00023881 -1.15706187 0.24789867
v 0.00023881 -1.15706187 0.24789867
v 0.37790745 -0.00003053 0.14959821
v 0.37790745 -0.00003053 0.14959821
v 0.37790745 -0.00003053 0.14959821
v 0.15563205 -0.00003053 0.13872716
v 0.15563205 -0.00003053 0.13872716
v 0.15563205 -0.00003053 0.13872716
v 0.00023881 -0.00003053 0.12940910
v 0.00023881 -0.00003053 0.12940910
v 0.00023881 -0.00003053 0.12940910
v 0.65785992 -0.00003053 0.03642285
v 0.65785992 -0.00003053 0.03642285
v 0.65785992 -0.00003053 0.03642285
v 0.65785992 -0.00003053 0.03642285
v 0.65785992 -0.00003053 0.03642285
v 0.59799421 -0.98740321 0.23455253
v 0.59799421 -0.98740321 0.23455253
v 0.59799421 -0.98740321 0.23455253
v 0.59799421 -0.98740321 0.23455253
v 0.59799421 -0.98740321 0.23455253
v 0.59844482 -0.99442518 0.24789867
v 0.59844482 -0.99442518 0.24789867
v 0.59844482 -0.99442518 0.24789867
v 0.58157945 -0.98026806 0.20722929
v 0.58157945 -0.98026806 0.20722929
v 0.58157945 -0.98026806 0.20722929
v 0.58157945 -0.98026806 0.20722929
v 0.58157945 -0.98026806 0.20722929
v 0.58157945 -0.98026806 0.20722929
v 0.58157945 -0.98026806 0.20722929
v 0.58157945 -0.98026806 0.20722929
v 0.58157945 -0.98026806 0.20722929
v 0.58157945 -0.98026806 0.20722929
v 0.65785992 -0.93179417 0.21259204
v 0.65785992 -0.93179417 0.21259204
v 0.65785992 -0.93179417 0.21259204
v 0.65785992 -0.93179417 0.21259204
v 0.65785992 -0.93179417 0.21259204
v 0.00023881 -1.15207857 0.23887181
v 0.00023881 -1.15207857 0.23887181
v 0.00023881 -1.15207857 0.23887181
v 0.02225393 -1.14584953 0.22766104
v 0.02225393 -1.14584953 0.22766104
v 0.02225393 -1.14584953 0.22766104
v 0.02225393 -1.14584953 0.22766104
v 0.02225393 -1.14584953 0.22766104
v 0.02225393 -1.14584953 0.22766104
v 0.02225393 -1.14584953 0.22766104
v 0.02225393 -1.14584953 0.22766104
v 0.02225393 -1.15694875 0.24789867
v 0.02225393 -1.15694875 0.24789867
v 0.02225393 -1.15694875 0.24789867
v 0.00023881 -0.00003053 0.04804614
v 0.00023881 -0.00003053 0.04804614
v 0.00023881 -0.00003053 0.04804614
v 0.00023881 -0.00014380 0.04787624
v 0.00023881 -0.00014380 0.04787624
v 0.00023881 -0.00014380 0.04787624
v 0.00023881 -0.00014380 0.04787624
v 0.65785992 -0.42236513 0.00330013
v 0.65785992 -0.42236513 0.00330013
v 0.65785992 -0.42236513 0.00330013
v 0.65785992 -0.42236513 0.00330013
v 0.64472806 -0.42236513 0.00213540
v 0.64472806 -0.42236513 0.00213540
v 0.64472806 -0.42236513 0.00213540
v 0.64472806 -0.42236513 0.00213540
v 0.64472806 -0.42236513 0.00213540
v 0.64472806 -0.42236513 0.00213540
v 0.56400597 -1.01481146 0.24789867
v 0.56400597 -1.01481146 0.24789867
v 0.56400597 -1.01481146 0.24789867
v 0.56400597 -1.01481146 0.24789867
v 0.56400597 -1.01481146 0.24789867
v 0.55602390 -1.00994128 0.23251420
v 0.55602390 -1.00994128 0.23251420
v 0.55602390 -1.00994128 0.23251420
v 0.55602390 -1.00994128 0.23251420
v 0.55602390 -1.00994128 0.23251420
v 0.52242184 -1.01752955 0.21797901
v 0.52242184 -1.01752955 0.21797901
v 0.52242184 -1.01752955 0.21797901
v 0.52242184 -1.01752955 0.21797901
v 0.52242184 -1.01752955 0.21797901
v 0.52242184 -1.01752955 0.21797901
v 0.52242184 -1.01752955 0.21797901
v 0.52242184 -1.01752955 0.21797901
v 0.55583078 -0.98706353 0.19951278
v 0.55583078 -0.98706353 0.19951278
v 0.55583078 -0.98706353 0.19951278
v 0.55583078 -0.98706353 0.19951278
v 0.55583078 -0.98706353 0.19951278
v 0.55583078 -0.96418560 0.17728540
v 0.55583078 -0.96418560 0.17728540
v 0.55583078 -0.96418560 0.17728540
v 0.55583078 -0.96418560 0.17728540
v 0.55583078 -0.96418560 0.17728540
v 0.59548372 -0.95252013 0.18985504
v 0.59548372 -0.95252013 0.18985504
v 0.59548372 -0.95252013 0.18985504
v 0.59548372 -0.95252013 0.18985504
v 0.59548372 -0.95252013 0.18985504
v 0.63269061 -0.94074148 0.20213348
v 0.63269061 -0.94074148 0.20213348
v 0.63269061 -0.94074148 0.20213348
v 0.63269061 -0.94074148 0.20213348
v 0.63269061 -0.94074148 0.20213348
v 0.63269061 -0.94074148 0.20213348
v 0.65785992 -0.90846330 0.18987930
v 0.65785992 -0.90846330 0.18987930
v 0.65785992 -0.90846330 0.18987930
v 0.65785992 -0.90846330 0.18987930
v 0.00023881 -1.14584953 0.22763678
v 0.00023881 -1.14584953 0.22763678
v 0.00023881 -1.14584953 0.22763678
v 0.06673475 -1.14528316 0.22882581
v 0.06673475 -1.14528316 0.22882581
v 0.06673475 -1.14528316 0.22882581
v 0.06673475 -1.14528316 0.22882581
v 0.06673475 -1.14528316 0.22882581
v 0.06673475 -1.14528316 0.22882581
v 0.06673475 -1.15581614 0.24789867
v 0.06673475 -1.15581614 0.24789867
v 0.06673475 -1.15581614 0.24789867
v 0.06673475 -1.15581614 0.24789867
v 0.02225393 -1.12365109 0.19512069
v 0.02225393 -1.12365109 0.19512069
v 0.02225393 -1.12365109 0.19512069
v 0.02225393 -1.12365109 0.19512069
v 0.02225393 -1.12365109 0.19512069
v 0.06673475 -1.12297159 0.19584867
v 0.06673475 -1.12297159 0.19584867
v 0.06673475 -1.12297159 0.19584867
v 0.06673475 -1.12297159 0.19584867
v 0.06673475 -1.12297159 0.19584867
v 0.06673475 -1.12297159 0.19584867
v 0.00023881 -0.77799141 0.00058234
v 0.00023881 -0.77799141 0.00058234
v 0.00023881 -0.77799141 0.00058234
v 0.00023881 -0.77799141 0.00058234
v 0.00023881 -0.77799141 0.00058234
v 0.00023881 -0.77799141 0.00058234
v 0.00023881 -0.77799141 0.00058234
v 0.65785992 -0.46642199 0.00674587
v 0.65785992 -0.46642199 0.00674587
v 0.65785992 -0.46642199 0.00674587
v 0.65785992 -0.46642199 0.00674587
v 0.64472806 -0.46676177 0.00162578
v 0.64472806 -0.46676177 0.00162578
v 0.64472806 -0.46676177 0.00162578
v 0.64472806 -0.46676177 0.00162578
v 0.64472806 -0.46676177 0.00162578
v 0.64472806 -0.46676177 0.00162578
v 0.60024726 -0.51127172 0.00065517
v 0.60024726 -0.51127172 0.00065517
v 0.60024726 -0.51127172 0.00065517
v 0.60024726 -0.51127172 0.00065517
v 0.60024726 -0.51127172 0.00065517
v 0.54192650 -1.02602381 0.24789867
v 0.54192650 -1.02602381 0.24789867
v 0.54192650 -1.02602381 0.24789867
v 0.54192650 -1.02602381 0.24789867
v 0.54147589 -1.02625030 0.24789867
v 0.54147589 -1.02625030 0.24789867
v 0.54147589 -1.02625030 0.24789867
v 0.54147589 -1.02625030 0.24789867
v 0.54147589 -1.02625030 0.24789867
v 0.45180616 -1.06656975 0.24789867
v 0.45180616 -1.06656975 0.24789867
v 0.45180616 -1.06656975 0.24789867
v 0.45180616 -1.06656975 0.24789867
v 0.45180616 -1.06656975 0.24789867
v 0.46525982 -1.05241257 0.23411572
v 0.46525982 -1.05241257 0.23411572
v 0.46525982 -1.05241257 0.23411572
v 0.42238829 -1.06169981 0.21836725
v 0.42238829 -1.06169981 0.21836725
v 0.42238829 -1.06169981 0.21836725
v 0.42238829 -1.06169981 0.21836725
v 0.42238829 -1.06169981 0.21836725
v 0.42238829 -1.06169981 0.21836725
v 0.42238829 -1.06169981 0.21836725
v 0.49281090 -1.02409846 0.20786020
v 0.49281090 -1.02409846 0.20786020
v 0.49281090 -1.02409846 0.20786020
v 0.49281090 -1.02409846 0.20786020
v 0.49281090 -1.02409846 0.20786020
v 0.49281090 -1.02409846 0.20786020
v 0.52319437 -0.97335941 0.16903505
v 0.52319437 -0.97335941 0.16903505
v 0.52319437 -0.97335941 0.16903505
v 0.52319437 -0.97335941 0.16903505
v 0.52319437 -0.97335941 0.16903505
v 0.52319437 -0.97335941 0.16903505
v 0.52319437 -0.97335941 0.16903505
v 0.52319437 -0.97335941 0.16903505
v 0.52319437 -0.97335941 0.16903505
v 0.52319437 -0.97335941 0.16903505
v 0.57977706 -0.93462557 0.16469148
v 0.57977706 -0.93462557 0.16469148
v 0.57977706 -0.93462557 0.16469148
v 0.57977706 -0.93462557 0.16469148
v 0.57977706 -0.93462557 0.16469148
v 0.57977706 -0.93462557 0.16469148
v 0.57977706 -0.93462557 0.16469148
v 0.57977706 -0.93462557 0.16469148
v 0.57977706 -0.93462557 0.16469148
v 0.60938805 -0.92409271 0.17248079
v 0.60938805 -0.92409271 0.17248079
v 0.60938805 -0.92409271 0.17248079
v 0.60938805 -0.92409271 0.17248079
v 0.60938805 -0.92409271 0.17248079
v 0.60938805 -0.92409271 0.17248079
v 0.64601547 -0.91231406 0.18563280
v 0.64601547 -0.91231406 0.18563280
v 0.64601547 -0.91231406 0.18563280
v 0.64601547 -0.91231406 0.18563280
v 0.65785992 -0.88671798 0.17109761
v 0.65785992 -0.88671798 0.17109761
v 0.65785992 -0.88671798 0.17109761
v 0.65785992 -0.88671798 0.17109761
v 0.65785992 -0.88671798 0.17109761
v 0.00023881 -1.12365109 0.19509643
v 0.00023881 -1.12365109 0.19509643
v 0.00023881 -1.12365109 0.19509643
v 0.11166619 -1.14573628 0.23554742
v 0.11166619 -1.14573628 0.23554742
v 0.11166619 -1.14573628 0.23554742
v 0.11166619 -1.14573628 0.23554742
v 0.11166619 -1.14573628 0.23554742
v 0.11166619 -1.14573628 0.23554742
v 0.11166619 -1.14573628 0.23554742
v 0.09100289 -1.15445703 0.24789867
v 0.09100289 -1.15445703 0.24789867
v 0.09100289 -1.15445703 0.24789867
v 0.09100289 -1.15445703 0.24789867
v 0.11115123 -1.12149924 0.19752300
v 0.11115123 -1.12149924 0.19752300
v 0.11115123 -1.12149924 0.19752300
v 0.11115123 -1.12149924 0.19752300
v 0.11115123 -1.12149924 0.19752300
v 0.11115123 -1.12149924 0.19752300
v 0.00023881 -1.11311823 0.18412831
v 0.00023881 -1.11311823 0.18412831
v 0.00023881 -1.11311823 0.18412831
v 0.00023881 -1.11311823 0.18412831
v 0.02225393 -1.10224563 0.17286903
v 0.02225393 -1.10224563 0.17286903
v 0.02225393 -1.10224563 0.17286903
v 0.02225393 -1.10224563 0.17286903
v 0.02225393 -1.10224563 0.17286903
v 0.02225393 -1.10224563 0.17286903
v 0.02225393 -1.10224563 0.17286903
v 0.06673475 -1.10145289 0.17362127
v 0.06673475 -1.10145289 0.17362127
v 0.06673475 -1.10145289 0.17362127
v 0.06673475 -1.10145289 0.17362127
v 0.06673475 -1.10145289 0.17362127
v 0.06673475 -1.10145289 0.17362127
v 0.28907454 -0.73348153 0.00000000
v 0.28907454 -0.73348153 0.00000000
v 0.28907454 -0.73348153 0.00000000
v 0.28907454 -0.73348153 0.00000000
v 0.28907454 -0.73348153 0.00000000
v 0.28907454 -0.73348153 0.00000000
v 0.28907454 -0.73348153 0.00000000
v 0.28907454 -0.73348153 0.00000000
v 0.28907454 -0.73348153 0.00000000
v 0.06673475 -0.77799141 0.00055808
v 0.06673475 -0.77799141 0.00055808
v 0.06673475 -0.77799141 0.00055808
v 0.06673475 -0.77799141 0.00055808
v 0.06673475 -0.77799141 0.00055808
v 0.00023881 -0.82238805 0.01276374
v 0.00023881 -0.82238805 0.01276374
v 0.00023881 -0.82238805 0.01276374
v 0.00023881 -0.82238805 0.01276374
v 0.55583078 -0.55566835 0.00019413
v 0.55583078 -0.55566835 0.00019413
v 0.55583078 -0.55566835 0.00019413
v 0.55583078 -0.55566835 0.00019413
v 0.55583078 -0.55566835 0.00019413
v 0.55583078 -0.55566835 0.00019413
v 0.65785992 -0.50957286 0.01890302
v 0.65785992 -0.50957286 0.01890302
v 0.65785992 -0.50957286 0.01890302
v 0.64801103 -0.51421636 0.01555431
v 0.64801103 -0.51421636 0.01555431
v 0.64801103 -0.51421636 0.01555431
v 0.64801103 -0.51421636 0.01555431
v 0.64801103 -0.51421636 0.01555431
v 0.60024726 -0.55566835 0.00939083
v 0.60024726 -0.55566835 0.00939083
v 0.60024726 -0.55566835 0.00939083
v 0.60024726 -0.55566835 0.00939083
v 0.60024726 -0.55566835 0.00939083
v 0.60024726 -0.55566835 0.00939083
v 0.44266537 -1.07053369 0.24789867
v 0.44266537 -1.07053369 0.24789867
v 0.44266537 -1.07053369 0.24789867
v 0.44266537 -1.07053369 0.24789867
v 0.42238829 -1.07483751 0.24059469
v 0.42238829 -1.07483751 0.24059469
v 0.42238829 -1.07483751 0.24059469
v 0.42238829 -1.07483751 0.24059469
v 0.42238829 -1.07483751 0.24059469
v 0.42238829 -1.07483751 0.24059469
v 0.39915010 -1.06656975 0.21038386
v 0.39915010 -1.06656975 0.21038386
v 0.39915010 -1.06656975 0.21038386
v 0.39915010 -1.06656975 0.21038386
v 0.39915010 -1.06656975 0.21038386
v 0.39915010 -1.06656975 0.21038386
v 0.39915010 -1.06656975 0.21038386
v 0.46686915 -1.02987450 0.20130846
v 0.46686915 -1.02987450 0.20130846
v 0.46686915 -1.02987450 0.20130846
v 0.46686915 -1.02987450 0.20130846
v 0.46686915 -1.02987450 0.20130846
v 0.50954759 -0.95739019 0.15559182
v 0.50954759 -0.95739019 0.15559182
v 0.50954759 -0.95739019 0.15559182
v 0.50954759 -0.95739019 0.15559182
v 0.50954759 -0.95739019 0.15559182
v 0.50954759 -0.95739019 0.15559182
v 0.50954759 -0.95739019 0.15559182
v 0.55583078 -0.94198728 0.16049352
v 0.55583078 -0.94198728 0.16049352
v 0.55583078 -0.94198728 0.16049352
v 0.55583078 -0.94198728 0.16049352
v 0.46686915 -1.00756294 0.17908105
v 0.46686915 -1.00756294 0.17908105
v 0.46686915 -1.00756294 0.17908105
v 0.46686915 -1.00756294 0.17908105
v 0.42238829 -1.01696330 0.16978729
v 0.42238829 -1.01696330 0.16978729
v 0.42238829 -1.01696330 0.16978729
v 0.42238829 -1.01696330 0.16978729
v 0.42238829 -1.01696330 0.16978729
v 0.42238829 -1.01696330 0.16978729
v 0.42238829 -1.01696330 0.16978729
v 0.49351898 -0.97970176 0.16420618
v 0.49351898 -0.97970176 0.16420618
v 0.49351898 -0.97970176 0.16420618
v 0.49351898 -0.97970176 0.16420618
v 0.49351898 -0.97970176 0.16420618
v 0.55583078 -0.91140789 0.14486638
v 0.55583078 -0.91140789 0.14486638
v 0.55583078 -0.91140789 0.14486638
v 0.55583078 -0.91140789 0.14486638
v 0.55583078 -0.91140789 0.14486638
v 0.55583078 -0.91140789 0.14486638
v 0.55583078 -0.91140789 0.14486638
v 0.55583078 -0.91140789 0.14486638
v 0.59683555 -0.91004884 0.15826106
v 0.59683555 -0.91004884 0.15826106
v 0.59683555 -0.91004884 0.15826106
v 0.59683555 -0.91004884 0.15826106
v 0.59683555 -0.91004884 0.15826106
v 0.62972945 -0.89441943 0.16248330
v 0.62972945 -0.89441943 0.16248330
v 0.62972945 -0.89441943 0.16248330
v 0.62972945 -0.89441943 0.16248330
v 0.62972945 -0.89441943 0.16248330
v 0.65785992 -0.88388652 0.16879240
v 0.65785992 -0.88388652 0.16879240
v 0.65785992 -0.88388652 0.16879240
v 0.65785992 -0.88388652 0.16879240
v 0.65785992 -0.88388652 0.16879240
v 0.65785992 -0.88388652 0.16879240
v 0.15563205 -1.11855465 0.20094448
v 0.15563205 -1.11855465 0.20094448
v 0.15563205 -1.11855465 0.20094448
v 0.15563205 -1.11855465 0.20094448
v 0.15563205 -1.11855465 0.20094448
v 0.15563205 -1.11855465 0.20094448
v 0.15563205 -1.11855465 0.20094448
v 0.15563205 -1.11855465 0.20094448
v 0.15563205 -1.13803476 0.23207742
v 0.15563205 -1.13803476 0.23207742
v 0.15563205 -1.13803476 0.23207742
v 0.15563205 -1.13803476 0.23207742
v 0.15563205 -1.13803476 0.23207742
v 0.15563205 -1.13803476 0.23207742
v 0.15563205 -1.13803476 0.23207742
v 0.12087134 -1.15151232 0.24789867
v 0.12087134 -1.15151232 0.24789867
v 0.12087134 -1.15151232 0.24789867
v 0.12087134 -1.15151232 0.24789867
v 0.10117361 -1.15366429 0.24789867
v 0.10117361 -1.15366429 0.24789867
v 0.10117361 -1.15366429 0.24789867
v 0.11115123 -1.09975392 0.17527133
v 0.11115123 -1.09975392 0.17527133
v 0.11115123 -1.09975392 0.17527133
v 0.11115123 -1.09975392 0.17527133
v 0.11115123 -1.09975392 0.17527133
v 0.11115123 -1.09975392 0.17527133
v 0.11115123 -1.09975392 0.17527133
v 0.00023881 -1.10224563 0.17286903
v 0.00023881 -1.10224563 0.17286903
v 0.00023881 -1.10224563 0.17286903
v 0.02225393 -1.08004731 0.15733895
v 0.02225393 -1.08004731 0.15733895
v 0.02225393 -1.08004731 0.15733895
v 0.02225393 -1.08004731 0.15733895
v 0.06673475 -1.07925445 0.15782428
v 0.06673475 -1.07925445 0.15782428
v 0.06673475 -1.07925445 0.15782428
v 0.06673475 -1.07925445 0.15782428
v 0.06673475 -1.07925445 0.15782428
v 0.06673475 -1.07925445 0.15782428
v 0.06673475 -1.07925445 0.15782428
v 0.11115123 -1.07755560 0.15874636
v 0.11115123 -1.07755560 0.15874636
v 0.11115123 -1.07755560 0.15874636
v 0.11115123 -1.07755560 0.15874636
v 0.11115123 -1.07755560 0.15874636
v 0.11115123 -1.07755560 0.15874636
v 0.37790745 -0.68897164 0.00043678
v 0.37790745 -0.68897164 0.00043678
v 0.37790745 -0.68897164 0.00043678
v 0.37790745 -0.68897164 0.00043678
v 0.33342662 -0.73348153 0.00337291
v 0.33342662 -0.73348153 0.00337291
v 0.33342662 -0.73348153 0.00337291
v 0.33342662 -0.73348153 0.00337291
v 0.33342662 -0.73348153 0.00337291
v 0.33342662 -0.73348153 0.00337291
v 0.33342662 -0.73348153 0.00337291
v 0.33342662 -0.73348153 0.00337291
v 0.33342662 -0.73348153 0.00337291
v 0.20011289 -0.77799141 0.00298464
v 0.20011289 -0.77799141 0.00298464
v 0.20011289 -0.77799141 0.00298464
v 0.20011289 -0.77799141 0.00298464
v 0.20011289 -0.77799141 0.00298464
v 0.20011289 -0.77799141 0.00298464
v 0.15563205 -0.77799141 0.00101912
v 0.15563205 -0.77799141 0.00101912
v 0.15563205 -0.77799141 0.00101912
v 0.15563205 -0.77799141 0.00101912
v 0.15563205 -0.77799141 0.00101912
v 0.11115123 -0.77799141 0.00063092
v 0.11115123 -0.77799141 0.00063092
v 0.11115123 -0.77799141 0.00063092
v 0.11115123 -0.77799141 0.00063092
v 0.51134992 -0.60006499 0.00048530
v 0.51134992 -0.60006499 0.00048530
v 0.51134992 -0.60006499 0.00048530
v 0.51134992 -0.60006499 0.00048530
v 0.51134992 -0.60006499 0.00048530
v 0.02225393 -0.82238805 0.01276374
v 0.02225393 -0.82238805 0.01276374
v 0.02225393 -0.82238805 0.01276374
v 0.02225393 -0.82238805 0.01276374
v 0.02225393 -0.82238805 0.01276374
v 0.02225393 -0.82238805 0.01276374
v 0.02225393 -0.82238805 0.01276374
v 0.00023881 -1.08004731 0.15733895
v 0.00023881 -1.08004731 0.15733895
v 0.00023881 -1.08004731 0.15733895
v 0.55583078 -0.60006499 0.00922096
v 0.55583078 -0.60006499 0.00922096
v 0.55583078 -0.60006499 0.00922096
v 0.55583078 -0.60006499 0.00922096
v 0.55583078 -0.60006499 0.00922096
v 0.55583078 -0.60006499 0.00922096
v 0.55583078 -0.60006499 0.00922096
v 0.55583078 -0.60006499 0.00922096
v 0.55583078 -0.60006499 0.00922096
v 0.65785992 -0.78761828 0.12557513
v 0.65785992 -0.78761828 0.12557513
v 0.65785992 -0.78761828 0.12557513
v 0.65785992 -0.78761828 0.12557513
v 0.65785992 -0.78761828 0.12557513
v 0.42161584 -1.07868820 0.24789867
v 0.42161584 -1.07868820 0.24789867
v 0.42161584 -1.07868820 0.24789867
v 0.37983859 -1.09409112 0.24789867
v 0.37983859 -1.09409112 0.24789867
v 0.37983859 -1.09409112 0.24789867
v 0.37983859 -1.09409112 0.24789867
v 0.38176978 -1.08287877 0.22795224
v 0.38176978 -1.08287877 0.22795224
v 0.38176978 -1.08287877 0.22795224
v 0.38176978 -1.08287877 0.22795224
v 0.38176978 -1.08287877 0.22795224
v 0.38176978 -1.08287877 0.22795224
v 0.36953917 -1.07189280 0.20390490
v 0.36953917 -1.07189280 0.20390490
v 0.36953917 -1.07189280 0.20390490
v 0.36953917 -1.07189280 0.20390490
v 0.36953917 -1.07189280 0.20390490
v 0.36953917 -1.07189280 0.20390490
v 0.36953917 -1.07189280 0.20390490
v 0.36953917 -1.07189280 0.20390490
v 0.36953917 -1.07189280 0.20390490
v 0.42238829 -1.03950137 0.19201469
v 0.42238829 -1.03950137 0.19201469
v 0.42238829 -1.03950137 0.19201469
v 0.42238829 -1.03950137 0.19201469
v 0.42238829 -1.03950137 0.19201469
v 0.46686915 -0.98536462 0.16085750
v 0.46686915 -0.98536462 0.16085750
v 0.46686915 -0.98536462 0.16085750
v 0.46686915 -0.98536462 0.16085750
v 0.46686915 -0.98536462 0.16085750
v 0.46686915 -0.95580459 0.14455095
v 0.46686915 -0.95580459 0.14455095
v 0.46686915 -0.95580459 0.14455095
v 0.46686915 -0.95580459 0.14455095
v 0.46686915 -0.95580459 0.14455095
v 0.46686915 -0.95580459 0.14455095
v 0.46686915 -0.95580459 0.14455095
v 0.50999820 -0.90857649 0.13096213
v 0.50999820 -0.90857649 0.13096213
v 0.50999820 -0.90857649 0.13096213
v 0.50999820 -0.90857649 0.13096213
v 0.50999820 -0.90857649 0.13096213
v 0.50999820 -0.90857649 0.13096213
v 0.50999820 -0.90857649 0.13096213
v 0.38402277 -1.04686302 0.18485633
v 0.38402277 -1.04686302 0.18485633
v 0.38402277 -1.04686302 0.18485633
v 0.38402277 -1.04686302 0.18485633
v 0.39844203 -1.02183324 0.16580772
v 0.39844203 -1.02183324 0.16580772
v 0.39844203 -1.02183324 0.16580772
v 0.39844203 -1.02183324 0.16580772
v 0.39844203 -1.02183324 0.16580772
v 0.39844203 -1.02183324 0.16580772
v 0.39844203 -1.02183324 0.16580772
v 0.39844203 -1.02183324 0.16580772
v 0.42238829 -0.68897164 0.00422221
v 0.42238829 -0.68897164 0.00422221
v 0.42238829 -0.68897164 0.00422221
v 0.42238829 -0.68897164 0.00422221
v 0.42238829 -0.68897164 0.00422221
v 0.42238829 -0.68897164 0.00422221
v 0.42238829 -0.68897164 0.00422221
v 0.42238829 -0.68897164 0.00422221
v 0.46686915 -0.69033068 0.01805371
v 0.46686915 -0.69033068 0.01805371
v 0.46686915 -0.69033068 0.01805371
v 0.46686915 -0.69033068 0.01805371
v 0.60024726 -0.86689800 0.13877568
v 0.60024726 -0.86689800 0.13877568
v 0.60024726 -0.86689800 0.13877568
v 0.60024726 -0.86689800 0.13877568
v 0.60024726 -0.86689800 0.13877568
v 0.60024726 -0.86689800 0.13877568
v 0.64466375 -0.86791730 0.15491238
v 0.64466375 -0.86791730 0.15491238
v 0.64466375 -0.86791730 0.15491238
v 0.64466375 -0.86791730 0.15491238
v 0.64466375 -0.86791730 0.15491238
v 0.64466375 -0.86791730 0.15491238
v 0.65785992 -0.86236775 0.15714481
v 0.65785992 -0.86236775 0.15714481
v 0.65785992 -0.86236775 0.15714481
v 0.65785992 -0.86236775 0.15714481
v 0.20011289 -1.11436409 0.20616162
v 0.20011289 -1.11436409 0.20616162
v 0.20011289 -1.11436409 0.20616162
v 0.20011289 -1.11436409 0.20616162
v 0.15563205 -1.09658283 0.17871708
v 0.15563205 -1.09658283 0.17871708
v 0.15563205 -1.09658283 0.17871708
v 0.15563205 -1.09658283 0.17871708
v 0.25618061 -1.06475765 0.16699672
v 0.25618061 -1.06475765 0.16699672
v 0.25618061 -1.06475765 0.16699672
v 0.25618061 -1.06475765 0.16699672
v 0.25618061 -1.06475765 0.16699672
v 0.25618061 -1.06475765 0.16699672
v 0.25618061 -1.06475765 0.16699672
v 0.28907454 -1.08253890 0.19233015
v 0.28907454 -1.08253890 0.19233015
v 0.28907454 -1.08253890 0.19233015
v 0.28907454 -1.08253890 0.19233015
v 0.28907454 -1.08253890 0.19233015
v 0.28907454 -1.08253890 0.19233015
v 0.15563205 -1.14652902 0.24789867
v 0.15563205 -1.14652902 0.24789867
v 0.15563205 -1.14652902 0.24789867
v 0.15563205 -1.14652902 0.24789867
v 0.22418788 -1.11187249 0.20934042
v 0.22418788 -1.11187249 0.20934042
v 0.22418788 -1.11187249 0.20934042
v 0.22418788 -1.11187249 0.20934042
v 0.22418788 -1.11187249 0.20934042
v 0.22418788 -1.11187249 0.20934042
v 0.20011289 -1.12988037 0.23207742
v 0.20011289 -1.12988037 0.23207742
v 0.20011289 -1.12988037 0.23207742
v 0.20011289 -1.12988037 0.23207742
v 0.20011289 -1.12988037 0.23207742
v 0.20011289 -1.12988037 0.23207742
v 0.20011289 -1.12988037 0.23207742
v 0.15563205 -1.07427126 0.16059056
v 0.15563205 -1.07427126 0.16059056
v 0.15563205 -1.07427126 0.16059056
v 0.15563205 -1.07427126 0.16059056
v 0.15563205 -1.07427126 0.16059056
v 0.15563205 -1.07427126 0.16059056
v 0.15563205 -1.07427126 0.16059056
v 0.22656964 -1.06770235 0.16483706
v 0.22656964 -1.06770235 0.16483706
v 0.22656964 -1.06770235 0.16483706
v 0.22656964 -1.06770235 0.16483706
v 0.22656964 -1.06770235 0.16483706
v 0.22656964 -1.06770235 0.16483706
v 0.22656964 -1.06770235 0.16483706
v 0.11115123 -1.04471117 0.14030445
v 0.11115123 -1.04471117 0.14030445
v 0.11115123 -1.04471117 0.14030445
v 0.11115123 -1.04471117 0.14030445
v 0.11115123 -1.04471117 0.14030445
v 0.06673475 -0.82238805 0.01421970
v 0.06673475 -0.82238805 0.01421970
v 0.06673475 -0.82238805 0.01421970
v 0.06673475 -0.82238805 0.01421970
v 0.06673475 -0.82238805 0.01421970
v 0.06673475 -0.82238805 0.01421970
v 0.15563205 -1.04471117 0.14362884
v 0.15563205 -1.04471117 0.14362884
v 0.15563205 -1.04471117 0.14362884
v 0.15563205 -1.04471117 0.14362884
v 0.15563205 -1.04471117 0.14362884
v 0.46686915 -0.64457494 0.00104344
v 0.46686915 -0.64457494 0.00104344
v 0.46686915 -0.64457494 0.00104344
v 0.46686915 -0.64457494 0.00104344
v 0.46686915 -0.64457494 0.00104344
v 0.38067544 -0.73699248 0.01606393
v 0.38067544 -0.73699248 0.01606393
v 0.38067544 -0.73699248 0.01606393
v 0.38067544 -0.73699248 0.01606393
v 0.33342662 -0.76904416 0.02060160
v 0.33342662 -0.76904416 0.02060160
v 0.33342662 -0.76904416 0.02060160
v 0.33342662 -0.76904416 0.02060160
v 0.33342662 -0.76904416 0.02060160
v 0.33342662 -0.76904416 0.02060160
v 0.33342662 -0.76904416 0.02060160
v 0.28926766 -0.78082287 0.01754409
v 0.28926766 -0.78082287 0.01754409
v 0.28926766 -0.78082287 0.01754409
v 0.28926766 -0.78082287 0.01754409
v 0.28926766 -0.78082287 0.01754409
v 0.24459371 -0.77799141 0.00757092
v 0.24459371 -0.77799141 0.00757092
v 0.24459371 -0.77799141 0.00757092
v 0.24459371 -0.77799141 0.00757092
v 0.24459371 -0.77799141 0.00757092
v 0.24459371 -0.77799141 0.00757092
v 0.24459371 -0.77799141 0.00757092
v 0.24459371 -0.77799141 0.00757092
v 0.15563205 -0.81763130 0.01788384
v 0.15563205 -0.81763130 0.01788384
v 0.15563205 -0.81763130 0.01788384
v 0.15563205 -0.81763130 0.01788384
v 0.15563205 -0.81763130 0.01788384
v 0.15563205 -0.81763130 0.01788384
v 0.15563205 -0.81763130 0.01788384
v 0.15563205 -0.81763130 0.01788384
v 0.65785992 -0.82102901 0.13896981
v 0.65785992 -0.82102901 0.13896981
v 0.65785992 -0.82102901 0.13896981
v 0.65785992 -0.82102901 0.13896981
v 0.65785992 -0.82102901 0.13896981
v 0.64157385 -0.81910360 0.13236955
v 0.64157385 -0.81910360 0.13236955
v 0.64157385 -0.81910360 0.13236955
v 0.64157385 -0.81910360 0.13236955
v 0.64157385 -0.81910360 0.13236955
v 0.51476163 -0.64819914 0.01511753
v 0.51476163 -0.64819914 0.01511753
v 0.51476163 -0.64819914 0.01511753
v 0.51476163 -0.64819914 0.01511753
v 0.51476163 -0.64819914 0.01511753
v 0.34327552 -1.10609645 0.24789867
v 0.34327552 -1.10609645 0.24789867
v 0.34327552 -1.10609645 0.24789867
v 0.34327552 -1.10609645 0.24789867
v 0.33426347 -1.10088652 0.23384881
v 0.33426347 -1.10088652 0.23384881
v 0.33426347 -1.10088652 0.23384881
v 0.33426347 -1.10088652 0.23384881
v 0.33426347 -1.10088652 0.23384881
v 0.33426347 -1.10088652 0.23384881
v 0.28907454 -1.10473734 0.22101223
v 0.28907454 -1.10473734 0.22101223
v 0.28907454 -1.10473734 0.22101223
v 0.28907454 -1.10473734 0.22101223
v 0.28907454 -1.10473734 0.22101223
v 0.28907454 -1.10473734 0.22101223
v 0.28907454 -1.10473734 0.22101223
v 0.33342662 -1.07710260 0.19776565
v 0.33342662 -1.07710260 0.19776565
v 0.33342662 -1.07710260 0.19776565
v 0.33342662 -1.07710260 0.19776565
v 0.33342662 -1.07710260 0.19776565
v 0.33342662 -1.07710260 0.19776565
v 0.33342662 -1.07710260 0.19776565
v 0.33342662 -1.05501753 0.17551401
v 0.33342662 -1.05501753 0.17551401
v 0.33342662 -1.05501753 0.17551401
v 0.33342662 -1.05501753 0.17551401
v 0.33342662 -1.05501753 0.17551401
v 0.33342662 -1.05501753 0.17551401
v 0.42238829 -0.99465162 0.15559182
v 0.42238829 -0.99465162 0.15559182
v 0.42238829 -0.99465162 0.15559182
v 0.42238829 -0.99465162 0.15559182
v 0.42238829 -0.99465162 0.15559182
v 0.41987780 -0.95218039 0.13229674
v 0.41987780 -0.95218039 0.13229674
v 0.41987780 -0.95218039 0.13229674
v 0.41987780 -0.95218039 0.13229674
v 0.41987780 -0.95218039 0.13229674
v 0.41987780 -0.95218039 0.13229674
v 0.46686915 -0.92046851 0.12681267
v 0.46686915 -0.92046851 0.12681267
v 0.46686915 -0.92046851 0.12681267
v 0.36883107 -1.02715629 0.16236198
v 0.36883107 -1.02715629 0.16236198
v 0.36883107 -1.02715629 0.16236198
v 0.36883107 -1.02715629 0.16236198
v 0.36883107 -1.02715629 0.16236198
v 0.36883107 -1.02715629 0.16236198
v 0.38138354 -1.00439173 0.15202478
v 0.38138354 -1.00439173 0.15202478
v 0.38138354 -1.00439173 0.15202478
v 0.38138354 -1.00439173 0.15202478
v 0.38138354 -1.00439173 0.15202478
v 0.38138354 -1.00439173 0.15202478
v 0.28907454 -1.03870863 0.15566465
v 0.28907454 -1.03870863 0.15566465
v 0.28907454 -1.03870863 0.15566465
v 0.28907454 -1.03870863 0.15566465
v 0.28907454 -1.03870863 0.15566465
v 0.28907454 -1.03870863 0.15566465
v 0.28907454 -1.03870863 0.15566465
v 0.33342662 -1.03270596 0.15903756
v 0.33342662 -1.03270596 0.15903756
v 0.33342662 -1.03270596 0.15903756
v 0.33342662 -1.03270596 0.15903756
v 0.33342662 -1.03270596 0.15903756
v 0.28907454 -1.06090695 0.17007849
v 0.28907454 -1.06090695 0.17007849
v 0.28907454 -1.06090695 0.17007849
v 0.28907454 -1.06090695 0.17007849
v 0.28907454 -1.06090695 0.17007849
v 0.28907454 -1.06090695 0.17007849
v 0.20011289 -1.13780826 0.24789867
v 0.20011289 -1.13780826 0.24789867
v 0.20011289 -1.13780826 0.24789867
v 0.20011289 -1.13780826 0.24789867
v 0.25379887 -1.10870129 0.21431488
v 0.25379887 -1.10870129 0.21431488
v 0.25379887 -1.10870129 0.21431488
v 0.25379887 -1.10870129 0.21431488
v 0.25379887 -1.10870129 0.21431488
v 0.25379887 -1.10870129 0.21431488
v 0.24124639 -1.12025338 0.23030603
v 0.24124639 -1.12025338 0.23030603
v 0.24124639 -1.12025338 0.23030603
v 0.28907454 -1.11730880 0.24323964
v 0.28907454 -1.11730880 0.24323964
v 0.28907454 -1.11730880 0.24323964
v 0.28907454 -1.11730880 0.24323964
v 0.28907454 -1.11730880 0.24323964
v 0.28907454 -1.11730880 0.24323964
v 0.28907454 -1.11730880 0.24323964
v 0.20011289 -1.07008070 0.16321126
v 0.20011289 -1.07008070 0.16321126
v 0.20011289 -1.04471117 0.14831212
v 0.20011289 -1.04471117 0.14831212
v 0.20011289 -1.04471117 0.14831212
v 0.20011289 -1.04471117 0.14831212
v 0.20011289 -1.04471117 0.14831212
v 0.24266255 -1.04788238 0.15503374
v 0.24266255 -1.04788238 0.15503374
v 0.24266255 -1.04788238 0.15503374
v 0.24266255 -1.04788238 0.15503374
v 0.24266255 -1.04788238 0.15503374
v 0.37790745 -0.96192050 0.12870541
v 0.37790745 -0.96192050 0.12870541
v 0.37790745 -0.96192050 0.12870541
v 0.37790745 -0.96192050 0.12870541
v 0.37790745 -0.96192050 0.12870541
v 0.20011289 -0.81276125 0.02040747
v 0.20011289 -0.81276125 0.02040747
v 0.20011289 -0.81276125 0.02040747
v 0.20011289 -0.81276125 0.02040747
v 0.33342662 -1.00031453 0.14078975
v 0.33342662 -1.00031453 0.14078975
v 0.33342662 -1.00031453 0.14078975
v 0.33342662 -1.00031453 0.14078975
v 0.33342662 -1.00031453 0.14078975
v 0.33342662 -1.00031453 0.14078975
v 0.33342662 -1.00031453 0.14078975
v 0.28579161 -0.99612403 0.13183567
v 0.28579161 -0.99612403 0.13183567
v 0.28579161 -0.99612403 0.13183567
v 0.28579161 -0.99612403 0.13183567
v 0.28579161 -0.99612403 0.13183567
v 0.24459371 -1.00325912 0.13062239
v 0.24459371 -1.00325912 0.13062239
v 0.24459371 -1.00325912 0.13062239
v 0.24459371 -1.00325912 0.13062239
v 0.24459371 -1.00325912 0.13062239
v 0.24459371 -1.00325912 0.13062239
v 0.32183972 -1.11209899 0.24789867
v 0.32183972 -1.11209899 0.24789867
v 0.32183972 -1.11209899 0.24789867
v 0.31791306 -1.11311823 0.24789867
v 0.31791306 -1.11311823 0.24789867
v 0.31791306 -1.11311823 0.24789867
v 0.31791306 -1.11311823 0.24789867
v 0.31076780 -1.11481708 0.24789867
v 0.31076780 -1.11481708 0.24789867
v 0.31076780 -1.11481708 0.24789867
v 0.31076780 -1.11481708 0.24789867
v 0.28907454 -1.11946064 0.24789867
v 0.28907454 -1.11946064 0.24789867
v 0.28907454 -1.11946064 0.24789867
vn 0.00000000 0.00000000 1.00000000
vn 0.00000000 0.00000000 1.00000000
vn 0.00000000 0.00000000 1.00000000
vn 0.54862155 -0.74219537 -0.38491613
vn 1.00000000 0.00000000 0.00000000
vn 1.00000000 0.00000000 0.00000000
vn 0.00000000 0.00000000 1.00000000
vn 0.50758084 -0.72621164 -0.46365758
vn 0.54778725 -0.74133114 -0.38775929
vn 0.54862155 -0.74219537 -0.38491613
vn 0.00000000 0.00000000 1.00000000
vn 0.54778725 -0.74133114 -0.38775929
vn 0.54862155 -0.74219537 -0.38491613
vn 1.00000000 0.00000000 0.00000000
vn 0.00000000 0.00000000 1.00000000
vn 1.00000000 0.00000000 0.00000000
vn -0.03785658 0.10717348 0.99351936
vn 0.00000000 0.00000000 1.00000000
vn 0.49082589 -0.73547563 -0.46708195
vn 0.50284384 -0.72568407 -0.46960697
vn 0.50719460 -0.72602000 -0.46437980
vn 0.50758084 -0.72621164 -0.46365758
vn 0.00000000 0.00000000 1.00000000
vn 0.50719460 -0.72602000 -0.46437980
vn 0.50738083 -0.72236624 -0.46984222
vn 0.50758084 -0.72621164 -0.46365758
vn 0.54778725 -0.74133114 -0.38775929
vn 1.00000000 0.00000000 0.00000000
vn -0.00000000 0.00000000 1.00000000
vn -0.03785658 0.10717348 0.99351936
vn -0.04354731 0.11075547 0.99289318
vn -0.04853928 0.11254503 0.99246035
vn -0.05946584 0.11411188 0.99168659
vn -1.00000000 0.00000000 0.00000000
vn -0.00000000 1.00000000 -0.00000000
vn 1.00000000 0.00000000 0.00000000
vn -0.03785658 0.10717348 0.99351936
vn -0.04354731 0.11075547 0.99289318
vn 0.00000000 0.00000000 1.00000000
vn 0.00000000 0.00000000 1.00000000
vn 0.46828757 -0.77533528 -0.42374751
vn 0.48467946 -0.73971340 -0.46680821
vn 0.49082589 -0.73547563 -0.46708195
vn 0.47379628 -0.73973783 -0.47781276
vn 0.48297864 -0.70215516 -0.52317279
vn 0.48467946 -0.73971340 -0.46680821
vn 0.49051483 -0.70785122 -0.50827341
vn 0.49082589 -0.73547563 -0.46708195
vn 0.50284384 -0.72568407 -0.46960697
vn 0.50300679 -0.72244572 -0.47440106
vn 0.50284384 -0.72568407 -0.46960697
vn 0.50300679 -0.72244572 -0.47440106
vn 0.50719460 -0.72602000 -0.46437980
vn 0.50738083 -0.72236624 -0.46984222
vn 0.49051483 -0.70785122 -0.50827341
vn 0.50300679 -0.72244572 -0.47440106
vn 0.50738083 -0.72236624 -0.46984222
vn 1.00000000 0.00000000 0.00000000
vn -0.00000000 0.00000000 1.00000000
vn 0.00159461 -0.87545463 -0.48329769
vn 0.00450554 -0.87678219 -0.48086660
vn -1.00000000 0.00000000 0.00000000
vn -0.00000000 1.00000000 -0.00000000
vn -0.04354731 0.11075547 0.99289318
vn -0.04853928 0.11254503 0.99246035
vn 0.00000000 1.00000000 -0.00000000
vn -0.04853928 0.11254503 0.99246035
vn -0.05946584 0.11411188 0.99168659
vn -0.00000000 1.00000000 -0.00000000
vn -0.05946584 0.11411188 0.99168659
vn -1.00000000 0.00000000 0.00000000
vn -0.00000000 1.00000000 -0.00000000
vn 0.08808013 0.07788369 -0.99306396
vn 1.00000000 0.00000000 0.00000000
vn -0.00980376 0.83200890 -0.55467564
vn -0.01736993 0.08144362 -0.99652658
vn 0.43830897 -0.76961936 -0.46429655
vn 0.46102313 -0.77881333 -0.42533218
vn 0.46828757 -0.77533528 -0.42374751
vn 0.47379628 -0.73973783 -0.47781276
vn 0.48467946 -0.73971340 -0.46680821
vn 0.00000000 0.00000000 1.00000000
vn 0.46102313 -0.77881333 -0.42533218
vn 0.46828757 -0.77533528 -0.42374751
vn 0.36452778 -0.74131383 -0.56353642
vn 0.37046911 -0.64725220 -0.66619609
vn 0.39221714 -0.76853028 -0.50549671
vn 0.39693791 -0.62169496 -0.67523009
vn 0.41585942 -0.62313697 -0.66239056
vn 0.43192731 -0.77089795 -0.46814010
vn 0.43830897 -0.76961936 -0.46429655
vn 0.47367398 -0.68401923 -0.55475278
vn 0.47379628 -0.73973783 -0.47781276
vn 0.48297864 -0.70215516 -0.52317279
vn 0.47367398 -0.68401923 -0.55475278
vn 0.47902457 -0.61231140 -0.62897553
vn 0.48297864 -0.70215516 -0.52317279
vn 0.49051483 -0.70785122 -0.50827341
vn 1.00000000 0.00000000 0.00000000
vn 0.00053432 -0.87457452 -0.48489083
vn 0.00159461 -0.87545463 -0.48329769
vn -1.00000000 0.00000000 0.00000000
vn 0.00053432 -0.87457452 -0.48489083
vn 0.00062098 -0.82608731 -0.56354181
vn 0.00159461 -0.87545463 -0.48329769
vn 0.00450554 -0.87678219 -0.48086660
vn 0.02183721 -0.82589048 -0.56340754
vn 0.02232002 -0.87657266 -0.48075169
vn 0.02379827 -0.87513521 -0.48329287
vn 0.02521150 -0.82797927 -0.56019168
vn -0.00000000 0.00000000 1.00000000
vn 0.00450554 -0.87678219 -0.48086660
vn 0.02232002 -0.87657266 -0.48075169
vn -0.00000000 1.00000000 -0.00000000
vn -0.00980376 0.83200890 -0.55467564
vn -1.00000000 0.00000000 0.00000000
vn -0.00980376 0.83200890 -0.55467564
vn -0.01736993 0.08144362 -0.99652658
vn -0.03106756 0.06065962 -0.99767491
vn -1.00000000 0.00000000 0.00000000
vn 0.08808013 0.07788369 -0.99306396
vn 0.08834272 0.01143316 -0.99602452
vn 0.36393496 -0.07262612 -0.92858860
vn 1.00000000 0.00000000 0.00000000
vn 0.01033315 0.01147742 -0.99988074
vn 0.08808013 0.07788369 -0.99306396
vn 0.08834272 0.01143316 -0.99602452
vn -0.00935911 0.02132711 -0.99972874
vn -0.01736993 0.08144362 -0.99652658
vn -0.03106756 0.06065962 -0.99767491
vn 0.00000000 0.00000000 1.00000000
vn 0.40217901 -0.79197486 -0.45937770
vn 0.43192731 -0.77089795 -0.46814010
vn 0.43830897 -0.76961936 -0.46429655
vn 0.46102313 -0.77881333 -0.42533218
vn 0.38436514 -0.79134415 -0.47543442
vn 0.39221714 -0.76853028 -0.50549671
vn 0.39804586 -0.79190176 -0.46308865
vn 0.40217901 -0.79197486 -0.45937770
vn 0.43192731 -0.77089795 -0.46814010
vn 0.34745966 -0.79132278 -0.50307062
vn 0.35164160 -0.80063586 -0.48510864
vn 0.35508857 -0.80316623 -0.47836818
vn 0.35878960 -0.73904003 -0.57016651
vn 0.36279770 -0.80685574 -0.46622060
vn 0.36452778 -0.74131383 -0.56353642
vn 0.38436514 -0.79134415 -0.47543442
vn 0.39221714 -0.76853028 -0.50549671
vn 0.31864881 -0.68895497 -0.65100229
vn 0.35291731 -0.65199746 -0.67108024
vn 0.35878960 -0.73904003 -0.57016651
vn 0.36452778 -0.74131383 -0.56353642
vn 0.37046911 -0.64725220 -0.66619609
vn 0.34997710 -0.59260483 -0.72548987
vn 0.35291731 -0.65199746 -0.67108024
vn 0.37046911 -0.64725220 -0.66619609
vn 0.39689086 -0.61269256 -0.68343652
vn 0.39693791 -0.62169496 -0.67523009
vn 0.39689086 -0.61269256 -0.68343652
vn 0.39693791 -0.62169496 -0.67523009
vn 0.39755853 -0.61219182 -0.68349718
vn 0.41577626 -0.61362522 -0.67126313
vn 0.41585942 -0.62313697 -0.66239056
vn 0.41577626 -0.61362522 -0.67126313
vn 0.41585942 -0.62313697 -0.66239056
vn 0.43420308 -0.59573401 -0.67569866
vn 0.43560872 -0.59582219 -0.67471546
vn 0.47367398 -0.68401923 -0.55475278
vn 0.47902457 -0.61231140 -0.62897553
vn 0.43553634 -0.58839916 -0.68124483
vn 0.43560872 -0.59582219 -0.67471546
vn 0.47902457 -0.61231140 -0.62897553
vn 1.00000000 0.00000000 0.00000000
vn 0.00053432 -0.87457452 -0.48489083
vn 0.00062098 -0.82608731 -0.56354181
vn -1.00000000 0.00000000 0.00000000
vn 0.02379827 -0.87513521 -0.48329287
vn 0.02521150 -0.82797927 -0.56019168
vn 0.04852176 -0.82726697 -0.55970975
vn 0.04896588 -0.87433308 -0.48284989
vn 0.06600871 -0.86381060 -0.49947382
vn 0.07182695 -0.84064348 -0.53680483
vn -0.00000000 0.00000000 1.00000000
vn 0.02232002 -0.87657266 -0.48075169
vn 0.02379827 -0.87513521 -0.48329287
vn 0.04896588 -0.87433308 -0.48284989
vn 0.00062098 -0.82608731 -0.56354181
vn 0.00076325 -0.72127337 -0.69265009
vn 0.00135831 -0.72067662 -0.69327005
vn 0.02183721 -0.82589048 -0.56340754
vn 0.02234974 -0.72049727 -0.69309752
vn 0.02183721 -0.82589048 -0.56340754
vn 0.02234974 -0.72049727 -0.69309752
vn 0.02456021 -0.71825111 -0.69535037
vn 0.02521150 -0.82797927 -0.56019168
vn 0.04852176 -0.82726697 -0.55970975
vn 0.04997370 -0.71757013 -0.69469111
vn -0.00035182 -0.26459756 -0.96435886
vn -0.00036480 -0.01071530 -0.99994252
vn -0.00284119 0.00535413 -0.99998163
vn -0.00809316 0.01847928 -0.99979649
vn -0.00935911 0.02132711 -0.99972874
vn -0.03106756 0.06065962 -0.99767491
vn -1.00000000 0.00000000 0.00000000
vn 0.35802560 -0.24007399 -0.90232042
vn 0.36393496 -0.07262612 -0.92858860
vn 0.41423777 -0.24681846 -0.87606376
vn 1.00000000 0.00000000 0.00000000
vn 0.01033315 0.01147742 -0.99988074
vn 0.08834272 0.01143316 -0.99602452
vn 0.20982175 -0.18876448 -0.95934499
vn 0.33005606 -0.24475567 -0.91167849
vn 0.35802560 -0.24007399 -0.90232042
vn 0.36393496 -0.07262612 -0.92858860
vn 0.01033315 0.01147742 -0.99988074
vn 0.19909336 -0.18919711 -0.96154370
vn 0.20982175 -0.18876448 -0.95934499
vn -0.00809316 0.01847928 -0.99979649
vn -0.00935911 0.02132711 -0.99972874
vn 0.00000000 0.00000000 1.00000000
vn 0.00000000 0.00000000 1.00000000
vn 0.39804586 -0.79190176 -0.46308865
vn 0.40217901 -0.79197486 -0.45937770
vn 0.00000000 0.00000000 1.00000000
vn 0.00000000 0.00000000 1.00000000
vn 0.36279770 -0.80685574 -0.46622060
vn 0.38436514 -0.79134415 -0.47543442
vn 0.39804586 -0.79190176 -0.46308865
vn 0.00000000 0.00000000 1.00000000
vn 0.34895770 -0.80469002 -0.48031499
vn 0.35097166 -0.80279879 -0.48200933
vn 0.35508857 -0.80316623 -0.47836818
vn 0.36279770 -0.80685574 -0.46622060
vn 0.35097166 -0.80279879 -0.48200933
vn 0.35164160 -0.80063586 -0.48510864
vn 0.35508857 -0.80316623 -0.47836818
vn 0.33472385 -0.81121225 -0.47947328
vn 0.34199655 -0.78489807 -0.51669467
vn 0.34370502 -0.80842424 -0.47782540
vn 0.34745966 -0.79132278 -0.50307062
vn 0.34895770 -0.80469002 -0.48031499
vn 0.35097166 -0.80279879 -0.48200933
vn 0.35164160 -0.80063586 -0.48510864
vn 0.31551283 -0.73169466 -0.60421402
vn 0.31790874 -0.68886301 -0.65146127
vn 0.31864881 -0.68895497 -0.65100229
vn 0.34199655 -0.78489807 -0.51669467
vn 0.34745966 -0.79132278 -0.50307062
vn 0.35878960 -0.73904003 -0.57016651
vn 0.24168486 -0.49570099 -0.83418760
vn 0.25113525 -0.48873453 -0.83550562
vn 0.25132287 -0.59420416 -0.76404072
vn 0.28483321 -0.67031584 -0.68523478
vn 0.28929976 -0.67558964 -0.67814769
vn 0.30181978 -0.52978331 -0.79261243
vn 0.31790874 -0.68886301 -0.65146127
vn 0.31864881 -0.68895497 -0.65100229
vn 0.34997710 -0.59260483 -0.72548987
vn 0.35291731 -0.65199746 -0.67108024
vn 0.28382790 -0.43634338 -0.85384201
vn 0.29348862 -0.42743679 -0.85508024
vn 0.30181978 -0.52978331 -0.79261243
vn 0.31683150 -0.43978737 -0.84035996
vn 0.34997710 -0.59260483 -0.72548987
vn 0.36209370 -0.49330557 -0.79090946
vn 0.38797578 -0.53648774 -0.74943692
vn 0.39689086 -0.61269256 -0.68343652
vn 0.39755853 -0.61219182 -0.68349718
vn 0.38797578 -0.53648774 -0.74943692
vn 0.39755853 -0.61219182 -0.68349718
vn 0.41577626 -0.61362522 -0.67126313
vn 0.42141055 -0.57256080 -0.70326899
vn 0.43415184 -0.58830576 -0.68220856
vn 0.43420308 -0.59573401 -0.67569866
vn 0.43415184 -0.58830576 -0.68220856
vn 0.43420308 -0.59573401 -0.67569866
vn 0.43553634 -0.58839916 -0.68124483
vn 0.43560872 -0.59582219 -0.67471546
vn 0.42141055 -0.57256080 -0.70326899
vn 0.43415184 -0.58830576 -0.68220856
vn 0.43553634 -0.58839916 -0.68124483
vn 1.00000000 0.00000000 0.00000000
vn 1.00000000 0.00000000 0.00000000
vn 0.00062098 -0.82608731 -0.56354181
vn 0.00076325 -0.72127337 -0.69265009
vn -1.00000000 0.00000000 0.00000000
vn 0.06600871 -0.86381060 -0.49947382
vn 0.06739670 -0.86468641 -0.49777012
vn 0.07182695 -0.84064348 -0.53680483
vn 0.09532757 -0.87256781 -0.47910132
vn 0.09674457 -0.83871281 -0.53591166
vn 0.10603166 -0.84294981 -0.52743995
vn 0.11296278 -0.86508294 -0.48874422
vn -0.00000000 0.00000000 1.00000000
vn 0.04896588 -0.87433308 -0.48284989
vn 0.06600871 -0.86381060 -0.49947382
vn 0.06739670 -0.86468641 -0.49777012
vn 0.04852176 -0.82726697 -0.55970975
vn 0.04997370 -0.71757013 -0.69469111
vn 0.05324618 -0.71418262 -0.69793124
vn 0.07182695 -0.84064348 -0.53680483
vn 0.09674457 -0.83871281 -0.53591166
vn 0.10059398 -0.71156940 -0.69537748
vn 0.00000000 -0.71935146 -0.69464630
vn 0.00076325 -0.72127337 -0.69265009
vn 0.00135831 -0.72067662 -0.69327005
vn -1.00000000 0.00000000 0.00000000
vn 0.00000000 -0.71935146 -0.69464630
vn 0.00000000 -0.57324571 -0.81938352
vn 0.00135831 -0.72067662 -0.69327005
vn 0.01915477 -0.57314053 -0.81923319
vn 0.02234974 -0.72049727 -0.69309752
vn 0.02410511 -0.57963397 -0.81452035
vn 0.02456021 -0.71825111 -0.69535037
vn 0.02410511 -0.57963397 -0.81452035
vn 0.02456021 -0.71825111 -0.69535037
vn 0.03906090 -0.57935996 -0.81413530
vn 0.04997370 -0.71757013 -0.69469111
vn 0.05256757 -0.59630819 -0.80103258
vn 0.05324618 -0.71418262 -0.69793124
vn 0.00163951 -0.02072540 -0.99978386
vn 0.00871665 -0.04900101 -0.99876069
vn 0.01534670 -0.02193181 -0.99964167
vn 0.01871649 -0.02754668 -0.99944528
vn 0.04362260 -0.15338585 -0.98720304
vn 0.07408290 -0.21339164 -0.97415385
vn 0.07508099 -0.14015846 -0.98727830
vn -0.00036480 -0.01071530 -0.99994252
vn -0.00284119 0.00535413 -0.99998163
vn 0.00000000 -0.26508752 -0.96422435
vn 0.00163951 -0.02072540 -0.99978386
vn 0.00158053 -0.26655913 -0.96381727
vn -0.00035182 -0.26459756 -0.96435886
vn -0.00036480 -0.01071530 -0.99994252
vn 0.00000000 -0.48934018 -0.87209299
vn 0.00000000 -0.26508752 -0.96422435
vn -0.00035182 -0.26459756 -0.96435886
vn -1.00000000 0.00000000 0.00000000
vn 0.01534670 -0.02193181 -0.99964167
vn 0.18898559 -0.19565514 -0.96229076
vn 0.19885230 -0.19526654 -0.96037948
vn 0.19909336 -0.18919711 -0.96154370
vn -0.00284119 0.00535413 -0.99998163
vn -0.00809316 0.01847928 -0.99979649
vn 0.41423777 -0.24681846 -0.87606376
vn 0.43734991 -0.32212055 -0.83962099
vn 1.00000000 0.00000000 0.00000000
vn 0.33005606 -0.24475567 -0.91167849
vn 0.35802560 -0.24007399 -0.90232042
vn 0.39712361 -0.33027282 -0.85627840
vn 0.41423777 -0.24681846 -0.87606376
vn 0.43734991 -0.32212055 -0.83962099
vn 0.19885230 -0.19526654 -0.96037948
vn 0.19909336 -0.18919711 -0.96154370
vn 0.20982175 -0.18876448 -0.95934499
vn 0.33005606 -0.24475567 -0.91167849
vn 0.35127718 -0.34810862 -0.86915173
vn 0.39712361 -0.33027282 -0.85627840
vn 0.00000000 0.00000000 1.00000000
vn 0.32899969 -0.84925854 -0.41293962
vn 0.34370502 -0.80842424 -0.47782540
vn 0.34895770 -0.80469002 -0.48031499
vn 0.30499941 -0.84249113 -0.44405411
vn 0.30892316 -0.82982043 -0.46471985
vn 0.31450274 -0.85302440 -0.41645815
vn 0.32899969 -0.84925854 -0.41293962
vn 0.33472385 -0.81121225 -0.47947328
vn 0.34370502 -0.80842424 -0.47782540
vn 0.25875396 -0.82208504 -0.50717115
vn 0.27094655 -0.68887234 -0.67234133
vn 0.28806335 -0.69463036 -0.65917234
vn 0.30892316 -0.82982043 -0.46471985
vn 0.31551283 -0.73169466 -0.60421402
vn 0.33472385 -0.81121225 -0.47947328
vn 0.34199655 -0.78489807 -0.51669467
vn 0.28802289 -0.67586134 -0.67842042
vn 0.28806335 -0.69463036 -0.65917234
vn 0.28929976 -0.67558964 -0.67814769
vn 0.31551283 -0.73169466 -0.60421402
vn 0.31790874 -0.68886301 -0.65146127
vn 0.20417955 -0.47284650 -0.85716212
vn 0.20894790 -0.47923467 -0.85245229
vn 0.20922800 -0.44203955 -0.87225265
vn 0.23579210 -0.43950344 -0.86674033
vn 0.23864733 -0.44190922 -0.86473331
vn 0.24168486 -0.49570099 -0.83418760
vn 0.25113525 -0.48873453 -0.83550562
vn 0.23864733 -0.44190922 -0.86473331
vn 0.25113525 -0.48873453 -0.83550562
vn 0.28382790 -0.43634338 -0.85384201
vn 0.30181978 -0.52978331 -0.79261243
vn 0.28484883 -0.67309305 -0.68250047
vn 0.28483321 -0.67031584 -0.68523478
vn 0.28802289 -0.67586134 -0.67842042
vn 0.28929976 -0.67558964 -0.67814769
vn 0.24754659 -0.58790619 -0.77012142
vn 0.25132287 -0.59420416 -0.76404072
vn 0.25244302 -0.67387698 -0.69437910
vn 0.25310273 -0.67436399 -0.69366578
vn 0.26083025 -0.67787648 -0.68735076
vn 0.28484883 -0.67309305 -0.68250047
vn 0.28483321 -0.67031584 -0.68523478
vn 0.20894790 -0.47923467 -0.85245229
vn 0.21354403 -0.51349150 -0.83109893
vn 0.24168486 -0.49570099 -0.83418760
vn 0.24754659 -0.58790619 -0.77012142
vn 0.25132287 -0.59420416 -0.76404072
vn 0.23579210 -0.43950344 -0.86674033
vn 0.23864733 -0.44190922 -0.86473331
vn 0.24129283 -0.41108142 -0.87908466
vn 0.26111648 -0.39909856 -0.87894171
vn 0.27376832 -0.39329844 -0.87770567
vn 0.28382790 -0.43634338 -0.85384201
vn 0.29348862 -0.42743679 -0.85508024
vn 0.29519011 -0.41249938 -0.86180454
vn 0.29348862 -0.42743679 -0.85508024
vn 0.29519011 -0.41249938 -0.86180454
vn 0.30276992 -0.41201447 -0.85940354
vn 0.30823568 -0.41784022 -0.85463461
vn 0.31683150 -0.43978737 -0.84035996
vn 0.30823568 -0.41784022 -0.85463461
vn 0.31683150 -0.43978737 -0.84035996
vn 0.32124518 -0.42305987 -0.84724370
vn 0.35151335 -0.44563913 -0.82331290
vn 0.36209370 -0.49330557 -0.79090946
vn 0.35151335 -0.44563913 -0.82331290
vn 0.36209370 -0.49330557 -0.79090946
vn 0.38797578 -0.53648774 -0.74943692
vn 0.42141055 -0.57256080 -0.70326899
vn 1.00000000 0.00000000 0.00000000
vn 1.00000000 0.00000000 0.00000000
vn 0.09674457 -0.83871281 -0.53591166
vn 0.10059398 -0.71156940 -0.69537748
vn 0.10458335 -0.70728374 -0.69915094
vn 0.10603166 -0.84294981 -0.52743995
vn 0.14066616 -0.83929977 -0.52515609
vn 0.14171070 -0.70400659 -0.69591148
vn 0.14705255 -0.70965174 -0.68903552
vn 0.14761486 -0.71129945 -0.68721390
vn 0.10603166 -0.84294981 -0.52743995
vn 0.11296278 -0.86508294 -0.48874422
vn 0.12531177 -0.87410376 -0.46929690
vn 0.14066616 -0.83929977 -0.52515609
vn 0.15478078 -0.84723148 -0.50817489
vn 0.15543234 -0.84785741 -0.50693056
vn 0.15945062 -0.86977648 -0.46697363
vn -0.00000000 0.00000000 1.00000000
vn 0.09532757 -0.87256781 -0.47910132
vn 0.11296278 -0.86508294 -0.48874422
vn 0.12531177 -0.87410376 -0.46929690
vn -0.00000000 0.00000000 1.00000000
vn 0.06739670 -0.86468641 -0.49777012
vn 0.09532757 -0.87256781 -0.47910132
vn 0.05256757 -0.59630819 -0.80103258
vn 0.05324618 -0.71418262 -0.69793124
vn 0.07711749 -0.59535555 -0.79975287
vn 0.10059398 -0.71156940 -0.69537748
vn 0.10426840 -0.62684012 -0.77213960
vn 0.10450565 -0.62750748 -0.77156525
vn 0.10458335 -0.70728374 -0.69915094
vn 0.00000000 -0.71935146 -0.69464630
vn 0.00000000 -0.57324571 -0.81938352
vn -1.00000000 0.00000000 0.00000000
vn 0.00000000 -0.57324571 -0.81938352
vn 0.00000000 -0.48934018 -0.87209299
vn 0.01823477 -0.48925882 -0.87194799
vn 0.01915477 -0.57314053 -0.81923319
vn 0.01823477 -0.48925882 -0.87194799
vn 0.01915477 -0.57314053 -0.81923319
vn 0.02410511 -0.57963397 -0.81452035
vn 0.02855894 -0.48778179 -0.87249831
vn 0.03519474 -0.48767852 -0.87231359
vn 0.03680281 -0.48926244 -0.87135976
vn 0.03906090 -0.57935996 -0.81413530
vn 0.03680281 -0.48926244 -0.87135976
vn 0.03906090 -0.57935996 -0.81413530
vn 0.05256757 -0.59630819 -0.80103258
vn 0.06502954 -0.48855781 -0.87010484
vn 0.07251763 -0.49638154 -0.86507026
vn 0.07711749 -0.59535555 -0.79975287
vn 0.01871649 -0.02754668 -0.99944528
vn 0.02605979 -0.03856874 -0.99891608
vn 0.07508099 -0.14015846 -0.98727830
vn 0.07821487 -0.14324500 -0.98659176
vn 0.07408290 -0.21339164 -0.97415385
vn 0.07508099 -0.14015846 -0.98727830
vn 0.07821487 -0.14324500 -0.98659176
vn 0.08943080 -0.15998678 -0.98305969
vn 0.09827778 -0.28604202 -0.95316391
vn 0.17135438 -0.42578492 -0.88845083
vn 0.17582283 -0.42919886 -0.88593153
vn 0.20488836 -0.42674141 -0.88085897
vn 0.20956885 -0.40185501 -0.89139971
vn 0.04119119 -0.35964639 -0.93217904
vn 0.04362260 -0.15338585 -0.98720304
vn 0.05941559 -0.40894210 -0.91062404
vn 0.07408290 -0.21339164 -0.97415385
vn 0.09213820 -0.43926899 -0.89361810
vn 0.09827778 -0.28604202 -0.95316391
vn 0.00838012 -0.27918585 -0.96020052
vn 0.00871665 -0.04900101 -0.99876069
vn 0.03075463 -0.34094895 -0.93957861
vn 0.04119119 -0.35964639 -0.93217904
vn 0.04362260 -0.15338585 -0.98720304
vn 0.00163951 -0.02072540 -0.99978386
vn 0.00158053 -0.26655913 -0.96381727
vn 0.00838012 -0.27918585 -0.96020052
vn 0.00871665 -0.04900101 -0.99876069
vn 0.01534670 -0.02193181 -0.99964167
vn 0.01871649 -0.02754668 -0.99944528
vn 0.02605979 -0.03856874 -0.99891608
vn 0.18878829 -0.20071870 -0.96128611
vn 0.18898559 -0.19565514 -0.96229076
vn 0.00000000 -0.48934018 -0.87209299
vn 0.00000000 -0.26508752 -0.96422435
vn 0.00158053 -0.26655913 -0.96381727
vn 0.00838012 -0.27918585 -0.96020052
vn 0.01823477 -0.48925882 -0.87194799
vn 0.02855894 -0.48778179 -0.87249831
vn 0.03075463 -0.34094895 -0.93957861
vn 0.00000000 -0.57324571 -0.81938352
vn 0.00000000 -0.48934018 -0.87209299
vn -1.00000000 0.00000000 0.00000000
vn 0.18878829 -0.20071870 -0.96128611
vn 0.18898559 -0.19565514 -0.96229076
vn 0.19885230 -0.19526654 -0.96037948
vn 0.23646722 -0.30301474 -0.92318217
vn 0.25145069 -0.32617455 -0.91125338
vn 0.30931047 -0.37116630 -0.87553562
vn 0.31093901 -0.37038943 -0.87528772
vn 0.35068289 -0.34848678 -0.86924017
vn 0.35127718 -0.34810862 -0.86915173
vn 0.35068289 -0.34848678 -0.86924017
vn 0.35127718 -0.34810862 -0.86915173
vn 0.39712361 -0.33027282 -0.85627840
vn 0.43734991 -0.32212055 -0.83962099
vn 1.00000000 0.00000000 0.00000000
vn 0.00000000 0.00000000 1.00000000
vn 0.31450274 -0.85302440 -0.41645815
vn 0.32899969 -0.84925854 -0.41293962
vn 0.00000000 0.00000000 1.00000000
vn 0.27859305 -0.84847460 -0.44997419
vn 0.30499941 -0.84249113 -0.44405411
vn 0.31450274 -0.85302440 -0.41645815
vn 0.25048423 -0.82609719 -0.50479806
vn 0.25875396 -0.82208504 -0.50717115
vn 0.25899770 -0.83960830 -0.47747052
vn 0.27859305 -0.84847460 -0.44997419
vn 0.30499941 -0.84249113 -0.44405411
vn 0.30892316 -0.82982043 -0.46471985
vn 0.21046123 -0.80472421 -0.55509010
vn 0.21686492 -0.69286715 -0.68768068
vn 0.22071601 -0.81766545 -0.53170260
vn 0.23780808 -0.67162180 -0.70169186
vn 0.25048423 -0.82609719 -0.50479806
vn 0.25310273 -0.67436399 -0.69366578
vn 0.25875396 -0.82208504 -0.50717115
vn 0.26083025 -0.67787648 -0.68735076
vn 0.27094655 -0.68887234 -0.67234133
vn 0.26083025 -0.67787648 -0.68735076
vn 0.27094655 -0.68887234 -0.67234133
vn 0.28484883 -0.67309305 -0.68250047
vn 0.28802289 -0.67586134 -0.67842042
vn 0.28806335 -0.69463036 -0.65917234
vn 0.20035698 -0.47322784 -0.85785342
vn 0.20355265 -0.49647490 -0.84384773
vn 0.20417955 -0.47284650 -0.85716212
vn 0.20894790 -0.47923467 -0.85245229
vn 0.21354403 -0.51349150 -0.83109893
vn 0.18995520 -0.46349123 -0.86550153
vn 0.19421282 -0.44233215 -0.87557047
vn 0.19823309 -0.43973112 -0.87597955
vn 0.20035698 -0.47322784 -0.85785342
vn 0.20417955 -0.47284650 -0.85716212
vn 0.20522401 -0.43908515 -0.87469271
vn 0.20922800 -0.44203955 -0.87225265
vn 0.20432106 -0.43503074 -0.87692711
vn 0.20522401 -0.43908515 -0.87469271
vn 0.20810664 -0.43107913 -0.87798771
vn 0.20922800 -0.44203955 -0.87225265
vn 0.22942244 -0.41624791 -0.87983125
vn 0.23579210 -0.43950344 -0.86674033
vn 0.24129283 -0.41108142 -0.87908466
vn 0.23781321 -0.67126947 -0.70202719
vn 0.23780808 -0.67162180 -0.70169186
vn 0.25244302 -0.67387698 -0.69437910
vn 0.25310273 -0.67436399 -0.69366578
vn 0.18714267 -0.48984451 -0.85148692
vn 0.18995475 -0.48761373 -0.85214438
vn 0.19923318 -0.61378589 -0.76391951
vn 0.20355265 -0.49647490 -0.84384773
vn 0.21354403 -0.51349150 -0.83109893
vn 0.23781321 -0.67126947 -0.70202719
vn 0.24754659 -0.58790619 -0.77012142
vn 0.25244302 -0.67387698 -0.69437910
vn 0.08943080 -0.15998678 -0.98305969
vn 0.20956885 -0.40185501 -0.89139971
vn 0.22942244 -0.41624791 -0.87983125
vn 0.23646722 -0.30301474 -0.92318217
vn 0.24129283 -0.41108142 -0.87908466
vn 0.25145069 -0.32617455 -0.91125338
vn 0.26111648 -0.39909856 -0.87894171
vn 0.26627668 -0.36486283 -0.89217254
vn 0.26111648 -0.39909856 -0.87894171
vn 0.26627668 -0.36486283 -0.89217254
vn 0.27376832 -0.39329844 -0.87770567
vn 0.28487489 -0.38500580 -0.87784784
vn 0.27376832 -0.39329844 -0.87770567
vn 0.28487489 -0.38500580 -0.87784784
vn 0.29519011 -0.41249938 -0.86180454
vn 0.30089134 -0.37755271 -0.87573875
vn 0.30276992 -0.41201447 -0.85940354
vn 0.30768476 -0.38280324 -0.87108654
vn 0.30276992 -0.41201447 -0.85940354
vn 0.30768476 -0.38280324 -0.87108654
vn 0.30776203 -0.38278870 -0.87106564
vn 0.30823568 -0.41784022 -0.85463461
vn 0.30833302 -0.38286876 -0.87082849
vn 0.32124518 -0.42305987 -0.84724370
vn 0.30833302 -0.38286876 -0.87082849
vn 0.32124518 -0.42305987 -0.84724370
vn 0.35151335 -0.44563913 -0.82331290
vn 1.00000000 0.00000000 0.00000000
vn 0.14066616 -0.83929977 -0.52515609
vn 0.14761486 -0.71129945 -0.68721390
vn 0.15478078 -0.84723148 -0.50817489
vn 0.16279415 -0.73912259 -0.65360222
vn 0.10450565 -0.62750748 -0.77156525
vn 0.10458335 -0.70728374 -0.69915094
vn 0.11948183 -0.65293413 -0.74793122
vn 0.14171070 -0.70400659 -0.69591148
vn 0.11307453 -0.51296559 -0.85092917
vn 0.11948183 -0.65293413 -0.74793122
vn 0.13576817 -0.53437598 -0.83427173
vn 0.14126031 -0.54557577 -0.82607058
vn 0.14171070 -0.70400659 -0.69591148
vn 0.14705255 -0.70965174 -0.68903552
vn 0.14760804 -0.70916652 -0.68941621
vn 0.14705255 -0.70965174 -0.68903552
vn 0.14760804 -0.70916652 -0.68941621
vn 0.14761486 -0.71129945 -0.68721390
vn 0.16279415 -0.73912259 -0.65360222
vn 0.17029081 -0.74840321 -0.64100989
vn 0.17076664 -0.70648885 -0.68681312
vn -0.00000000 0.00000000 1.00000000
vn 0.12531177 -0.87410376 -0.46929690
vn 0.15945062 -0.86977648 -0.46697363
vn 0.17264945 -0.88061103 -0.44126679
vn 0.15478078 -0.84723148 -0.50817489
vn 0.15543234 -0.84785741 -0.50693056
vn 0.16279415 -0.73912259 -0.65360222
vn 0.17029081 -0.74840321 -0.64100989
vn 0.17396609 -0.85327099 -0.49159376
vn 0.18418041 -0.77842544 -0.60010950
vn 0.15543234 -0.84785741 -0.50693056
vn 0.15945062 -0.86977648 -0.46697363
vn 0.17264945 -0.88061103 -0.44126679
vn 0.17396609 -0.85327099 -0.49159376
vn 0.17958342 -0.87950190 -0.44071101
vn 0.18043587 -0.85908571 -0.47897249
vn 0.18124347 -0.86163354 -0.47406587
vn 0.07251763 -0.49638154 -0.86507026
vn 0.07711749 -0.59535555 -0.79975287
vn 0.09094327 -0.49562950 -0.86375964
vn 0.09800706 -0.50393438 -0.85816360
vn 0.09804266 -0.50403811 -0.85809861
vn 0.09803830 -0.50396447 -0.85814236
vn 0.10426840 -0.62684012 -0.77213960
vn 0.09804220 -0.50403740 -0.85809908
vn 0.09803830 -0.50396447 -0.85814236
vn 0.10426840 -0.62684012 -0.77213960
vn 0.10450565 -0.62750748 -0.77156525
vn 0.11290190 -0.51265911 -0.85113677
vn 0.11307453 -0.51296559 -0.85092917
vn 0.11948183 -0.65293413 -0.74793122
vn 0.03519474 -0.48767852 -0.87231359
vn 0.03680281 -0.48926244 -0.87135976
vn 0.06184515 -0.48299191 -0.87343803
vn 0.06502954 -0.48855781 -0.87010484
vn 0.06524321 -0.48340190 -0.87296387
vn 0.02855894 -0.48778179 -0.87249831
vn 0.03075463 -0.34094895 -0.93957861
vn 0.03519474 -0.48767852 -0.87231359
vn 0.04119119 -0.35964639 -0.93217904
vn 0.05941559 -0.40894210 -0.91062404
vn 0.06184515 -0.48299191 -0.87343803
vn 0.06502954 -0.48855781 -0.87010484
vn 0.06524321 -0.48340190 -0.87296387
vn 0.07251763 -0.49638154 -0.86507026
vn 0.09094327 -0.49562950 -0.86375964
vn 0.09172035 -0.48239206 -0.87114022
vn 0.02605979 -0.03856874 -0.99891608
vn 0.07821487 -0.14324500 -0.98659176
vn 0.08943080 -0.15998678 -0.98305969
vn 0.18878829 -0.20071870 -0.96128611
vn 0.23646722 -0.30301474 -0.92318217
vn 0.20488836 -0.42674141 -0.88085897
vn 0.20810664 -0.43107913 -0.87798771
vn 0.20956885 -0.40185501 -0.89139971
vn 0.22942244 -0.41624791 -0.87983125
vn 0.17582283 -0.42919886 -0.88593153
vn 0.18029598 -0.44873108 -0.87529068
vn 0.19421282 -0.44233215 -0.87557047
vn 0.19823309 -0.43973112 -0.87597955
vn 0.20432106 -0.43503074 -0.87692711
vn 0.20488836 -0.42674141 -0.88085897
vn 0.20810664 -0.43107913 -0.87798771
vn 0.16638424 -0.45540708 -0.87459744
vn 0.17135438 -0.42578492 -0.88845083
vn 0.17582283 -0.42919886 -0.88593153
vn 0.17919307 -0.44946963 -0.87513822
vn 0.18029598 -0.44873108 -0.87529068
vn 0.09213820 -0.43926899 -0.89361810
vn 0.09827778 -0.28604202 -0.95316391
vn 0.09999192 -0.45466131 -0.88503373
vn 0.11910878 -0.47438720 -0.87222124
vn 0.12226186 -0.47374270 -0.87213525
vn 0.15949754 -0.45974764 -0.87360898
vn 0.16638424 -0.45540708 -0.87459744
vn 0.17135438 -0.42578492 -0.88845083
vn 0.05941559 -0.40894210 -0.91062404
vn 0.06184515 -0.48299191 -0.87343803
vn 0.06524321 -0.48340190 -0.87296387
vn 0.09172035 -0.48239206 -0.87114022
vn 0.09213820 -0.43926899 -0.89361810
vn 0.09999192 -0.45466131 -0.88503373
vn 0.10133985 -0.48049707 -0.87112158
vn 0.10200542 -0.48022277 -0.87119515
vn 0.30776203 -0.38278870 -0.87106564
vn 0.30833302 -0.38286876 -0.87082849
vn 0.31093901 -0.37038943 -0.87528772
vn 0.35068289 -0.34848678 -0.86924017
vn 1.00000000 0.00000000 0.00000000
vn 0.30089134 -0.37755271 -0.87573875
vn 0.30768476 -0.38280324 -0.87108654
vn 0.30776203 -0.38278870 -0.87106564
vn 0.30931047 -0.37116630 -0.87553562
vn 0.31093901 -0.37038943 -0.87528772
vn 0.25145069 -0.32617455 -0.91125338
vn 0.26627668 -0.36486283 -0.89217254
vn 0.28487489 -0.38500580 -0.87784784
vn 0.30089134 -0.37755271 -0.87573875
vn 0.30931047 -0.37116630 -0.87553562
vn 0.00000000 0.00000000 1.00000000
vn 0.23825253 -0.85082788 -0.46832429
vn 0.25899770 -0.83960830 -0.47747052
vn 0.27859305 -0.84847460 -0.44997419
vn 0.21131690 -0.84558267 -0.49023985
vn 0.22011640 -0.84800808 -0.48211105
vn 0.22071601 -0.81766545 -0.53170260
vn 0.23825253 -0.85082788 -0.46832429
vn 0.25048423 -0.82609719 -0.50479806
vn 0.25899770 -0.83960830 -0.47747052
vn 0.18787107 -0.85492723 -0.48353272
vn 0.19786030 -0.79727132 -0.57027164
vn 0.20148944 -0.85257446 -0.48220203
vn 0.20256166 -0.85196076 -0.48283708
vn 0.21046123 -0.80472421 -0.55509010
vn 0.21131690 -0.84558267 -0.49023985
vn 0.22071601 -0.81766545 -0.53170260
vn 0.17029081 -0.74840321 -0.64100989
vn 0.17076664 -0.70648885 -0.68681312
vn 0.17770568 -0.69846151 -0.69323316
vn 0.18418041 -0.77842544 -0.60010950
vn 0.19786030 -0.79727132 -0.57027164
vn 0.21046123 -0.80472421 -0.55509010
vn 0.21686492 -0.69286715 -0.68768068
vn 0.17507744 -0.59335700 -0.78566873
vn 0.17770568 -0.69846151 -0.69323316
vn 0.19923318 -0.61378589 -0.76391951
vn 0.21686492 -0.69286715 -0.68768068
vn 0.23781321 -0.67126947 -0.70202719
vn 0.23780808 -0.67162180 -0.70169186
vn 0.18558406 -0.46409281 -0.86612725
vn 0.18995520 -0.46349123 -0.86550153
vn 0.18995475 -0.48761373 -0.85214438
vn 0.20035698 -0.47322784 -0.85785342
vn 0.20355265 -0.49647490 -0.84384773
vn 0.17919307 -0.44946963 -0.87513822
vn 0.18029598 -0.44873108 -0.87529068
vn 0.18147079 -0.46184298 -0.86819895
vn 0.18558406 -0.46409281 -0.86612725
vn 0.18995520 -0.46349123 -0.86550153
vn 0.19421282 -0.44233215 -0.87557047
vn 0.19823309 -0.43973112 -0.87597955
vn 0.20432106 -0.43503074 -0.87692711
vn 0.20522401 -0.43908515 -0.87469271
vn 0.15678370 -0.48475572 -0.86048287
vn 0.16114023 -0.48034791 -0.86214831
vn 0.16527619 -0.57393982 -0.80204543
vn 0.17507744 -0.59335700 -0.78566873
vn 0.18714267 -0.48984451 -0.85148692
vn 0.19923318 -0.61378589 -0.76391951
vn 0.16114023 -0.48034791 -0.86214831
vn 0.16439713 -0.46436708 -0.87025099
vn 0.18147079 -0.46184298 -0.86819895
vn 0.18558406 -0.46409281 -0.86612725
vn 0.18714267 -0.48984451 -0.85148692
vn 0.18995475 -0.48761373 -0.85214438
vn 0.10685387 -0.48074097 -0.87032774
vn 0.10861730 -0.47903742 -0.87104847
vn 0.11290190 -0.51265911 -0.85113677
vn 0.11307453 -0.51296559 -0.85092917
vn 0.12155618 -0.47754242 -0.87015937
vn 0.13153393 -0.48656132 -0.86368797
vn 0.13576817 -0.53437598 -0.83427173
vn 0.13153393 -0.48656132 -0.86368797
vn 0.13576817 -0.53437598 -0.83427173
vn 0.14126031 -0.54557577 -0.82607058
vn 0.15678370 -0.48475572 -0.86048287
vn 0.16527619 -0.57393982 -0.80204543
vn 0.14126031 -0.54557577 -0.82607058
vn 0.14760804 -0.70916652 -0.68941621
vn 0.16527619 -0.57393982 -0.80204543
vn 0.17076664 -0.70648885 -0.68681312
vn 0.17507744 -0.59335700 -0.78566873
vn 0.17770568 -0.69846151 -0.69323316
vn -0.00000000 0.00000000 1.00000000
vn 0.17264945 -0.88061103 -0.44126679
vn 0.17958342 -0.87950190 -0.44071101
vn 0.18403779 -0.89233939 -0.41214137
vn 0.17396609 -0.85327099 -0.49159376
vn 0.18043587 -0.85908571 -0.47897249
vn 0.18212489 -0.85935803 -0.47784339
vn 0.18418041 -0.77842544 -0.60010950
vn 0.18787107 -0.85492723 -0.48353272
vn 0.19786030 -0.79727132 -0.57027164
vn 0.18043587 -0.85908571 -0.47897249
vn 0.18124347 -0.86163354 -0.47406587
vn 0.18212489 -0.85935803 -0.47784339
vn 0.17958342 -0.87950190 -0.44071101
vn 0.18124347 -0.86163354 -0.47406587
vn 0.18212489 -0.85935803 -0.47784339
vn 0.18403779 -0.89233939 -0.41214137
vn 0.18787107 -0.85492723 -0.48353272
vn 0.19076082 -0.89117496 -0.41160357
vn 0.20148944 -0.85257446 -0.48220203
vn 0.09804260 -0.50403801 -0.85809868
vn 0.09803830 -0.50396447 -0.85814236
vn 0.09094327 -0.49562950 -0.86375964
vn 0.09172035 -0.48239206 -0.87114022
vn 0.09800706 -0.50393438 -0.85816360
vn 0.10133985 -0.48049707 -0.87112158
vn 0.10173987 -0.48082839 -0.87089210
vn 0.09800706 -0.50393438 -0.85816360
vn 0.09804235 -0.50403763 -0.85809893
vn 0.10173987 -0.48082839 -0.87089210
vn 0.10685387 -0.48074097 -0.87032774
vn 0.11290190 -0.51265911 -0.85113677
vn 0.15949754 -0.45974764 -0.87360898
vn 0.16439713 -0.46436708 -0.87025099
vn 0.16638424 -0.45540708 -0.87459744
vn 0.17919307 -0.44946963 -0.87513822
vn 0.18147079 -0.46184298 -0.86819895
vn 0.09999192 -0.45466131 -0.88503373
vn 0.10200542 -0.48022277 -0.87119515
vn 0.10856653 -0.47871281 -0.87123324
vn 0.11910878 -0.47438720 -0.87222124
vn 0.12155618 -0.47754242 -0.87015937
vn 0.12226186 -0.47374270 -0.87213525
vn 0.13153393 -0.48656132 -0.86368797
vn 0.15678370 -0.48475572 -0.86048287
vn 0.15949754 -0.45974764 -0.87360898
vn 0.16114023 -0.48034791 -0.86214831
vn 0.16439713 -0.46436708 -0.87025099
vn 0.10856653 -0.47871281 -0.87123324
vn 0.10861730 -0.47903742 -0.87104847
vn 0.11910878 -0.47438720 -0.87222124
vn 0.12155618 -0.47754242 -0.87015937
vn 0.12226186 -0.47374270 -0.87213525
vn 0.10133985 -0.48049707 -0.87112158
vn 0.10173987 -0.48082839 -0.87089210
vn 0.10200542 -0.48022277 -0.87119515
vn 0.10685387 -0.48074097 -0.87032774
vn 0.10856653 -0.47871281 -0.87123324
vn 0.10861730 -0.47903742 -0.87104847
vn 0.00000000 0.00000000 1.00000000
vn 0.22011640 -0.84800808 -0.48211105
vn 0.23825253 -0.85082788 -0.46832429
vn 0.00000000 0.00000000 1.00000000
vn 0.20256166 -0.85196076 -0.48283708
vn 0.21131690 -0.84558267 -0.49023985
vn 0.22011640 -0.84800808 -0.48211105
vn 0.00000000 0.00000000 1.00000000
vn 0.19076082 -0.89117496 -0.41160357
vn 0.20148944 -0.85257446 -0.48220203
vn 0.20256166 -0.85196076 -0.48283708
vn 0.00000000 -0.00000000 1.00000000
vn 0.18403779 -0.89233939 -0.41214137
vn 0.19076082 -0.89117496 -0.41160357
f 4//4 10//10 13//13
f 5//5 14//14 28//28
f 5//5 28//28 58//58
f 5//5 58//58 99//99
f 5//5 99//99 173//173
f 5//5 173//173 282//282
f 6//6 283//283 431//431
f 5//5 430//430 623//623
f 5//5 623//623 733//733
f 5//5 733//733 537//537
f 5//5 537//537 347//347
f 5//5 347//347 208//208
f 5//5 208//208 124//124
f 5//5 124//124 74//74
f 5//5 74//74 36//36
f 5//5 36//36 16//16
f 1//1 15//15 29//29
f 1//1 29//29 59//59
f 1//1 59//59 111//111
f 1//1 111//111 183//183
f 1//1 183//183 294//294
f 1//1 294//294 451//451
f 1//1 451//451 447//447
f 1//1 447//447 645//645
f 1//1 645//645 818//818
f 1//1 818//818 888//888
f 1//1 888//888 884//884
f 1//1 884//884 880//880
f 1//1 880//880 877//877
f 1//1 877//877 744//744
f 1//1 744//744 541//541
f 1//1 541//541 538//538
f 1//1 538//538 359//359
f 1//1 359//359 229//229
f 1//1 229//229 224//224
f 3//3 225//225 221//221
f 1//1 220//220 131//131
f 1//1 131//131 82//82
f 1//1 82//82 39//39
f 2//2 40//40 18//18
f 7//7 23//23 11//11
f 8//8 22//22 26//26
f 9//9 27//27 12//12
f 17//17 37//37 30//30
f 19//19 43//43 48//48
f 20//20 49//49 51//51
f 21//21 53//53 24//24
f 25//25 54//54 57//57
f 31//31 38//38 64//64
f 32//32 65//65 67//67
f 33//33 68//68 70//70
f 34//34 71//71 116//116
f 34//34 116//116 120//120
f 34//34 120//120 204//204
f 34//34 204//204 338//338
f 34//34 338//338 523//523
f 34//34 523//523 463//463
f 34//34 463//463 307//307
f 34//34 307//307 286//286
f 34//34 286//286 176//176
f 34//34 176//176 102//102
f 34//34 102//102 62//62
f 35//35 72//72 114//114
f 35//35 114//114 69//69
f 35//35 69//69 66//66
f 35//35 66//66 63//63
f 42//42 81//81 46//46
f 41//41 84//84 79//79
f 44//44 80//80 93//93
f 45//45 94//94 97//97
f 47//47 98//98 55//55
f 50//50 56//56 52//52
f 60//60 101//101 105//105
f 61//61 106//106 112//112
f 75//75 117//117 115//115
f 73//73 121//121 126//126
f 76//76 129//129 118//118
f 78//78 83//83 135//135
f 77//77 134//134 91//91
f 90//90 133//133 140//140
f 87//87 137//137 148//148
f 85//85 146//146 152//152
f 86//86 153//153 156//156
f 88//88 158//158 160//160
f 89//89 163//163 165//165
f 92//92 168//168 95//95
f 96//96 169//169 172//172
f 100//100 174//174 103//103
f 109//109 177//177 185//185
f 108//108 184//184 113//113
f 104//104 175//175 284//284
f 104//104 284//284 187//187
f 107//107 190//190 192//192
f 110//110 195//195 178//178
f 119//119 130//130 203//203
f 123//123 206//206 214//214
f 122//122 210//210 127//127
f 125//125 209//209 215//215
f 128//128 219//219 202//202
f 132//132 223//223 139//139
f 138//138 222//222 228//228
f 136//136 227//227 147//147
f 145//145 226//226 233//233
f 143//143 232//232 236//236
f 142//142 235//235 243//243
f 141//141 240//240 248//248
f 144//144 249//249 151//151
f 150//150 259//259 155//155
f 149//149 246//246 257//257
f 154//154 258//258 264//264
f 157//157 267//267 159//159
f 161//161 268//268 270//270
f 162//162 271//271 164//164
f 166//166 274//274 276//276
f 167//167 278//278 171//171
f 170//170 277//277 281//281
f 181//181 287//287 296//296
f 180//180 295//295 186//186
f 179//179 196//196 298//298
f 182//182 301//301 289//289
f 188//188 285//285 305//305
f 189//189 306//306 310//310
f 191//191 312//312 193//193
f 194//194 314//314 316//316
f 197//197 318//318 299//299
f 199//199 328//328 334//334
f 198//198 333//333 337//337
f 201//201 218//218 344//344
f 200//200 343//343 329//329
f 207//207 345//345 351//351
f 205//205 349//349 213//213
f 212//212 348//348 356//356
f 211//211 355//355 217//217
f 216//216 354//354 342//342
f 230//230 362//362 241//241
f 231//231 242//242 234//234
f 239//239 361//361 368//368
f 237//237 367//367 374//374
f 238//238 375//375 247//247
f 244//244 373//373 379//379
f 245//245 380//380 256//256
f 251//251 387//387 389//389
f 255//255 391//391 262//262
f 254//254 378//378 395//395
f 253//253 393//393 402//402
f 252//252 397//397 407//407
f 250//250 405//405 386//386
f 260//260 390//390 413//413
f 261//261 414//414 416//416
f 263//263 420//420 422//422
f 265//265 425//425 427//427
f 266//266 428//428 269//269
f 272//272 429//429 279//279
f 273//273 280//280 275//275
f 291//291 302//302 432//432
f 292//292 435//435 440//440
f 293//293 441//441 449//449
f 290//290 448//448 453//453
f 288//288 452//452 297//297
f 300//300 320//320 455//455
f 303//303 457//457 433//433
f 304//304 461//461 308//308
f 309//309 462//462 521//521
f 309//309 521//521 464//464
f 311//311 467//467 469//469
f 313//313 470//470 315//315
f 317//317 474//474 476//476
f 319//319 477//477 454//454
f 327//327 483//483 486//486
f 326//326 485//485 497//497
f 325//325 495//495 504//504
f 322//322 501//501 508//508
f 321//321 505//505 331//331
f 323//323 339//339 509//509
f 324//324 510//510 481//481
f 332//332 506//506 516//516
f 330//330 515//515 336//336
f 335//335 514//514 465//465
f 335//335 465//465 522//522
f 341//341 353//353 526//526
f 340//340 525//525 513//513
f 346//346 536//536 352//352
f 350//350 535//535 358//358
f 357//357 534//534 532//532
f 360//360 540//540 366//366
f 365//365 539//539 544//544
f 363//363 543//543 549//549
f 364//364 550//550 372//372
f 369//369 546//546 557//557
f 370//370 559//559 561//561
f 371//371 564//564 377//377
f 376//376 563//563 394//394
f 382//382 403//403 568//568
f 381//381 567//567 574//574
f 383//383 576//576 580//580
f 384//384 582//582 408//408
f 385//385 409//409 388//388
f 392//392 562//562 401//401
f 400//400 560//560 558//558
f 399//399 556//556 587//587
f 398//398 586//586 595//595
f 396//396 594//594 406//406
f 404//404 592//592 569//569
f 410//410 583//583 600//600
f 411//411 602//602 604//604
f 412//412 606//606 608//608
f 415//415 610//610 417//417
f 418//418 612//612 614//614
f 419//419 617//617 421//421
f 423//423 619//619 621//621
f 424//424 622//622 426//426
f 436//436 624//624 443//443
f 434//434 460//460 629//629
f 437//437 631//631 636//636
f 438//438 637//637 639//639
f 439//439 641//641 625//625
f 442//442 646//646 450//450
f 444//444 626//626 649//649
f 445//445 650//650 655//655
f 446//446 656//656 647//647
f 456//456 480//480 663//663
f 458//458 668//668 671//671
f 459//459 672//672 628//628
f 466//466 518//518 468//468
f 473//473 677//677 475//475
f 471//471 519//519 681//681
f 472//472 683//683 676//676
f 478//478 679//679 687//687
f 479//479 689//689 662//662
f 484//484 693//693 487//487
f 482//482 511//511 692//692
f 488//488 694//694 596//596
f 493//493 597//597 699//699
f 492//492 697//697 706//706
f 491//491 701//701 710//710
f 490//490 709//709 720//720
f 489//489 714//714 499//499
f 498//498 713//713 725//725
f 496//496 721//721 685//685
f 494//494 684//684 503//503
f 502//502 682//682 520//520
f 500//500 517//517 507//507
f 512//512 524//524 695//695
f 531//531 533//533 732//732
f 530//530 731//731 738//738
f 529//529 737//737 743//743
f 528//528 739//739 601//601
f 527//527 599//599 696//696
f 542//542 747//747 548//548
f 547//547 746//746 753//753
f 545//545 752//752 555//555
f 553//553 750//750 760//760
f 551//551 758//758 766//766
f 552//552 767//767 771//771
f 554//554 773//773 585//585
f 566//566 591//591 778//778
f 565//565 777//777 573//573
f 570//570 775//775 783//783
f 571//571 784//784 703//703
f 572//572 704//704 785//785
f 575//575 787//787 578//578
f 577//577 786//786 705//705
f 579//579 707//707 698//698
f 581//581 700//700 598//598
f 584//584 772//772 593//593
f 590//590 770//770 793//793
f 588//588 792//792 798//798
f 589//589 799//799 776//776
f 603//603 740//740 605//605
f 607//607 741//741 609//609
f 611//611 742//742 734//734
f 613//613 735//735 615//615
f 616//616 736//736 729//729
f 618//618 730//730 620//620
f 627//627 642//642 651//651
f 630//630 675//675 633//633
f 634//634 806//806 808//808
f 635//635 809//809 812//812
f 638//638 813//813 640//640
f 632//632 674//674 803//803
f 643//643 761//761 652//652
f 644//644 815//815 762//762
f 648//648 657//657 819//819
f 654//654 764//764 825//825
f 653//653 822//822 658//658
f 661//661 829//829 832//832
f 659//659 831//831 820//820
f 660//660 823//823 828//828
f 667//667 839//839 670//670
f 664//664 690//690 840//840
f 665//665 842//842 845//845
f 666//666 846//846 838//838
f 669//669 838//838 846//846
f 673//673 849//849 802//802
f 678//678 686//686 722//722
f 680//680 723//723 688//688
f 691//691 724//724 841//841
f 702//702 780//780 712//712
f 711//711 779//779 853//853
f 708//708 852//852 719//719
f 715//715 855//855 726//726
f 718//718 850//850 863//863
f 717//717 860//860 870//870
f 716//716 868//868 858//858
f 728//728 856//856 873//873
f 727//727 871//871 843//843
f 745//745 879//879 751//751
f 749//749 878//878 883//883
f 748//748 882//882 759//759
f 755//755 827//827 765//765
f 757//757 881//881 887//887
f 756//756 886//886 837//837
f 754//754 835//835 826//826
f 763//763 817//817 769//769
f 768//768 816//816 791//791
f 774//774 797//797 782//782
f 781//781 796//796 854//854
f 790//790 814//814 811//811
f 788//788 810//810 862//862
f 789//789 864//864 794//794
f 795//795 865//865 851//851
f 800//800 848//848 874//874
f 801//801 876//876 867//867
f 804//804 869//869 859//859
f 805//805 861//861 807//807
f 821//821 834//834 889//889
f 824//824 833//833 830//830
f 836//836 885//885 890//890
f 844//844 872//872 847//847
f 857//857 866//866 875//875

