# https://github.com/mikedh/trimesh
v 0.67593712 0.78998184 0.25143406
v 0.67593712 0.78998184 0.25143406
v 0.67593712 0.78998184 0.25143406
v 0.67593712 0.78998184 0.25143406
v 0.67593712 0.78998184 0.25143406
v 0.85080230 0.78998184 0.25143406
v 0.85080230 0.78998184 0.25143406
v 0.85080230 0.78998184 0.25143406
v 0.85080230 0.78998184 0.25143406
v 0.93778694 0.43051177 0.25143406
v 0.93778694 0.43051177 0.25143406
v 0.93778694 0.43051177 0.25143406
v 1.16564345 0.43051177 0.98699656
v 1.16564345 0.43051177 0.98699656
v 1.16564345 0.43051177 0.98699656
v 1.16564345 0.43051177 0.98699656
v 0.96048892 0.78998184 0.98800072
v 0.96048892 0.78998184 0.98800072
v 0.96048892 0.78998184 0.98800072
v 0.96048892 0.78998184 0.98800072
v 0.85910648 0.78998184 0.26371530
v 0.85910648 0.78998184 0.26371530
v 0.85910648 0.78998184 0.26371530
v 0.85910648 0.78998184 0.26371530
v 0.88826072 0.75482661 0.25622299
v 0.88826072 0.75482661 0.25622299
v 0.88826072 0.75482661 0.25622299
v 0.88826072 0.75482661 0.25622299
v 0.88826072 0.75482661 0.25622299
v 0.88826072 0.75482661 0.25622299
v 0.88826072 0.75482661 0.25622299
v 0.88826072 0.75482661 0.25622299
v 0.88826072 0.75482661 0.25622299
v 0.88694632 0.75194103 0.25143406
v 0.88694632 0.75194103 0.25143406
v 0.88694632 0.75194103 0.25143406
v 1.07214701 0.43051177 0.25143406
v 1.07214701 0.43051177 0.25143406
v 1.07214701 0.43051177 0.25143406
v 1.18069839 0.43051177 1.01619351
v 1.18069839 0.43051177 1.01619351
v 1.18069839 0.43051177 1.01619351
v 1.18069839 0.43051177 1.01619351
v 1.18069839 0.43051177 1.01619351
v 0.96962947 0.78998184 1.00553432
v 0.96962947 0.78998184 1.00553432
v 0.96962947 0.78998184 1.00553432
v 0.86543918 0.78998184 0.27468349
v 0.86543918 0.78998184 0.27468349
v 0.86543918 0.78998184 0.27468349
v 0.86543918 0.78998184 0.27468349
v 0.87063676 0.78206396 0.27051248
v 0.87063676 0.78206396 0.27051248
v 0.87063676 0.78206396 0.27051248
v 0.87063676 0.78206396 0.27051248
v 0.89656490 0.76401132 0.28588335
v 0.89656490 0.76401132 0.28588335
v 0.89656490 0.76401132 0.28588335
v 0.89656490 0.76401132 0.28588335
v 0.89656490 0.76401132 0.28588335
v 0.89656490 0.76401132 0.28588335
v 0.89656490 0.76401132 0.28588335
v 0.92763072 0.74754214 0.32102785
v 0.92763072 0.74754214 0.32102785
v 0.92763072 0.74754214 0.32102785
v 0.92763072 0.74754214 0.32102785
v 0.92763072 0.74754214 0.32102785
v 0.92763072 0.74754214 0.32102785
v 0.91281468 0.73540145 0.27468349
v 0.91281468 0.73540145 0.27468349
v 0.91281468 0.73540145 0.27468349
v 0.91281468 0.73540145 0.27468349
v 0.92906451 0.70446914 0.26356083
v 0.92906451 0.70446914 0.26356083
v 0.92906451 0.70446914 0.26356083
v 0.92906451 0.70446914 0.26356083
v 0.92906451 0.70446914 0.26356083
v 0.92906451 0.70446914 0.26356083
v 0.89154649 0.74609935 0.25143406
v 0.89154649 0.74609935 0.25143406
v 0.89154649 0.74609935 0.25143406
v 0.89154649 0.74609935 0.25143406
v 1.06886113 0.44043544 0.25143406
v 1.06886113 0.44043544 0.25143406
v 1.06886113 0.44043544 0.25143406
v 1.06886113 0.44043544 0.25143406
v 1.08475256 0.43051177 0.27730967
v 1.08475256 0.43051177 0.27730967
v 1.08475256 0.43051177 0.27730967
v 1.08475256 0.43051177 0.27730967
v 1.08475256 0.43051177 0.27730967
v 1.18589592 0.43051177 1.02306795
v 1.18589592 0.43051177 1.02306795
v 1.18589592 0.43051177 1.02306795
v 1.18589592 0.43051177 1.02306795
v 0.97823232 0.78998184 1.01773834
v 0.97823232 0.78998184 1.01773834
v 0.97823232 0.78998184 1.01773834
v 0.97823232 0.78998184 1.01773834
v 0.88437742 0.78998184 0.30913278
v 0.88437742 0.78998184 0.30913278
v 0.88437742 0.78998184 0.30913278
v 0.88437742 0.78998184 0.30913278
v 0.90253907 0.77865052 0.32481265
v 0.90253907 0.77865052 0.32481265
v 0.90253907 0.77865052 0.32481265
v 0.90253907 0.77865052 0.32481265
v 0.90253907 0.77865052 0.32481265
v 0.93312705 0.75517845 0.34489521
v 0.93312705 0.75517845 0.34489521
v 0.93312705 0.75517845 0.34489521
v 0.93312705 0.75517845 0.34489521
v 0.93312705 0.75517845 0.34489521
v 0.93312705 0.75517845 0.34489521
v 0.93312705 0.75517845 0.34489521
v 0.93312705 0.75517845 0.34489521
v 0.93312705 0.75517845 0.34489521
v 0.93312705 0.75517845 0.34489521
v 0.94304425 0.72530186 0.32102785
v 0.94304425 0.72530186 0.32102785
v 0.94304425 0.72530186 0.32102785
v 0.94304425 0.72530186 0.32102785
v 0.94304425 0.72530186 0.32102785
v 0.94304425 0.72530186 0.32102785
v 0.94304425 0.72530186 0.32102785
v 0.93671161 0.71597642 0.29314400
v 0.93671161 0.71597642 0.29314400
v 0.93671161 0.71597642 0.29314400
v 0.93671161 0.71597642 0.29314400
v 0.93671161 0.71597642 0.29314400
v 0.93671161 0.71597642 0.29314400
v 0.93671161 0.71597642 0.29314400
v 0.97865051 0.62321448 0.25382850
v 0.97865051 0.62321448 0.25382850
v 0.97865051 0.62321448 0.25382850
v 0.97865051 0.62321448 0.25382850
v 0.97865051 0.62321448 0.25382850
v 0.97865051 0.62321448 0.25382850
v 0.97865051 0.62321448 0.25382850
v 0.97865051 0.62321448 0.25382850
v 0.93599468 0.68363643 0.25143406
v 0.93599468 0.68363643 0.25143406
v 0.93599468 0.68363643 0.25143406
v 0.93599468 0.68363643 0.25143406
v 1.06563509 0.44796622 0.25143406
v 1.06563509 0.44796622 0.25143406
v 1.06563509 0.44796622 0.25143406
v 1.06772602 0.44606593 0.25344229
v 1.06772602 0.44606593 0.25344229
v 1.06772602 0.44606593 0.25344229
v 1.06772602 0.44606593 0.25344229
v 1.06772602 0.44606593 0.25344229
v 1.06772602 0.44606593 0.25344229
v 1.07232618 0.46337959 0.28016756
v 1.07232618 0.46337959 0.28016756
v 1.07232618 0.46337959 0.28016756
v 1.07232618 0.46337959 0.28016756
v 1.07232618 0.46337959 0.28016756
v 1.07232618 0.46337959 0.28016756
v 1.10279465 0.43051177 0.31956027
v 1.10279465 0.43051177 0.31956027
v 1.10279465 0.43051177 0.31956027
v 1.10279465 0.43051177 0.31956027
v 1.10279465 0.43051177 0.31956027
v 1.22281659 0.43051177 1.03921121
v 1.22281659 0.43051177 1.03921121
v 1.22281659 0.43051177 1.03921121
v 1.22281659 0.43051177 1.03921121
v 1.22281659 0.43051177 1.03921121
v 1.22281659 0.43051177 1.03921121
v 1.22281659 0.43051177 1.03921121
v 0.99973947 0.78998184 1.02832031
v 0.99973947 0.78998184 1.02832031
v 0.99973947 0.78998184 1.02832031
v 0.99973947 0.78998184 1.02832031
v 0.99973947 0.78998184 1.02832031
v 0.88748401 0.78998184 0.31546654
v 0.88748401 0.78998184 0.31546654
v 0.88748401 0.78998184 0.31546654
v 0.89620644 0.78998184 0.33346359
v 0.89620644 0.78998184 0.33346359
v 0.89620644 0.78998184 0.33346359
v 0.89620644 0.78998184 0.33346359
v 0.89620644 0.78998184 0.33346359
v 0.92034221 0.77784109 0.36204262
v 0.92034221 0.77784109 0.36204262
v 0.92034221 0.77784109 0.36204262
v 0.92034221 0.77784109 0.36204262
v 0.92034221 0.77784109 0.36204262
v 0.92034221 0.77784109 0.36204262
v 0.93910128 0.76263893 0.37447837
v 0.93910128 0.76263893 0.37447837
v 0.93910128 0.76263893 0.37447837
v 0.93910128 0.76263893 0.37447837
v 0.93910128 0.76263893 0.37447837
v 0.93910128 0.76263893 0.37447837
v 0.93910128 0.76263893 0.37447837
v 0.93910128 0.76263893 0.37447837
v 0.96807617 0.74117267 0.41000906
v 0.96807617 0.74117267 0.41000906
v 0.96807617 0.74117267 0.41000906
v 0.96807617 0.74117267 0.41000906
v 0.96807617 0.74117267 0.41000906
v 0.96807617 0.74117267 0.41000906
v 0.95600826 0.73381793 0.36559570
v 0.95600826 0.73381793 0.36559570
v 0.95600826 0.73381793 0.36559570
v 0.95600826 0.73381793 0.36559570
v 0.97291529 0.70358938 0.35671303
v 0.97291529 0.70358938 0.35671303
v 0.97291529 0.70358938 0.35671303
v 0.97291529 0.70358938 0.35671303
v 0.97291529 0.70358938 0.35671303
v 0.97291529 0.70358938 0.35671303
v 0.97291529 0.70358938 0.35671303
v 0.98271298 0.67395902 0.33300017
v 0.98271298 0.67395902 0.33300017
v 0.98271298 0.67395902 0.33300017
v 0.98271298 0.67395902 0.33300017
v 0.98271298 0.67395902 0.33300017
v 0.98271298 0.67395902 0.33300017
v 0.98271298 0.67395902 0.33300017
v 0.96664238 0.68902051 0.31932858
v 0.96664238 0.68902051 0.31932858
v 0.96664238 0.68902051 0.31932858
v 0.97626084 0.66424650 0.30341700
v 0.97626084 0.66424650 0.30341700
v 0.97626084 0.66424650 0.30341700
v 0.97626084 0.66424650 0.30341700
v 0.97626084 0.66424650 0.30341700
v 0.97626084 0.66424650 0.30341700
v 0.97626084 0.66424650 0.30341700
v 0.98438573 0.63201207 0.27661452
v 0.98438573 0.63201207 0.27661452
v 0.98438573 0.63201207 0.27661452
v 0.98438573 0.63201207 0.27661452
v 0.98438573 0.63201207 0.27661452
v 0.98438573 0.63201207 0.27661452
v 1.00643063 0.59787738 0.27893171
v 1.00643063 0.59787738 0.27893171
v 1.00643063 0.59787738 0.27893171
v 1.00643063 0.59787738 0.27893171
v 1.01700497 0.56757838 0.26564631
v 1.01700497 0.56757838 0.26564631
v 1.01700497 0.56757838 0.26564631
v 1.01700497 0.56757838 0.26564631
v 1.01700497 0.56757838 0.26564631
v 1.01700497 0.56757838 0.26564631
v 0.98020381 0.61800629 0.25143406
v 0.98020381 0.61800629 0.25143406
v 0.98020381 0.61800629 0.25143406
v 0.98020381 0.61800629 0.25143406
v 0.97548419 0.62553704 0.25143406
v 0.97548419 0.62553704 0.25143406
v 0.97548419 0.62553704 0.25143406
v 1.02489090 0.53829998 0.25143406
v 1.02489090 0.53829998 0.25143406
v 1.02489090 0.53829998 0.25143406
v 1.02489090 0.53829998 0.25143406
v 1.02489090 0.53829998 0.25143406
v 1.05231261 0.50796586 0.28016756
v 1.05231261 0.50796586 0.28016756
v 1.05231261 0.50796586 0.28016756
v 1.05231261 0.50796586 0.28016756
v 1.05231261 0.50796586 0.28016756
v 1.05231261 0.50796586 0.28016756
v 1.06778574 0.49075776 0.29746947
v 1.06778574 0.49075776 0.29746947
v 1.06778574 0.49075776 0.29746947
v 1.06778574 0.49075776 0.29746947
v 1.08803833 0.46710980 0.32102785
v 1.08803833 0.46710980 0.32102785
v 1.08803833 0.46710980 0.32102785
v 1.08803833 0.46710980 0.32102785
v 1.08803833 0.46710980 0.32102785
v 1.08803833 0.46710980 0.32102785
v 1.11008322 0.44082254 0.34744415
v 1.11008322 0.44082254 0.34744415
v 1.11008322 0.44082254 0.34744415
v 1.11008322 0.44082254 0.34744415
v 1.11008322 0.44082254 0.34744415
v 1.11008322 0.44082254 0.34744415
v 1.11008322 0.44082254 0.34744415
v 1.11008322 0.44082254 0.34744415
v 1.11008322 0.44082254 0.34744415
v 1.10697663 0.43051177 0.32960157
v 1.10697663 0.43051177 0.32960157
v 1.10697663 0.43051177 0.32960157
v 1.26774263 0.43051177 1.02453554
v 1.26774263 0.43051177 1.02453554
v 1.26774263 0.43051177 1.02453554
v 1.26774263 0.43051177 1.02453554
v 1.22281659 0.46710980 1.03952020
v 1.22281659 0.46710980 1.03952020
v 1.22281659 0.46710980 1.03952020
v 1.22281659 0.46710980 1.03952020
v 1.22281659 0.46710980 1.03952020
v 1.22281659 0.46710980 1.03952020
v 1.17836845 0.55603594 1.04006088
v 1.17836845 0.55603594 1.04006088
v 1.17836845 0.55603594 1.04006088
v 1.17836845 0.55603594 1.04006088
v 1.13386059 0.64496213 1.04052430
v 1.13386059 0.64496213 1.04052430
v 1.13386059 0.64496213 1.04052430
v 1.13386059 0.64496213 1.04052430
v 1.13386059 0.64496213 1.04052430
v 1.04496431 0.77836901 1.03967470
v 1.04496431 0.77836901 1.03967470
v 1.04496431 0.77836901 1.03967470
v 1.04496431 0.77836901 1.03967470
v 1.04496431 0.77836901 1.03967470
v 1.04574096 0.78998184 1.03689402
v 1.04574096 0.78998184 1.03689402
v 1.04574096 0.78998184 1.03689402
v 1.04574096 0.78998184 1.03689402
v 1.04574096 0.78998184 1.03689402
v 0.90970808 0.78998184 0.36351019
v 0.90970808 0.78998184 0.36351019
v 0.90970808 0.78998184 0.36351019
v 0.92565924 0.78998184 0.39996778
v 0.92565924 0.78998184 0.39996778
v 0.92565924 0.78998184 0.39996778
v 0.92834765 0.78998184 0.40622427
v 0.92834765 0.78998184 0.40622427
v 0.92834765 0.78998184 0.40622427
v 0.92834765 0.78998184 0.40622427
v 0.93677127 0.78998184 0.42746545
v 0.93677127 0.78998184 0.42746545
v 0.93677127 0.78998184 0.42746545
v 0.93677127 0.78998184 0.42746545
v 0.93677127 0.78998184 0.42746545
v 0.94585210 0.77097899 0.41000906
v 0.94585210 0.77097899 0.41000906
v 0.94585210 0.77097899 0.41000906
v 0.94585210 0.77097899 0.41000906
v 0.97942722 0.75774747 0.47342362
v 0.97942722 0.75774747 0.47342362
v 0.97942722 0.75774747 0.47342362
v 0.97942722 0.75774747 0.47342362
v 0.97942722 0.75774747 0.47342362
v 0.97942722 0.75774747 0.47342362
v 0.97942722 0.75774747 0.47342362
v 0.97942722 0.75774747 0.47342362
v 0.97942722 0.75774747 0.47342362
v 0.97942722 0.75774747 0.47342362
v 0.97942722 0.75774747 0.47342362
v 0.97942722 0.75774747 0.47342362
v 0.97422963 0.75018144 0.44384046
v 0.97422963 0.75018144 0.44384046
v 0.97422963 0.75018144 0.44384046
v 0.97422963 0.75018144 0.44384046
v 0.97422963 0.75018144 0.44384046
v 0.97422963 0.75018144 0.44384046
v 0.97422963 0.75018144 0.44384046
v 0.98325068 0.71893239 0.41000906
v 0.98325068 0.71893239 0.41000906
v 0.98325068 0.71893239 0.41000906
v 0.98325068 0.71893239 0.41000906
v 0.97888952 0.71249253 0.38637342
v 0.97888952 0.71249253 0.38637342
v 0.97888952 0.71249253 0.38637342
v 0.97888952 0.71249253 0.38637342
v 0.97888952 0.71249253 0.38637342
v 0.97888952 0.71249253 0.38637342
v 0.97888952 0.71249253 0.38637342
v 0.98755211 0.68902051 0.36914878
v 0.98755211 0.68902051 0.36914878
v 0.98755211 0.68902051 0.36914878
v 0.98755211 0.68902051 0.36914878
v 1.01342046 0.64538443 0.36227435
v 1.01342046 0.64538443 0.36227435
v 1.01342046 0.64538443 0.36227435
v 1.01342046 0.64538443 0.36227435
v 1.01342046 0.64538443 0.36227435
v 1.01342046 0.64538443 0.36227435
v 1.02190387 0.62138456 0.34528141
v 1.02190387 0.62138456 0.34528141
v 1.02190387 0.62138456 0.34528141
v 1.02190387 0.62138456 0.34528141
v 1.02190387 0.62138456 0.34528141
v 1.02190387 0.62138456 0.34528141
v 1.02190387 0.62138456 0.34528141
v 0.99406403 0.64763659 0.31932858
v 0.99406403 0.64763659 0.31932858
v 0.99406403 0.64763659 0.31932858
v 0.99406403 0.64763659 0.31932858
v 1.01688552 0.61283326 0.32102785
v 1.01688552 0.61283326 0.32102785
v 1.01688552 0.61283326 0.32102785
v 1.01688552 0.61283326 0.32102785
v 1.01688552 0.61283326 0.32102785
v 1.01688552 0.61283326 0.32102785
v 1.02441299 0.58126748 0.29530673
v 1.02441299 0.58126748 0.29530673
v 1.02441299 0.58126748 0.29530673
v 1.02441299 0.58126748 0.29530673
v 1.02441299 0.58126748 0.29530673
v 1.02441299 0.58126748 0.29530673
v 1.02441299 0.58126748 0.29530673
v 1.02441299 0.58126748 0.29530673
v 1.02447271 0.53914452 0.25143406
v 1.02447271 0.53914452 0.25143406
v 1.02447271 0.53914452 0.25143406
v 1.02447271 0.53914452 0.25143406
v 1.03032744 0.55406529 0.27893171
v 1.03032744 0.55406529 0.27893171
v 1.03032744 0.55406529 0.27893171
v 1.03032744 0.55406529 0.27893171
v 1.03032744 0.55406529 0.27893171
v 1.03032744 0.55406529 0.27893171
v 1.03032744 0.55406529 0.27893171
v 1.06270766 0.52369595 0.32102785
v 1.06270766 0.52369595 0.32102785
v 1.06270766 0.52369595 0.32102785
v 1.06270766 0.52369595 0.32102785
v 1.06270766 0.52369595 0.32102785
v 1.06270766 0.52369595 0.32102785
v 1.06712866 0.53372520 0.34342764
v 1.06712866 0.53372520 0.34342764
v 1.06712866 0.53372520 0.34342764
v 1.06712866 0.53372520 0.34342764
v 1.06712866 0.53372520 0.34342764
v 1.06712866 0.53372520 0.34342764
v 1.06712866 0.53372520 0.34342764
v 1.06712866 0.53372520 0.34342764
v 1.11761069 0.43051177 0.35771716
v 1.11761069 0.43051177 0.35771716
v 1.11761069 0.43051177 0.35771716
v 1.11199498 0.43051177 0.34250075
v 1.11199498 0.43051177 0.34250075
v 1.11199498 0.43051177 0.34250075
v 1.11557949 0.45356146 0.37710457
v 1.11557949 0.45356146 0.37710457
v 1.11557949 0.45356146 0.37710457
v 1.11557949 0.45356146 0.37710457
v 1.11557949 0.45356146 0.37710457
v 1.11557949 0.45356146 0.37710457
v 1.11557949 0.45356146 0.37710457
v 1.11557949 0.45356146 0.37710457
v 1.13601136 0.43051177 0.41008630
v 1.13601136 0.43051177 0.41008630
v 1.13601136 0.43051177 0.41008630
v 1.13601136 0.43051177 0.41008630
v 1.13601136 0.43051177 0.41008630
v 1.12065756 0.43051177 0.36636811
v 1.12065756 0.43051177 0.36636811
v 1.12065756 0.43051177 0.36636811
v 1.28351462 0.43051177 0.99333030
v 1.28351462 0.43051177 0.99333030
v 1.28351462 0.43051177 0.99333030
v 1.25878143 0.46710980 1.02376312
v 1.25878143 0.46710980 1.02376312
v 1.25878143 0.46710980 1.02376312
v 1.25878143 0.46710980 1.02376312
v 1.25878143 0.46710980 1.02376312
v 1.25878143 0.46710980 1.02376312
v 1.25878143 0.46710980 1.02376312
v 1.25878143 0.46710980 1.02376312
v 1.25878143 0.46710980 1.02376312
v 1.22281659 0.51159048 1.03264576
v 1.22281659 0.51159048 1.03264576
v 1.22281659 0.51159048 1.03264576
v 1.17836845 0.60051662 1.03612161
v 1.17836845 0.60051662 1.03612161
v 1.17836845 0.60051662 1.03612161
v 1.17836845 0.60051662 1.03612161
v 1.17836845 0.60051662 1.03612161
v 1.17836845 0.60051662 1.03612161
v 1.17836845 0.60051662 1.03612161
v 1.17836845 0.60051662 1.03612161
v 1.17836845 0.60051662 1.03612161
v 1.08941245 0.73388833 1.03982913
v 1.08941245 0.73388833 1.03982913
v 1.08941245 0.73388833 1.03982913
v 1.08941245 0.73388833 1.03982913
v 1.08941245 0.73388833 1.03982913
v 1.08941245 0.73388833 1.03982913
v 1.09054756 0.77822822 1.02638930
v 1.09054756 0.77822822 1.02638930
v 1.09054756 0.77822822 1.02638930
v 1.09054756 0.77822822 1.02638930
v 1.09054756 0.77822822 1.02638930
v 1.09054756 0.77822822 1.02638930
v 1.08576822 0.78998184 1.02399480
v 1.08576822 0.78998184 1.02399480
v 1.08576822 0.78998184 1.02399480
v 1.08576822 0.78998184 1.02399480
v 0.96341628 0.78998184 0.49891302
v 0.96341628 0.78998184 0.49891302
v 0.96341628 0.78998184 0.49891302
v 0.96682155 0.78597009 0.49891302
v 0.96682155 0.78597009 0.49891302
v 0.96682155 0.78597009 0.49891302
v 0.96682155 0.78597009 0.49891302
v 0.96682155 0.78597009 0.49891302
v 1.02841580 0.67564815 0.45442243
v 1.02841580 0.67564815 0.45442243
v 1.02841580 0.67564815 0.45442243
v 1.02841580 0.67564815 0.45442243
v 1.02841580 0.67564815 0.45442243
v 1.02841580 0.67564815 0.45442243
v 1.02841580 0.67564815 0.45442243
v 1.01342046 0.69788855 0.45442243
v 1.01342046 0.69788855 0.45442243
v 1.01342046 0.69788855 0.45442243
v 1.01342046 0.69788855 0.45442243
v 1.01342046 0.69788855 0.45442243
v 0.98928457 0.73476803 0.45697136
v 0.98928457 0.73476803 0.45697136
v 0.98928457 0.73476803 0.45697136
v 0.96998793 0.78998184 0.51660113
v 0.96998793 0.78998184 0.51660113
v 0.96998793 0.78998184 0.51660113
v 0.96998793 0.78998184 0.51660113
v 0.97482699 0.78998184 0.53042720
v 0.97482699 0.78998184 0.53042720
v 0.97482699 0.78998184 0.53042720
v 0.97482699 0.78998184 0.53042720
v 0.98348963 0.76376498 0.49891302
v 0.98348963 0.76376498 0.49891302
v 0.98348963 0.76376498 0.49891302
v 0.98348963 0.76376498 0.49891302
v 0.98348963 0.76376498 0.49891302
v 0.98348963 0.76376498 0.49891302
v 0.98348963 0.76376498 0.49891302
v 1.00696826 0.73040444 0.50130749
v 1.00696826 0.73040444 0.50130749
v 1.00696826 0.73040444 0.50130749
v 1.00696826 0.73040444 0.50130749
v 1.00696826 0.73040444 0.50130749
v 1.01903617 0.70622867 0.48809934
v 1.01903617 0.70622867 0.48809934
v 1.01903617 0.70622867 0.48809934
v 1.01903617 0.70622867 0.48809934
v 1.01903617 0.70622867 0.48809934
v 1.02399480 0.66906756 0.42885577
v 1.02399480 0.66906756 0.42885577
v 1.02399480 0.66906756 0.42885577
v 1.02399480 0.66906756 0.42885577
v 1.02399480 0.66906756 0.42885577
v 1.02399480 0.66906756 0.42885577
v 1.02399480 0.66906756 0.42885577
v 1.02399480 0.66906756 0.42885577
v 1.02399480 0.66906756 0.42885577
v 1.01837897 0.66048110 0.39919537
v 1.01837897 0.66048110 0.39919537
v 1.01837897 0.66048110 0.39919537
v 1.01837897 0.66048110 0.39919537
v 1.01837897 0.66048110 0.39919537
v 1.01837897 0.66048110 0.39919537
v 1.02769887 0.63085079 0.37494181
v 1.02769887 0.63085079 0.37494181
v 1.02769887 0.63085079 0.37494181
v 1.02769887 0.63085079 0.37494181
v 1.02769887 0.63085079 0.37494181
v 1.02769887 0.63085079 0.37494181
v 1.03845239 0.60414124 0.36227435
v 1.03845239 0.60414124 0.36227435
v 1.03845239 0.60414124 0.36227435
v 1.03845239 0.60414124 0.36227435
v 1.03845239 0.60414124 0.36227435
v 1.02978981 0.59062815 0.32102785
v 1.02978981 0.59062815 0.32102785
v 1.02978981 0.59062815 0.32102785
v 1.02978981 0.59062815 0.32102785
v 1.02978981 0.59062815 0.32102785
v 1.04759300 0.55603594 0.32102785
v 1.04759300 0.55603594 0.32102785
v 1.04759300 0.55603594 0.32102785
v 1.04759300 0.55603594 0.32102785
v 1.04759300 0.55603594 0.32102785
v 1.04759300 0.55603594 0.32102785
v 1.06581426 0.57542586 0.39162579
v 1.06581426 0.57542586 0.39162579
v 1.06581426 0.57542586 0.39162579
v 1.06581426 0.57542586 0.39162579
v 1.06581426 0.57542586 0.39162579
v 1.06581426 0.57542586 0.39162579
v 1.06581426 0.57542586 0.39162579
v 1.06581426 0.57542586 0.39162579
v 1.06581426 0.57542586 0.39162579
v 1.06581426 0.57542586 0.39162579
v 1.06581426 0.57542586 0.39162579
v 1.06581426 0.57542586 0.39162579
v 1.06581426 0.57542586 0.39162579
v 1.06581426 0.57542586 0.39162579
v 1.06211030 0.55878079 0.36111574
v 1.06211030 0.55878079 0.36111574
v 1.06211030 0.55878079 0.36111574
v 1.07256520 0.54579556 0.37301080
v 1.07256520 0.54579556 0.37301080
v 1.07256520 0.54579556 0.37301080
v 1.10888839 0.48322698 0.39595128
v 1.10888839 0.48322698 0.39595128
v 1.10888839 0.48322698 0.39595128
v 1.12089658 0.46788394 0.41047250
v 1.12089658 0.46788394 0.41047250
v 1.12089658 0.46788394 0.41047250
v 1.12089658 0.46788394 0.41047250
v 1.12089658 0.46788394 0.41047250
v 1.12089658 0.46788394 0.41047250
v 1.15518856 0.44219497 0.47975735
v 1.15518856 0.44219497 0.47975735
v 1.15518856 0.44219497 0.47975735
v 1.15518856 0.44219497 0.47975735
v 1.15518856 0.44219497 0.47975735
v 1.15518856 0.44219497 0.47975735
v 1.15518856 0.44219497 0.47975735
v 1.15518856 0.44219497 0.47975735
v 1.15518856 0.44219497 0.47975735
v 1.15518856 0.44219497 0.47975735
v 1.15518856 0.44219497 0.47975735
v 1.15285861 0.43051177 0.45959755
v 1.15285861 0.43051177 0.45959755
v 1.15285861 0.43051177 0.45959755
v 1.28620303 0.43051177 0.98800072
v 1.28620303 0.43051177 0.98800072
v 1.28620303 0.43051177 0.98800072
v 1.28620303 0.43051177 0.98800072
v 1.28578484 0.43209532 0.98800072
v 1.28578484 0.43209532 0.98800072
v 1.28578484 0.43209532 0.98800072
v 1.28578484 0.43209532 0.98800072
v 1.28578484 0.43209532 0.98800072
v 1.28578484 0.43209532 0.98800072
v 1.24993956 0.51159048 1.01596180
v 1.24993956 0.51159048 1.01596180
v 1.24993956 0.51159048 1.01596180
v 1.24993956 0.51159048 1.01596180
v 1.20835900 0.60051662 1.01928315
v 1.20835900 0.60051662 1.01928315
v 1.20835900 0.60051662 1.01928315
v 1.20835900 0.60051662 1.01928315
v 1.20835900 0.60051662 1.01928315
v 1.20835900 0.60051662 1.01928315
v 1.13386059 0.68940765 1.03449959
v 1.13386059 0.68940765 1.03449959
v 1.13386059 0.68940765 1.03449959
v 1.13386059 0.68940765 1.03449959
v 1.13386059 0.68940765 1.03449959
v 1.13386059 0.68940765 1.03449959
v 1.17920494 0.64270991 1.02445829
v 1.17920494 0.64270991 1.02445829
v 1.17920494 0.64270991 1.02445829
v 1.17920494 0.64270991 1.02445829
v 1.17920494 0.64270991 1.02445829
v 1.13248646 0.72977102 1.02129138
v 1.13248646 0.72977102 1.02129138
v 1.13248646 0.72977102 1.02129138
v 1.13248646 0.72977102 1.02129138
v 1.11677432 0.76334268 1.01673421
v 1.11677432 0.76334268 1.01673421
v 1.11677432 0.76334268 1.01673421
v 1.11677432 0.76334268 1.01673421
v 1.11677432 0.76334268 1.01673421
v 1.11677432 0.76334268 1.01673421
v 1.11677432 0.76334268 1.01673421
v 1.11677432 0.76334268 1.01673421
v 1.10171926 0.78998184 0.98969999
v 1.10171926 0.78998184 0.98969999
v 1.10171926 0.78998184 0.98969999
v 1.03379250 0.69060409 0.50130749
v 1.03379250 0.69060409 0.50130749
v 1.03379250 0.69060409 0.50130749
v 1.03379250 0.69060409 0.50130749
v 1.03379250 0.69060409 0.50130749
v 1.03379250 0.69060409 0.50130749
v 1.06342459 0.66093856 0.53336234
v 1.06342459 0.66093856 0.53336234
v 1.06342459 0.66093856 0.53336234
v 1.06342459 0.66093856 0.53336234
v 1.06342459 0.66093856 0.53336234
v 1.06342459 0.66093856 0.53336234
v 1.05798805 0.65178907 0.49891302
v 1.05798805 0.65178907 0.49891302
v 1.05798805 0.65178907 0.49891302
v 1.05798805 0.65178907 0.49891302
v 1.05798805 0.65178907 0.49891302
v 1.05798805 0.65178907 0.49891302
v 0.97757518 0.78998184 0.53892367
v 0.97757518 0.78998184 0.53892367
v 0.97757518 0.78998184 0.53892367
v 0.98319095 0.78998184 0.55645730
v 0.98319095 0.78998184 0.55645730
v 0.98319095 0.78998184 0.55645730
v 0.98319095 0.78998184 0.55645730
v 0.98319095 0.78998184 0.55645730
v 0.98319095 0.78998184 0.55645730
v 0.98814952 0.77903765 0.54757462
v 0.98814952 0.77903765 0.54757462
v 0.98814952 0.77903765 0.54757462
v 0.98814952 0.77903765 0.54757462
v 0.98814952 0.77903765 0.54757462
v 1.01276326 0.74138385 0.54340362
v 1.01276326 0.74138385 0.54340362
v 1.01276326 0.74138385 0.54340362
v 1.01276326 0.74138385 0.54340362
v 1.01276326 0.74138385 0.54340362
v 1.01276326 0.74138385 0.54340362
v 1.01276326 0.74138385 0.54340362
v 1.01276326 0.74138385 0.54340362
v 1.02381551 0.71326667 0.51775974
v 1.02381551 0.71326667 0.51775974
v 1.02381551 0.71326667 0.51775974
v 1.02381551 0.71326667 0.51775974
v 1.02381551 0.71326667 0.51775974
v 1.05123723 0.64084488 0.45828446
v 1.05123723 0.64084488 0.45828446
v 1.05123723 0.64084488 0.45828446
v 1.05123723 0.64084488 0.45828446
v 1.05123723 0.64084488 0.45828446
v 1.03265738 0.64538443 0.41240352
v 1.03265738 0.64538443 0.41240352
v 1.03265738 0.64538443 0.41240352
v 1.03265738 0.64538443 0.41240352
v 1.03265738 0.64538443 0.41240352
v 1.03265738 0.64538443 0.41240352
v 1.05774915 0.60016471 0.40784632
v 1.05774915 0.60016471 0.40784632
v 1.05774915 0.60016471 0.40784632
v 1.05774915 0.60016471 0.40784632
v 1.05774915 0.60016471 0.40784632
v 1.05774915 0.60016471 0.40784632
v 1.07089245 0.58506805 0.42120896
v 1.07089245 0.58506805 0.42120896
v 1.07089245 0.58506805 0.42120896
v 1.07089245 0.58506805 0.42120896
v 1.07089245 0.58506805 0.42120896
v 1.07089245 0.58506805 0.42120896
v 1.07089245 0.58506805 0.42120896
v 1.09849322 0.55205941 0.45828446
v 1.09849322 0.55205941 0.45828446
v 1.09849322 0.55205941 0.45828446
v 1.09849322 0.55205941 0.45828446
v 1.09849322 0.55205941 0.45828446
v 1.09849322 0.55205941 0.45828446
v 1.07889783 0.55878079 0.40784632
v 1.07889783 0.55878079 0.40784632
v 1.07889783 0.55878079 0.40784632
v 1.07889783 0.55878079 0.40784632
v 1.13595152 0.46710980 0.45442243
v 1.13595152 0.46710980 0.45442243
v 1.13595152 0.46710980 0.45442243
v 1.13595152 0.46710980 0.45442243
v 1.13595152 0.46710980 0.45442243
v 1.13595152 0.46710980 0.45442243
v 1.16462779 0.43051177 0.49868130
v 1.16462779 0.43051177 0.49868130
v 1.16462779 0.43051177 0.49868130
v 1.16462779 0.43051177 0.49868130
v 1.16253674 0.43051177 0.49134345
v 1.16253674 0.43051177 0.49134345
v 1.16253674 0.43051177 0.49134345
v 1.15716004 0.43051177 0.47326914
v 1.15716004 0.43051177 0.47326914
v 1.15716004 0.43051177 0.47326914
v 1.14897525 0.46742651 0.49628684
v 1.14897525 0.46742651 0.49628684
v 1.14897525 0.46742651 0.49628684
v 1.14897525 0.46742651 0.49628684
v 1.14897525 0.46742651 0.49628684
v 1.15966916 0.45278728 0.50934052
v 1.15966916 0.45278728 0.50934052
v 1.15966916 0.45278728 0.50934052
v 1.15966916 0.45278728 0.50934052
v 1.15966916 0.45278728 0.50934052
v 1.15966916 0.45278728 0.50934052
v 1.15966916 0.45278728 0.50934052
v 1.15966916 0.45278728 0.50934052
v 1.19766521 0.43543839 0.62095322
v 1.19766521 0.43543839 0.62095322
v 1.19766521 0.43543839 0.62095322
v 1.19766521 0.43543839 0.62095322
v 1.19766521 0.43543839 0.62095322
v 1.19766521 0.43543839 0.62095322
v 1.19766521 0.43543839 0.62095322
v 1.19766521 0.43543839 0.62095322
v 1.28614330 0.43051177 0.98630139
v 1.28614330 0.43051177 0.98630139
v 1.28614330 0.43051177 0.98630139
v 1.28614330 0.43051177 0.98630139
v 1.28614330 0.43051177 0.98630139
v 1.27365720 0.46710980 0.98800072
v 1.27365720 0.46710980 0.98800072
v 1.27365720 0.46710980 0.98800072
v 1.27365720 0.46710980 0.98800072
v 1.27365720 0.46710980 0.98800072
v 1.24527967 0.53439385 1.01063219
v 1.24527967 0.53439385 1.01063219
v 1.24527967 0.53439385 1.01063219
v 1.24527967 0.53439385 1.01063219
v 1.24527967 0.53439385 1.01063219
v 1.24527967 0.53439385 1.01063219
v 1.24527967 0.53439385 1.01063219
v 1.24527967 0.53439385 1.01063219
v 1.24527967 0.53439385 1.01063219
v 1.20244455 0.62634641 1.01325837
v 1.20244455 0.62634641 1.01325837
v 1.20244455 0.62634641 1.01325837
v 1.20244455 0.62634641 1.01325837
v 1.20244455 0.62634641 1.01325837
v 1.20244455 0.62634641 1.01325837
v 1.20244455 0.62634641 1.01325837
v 1.16301477 0.68940765 1.01766109
v 1.16301477 0.68940765 1.01766109
v 1.16301477 0.68940765 1.01766109
v 1.16301477 0.68940765 1.01766109
v 1.16301477 0.68940765 1.01766109
v 1.16301477 0.68940765 1.01766109
v 1.15644312 0.71217585 1.01078668
v 1.15644312 0.71217585 1.01078668
v 1.15644312 0.71217585 1.01078668
v 1.15644312 0.71217585 1.01078668
v 1.15644312 0.71217585 1.01078668
v 1.15644312 0.71217585 1.01078668
v 1.15644312 0.71217585 1.01078668
v 1.15644312 0.71217585 1.01078668
v 1.10321283 0.78864455 0.98800072
v 1.10321283 0.78864455 0.98800072
v 1.10321283 0.78864455 0.98800072
v 1.10321283 0.78864455 0.98800072
v 1.10321283 0.78864455 0.98800072
v 1.10321283 0.78864455 0.98800072
v 1.10219729 0.78998184 0.98800072
v 1.10219729 0.78998184 0.98800072
v 1.10219729 0.78998184 0.98800072
v 1.10219729 0.78998184 0.98800072
v 1.10219729 0.78998184 0.98800072
v 1.05117750 0.68571264 0.54626153
v 1.05117750 0.68571264 0.54626153
v 1.05117750 0.68571264 0.54626153
v 1.05117750 0.68571264 0.54626153
v 1.05117750 0.68571264 0.54626153
v 1.06796503 0.66839892 0.56302275
v 1.06796503 0.66839892 0.56302275
v 1.06796503 0.66839892 0.56302275
v 1.06796503 0.66839892 0.56302275
v 1.06796503 0.66839892 0.56302275
v 1.06796503 0.66839892 0.56302275
v 1.06796503 0.66839892 0.56302275
v 1.06796503 0.66839892 0.56302275
v 1.06796503 0.66839892 0.56302275
v 1.06796503 0.66839892 0.56302275
v 1.07113135 0.62954873 0.49891302
v 1.07113135 0.62954873 0.49891302
v 1.07113135 0.62954873 0.49891302
v 1.07113135 0.62954873 0.49891302
v 1.07113135 0.62954873 0.49891302
v 1.07113135 0.62954873 0.49891302
v 1.07614970 0.64563078 0.54626153
v 1.07614970 0.64563078 0.54626153
v 1.07614970 0.64563078 0.54626153
v 1.07614970 0.64563078 0.54626153
v 1.07614970 0.64563078 0.54626153
v 1.07614970 0.64563078 0.54626153
v 1.06748712 0.62328482 0.47574083
v 1.06748712 0.62328482 0.47574083
v 1.06748712 0.62328482 0.47574083
v 1.06748712 0.62328482 0.47574083
v 1.06748712 0.62328482 0.47574083
v 1.06748712 0.62328482 0.47574083
v 1.00565398 0.78998184 0.63230759
v 1.00565398 0.78998184 0.63230759
v 1.00565398 0.78998184 0.63230759
v 1.01067233 0.78333080 0.63230759
v 1.01067233 0.78333080 0.63230759
v 1.01067233 0.78333080 0.63230759
v 1.01067233 0.78333080 0.63230759
v 1.01067233 0.78333080 0.63230759
v 1.01067233 0.78333080 0.63230759
v 1.00517607 0.77397019 0.59221970
v 1.00517607 0.77397019 0.59221970
v 1.00517607 0.77397019 0.59221970
v 1.00517607 0.77397019 0.59221970
v 1.00517607 0.77397019 0.59221970
v 1.01837897 0.74968880 0.58024741
v 1.01837897 0.74968880 0.58024741
v 1.01837897 0.74968880 0.58024741
v 1.01837897 0.74968880 0.58024741
v 1.01837897 0.74968880 0.58024741
v 1.01837897 0.74968880 0.58024741
v 1.01837897 0.74968880 0.58024741
v 1.02775860 0.71914351 0.54340362
v 1.02775860 0.71914351 0.54340362
v 1.06264794 0.61469841 0.44608044
v 1.06264794 0.61469841 0.44608044
v 1.06264794 0.61469841 0.44608044
v 1.06264794 0.61469841 0.44608044
v 1.06264794 0.61469841 0.44608044
v 1.06264794 0.61469841 0.44608044
v 1.07465613 0.60016471 0.45828446
v 1.07465613 0.60016471 0.45828446
v 1.07465613 0.60016471 0.45828446
v 1.07465613 0.60016471 0.45828446
v 1.07465613 0.60016471 0.45828446
v 1.10978448 0.57422942 0.52772378
v 1.10978448 0.57422942 0.52772378
v 1.10978448 0.57422942 0.52772378
v 1.10978448 0.57422942 0.52772378
v 1.10978448 0.57422942 0.52772378
v 1.10978448 0.57422942 0.52772378
v 1.10978448 0.57422942 0.52772378
v 1.10978448 0.57422942 0.52772378
v 1.10978448 0.57422942 0.52772378
v 1.10978448 0.57422942 0.52772378
v 1.10978448 0.57422942 0.52772378
v 1.10978448 0.57422942 0.52772378
v 1.10542333 0.56469280 0.49891302
v 1.10542333 0.56469280 0.49891302
v 1.10542333 0.56469280 0.49891302
v 1.10542333 0.56469280 0.49891302
v 1.10542333 0.56469280 0.49891302
v 1.11199498 0.53453463 0.47566360
v 1.11199498 0.53453463 0.47566360
v 1.11199498 0.53453463 0.47566360
v 1.11199498 0.53453463 0.47566360
v 1.11199498 0.53453463 0.47566360
v 1.19611192 0.43051177 0.60967609
v 1.19611192 0.43051177 0.60967609
v 1.19611192 0.43051177 0.60967609
v 1.11557949 0.54245245 0.49891302
v 1.11557949 0.54245245 0.49891302
v 1.11557949 0.54245245 0.49891302
v 1.11557949 0.54245245 0.49891302
v 1.11557949 0.54245245 0.49891302
v 1.15297806 0.48245281 0.53204925
v 1.15297806 0.48245281 0.53204925
v 1.15297806 0.48245281 0.53204925
v 1.15297806 0.48245281 0.53204925
v 1.15297806 0.48245281 0.53204925
v 1.16361213 0.46742651 0.54548913
v 1.16361213 0.46742651 0.54548913
v 1.16361213 0.46742651 0.54548913
v 1.16361213 0.46742651 0.54548913
v 1.16361213 0.46742651 0.54548913
v 1.20160818 0.44722721 0.65053639
v 1.20160818 0.44722721 0.65053639
v 1.20160818 0.44722721 0.65053639
v 1.20160818 0.44722721 0.65053639
v 1.20160818 0.44722721 0.65053639
v 1.20160818 0.44722721 0.65053639
v 1.20160818 0.44722721 0.65053639
v 1.20160818 0.44722721 0.65053639
v 1.20160818 0.44722721 0.65053639
v 1.20160818 0.44722721 0.65053639
v 1.20405757 0.43051177 0.64010890
v 1.20405757 0.43051177 0.64010890
v 1.20405757 0.43051177 0.64010890
v 1.20405757 0.43051177 0.64010890
v 1.20035350 0.43051177 0.62566490
v 1.20035350 0.43051177 0.62566490
v 1.20035350 0.43051177 0.62566490
v 1.19838202 0.43051177 0.61817256
v 1.19838202 0.43051177 0.61817256
v 1.19838202 0.43051177 0.61817256
v 1.27760017 0.43051177 0.94482321
v 1.27760017 0.43051177 0.94482321
v 1.27760017 0.43051177 0.94482321
v 1.27760017 0.43051177 0.94482321
v 1.27760017 0.43051177 0.94482321
v 1.24587703 0.53562552 0.96382436
v 1.24587703 0.53562552 0.96382436
v 1.24587703 0.53562552 0.96382436
v 1.24587703 0.53562552 0.96382436
v 1.24587703 0.53562552 0.96382436
v 1.24587703 0.53562552 0.96382436
v 1.24587703 0.53562552 0.96382436
v 1.24587703 0.53562552 0.96382436
v 1.24587703 0.53562552 0.96382436
v 1.24587703 0.53562552 0.96382436
v 1.24587703 0.53562552 0.96382436
v 1.24587703 0.53562552 0.96382436
v 1.24587703 0.53562552 0.96382436
v 1.24587703 0.53562552 0.96382436
v 1.24587703 0.53562552 0.96382436
v 1.25597346 0.51159048 0.98800072
v 1.25597346 0.51159048 0.98800072
v 1.25597346 0.51159048 0.98800072
v 1.25597346 0.51159048 0.98800072
v 1.24587703 0.53562552 0.98800072
v 1.24587703 0.53562552 0.98800072
v 1.24587703 0.53562552 0.98800072
v 1.24587703 0.53562552 0.98800072
v 1.23584044 0.55783069 0.98800072
v 1.23584044 0.55783069 0.98800072
v 1.23584044 0.55783069 0.98800072
v 1.23584044 0.55783069 0.98800072
v 1.21636450 0.60051662 0.98800072
v 1.21636450 0.60051662 0.98800072
v 1.21636450 0.60051662 0.98800072
v 1.21636450 0.60051662 0.98800072
v 1.21636450 0.60051662 0.98800072
v 1.20334065 0.62800038 0.98800072
v 1.20334065 0.62800038 0.98800072
v 1.20334065 0.62800038 0.98800072
v 1.20334065 0.62800038 0.98800072
v 1.20334065 0.62800038 0.98800072
v 1.20334065 0.62800038 0.98800072
v 1.19133258 0.65024072 0.98800072
v 1.19133258 0.65024072 0.98800072
v 1.19133258 0.65024072 0.98800072
v 1.19133258 0.65024072 0.98800072
v 1.19133258 0.65024072 0.98800072
v 1.19133258 0.65024072 0.98800072
v 1.15644312 0.71217585 1.00151780
v 1.15644312 0.71217585 1.00151780
v 1.15644312 0.71217585 1.00151780
v 1.15644312 0.71217585 1.00151780
v 1.15644312 0.71217585 1.00151780
v 1.15644312 0.71217585 1.00151780
v 1.11880553 0.76640427 0.98800072
v 1.11880553 0.76640427 0.98800072
v 1.11880553 0.76640427 0.98800072
v 1.11880553 0.76640427 0.98800072
v 1.11880553 0.76640427 0.98800072
v 1.15584564 0.71126086 0.97185740
v 1.15584564 0.71126086 0.97185740
v 1.15584564 0.71126086 0.97185740
v 1.15584564 0.71126086 0.97185740
v 1.15584564 0.71126086 0.97185740
v 1.15584564 0.71126086 0.97185740
v 1.15584564 0.71126086 0.97185740
v 1.15584564 0.71126086 0.97185740
v 1.15584564 0.71126086 0.97185740
v 1.15584564 0.71126086 0.97185740
v 1.15584564 0.71126086 0.97185740
v 1.15584564 0.71126086 0.97185740
v 1.15584564 0.71126086 0.97185740
v 1.15584564 0.71126086 0.97185740
v 1.15584564 0.71126086 0.97185740
v 1.15584564 0.71126086 0.97185740
v 1.11611724 0.76260370 0.95772240
v 1.11611724 0.76260370 0.95772240
v 1.11611724 0.76260370 0.95772240
v 1.11611724 0.76260370 0.95772240
v 1.01855826 0.78998184 0.67672096
v 1.01855826 0.78998184 0.67672096
v 1.01855826 0.78998184 0.67672096
v 1.01855826 0.78998184 0.67672096
v 1.01855826 0.78998184 0.67672096
v 1.01855826 0.78998184 0.67672096
v 1.01855826 0.78998184 0.67672096
v 1.05673349 0.69616419 0.58789423
v 1.05673349 0.69616419 0.58789423
v 1.05673349 0.69616419 0.58789423
v 1.05673349 0.69616419 0.58789423
v 1.05673349 0.69616419 0.58789423
v 1.05673349 0.69616419 0.58789423
v 1.07160938 0.67392385 0.58789423
v 1.07160938 0.67392385 0.58789423
v 1.07160938 0.67392385 0.58789423
v 1.07160938 0.67392385 0.58789423
v 1.07160938 0.67392385 0.58789423
v 1.07160938 0.67392385 0.58789423
v 1.07160938 0.67392385 0.58789423
v 1.10165966 0.64341378 0.63084002
v 1.10165966 0.64341378 0.63084002
v 1.10165966 0.64341378 0.63084002
v 1.10165966 0.64341378 0.63084002
v 1.10165966 0.64341378 0.63084002
v 1.10165966 0.64341378 0.63084002
v 1.08869553 0.64496213 0.58789423
v 1.08869553 0.64496213 0.58789423
v 1.08869553 0.64496213 0.58789423
v 1.08869553 0.64496213 0.58789423
v 1.08869553 0.64496213 0.58789423
v 1.08714223 0.60051662 0.49891302
v 1.08714223 0.60051662 0.49891302
v 1.08714223 0.60051662 0.49891302
v 1.08714223 0.60051662 0.49891302
v 1.08714223 0.60051662 0.49891302
v 1.10124135 0.59879231 0.54286294
v 1.10124135 0.59879231 0.54286294
v 1.10124135 0.59879231 0.54286294
v 1.10124135 0.59879231 0.54286294
v 1.10124135 0.59879231 0.54286294
v 1.10124135 0.59879231 0.54286294
v 1.10649860 0.61311477 0.58789423
v 1.10649860 0.61311477 0.58789423
v 1.10649860 0.61311477 0.58789423
v 1.10649860 0.61311477 0.58789423
v 1.10649860 0.61311477 0.58789423
v 1.01527250 0.78998184 0.66505761
v 1.01527250 0.78998184 0.66505761
v 1.01527250 0.78998184 0.66505761
v 1.01760244 0.78998184 0.67332236
v 1.01760244 0.78998184 0.67332236
v 1.01760244 0.78998184 0.67332236
v 1.01760244 0.78998184 0.67332236
v 1.01760244 0.78998184 0.67332236
v 1.02608573 0.76109052 0.63230759
v 1.02608573 0.76109052 0.63230759
v 1.02608573 0.76109052 0.63230759
v 1.02608573 0.76109052 0.63230759
v 1.02608573 0.76109052 0.63230759
v 1.02608573 0.76109052 0.63230759
v 1.02608573 0.76109052 0.63230759
v 1.02608573 0.76109052 0.63230759
v 1.02608573 0.76109052 0.63230759
v 1.02608573 0.76109052 0.63230759
v 1.02608573 0.76109052 0.63230759
v 1.03217947 0.73448658 0.59221970
v 1.03217947 0.73448658 0.59221970
v 1.03217947 0.73448658 0.59221970
v 1.11396646 0.58281583 0.55730695
v 1.11396646 0.58281583 0.55730695
v 1.11396646 0.58281583 0.55730695
v 1.11396646 0.58281583 0.55730695
v 1.11396646 0.58281583 0.55730695
v 1.11396646 0.58281583 0.55730695
v 1.11396646 0.58281583 0.55730695
v 1.13493598 0.55603594 0.58789423
v 1.13493598 0.55603594 0.58789423
v 1.13493598 0.55603594 0.58789423
v 1.13493598 0.55603594 0.58789423
v 1.13493598 0.55603594 0.58789423
v 1.13493598 0.55603594 0.58789423
v 1.13493598 0.55603594 0.58789423
v 1.13493598 0.55603594 0.58789423
v 1.12149394 0.55807704 0.54286294
v 1.12149394 0.55807704 0.54286294
v 1.12149394 0.55807704 0.54286294
v 1.12149394 0.55807704 0.54286294
v 1.14491284 0.50859928 0.54548913
v 1.14491284 0.50859928 0.54548913
v 1.14491284 0.50859928 0.54548913
v 1.14491284 0.50859928 0.54548913
v 1.15721977 0.49181345 0.56170966
v 1.15721977 0.49181345 0.56170966
v 1.15721977 0.49181345 0.56170966
v 1.15721977 0.49181345 0.56170966
v 1.15721977 0.49181345 0.56170966
v 1.15721977 0.49181345 0.56170966
v 1.15721977 0.49181345 0.56170966
v 1.17562032 0.46710980 0.58789423
v 1.17562032 0.46710980 0.58789423
v 1.17562032 0.46710980 0.58789423
v 1.17562032 0.46710980 0.58789423
v 1.17562032 0.46710980 0.58789423
v 1.21301889 0.43051177 0.67672096
v 1.21301889 0.43051177 0.67672096
v 1.21301889 0.43051177 0.67672096
v 1.18959999 0.46408340 0.63439310
v 1.18959999 0.46408340 0.63439310
v 1.18959999 0.46408340 0.63439310
v 1.18959999 0.46408340 0.63439310
v 1.26475561 0.46710980 0.94351009
v 1.26475561 0.46710980 0.94351009
v 1.26475561 0.46710980 0.94351009
v 1.20238483 0.62610006 0.96189335
v 1.20238483 0.62610006 0.96189335
v 1.20238483 0.62610006 0.96189335
v 1.20238483 0.62610006 0.96189335
v 1.20238483 0.62610006 0.96189335
v 1.20238483 0.62610006 0.96189335
v 1.20238483 0.62610006 0.96189335
v 1.20238483 0.62610006 0.96189335
v 1.20238483 0.62610006 0.96189335
v 1.16086400 0.49962571 0.58789423
v 1.16086400 0.49962571 0.58789423
v 1.16086400 0.49962571 0.58789423
v 1.16086400 0.49962571 0.58789423
v 1.16086400 0.49962571 0.58789423
v 1.16086400 0.49962571 0.58789423
v 1.15447164 0.53020620 0.61624154
v 1.15447164 0.53020620 0.61624154
v 1.15447164 0.53020620 0.61624154
v 1.16671884 0.69363052 0.98722830
v 1.16671884 0.69363052 0.98722830
v 1.16671884 0.69363052 0.98722830
v 1.14389729 0.72977102 0.98722830
v 1.14389729 0.72977102 0.98722830
v 1.14389729 0.72977102 0.98722830
v 1.10614014 0.65738434 0.67672096
v 1.10614014 0.65738434 0.67672096
v 1.10614014 0.65738434 0.67672096
v 1.07794189 0.68363643 0.63230759
v 1.07794189 0.68363643 0.63230759
v 1.07794189 0.68363643 0.63230759
v 1.06677020 0.71101451 0.65617496
v 1.06677020 0.71101451 0.65617496
v 1.06677020 0.71101451 0.65617496
v 1.06677020 0.71101451 0.65617496
v 1.06677020 0.71101451 0.65617496
v 1.03229892 0.77013445 0.67672096
v 1.03229892 0.77013445 0.67672096
v 1.03229892 0.77013445 0.67672096
v 1.06324542 0.70587671 0.63230759
v 1.06324542 0.70587671 0.63230759
v 1.06324542 0.70587671 0.63230759
v 1.06324542 0.70587671 0.63230759
v 1.11032224 0.62025845 0.61508293
v 1.11032224 0.62025845 0.61508293
v 1.11032224 0.62025845 0.61508293
v 1.11032224 0.62025845 0.61508293
v 1.11032224 0.62025845 0.61508293
v 1.11032224 0.62025845 0.61508293
v 1.11820817 0.59094483 0.58789423
v 1.11820817 0.59094483 0.58789423
v 1.11820817 0.59094483 0.58789423
vn 0.00000000 1.00000000 -0.00000000
vn 0.00000000 1.00000000 0.00000000
vn -0.00000000 -0.00000000 -1.00000000
vn -0.78408513 -0.57115339 0.24288746
vn -0.82305452 -0.47061681 0.31796395
vn 0.00000000 1.00000000 0.00000000
vn 0.00000000 0.00000000 -1.00000000
vn 0.61778725 0.58698302 -0.52324932
vn 0.64486330 0.62771339 -0.43603581
vn 0.00000000 -1.00000000 0.00000000
vn 0.00000000 -0.00000000 -1.00000000
vn -0.78408513 -0.57115339 0.24288746
vn -0.00000000 -1.00000000 0.00000000
vn -0.78408513 -0.57115339 0.24288746
vn -0.79224506 -0.45328636 0.40850855
vn -0.82305452 -0.47061681 0.31796395
vn 0.00000000 1.00000000 -0.00000000
vn -0.79091024 -0.45217016 0.41231437
vn -0.79224506 -0.45328636 0.40850855
vn -0.82305452 -0.47061681 0.31796395
vn 0.00000000 1.00000000 0.00000000
vn 0.64486330 0.62771339 -0.43603581
vn 0.66576791 0.63952677 -0.38439379
vn 0.66631423 0.63565531 -0.38983031
vn 0.61778725 0.58698302 -0.52324932
vn 0.64486330 0.62771339 -0.43603581
vn 0.66631423 0.63565531 -0.38983031
vn 0.67002546 0.63513963 -0.38427012
vn 0.67712128 0.53321565 -0.50713690
vn 0.72404354 0.52077690 -0.45227467
vn 0.73070072 0.56704952 -0.38017272
vn 0.73272164 0.56332318 -0.38181932
vn 0.73558171 0.53558510 -0.41481098
vn 0.00000000 0.00000000 -1.00000000
vn 0.61778725 0.58698302 -0.52324932
vn 0.67712128 0.53321565 -0.50713690
vn 0.00000000 -1.00000000 0.00000000
vn 0.00000000 -0.00000000 -1.00000000
vn 0.86163298 0.28530047 -0.41975260
vn -0.00000000 -1.00000000 0.00000000
vn -0.72690498 -0.41178008 0.54958741
vn -0.74174521 -0.42002380 0.52287097
vn -0.79091024 -0.45217016 0.41231437
vn -0.79224506 -0.45328636 0.40850855
vn 0.00000000 1.00000000 -0.00000000
vn -0.74174521 -0.42002380 0.52287097
vn -0.79091024 -0.45217016 0.41231437
vn 0.00000000 1.00000000 0.00000000
vn 0.66576791 0.63952677 -0.38439379
vn 0.66946922 0.63900534 -0.37879167
vn 0.67016764 0.64431535 -0.36841968
vn 0.66576791 0.63952677 -0.38439379
vn 0.66631423 0.63565531 -0.38983031
vn 0.66946922 0.63900534 -0.37879167
vn 0.67002546 0.63513963 -0.38427012
vn 0.66946922 0.63900534 -0.37879167
vn 0.67002546 0.63513963 -0.38427012
vn 0.67016764 0.64431535 -0.36841968
vn 0.69274921 0.63354677 -0.34455337
vn 0.70305710 0.62333382 -0.34229471
vn 0.71932403 0.59626711 -0.35642458
vn 0.73070072 0.56704952 -0.38017272
vn 0.71932403 0.59626711 -0.35642458
vn 0.73070072 0.56704952 -0.38017272
vn 0.73272164 0.56332318 -0.38181932
vn 0.74239941 0.55066095 -0.38159617
vn 0.76902807 0.53297130 -0.35289860
vn 0.77045403 0.53395956 -0.34826396
vn 0.73272164 0.56332318 -0.38181932
vn 0.73558171 0.53558510 -0.41481098
vn 0.74239941 0.55066095 -0.38159617
vn 0.74406135 0.53485167 -0.40038282
vn 0.71979043 0.51219801 -0.46856690
vn 0.72404354 0.52077690 -0.45227467
vn 0.73558171 0.53558510 -0.41481098
vn 0.74005531 0.50484462 -0.44435351
vn 0.74406135 0.53485167 -0.40038282
vn 0.76186607 0.51239301 -0.39624927
vn 0.00000000 0.00000000 -1.00000000
vn 0.67712128 0.53321565 -0.50713690
vn 0.71979043 0.51219801 -0.46856690
vn 0.72404354 0.52077690 -0.45227467
vn 0.00000000 0.00000000 -1.00000000
vn 0.79360452 0.33996502 -0.50459454
vn 0.85751520 0.31730854 -0.40494812
vn 0.86163298 0.28530047 -0.41975260
vn 0.00000000 -1.00000000 0.00000000
vn 0.85473407 0.35599628 -0.37775166
vn 0.85751520 0.31730854 -0.40494812
vn 0.85915499 0.35672250 -0.36688114
vn 0.86163298 0.28530047 -0.41975260
vn -0.00000000 -1.00000000 0.00000000
vn -0.39119337 -0.21565738 0.89468410
vn -0.42911715 -0.23496750 0.87215179
vn -0.72690498 -0.41178008 0.54958741
vn 0.00000000 1.00000000 -0.00000000
vn -0.42911715 -0.23496750 0.87215179
vn -0.72690498 -0.41178008 0.54958741
vn -0.74174521 -0.42002380 0.52287097
vn 0.00000000 1.00000000 0.00000000
vn 0.67016764 0.64431535 -0.36841968
vn 0.69097392 0.63850977 -0.33891049
vn 0.69274921 0.63354677 -0.34455337
vn 0.69044311 0.64133588 -0.33462905
vn 0.69097392 0.63850977 -0.33891049
vn 0.69274921 0.63354677 -0.34455337
vn 0.70028819 0.63714589 -0.32193409
vn 0.70305710 0.62333382 -0.34229471
vn 0.70028819 0.63714589 -0.32193409
vn 0.70039655 0.63769866 -0.32060113
vn 0.70305710 0.62333382 -0.34229471
vn 0.71320477 0.63189864 -0.30338601
vn 0.71932403 0.59626711 -0.35642458
vn 0.77045403 0.53395956 -0.34826396
vn 0.77621461 0.55612970 -0.29700275
vn 0.78181054 0.52643405 -0.33412494
vn 0.78220677 0.54453403 -0.30271317
vn 0.78458257 0.53226624 -0.31799819
vn 0.76902807 0.53297130 -0.35289860
vn 0.77045403 0.53395956 -0.34826396
vn 0.77613093 0.52359813 -0.35137697
vn 0.77987855 0.52333179 -0.34338503
vn 0.78074772 0.52377264 -0.34072749
vn 0.78181054 0.52643405 -0.33412494
vn 0.78189899 0.52614323 -0.33437593
vn 0.74239941 0.55066095 -0.38159617
vn 0.74406135 0.53485167 -0.40038282
vn 0.76186607 0.51239301 -0.39624927
vn 0.76558367 0.51150405 -0.39018618
vn 0.76902807 0.53297130 -0.35289860
vn 0.76906705 0.51199271 -0.38262167
vn 0.77613093 0.52359813 -0.35137697
vn 0.72486039 0.45427912 -0.51788792
vn 0.72516110 0.49288392 -0.48083971
vn 0.74005531 0.50484462 -0.44435351
vn 0.76186607 0.51239301 -0.39624927
vn 0.76558367 0.51150405 -0.39018618
vn 0.77644810 0.43929422 -0.45182844
vn 0.78719133 0.48229379 -0.38434685
vn 0.78862358 0.45606093 -0.41240910
vn 0.00000000 0.00000000 -1.00000000
vn 0.71979043 0.51219801 -0.46856690
vn 0.72516110 0.49288392 -0.48083971
vn 0.74005531 0.50484462 -0.44435351
vn 0.00000000 -0.00000000 -1.00000000
vn 0.79360452 0.33996502 -0.50459454
vn 0.79532931 0.35872574 -0.48863805
vn 0.79360452 0.33996502 -0.50459454
vn 0.79532931 0.35872574 -0.48863805
vn 0.83571999 0.37948030 -0.39694684
vn 0.84042916 0.37724591 -0.38905571
vn 0.85473407 0.35599628 -0.37775166
vn 0.85751520 0.31730854 -0.40494812
vn 0.84042916 0.37724591 -0.38905571
vn 0.84453076 0.37908701 -0.37823385
vn 0.85473407 0.35599628 -0.37775166
vn 0.85493438 0.37094172 -0.36261474
vn 0.85895669 0.36089728 -0.36324448
vn 0.85915499 0.35672250 -0.36688114
vn 0.00000000 -1.00000000 0.00000000
vn 0.85895669 0.36089728 -0.36324448
vn 0.85915499 0.35672250 -0.36688114
vn 0.86068531 0.36140862 -0.35861484
vn 0.86086715 0.36105714 -0.35853240
vn 0.00000000 -1.00000000 0.00000000
vn 0.31050549 -0.00802522 0.95053771
vn -0.00472694 -0.00844242 0.99995319
vn -0.01063774 -0.01053500 0.99988792
vn -0.04958057 -0.02667982 0.99841372
vn -0.27517901 -0.14196030 0.95085424
vn -0.39119337 -0.21565738 0.89468410
vn 0.00000000 1.00000000 -0.00000000
vn -0.17785115 0.24038694 0.95424477
vn -0.27517901 -0.14196030 0.95085424
vn -0.39119337 -0.21565738 0.89468410
vn -0.42911715 -0.23496750 0.87215179
vn 0.00000000 1.00000000 0.00000000
vn 0.69044311 0.64133588 -0.33462905
vn 0.69097392 0.63850977 -0.33891049
vn 0.00000000 1.00000000 0.00000000
vn 0.69044311 0.64133588 -0.33462905
vn 0.69551296 0.64698109 -0.31253351
vn 0.70028819 0.63714589 -0.32193409
vn 0.70039655 0.63769866 -0.32060113
vn 0.69551296 0.64698109 -0.31253351
vn 0.69773583 0.64805105 -0.30527781
vn 0.70039655 0.63769866 -0.32060113
vn 0.70667005 0.63907028 -0.30365541
vn 0.71314036 0.63218701 -0.30293633
vn 0.71320477 0.63189864 -0.30338601
vn 0.71314036 0.63218701 -0.30293633
vn 0.71320477 0.63189864 -0.30338601
vn 0.72814425 0.62162950 -0.28876066
vn 0.73716647 0.61313904 -0.28398259
vn 0.76186416 0.58328884 -0.28166846
vn 0.76380461 0.58028913 -0.28260760
vn 0.77358907 0.56310083 -0.29064996
vn 0.77621461 0.55612970 -0.29700275
vn 0.77358907 0.56310083 -0.29064996
vn 0.77621461 0.55612970 -0.29700275
vn 0.78220677 0.54453403 -0.30271317
vn 0.78228595 0.54441891 -0.30271562
vn 0.78989325 0.53894290 -0.29259052
vn 0.79113447 0.53978978 -0.28763387
vn 0.78220677 0.54453403 -0.30271317
vn 0.78228595 0.54441891 -0.30271562
vn 0.78458257 0.53226624 -0.31799819
vn 0.78466275 0.53225732 -0.31781521
vn 0.78181054 0.52643405 -0.33412494
vn 0.78189899 0.52614323 -0.33437593
vn 0.78458257 0.53226624 -0.31799819
vn 0.78466275 0.53225732 -0.31781521
vn 0.79063319 0.52410185 -0.31656976
vn 0.79111059 0.51972037 -0.32254420
vn 0.79117851 0.51979506 -0.32225714
vn 0.78074772 0.52377264 -0.34072749
vn 0.78086961 0.52279411 -0.34194878
vn 0.78189899 0.52614323 -0.33437593
vn 0.78592770 0.51592230 -0.34079587
vn 0.79111059 0.51972037 -0.32254420
vn 0.79206227 0.51322546 -0.33051021
vn 0.79219774 0.51350331 -0.32975306
vn 0.77987855 0.52333179 -0.34338503
vn 0.78074772 0.52377264 -0.34072749
vn 0.78086961 0.52279411 -0.34194878
vn 0.76906705 0.51199271 -0.38262167
vn 0.77613093 0.52359813 -0.35137697
vn 0.77987855 0.52333179 -0.34338503
vn 0.78086961 0.52279411 -0.34194878
vn 0.78592770 0.51592230 -0.34079587
vn 0.78787283 0.49885071 -0.36111546
vn 0.78794795 0.49907019 -0.36064799
vn 0.76558367 0.51150405 -0.39018618
vn 0.76906705 0.51199271 -0.38262167
vn 0.78719133 0.48229379 -0.38434685
vn 0.78787283 0.49885071 -0.36111546
vn 0.78987162 0.48460149 -0.37585133
vn 0.79116241 0.48851734 -0.36798485
vn 0.78719133 0.48229379 -0.38434685
vn 0.78862358 0.45606093 -0.41240910
vn 0.78987162 0.48460149 -0.37585133
vn 0.79162364 0.45506063 -0.40773992
vn 0.77329944 0.43409017 -0.46214034
vn 0.77644810 0.43929422 -0.45182844
vn 0.78862358 0.45606093 -0.41240910
vn 0.79162364 0.45506063 -0.40773992
vn 0.81803060 0.41659245 -0.39658123
vn 0.81805131 0.41426732 -0.39896698
vn 0.00000000 0.00000000 -1.00000000
vn 0.72486039 0.45427912 -0.51788792
vn 0.77329944 0.43409017 -0.46214034
vn 0.77644810 0.43929422 -0.45182844
vn 0.00000000 0.00000000 -1.00000000
vn 0.72486039 0.45427912 -0.51788792
vn 0.72516110 0.49288392 -0.48083971
vn -0.00000000 -0.00000000 -1.00000000
vn 0.79532931 0.35872574 -0.48863805
vn 0.82279275 0.40741858 -0.39626025
vn 0.83571999 0.37948030 -0.39694684
vn 0.83594071 0.38826812 -0.38788013
vn 0.83571999 0.37948030 -0.39694684
vn 0.83594071 0.38826812 -0.38788013
vn 0.84042916 0.37724591 -0.38905571
vn 0.84381840 0.39261650 -0.36581797
vn 0.84436551 0.39165443 -0.36558678
vn 0.84453076 0.37908701 -0.37823385
vn 0.84436551 0.39165443 -0.36558678
vn 0.84453076 0.37908701 -0.37823385
vn 0.85474570 0.38262501 -0.35072481
vn 0.85493438 0.37094172 -0.36261474
vn 0.85474570 0.38262501 -0.35072481
vn 0.85493438 0.37094172 -0.36261474
vn 0.85792487 0.38404816 -0.34127985
vn 0.85895669 0.36089728 -0.36324448
vn 0.86018596 0.38316634 -0.33654668
vn 0.86068531 0.36140862 -0.35861484
vn 0.86018596 0.38316634 -0.33654668
vn 0.86068531 0.36140862 -0.35861484
vn 0.86086715 0.36105714 -0.35853240
vn 0.86353967 0.38519636 -0.32545814
vn 0.88055563 0.32751171 -0.34257534
vn 0.88701862 0.34131976 -0.31096428
vn 0.88788412 0.33827118 -0.31182431
vn 0.88812654 0.33673192 -0.31279844
vn 0.88823006 0.32185405 -0.32780685
vn 0.00000000 -1.00000000 0.00000000
vn 0.86086715 0.36105714 -0.35853240
vn 0.88055563 0.32751171 -0.34257534
vn 0.00000000 -1.00000000 0.00000000
vn 0.31050549 -0.00802522 0.95053771
vn 0.39855288 0.11678673 0.90967932
vn 0.87014162 0.22234034 0.43979351
vn 0.18534048 0.08668772 0.97884327
vn 0.31050549 -0.00802522 0.95053771
vn 0.35754761 0.14263903 0.92293760
vn 0.39733762 0.14016129 0.90690553
vn 0.39855288 0.11678673 0.90967932
vn -0.00472694 -0.00844242 0.99995319
vn 0.18345890 0.08671886 0.97919491
vn 0.18534048 0.08668772 0.97884327
vn -0.00472694 -0.00844242 0.99995319
vn -0.01063774 -0.01053500 0.99988792
vn 0.00869963 0.01216485 0.99988816
vn 0.18345890 0.08671886 0.97919491
vn 0.20711256 0.11111981 0.97198600
vn -0.01063774 -0.01053500 0.99988792
vn -0.04958057 -0.02667982 0.99841372
vn 0.00869963 0.01216485 0.99988816
vn 0.21108777 0.21424454 0.95369871
vn -0.04958057 -0.02667982 0.99841372
vn -0.17785115 0.24038694 0.95424477
vn -0.27517901 -0.14196030 0.95085424
vn -0.00000000 1.00000000 -0.00000000
vn 0.21108777 0.21424454 0.95369871
vn 0.28656443 0.27118482 0.91887955
vn 0.29225048 0.30358948 0.90687545
vn -0.17785115 0.24038694 0.95424477
vn 0.00000000 1.00000000 0.00000000
vn 0.69551296 0.64698109 -0.31253351
vn 0.69773583 0.64805105 -0.30527781
vn 0.00000000 1.00000000 0.00000000
vn 0.69773583 0.64805105 -0.30527781
vn 0.70667005 0.63907028 -0.30365541
vn 0.00000000 1.00000000 0.00000000
vn 0.70667005 0.63907028 -0.30365541
vn 0.71314036 0.63218701 -0.30293633
vn 0.72814425 0.62162950 -0.28876066
vn 0.00000000 1.00000000 0.00000000
vn 0.72814425 0.62162950 -0.28876066
vn 0.73331820 0.62245865 -0.27347697
vn 0.73716647 0.61313904 -0.28398259
vn 0.74214071 0.60992081 -0.27789165
vn 0.73716647 0.61313904 -0.28398259
vn 0.74214071 0.60992081 -0.27789165
vn 0.75802733 0.58988615 -0.27826050
vn 0.76186416 0.58328884 -0.28166846
vn 0.75802733 0.58988615 -0.27826050
vn 0.76186416 0.58328884 -0.28166846
vn 0.76380461 0.58028913 -0.28260760
vn 0.76481859 0.58511413 -0.26961819
vn 0.76637835 0.58371007 -0.26822898
vn 0.78062037 0.56893945 -0.25872716
vn 0.79474127 0.53971144 -0.27766505
vn 0.79506738 0.53949029 -0.27716077
vn 0.79889074 0.53864298 -0.26765151
vn 0.79911429 0.54404416 -0.25579741
vn 0.79930260 0.53861607 -0.26647340
vn 0.79992898 0.54108223 -0.25950656
vn 0.76380461 0.58028913 -0.28260760
vn 0.77358907 0.56310083 -0.29064996
vn 0.79113447 0.53978978 -0.28763387
vn 0.79211395 0.53891922 -0.28656858
vn 0.79467342 0.53909954 -0.27904450
vn 0.79474127 0.53971144 -0.27766505
vn 0.79480396 0.53938426 -0.27812098
vn 0.78989325 0.53894290 -0.29259052
vn 0.79113447 0.53978978 -0.28763387
vn 0.79171645 0.53644816 -0.29224720
vn 0.79211395 0.53891922 -0.28656858
vn 0.78228595 0.54441891 -0.30271562
vn 0.78466275 0.53225732 -0.31781521
vn 0.78989325 0.53894290 -0.29259052
vn 0.79063319 0.52410185 -0.31656976
vn 0.79168403 0.52340544 -0.31509228
vn 0.79171645 0.53644816 -0.29224720
vn 0.79350199 0.52776111 -0.30302278
vn 0.79063319 0.52410185 -0.31656976
vn 0.79117851 0.51979506 -0.32225714
vn 0.79168403 0.52340544 -0.31509228
vn 0.79235883 0.51998667 -0.31903188
vn 0.79111059 0.51972037 -0.32254420
vn 0.79117851 0.51979506 -0.32225714
vn 0.79219774 0.51350331 -0.32975306
vn 0.79235883 0.51998667 -0.31903188
vn 0.79981708 0.51028794 -0.31606780
vn 0.80005955 0.50835570 -0.31855801
vn 0.79206227 0.51322546 -0.33051021
vn 0.79219774 0.51350331 -0.32975306
vn 0.79346613 0.50361177 -0.34174067
vn 0.80005955 0.50835570 -0.31855801
vn 0.81451390 0.47334684 -0.33542492
vn 0.82026568 0.47871363 -0.31304547
vn 0.82173114 0.46758221 -0.32576804
vn 0.78592770 0.51592230 -0.34079587
vn 0.78794795 0.49907019 -0.36064799
vn 0.79206227 0.51322546 -0.33051021
vn 0.79346613 0.50361177 -0.34174067
vn 0.78787283 0.49885071 -0.36111546
vn 0.78794795 0.49907019 -0.36064799
vn 0.79116241 0.48851734 -0.36798485
vn 0.79346613 0.50361177 -0.34174067
vn 0.81255836 0.47221040 -0.34171076
vn 0.81451390 0.47334684 -0.33542492
vn 0.78987162 0.48460149 -0.37585133
vn 0.79116241 0.48851734 -0.36798485
vn 0.79162364 0.45506063 -0.40773992
vn 0.81255836 0.47221040 -0.34171076
vn 0.81803060 0.41659245 -0.39658123
vn 0.83651495 0.43500987 -0.33318035
vn 0.83878277 0.42961009 -0.33448263
vn 0.84055949 0.40160838 -0.36355254
vn 0.00000000 0.00000000 -1.00000000
vn 0.77329944 0.43409017 -0.46214034
vn 0.81805131 0.41426732 -0.39896698
vn 0.82279275 0.40741858 -0.39626025
vn 0.81803060 0.41659245 -0.39658123
vn 0.81805131 0.41426732 -0.39896698
vn 0.82279275 0.40741858 -0.39626025
vn 0.83594071 0.38826812 -0.38788013
vn 0.84055949 0.40160838 -0.36355254
vn 0.84362568 0.39428335 -0.36446722
vn 0.84381840 0.39261650 -0.36581797
vn 0.84362568 0.39428335 -0.36446722
vn 0.84381840 0.39261650 -0.36581797
vn 0.84436551 0.39165443 -0.36558678
vn 0.85009386 0.39730637 -0.34567047
vn 0.85474570 0.38262501 -0.35072481
vn 0.85792487 0.38404816 -0.34127985
vn 0.84956073 0.40702390 -0.33552661
vn 0.85009386 0.39730637 -0.34567047
vn 0.85792487 0.38404816 -0.34127985
vn 0.85841017 0.39927621 -0.32204113
vn 0.86016440 0.39706891 -0.32008355
vn 0.86018596 0.38316634 -0.33654668
vn 0.86353967 0.38519636 -0.32545814
vn 0.86466563 0.38914540 -0.31767784
vn 0.00000000 -1.00000000 0.00000000
vn 0.88812654 0.33673192 -0.31279844
vn 0.88823006 0.32185405 -0.32780685
vn 0.00000000 -1.00000000 0.00000000
vn 0.88055563 0.32751171 -0.34257534
vn 0.88823006 0.32185405 -0.32780685
vn 0.86353967 0.38519636 -0.32545814
vn 0.86466563 0.38914540 -0.31767784
vn 0.86749877 0.39091286 -0.30762480
vn 0.86761109 0.39091990 -0.30729894
vn 0.86844117 0.39019815 -0.30586817
vn 0.88005199 0.36917487 -0.29869452
vn 0.88572580 0.35185354 -0.30280173
vn 0.88701862 0.34131976 -0.31096428
vn -0.00000000 -1.00000000 0.00000000
vn 0.88572580 0.35185354 -0.30280173
vn 0.88701862 0.34131976 -0.31096428
vn 0.88788412 0.33827118 -0.31182431
vn 0.88871710 0.34457686 -0.30240486
vn 0.00000000 -1.00000000 0.00000000
vn 0.88788412 0.33827118 -0.31182431
vn 0.88812654 0.33673192 -0.31279844
vn 0.00000000 -1.00000000 0.00000000
vn 0.87014162 0.22234034 0.43979351
vn 0.87033335 0.22311011 0.43902361
vn 0.39733762 0.14016129 0.90690553
vn 0.39855288 0.11678673 0.90967932
vn 0.45290747 0.19235019 0.87056087
vn 0.47870076 0.20956118 0.85260172
vn 0.60048253 0.25243801 0.75874619
vn 0.87014162 0.22234034 0.43979351
vn 0.87033335 0.22311011 0.43902361
vn 0.87162049 0.23017933 0.43277615
vn 0.87414062 0.24709410 0.41811803
vn 0.35754761 0.14263903 0.92293760
vn 0.39733762 0.14016129 0.90690553
vn 0.45290747 0.19235019 0.87056087
vn 0.18345890 0.08671886 0.97919491
vn 0.18534048 0.08668772 0.97884327
vn 0.20711256 0.11111981 0.97198600
vn 0.26387891 0.14951234 0.95289767
vn 0.35754761 0.14263903 0.92293760
vn 0.43218605 0.23229596 0.87135171
vn 0.45290747 0.19235019 0.87056087
vn 0.47697570 0.22537571 0.84952926
vn 0.47870076 0.20956118 0.85260172
vn 0.00869963 0.01216485 0.99988816
vn 0.20711256 0.11111981 0.97198600
vn 0.21108777 0.21424454 0.95369871
vn 0.26387891 0.14951234 0.95289767
vn 0.28656443 0.27118482 0.91887955
vn 0.36823376 0.26104754 0.89233294
vn 0.28656443 0.27118482 0.91887955
vn 0.29225048 0.30358948 0.90687545
vn 0.36823376 0.26104754 0.89233294
vn 0.44122914 0.29262674 0.84834335
vn 0.48795572 0.33763582 0.80492314
vn 0.49617232 0.36248242 0.78893569
vn -0.00000000 1.00000000 -0.00000000
vn 0.29225048 0.30358948 0.90687545
vn 0.49617232 0.36248242 0.78893569
vn 0.66052533 0.68507076 0.30722034
vn 0.00000000 1.00000000 0.00000000
vn 0.73331820 0.62245865 -0.27347697
vn 0.73352402 0.62263336 -0.27252564
vn 0.73331820 0.62245865 -0.27347697
vn 0.73352402 0.62263336 -0.27252564
vn 0.74214071 0.60992081 -0.27789165
vn 0.75802733 0.58988615 -0.27826050
vn 0.76481859 0.58511413 -0.26961819
vn 0.79691171 0.53730864 -0.27609988
vn 0.79889074 0.53864298 -0.26765151
vn 0.79930260 0.53861607 -0.26647340
vn 0.80247671 0.53564736 -0.26289359
vn 0.80918701 0.52652139 -0.26075201
vn 0.81496279 0.51515188 -0.26543208
vn 0.81802100 0.50685821 -0.27191249
vn 0.79467342 0.53909954 -0.27904450
vn 0.79480396 0.53938426 -0.27812098
vn 0.79506738 0.53949029 -0.27716077
vn 0.79691171 0.53730864 -0.27609988
vn 0.79889074 0.53864298 -0.26765151
vn 0.79474127 0.53971144 -0.27766505
vn 0.79480396 0.53938426 -0.27812098
vn 0.79506738 0.53949029 -0.27716077
vn 0.00000000 1.00000000 0.00000000
vn 0.73352402 0.62263336 -0.27252564
vn 0.76481859 0.58511413 -0.26961819
vn 0.76637835 0.58371007 -0.26822898
vn 0.00000000 1.00000000 0.00000000
vn 0.76637835 0.58371007 -0.26822898
vn 0.78062037 0.56893945 -0.25872716
vn 0.78521121 0.56474675 -0.25397729
vn 0.78062037 0.56893945 -0.25872716
vn 0.78521121 0.56474675 -0.25397729
vn 0.78738973 0.56251021 -0.25218977
vn 0.78830015 0.56145212 -0.25170299
vn 0.79787287 0.54911200 -0.24874667
vn 0.79911429 0.54404416 -0.25579741
vn 0.79977132 0.54476606 -0.25218204
vn 0.79911429 0.54404416 -0.25579741
vn 0.79977132 0.54476606 -0.25218204
vn 0.79992898 0.54108223 -0.25950656
vn 0.80002390 0.54442068 -0.25212673
vn 0.80105985 0.54045264 -0.25732092
vn 0.79930260 0.53861607 -0.26647340
vn 0.79992898 0.54108223 -0.25950656
vn 0.80105985 0.54045264 -0.25732092
vn 0.80163482 0.53964647 -0.25722228
vn 0.80247671 0.53564736 -0.26289359
vn 0.79171645 0.53644816 -0.29224720
vn 0.79211395 0.53891922 -0.28656858
vn 0.79350199 0.52776111 -0.30302278
vn 0.79467342 0.53909954 -0.27904450
vn 0.79691171 0.53730864 -0.27609988
vn 0.81002899 0.50423066 -0.29934007
vn 0.81802100 0.50685821 -0.27191249
vn 0.81839921 0.50604019 -0.27229776
vn 0.82042886 0.49674596 -0.28308997
vn 0.79168403 0.52340544 -0.31509228
vn 0.79235883 0.51998667 -0.31903188
vn 0.79350199 0.52776111 -0.30302278
vn 0.79981708 0.51028794 -0.31606780
vn 0.81002899 0.50423066 -0.29934007
vn 0.81032430 0.50212856 -0.30206197
vn 0.79981708 0.51028794 -0.31606780
vn 0.80005955 0.50835570 -0.31855801
vn 0.81032430 0.50212856 -0.30206197
vn 0.82026568 0.47871363 -0.31304547
vn 0.82183549 0.48598858 -0.29732395
vn 0.82344352 0.47714486 -0.30703998
vn 0.82026568 0.47871363 -0.31304547
vn 0.82173114 0.46758221 -0.32576804
vn 0.82344352 0.47714486 -0.30703998
vn 0.82602312 0.47163974 -0.30861264
vn 0.82793263 0.45785122 -0.32388243
vn 0.81255836 0.47221040 -0.34171076
vn 0.81451390 0.47334684 -0.33542492
vn 0.82173114 0.46758221 -0.32576804
vn 0.82793263 0.45785122 -0.32388243
vn 0.83651495 0.43500987 -0.33318035
vn 0.83878277 0.42961009 -0.33448263
vn 0.84055949 0.40160838 -0.36355254
vn 0.84156291 0.42464663 -0.33383695
vn 0.84362568 0.39428335 -0.36446722
vn 0.84956073 0.40702390 -0.33552661
vn 0.85009386 0.39730637 -0.34567047
vn 0.82602312 0.47163974 -0.30861264
vn 0.82793263 0.45785122 -0.32388243
vn 0.83448733 0.46544102 -0.29495008
vn 0.83651495 0.43500987 -0.33318035
vn 0.83878277 0.42961009 -0.33448263
vn 0.84156291 0.42464663 -0.33383695
vn 0.85841017 0.39927621 -0.32204113
vn 0.86016440 0.39706891 -0.32008355
vn 0.86749877 0.39091286 -0.30762480
vn 0.86761109 0.39091990 -0.30729894
vn 0.86791932 0.40874624 -0.28221015
vn 0.86836772 0.39140309 -0.30453429
vn 0.86854842 0.40669383 -0.28323802
vn 0.86978584 0.39327317 -0.29800805
vn 0.84156291 0.42464663 -0.33383695
vn 0.84956073 0.40702390 -0.33552661
vn 0.85841017 0.39927621 -0.32204113
vn 0.86016440 0.39706891 -0.32008355
vn 0.86466563 0.38914540 -0.31767784
vn 0.86749877 0.39091286 -0.30762480
vn 0.86761109 0.39091990 -0.30729894
vn 0.86836772 0.39140309 -0.30453429
vn 0.86844117 0.39019815 -0.30586817
vn 0.86836772 0.39140309 -0.30453429
vn 0.86844117 0.39019815 -0.30586817
vn 0.86978584 0.39327317 -0.29800805
vn 0.87151387 0.39425701 -0.29159044
vn 0.87759929 0.37869969 -0.29394902
vn 0.88005199 0.36917487 -0.29869452
vn 0.87588323 0.39615689 -0.27547827
vn 0.87647923 0.39559211 -0.27439213
vn 0.87759929 0.37869969 -0.29394902
vn 0.88005199 0.36917487 -0.29869452
vn 0.88572580 0.35185354 -0.30280173
vn 0.88871710 0.34457686 -0.30240486
vn 0.90648706 0.31135191 -0.28520377
vn 0.90697654 0.33377709 -0.25687819
vn 0.91226590 0.31709819 -0.25926754
vn 0.91242724 0.31602255 -0.26001210
vn 0.91286564 0.30484950 -0.27155682
vn 0.00000000 -1.00000000 0.00000000
vn 0.88871710 0.34457686 -0.30240486
vn 0.90648706 0.31135191 -0.28520377
vn 0.00000000 -1.00000000 0.00000000
vn 0.87033335 0.22311011 0.43902361
vn 0.87162049 0.23017933 0.43277615
vn 0.96629654 0.25518158 -0.03396104
vn 0.87162049 0.23017933 0.43277615
vn 0.87414062 0.24709410 0.41811803
vn 0.88769241 0.26877642 0.37384678
vn 0.92441667 0.32018155 0.20721388
vn 0.93969483 0.32547330 -0.10507497
vn 0.96629654 0.25518158 -0.03396104
vn 0.60048253 0.25243801 0.75874619
vn 0.68534044 0.29559790 0.66553014
vn 0.87414062 0.24709410 0.41811803
vn 0.88769241 0.26877642 0.37384678
vn 0.47697570 0.22537571 0.84952926
vn 0.47870076 0.20956118 0.85260172
vn 0.58047898 0.30867074 0.75350284
vn 0.60048253 0.25243801 0.75874619
vn 0.68534044 0.29559790 0.66553014
vn 0.70497740 0.31019050 0.63779990
vn 0.26387891 0.14951234 0.95289767
vn 0.36823376 0.26104754 0.89233294
vn 0.43218605 0.23229596 0.87135171
vn 0.44122914 0.29262674 0.84834335
vn 0.47899622 0.28769218 0.82933457
vn 0.47912117 0.28685915 0.82955092
vn 0.43218605 0.23229596 0.87135171
vn 0.47697570 0.22537571 0.84952926
vn 0.47912117 0.28685915 0.82955092
vn 0.58047898 0.30867074 0.75350284
vn 0.58133474 0.31099216 0.75188682
vn 0.44122914 0.29262674 0.84834335
vn 0.47899622 0.28769218 0.82933457
vn 0.48795572 0.33763582 0.80492314
vn 0.57320688 0.36767537 0.73229003
vn 0.48795572 0.33763582 0.80492314
vn 0.49617232 0.36248242 0.78893569
vn 0.57320688 0.36767537 0.73229003
vn 0.60149730 0.38496399 0.70000266
vn 0.66052533 0.68507076 0.30722034
vn 0.74479419 0.63354742 0.20952153
vn 0.78679211 0.59749350 0.15478918
vn 0.78967047 0.59467270 0.15094676
vn -0.00000000 1.00000000 -0.00000000
vn 0.66052533 0.68507076 0.30722034
vn 0.74479419 0.63354742 0.20952153
vn 0.80163482 0.53964647 -0.25722228
vn 0.80247671 0.53564736 -0.26289359
vn 0.80448896 0.53756632 -0.25262613
vn 0.80544780 0.53586636 -0.25318191
vn 0.80830572 0.52972230 -0.25697501
vn 0.80918701 0.52652139 -0.26075201
vn 0.80830572 0.52972230 -0.25697501
vn 0.80918701 0.52652139 -0.26075201
vn 0.81496279 0.51515188 -0.26543208
vn 0.83093594 0.49105548 -0.26155301
vn 0.83768206 0.48541241 -0.25032689
vn 0.83802153 0.48342749 -0.25301734
vn 0.81496279 0.51515188 -0.26543208
vn 0.81802100 0.50685821 -0.27191249
vn 0.81839921 0.50604019 -0.27229776
vn 0.82564462 0.49508866 -0.27055162
vn 0.83052875 0.49081484 -0.26329220
vn 0.83093594 0.49105548 -0.26155301
vn 0.00000000 1.00000000 0.00000000
vn 0.78521121 0.56474675 -0.25397729
vn 0.78738973 0.56251021 -0.25218977
vn 0.00000000 1.00000000 0.00000000
vn 0.77685125 0.58615072 -0.23006408
vn 0.78738973 0.56251021 -0.25218977
vn 0.78830015 0.56145212 -0.25170299
vn 0.79502253 0.55743982 -0.23916529
vn 0.79584011 0.55572381 -0.24043620
vn 0.78830015 0.56145212 -0.25170299
vn 0.79584011 0.55572381 -0.24043620
vn 0.79760643 0.55274485 -0.24144796
vn 0.79787287 0.54911200 -0.24874667
vn 0.79872059 0.54931329 -0.24556126
vn 0.79787287 0.54911200 -0.24874667
vn 0.79872059 0.54931329 -0.24556126
vn 0.79977132 0.54476606 -0.25218204
vn 0.80002390 0.54442068 -0.25212673
vn 0.80331354 0.54162645 -0.24764521
vn 0.80345744 0.54172348 -0.24696522
vn 0.80379587 0.54205074 -0.24513915
vn 0.80382905 0.54218499 -0.24473310
vn 0.80002390 0.54442068 -0.25212673
vn 0.80105985 0.54045264 -0.25732092
vn 0.80163482 0.53964647 -0.25722228
vn 0.80333042 0.54160271 -0.24764236
vn 0.80448896 0.53756632 -0.25262613
vn 0.81839921 0.50604019 -0.27229776
vn 0.82042886 0.49674596 -0.28308997
vn 0.82283616 0.49191033 -0.28454327
vn 0.82564462 0.49508866 -0.27055162
vn 0.82668145 0.48993029 -0.27670580
vn 0.81002899 0.50423066 -0.29934007
vn 0.81032430 0.50212856 -0.30206197
vn 0.82042886 0.49674596 -0.28308997
vn 0.82183549 0.48598858 -0.29732395
vn 0.82283616 0.49191033 -0.28454327
vn 0.82397725 0.48648921 -0.29049911
vn 0.82183549 0.48598858 -0.29732395
vn 0.82344352 0.47714486 -0.30703998
vn 0.82397725 0.48648921 -0.29049911
vn 0.82602312 0.47163974 -0.30861264
vn 0.83362579 0.47230791 -0.28634469
vn 0.83448733 0.46544102 -0.29495008
vn 0.83362579 0.47230791 -0.28634469
vn 0.83448733 0.46544102 -0.29495008
vn 0.84172832 0.46479143 -0.27470414
vn 0.85563754 0.44319623 -0.26732284
vn 0.86286458 0.42620275 -0.27169087
vn 0.86708930 0.41423362 -0.27670679
vn 0.86791932 0.40874624 -0.28221015
vn 0.86708930 0.41423362 -0.27670679
vn 0.86791932 0.40874624 -0.28221015
vn 0.86854842 0.40669383 -0.28323802
vn 0.87196780 0.39748476 -0.28579366
vn 0.87388088 0.40160848 -0.27393948
vn 0.87426947 0.39813377 -0.27774520
vn 0.86854842 0.40669383 -0.28323802
vn 0.86978584 0.39327317 -0.29800805
vn 0.87151387 0.39425701 -0.29159044
vn 0.87196780 0.39748476 -0.28579366
vn 0.87151387 0.39425701 -0.29159044
vn 0.87196780 0.39748476 -0.28579366
vn 0.87426947 0.39813377 -0.27774520
vn 0.87524048 0.39770531 -0.27529003
vn 0.87588323 0.39615689 -0.27547827
vn 0.87759929 0.37869969 -0.29394902
vn 0.00000000 -1.00000000 -0.00000000
vn 0.91226590 0.31709819 -0.25926754
vn 0.91242724 0.31602255 -0.26001210
vn 0.91592227 0.30592104 -0.25980513
vn 0.00000000 -1.00000000 -0.00000000
vn 0.91242724 0.31602255 -0.26001210
vn 0.91286564 0.30484950 -0.27155682
vn 0.00000000 -1.00000000 -0.00000000
vn 0.90648706 0.31135191 -0.28520377
vn 0.91286564 0.30484950 -0.27155682
vn 0.87524048 0.39770531 -0.27529003
vn 0.87582666 0.39933753 -0.27102989
vn 0.87588323 0.39615689 -0.27547827
vn 0.87615579 0.39944134 -0.26981038
vn 0.87647923 0.39559211 -0.27439213
vn 0.87615579 0.39944134 -0.26981038
vn 0.87647923 0.39559211 -0.27439213
vn 0.87709644 0.40043509 -0.26524247
vn 0.87729930 0.40042016 -0.26459335
vn 0.88216807 0.39512230 -0.25623792
vn 0.89174970 0.37718969 -0.25002082
vn 0.90553116 0.33862233 -0.25563301
vn 0.90697654 0.33377709 -0.25687819
vn 0.90553116 0.33862233 -0.25563301
vn 0.90697654 0.33377709 -0.25687819
vn 0.91226590 0.31709819 -0.25926754
vn 0.91592227 0.30592104 -0.25980513
vn 0.92880562 0.27520311 -0.24815997
vn 0.92907594 0.28398791 -0.23699949
vn 0.93007775 0.27940507 -0.23851245
vn 0.93020940 0.27349340 -0.24476892
vn 0.00000000 -1.00000000 -0.00000000
vn 0.92953345 0.31514006 -0.19145313
vn 0.93352981 0.32547008 -0.15030408
vn 0.93969483 0.32547330 -0.10507497
vn 0.96629654 0.25518158 -0.03396104
vn 0.92441667 0.32018155 0.20721388
vn 0.92718703 0.36861257 0.06670069
vn 0.92905557 0.36935543 -0.02079196
vn 0.93352981 0.32547008 -0.15030408
vn 0.93969483 0.32547330 -0.10507497
vn 0.68534044 0.29559790 0.66553014
vn 0.70497740 0.31019050 0.63779990
vn 0.88769241 0.26877642 0.37384678
vn 0.90502816 0.41960805 0.06966435
vn 0.90862355 0.41456978 0.05035028
vn 0.91025836 0.41143059 0.04641753
vn 0.92100941 0.38688968 0.04536572
vn 0.92441667 0.32018155 0.20721388
vn 0.92718703 0.36861257 0.06670069
vn 0.58047898 0.30867074 0.75350284
vn 0.58133474 0.31099216 0.75188682
vn 0.68424523 0.38457357 0.61960603
vn 0.70497740 0.31019050 0.63779990
vn 0.87893850 0.47286857 0.06214845
vn 0.90204354 0.42745542 0.05999434
vn 0.90502816 0.41960805 0.06966435
vn 0.47899622 0.28769218 0.82933457
vn 0.47912117 0.28685915 0.82955092
vn 0.57320688 0.36767537 0.73229003
vn 0.58133474 0.31099216 0.75188682
vn 0.60149730 0.38496399 0.70000266
vn 0.68424523 0.38457357 0.61960603
vn 0.60149730 0.38496399 0.70000266
vn 0.68424523 0.38457357 0.61960603
vn 0.78967047 0.59467270 0.15094676
vn 0.81873083 0.57401341 0.01372716
vn 0.82151925 0.57018078 0.00000000
vn 0.87126910 0.49080562 0.00000000
vn 0.87855887 0.47435412 0.05587922
vn 0.87893850 0.47286857 0.06214845
vn 0.78369483 0.59514140 -0.17784581
vn 0.78679211 0.59749350 0.15478918
vn 0.78967047 0.59467270 0.15094676
vn 0.80151882 0.57750878 -0.15508443
vn 0.81605432 0.57213690 -0.08194334
vn 0.81873083 0.57401341 0.01372716
vn -0.00000000 1.00000000 -0.00000000
vn 0.74479419 0.63354742 0.20952153
vn 0.76223328 0.61404747 -0.20480756
vn 0.78369483 0.59514140 -0.17784581
vn 0.78679211 0.59749350 0.15478918
vn 0.80334272 0.54158541 -0.24764029
vn 0.80345744 0.54172348 -0.24696522
vn 0.80379587 0.54205074 -0.24513915
vn 0.80448896 0.53756632 -0.25262613
vn 0.80544780 0.53586636 -0.25318191
vn 0.80379587 0.54205074 -0.24513915
vn 0.80382905 0.54218499 -0.24473310
vn 0.80475797 0.54212783 -0.24178920
vn 0.80544780 0.53586636 -0.25318191
vn 0.80727207 0.53995978 -0.23823357
vn 0.80830572 0.52972230 -0.25697501
vn 0.83643697 0.49617200 -0.23278004
vn 0.83768206 0.48541241 -0.25032689
vn 0.83831703 0.49177473 -0.23533417
vn 0.84053939 0.48291325 -0.24553682
vn 0.83052875 0.49081484 -0.26329220
vn 0.83093594 0.49105548 -0.26155301
vn 0.83802153 0.48342749 -0.25301734
vn 0.84576235 0.46642836 -0.25909579
vn 0.84589665 0.47127182 -0.24972329
vn 0.84708107 0.46715561 -0.25341528
vn 0.83768206 0.48541241 -0.25032689
vn 0.83802153 0.48342749 -0.25301734
vn 0.84053939 0.48291325 -0.24553682
vn 0.84576654 0.47279412 -0.24727452
vn 0.84589665 0.47127182 -0.24972329
vn 0.84616105 0.47133909 -0.24869850
vn 0.82564462 0.49508866 -0.27055162
vn 0.82668145 0.48993029 -0.27670580
vn 0.83052875 0.49081484 -0.26329220
vn 0.84150394 0.46657252 -0.27236228
vn 0.84576235 0.46642836 -0.25909579
vn 0.84662332 0.46198850 -0.26418853
vn 0.00000000 1.00000000 0.00000000
vn 0.77685125 0.58615072 -0.23006408
vn 0.77719083 0.58640694 -0.22825711
vn 0.77685125 0.58615072 -0.23006408
vn 0.77719083 0.58640694 -0.22825711
vn 0.79502253 0.55743982 -0.23916529
vn 0.79817215 0.55316520 -0.23859899
vn 0.79946300 0.55683301 -0.22537950
vn 0.80077865 0.55497160 -0.22529995
vn 0.79502253 0.55743982 -0.23916529
vn 0.79584011 0.55572381 -0.24043620
vn 0.79760643 0.55274485 -0.24144796
vn 0.79817215 0.55316520 -0.23859899
vn 0.79867008 0.55219951 -0.23916896
vn 0.79760643 0.55274485 -0.24144796
vn 0.79867008 0.55219951 -0.23916896
vn 0.79872059 0.54931329 -0.24556126
vn 0.80382905 0.54218499 -0.24473310
vn 0.80475797 0.54212783 -0.24178920
vn 0.80506638 0.54327467 -0.23816121
vn 0.80516267 0.54284176 -0.23882190
vn 0.80332755 0.54160675 -0.24764285
vn 0.80345744 0.54172348 -0.24696522
vn 0.82283616 0.49191033 -0.28454327
vn 0.82397725 0.48648921 -0.29049911
vn 0.82668145 0.48993029 -0.27670580
vn 0.83362579 0.47230791 -0.28634469
vn 0.84150394 0.46657252 -0.27236228
vn 0.84172832 0.46479143 -0.27470414
vn 0.84150394 0.46657252 -0.27236228
vn 0.84172832 0.46479143 -0.27470414
vn 0.84662332 0.46198850 -0.26418853
vn 0.85523193 0.44436396 -0.26668150
vn 0.85563754 0.44319623 -0.26732284
vn 0.85321990 0.45446669 -0.25588244
vn 0.85508805 0.45293342 -0.25234055
vn 0.85523193 0.44436396 -0.26668150
vn 0.85563754 0.44319623 -0.26732284
vn 0.86286458 0.42620275 -0.27169087
vn 0.87703866 0.40050377 -0.26532984
vn 0.87709644 0.40043509 -0.26524247
vn 0.87729930 0.40042016 -0.26459335
vn 0.87889705 0.41028272 -0.24332706
vn 0.87939234 0.40883619 -0.24397148
vn 0.87963720 0.40200946 -0.25421800
vn 0.88012921 0.40329054 -0.25045821
vn 0.86286458 0.42620275 -0.27169087
vn 0.86708930 0.41423362 -0.27670679
vn 0.87388088 0.40160848 -0.27393948
vn 0.87556274 0.39982978 -0.27115684
vn 0.87703866 0.40050377 -0.26532984
vn 0.87388088 0.40160848 -0.27393948
vn 0.87426947 0.39813377 -0.27774520
vn 0.87524048 0.39770531 -0.27529003
vn 0.87556274 0.39982978 -0.27115684
vn 0.87582666 0.39933753 -0.27102989
vn 0.00000000 -1.00000000 -0.00000000
vn 0.91592227 0.30592104 -0.25980513
vn 0.92880562 0.27520311 -0.24815997
vn 0.87556274 0.39982978 -0.27115684
vn 0.87582666 0.39933753 -0.27102989
vn 0.87615579 0.39944134 -0.26981038
vn 0.87703866 0.40050377 -0.26532984
vn 0.87709644 0.40043509 -0.26524247
vn 0.87729930 0.40042016 -0.26459335
vn 0.87963720 0.40200946 -0.25421800
vn 0.88038640 0.40139988 -0.25258251
vn 0.88179455 0.39870736 -0.25193414
vn 0.88216807 0.39512230 -0.25623792
vn 0.88179455 0.39870736 -0.25193414
vn 0.88216807 0.39512230 -0.25623792
vn 0.88414962 0.39631666 -0.24741171
vn 0.89125004 0.37867676 -0.24955415
vn 0.89174970 0.37718969 -0.25002082
vn 0.88422498 0.40170152 -0.23828988
vn 0.88441693 0.40035495 -0.23983870
vn 0.89125004 0.37867676 -0.24955415
vn 0.89174970 0.37718969 -0.25002082
vn 0.90553116 0.33862233 -0.25563301
vn 0.92169002 0.31928468 -0.22032885
vn 0.92282611 0.31597204 -0.22034891
vn 0.92907594 0.28398791 -0.23699949
vn 0.93200437 0.28454491 -0.22450402
vn 0.93272999 0.27909569 -0.22829884
vn 0.00000000 -1.00000000 -0.00000000
vn 0.92907594 0.28398791 -0.23699949
vn 0.93007775 0.27940507 -0.23851245
vn 0.93272999 0.27909569 -0.22829884
vn 0.00000000 -1.00000000 -0.00000000
vn 0.93007775 0.27940507 -0.23851245
vn 0.93020940 0.27349340 -0.24476892
vn 0.00000000 -1.00000000 -0.00000000
vn 0.92880562 0.27520311 -0.24815997
vn 0.93020940 0.27349340 -0.24476892
vn 0.00000000 -1.00000000 -0.00000000
vn 0.92282611 0.31597204 -0.22034891
vn 0.92488534 0.31707002 -0.20988978
vn 0.92953345 0.31514006 -0.19145313
vn 0.93200437 0.28454491 -0.22450402
vn 0.87769094 0.41687139 -0.23638285
vn 0.88235451 0.40575071 -0.23836290
vn 0.88248374 0.40545232 -0.23839223
vn 0.88377252 0.40262326 -0.23841276
vn 0.88422498 0.40170152 -0.23828988
vn 0.89994084 0.43123918 -0.06433708
vn 0.90270578 0.42776924 -0.04621415
vn 0.90977170 0.41509364 -0.00356642
vn 0.91124056 0.41187454 0.00000000
vn 0.92169002 0.31928468 -0.22032885
vn 0.92195861 0.38728842 0.00000000
vn 0.92488534 0.31707002 -0.20988978
vn 0.92905557 0.36935543 -0.02079196
vn 0.92953345 0.31514006 -0.19145313
vn 0.93352981 0.32547008 -0.15030408
vn 0.92100941 0.38688968 0.04536572
vn 0.92195861 0.38728842 0.00000000
vn 0.92718703 0.36861257 0.06670069
vn 0.92905557 0.36935543 -0.02079196
vn 0.91025836 0.41143059 0.04641753
vn 0.91124056 0.41187454 0.00000000
vn 0.92100941 0.38688968 0.04536572
vn 0.92195861 0.38728842 0.00000000
vn 0.90862355 0.41456978 0.05035028
vn 0.90977170 0.41509364 -0.00356642
vn 0.91025836 0.41143059 0.04641753
vn 0.91124056 0.41187454 0.00000000
vn 0.90204354 0.42745542 0.05999434
vn 0.90270578 0.42776924 -0.04621415
vn 0.90502816 0.41960805 0.06966435
vn 0.90862355 0.41456978 0.05035028
vn 0.90977170 0.41509364 -0.00356642
vn 0.87797722 0.47404007 -0.06664838
vn 0.87855887 0.47435412 0.05587922
vn 0.87893850 0.47286857 0.06214845
vn 0.89994084 0.43123918 -0.06433708
vn 0.90204354 0.42745542 0.05999434
vn 0.90270578 0.42776924 -0.04621415
vn 0.86907874 0.49210644 -0.05033292
vn 0.86981602 0.49316174 -0.01454633
vn 0.87072858 0.48520618 -0.08004195
vn 0.87126910 0.49080562 0.00000000
vn 0.87797722 0.47404007 -0.06664838
vn 0.87855887 0.47435412 0.05587922
vn 0.82151925 0.57018078 0.00000000
vn 0.82443295 0.56527717 -0.02778556
vn 0.82658730 0.56178175 -0.03398106
vn 0.86325651 0.50369034 -0.03292767
vn 0.86981602 0.49316174 -0.01454633
vn 0.87126910 0.49080562 0.00000000
vn 0.81605432 0.57213690 -0.08194334
vn 0.81873083 0.57401341 0.01372716
vn 0.82151925 0.57018078 0.00000000
vn 0.82396429 0.56521702 -0.04015689
vn 0.82443295 0.56527717 -0.02778556
vn 0.79970160 0.55731040 -0.22334386
vn 0.80115846 0.55465446 -0.22472996
vn 0.80145476 0.55413376 -0.22495786
vn 0.80151882 0.57750878 -0.15508443
vn 0.80602860 0.54625723 -0.22786166
vn 0.81425898 0.53291878 -0.23017360
vn 0.81605432 0.57213690 -0.08194334
vn 0.82231182 0.52005202 -0.23097440
vn 0.82396429 0.56521702 -0.04015689
vn 0.82658730 0.56178175 -0.03398106
vn 0.83507237 0.49895767 -0.23172265
vn 0.84156798 0.48832355 -0.23087537
vn 0.84221473 0.48725892 -0.23076633
vn 0.86325651 0.50369034 -0.03292767
vn 0.86907874 0.49210644 -0.05033292
vn 0.87072858 0.48520618 -0.08004195
vn 0.76223328 0.61404747 -0.20480756
vn 0.78369483 0.59514140 -0.17784581
vn 0.79970160 0.55731040 -0.22334386
vn 0.80151882 0.57750878 -0.15508443
vn 0.00000000 1.00000000 -0.00000000
vn 0.00000000 1.00000000 0.00000000
vn 0.76223328 0.61404747 -0.20480756
vn 0.79970160 0.55731040 -0.22334386
vn 0.80085110 0.55489504 -0.22523103
vn 0.80110577 0.55461798 -0.22500764
vn 0.80115846 0.55465446 -0.22472996
vn 0.80475797 0.54212783 -0.24178920
vn 0.80516267 0.54284176 -0.23882190
vn 0.80541377 0.54289356 -0.23785549
vn 0.80601509 0.54245966 -0.23680623
vn 0.80727207 0.53995978 -0.23823357
vn 0.80761520 0.54018929 -0.23654435
vn 0.80727207 0.53995978 -0.23823357
vn 0.80761520 0.54018929 -0.23654435
vn 0.80874224 0.53897587 -0.23545912
vn 0.81253391 0.53444070 -0.23272685
vn 0.82231182 0.52005202 -0.23097440
vn 0.83507237 0.49895767 -0.23172265
vn 0.83643629 0.49617404 -0.23277811
vn 0.83643308 0.49618376 -0.23276895
vn 0.83831703 0.49177473 -0.23533417
vn 0.84156798 0.48832355 -0.23087537
vn 0.84221473 0.48725892 -0.23076633
vn 0.84539824 0.47820111 -0.23796117
vn 0.84803709 0.47590195 -0.23313178
vn 0.83831703 0.49177473 -0.23533417
vn 0.84053939 0.48291325 -0.24553682
vn 0.84539824 0.47820111 -0.23796117
vn 0.84576654 0.47279412 -0.24727452
vn 0.84661974 0.47327107 -0.24341222
vn 0.84576235 0.46642836 -0.25909579
vn 0.84662332 0.46198850 -0.26418853
vn 0.84708107 0.46715561 -0.25341528
vn 0.85321990 0.45446669 -0.25588244
vn 0.85523193 0.44436396 -0.26668150
vn 0.84589665 0.47127182 -0.24972329
vn 0.84616105 0.47133909 -0.24869850
vn 0.84708107 0.46715561 -0.25341528
vn 0.85321990 0.45446669 -0.25588244
vn 0.85417373 0.45837884 -0.24551187
vn 0.85508805 0.45293342 -0.25234055
vn 0.84576654 0.47279412 -0.24727452
vn 0.84616105 0.47133909 -0.24869850
vn 0.84661974 0.47327107 -0.24341222
vn 0.85417373 0.45837884 -0.24551187
vn 0.85823921 0.45372688 -0.23991118
vn 0.00000000 1.00000000 0.00000000
vn 0.77719083 0.58640694 -0.22825711
vn 0.79946300 0.55683301 -0.22537950
vn 0.00000000 1.00000000 0.00000000
vn 0.00000000 1.00000000 0.00000000
vn 0.79946300 0.55683301 -0.22537950
vn 0.80077865 0.55497160 -0.22529995
vn 0.80085110 0.55489504 -0.22523103
vn 0.79817215 0.55316520 -0.23859899
vn 0.79867008 0.55219951 -0.23916896
vn 0.80077865 0.55497160 -0.22529995
vn 0.80085110 0.55489504 -0.22523103
vn 0.80110577 0.55461798 -0.22500764
vn 0.80145476 0.55413376 -0.22495786
vn 0.80506638 0.54327467 -0.23816121
vn 0.80541377 0.54289356 -0.23785549
vn 0.80602860 0.54625723 -0.22786166
vn 0.80601509 0.54245966 -0.23680623
vn 0.80620561 0.54258788 -0.23586204
vn 0.80506638 0.54327467 -0.23816121
vn 0.80516267 0.54284176 -0.23882190
vn 0.80541377 0.54289356 -0.23785549
vn 0.85417373 0.45837884 -0.24551187
vn 0.85508805 0.45293342 -0.25234055
vn 0.85823921 0.45372688 -0.23991118
vn 0.85866336 0.45313931 -0.23950364
vn 0.86803274 0.43661116 -0.23641036
vn 0.87755809 0.41713642 -0.23640854
vn 0.87889705 0.41028272 -0.24332706
vn 0.87755809 0.41713642 -0.23640854
vn 0.87769094 0.41687139 -0.23638285
vn 0.87889705 0.41028272 -0.24332706
vn 0.87939234 0.40883619 -0.24397148
vn 0.88084288 0.40534542 -0.24456269
vn 0.88126804 0.40506019 -0.24350130
vn 0.88235451 0.40575071 -0.23836290
vn 0.88238629 0.40557417 -0.23854566
vn 0.87939234 0.40883619 -0.24397148
vn 0.88012921 0.40329054 -0.25045821
vn 0.88013505 0.40329476 -0.25043089
vn 0.88084288 0.40534542 -0.24456269
vn 0.87963720 0.40200946 -0.25421800
vn 0.88012921 0.40329054 -0.25045821
vn 0.88013505 0.40329476 -0.25043089
vn 0.88038640 0.40139988 -0.25258251
vn 0.88013505 0.40329476 -0.25043089
vn 0.88038640 0.40139988 -0.25258251
vn 0.88084288 0.40534542 -0.24456269
vn 0.88126804 0.40506019 -0.24350130
vn 0.88179455 0.39870736 -0.25193414
vn 0.88342066 0.40091261 -0.24256345
vn 0.88414962 0.39631666 -0.24741171
vn 0.88342066 0.40091261 -0.24256345
vn 0.88407308 0.40120869 -0.23967975
vn 0.88414962 0.39631666 -0.24741171
vn 0.88441693 0.40035495 -0.23983870
vn 0.89125004 0.37867676 -0.24955415
vn 0.00000000 -1.00000000 -0.00000000
vn 0.93200437 0.28454491 -0.22450402
vn 0.93272999 0.27909569 -0.22829884
vn 0.88377252 0.40262326 -0.23841276
vn 0.88407308 0.40120869 -0.23967975
vn 0.88422498 0.40170152 -0.23828988
vn 0.88441693 0.40035495 -0.23983870
vn 0.92169002 0.31928468 -0.22032885
vn 0.92282611 0.31597204 -0.22034891
vn 0.92488534 0.31707002 -0.20988978
vn 0.84221473 0.48725892 -0.23076633
vn 0.84803709 0.47590195 -0.23313178
vn 0.86092393 0.45061532 -0.23612673
vn 0.86803274 0.43661116 -0.23641036
vn 0.87072858 0.48520618 -0.08004195
vn 0.87755809 0.41713642 -0.23640854
vn 0.87769094 0.41687139 -0.23638285
vn 0.87797722 0.47404007 -0.06664838
vn 0.89994084 0.43123918 -0.06433708
vn 0.88126804 0.40506019 -0.24350130
vn 0.88238629 0.40557417 -0.23854566
vn 0.88248374 0.40545232 -0.23839223
vn 0.88342066 0.40091261 -0.24256345
vn 0.88377252 0.40262326 -0.23841276
vn 0.88407308 0.40120869 -0.23967975
vn 0.88235451 0.40575071 -0.23836290
vn 0.88238629 0.40557417 -0.23854566
vn 0.88248374 0.40545232 -0.23839223
vn 0.86325651 0.50369034 -0.03292767
vn 0.86907874 0.49210644 -0.05033292
vn 0.86981602 0.49316174 -0.01454633
vn 0.82396429 0.56521702 -0.04015689
vn 0.82443295 0.56527717 -0.02778556
vn 0.82658730 0.56178175 -0.03398106
vn 0.83507237 0.49895767 -0.23172265
vn 0.83643263 0.49618510 -0.23276769
vn 0.84156798 0.48832355 -0.23087537
vn 0.81253391 0.53444070 -0.23272685
vn 0.81425898 0.53291878 -0.23017360
vn 0.82231182 0.52005202 -0.23097440
vn 0.80602860 0.54625723 -0.22786166
vn 0.80620561 0.54258788 -0.23586204
vn 0.80874224 0.53897587 -0.23545912
vn 0.81253391 0.53444070 -0.23272685
vn 0.81425898 0.53291878 -0.23017360
vn 0.80110577 0.55461798 -0.22500764
vn 0.80115846 0.55465446 -0.22472996
vn 0.80145476 0.55413376 -0.22495786
vn 0.80601509 0.54245966 -0.23680623
vn 0.80620561 0.54258788 -0.23586204
vn 0.80761520 0.54018929 -0.23654435
vn 0.80874224 0.53897587 -0.23545912
vn 0.84539824 0.47820111 -0.23796117
vn 0.84661974 0.47327107 -0.24341222
vn 0.84803709 0.47590195 -0.23313178
vn 0.85823921 0.45372688 -0.23991118
vn 0.85866336 0.45313931 -0.23950364
vn 0.86092393 0.45061532 -0.23612673
vn 0.85866336 0.45313931 -0.23950364
vn 0.86092393 0.45061532 -0.23612673
vn 0.86803274 0.43661116 -0.23641036
f 3//3 7//7 34//34
f 3//3 34//34 79//79
f 3//3 79//79 141//141
f 3//3 141//141 253//253
f 3//3 253//253 249//249
f 3//3 249//249 402//402
f 3//3 402//402 256//256
f 3//3 256//256 145//145
f 3//3 145//145 83//83
f 3//3 83//83 38//38
f 3//3 38//38 11//11
f 4//4 12//12 14//14
f 5//5 16//16 20//20
f 1//1 17//17 45//45
f 1//1 45//45 96//96
f 1//1 96//96 172//172
f 1//1 172//172 313//313
f 1//1 313//313 485//485
f 1//1 485//485 660//660
f 1//1 660//660 825//825
f 1//1 825//825 1037//1037
f 2//2 1038//1038 1088//1088
f 1//1 1087//1087 1084//1084
f 1//1 1084//1084 863//863
f 1//1 863//863 684//684
f 1//1 684//684 681//681
f 1//1 681//681 516//516
f 1//1 516//516 512//512
f 1//1 512//512 489//489
f 1//1 489//489 328//328
f 1//1 328//328 324//324
f 1//1 324//324 321//321
f 1//1 321//321 318//318
f 1//1 318//318 180//180
f 1//1 180//180 177//177
f 1//1 177//177 100//100
f 1//1 100//100 48//48
f 1//1 48//48 21//21
f 1//1 21//21 6//6
f 9//9 22//22 26//26
f 8//8 25//25 35//35
f 10//10 37//37 87//87
f 10//10 87//87 160//160
f 10//10 160//160 286//286
f 10//10 286//286 430//430
f 10//10 430//430 427//427
f 10//10 427//427 446//446
f 10//10 446//446 441//441
f 10//10 441//441 614//614
f 10//10 614//614 755//755
f 10//10 755//755 752//752
f 10//10 752//752 748//748
f 10//10 748//748 919//919
f 10//10 919//919 954//954
f 10//10 954//954 951//951
f 10//10 951//951 947//947
f 10//10 947//947 1141//1141
f 10//10 1141//1141 957//957
f 10//10 957//957 779//779
f 10//10 779//779 617//617
f 10//10 617//617 449//449
f 10//10 449//449 289//289
f 10//10 289//289 165//165
f 10//10 165//165 92//92
f 10//10 92//92 40//40
f 10//10 40//40 13//13
f 15//15 44//44 19//19
f 18//18 43//43 47//47
f 23//23 49//49 52//52
f 24//24 53//53 27//27
f 28//28 55//55 57//57
f 31//31 62//62 64//64
f 32//32 65//65 69//69
f 33//33 70//70 75//75
f 30//30 74//74 82//82
f 29//29 80//80 36//36
f 39//39 86//86 91//91
f 41//41 95//95 98//98
f 42//42 99//99 46//46
f 51//51 101//101 58//58
f 50//50 56//56 54//54
f 59//59 103//103 106//106
f 60//60 108//108 111//111
f 61//61 113//113 63//63
f 68//68 114//114 120//120
f 67//67 119//119 130//130
f 66//66 126//126 71//71
f 72//72 127//127 77//77
f 76//76 135//135 144//144
f 73//73 142//142 81//81
f 78//78 128//128 136//136
f 84//84 146//146 148//148
f 85//85 153//153 89//89
f 88//88 152//152 156//156
f 90//90 159//159 162//162
f 93//93 171//171 175//175
f 94//94 176//176 97//97
f 102//102 179//179 105//105
f 107//107 183//183 109//109
f 104//104 178//178 181//181
f 112//112 190//190 192//192
f 115//115 198//198 200//200
f 117//117 201//201 205//205
f 118//118 207//207 211//211
f 116//116 209//209 124//124
f 110//110 184//184 187//187
f 125//125 210//210 218//218
f 123//123 216//216 224//224
f 122//122 223//223 228//228
f 121//121 227//227 132//132
f 131//131 226//226 234//234
f 129//129 233//233 137//137
f 139//139 235//235 239//239
f 140//140 240//240 245//245
f 138//138 244//244 252//252
f 133//133 250//250 254//254
f 134//134 255//255 143//143
f 147//147 257//257 149//149
f 150//150 259//259 261//261
f 151//151 263//263 154//154
f 155//155 266//266 268//268
f 157//157 270//270 272//272
f 158//158 274//274 161//161
f 163//163 276//276 278//278
f 164//164 279//279 287//287
f 166//166 290//290 294//294
f 167//167 298//298 301//301
f 168//168 302//302 306//306
f 169//169 307//307 310//310
f 170//170 312//312 174//174
f 173//173 311//311 317//317
f 182//182 319//319 185//185
f 186//186 320//320 322//322
f 188//188 323//323 325//325
f 189//189 326//326 191//191
f 193//193 327//327 329//329
f 194//194 331//331 333//333
f 195//195 336//336 338//338
f 196//196 339//339 349//349
f 197//197 350//350 199//199
f 203//203 356//356 362//362
f 202//202 360//360 206//206
f 204//204 351//351 357//357
f 208//208 361//361 212//212
f 213//213 363//363 367//367
f 215//215 368//368 372//372
f 214//214 371//371 220//220
f 222//222 373//373 378//378
f 221//221 377//377 386//386
f 219//219 384//384 230//230
f 217//217 229//229 225//225
f 232//232 385//385 389//389
f 231//231 388//388 236//236
f 238//238 390//390 395//395
f 237//237 394//394 241//241
f 242//242 396//396 246//246
f 243//243 403//403 251//251
f 247//247 398//398 406//406
f 248//248 407//407 404//404
f 258//258 405//405 408//408
f 260//260 409//409 262//262
f 264//264 412//412 414//414
f 265//265 415//415 267//267
f 269//269 417//417 271//271
f 273//273 418//418 421//421
f 275//275 424//424 277//277
f 285//285 429//429 432//432
f 281//281 431//431 288//288
f 280//280 425//425 433//433
f 282//282 440//440 443//443
f 283//283 444//444 447//447
f 284//284 448//448 428//428
f 292//292 450//450 457//457
f 291//291 453//453 297//297
f 296//296 452//452 462//462
f 295//295 461//461 468//468
f 293//293 465//465 300//300
f 299//299 464//464 304//304
f 305//305 466//466 474//474
f 303//303 473//473 308//308
f 309//309 475//475 314//314
f 315//315 477//477 479//479
f 316//316 480//480 486//486
f 330//330 490//490 492//492
f 332//332 494//494 334//334
f 335//335 495//495 337//337
f 345//345 498//498 508//508
f 344//344 506//506 511//511
f 343//343 509//509 354//354
f 340//340 496//496 514//514
f 341//341 515//515 517//517
f 342//342 518//518 520//520
f 346//346 525//525 527//527
f 348//348 529//529 533//533
f 347//347 532//532 499//499
f 355//355 510//510 505//505
f 353//353 504//504 540//540
f 352//352 538//538 359//359
f 358//358 537//537 365//365
f 366//366 539//539 548//548
f 364//364 546//546 369//369
f 370//370 547//547 374//374
f 375//375 549//549 552//552
f 376//376 553//553 380//380
f 382//382 555//555 558//558
f 383//383 559//559 565//565
f 381//381 564//564 393//393
f 379//379 391//391 387//387
f 392//392 563//563 397//397
f 401//401 569//569 410//410
f 399//399 567//567 577//577
f 400//400 578//578 568//568
f 411//411 571//571 413//413
f 416//416 573//573 420//420
f 419//419 572//572 589//589
f 422//422 590//590 580//580
f 423//423 581//581 591//591
f 426//426 592//592 434//434
f 435//435 593//593 582//582
f 436//436 583//583 594//594
f 437//437 596//596 598//598
f 438//438 602//602 606//606
f 439//439 607//607 442//442
f 445//445 608//608 615//615
f 451//451 618//618 458//458
f 454//454 470//470 463//463
f 459//459 619//619 621//621
f 460//460 622//622 629//629
f 456//456 627//627 634//634
f 455//455 632//632 472//472
f 467//467 637//637 476//476
f 471//471 631//631 644//644
f 469//469 643//643 639//639
f 478//478 638//638 481//481
f 482//482 640//640 648//648
f 483//483 650//650 652//652
f 484//484 653//653 487//487
f 488//488 656//656 661//661
f 491//491 513//513 493//493
f 497//497 541//541 507//507
f 500//500 536//536 664//664
f 501//501 668//668 670//670
f 502//502 671//671 675//675
f 503//503 676//676 543//543
f 519//519 682//682 521//521
f 522//522 683//683 686//686
f 523//523 687//687 690//690
f 524//524 693//693 695//695
f 526//526 697//697 528//528
f 531//531 704//704 534//534
f 530//530 698//698 703//703
f 535//535 705//705 663//663
f 544//544 677//677 708//708
f 545//545 709//709 715//715
f 542//542 713//713 550//550
f 551//551 714//714 554//554
f 556//556 716//716 719//719
f 557//557 720//720 560//560
f 561//561 722//722 574//574
f 562//562 575//575 566//566
f 570//570 579//579 588//588
f 576//576 724//724 726//726
f 584//584 731//731 733//733
f 586//586 734//734 738//738
f 587//587 739//739 599//599
f 585//585 597//597 595//595
f 600//600 740//740 742//742
f 601//601 747//747 605//605
f 612//612 750//750 753//753
f 613//613 754//754 757//757
f 609//609 756//756 616//616
f 603//603 746//746 760//760
f 604//604 762//762 764//764
f 610//610 770//770 772//772
f 611//611 773//773 749//749
f 620//620 783//783 626//626
f 625//625 782//782 788//788
f 624//624 784//784 796//796
f 623//623 791//791 630//630
f 628//628 789//789 635//635
f 636//636 790//790 801//801
f 633//633 798//798 646//646
f 642//642 645//645 806//806
f 641//641 805//805 649//649
f 647//647 799//799 808//808
f 651//651 807//807 654//654
f 655//655 809//809 811//811
f 659//659 813//813 821//821
f 658//658 820//820 829//829
f 657//657 826//826 662//662
f 665//665 707//707 833//833
f 666//666 834//834 838//838
f 667//667 840//840 669//669
f 672//672 846//846 680//680
f 673//673 842//842 851//851
f 674//674 852//852 847//847
f 679//679 845//845 859//859
f 678//678 857//857 711//711
f 685//685 864//864 866//866
f 688//688 868//868 872//872
f 689//689 873//873 691//691
f 692//692 874//874 877//877
f 694//694 879//879 696//696
f 702//702 880//880 836//836
f 701//701 835//835 832//832
f 700//700 831//831 885//885
f 699//699 884//884 706//706
f 706//706 884//884 830//830
f 710//710 886//886 717//717
f 712//712 858//858 888//888
f 718//718 887//887 721//721
f 723//723 889//889 725//725
f 727//727 891//891 893//893
f 728//728 896//896 900//900
f 729//729 901//901 909//909
f 730//730 910//910 732//732
f 737//737 915//915 744//744
f 735//735 743//743 741//741
f 736//736 911//911 914//914
f 745//745 916//916 758//758
f 751//751 774//774 920//920
f 759//759 918//918 923//923
f 761//761 924//924 763//763
f 765//765 926//926 903//903
f 766//766 904//904 927//927
f 767//767 931//931 933//933
f 768//768 936//936 940//940
f 769//769 941//941 771//771
f 776//776 944//944 948//948
f 777//777 949//949 952//952
f 778//778 953//953 956//956
f 775//775 955//955 921//921
f 780//780 960//960 975//975
f 781//781 976//976 787//787
f 786//786 974//974 980//980
f 785//785 979//979 797//797
f 795//795 977//977 983//983
f 794//794 981//981 987//987
f 793//793 985//985 992//992
f 792//792 991//991 804//804
f 800//800 812//812 810//810
f 803//803 989//989 998//998
f 802//802 996//996 818//818
f 817//817 995//995 1005//1005
f 816//816 1003//1003 1011//1011
f 815//815 1006//1006 1014//1014
f 814//814 1013//1013 824//824
f 823//823 1012//1012 1023//1023
f 822//822 1020//1020 1036//1036
f 819//819 1034//1034 828//828
f 827//827 1033//1033 1039//1039
f 837//837 881//881 1044//1044
f 839//839 1048//1048 1050//1050
f 841//841 1056//1056 1057//1057
f 843//843 1058//1058 1063//1063
f 844//844 1064//1064 853//853
f 848//848 1068//1068 861//861
f 849//849 855//855 1073//1073
f 850//850 1075//1075 1070//1070
f 854//854 1066//1066 1079//1079
f 856//856 1080//1080 1074//1074
f 862//862 1069//1069 894//894
f 860//860 892//892 890//890
f 865//865 1085//1085 867//867
f 870//870 1086//1086 1089//1089
f 871//871 1090//1090 1094//1094
f 869//869 1092//1092 875//875
f 876//876 1093//1093 878//878
f 882//882 1098//1098 1103//1103
f 883//883 1104//1104 1045//1045
f 895//895 1072//1072 899//899
f 902//902 925//925 913//913
f 897//897 1071//1071 1076//1076
f 898//898 1078//1078 1107//1107
f 905//905 1112//1112 1115//1115
f 906//906 1116//1116 1121//1121
f 908//908 1122//1122 1126//1126
f 907//907 1125//1125 928//928
f 912//912 922//922 917//917
f 929//929 1128//1128 1130//1130
f 930//930 1133//1133 932//932
f 934//934 1135//1135 1138//1138
f 935//935 1140//1140 939//939
f 946//946 1143//1143 950//950
f 938//938 1139//1139 1147//1147
f 937//937 1146//1146 966//966
f 942//942 971//971 1148//1148
f 943//943 1149//1149 958//958
f 945//945 961//961 1142//1142
f 959//959 1150//1150 973//973
f 967//967 1159//1159 997//997
f 968//968 999//999 990//990
f 969//969 993//993 986//986
f 970//970 988//988 982//982
f 972//972 984//984 978//978
f 965//965 1144//1144 1164//1164
f 964//964 1162//1162 1168//1168
f 963//963 1166//1166 1119//1119
f 962//962 1114//1114 1157//1157
f 994//994 1158//1158 1004//1004
f 1002//1002 1155//1155 1032//1032
f 1000//1000 1031//1031 1170//1170
f 1001//1001 1171//1171 1010//1010
f 1009//1009 1169//1169 1030//1030
f 1008//1008 1026//1026 1174//1174
f 1007//1007 1173//1173 1016//1016
f 1015//1015 1172//1172 1025//1025
f 1029//1029 1151//1151 1060//1060
f 1028//1028 1059//1059 1177//1177
f 1027//1027 1175//1175 1055//1055
f 1024//1024 1054//1054 1180//1180
f 1022//1022 1179//1179 1185//1185
f 1021//1021 1181//1181 1100//1100
f 1019//1019 1097//1097 1188//1188
f 1018//1018 1187//1187 1043//1043
f 1017//1017 1040//1040 1035//1035
f 1042//1042 1186//1186 1096//1096
f 1041//1041 1095//1095 1091//1091
f 1046//1046 1105//1105 1099//1099
f 1047//1047 1101//1101 1189//1189
f 1049//1049 1191//1191 1051//1051
f 1052//1052 1192//1192 1183//1183
f 1053//1053 1184//1184 1178//1178
f 1056//1056 1176//1176 1057//1057
f 1062//1062 1152//1152 1195//1195
f 1061//1061 1193//1193 1065//1065
f 1067//1067 1194//1194 1081//1081
f 1077//1077 1082//1082 1106//1106
f 1083//1083 1196//1196 1108//1108
f 1102//1102 1182//1182 1190//1190
f 1109//1109 1197//1197 1199//1199
f 1110//1110 1201//1201 1154//1154
f 1111//1111 1156//1156 1113//1113
f 1117//1117 1131//1131 1124//1124
f 1120//1120 1167//1167 1161//1161
f 1118//1118 1160//1160 1132//1132
f 1123//1123 1129//1129 1127//1127
f 1134//1134 1163//1163 1136//1136
f 1137//1137 1165//1165 1145//1145
f 1153//1153 1200//1200 1198//1198

