# https://github.com/mikedh/trimesh
v -0.00019713 -0.00003053 0.12238333
v -0.00019713 -0.00003053 0.12238333
v -0.00019713 -0.00003053 0.12238333
v -0.00019713 -0.00003053 0.04787976
v -0.00019713 -0.00003053 0.04787976
v -0.00019713 -0.00003053 0.04787976
v -0.00019713 -0.00003053 0.04787976
v -0.00019713 0.00008313 0.12939072
v -0.00019713 0.00008313 0.12939072
v -0.00019713 0.00008313 0.12939072
v -0.00025283 -0.00003053 0.12939072
v -0.00025283 -0.00003053 0.12939072
v -0.00025283 -0.00003053 0.12939072
v -0.00025283 -0.00003053 0.12939072
v -0.56923783 -0.00003053 0.04317480
v -0.56923783 -0.00003053 0.04317480
v -0.56923783 -0.00003053 0.04317480
v -0.56923783 -0.00003053 0.04317480
v -0.55586958 0.55604762 0.00035465
v -0.55586958 0.55604762 0.00035465
v -0.55586958 0.55604762 0.00035465
v -0.55586958 0.55604762 0.00035465
v -0.55586958 0.55604762 0.00035465
v -0.55586958 0.55604762 0.00035465
v -0.55586958 0.55604762 0.00035465
v -0.55586958 0.55604762 0.00035465
v -0.55586958 0.55604762 0.00035465
v -0.55586958 0.55604762 0.00035465
v -0.00019713 0.77834249 0.00057983
v -0.00019713 0.77834249 0.00057983
v -0.00019713 0.77834249 0.00057983
v -0.00019713 0.77834249 0.00057983
v -0.00019713 1.03655010 0.25599924
v -0.00019713 1.03655010 0.25599924
v -0.00019713 1.03655010 0.25599924
v -0.00019713 1.03655010 0.25599924
v -0.00019713 1.03655010 0.25599924
v -0.00019713 1.03655010 0.25599924
v -0.15571412 -0.00003053 0.13872555
v -0.15571412 -0.00003053 0.13872555
v -0.15571412 -0.00003053 0.13872555
v -0.56923783 -0.00003053 0.15584359
v -0.56923783 -0.00003053 0.15584359
v -0.56923783 -0.00003053 0.15584359
v -0.56923783 0.51161140 0.00523478
v -0.56923783 0.51161140 0.00523478
v -0.56923783 0.51161140 0.00523478
v -0.56923783 0.55604762 0.00300747
v -0.56923783 0.55604762 0.00300747
v -0.56923783 0.55604762 0.00300747
v -0.56923783 0.55604762 0.00300747
v -0.55586958 0.60048383 0.00881356
v -0.55586958 0.60048383 0.00881356
v -0.55586958 0.60048383 0.00881356
v -0.55586958 0.60048383 0.00881356
v -0.55586958 0.60048383 0.00881356
v -0.55586958 0.60048383 0.00881356
v -0.55586958 0.60048383 0.00881356
v -0.55586958 0.60048383 0.00881356
v -0.51136458 0.60048383 0.00067997
v -0.51136458 0.60048383 0.00067997
v -0.51136458 0.60048383 0.00067997
v -0.51136458 0.60048383 0.00067997
v -0.37796086 0.68935633 0.00062996
v -0.37796086 0.68935633 0.00062996
v -0.37796086 0.68935633 0.00062996
v -0.37796086 0.68935633 0.00062996
v -0.37796086 0.68935633 0.00062996
v -0.28906214 0.73390627 0.00052983
v -0.28906214 0.73390627 0.00052983
v -0.28906214 0.73390627 0.00052983
v -0.28906214 0.73390627 0.00052983
v -0.28906214 0.73390627 0.00052983
v -0.28906214 0.73390627 0.00052983
v -0.28906214 0.73390627 0.00052983
v -0.02225470 0.77834249 0.00055486
v -0.02225470 0.77834249 0.00055486
v -0.02225470 0.77834249 0.00055486
v -0.02225470 0.77834249 0.00055486
v -0.02225470 0.77834249 0.00055486
v -0.02225470 0.77834249 0.00055486
v -0.00019713 0.82277876 0.01319319
v -0.00019713 0.82277876 0.01319319
v -0.00019713 0.82277876 0.01319319
v -0.00019713 0.82277876 0.01319319
v -0.00019713 1.16099423 0.25599924
v -0.00019713 1.16099423 0.25599924
v -0.00019713 1.16099423 0.25599924
v -0.00019713 1.16099423 0.25599924
v -0.56923783 0.87210184 0.25599924
v -0.56923783 0.87210184 0.25599924
v -0.56923783 0.87210184 0.25599924
v -0.56923783 0.87210184 0.25599924
v -0.37796086 -0.00003053 0.14958704
v -0.37796086 -0.00003053 0.14958704
v -0.37796086 -0.00003053 0.14958704
v -0.37796086 -0.00003053 0.14958704
v -0.56923783 0.59912008 0.01431936
v -0.56923783 0.59912008 0.01431936
v -0.56923783 0.59912008 0.01431936
v -0.56923783 0.86801052 0.12951586
v -0.56923783 0.86801052 0.12951586
v -0.56923783 0.86801052 0.12951586
v -0.56923783 0.86801052 0.12951586
v -0.56923783 0.86801052 0.12951586
v -0.56923783 0.86801052 0.12951586
v -0.56923783 0.86801052 0.12951586
v -0.51515222 0.64878416 0.01494503
v -0.51515222 0.64878416 0.01494503
v -0.51515222 0.64878416 0.01494503
v -0.51515222 0.64878416 0.01494503
v -0.42246589 0.68935633 0.00458407
v -0.42246589 0.68935633 0.00458407
v -0.42246589 0.68935633 0.00458407
v -0.42246589 0.68935633 0.00458407
v -0.42246589 0.68935633 0.00458407
v -0.42246589 0.68935633 0.00458407
v -0.42246589 0.68935633 0.00458407
v -0.42246589 0.68935633 0.00458407
v -0.42246589 0.68935633 0.00458407
v -0.46691522 0.64492011 0.00103033
v -0.46691522 0.64492011 0.00103033
v -0.46691522 0.64492011 0.00103033
v -0.46691522 0.64492011 0.00103033
v -0.46691522 0.64492011 0.00103033
v -0.33351150 0.73390627 0.00360805
v -0.33351150 0.73390627 0.00360805
v -0.33351150 0.73390627 0.00360805
v -0.33351150 0.73390627 0.00360805
v -0.33351150 0.73390627 0.00360805
v -0.33351150 0.73390627 0.00360805
v -0.33351150 0.73390627 0.00360805
v -0.33351150 0.73390627 0.00360805
v -0.20016348 0.77834249 0.00328273
v -0.20016348 0.77834249 0.00328273
v -0.20016348 0.77834249 0.00328273
v -0.20016348 0.77834249 0.00328273
v -0.20016348 0.77834249 0.00328273
v -0.20016348 0.77834249 0.00328273
v -0.15571412 0.77834249 0.00115544
v -0.15571412 0.77834249 0.00115544
v -0.15571412 0.77834249 0.00115544
v -0.15571412 0.77834249 0.00115544
v -0.15571412 0.77834249 0.00115544
v -0.11120909 0.77834249 0.00073004
v -0.11120909 0.77834249 0.00073004
v -0.11120909 0.77834249 0.00073004
v -0.11120909 0.77834249 0.00073004
v -0.02225470 0.82277876 0.01319319
v -0.02225470 0.82277876 0.01319319
v -0.02225470 0.82277876 0.01319319
v -0.02225470 0.82277876 0.01319319
v -0.02225470 0.82277876 0.01319319
v -0.02225470 0.82277876 0.01319319
v -0.02225470 0.82277876 0.01319319
v -0.00019713 1.04507357 0.13772449
v -0.00019713 1.04507357 0.13772449
v -0.00019713 1.04507357 0.13772449
v -0.00019713 1.15838033 0.25014305
v -0.00019713 1.15838033 0.25014305
v -0.00019713 1.15838033 0.25014305
v -0.02225470 1.15838033 0.25014305
v -0.02225470 1.15838033 0.25014305
v -0.02225470 1.15838033 0.25014305
v -0.02225470 1.15838033 0.25014305
v -0.02225470 1.15838033 0.25014305
v -0.02225470 1.15838033 0.25014305
v -0.02225470 1.16088063 0.25599924
v -0.02225470 1.16088063 0.25599924
v -0.02225470 1.16088063 0.25599924
v -0.02225470 1.16088063 0.25599924
v -0.56923783 1.01563889 0.25599924
v -0.56923783 1.01563889 0.25599924
v -0.56923783 1.01563889 0.25599924
v -0.56923783 0.91119665 0.14958704
v -0.56923783 0.91119665 0.14958704
v -0.56923783 0.91119665 0.14958704
v -0.55586958 0.91176492 0.14523241
v -0.55586958 0.91176492 0.14523241
v -0.55586958 0.91176492 0.14523241
v -0.55586958 0.91176492 0.14523241
v -0.55586958 0.91176492 0.14523241
v -0.55586958 0.91176492 0.14523241
v -0.55586958 0.91176492 0.14523241
v -0.55586958 0.91176492 0.14523241
v -0.55586958 0.91176492 0.14523241
v -0.55586958 0.91176492 0.14523241
v -0.55586958 0.91176492 0.14523241
v -0.55915594 0.86823785 0.12651271
v -0.55915594 0.86823785 0.12651271
v -0.55915594 0.86823785 0.12651271
v -0.46691522 0.69083381 0.01802331
v -0.46691522 0.69083381 0.01802331
v -0.46691522 0.69083381 0.01802331
v -0.46691522 0.69083381 0.01802331
v -0.46691522 0.69083381 0.01802331
v -0.38069019 0.73731571 0.01607120
v -0.38069019 0.73731571 0.01607120
v -0.38069019 0.73731571 0.01607120
v -0.38069019 0.73731571 0.01607120
v -0.52378589 0.88380754 0.12318414
v -0.52378589 0.88380754 0.12318414
v -0.52378589 0.88380754 0.12318414
v -0.50991637 0.90881008 0.13104248
v -0.50991637 0.90881008 0.13104248
v -0.50991637 0.90881008 0.13104248
v -0.50991637 0.90881008 0.13104248
v -0.50991637 0.90881008 0.13104248
v -0.50991637 0.90881008 0.13104248
v -0.50991637 0.90881008 0.13104248
v -0.50991637 0.90881008 0.13104248
v -0.33351150 0.76936430 0.02070108
v -0.33351150 0.76936430 0.02070108
v -0.33351150 0.76936430 0.02070108
v -0.33351150 0.76936430 0.02070108
v -0.33351150 0.76936430 0.02070108
v -0.33351150 0.76936430 0.02070108
v -0.33351150 0.76936430 0.02070108
v -0.33351150 0.76936430 0.02070108
v -0.33351150 0.76936430 0.02070108
v -0.24461281 0.77834249 0.00788754
v -0.24461281 0.77834249 0.00788754
v -0.24461281 0.77834249 0.00788754
v -0.24461281 0.77834249 0.00788754
v -0.24461281 0.77834249 0.00788754
v -0.24461281 0.77834249 0.00788754
v -0.24461281 0.77834249 0.00788754
v -0.24461281 0.77834249 0.00788754
v -0.15571412 0.81789190 0.01804829
v -0.15571412 0.81789190 0.01804829
v -0.15571412 0.81789190 0.01804829
v -0.15571412 0.81789190 0.01804829
v -0.15571412 0.81789190 0.01804829
v -0.15571412 0.81789190 0.01804829
v -0.06675974 0.82277876 0.01454461
v -0.06675974 0.82277876 0.01454461
v -0.06675974 0.82277876 0.01454461
v -0.06675974 0.82277876 0.01454461
v -0.06675974 0.82277876 0.01454461
v -0.06675974 0.82277876 0.01454461
v -0.06675974 0.82277876 0.01454461
v -0.06675974 1.04507357 0.13857540
v -0.06675974 1.04507357 0.13857540
v -0.06675974 1.04507357 0.13857540
v -0.06675974 1.04507357 0.13857540
v -0.06675974 1.04507357 0.13857540
v -0.06675974 1.04507357 0.13857540
v -0.02225470 1.04507357 0.13772449
v -0.02225470 1.04507357 0.13772449
v -0.02225470 1.04507357 0.13772449
v -0.02225470 1.04507357 0.13772449
v -0.02225470 1.04507357 0.13772449
v -0.00019713 1.07916790 0.15732014
v -0.00019713 1.07916790 0.15732014
v -0.00019713 1.07916790 0.15732014
v -0.00019713 1.15247077 0.23910642
v -0.00019713 1.15247077 0.23910642
v -0.00019713 1.15247077 0.23910642
v -0.00019713 1.15247077 0.23910642
v -0.02225470 1.14644724 0.22791961
v -0.02225470 1.14644724 0.22791961
v -0.02225470 1.14644724 0.22791961
v -0.02225470 1.14644724 0.22791961
v -0.02225470 1.14644724 0.22791961
v -0.02225470 1.14644724 0.22791961
v -0.02225470 1.14644724 0.22791961
v -0.02225470 1.14644724 0.22791961
v -0.06675974 1.15792578 0.25121918
v -0.06675974 1.15792578 0.25121918
v -0.06675974 1.15792578 0.25121918
v -0.06675974 1.15792578 0.25121918
v -0.06675974 1.15792578 0.25121918
v -0.06675974 1.15792578 0.25121918
v -0.06675974 1.15985781 0.25599924
v -0.06675974 1.15985781 0.25599924
v -0.06675974 1.15985781 0.25599924
v -0.06675974 1.15985781 0.25599924
v -0.56723261 1.01688904 0.25599924
v -0.56723261 1.01688904 0.25599924
v -0.56723261 1.01688904 0.25599924
v -0.56723261 1.01688904 0.25599924
v -0.56923783 1.00256938 0.23322523
v -0.56923783 1.00256938 0.23322523
v -0.56923783 1.00256938 0.23322523
v -0.56923783 1.00256938 0.23322523
v -0.56923783 0.92494804 0.15679461
v -0.56923783 0.92494804 0.15679461
v -0.56923783 0.92494804 0.15679461
v -0.56923783 0.93722200 0.16330147
v -0.56923783 0.93722200 0.16330147
v -0.56923783 0.93722200 0.16330147
v -0.56923783 0.93722200 0.16330147
v -0.56923783 0.93722200 0.16330147
v -0.56923783 0.93722200 0.16330147
v -0.55586958 0.94119966 0.16084889
v -0.55586958 0.94119966 0.16084889
v -0.55586958 0.94119966 0.16084889
v -0.55586958 0.94119966 0.16084889
v -0.50857955 0.95733756 0.15584359
v -0.50857955 0.95733756 0.15584359
v -0.50857955 0.95733756 0.15584359
v -0.50857955 0.95733756 0.15584359
v -0.50857955 0.95733756 0.15584359
v -0.50857955 0.95733756 0.15584359
v -0.50857955 0.95733756 0.15584359
v -0.46691522 0.95620114 0.14460677
v -0.46691522 0.95620114 0.14460677
v -0.46691522 0.95620114 0.14460677
v -0.46691522 0.95620114 0.14460677
v -0.46691522 0.95620114 0.14460677
v -0.46691522 0.95620114 0.14460677
v -0.46691522 0.95620114 0.14460677
v -0.46691522 0.92074305 0.12678796
v -0.46691522 0.92074305 0.12678796
v -0.46691522 0.92074305 0.12678796
v -0.28922924 0.78107005 0.01784807
v -0.28922924 0.78107005 0.01784807
v -0.28922924 0.78107005 0.01784807
v -0.41962510 0.95233709 0.13211858
v -0.41962510 0.95233709 0.13211858
v -0.41962510 0.95233709 0.13211858
v -0.41962510 0.95233709 0.13211858
v -0.41962510 0.95233709 0.13211858
v -0.37796086 0.96199715 0.12868997
v -0.37796086 0.96199715 0.12868997
v -0.37796086 0.96199715 0.12868997
v -0.37796086 0.96199715 0.12868997
v -0.37796086 0.96199715 0.12868997
v -0.37796086 0.96199715 0.12868997
v -0.20016348 0.81289136 0.02072611
v -0.20016348 0.81289136 0.02072611
v -0.20016348 0.81289136 0.02072611
v -0.20016348 0.81289136 0.02072611
v -0.20016348 0.81289136 0.02072611
v -0.33351150 1.00063735 0.14062759
v -0.33351150 1.00063735 0.14062759
v -0.33351150 1.00063735 0.14062759
v -0.33351150 1.00063735 0.14062759
v -0.33351150 1.00063735 0.14062759
v -0.33351150 1.00063735 0.14062759
v -0.33351150 1.00063735 0.14062759
v -0.33351150 1.00063735 0.14062759
v -0.20016348 1.04507357 0.14806041
v -0.20016348 1.04507357 0.14806041
v -0.20016348 1.04507357 0.14806041
v -0.20016348 1.04507357 0.14806041
v -0.20016348 1.04507357 0.14806041
v -0.20016348 1.04507357 0.14806041
v -0.20016348 1.04507357 0.14806041
v -0.20016348 1.04507357 0.14806041
v -0.15571412 1.04507357 0.14308015
v -0.15571412 1.04507357 0.14308015
v -0.15571412 1.04507357 0.14308015
v -0.15571412 1.04507357 0.14308015
v -0.15571412 1.04507357 0.14308015
v -0.11120909 1.04507357 0.14002693
v -0.11120909 1.04507357 0.14002693
v -0.11120909 1.04507357 0.14002693
v -0.11120909 1.04507357 0.14002693
v -0.11120909 1.04507357 0.14002693
v -0.11120909 1.07734960 0.15842131
v -0.11120909 1.07734960 0.15842131
v -0.11120909 1.07734960 0.15842131
v -0.11120909 1.07734960 0.15842131
v -0.11120909 1.07734960 0.15842131
v -0.11120909 1.07734960 0.15842131
v -0.06675974 1.07848603 0.15774560
v -0.06675974 1.07848603 0.15774560
v -0.06675974 1.07848603 0.15774560
v -0.06675974 1.07848603 0.15774560
v -0.06675974 1.07848603 0.15774560
v -0.06675974 1.07848603 0.15774560
v -0.02225470 1.07916790 0.15732014
v -0.02225470 1.07916790 0.15732014
v -0.02225470 1.07916790 0.15732014
v -0.02225470 1.07916790 0.15732014
v -0.00019713 1.10132927 0.17353725
v -0.00019713 1.10132927 0.17353725
v -0.00019713 1.10132927 0.17353725
v -0.00019713 1.14644724 0.22791961
v -0.00019713 1.14644724 0.22791961
v -0.00019713 1.14644724 0.22791961
v -0.00019713 1.13542348 0.21197781
v -0.00019713 1.13542348 0.21197781
v -0.00019713 1.13542348 0.21197781
v -0.00019713 1.13542348 0.21197781
v -0.02225470 1.12417239 0.19578573
v -0.02225470 1.12417239 0.19578573
v -0.02225470 1.12417239 0.19578573
v -0.02225470 1.12417239 0.19578573
v -0.02225470 1.12417239 0.19578573
v -0.02225470 1.12417239 0.19578573
v -0.06675974 1.12360424 0.19646144
v -0.06675974 1.12360424 0.19646144
v -0.06675974 1.12360424 0.19646144
v -0.06675974 1.12360424 0.19646144
v -0.06675974 1.12360424 0.19646144
v -0.06675974 1.12360424 0.19646144
v -0.06675974 1.12360424 0.19646144
v -0.06675974 1.14587909 0.22899577
v -0.06675974 1.14587909 0.22899577
v -0.06675974 1.14587909 0.22899577
v -0.06675974 1.14587909 0.22899577
v -0.06675974 1.14587909 0.22899577
v -0.06675974 1.14587909 0.22899577
v -0.09906628 1.15713018 0.25277084
v -0.09906628 1.15713018 0.25277084
v -0.09906628 1.15713018 0.25277084
v -0.09906628 1.15713018 0.25277084
v -0.09906628 1.15713018 0.25277084
v -0.09906628 1.15713018 0.25277084
v -0.09906628 1.15713018 0.25277084
v -0.10129433 1.15826672 0.25599924
v -0.10129433 1.15826672 0.25599924
v -0.10129433 1.15826672 0.25599924
v -0.55726212 1.02223045 0.25599924
v -0.55726212 1.02223045 0.25599924
v -0.55726212 1.02223045 0.25599924
v -0.55726212 1.02223045 0.25599924
v -0.55570257 1.00984281 0.23264959
v -0.55570257 1.00984281 0.23264959
v -0.55570257 1.00984281 0.23264959
v -0.55570257 1.00984281 0.23264959
v -0.55570257 1.00984281 0.23264959
v -0.55570257 1.00984281 0.23264959
v -0.56923783 0.98359025 0.20406947
v -0.56923783 0.98359025 0.20406947
v -0.56923783 0.98359025 0.20406947
v -0.56923783 0.98359025 0.20406947
v -0.56923783 0.98359025 0.20406947
v -0.56923783 0.95972413 0.18209630
v -0.56923783 0.95972413 0.18209630
v -0.56923783 0.95972413 0.18209630
v -0.55586958 0.96347457 0.17789188
v -0.55586958 0.96347457 0.17789188
v -0.55586958 0.96347457 0.17789188
v -0.55586958 0.96347457 0.17789188
v -0.55586958 0.96347457 0.17789188
v -0.52155787 0.97279376 0.16943294
v -0.52155787 0.97279376 0.16943294
v -0.52155787 0.97279376 0.16943294
v -0.52155787 0.97279376 0.16943294
v -0.52155787 0.97279376 0.16943294
v -0.52155787 0.97279376 0.16943294
v -0.52155787 0.97279376 0.16943294
v -0.52155787 0.97279376 0.16943294
v -0.52155787 0.97279376 0.16943294
v -0.52155787 0.97279376 0.16943294
v -0.49192497 0.97961253 0.16450277
v -0.49192497 0.97961253 0.16450277
v -0.49192497 0.97961253 0.16450277
v -0.49192497 0.97961253 0.16450277
v -0.49192497 0.97961253 0.16450277
v -0.46691522 0.98484033 0.16099903
v -0.46691522 0.98484033 0.16099903
v -0.46691522 0.98484033 0.16099903
v -0.46691522 0.98484033 0.16099903
v -0.46691522 0.98484033 0.16099903
v -0.42246589 0.99415946 0.15546820
v -0.42246589 0.99415946 0.15546820
v -0.42246589 0.99415946 0.15546820
v -0.42246589 0.99415946 0.15546820
v -0.42246589 0.99415946 0.15546820
v -0.42246589 0.99415946 0.15546820
v -0.38063449 1.00438780 0.15198955
v -0.38063449 1.00438780 0.15198955
v -0.38063449 1.00438780 0.15198955
v -0.38063449 1.00438780 0.15198955
v -0.38063449 1.00438780 0.15198955
v -0.28482887 0.99631876 0.13179326
v -0.28482887 0.99631876 0.13179326
v -0.28482887 0.99631876 0.13179326
v -0.28482887 0.99631876 0.13179326
v -0.36760047 1.02723092 0.16230044
v -0.36760047 1.02723092 0.16230044
v -0.36760047 1.02723092 0.16230044
v -0.36760047 1.02723092 0.16230044
v -0.36760047 1.02723092 0.16230044
v -0.36760047 1.02723092 0.16230044
v -0.33351150 1.03234512 0.15887180
v -0.33351150 1.03234512 0.15887180
v -0.33351150 1.03234512 0.15887180
v -0.33351150 1.03234512 0.15887180
v -0.33351150 1.03234512 0.15887180
v -0.33351150 1.03234512 0.15887180
v -0.33351150 1.03234512 0.15887180
v -0.28906214 1.03791374 0.15559337
v -0.28906214 1.03791374 0.15559337
v -0.28906214 1.03791374 0.15559337
v -0.28906214 1.03791374 0.15559337
v -0.28906214 1.03791374 0.15559337
v -0.28906214 1.03791374 0.15559337
v -0.28906214 1.03791374 0.15559337
v -0.24205059 1.04780120 0.15511787
v -0.24205059 1.04780120 0.15511787
v -0.24205059 1.04780120 0.15511787
v -0.20016348 1.07075793 0.16292608
v -0.20016348 1.07075793 0.16292608
v -0.20016348 1.07075793 0.16292608
v -0.20016348 1.07075793 0.16292608
v -0.20016348 1.07075793 0.16292608
v -0.20016348 1.07075793 0.16292608
v -0.15571412 1.07484931 0.16004804
v -0.15571412 1.07484931 0.16004804
v -0.15571412 1.07484931 0.16004804
v -0.15571412 1.07484931 0.16004804
v -0.15571412 1.07484931 0.16004804
v -0.15571412 1.07484931 0.16004804
v -0.15571412 1.07484931 0.16004804
v -0.11120909 1.09951085 0.17546430
v -0.11120909 1.09951085 0.17546430
v -0.11120909 1.09951085 0.17546430
v -0.11120909 1.09951085 0.17546430
v -0.11120909 1.09951085 0.17546430
v -0.11120909 1.09951085 0.17546430
v -0.06675974 1.10064739 0.17421299
v -0.06675974 1.10064739 0.17421299
v -0.06675974 1.10064739 0.17421299
v -0.06675974 1.10064739 0.17421299
v -0.06675974 1.10064739 0.17421299
v -0.02225470 1.10132927 0.17353725
v -0.02225470 1.10132927 0.17353725
v -0.02225470 1.10132927 0.17353725
v -0.02225470 1.10132927 0.17353725
v -0.02225470 1.10132927 0.17353725
v -0.02225470 1.10132927 0.17353725
v -0.02225470 1.10132927 0.17353725
v -0.00019713 1.11292130 0.18474910
v -0.00019713 1.11292130 0.18474910
v -0.00019713 1.11292130 0.18474910
v -0.00019713 1.11292130 0.18474910
v -0.00019713 1.12417239 0.19578573
v -0.00019713 1.12417239 0.19578573
v -0.00019713 1.12417239 0.19578573
v -0.11120909 1.12235409 0.19768775
v -0.11120909 1.12235409 0.19768775
v -0.11120909 1.12235409 0.19768775
v -0.11120909 1.12235409 0.19768775
v -0.11120909 1.12235409 0.19768775
v -0.11120909 1.12235409 0.19768775
v -0.11282443 1.14667457 0.23560271
v -0.11282443 1.14667457 0.23560271
v -0.11282443 1.14667457 0.23560271
v -0.11282443 1.14667457 0.23560271
v -0.11282443 1.14667457 0.23560271
v -0.11282443 1.14667457 0.23560271
v -0.12869918 1.15588015 0.25519839
v -0.12869918 1.15588015 0.25519839
v -0.12869918 1.15588015 0.25519839
v -0.12869918 1.15588015 0.25519839
v -0.12869918 1.15588015 0.25519839
v -0.12869918 1.15588015 0.25519839
v -0.12869918 1.15588015 0.25519839
v -0.12797506 1.15633470 0.25599924
v -0.12797506 1.15633470 0.25599924
v -0.12797506 1.15633470 0.25599924
v -0.12797506 1.15633470 0.25599924
v -0.54077470 1.02643543 0.24786565
v -0.54077470 1.02643543 0.24786565
v -0.54077470 1.02643543 0.24786565
v -0.54077470 1.02643543 0.24786565
v -0.54077470 1.02643543 0.24786565
v -0.54077470 1.02643543 0.24786565
v -0.54077470 1.02643543 0.24786565
v -0.54495227 1.02836746 0.25599924
v -0.54495227 1.02836746 0.25599924
v -0.54495227 1.02836746 0.25599924
v -0.52289468 1.01802546 0.21820939
v -0.52289468 1.01802546 0.21820939
v -0.52289468 1.01802546 0.21820939
v -0.52289468 1.01802546 0.21820939
v -0.52289468 1.01802546 0.21820939
v -0.52289468 1.01802546 0.21820939
v -0.52289468 1.01802546 0.21820939
v -0.52289468 1.01802546 0.21820939
v -0.56923783 0.97233909 0.19358340
v -0.56923783 0.97233909 0.19358340
v -0.56923783 0.97233909 0.19358340
v -0.56923783 0.97233909 0.19358340
v -0.55586958 0.98734057 0.20011529
v -0.55586958 0.98734057 0.20011529
v -0.55586958 0.98734057 0.20011529
v -0.55586958 0.98734057 0.20011529
v -0.55586958 0.98734057 0.20011529
v -0.55586958 0.98734057 0.20011529
v -0.55586958 0.98734057 0.20011529
v -0.50740981 0.99881905 0.18847802
v -0.50740981 0.99881905 0.18847802
v -0.50740981 0.99881905 0.18847802
v -0.50740981 0.99881905 0.18847802
v -0.46691522 1.03052670 0.20134160
v -0.46691522 1.03052670 0.20134160
v -0.46691522 1.03052670 0.20134160
v -0.46691522 1.03052670 0.20134160
v -0.46691522 1.03052670 0.20134160
v -0.46691522 1.03052670 0.20134160
v -0.46691522 1.03052670 0.20134160
v -0.46691522 1.00711530 0.17909315
v -0.46691522 1.00711530 0.17909315
v -0.46691522 1.00711530 0.17909315
v -0.46691522 1.00711530 0.17909315
v -0.42246589 1.01643437 0.17035893
v -0.42246589 1.01643437 0.17035893
v -0.42246589 1.01643437 0.17035893
v -0.42246589 1.01643437 0.17035893
v -0.42246589 1.01643437 0.17035893
v -0.42246589 1.01643437 0.17035893
v -0.39728907 1.02166218 0.16620454
v -0.39728907 1.02166218 0.16620454
v -0.39728907 1.02166218 0.16620454
v -0.39728907 1.02166218 0.16620454
v -0.39728907 1.02166218 0.16620454
v -0.39728907 1.02166218 0.16620454
v -0.39728907 1.02166218 0.16620454
v -0.33351150 1.05450636 0.17588976
v -0.33351150 1.05450636 0.17588976
v -0.33351150 1.05450636 0.17588976
v -0.33351150 1.05450636 0.17588976
v -0.33351150 1.05450636 0.17588976
v -0.33351150 1.05450636 0.17588976
v -0.28906214 1.06007510 0.17093453
v -0.28906214 1.06007510 0.17093453
v -0.28906214 1.06007510 0.17093453
v -0.28906214 1.06007510 0.17093453
v -0.28906214 1.06007510 0.17093453
v -0.28906214 1.06007510 0.17093453
v -0.25514027 1.06427997 0.16760603
v -0.25514027 1.06427997 0.16760603
v -0.25514027 1.06427997 0.16760603
v -0.25514027 1.06427997 0.16760603
v -0.22550739 1.06803042 0.16482809
v -0.22550739 1.06803042 0.16482809
v -0.22550739 1.06803042 0.16482809
v -0.22550739 1.06803042 0.16482809
v -0.22550739 1.06803042 0.16482809
v -0.22550739 1.06803042 0.16482809
v -0.15571412 1.09712428 0.17836738
v -0.15571412 1.09712428 0.17836738
v -0.15571412 1.09712428 0.17836738
v -0.15571412 1.09712428 0.17836738
v -0.15571412 1.09712428 0.17836738
v -0.15571412 1.09712428 0.17836738
v -0.15571412 1.09712428 0.17836738
v -0.15571412 1.11951286 0.20061582
v -0.15571412 1.11951286 0.20061582
v -0.15571412 1.11951286 0.20061582
v -0.15571412 1.11951286 0.20061582
v -0.15571412 1.11951286 0.20061582
v -0.15571412 1.11951286 0.20061582
v -0.15571412 1.13928765 0.23207399
v -0.15571412 1.13928765 0.23207399
v -0.15571412 1.13928765 0.23207399
v -0.15571412 1.13928765 0.23207399
v -0.15571412 1.13928765 0.23207399
v -0.15571412 1.13928765 0.23207399
v -0.15571412 1.13928765 0.23207399
v -0.15571412 1.15167505 0.25599924
v -0.15571412 1.15167505 0.25599924
v -0.15571412 1.15167505 0.25599924
v -0.15571412 1.15167505 0.25599924
v -0.15571412 1.15167505 0.25599924
v -0.13298815 1.15553921 0.25599924
v -0.13298815 1.15553921 0.25599924
v -0.13298815 1.15553921 0.25599924
v -0.12947899 1.15610749 0.25599924
v -0.12947899 1.15610749 0.25599924
v -0.12947899 1.15610749 0.25599924
v -0.46117806 1.06678027 0.25599924
v -0.46117806 1.06678027 0.25599924
v -0.46117806 1.06678027 0.25599924
v -0.46117806 1.06678027 0.25599924
v -0.44931373 1.06939429 0.25056851
v -0.44931373 1.06939429 0.25056851
v -0.44931373 1.06939429 0.25056851
v -0.44931373 1.06939429 0.25056851
v -0.44931373 1.06939429 0.25056851
v -0.44931373 1.06939429 0.25056851
v -0.44931373 1.06939429 0.25056851
v -0.44931373 1.06939429 0.25056851
v -0.44931373 1.06939429 0.25056851
v -0.50935936 1.03223139 0.23264959
v -0.50935936 1.03223139 0.23264959
v -0.50935936 1.03223139 0.23264959
v -0.46524423 1.05291528 0.23427632
v -0.46524423 1.05291528 0.23427632
v -0.46524423 1.05291528 0.23427632
v -0.46524423 1.05291528 0.23427632
v -0.49326178 1.02473062 0.20752311
v -0.49326178 1.02473062 0.20752311
v -0.49326178 1.02473062 0.20752311
v -0.49326178 1.02473062 0.20752311
v -0.49326178 1.02473062 0.20752311
v -0.49326178 1.02473062 0.20752311
v -0.49326178 1.02473062 0.20752311
v -0.39918289 1.06689399 0.21047622
v -0.39918289 1.06689399 0.21047622
v -0.39918289 1.06689399 0.21047622
v -0.39918289 1.06689399 0.21047622
v -0.39918289 1.06689399 0.21047622
v -0.39918289 1.06689399 0.21047622
v -0.36954999 1.07257634 0.20384425
v -0.36954999 1.07257634 0.20384425
v -0.36954999 1.07257634 0.20384425
v -0.36954999 1.07257634 0.20384425
v -0.36954999 1.07257634 0.20384425
v -0.36954999 1.07257634 0.20384425
v -0.36954999 1.07257634 0.20384425
v -0.36954999 1.07257634 0.20384425
v -0.36954999 1.07257634 0.20384425
v -0.36954999 1.07257634 0.20384425
v -0.42246589 1.03995949 0.19258234
v -0.42246589 1.03995949 0.19258234
v -0.42246589 1.03995949 0.19258234
v -0.42246589 1.03995949 0.19258234
v -0.33351150 1.07791787 0.19811317
v -0.33351150 1.07791787 0.19811317
v -0.33351150 1.07791787 0.19811317
v -0.33351150 1.07791787 0.19811317
v -0.33351150 1.07791787 0.19811317
v -0.33351150 1.07791787 0.19811317
v -0.33351150 1.07791787 0.19811317
v -0.28906214 1.08291835 0.19318298
v -0.28906214 1.08291835 0.19318298
v -0.28906214 1.08291835 0.19318298
v -0.28906214 1.08291835 0.19318298
v -0.20016348 1.09291929 0.18342271
v -0.20016348 1.09291929 0.18342271
v -0.20016348 1.09291929 0.18342271
v -0.20016348 1.09291929 0.18342271
v -0.20016348 1.09291929 0.18342271
v -0.20016348 1.09291929 0.18342271
v -0.20016348 1.09291929 0.18342271
v -0.20016348 1.11519414 0.20564613
v -0.20016348 1.11519414 0.20564613
v -0.20016348 1.11519414 0.20564613
v -0.20016348 1.11519414 0.20564613
v -0.20016348 1.11519414 0.20564613
v -0.20016348 1.11519414 0.20564613
v -0.20016348 1.13065034 0.23207399
v -0.20016348 1.13065034 0.23207399
v -0.20016348 1.13065034 0.23207399
v -0.20016348 1.13065034 0.23207399
v -0.20016348 1.13065034 0.23207399
v -0.20016348 1.13065034 0.23207399
v -0.20016348 1.13065034 0.23207399
v -0.22528459 1.11246663 0.20899966
v -0.22528459 1.11246663 0.20899966
v -0.22528459 1.11246663 0.20899966
v -0.22528459 1.11246663 0.20899966
v -0.22528459 1.11246663 0.20899966
v -0.22528459 1.11246663 0.20899966
v -0.20016348 1.14246958 0.25599924
v -0.20016348 1.14246958 0.25599924
v -0.20016348 1.14246958 0.25599924
v -0.20016348 1.14246958 0.25599924
v -0.45248869 1.07053071 0.25599924
v -0.45248869 1.07053071 0.25599924
v -0.45248869 1.07053071 0.25599924
v -0.42246589 1.08257741 0.25599924
v -0.42246589 1.08257741 0.25599924
v -0.42246589 1.08257741 0.25599924
v -0.42246589 1.08257741 0.25599924
v -0.42246589 1.07507664 0.24085826
v -0.42246589 1.07507664 0.24085826
v -0.42246589 1.07507664 0.24085826
v -0.42246589 1.07507664 0.24085826
v -0.42246589 1.07507664 0.24085826
v -0.42246589 1.07507664 0.24085826
v -0.42246589 1.06223446 0.21860981
v -0.42246589 1.06223446 0.21860981
v -0.42246589 1.06223446 0.21860981
v -0.42246589 1.06223446 0.21860981
v -0.42246589 1.06223446 0.21860981
v -0.38180423 1.08371383 0.22799471
v -0.38180423 1.08371383 0.22799471
v -0.38180423 1.08371383 0.22799471
v -0.38180423 1.08371383 0.22799471
v -0.38180423 1.08371383 0.22799471
v -0.33529392 1.10189754 0.23395100
v -0.33529392 1.10189754 0.23395100
v -0.33529392 1.10189754 0.23395100
v -0.33529392 1.10189754 0.23395100
v -0.33529392 1.10189754 0.23395100
v -0.33529392 1.10189754 0.23395100
v -0.28906214 1.10519332 0.22121254
v -0.28906214 1.10519332 0.22121254
v -0.28906214 1.10519332 0.22121254
v -0.28906214 1.10519332 0.22121254
v -0.28906214 1.10519332 0.22121254
v -0.28906214 1.10519332 0.22121254
v -0.24188349 1.12076300 0.23039722
v -0.24188349 1.12076300 0.23039722
v -0.24188349 1.12076300 0.23039722
v -0.24188349 1.12076300 0.23039722
v -0.24188349 1.12076300 0.23039722
v -0.28906214 1.11758083 0.24346101
v -0.28906214 1.11758083 0.24346101
v -0.28906214 1.11758083 0.24346101
v -0.32164720 1.11405772 0.25001794
v -0.32164720 1.11405772 0.25001794
v -0.32164720 1.11405772 0.25001794
v -0.32164720 1.11405772 0.25001794
v -0.32164720 1.11405772 0.25001794
v -0.32164720 1.11405772 0.25001794
v -0.32164720 1.11405772 0.25001794
v -0.34866217 1.11110288 0.25599924
v -0.34866217 1.11110288 0.25599924
v -0.34866217 1.11110288 0.25599924
v -0.34866217 1.11110288 0.25599924
v -0.35089016 1.11053473 0.25599924
v -0.35089016 1.11053473 0.25599924
v -0.35089016 1.11053473 0.25599924
v -0.35089016 1.11053473 0.25599924
v -0.35089016 1.11053473 0.25599924
vn -0.00000000 -1.00000000 0.00000000
vn 0.89795629 -0.44002677 0.00713767
vn 1.00000000 0.00000000 0.00000000
vn 0.00000000 -1.00000000 0.00000000
vn 0.00824341 -0.07697095 -0.99699926
vn 0.02466214 -0.06063734 -0.99785515
vn 1.00000000 0.00000000 0.00000000
vn 0.24019470 -0.11770294 0.96356241
vn 0.89795629 -0.44002677 0.00713767
vn 1.00000000 0.00000000 0.00000000
vn -0.00000000 -1.00000000 0.00000000
vn 0.05949747 -0.12102791 0.99086442
vn 0.24019470 -0.11770294 0.96356241
vn 0.89795629 -0.44002677 0.00713767
vn 0.00000000 -1.00000000 0.00000000
vn 0.00824341 -0.07697095 -0.99699926
vn -0.11742415 -0.07343883 -0.99036272
vn -1.00000000 0.00000000 0.00000000
vn 0.00113223 -0.00181724 -0.99999771
vn 0.00824341 -0.07697095 -0.99699926
vn 0.02466214 -0.06063734 -0.99785515
vn -0.00009359 0.00112533 -0.99999936
vn -0.00652514 0.01077328 -0.99992068
vn -0.01577654 0.02311920 -0.99960822
vn -0.11742415 -0.07343883 -0.99036272
vn -0.17670760 0.18405990 -0.96690040
vn -0.19133974 0.18354761 -0.96420920
vn -0.19441180 -0.04910567 -0.97969010
vn 0.00108920 0.27306486 -0.96199501
vn 0.00113223 -0.00181724 -0.99999771
vn 0.02466214 -0.06063734 -0.99785515
vn 1.00000000 0.00000000 0.00000000
vn 0.00000000 0.00000000 1.00000000
vn 0.03292531 -0.11393154 0.99294286
vn 0.04846348 -0.11946197 0.99165525
vn 0.05949747 -0.12102791 0.99086442
vn 0.24019470 -0.11770294 0.96356241
vn 1.00000000 0.00000000 0.00000000
vn 0.00000000 -1.00000000 0.00000000
vn 0.04846348 -0.11946197 0.99165525
vn 0.05949747 -0.12102791 0.99086442
vn 0.00000000 -1.00000000 0.00000000
vn 0.03247865 -0.11402992 0.99294628
vn -1.00000000 0.00000000 0.00000000
vn -0.11742415 -0.07343883 -0.99036272
vn -0.19441180 -0.04910567 -0.97969010
vn -1.00000000 0.00000000 0.00000000
vn -0.19133974 0.18354761 -0.96420920
vn -0.19441180 -0.04910567 -0.97969010
vn -0.39056430 0.23383623 -0.89038202
vn -1.00000000 0.00000000 0.00000000
vn -0.17670760 0.18405990 -0.96690040
vn -0.17669708 0.18437214 -0.96684283
vn -0.19133974 0.18354761 -0.96420920
vn -0.23480443 0.30859056 -0.92175851
vn -0.24280355 0.32089743 -0.91546233
vn -0.31611023 0.37700027 -0.87060044
vn -0.38625248 0.36323585 -0.84786127
vn -0.39056430 0.23383623 -0.89038202
vn -0.01577654 0.02311920 -0.99960822
vn -0.01686063 0.02474652 -0.99955156
vn -0.17670760 0.18405990 -0.96690040
vn -0.17669708 0.18437214 -0.96684283
vn -0.00652514 0.01077328 -0.99992068
vn -0.01577654 0.02311920 -0.99960822
vn -0.01686063 0.02474652 -0.99955156
vn -0.06846016 0.13438918 -0.98856095
vn -0.07458723 0.14041672 -0.98727903
vn -0.00009359 0.00112533 -0.99999936
vn -0.00196915 0.01238663 -0.99992134
vn -0.00652514 0.01077328 -0.99992068
vn -0.00954927 0.04272161 -0.99904138
vn -0.04722178 0.15559863 -0.98669102
vn -0.06774502 0.19613332 -0.97823429
vn -0.06846016 0.13438918 -0.98856095
vn 0.00000000 0.27356527 -0.96185344
vn 0.00108920 0.27306486 -0.96199501
vn 0.00113223 -0.00181724 -0.99999771
vn -0.00009359 0.00112533 -0.99999936
vn -0.00189418 0.27356478 -0.96185172
vn -0.00196915 0.01238663 -0.99992134
vn 0.00000000 0.48874141 -0.87242870
vn 0.00000000 0.27356527 -0.96185344
vn 0.00108920 0.27306486 -0.96199501
vn 1.00000000 0.00000000 0.00000000
vn 0.00000000 0.00000000 1.00000000
vn 0.00000000 0.91316497 -0.40759016
vn 1.00000000 0.00000000 0.00000000
vn -0.00473673 0.91967394 -0.39265431
vn 0.00000000 0.00000000 1.00000000
vn 0.03247865 -0.11402992 0.99294628
vn 0.03292531 -0.11393154 0.99294286
vn -1.00000000 0.00000000 0.00000000
vn 0.00000000 -1.00000000 0.00000000
vn 0.03247865 -0.11402992 0.99294628
vn 0.03292531 -0.11393154 0.99294286
vn 0.04846348 -0.11946197 0.99165525
vn -0.38625248 0.36323585 -0.84786127
vn -0.39056430 0.23383623 -0.89038202
vn -1.00000000 0.00000000 0.00000000
vn -0.27017450 0.39753229 -0.87691152
vn -0.27032335 0.39608389 -0.87752085
vn -0.28275314 0.38855780 -0.87696836
vn -0.29898361 0.40218645 -0.86536400
vn -0.31611023 0.37700027 -0.87060044
vn -0.38625248 0.36323585 -0.84786127
vn -1.00000000 0.00000000 0.00000000
vn -0.24280355 0.32089743 -0.91546233
vn -0.25869252 0.36230894 -0.89543867
vn -0.28275314 0.38855780 -0.87696836
vn -0.31611023 0.37700027 -0.87060044
vn -0.10008482 0.17839746 -0.97885514
vn -0.20779425 0.39530745 -0.89473659
vn -0.23336225 0.41401311 -0.87984953
vn -0.23480443 0.30859056 -0.92175851
vn -0.24163037 0.41040599 -0.87930750
vn -0.24280355 0.32089743 -0.91546233
vn -0.25074060 0.40549343 -0.87903596
vn -0.25232597 0.40453491 -0.87902395
vn -0.25869252 0.36230894 -0.89543867
vn -0.01686063 0.02474652 -0.99955156
vn -0.07458723 0.14041672 -0.98727903
vn -0.10008482 0.17839746 -0.97885514
vn -0.17669708 0.18437214 -0.96684283
vn -0.23480443 0.30859056 -0.92175851
vn -0.06774502 0.19613332 -0.97823429
vn -0.06846016 0.13438918 -0.98856095
vn -0.07458723 0.14041672 -0.98727903
vn -0.09864671 0.28905624 -0.95221600
vn -0.10008482 0.17839746 -0.97885514
vn -0.17113087 0.42783562 -0.88750826
vn -0.20230969 0.42526200 -0.88216950
vn -0.20779425 0.39530745 -0.89473659
vn -0.04443585 0.36871533 -0.92847965
vn -0.04722178 0.15559863 -0.98669102
vn -0.05822415 0.40594361 -0.91204152
vn -0.06774502 0.19613332 -0.97823429
vn -0.09263723 0.43796213 -0.89420776
vn -0.09864671 0.28905624 -0.95221600
vn -0.00915592 0.28699041 -0.95788970
vn -0.00954927 0.04272161 -0.99904138
vn -0.02853971 0.34032700 -0.93987394
vn -0.04443585 0.36871533 -0.92847965
vn -0.04722178 0.15559863 -0.98669102
vn -0.00189418 0.27356478 -0.96185172
vn -0.00196915 0.01238663 -0.99992134
vn -0.00915592 0.28699041 -0.95788970
vn -0.00954927 0.04272161 -0.99904138
vn 0.00000000 0.48874141 -0.87242870
vn 0.00000000 0.27356527 -0.96185344
vn -0.00189418 0.27356478 -0.96185172
vn -0.00915592 0.28699041 -0.95788970
vn -0.01667812 0.48867344 -0.87230735
vn -0.02650781 0.48707297 -0.87295891
vn -0.02853971 0.34032700 -0.93987394
vn 0.00000000 0.49830697 -0.86700067
vn 0.00000000 0.48874141 -0.87242870
vn 1.00000000 0.00000000 0.00000000
vn 0.00000000 0.91316497 -0.40759016
vn 0.00000000 0.88157706 -0.47204013
vn 1.00000000 0.00000000 0.00000000
vn 0.00000000 0.91316497 -0.40759016
vn 0.00000000 0.88157706 -0.47204013
vn -0.00066557 0.88102271 -0.47307350
vn -0.00473673 0.91967394 -0.39265431
vn -0.01888417 0.91952026 -0.39258870
vn -0.02043284 0.88083898 -0.47297484
vn 0.00000000 0.00000000 1.00000000
vn -0.00473673 0.91967394 -0.39265431
vn -0.01888417 0.91952026 -0.39258870
vn -0.02130255 0.92692241 -0.37464790
vn 0.00000000 0.00000000 1.00000000
vn -0.47564732 0.76293160 -0.43782988
vn -1.00000000 0.00000000 0.00000000
vn -0.29457248 0.44363423 -0.84641345
vn -0.29898361 0.40218645 -0.86536400
vn -1.00000000 0.00000000 0.00000000
vn -0.23751239 0.44724188 -0.86230074
vn -0.24462217 0.41162603 -0.87790888
vn -0.24566724 0.45430722 -0.85630168
vn -0.25074060 0.40549343 -0.87903596
vn -0.25232597 0.40453491 -0.87902395
vn -0.26748031 0.39765919 -0.87767958
vn -0.27017450 0.39753229 -0.87691152
vn -0.28868006 0.44871664 -0.84576427
vn -0.28933130 0.44835343 -0.84573436
vn -0.29457248 0.44363423 -0.84641345
vn -0.29898361 0.40218645 -0.86536400
vn -0.26748031 0.39765919 -0.87767958
vn -0.27017450 0.39753229 -0.87691152
vn -0.27032335 0.39608389 -0.87752085
vn -0.25232597 0.40453491 -0.87902395
vn -0.25869252 0.36230894 -0.89543867
vn -0.26748031 0.39765919 -0.87767958
vn -0.27032335 0.39608389 -0.87752085
vn -0.28275314 0.38855780 -0.87696836
vn -0.20230969 0.42526200 -0.88216950
vn -0.20740008 0.43210287 -0.87765159
vn -0.20779425 0.39530745 -0.89473659
vn -0.23336225 0.41401311 -0.87984953
vn -0.24163037 0.41040599 -0.87930750
vn -0.24462217 0.41162603 -0.87790888
vn -0.25074060 0.40549343 -0.87903596
vn -0.20688084 0.43264525 -0.87750692
vn -0.20740008 0.43210287 -0.87765159
vn -0.20833591 0.43916954 -0.87391433
vn -0.22129227 0.44862847 -0.86588812
vn -0.23336225 0.41401311 -0.87984953
vn -0.23751239 0.44724188 -0.86230074
vn -0.24163037 0.41040599 -0.87930750
vn -0.24462217 0.41162603 -0.87790888
vn -0.17113087 0.42783562 -0.88750826
vn -0.17125856 0.43205767 -0.88543587
vn -0.17543932 0.45030200 -0.87547082
vn -0.17638508 0.45004991 -0.87541041
vn -0.19520985 0.44142998 -0.87580403
vn -0.19708859 0.44021502 -0.87599476
vn -0.20230969 0.42526200 -0.88216950
vn -0.20688084 0.43264525 -0.87750692
vn -0.20740008 0.43210287 -0.87765159
vn -0.09263723 0.43796213 -0.89420776
vn -0.09864671 0.28905624 -0.95221600
vn -0.10505601 0.46234375 -0.88045528
vn -0.11668528 0.47437075 -0.87255770
vn -0.16255383 0.45713663 -0.87441543
vn -0.16762084 0.45392773 -0.87513020
vn -0.17113087 0.42783562 -0.88750826
vn -0.17125856 0.43205767 -0.88543587
vn -0.05822415 0.40594361 -0.91204152
vn -0.06088182 0.48126691 -0.87445730
vn -0.09263723 0.43796213 -0.89420776
vn -0.09768992 0.47985510 -0.87189206
vn -0.10505601 0.46234375 -0.88045528
vn -0.10631258 0.47813236 -0.87182973
vn -0.02650781 0.48707297 -0.87295891
vn -0.02853971 0.34032700 -0.93987394
vn -0.02850546 0.48704618 -0.87291091
vn -0.04443585 0.36871533 -0.92847965
vn -0.05822415 0.40594361 -0.91204152
vn -0.05998411 0.48156661 -0.87435434
vn -0.06088182 0.48126691 -0.87445730
vn -0.01658157 0.49758372 -0.86725745
vn -0.01667812 0.48867344 -0.87230735
vn -0.02590026 0.49748519 -0.86708573
vn -0.02650781 0.48707297 -0.87295891
vn -0.02836018 0.49494377 -0.86846207
vn -0.02850546 0.48704618 -0.87291091
vn 0.00000000 0.49830697 -0.86700067
vn 0.00000000 0.48874141 -0.87242870
vn -0.01592105 0.49824381 -0.86689078
vn -0.01658157 0.49758372 -0.86725745
vn -0.01667812 0.48867344 -0.87230735
vn 0.00000000 0.59054509 -0.80700464
vn 0.00000000 0.49830697 -0.86700067
vn 1.00000000 0.00000000 0.00000000
vn 0.00000000 0.88157706 -0.47204013
vn 0.00000000 0.88047569 -0.47409129
vn 1.00000000 0.00000000 0.00000000
vn -0.00066557 0.88102271 -0.47307350
vn 0.00000000 0.88047569 -0.47409129
vn 0.00000000 0.82250283 -0.56876102
vn -0.00066557 0.88102271 -0.47307350
vn -0.00100304 0.82185264 -0.56969925
vn -0.01913787 0.82170253 -0.56959520
vn -0.02043284 0.88083898 -0.47297484
vn -0.02274077 0.87891526 -0.47643554
vn -0.02418711 0.82489421 -0.56476945
vn -0.01888417 0.91952026 -0.39258870
vn -0.02043284 0.88083898 -0.47297484
vn -0.02130255 0.92692241 -0.37464790
vn -0.02274077 0.87891526 -0.47643554
vn -0.04079634 0.92636094 -0.37442096
vn -0.04449499 0.87827191 -0.47608680
vn 0.00000000 0.00000000 1.00000000
vn -0.02130255 0.92692241 -0.37464790
vn -0.04079634 0.92636094 -0.37442096
vn -0.04297274 0.93272503 -0.35801865
vn 0.00000000 0.00000000 1.00000000
vn -0.42250953 0.78867282 -0.44663282
vn -0.43733194 0.77816299 -0.45078057
vn -0.47564732 0.76293160 -0.43782988
vn -0.42799350 0.75743887 -0.49305976
vn -0.43733194 0.77816299 -0.45078057
vn -0.47564732 0.76293160 -0.43782988
vn -1.00000000 0.00000000 0.00000000
vn -0.28933130 0.44835343 -0.84573436
vn -0.29457248 0.44363423 -0.84641345
vn -1.00000000 0.00000000 0.00000000
vn -0.28868006 0.44871664 -0.84576427
vn -0.28933130 0.44835343 -0.84573436
vn -0.30523761 0.54387505 -0.78168403
vn -0.34025125 0.58321268 -0.73762596
vn -0.38819612 0.59077758 -0.70730872
vn -1.00000000 0.00000000 0.00000000
vn -0.24566724 0.45430722 -0.85630168
vn -0.25959381 0.50549111 -0.82285466
vn -0.28868006 0.44871664 -0.84576427
vn -0.30523761 0.54387505 -0.78168403
vn -0.21534572 0.48510079 -0.84752784
vn -0.22087087 0.49241065 -0.84187161
vn -0.22129227 0.44862847 -0.86588812
vn -0.23751239 0.44724188 -0.86230074
vn -0.24566724 0.45430722 -0.85630168
vn -0.25402229 0.50951560 -0.82211102
vn -0.25959381 0.50549111 -0.82285466
vn -0.18952266 0.46879546 -0.86273517
vn -0.19520985 0.44142998 -0.87580403
vn -0.19708859 0.44021502 -0.87599476
vn -0.20752194 0.48594155 -0.84899674
vn -0.20833591 0.43916954 -0.87391433
vn -0.21534572 0.48510079 -0.84752784
vn -0.22129227 0.44862847 -0.86588812
vn -0.19708859 0.44021502 -0.87599476
vn -0.20688084 0.43264525 -0.87750692
vn -0.20833591 0.43916954 -0.87391433
vn -0.16762084 0.45392773 -0.87513020
vn -0.17125856 0.43205767 -0.88543587
vn -0.17543932 0.45030200 -0.87547082
vn -0.17638508 0.45004991 -0.87541041
vn -0.17919120 0.46517628 -0.86689189
vn -0.18651249 0.46923324 -0.86315309
vn -0.18952266 0.46879546 -0.86273517
vn -0.19520985 0.44142998 -0.87580403
vn -0.16255383 0.45713663 -0.87441543
vn -0.16762084 0.45392773 -0.87513020
vn -0.17214194 0.46612550 -0.86780998
vn -0.17543932 0.45030200 -0.87547082
vn -0.17638508 0.45004991 -0.87541041
vn -0.17919120 0.46517628 -0.86689189
vn -0.10505601 0.46234375 -0.88045528
vn -0.10631258 0.47813236 -0.87182973
vn -0.10780780 0.47805494 -0.87168856
vn -0.11621992 0.47464552 -0.87247038
vn -0.11668528 0.47437075 -0.87255770
vn -0.11438882 0.48457928 -0.86723591
vn -0.11621992 0.47464552 -0.87247038
vn -0.11668528 0.47437075 -0.87255770
vn -0.12541144 0.49478511 -0.85991841
vn -0.15991419 0.49230451 -0.85560722
vn -0.16255383 0.45713663 -0.87441543
vn -0.16855812 0.48381421 -0.85878517
vn -0.17214194 0.46612550 -0.86780998
vn -0.09688895 0.49277943 -0.86474330
vn -0.09768992 0.47985510 -0.87189206
vn -0.10161901 0.49833654 -0.86100770
vn -0.10631258 0.47813236 -0.87182973
vn -0.10780780 0.47805494 -0.87168856
vn -0.11248572 0.49775043 -0.85999504
vn -0.11254277 0.48482635 -0.86733934
vn -0.11287865 0.49527624 -0.86137092
vn -0.05949958 0.49423165 -0.86729169
vn -0.05998411 0.48156661 -0.87435434
vn -0.06088182 0.48126691 -0.87445730
vn -0.09688895 0.49277943 -0.86474330
vn -0.09768992 0.47985510 -0.87189206
vn -0.02836018 0.49494377 -0.86846207
vn -0.02850546 0.48704618 -0.87291091
vn -0.05946818 0.49426663 -0.86727391
vn -0.05949958 0.49423165 -0.86729169
vn -0.05998411 0.48156661 -0.87435434
vn -0.02590026 0.49748519 -0.86708573
vn -0.02744035 0.59620827 -0.80236072
vn -0.02836018 0.49494377 -0.86846207
vn -0.03787580 0.60918080 -0.79212636
vn -0.05946818 0.49426663 -0.86727391
vn -0.06309669 0.60840352 -0.79111565
vn -0.01592105 0.49824381 -0.86689078
vn -0.01658157 0.49758372 -0.86725745
vn -0.01676037 0.59046214 -0.80689129
vn -0.02132046 0.59629729 -0.80248052
vn -0.02590026 0.49748519 -0.86708573
vn -0.02744035 0.59620827 -0.80236072
vn 0.00000000 0.59054509 -0.80700464
vn 0.00000000 0.49830697 -0.86700067
vn -0.01592105 0.49824381 -0.86689078
vn -0.01676037 0.59046214 -0.80689129
vn 0.00000000 0.69522122 -0.71879584
vn 0.00000000 0.59054509 -0.80700464
vn 1.00000000 0.00000000 0.00000000
vn 0.00000000 0.88047569 -0.47409129
vn 0.00000000 0.82250283 -0.56876102
vn 1.00000000 0.00000000 0.00000000
vn 0.00000000 0.82250283 -0.56876102
vn 0.00000000 0.82121328 -0.57062137
vn 1.00000000 0.00000000 0.00000000
vn -0.00100304 0.82185264 -0.56969925
vn 0.00000000 0.82121328 -0.57062137
vn 0.00000000 0.70027042 -0.71387767
vn -0.00100304 0.82185264 -0.56969925
vn -0.00254711 0.69771888 -0.71636714
vn -0.01913787 0.82170253 -0.56959520
vn -0.01977969 0.69758464 -0.71622932
vn -0.01913787 0.82170253 -0.56959520
vn -0.01977969 0.69758464 -0.71622932
vn -0.02156093 0.69577865 -0.71793258
vn -0.02418711 0.82489421 -0.56476945
vn -0.03798280 0.69543824 -0.71758133
vn -0.03876385 0.82451543 -0.56451012
vn -0.03935633 0.69677580 -0.71620847
vn -0.02274077 0.87891526 -0.47643554
vn -0.02418711 0.82489421 -0.56476945
vn -0.03876385 0.82451543 -0.56451012
vn -0.04449499 0.87827191 -0.47608680
vn -0.05479123 0.87169975 -0.48696761
vn -0.06307229 0.83881827 -0.54074559
vn -0.04079634 0.92636094 -0.37442096
vn -0.04297274 0.93272503 -0.35801865
vn -0.04449499 0.87827191 -0.47608680
vn -0.05479123 0.87169975 -0.48696761
vn -0.06703551 0.92574185 -0.37216699
vn -0.07385415 0.89450154 -0.44092239
vn -0.07581426 0.87745673 -0.47362632
vn 0.00000000 0.00000000 1.00000000
vn -0.04297274 0.93272503 -0.35801865
vn -0.06703551 0.92574185 -0.37216699
vn 0.00000000 0.00000000 1.00000000
vn -0.40812454 0.81863135 -0.40407558
vn -0.42164630 0.78905310 -0.44677691
vn -0.42250953 0.78867282 -0.44663282
vn -0.40166522 0.78849426 -0.46577017
vn -0.41111480 0.75998656 -0.50339354
vn -0.42164630 0.78905310 -0.44677691
vn -0.42250953 0.78867282 -0.44663282
vn -0.42799350 0.75743887 -0.49305976
vn -0.43733194 0.77816299 -0.45078057
vn -0.37356963 0.73507606 -0.56578169
vn -0.37749155 0.63135249 -0.67741728
vn -0.41111480 0.75998656 -0.50339354
vn -0.42799350 0.75743887 -0.49305976
vn -1.00000000 0.00000000 0.00000000
vn -0.38819612 0.59077758 -0.70730872
vn -0.38835325 0.62043516 -0.68135304
vn -1.00000000 0.00000000 0.00000000
vn -0.34025125 0.58321268 -0.73762596
vn -0.34329975 0.64005755 -0.68736571
vn -0.37708681 0.63116570 -0.67781664
vn -0.38819612 0.59077758 -0.70730872
vn -0.38835325 0.62043516 -0.68135304
vn -0.25402229 0.50951560 -0.82211102
vn -0.25959381 0.50549111 -0.82285466
vn -0.26535108 0.61821469 -0.73986445
vn -0.27515151 0.63999183 -0.71742742
vn -0.29132701 0.65899262 -0.69343875
vn -0.30353242 0.66463132 -0.68273954
vn -0.30523761 0.54387505 -0.78168403
vn -0.31961180 0.66657192 -0.67344648
vn -0.34025125 0.58321268 -0.73762596
vn -0.34329975 0.64005755 -0.68736571
vn -0.22087087 0.49241065 -0.84187161
vn -0.22678848 0.54312284 -0.80844577
vn -0.24940881 0.59231900 -0.76612887
vn -0.25402229 0.50951560 -0.82211102
vn -0.26535108 0.61821469 -0.73986445
vn -0.20752194 0.48594155 -0.84899674
vn -0.21165234 0.51742748 -0.82913937
vn -0.21534572 0.48510079 -0.84752784
vn -0.22087087 0.49241065 -0.84187161
vn -0.22678848 0.54312284 -0.80844577
vn -0.18651249 0.46923324 -0.86315309
vn -0.18952266 0.46879546 -0.86273517
vn -0.19099249 0.49229547 -0.84921554
vn -0.20587605 0.51362658 -0.83294825
vn -0.20752194 0.48594155 -0.84899674
vn -0.21165234 0.51742748 -0.82913937
vn -0.16855812 0.48381421 -0.85878517
vn -0.17214194 0.46612550 -0.86780998
vn -0.17919120 0.46517628 -0.86689189
vn -0.18651249 0.46923324 -0.86315309
vn -0.19099249 0.49229547 -0.84921554
vn -0.10780780 0.47805494 -0.87168856
vn -0.11254277 0.48482635 -0.86733934
vn -0.11438882 0.48457928 -0.86723591
vn -0.11621992 0.47464552 -0.87247038
vn -0.15991419 0.49230451 -0.85560722
vn -0.16855812 0.48381421 -0.85878517
vn -0.16869284 0.60032653 -0.78176133
vn -0.19099249 0.49229547 -0.84921554
vn -0.20587605 0.51362658 -0.83294825
vn -0.21689376 0.63883412 -0.73813824
vn -0.12541144 0.49478511 -0.85991841
vn -0.12804547 0.52769868 -0.83972523
vn -0.14868201 0.58328320 -0.79854516
vn -0.15084190 0.58760434 -0.79496406
vn -0.15991419 0.49230451 -0.85560722
vn -0.16253211 0.60095665 -0.78258189
vn -0.16869284 0.60032653 -0.78176133
vn -0.11254277 0.48482635 -0.86733934
vn -0.11287865 0.49527624 -0.86137092
vn -0.11377529 0.49966730 -0.85871286
vn -0.11438882 0.48457928 -0.86723591
vn -0.11893766 0.51187108 -0.85078895
vn -0.12541144 0.49478511 -0.85991841
vn -0.12804547 0.52769868 -0.83972523
vn -0.11248572 0.49775043 -0.85999504
vn -0.11287865 0.49527624 -0.86137092
vn -0.11377529 0.49966730 -0.85871286
vn -0.10161901 0.49833654 -0.86100770
vn -0.10784330 0.63149112 -0.76784685
vn -0.11248572 0.49775043 -0.85999504
vn -0.11377529 0.49966730 -0.85871286
vn -0.11893766 0.51187108 -0.85078895
vn -0.12623960 0.65111789 -0.74840434
vn -0.05946818 0.49426663 -0.86727391
vn -0.05949958 0.49423165 -0.86729169
vn -0.06309669 0.60840352 -0.79111565
vn -0.08414339 0.63294302 -0.76961225
vn -0.09688895 0.49277943 -0.86474330
vn -0.10161901 0.49833654 -0.86100770
vn -0.10784330 0.63149112 -0.76784685
vn -0.03787580 0.60918080 -0.79212636
vn -0.03798280 0.69543824 -0.71758133
vn -0.03935633 0.69677580 -0.71620847
vn -0.06309669 0.60840352 -0.79111565
vn -0.08385171 0.69486027 -0.71423952
vn -0.08414339 0.63294302 -0.76961225
vn -0.02132046 0.59629729 -0.80248052
vn -0.02156093 0.69577865 -0.71793258
vn -0.02744035 0.59620827 -0.80236072
vn -0.03787580 0.60918080 -0.79212636
vn -0.03798280 0.69543824 -0.71758133
vn 0.00000000 0.69522122 -0.71879584
vn 0.00000000 0.59054509 -0.80700464
vn -0.00254711 0.69771888 -0.71636714
vn -0.01676037 0.59046214 -0.80689129
vn -0.01977969 0.69758464 -0.71622932
vn -0.02132046 0.59629729 -0.80248052
vn -0.02156093 0.69577865 -0.71793258
vn 0.00000000 0.70027042 -0.71387767
vn 0.00000000 0.69522122 -0.71879584
vn 1.00000000 0.00000000 0.00000000
vn -0.00254711 0.69771888 -0.71636714
vn 0.00000000 0.82121328 -0.57062137
vn 0.00000000 0.70027042 -0.71387767
vn 1.00000000 0.00000000 0.00000000
vn -0.03876385 0.82451543 -0.56451012
vn -0.03935633 0.69677580 -0.71620847
vn -0.06307229 0.83881827 -0.54074559
vn -0.08385171 0.69486027 -0.71423952
vn -0.08897049 0.83665255 -0.54045976
vn -0.09128539 0.70194041 -0.70636154
vn -0.05479123 0.87169975 -0.48696761
vn -0.06307229 0.83881827 -0.54074559
vn -0.07581426 0.87745673 -0.47362632
vn -0.08897049 0.83665255 -0.54045976
vn -0.10150189 0.84225084 -0.52944395
vn -0.10810499 0.86322888 -0.49310162
vn -0.07385415 0.89450154 -0.44092239
vn -0.07581426 0.87745673 -0.47362632
vn -0.10810499 0.86322888 -0.49310162
vn -0.13742656 0.90963083 -0.39202767
vn -0.14654131 0.90491641 -0.39956469
vn -0.15013851 0.87796589 -0.45457049
vn -0.15123555 0.88944722 -0.43129044
vn 0.00000000 0.00000000 1.00000000
vn -0.06703551 0.92574185 -0.37216699
vn -0.07385415 0.89450154 -0.44092239
vn -0.13742656 0.90963083 -0.39202767
vn -0.36846346 0.81285495 -0.45111141
vn -0.36901427 0.81173492 -0.45267525
vn -0.37511342 0.82520004 -0.42229707
vn -0.38290247 0.83506914 -0.39502561
vn -0.40166522 0.78849426 -0.46577017
vn -0.40812454 0.81863135 -0.40407558
vn -0.42164630 0.78905310 -0.44677691
vn 0.00000000 0.00000000 1.00000000
vn -0.38290247 0.83506914 -0.39502561
vn -0.40812454 0.81863135 -0.40407558
vn -0.35401037 0.80454364 -0.47685028
vn -0.35924403 0.80836207 -0.46636304
vn -0.36658914 0.81162404 -0.45483933
vn -0.36901427 0.81173492 -0.45267525
vn -0.37115920 0.73413649 -0.56858110
vn -0.37356963 0.73507606 -0.56578169
vn -0.40166522 0.78849426 -0.46577017
vn -0.41111480 0.75998656 -0.50339354
vn -0.37708681 0.63116570 -0.67781664
vn -0.37749155 0.63135249 -0.67741728
vn -0.38835325 0.62043516 -0.68135304
vn -1.00000000 0.00000000 0.00000000
vn -0.31960964 0.66826321 -0.67176928
vn -0.31961180 0.66657192 -0.67344648
vn -0.34329975 0.64005755 -0.68736571
vn -0.37115920 0.73413649 -0.56858110
vn -0.37356963 0.73507606 -0.56578169
vn -0.37708681 0.63116570 -0.67781664
vn -0.37749155 0.63135249 -0.67741728
vn -0.30353242 0.66463132 -0.68273954
vn -0.30611142 0.66665467 -0.67960823
vn -0.31960964 0.66826321 -0.67176928
vn -0.31961180 0.66657192 -0.67344648
vn -0.27766951 0.66178471 -0.69637679
vn -0.27805485 0.68397150 -0.67443939
vn -0.28149579 0.69139959 -0.66537714
vn -0.29132701 0.65899262 -0.69343875
vn -0.30353242 0.66463132 -0.68273954
vn -0.30454650 0.72296716 -0.62013702
vn -0.30611142 0.66665467 -0.67960823
vn -0.27515151 0.63999183 -0.71742742
vn -0.27569809 0.66009528 -0.69875946
vn -0.27766951 0.66178471 -0.69637679
vn -0.29132701 0.65899262 -0.69343875
vn -0.24940881 0.59231900 -0.76612887
vn -0.25375589 0.66059375 -0.70655775
vn -0.25937881 0.66320703 -0.70205347
vn -0.26535108 0.61821469 -0.73986445
vn -0.27515151 0.63999183 -0.71742742
vn -0.27569809 0.66009528 -0.69875946
vn -0.20587605 0.51362658 -0.83294825
vn -0.21165234 0.51742748 -0.82913937
vn -0.21689376 0.63883412 -0.73813824
vn -0.22678848 0.54312284 -0.80844577
vn -0.22873993 0.65621421 -0.71906951
vn -0.24940881 0.59231900 -0.76612887
vn -0.25375589 0.66059375 -0.70655775
vn -0.16253211 0.60095665 -0.78258189
vn -0.16482076 0.67904831 -0.71535132
vn -0.16869284 0.60032653 -0.78176133
vn -0.21241871 0.67275245 -0.70871887
vn -0.21689376 0.63883412 -0.73813824
vn -0.22873993 0.65621421 -0.71906951
vn -0.15084190 0.58760434 -0.79496406
vn -0.15486682 0.68854923 -0.70846047
vn -0.15523819 0.68926039 -0.70768723
vn -0.15601587 0.68917491 -0.70759946
vn -0.16253211 0.60095665 -0.78258189
vn -0.16482076 0.67904831 -0.71535132
vn -0.14868201 0.58328320 -0.79854516
vn -0.15084190 0.58760434 -0.79496406
vn -0.15353125 0.68698392 -0.71026844
vn -0.15486682 0.68854923 -0.70846047
vn -0.11893766 0.51187108 -0.85078895
vn -0.12623960 0.65111789 -0.74840434
vn -0.12804547 0.52769868 -0.83972523
vn -0.14600580 0.68321102 -0.71547537
vn -0.14868201 0.58328320 -0.79854516
vn -0.15353125 0.68698392 -0.71026844
vn -0.08385171 0.69486027 -0.71423952
vn -0.08414339 0.63294302 -0.76961225
vn -0.09128539 0.70194041 -0.70636154
vn -0.10784330 0.63149112 -0.76784685
vn -0.12623960 0.65111789 -0.74840434
vn -0.14578210 0.69735300 -0.70174524
vn -0.14600580 0.68321102 -0.71547537
vn -0.08897049 0.83665255 -0.54045976
vn -0.09128539 0.70194041 -0.70636154
vn -0.10150189 0.84225084 -0.52944395
vn -0.14106133 0.83815785 -0.52687107
vn -0.14578210 0.69735300 -0.70174524
vn -0.14712003 0.69860353 -0.70022054
vn -0.10150189 0.84225084 -0.52944395
vn -0.10810499 0.86322888 -0.49310162
vn -0.14106133 0.83815785 -0.52687107
vn -0.15013851 0.87796589 -0.45457049
vn -0.15951479 0.84823736 -0.50502317
vn -0.16601065 0.85432477 -0.49251360
vn -0.17004733 0.87509837 -0.45308581
vn 0.00000000 0.00000000 1.00000000
vn -0.15013851 0.87796589 -0.45457049
vn -0.15123555 0.88944722 -0.43129044
vn -0.17004733 0.87509837 -0.45308581
vn -0.18255846 0.88149924 -0.43546698
vn 0.00000000 0.00000000 1.00000000
vn -0.14654131 0.90491641 -0.39956469
vn -0.15123555 0.88944722 -0.43129044
vn 0.00000000 0.00000000 1.00000000
vn -0.13742656 0.90963083 -0.39202767
vn -0.14654131 0.90491641 -0.39956469
vn 0.00000000 0.00000000 1.00000000
vn -0.36486322 0.84534879 -0.39020540
vn -0.37511342 0.82520004 -0.42229707
vn -0.38290247 0.83506914 -0.39502561
vn -0.33052333 0.84571045 -0.41896082
vn -0.34213799 0.81380754 -0.46974342
vn -0.34432393 0.85812487 -0.38087103
vn -0.34981461 0.80758651 -0.47479867
vn -0.35924403 0.80836207 -0.46636304
vn -0.36486322 0.84534879 -0.39020540
vn -0.36658914 0.81162404 -0.45483933
vn -0.36846346 0.81285495 -0.45111141
vn -0.37511342 0.82520004 -0.42229707
vn -0.36658914 0.81162404 -0.45483933
vn -0.36846346 0.81285495 -0.45111141
vn -0.36901427 0.81173492 -0.45267525
vn -0.34981461 0.80758651 -0.47479867
vn -0.35088703 0.80418922 -0.47974785
vn -0.35401037 0.80454364 -0.47685028
vn -0.35924403 0.80836207 -0.46636304
vn -0.30454650 0.72296716 -0.62013702
vn -0.30611142 0.66665467 -0.67960823
vn -0.31960964 0.66826321 -0.67176928
vn -0.33736273 0.78874705 -0.51387205
vn -0.35088703 0.80418922 -0.47974785
vn -0.35401037 0.80454364 -0.47685028
vn -0.37115920 0.73413649 -0.56858110
vn -0.27100613 0.81442271 -0.51309972
vn -0.28149579 0.69139959 -0.66537714
vn -0.30454650 0.72296716 -0.62013702
vn -0.32296524 0.82208154 -0.46890873
vn -0.32863502 0.81797101 -0.47214664
vn -0.33736273 0.78874705 -0.51387205
vn -0.20755349 0.80676113 -0.55322512
vn -0.20911963 0.80875537 -0.54971241
vn -0.21241871 0.67275245 -0.70871887
vn -0.22873993 0.65621421 -0.71906951
vn -0.25375589 0.66059375 -0.70655775
vn -0.25611723 0.82181021 -0.50895181
vn -0.25937881 0.66320703 -0.70205347
vn -0.27100613 0.81442271 -0.51309972
vn -0.27805485 0.68397150 -0.67443939
vn -0.28149579 0.69139959 -0.66537714
vn -0.25937881 0.66320703 -0.70205347
vn -0.27569809 0.66009528 -0.69875946
vn -0.27766951 0.66178471 -0.69637679
vn -0.27805485 0.68397150 -0.67443939
vn -0.15601587 0.68917491 -0.70759946
vn -0.15604441 0.69920676 -0.69768191
vn -0.16482076 0.67904831 -0.71535132
vn -0.16759972 0.73281923 -0.65945911
vn -0.19931150 0.80185698 -0.56329416
vn -0.20755349 0.80676113 -0.55322512
vn -0.21241871 0.67275245 -0.70871887
vn -0.15523819 0.68926039 -0.70768723
vn -0.15527348 0.69772270 -0.69933767
vn -0.15601587 0.68917491 -0.70759946
vn -0.15604441 0.69920676 -0.69768191
vn -0.14578210 0.69735300 -0.70174524
vn -0.14600580 0.68321102 -0.71547537
vn -0.14712003 0.69860353 -0.70022054
vn -0.15353125 0.68698392 -0.71026844
vn -0.15486682 0.68854923 -0.70846047
vn -0.15523819 0.68926039 -0.70768723
vn -0.15527348 0.69772270 -0.69933767
vn -0.14106133 0.83815785 -0.52687107
vn -0.14712003 0.69860353 -0.70022054
vn -0.15527348 0.69772270 -0.69933767
vn -0.15604441 0.69920676 -0.69768191
vn -0.15951479 0.84823736 -0.50502317
vn -0.16759972 0.73281923 -0.65945911
vn -0.16601065 0.85432477 -0.49251360
vn -0.17004733 0.87509837 -0.45308581
vn -0.18255846 0.88149924 -0.43546698
vn -0.18456954 0.85960099 -0.47646640
vn -0.18464600 0.88114967 -0.43529429
vn -0.18660939 0.86739495 -0.46130568
vn -0.18670178 0.86635227 -0.46322370
vn -0.15951479 0.84823736 -0.50502317
vn -0.16601065 0.85432477 -0.49251360
vn -0.16759972 0.73281923 -0.65945911
vn -0.18456954 0.85960099 -0.47646640
vn -0.18950650 0.85696240 -0.47927313
vn -0.19931150 0.80185698 -0.56329416
vn 0.00000000 0.00000000 1.00000000
vn -0.18255846 0.88149924 -0.43546698
vn -0.18464600 0.88114967 -0.43529429
vn -0.18845764 0.89221075 -0.41041892
vn 0.00000000 0.00000000 1.00000000
vn -0.34432393 0.85812487 -0.38087103
vn -0.36486322 0.84534879 -0.39020540
vn 0.00000000 0.00000000 1.00000000
vn -0.33035343 0.84576375 -0.41898723
vn -0.33052333 0.84571045 -0.41896082
vn -0.34432393 0.85812487 -0.38087103
vn -0.31907813 0.83528738 -0.44775456
vn -0.32296524 0.82208154 -0.46890873
vn -0.32863502 0.81797101 -0.47214664
vn -0.33035343 0.84576375 -0.41898723
vn -0.33052333 0.84571045 -0.41896082
vn -0.34213799 0.81380754 -0.46974342
vn -0.32863502 0.81797101 -0.47214664
vn -0.33736273 0.78874705 -0.51387205
vn -0.34213799 0.81380754 -0.46974342
vn -0.34981461 0.80758651 -0.47479867
vn -0.35088703 0.80418922 -0.47974785
vn -0.25611723 0.82181021 -0.50895181
vn -0.25745788 0.82390372 -0.50487434
vn -0.27100613 0.81442271 -0.51309972
vn -0.31907813 0.83528738 -0.44775456
vn -0.32296524 0.82208154 -0.46890873
vn -0.19374662 0.85442278 -0.48210368
vn -0.19940371 0.85540343 -0.47804094
vn -0.20911963 0.80875537 -0.54971241
vn -0.21611042 0.84747160 -0.48485891
vn -0.25611723 0.82181021 -0.50895181
vn -0.25745788 0.82390372 -0.50487434
vn -0.18950650 0.85696240 -0.47927313
vn -0.18977688 0.85733019 -0.47850777
vn -0.19374662 0.85442278 -0.48210368
vn -0.19931150 0.80185698 -0.56329416
vn -0.20755349 0.80676113 -0.55322512
vn -0.20911963 0.80875537 -0.54971241
vn -0.18456954 0.85960099 -0.47646640
vn -0.18670178 0.86635227 -0.46322370
vn -0.18713276 0.86528559 -0.46503997
vn -0.18950650 0.85696240 -0.47927313
vn -0.18977688 0.85733019 -0.47850777
vn -0.18660939 0.86739495 -0.46130568
vn -0.18670178 0.86635227 -0.46322370
vn -0.18713276 0.86528559 -0.46503997
vn -0.18464600 0.88114967 -0.43529429
vn -0.18660939 0.86739495 -0.46130568
vn -0.18713276 0.86528559 -0.46503997
vn -0.18845764 0.89221075 -0.41041892
vn -0.18977688 0.85733019 -0.47850777
vn -0.19374662 0.85442278 -0.48210368
vn -0.19940371 0.85540343 -0.47804094
vn 0.00000000 0.00000000 1.00000000
vn -0.18845764 0.89221075 -0.41041892
vn -0.19940371 0.85540343 -0.47804094
vn -0.21611042 0.84747160 -0.48485891
vn 0.00000000 0.00000000 1.00000000
vn -0.21611042 0.84747160 -0.48485891
vn -0.25745788 0.82390372 -0.50487434
vn -0.31907813 0.83528738 -0.44775456
vn -0.33035343 0.84576375 -0.41898723
f 3//3 7//7 32//32
f 3//3 32//32 85//85
f 3//3 85//85 158//158
f 3//3 158//158 255//255
f 3//3 255//255 379//379
f 3//3 379//379 530//530
f 3//3 530//530 534//534
f 3//3 534//534 385//385
f 3//3 385//385 382//382
f 3//3 382//382 258//258
f 3//3 258//258 161//161
f 3//3 161//161 88//88
f 3//3 88//88 38//38
f 3//3 38//38 10//10
f 2//2 9//9 14//14
f 1//1 11//11 39//39
f 1//1 39//39 94//94
f 1//1 94//94 42//42
f 1//1 42//42 15//15
f 1//1 15//15 4//4
f 5//5 16//16 20//20
f 6//6 21//21 31//31
f 8//8 37//37 13//13
f 12//12 36//36 41//41
f 18//18 44//44 93//93
f 18//18 93//93 174//174
f 18//18 174//174 285//285
f 18//18 285//285 430//430
f 18//18 430//430 579//579
f 18//18 579//579 433//433
f 18//18 433//433 294//294
f 18//18 294//294 288//288
f 18//18 288//288 177//177
f 18//18 177//177 107//107
f 18//18 107//107 100//100
f 18//18 100//100 51//51
f 18//18 51//51 47//47
f 17//17 45//45 25//25
f 28//28 46//46 49//49
f 27//27 48//48 54//54
f 26//26 52//52 62//62
f 24//24 60//60 65//65
f 23//23 64//64 71//71
f 22//22 69//69 79//79
f 19//19 78//78 30//30
f 29//29 77//77 84//84
f 33//33 86//86 168//168
f 33//33 168//168 274//274
f 33//33 274//274 413//413
f 33//33 413//413 554//554
f 33//33 554//554 665//665
f 33//33 665//665 662//662
f 33//33 662//662 657//657
f 33//33 657//657 752//752
f 33//33 752//752 806//806
f 33//33 806//806 810//810
f 33//33 810//810 759//759
f 33//33 759//759 756//756
f 33//33 756//756 668//668
f 33//33 668//668 565//565
f 33//33 565//565 416//416
f 33//33 416//416 278//278
f 33//33 278//278 172//172
f 33//33 172//172 90//90
f 34//34 92//92 96//96
f 35//35 97//97 40//40
f 43//43 95//95 91//91
f 50//50 99//99 59//59
f 58//58 98//98 106//106
f 57//57 105//105 111//111
f 56//56 108//108 117//117
f 55//55 115//115 125//125
f 53//53 124//124 63//63
f 61//61 121//121 66//66
f 68//68 122//122 128//128
f 67//67 127//127 75//75
f 74//74 126//126 137//137
f 73//73 135//135 144//144
f 72//72 141//141 148//148
f 70//70 146//146 81//81
f 80//80 145//145 151//151
f 76//76 150//150 83//83
f 82//82 149//149 249//249
f 82//82 249//249 157//157
f 87//87 159//159 162//162
f 89//89 165//165 169//169
f 104//104 176//176 188//188
f 101//101 184//184 190//190
f 102//102 191//191 195//195
f 103//103 196//196 110//110
f 109//109 193//193 120//120
f 113//113 199//199 133//133
f 112//112 130//130 123//123
f 119//119 192//192 182//182
f 118//118 181//181 203//203
f 116//116 201//201 210//210
f 114//114 208//208 200//200
f 132//132 197//197 218//218
f 131//131 212//212 227//227
f 129//129 222//222 139//139
f 138//138 221//221 231//231
f 136//136 229//229 239//239
f 134//134 238//238 143//143
f 142//142 236//236 155//155
f 140//140 152//152 147//147
f 154//154 235//235 245//245
f 153//153 243//243 252//252
f 156//156 248//248 374//374
f 156//156 374//374 254//254
f 160//160 256//256 163//163
f 164//164 259//259 262//262
f 167//167 265//265 269//269
f 166//166 268//268 170//170
f 171//171 270//270 275//275
f 173//173 281//281 284//284
f 175//175 287//287 187//187
f 186//186 286//286 290//290
f 185//185 289//289 297//297
f 180//180 295//295 303//303
f 178//178 302//302 209//209
f 179//179 211//211 202//202
f 183//183 194//194 189//189
f 198//198 205//205 220//220
f 207//207 301//301 312//312
f 206//206 310//310 315//315
f 204//204 314//314 219//219
f 213//213 317//317 228//228
f 217//217 313//313 308//308
f 216//216 307//307 323//323
f 215//215 319//319 328//328
f 214//214 327//327 318//318
f 223//223 330//330 233//233
f 226//226 316//316 325//325
f 225//225 324//324 340//340
f 224//224 337//337 334//334
f 234//234 331//331 346//346
f 232//232 344//344 355//355
f 230//230 353//353 241//241
f 240//240 352//352 360//360
f 237//237 357//357 247//247
f 246//246 356//356 363//363
f 244//244 361//361 371//371
f 242//242 368//368 251//251
f 250//250 367//367 375//375
f 253//253 373//373 522//522
f 253//253 522//522 378//378
f 257//257 380//380 260//260
f 261//261 381//381 383//383
f 263//263 386//386 389//389
f 264//264 391//391 393//393
f 267//267 396//396 401//401
f 266//266 400//400 271//271
f 272//272 406//406 276//276
f 273//273 403//403 408//408
f 277//277 407//407 414//414
f 279//279 419//419 423//423
f 280//280 425//425 283//283
f 282//282 424//424 429//429
f 293//293 431//431 437//437
f 292//292 434//434 447//447
f 291//291 445//445 298//298
f 296//296 440//440 305//305
f 304//304 439//439 452//452
f 300//300 449//449 457//457
f 299//299 456//456 311//311
f 309//309 454//454 463//463
f 306//306 460//460 322//322
f 321//321 459//459 468//468
f 320//320 467//467 329//329
f 326//326 466//466 342//342
f 333//333 336//336 473//473
f 332//332 470//470 347//347
f 341//341 465//465 475//475
f 339//339 474//474 484//484
f 338//338 480//480 492//492
f 335//335 490//490 472//472
f 349//349 471//471 487//487
f 350//350 488//488 495//495
f 348//348 494//494 499//499
f 345//345 497//497 508//508
f 343//343 507//507 354//354
f 351//351 504//504 359//359
f 358//358 503//503 365//365
f 366//366 505//505 513//513
f 364//364 510//510 519//519
f 362//362 518//518 372//372
f 370//370 516//516 526//526
f 369//369 524//524 376//376
f 377//377 521//521 529//529
f 384//384 532//532 387//387
f 388//388 533//533 528//528
f 390//390 531//531 523//523
f 392//392 525//525 394//394
f 395//395 527//527 517//517
f 397//397 520//520 511//511
f 399//399 512//512 536//536
f 398//398 535//535 402//402
f 404//404 541//541 409//409
f 405//405 537//537 542//542
f 411//411 547//547 556//556
f 410//410 555//555 415//415
f 412//412 543//543 548//548
f 418//418 564//564 422//422
f 417//417 567//567 563//563
f 420//420 562//562 574//574
f 421//421 575//575 428//428
f 426//426 573//573 584//584
f 427//427 586//586 577//577
f 432//432 578//578 438//438
f 436//436 576//576 585//585
f 435//435 582//582 448//448
f 446//446 581//581 590//590
f 444//444 587//587 595//595
f 443//443 594//594 601//601
f 442//442 598//598 606//606
f 441//441 605//605 453//453
f 451//451 602//602 613//613
f 450//450 611//611 458//458
f 455//455 609//609 464//464
f 462//462 608//608 478//478
f 461//461 477//477 469//469
f 479//479 610//610 619//619
f 476//476 617//617 486//486
f 485//485 615//615 625//625
f 483//483 621//621 628//628
f 482//482 627//627 635//635
f 481//481 633//633 493//493
f 491//491 631//631 501//501
f 489//489 500//500 496//496
f 502//502 632//632 641//641
f 498//498 640//640 509//509
f 506//506 638//638 515//515
f 514//514 637//637 538//538
f 540//540 639//639 645//645
f 539//539 644//644 544//544
f 546//546 651//651 549//549
f 545//545 646//646 650//650
f 553//553 659//659 664//664
f 551//551 663//663 667//667
f 550//550 666//666 557//557
f 552//552 653//653 658//658
f 561//561 566//566 671//671
f 560//560 670//670 680//680
f 558//558 679//679 682//682
f 559//559 683//683 571//571
f 570//570 681//681 678//678
f 569//569 676//676 687//687
f 568//568 686//686 693//693
f 572//572 694//694 583//583
f 580//580 690//690 589//589
f 588//588 689//689 597//597
f 596//596 688//688 697//697
f 593//593 696//696 710//710
f 592//592 709//709 714//714
f 591//591 713//713 600//600
f 599//599 712//712 607//607
f 604//604 711//711 707//707
f 603//603 705//705 614//614
f 612//612 704//704 620//620
f 618//618 703//703 721//721
f 616//616 717//717 626//626
f 624//624 715//715 724//724
f 623//623 722//722 731//731
f 622//622 730//730 630//630
f 629//629 729//729 636//636
f 634//634 727//727 643//643
f 642//642 726//726 648//648
f 649//649 728//728 734//734
f 647//647 733//733 652//652
f 656//656 740//740 660//660
f 654//654 737//737 746//746
f 655//655 747//747 739//739
f 661//661 741//741 753//753
f 669//669 758//758 677//677
f 674//674 757//757 762//762
f 672//672 761//761 767//767
f 673//673 768//768 771//771
f 675//675 772//772 684//684
f 685//685 773//773 692//692
f 691//691 770//770 700//700
f 699//699 769//769 765//765
f 698//698 764//764 778//778
f 695//695 776//776 708//708
f 706//706 774//774 783//783
f 702//702 781//781 790//790
f 701//701 789//789 720//720
f 719//719 788//788 751//751
f 718//718 748//748 738//738
f 716//716 736//736 725//725
f 723//723 735//735 732//732
f 742//742 749//749 791//791
f 745//745 792//792 797//797
f 744//744 796//796 800//800
f 743//743 799//799 754//754
f 750//750 785//785 794//794
f 755//755 802//802 807//807
f 760//760 814//814 766//766
f 763//763 813//813 777//777
f 775//775 812//812 784//784
f 782//782 811//811 809//809
f 780//780 808//808 805//805
f 779//779 804//804 787//787
f 786//786 803//803 795//795
f 793//793 801//801 798//798

