# https://github.com/mikedh/trimesh
v -0.65767771 -0.95472026 0.24804282
v -0.65767771 -0.95472026 0.24804282
v -0.65767771 -0.95472026 0.24804282
v -0.65767771 -0.95472026 0.24804282
v -0.65767771 -0.95472026 0.24804282
v -0.65767771 -0.95472026 0.24804282
v -0.65767771 -0.95472026 0.24804282
v -0.67376763 -0.94397348 0.24804282
v -0.67376763 -0.94397348 0.24804282
v -0.67376763 -0.94397348 0.24804282
v -0.67614233 -0.94014204 0.24397424
v -0.67614233 -0.94014204 0.24397424
v -0.67614233 -0.94014204 0.24397424
v -0.67614233 -0.94014204 0.24397424
v -0.67614233 -0.94014204 0.24397424
v -0.67614233 -0.94014204 0.24397424
v -0.67614233 -0.94014204 0.24397424
v -0.67614233 -0.94014204 0.24397424
v -0.65767771 -0.94883293 0.23750809
v -0.65767771 -0.94883293 0.23750809
v -0.65767771 -0.94883293 0.23750809
v -0.65767771 -0.94883293 0.23750809
v -0.65767771 -0.79837769 0.24804282
v -0.65767771 -0.79837769 0.24804282
v -0.65767771 -0.79837769 0.24804282
v -0.67788702 -0.94107658 0.24804282
v -0.67788702 -0.94107658 0.24804282
v -0.67788702 -0.94107658 0.24804282
v -0.67788702 -0.94107658 0.24804282
v -0.72286123 -0.89752871 0.23205909
v -0.72286123 -0.89752871 0.23205909
v -0.72286123 -0.89752871 0.23205909
v -0.72286123 -0.89752871 0.23205909
v -0.72286123 -0.89752871 0.23205909
v -0.69029373 -0.92051744 0.23031539
v -0.69029373 -0.92051744 0.23031539
v -0.69029373 -0.92051744 0.23031539
v -0.66247559 -0.93032980 0.21433166
v -0.66247559 -0.93032980 0.21433166
v -0.66247559 -0.93032980 0.21433166
v -0.66247559 -0.93032980 0.21433166
v -0.66247559 -0.93032980 0.21433166
v -0.66247559 -0.93032980 0.21433166
v -0.66247559 -0.93032980 0.21433166
v -0.66247559 -0.93032980 0.21433166
v -0.66247559 -0.93032980 0.21433166
v -0.75237548 -0.88612765 0.24804282
v -0.75237548 -0.88612765 0.24804282
v -0.75237548 -0.88612765 0.24804282
v -0.75237548 -0.88612765 0.24804282
v -0.75237548 -0.88612765 0.24804282
v -0.75237548 -0.88612765 0.24804282
v -0.75237548 -0.88612765 0.24804282
v -0.65767771 -0.93668431 0.21905416
v -0.65767771 -0.93668431 0.21905416
v -0.65767771 -0.93668431 0.21905416
v -0.65767771 -0.93668431 0.21905416
v -0.65767771 -0.00003057 0.16187596
v -0.65767771 -0.00003057 0.16187596
v -0.65767771 -0.00003057 0.16187596
v -1.02614617 -0.00003057 0.24804282
v -1.02614617 -0.00003057 0.24804282
v -1.02614617 -0.00003057 0.24804282
v -0.71224773 -0.88967878 0.20927015
v -0.71224773 -0.88967878 0.20927015
v -0.71224773 -0.88967878 0.20927015
v -0.71224773 -0.88967878 0.20927015
v -0.71224773 -0.88967878 0.20927015
v -0.71224773 -0.88967878 0.20927015
v -0.71224773 -0.88967878 0.20927015
v -0.71224773 -0.88967878 0.20927015
v -0.68927592 -0.89818275 0.20113298
v -0.68927592 -0.89818275 0.20113298
v -0.68927592 -0.89818275 0.20113298
v -0.68927592 -0.89818275 0.20113298
v -0.68927592 -0.89818275 0.20113298
v -0.68927592 -0.89818275 0.20113298
v -0.65767771 -0.90855587 0.18975061
v -0.65767771 -0.90855587 0.18975061
v -0.65767771 -0.90855587 0.18975061
v -0.65767771 -0.90855587 0.18975061
v -0.65767771 -0.92500305 0.20592812
v -0.65767771 -0.92500305 0.20592812
v -0.65767771 -0.92500305 0.20592812
v -0.75974196 -0.87939924 0.24804282
v -0.75974196 -0.87939924 0.24804282
v -0.75974196 -0.87939924 0.24804282
v -0.75974196 -0.87939924 0.24804282
v -0.75911194 -0.84781295 0.20692104
v -0.75911194 -0.84781295 0.20692104
v -0.75911194 -0.84781295 0.20692104
v -0.75911194 -0.84781295 0.20692104
v -0.75911194 -0.84781295 0.20692104
v -0.75911194 -0.84781295 0.20692104
v -0.75911194 -0.84781295 0.20692104
v -0.75911194 -0.84781295 0.20692104
v -0.75911194 -0.84781295 0.20692104
v -0.75911194 -0.84781295 0.20692104
v -0.75911194 -0.84781295 0.20692104
v -0.74505746 -0.88005340 0.23205909
v -0.74505746 -0.88005340 0.23205909
v -0.74505746 -0.88005340 0.23205909
v -0.65767771 -0.00003057 0.03642783
v -0.65767771 -0.00003057 0.03642783
v -0.65767771 -0.00003057 0.03642783
v -1.15273297 -0.00003057 0.24804282
v -1.15273297 -0.00003057 0.24804282
v -1.15273297 -0.00003057 0.24804282
v -1.15273297 -0.00003057 0.24804282
v -0.72974300 -0.86435372 0.19977677
v -0.72974300 -0.86435372 0.19977677
v -0.72974300 -0.86435372 0.19977677
v -0.72974300 -0.86435372 0.19977677
v -0.69174761 -0.86781144 0.17710891
v -0.69174761 -0.86781144 0.17710891
v -0.69174761 -0.86781144 0.17710891
v -0.69174761 -0.86781144 0.17710891
v -0.69174761 -0.86781144 0.17710891
v -0.65956783 -0.88323075 0.16914126
v -0.65956783 -0.88323075 0.16914126
v -0.65956783 -0.88323075 0.16914126
v -0.65956783 -0.88323075 0.16914126
v -0.65956783 -0.88323075 0.16914126
v -0.65956783 -0.88323075 0.16914126
v -0.65767771 -0.88734257 0.17141774
v -0.65767771 -0.88734257 0.17141774
v -0.65767771 -0.88734257 0.17141774
v -0.65767771 -0.88734257 0.17141774
v -0.79797971 -0.84211254 0.24804282
v -0.79797971 -0.84211254 0.24804282
v -0.79797971 -0.84211254 0.24804282
v -0.79797971 -0.84211254 0.24804282
v -0.79797971 -0.84211254 0.24804282
v -0.76943469 -0.85781217 0.23205909
v -0.76943469 -0.85781217 0.23205909
v -0.76943469 -0.85781217 0.23205909
v -0.76943469 -0.85781217 0.23205909
v -0.79167944 -0.83557099 0.23205909
v -0.79167944 -0.83557099 0.23205909
v -0.79167944 -0.83557099 0.23205909
v -0.79167944 -0.83557099 0.23205909
v -0.79167944 -0.83557099 0.23205909
v -0.80311686 -0.80295682 0.20733273
v -0.80311686 -0.80295682 0.20733273
v -0.80311686 -0.80295682 0.20733273
v -0.80311686 -0.80295682 0.20733273
v -0.80311686 -0.80295682 0.20733273
v -0.80311686 -0.80295682 0.20733273
v -0.80311686 -0.80295682 0.20733273
v -0.77568644 -0.81959099 0.19842058
v -0.77568644 -0.81959099 0.19842058
v -0.77568644 -0.81959099 0.19842058
v -0.77568644 -0.81959099 0.19842058
v -0.77568644 -0.81959099 0.19842058
v -0.77568644 -0.81959099 0.19842058
v -0.73681867 -0.82519799 0.17417860
v -0.73681867 -0.82519799 0.17417860
v -0.73681867 -0.82519799 0.17417860
v -0.73681867 -0.82519799 0.17417860
v -0.70817679 -0.84183216 0.16691327
v -0.70817679 -0.84183216 0.16691327
v -0.70817679 -0.84183216 0.16691327
v -0.70817679 -0.84183216 0.16691327
v -0.70817679 -0.84183216 0.16691327
v -0.70817679 -0.84183216 0.16691327
v -0.70817679 -0.84183216 0.16691327
v -0.70817679 -0.84183216 0.16691327
v -0.70817679 -0.84183216 0.16691327
v -0.77825505 -0.00003057 0.00148159
v -0.77825505 -0.00003057 0.00148159
v -0.77825505 -0.00003057 0.00148159
v -0.77825505 -0.00003057 0.00148159
v -0.77825505 -0.00003057 0.00148159
v -0.77825505 -0.00003057 0.00148159
v -0.65767771 -0.40943694 0.00189328
v -0.65767771 -0.40943694 0.00189328
v -0.65767771 -0.40943694 0.00189328
v -0.65767771 -0.40943694 0.00189328
v -0.65767771 -0.40943694 0.00189328
v -1.14570570 -0.00003057 0.23634562
v -1.14570570 -0.00003057 0.23634562
v -1.14570570 -0.00003057 0.23634562
v -1.14570570 -0.00003057 0.23634562
v -1.14580274 -0.02199142 0.23634562
v -1.14580274 -0.02199142 0.23634562
v -1.14580274 -0.02199142 0.23634562
v -1.14580274 -0.02199142 0.23634562
v -1.14580274 -0.02199142 0.23634562
v -1.14580274 -0.02199142 0.23634562
v -1.14580274 -0.02199142 0.23634562
v -1.15273297 -0.01217913 0.24804282
v -1.15273297 -0.01217913 0.24804282
v -1.15273297 -0.01217913 0.24804282
v -0.67851710 -0.85360694 0.16078615
v -0.67851710 -0.85360694 0.16078615
v -0.67851710 -0.85360694 0.16078615
v -0.67851710 -0.85360694 0.16078615
v -0.67851710 -0.85360694 0.16078615
v -0.67851710 -0.85360694 0.16078615
v -0.65767771 -0.88136166 0.16734916
v -0.65767771 -0.88136166 0.16734916
v -0.65767771 -0.88136166 0.16734916
v -0.65767771 -0.88136166 0.16734916
v -0.84174234 -0.79688251 0.24804282
v -0.84174234 -0.79688251 0.24804282
v -0.84174234 -0.79688251 0.24804282
v -0.84174234 -0.79688251 0.24804282
v -0.84174234 -0.79688251 0.24804282
v -0.81324577 -0.81332982 0.23205909
v -0.81324577 -0.81332982 0.23205909
v -0.81324577 -0.81332982 0.23205909
v -0.81324577 -0.81332982 0.23205909
v -0.81324577 -0.81332982 0.23205909
v -0.83544207 -0.79024750 0.23205909
v -0.83544207 -0.79024750 0.23205909
v -0.83544207 -0.79024750 0.23205909
v -0.83544207 -0.79024750 0.23205909
v -0.83544207 -0.79024750 0.23205909
v -0.84673405 -0.75772679 0.20803505
v -0.84673405 -0.75772679 0.20803505
v -0.84673405 -0.75772679 0.20803505
v -0.84673405 -0.75772679 0.20803505
v -0.84673405 -0.75772679 0.20803505
v -0.84673405 -0.75772679 0.20803505
v -0.84673405 -0.75772679 0.20803505
v -0.84673405 -0.75772679 0.20803505
v -0.81983680 -0.77473474 0.19948617
v -0.81983680 -0.77473474 0.19948617
v -0.81983680 -0.77473474 0.19948617
v -0.81983680 -0.77473474 0.19948617
v -0.81983680 -0.77473474 0.19948617
v -0.78062975 -0.78099591 0.17461449
v -0.78062975 -0.78099591 0.17461449
v -0.78062975 -0.78099591 0.17461449
v -0.78062975 -0.78099591 0.17461449
v -0.78062975 -0.78099591 0.17461449
v -0.75368398 -0.79781705 0.16659841
v -0.75368398 -0.79781705 0.16659841
v -0.75368398 -0.79781705 0.16659841
v -0.75368398 -0.79781705 0.16659841
v -0.75368398 -0.79781705 0.16659841
v -0.75368398 -0.79781705 0.16659841
v -0.75368398 -0.79781705 0.16659841
v -0.72402436 -0.81220841 0.15979323
v -0.72402436 -0.81220841 0.15979323
v -0.72402436 -0.81220841 0.15979323
v -0.72402436 -0.81220841 0.15979323
v -0.72402436 -0.81220841 0.15979323
v -0.72402436 -0.81220841 0.15979323
v -0.69174761 -0.82519799 0.15279427
v -0.69174761 -0.82519799 0.15279427
v -0.69174761 -0.82519799 0.15279427
v -0.69174761 -0.82519799 0.15279427
v -0.69174761 -0.82519799 0.15279427
v -0.69174761 -0.82519799 0.15279427
v -0.69174761 -0.82519799 0.15279427
v -0.73376548 -0.24440347 0.00063396
v -0.73376548 -0.24440347 0.00063396
v -0.73376548 -0.24440347 0.00063396
v -0.73376548 -0.24440347 0.00063396
v -0.73376548 -0.24440347 0.00063396
v -0.77825505 -0.11104967 0.00131208
v -0.77825505 -0.11104967 0.00131208
v -0.77825505 -0.11104967 0.00131208
v -0.77825505 -0.11104967 0.00131208
v -0.77825505 -0.11104967 0.00131208
v -0.82056367 -0.06656728 0.01661772
v -0.82056367 -0.06656728 0.01661772
v -0.82056367 -0.06656728 0.01661772
v -0.82056367 -0.06656728 0.01661772
v -0.82056367 -0.06656728 0.01661772
v -0.82056367 -0.06656728 0.01661772
v -0.82056367 -0.06656728 0.01661772
v -0.82056367 -0.06656728 0.01661772
v -0.82056367 -0.06656728 0.01661772
v -0.82671863 -0.00003057 0.01933008
v -0.82671863 -0.00003057 0.01933008
v -0.82671863 -0.00003057 0.01933008
v -0.82671863 -0.00003057 0.01933008
v -0.82671863 -0.00003057 0.01933008
v -0.65767771 -0.45391938 0.00300729
v -0.65767771 -0.45391938 0.00300729
v -0.65767771 -0.45391938 0.00300729
v -0.65767771 -0.45391938 0.00300729
v -0.68927592 -0.37785071 0.00106984
v -0.68927592 -0.37785071 0.00106984
v -0.68927592 -0.37785071 0.00106984
v -0.68927592 -0.37785071 0.00106984
v -0.68927592 -0.37785071 0.00106984
v -0.68927592 -0.37785071 0.00106984
v -1.13354146 -0.00003057 0.21760106
v -1.13354146 -0.00003057 0.21760106
v -1.13354146 -0.00003057 0.21760106
v -1.12113476 -0.02208485 0.19827527
v -1.12113476 -0.02208485 0.19827527
v -1.12113476 -0.02208485 0.19827527
v -1.12113476 -0.02208485 0.19827527
v -1.12113476 -0.02208485 0.19827527
v -1.12113476 -0.02208485 0.19827527
v -1.12113476 -0.02208485 0.19827527
v -1.11997163 -0.06656728 0.19946197
v -1.11997163 -0.06656728 0.19946197
v -1.11997163 -0.06656728 0.19946197
v -1.11997163 -0.06656728 0.19946197
v -1.11997163 -0.06656728 0.19946197
v -1.11997163 -0.06656728 0.19946197
v -1.14100480 -0.06656728 0.23205909
v -1.14100480 -0.06656728 0.23205909
v -1.14100480 -0.06656728 0.23205909
v -1.14100480 -0.06656728 0.23205909
v -1.14100480 -0.06656728 0.23205909
v -1.14100480 -0.06656728 0.23205909
v -1.14100480 -0.06656728 0.23205909
v -1.15234530 -0.03142990 0.24804282
v -1.15234530 -0.03142990 0.24804282
v -1.15234530 -0.03142990 0.24804282
v -1.15234530 -0.03142990 0.24804282
v -0.65767771 -0.85613006 0.15434423
v -0.65767771 -0.85613006 0.15434423
v -0.65767771 -0.85613006 0.15434423
v -0.65767771 -0.85613006 0.15434423
v -0.65767771 -0.86239129 0.15717772
v -0.65767771 -0.86239129 0.15717772
v -0.65767771 -0.86239129 0.15717772
v -0.84799409 -0.79006064 0.24804282
v -0.84799409 -0.79006064 0.24804282
v -0.84799409 -0.79006064 0.24804282
v -0.85594213 -0.76800632 0.23205909
v -0.85594213 -0.76800632 0.23205909
v -0.85594213 -0.76800632 0.23205909
v -0.85594213 -0.76800632 0.23205909
v -0.85594213 -0.76800632 0.23205909
v -0.85594213 -0.76800632 0.23205909
v -0.87993157 -0.73651356 0.22813582
v -0.87993157 -0.73651356 0.22813582
v -0.87993157 -0.73651356 0.22813582
v -0.87993157 -0.73651356 0.22813582
v -0.87993157 -0.73651356 0.22813582
v -0.88865507 -0.71025395 0.21072322
v -0.88865507 -0.71025395 0.21072322
v -0.88865507 -0.71025395 0.21072322
v -0.88865507 -0.71025395 0.21072322
v -0.88865507 -0.71025395 0.21072322
v -0.88865507 -0.71025395 0.21072322
v -0.88865507 -0.71025395 0.21072322
v -0.88865507 -0.71025395 0.21072322
v -0.85686290 -0.73352307 0.19963145
v -0.85686290 -0.73352307 0.19963145
v -0.85686290 -0.73352307 0.19963145
v -0.85686290 -0.73352307 0.19963145
v -0.85686290 -0.73352307 0.19963145
v -0.85686290 -0.73352307 0.19963145
v -0.82395619 -0.73557901 0.17611602
v -0.82395619 -0.73557901 0.17611602
v -0.82395619 -0.73557901 0.17611602
v -0.82395619 -0.73557901 0.17611602
v -0.82395619 -0.73557901 0.17611602
v -0.82395619 -0.73557901 0.17611602
v -0.79705894 -0.75183940 0.16722810
v -0.79705894 -0.75183940 0.16722810
v -0.79705894 -0.75183940 0.16722810
v -0.79705894 -0.75183940 0.16722810
v -0.79705894 -0.75183940 0.16722810
v -0.79705894 -0.75183940 0.16722810
v -0.76739925 -0.76819319 0.15993854
v -0.76739925 -0.76819319 0.15993854
v -0.76739925 -0.76819319 0.15993854
v -0.76739925 -0.76819319 0.15993854
v -0.76739925 -0.76819319 0.15993854
v -0.76739925 -0.76819319 0.15993854
v -0.73681867 -0.78099591 0.15211621
v -0.73681867 -0.78099591 0.15211621
v -0.73681867 -0.78099591 0.15211621
v -0.73681867 -0.78099591 0.15211621
v -0.73681867 -0.78099591 0.15211621
v -0.68719202 -0.77566928 0.13109514
v -0.68719202 -0.77566928 0.13109514
v -0.68719202 -0.77566928 0.13109514
v -0.68719202 -0.77566928 0.13109514
v -0.68719202 -0.77566928 0.13109514
v -0.68719202 -0.77566928 0.13109514
v -0.68719202 -0.77566928 0.13109514
v -0.65767771 -0.80379784 0.13194278
v -0.65767771 -0.80379784 0.13194278
v -0.65767771 -0.80379784 0.13194278
v -0.65767771 -0.80379784 0.13194278
v -0.65767771 -0.82099265 0.13894171
v -0.65767771 -0.82099265 0.13894171
v -0.65767771 -0.82099265 0.13894171
v -0.73376548 -0.28888586 0.00140893
v -0.73376548 -0.28888586 0.00140893
v -0.73376548 -0.28888586 0.00140893
v -0.73376548 -0.28888586 0.00140893
v -0.73376548 -0.28888586 0.00140893
v -0.73376548 -0.28888586 0.00140893
v -0.77825505 -0.15553211 0.00269246
v -0.77825505 -0.15553211 0.00269246
v -0.77825505 -0.15553211 0.00269246
v -0.77825505 -0.15553211 0.00269246
v -0.77825505 -0.15553211 0.00269246
v -0.81794667 -0.11104967 0.01778018
v -0.81794667 -0.11104967 0.01778018
v -0.81794667 -0.11104967 0.01778018
v -0.81794667 -0.11104967 0.01778018
v -0.81794667 -0.11104967 0.01778018
v -0.81794667 -0.11104967 0.01778018
v -1.07378578 -0.11104967 0.16105255
v -1.07378578 -0.11104967 0.16105255
v -1.07378578 -0.11104967 0.16105255
v -1.07378578 -0.11104967 0.16105255
v -1.07378578 -0.11104967 0.16105255
v -1.07378578 -0.11104967 0.16105255
v -1.07378578 -0.11104967 0.16105255
v -1.07562745 -0.06656728 0.15989009
v -1.07562745 -0.06656728 0.15989009
v -1.07562745 -0.06656728 0.15989009
v -1.07562745 -0.06656728 0.15989009
v -1.07562745 -0.06656728 0.15989009
v -1.07679057 -0.02208485 0.15916356
v -1.07679057 -0.02208485 0.15916356
v -1.07679057 -0.02208485 0.15916356
v -1.07679057 -0.02208485 0.15916356
v -1.07679057 -0.02208485 0.15916356
v -1.07679057 -0.02208485 0.15916356
v -0.82671863 -0.01815994 0.01935434
v -0.82671863 -0.01815994 0.01935434
v -0.82671863 -0.01815994 0.01935434
v -1.07674217 -0.00003057 0.15918776
v -1.07674217 -0.00003057 0.15918776
v -1.07674217 -0.00003057 0.15918776
v -1.07674217 -0.00003057 0.15918776
v -0.68927592 -0.42233312 0.00605875
v -0.68927592 -0.42233312 0.00605875
v -0.68927592 -0.42233312 0.00605875
v -0.68927592 -0.42233312 0.00605875
v -0.68927592 -0.42233312 0.00605875
v -0.68927592 -0.42233312 0.00605875
v -0.68927592 -0.42233312 0.00605875
v -0.68927592 -0.42233312 0.00605875
v -0.68927592 -0.42233312 0.00605875
v -0.65767771 -0.50288737 0.01649660
v -0.65767771 -0.50288737 0.01649660
v -0.65767771 -0.50288737 0.01649660
v -0.65767771 -0.50288737 0.01649660
v -0.65767771 -0.50288737 0.01649660
v -0.65767771 -0.50288737 0.01649660
v -0.65767771 -0.50288737 0.01649660
v -0.65767771 -0.50288737 0.01649660
v -0.65767771 -0.50288737 0.01649660
v -0.73376548 -0.33336830 0.00615561
v -0.73376548 -0.33336830 0.00615561
v -0.73376548 -0.33336830 0.00615561
v -0.73376548 -0.33336830 0.00615561
v -0.73376548 -0.33336830 0.00615561
v -0.73376548 -0.33336830 0.00615561
v -0.73376548 -0.33336830 0.00615561
v -0.73376548 -0.33336830 0.00615561
v -1.12103784 -0.00003057 0.19834793
v -1.12103784 -0.00003057 0.19834793
v -1.12103784 -0.00003057 0.19834793
v -1.09898686 -0.00003057 0.17611602
v -1.09898686 -0.00003057 0.17611602
v -1.09898686 -0.00003057 0.17611602
v -1.09898686 -0.00003057 0.17611602
v -1.09903538 -0.02208485 0.17604333
v -1.09903538 -0.02208485 0.17604333
v -1.09903538 -0.02208485 0.17604333
v -1.09903538 -0.02208485 0.17604333
v -1.09903538 -0.02208485 0.17604333
v -1.09903538 -0.02208485 0.17604333
v -1.09787226 -0.06656728 0.17723003
v -1.09787226 -0.06656728 0.17723003
v -1.09787226 -0.06656728 0.17723003
v -1.09787226 -0.06656728 0.17723003
v -1.09787226 -0.06656728 0.17723003
v -1.09603059 -0.11104967 0.17940962
v -1.09603059 -0.11104967 0.17940962
v -1.09603059 -0.11104967 0.17940962
v -1.09603059 -0.11104967 0.17940962
v -1.09603059 -0.11104967 0.17940962
v -1.09603059 -0.11104967 0.17940962
v -1.09603059 -0.11104967 0.17940962
v -1.11798465 -0.11104967 0.20164156
v -1.11798465 -0.11104967 0.20164156
v -1.11798465 -0.11104967 0.20164156
v -1.11798465 -0.11104967 0.20164156
v -1.11594915 -0.15553211 0.20428130
v -1.11594915 -0.15553211 0.20428130
v -1.11594915 -0.15553211 0.20428130
v -1.11594915 -0.15553211 0.20428130
v -1.11594915 -0.15553211 0.20428130
v -1.11594915 -0.15553211 0.20428130
v -1.11594915 -0.15553211 0.20428130
v -1.13712776 -0.11104967 0.23205909
v -1.13712776 -0.11104967 0.23205909
v -1.13712776 -0.11104967 0.23205909
v -1.13712776 -0.11104967 0.23205909
v -1.14997053 -0.06656728 0.24804282
v -1.14997053 -0.06656728 0.24804282
v -1.14997053 -0.06656728 0.24804282
v -1.14997053 -0.06656728 0.24804282
v -1.14997053 -0.06656728 0.24804282
v -0.88497180 -0.74782103 0.24804282
v -0.88497180 -0.74782103 0.24804282
v -0.88497180 -0.74782103 0.24804282
v -0.88497180 -0.74782103 0.24804282
v -0.88497180 -0.74782103 0.24804282
v -0.89946240 -0.72371083 0.24036580
v -0.89946240 -0.72371083 0.24036580
v -0.89946240 -0.72371083 0.24036580
v -0.89946240 -0.72371083 0.24036580
v -0.89946240 -0.72371083 0.24036580
v -0.89946240 -0.72371083 0.24036580
v -0.89946240 -0.72371083 0.24036580
v -0.91404992 -0.69249839 0.22852328
v -0.91404992 -0.69249839 0.22852328
v -0.91404992 -0.69249839 0.22852328
v -0.91404992 -0.69249839 0.22852328
v -0.91404992 -0.69249839 0.22852328
v -0.92863750 -0.65923005 0.21668079
v -0.92863750 -0.65923005 0.21668079
v -0.92863750 -0.65923005 0.21668079
v -0.92863750 -0.65923005 0.21668079
v -0.92863750 -0.65923005 0.21668079
v -0.92863750 -0.65923005 0.21668079
v -0.92863750 -0.65923005 0.21668079
v -0.93871790 -0.62960619 0.20445082
v -0.93871790 -0.62960619 0.20445082
v -0.93871790 -0.62960619 0.20445082
v -0.93871790 -0.62960619 0.20445082
v -0.93871790 -0.62960619 0.20445082
v -0.93871790 -0.62960619 0.20445082
v -0.93871790 -0.62960619 0.20445082
v -0.89907473 -0.68063021 0.20030957
v -0.89907473 -0.68063021 0.20030957
v -0.89907473 -0.68063021 0.20030957
v -0.89907473 -0.68063021 0.20030957
v -0.89907473 -0.68063021 0.20030957
v -0.89907473 -0.68063021 0.20030957
v -0.87004501 -0.69268531 0.18435004
v -0.87004501 -0.69268531 0.18435004
v -0.87004501 -0.69268531 0.18435004
v -0.87004501 -0.69268531 0.18435004
v -0.83960998 -0.70474035 0.16839054
v -0.83960998 -0.70474035 0.16839054
v -0.83960998 -0.70474035 0.16839054
v -0.83960998 -0.70474035 0.16839054
v -0.83960998 -0.70474035 0.16839054
v -0.83960998 -0.70474035 0.16839054
v -0.83960998 -0.70474035 0.16839054
v -0.80999869 -0.72221565 0.16078615
v -0.80999869 -0.72221565 0.16078615
v -0.80999869 -0.72221565 0.16078615
v -0.80999869 -0.72221565 0.16078615
v -0.80999869 -0.72221565 0.16078615
v -0.80999869 -0.72221565 0.16078615
v -0.78062975 -0.73557901 0.15296379
v -0.78062975 -0.73557901 0.15296379
v -0.78062975 -0.73557901 0.15296379
v -0.78062975 -0.73557901 0.15296379
v -0.78062975 -0.73557901 0.15296379
v -0.78062975 -0.73557901 0.15296379
v -0.78062975 -0.73557901 0.15296379
v -0.73148775 -0.73137373 0.13126469
v -0.73148775 -0.73137373 0.13126469
v -0.73148775 -0.73137373 0.13126469
v -0.73148775 -0.73137373 0.13126469
v -0.65767771 -0.78772432 0.12554929
v -0.65767771 -0.78772432 0.12554929
v -0.65767771 -0.78772432 0.12554929
v -0.65767771 -0.50952238 0.01891840
v -0.65767771 -0.50952238 0.01891840
v -0.65767771 -0.50952238 0.01891840
v -0.65767771 -0.50952238 0.01891840
v -0.65767771 -0.50952238 0.01891840
v -0.77825505 -0.20001452 0.00591344
v -0.77825505 -0.20001452 0.00591344
v -0.77825505 -0.20001452 0.00591344
v -0.77825505 -0.20001452 0.00591344
v -0.77825505 -0.20001452 0.00591344
v -0.77825505 -0.20001452 0.00591344
v -0.77825505 -0.20001452 0.00591344
v -0.77825505 -0.20001452 0.00591344
v -0.77825505 -0.20001452 0.00591344
v -0.77825505 -0.20001452 0.00591344
v -0.81445736 -0.15553211 0.01986286
v -0.81445736 -0.15553211 0.01986286
v -0.81445736 -0.15553211 0.01986286
v -0.81445736 -0.15553211 0.01986286
v -0.81445736 -0.15553211 0.01986286
v -1.04499853 -0.15553211 0.14785388
v -1.04499853 -0.15553211 0.14785388
v -1.04499853 -0.15553211 0.14785388
v -1.04499853 -0.15553211 0.14785388
v -1.04499853 -0.15553211 0.14785388
v -1.07126570 -0.15553211 0.16269934
v -1.07126570 -0.15553211 0.16269934
v -1.07126570 -0.15553211 0.16269934
v -1.07126570 -0.15553211 0.16269934
v -1.07126570 -0.15553211 0.16269934
v -1.07126570 -0.15553211 0.16269934
v -0.73599482 -0.37794414 0.01768327
v -0.73599482 -0.37794414 0.01768327
v -0.73599482 -0.37794414 0.01768327
v -0.73599482 -0.37794414 0.01768327
v -0.73599482 -0.37794414 0.01768327
v -0.73599482 -0.37794414 0.01768327
v -0.73599482 -0.37794414 0.01768327
v -0.68990600 -0.46541378 0.01940274
v -0.68990600 -0.46541378 0.01940274
v -0.68990600 -0.46541378 0.01940274
v -0.68990600 -0.46541378 0.01940274
v -0.89985013 -0.60007584 0.15991434
v -0.89985013 -0.60007584 0.15991434
v -0.89985013 -0.60007584 0.15991434
v -0.89985013 -0.60007584 0.15991434
v -0.89985013 -0.60007584 0.15991434
v -0.89985013 -0.60007584 0.15991434
v -0.91414690 -0.55680829 0.15402937
v -0.91414690 -0.55680829 0.15402937
v -0.91414690 -0.55680829 0.15402937
v -0.91414690 -0.55680829 0.15402937
v -0.93891180 -0.54269731 0.16250563
v -0.93891180 -0.54269731 0.16250563
v -0.93891180 -0.54269731 0.16250563
v -0.93891180 -0.54269731 0.16250563
v -0.93891180 -0.54269731 0.16250563
v -0.93891180 -0.54269731 0.16250563
v -0.82395619 -0.68960142 0.15485281
v -0.82395619 -0.68960142 0.15485281
v -0.82395619 -0.68960142 0.15485281
v -0.82395619 -0.68960142 0.15485281
v -0.85148346 -0.67511660 0.16204551
v -0.85148346 -0.67511660 0.16204551
v -0.85148346 -0.67511660 0.16204551
v -0.85148346 -0.67511660 0.16204551
v -0.85148346 -0.67511660 0.16204551
v -0.85148346 -0.67511660 0.16204551
v -0.85148346 -0.67511660 0.16204551
v -0.86665255 -0.64212853 0.15771049
v -0.86665255 -0.64212853 0.15771049
v -0.86665255 -0.64212853 0.15771049
v -0.86665255 -0.64212853 0.15771049
v -0.86718565 -0.60007584 0.14441493
v -0.86718565 -0.60007584 0.14441493
v -0.86718565 -0.60007584 0.14441493
v -0.86718565 -0.60007584 0.14441493
v -0.86718565 -0.60007584 0.14441493
v -0.77413559 -0.28888586 0.01821607
v -0.77413559 -0.28888586 0.01821607
v -0.77413559 -0.28888586 0.01821607
v -0.77413559 -0.28888586 0.01821607
v -0.77413559 -0.28888586 0.01821607
v -0.77413559 -0.28888586 0.01821607
v -0.98999232 -0.42233312 0.15872765
v -0.98999232 -0.42233312 0.15872765
v -0.98999232 -0.42233312 0.15872765
v -0.98999232 -0.42233312 0.15872765
v -0.98999232 -0.42233312 0.15872765
v -0.98999232 -0.42233312 0.15872765
v -1.00264132 -0.37626204 0.15562776
v -1.00264132 -0.37626204 0.15562776
v -1.00264132 -0.37626204 0.15562776
v -1.00264132 -0.37626204 0.15562776
v -1.09351051 -0.15553211 0.18204936
v -1.09351051 -0.15553211 0.18204936
v -1.09351051 -0.15553211 0.18204936
v -1.09351051 -0.15553211 0.18204936
v -1.09351051 -0.15553211 0.18204936
v -1.09351051 -0.15553211 0.18204936
v -1.11381674 -0.18786596 0.20709056
v -1.11381674 -0.18786596 0.20709056
v -1.11381674 -0.18786596 0.20709056
v -1.11381674 -0.18786596 0.20709056
v -1.11381674 -0.18786596 0.20709056
v -1.11381674 -0.18786596 0.20709056
v -1.11381674 -0.18786596 0.20709056
v -1.11381674 -0.18786596 0.20709056
v -1.11381674 -0.18786596 0.20709056
v -1.13310528 -0.15553211 0.23205909
v -1.13310528 -0.15553211 0.23205909
v -1.13310528 -0.15553211 0.23205909
v -1.13310528 -0.15553211 0.23205909
v -1.13310528 -0.15553211 0.23205909
v -1.13310528 -0.15553211 0.23205909
v -1.14163482 -0.15553211 0.24804282
v -1.14163482 -0.15553211 0.24804282
v -1.14163482 -0.15553211 0.24804282
v -1.14163482 -0.15553211 0.24804282
v -0.89417994 -0.73670042 0.24804282
v -0.89417994 -0.73670042 0.24804282
v -0.89417994 -0.73670042 0.24804282
v -0.90232182 -0.72604710 0.24804282
v -0.90232182 -0.72604710 0.24804282
v -0.90232182 -0.72604710 0.24804282
v -0.92253101 -0.69922680 0.24804282
v -0.92253101 -0.69922680 0.24804282
v -0.92253101 -0.69922680 0.24804282
v -0.92253101 -0.69922680 0.24804282
v -0.92253101 -0.69922680 0.24804282
v -0.93905711 -0.67474282 0.24632338
v -0.93905711 -0.67474282 0.24632338
v -0.93905711 -0.67474282 0.24632338
v -0.93905711 -0.67474282 0.24632338
v -0.93905711 -0.67474282 0.24632338
v -0.93905711 -0.67474282 0.24632338
v -0.95369315 -0.64091372 0.23535269
v -0.95369315 -0.64091372 0.23535269
v -0.95369315 -0.64091372 0.23535269
v -0.95369315 -0.64091372 0.23535269
v -0.97036463 -0.60007584 0.22135484
v -0.97036463 -0.60007584 0.22135484
v -0.97036463 -0.60007584 0.22135484
v -0.97036463 -0.60007584 0.22135484
v -0.97036463 -0.60007584 0.22135484
v -0.97036463 -0.60007584 0.22135484
v -0.97763413 -0.57661980 0.21065056
v -0.97763413 -0.57661980 0.21065056
v -0.97763413 -0.57661980 0.21065056
v -0.97763413 -0.57661980 0.21065056
v -0.97763413 -0.57661980 0.21065056
v -0.97763413 -0.57661980 0.21065056
v -0.97763413 -0.57661980 0.21065056
v -0.97763413 -0.57661980 0.21065056
v -0.97763413 -0.57661980 0.21065056
v -0.91012436 -0.64250237 0.18754679
v -0.91012436 -0.64250237 0.18754679
v -0.91012436 -0.64250237 0.18754679
v -0.91012436 -0.64250237 0.18754679
v -0.94811982 -0.60007584 0.19609568
v -0.94811982 -0.60007584 0.19609568
v -0.94811982 -0.60007584 0.19609568
v -0.94811982 -0.60007584 0.19609568
v -0.94811982 -0.60007584 0.19609568
v -0.94811982 -0.60007584 0.19609568
v -0.92204648 -0.60007584 0.17386374
v -0.92204648 -0.60007584 0.17386374
v -0.92204648 -0.60007584 0.17386374
v -0.92204648 -0.60007584 0.17386374
v -0.92204648 -0.60007584 0.17386374
v -0.92204648 -0.60007584 0.17386374
v -0.88114315 -0.65530509 0.17066699
v -0.88114315 -0.65530509 0.17066699
v -0.88114315 -0.65530509 0.17066699
v -0.88114315 -0.65530509 0.17066699
v -0.88114315 -0.65530509 0.17066699
v -0.88114315 -0.65530509 0.17066699
v -0.88114315 -0.65530509 0.17066699
v -1.04063678 -0.24440347 0.15478015
v -1.04063678 -0.24440347 0.15478015
v -1.04063678 -0.24440347 0.15478015
v -1.04063678 -0.24440347 0.15478015
v -1.04063678 -0.24440347 0.15478015
v -0.78266519 -0.24888909 0.01620603
v -0.78266519 -0.24888909 0.01620603
v -0.78266519 -0.24888909 0.01620603
v -1.02866626 -0.33336830 0.16180331
v -1.02866626 -0.33336830 0.16180331
v -1.02866626 -0.33336830 0.16180331
v -1.02866626 -0.33336830 0.16180331
v -1.02866626 -0.33336830 0.16180331
v -1.02866626 -0.33336830 0.16180331
v -1.02866626 -0.33336830 0.16180331
v -1.03496659 -0.28888586 0.15812218
v -1.03496659 -0.28888586 0.15812218
v -1.03496659 -0.28888586 0.15812218
v -1.03496659 -0.28888586 0.15812218
v -1.03496659 -0.28888586 0.15812218
v -1.04877865 -0.20094903 0.15417469
v -1.04877865 -0.20094903 0.15417469
v -1.04877865 -0.20094903 0.15417469
v -1.04877865 -0.20094903 0.15417469
v -1.04877865 -0.20094903 0.15417469
v -1.04877865 -0.20094903 0.15417469
v -1.06889105 -0.18683799 0.16424930
v -1.06889105 -0.18683799 0.16424930
v -1.06889105 -0.18683799 0.16424930
v -1.06889105 -0.18683799 0.16424930
v -0.94695675 -0.51111102 0.15819487
v -0.94695675 -0.51111102 0.15819487
v -0.94695675 -0.51111102 0.15819487
v -0.94695675 -0.51111102 0.15819487
v -0.94695675 -0.51111102 0.15819487
v -0.95907259 -0.46821728 0.15373880
v -0.95907259 -0.46821728 0.15373880
v -0.95907259 -0.46821728 0.15373880
v -0.98296517 -0.45438662 0.16267514
v -0.98296517 -0.45438662 0.16267514
v -0.98296517 -0.45438662 0.16267514
v -0.98296517 -0.45438662 0.16267514
v -0.98296517 -0.45438662 0.16267514
v -0.98296517 -0.45438662 0.16267514
v -0.93067288 -0.57241452 0.16725230
v -0.93067288 -0.57241452 0.16725230
v -0.93067288 -0.57241452 0.16725230
v -0.93067288 -0.57241452 0.16725230
v -0.93067288 -0.57241452 0.16725230
v -0.93067288 -0.57241452 0.16725230
v -0.93067288 -0.57241452 0.16725230
v -0.93067288 -0.57241452 0.16725230
v -0.93067288 -0.57241452 0.16725230
v -0.89165974 -0.62568128 0.16415241
v -0.89165974 -0.62568128 0.16415241
v -0.89165974 -0.62568128 0.16415241
v -0.89165974 -0.62568128 0.16415241
v -0.89165974 -0.62568128 0.16415241
v -0.89165974 -0.62568128 0.16415241
v -0.89165974 -0.62568128 0.16415241
v -0.97593790 -0.48401043 0.16684058
v -0.97593790 -0.48401043 0.16684058
v -0.97593790 -0.48401043 0.16684058
v -0.97593790 -0.48401043 0.16684058
v -0.97593790 -0.48401043 0.16684058
v -0.97593790 -0.48401043 0.16684058
v -0.97593790 -0.48401043 0.16684058
v -1.02444994 -0.36037549 0.16427350
v -1.02444994 -0.36037549 0.16427350
v -1.02444994 -0.36037549 0.16427350
v -1.02444994 -0.36037549 0.16427350
v -1.02444994 -0.36037549 0.16427350
v -1.02444994 -0.36037549 0.16427350
v -1.02444994 -0.36037549 0.16427350
v -1.01892507 -0.39009270 0.16793042
v -1.01892507 -0.39009270 0.16793042
v -1.01892507 -0.39009270 0.16793042
v -1.01892507 -0.39009270 0.16793042
v -1.01892507 -0.39009270 0.16793042
v -1.01892507 -0.39009270 0.16793042
v -1.01892507 -0.39009270 0.16793042
v -1.01892507 -0.39009270 0.16793042
v -1.06612861 -0.21646179 0.16611406
v -1.06612861 -0.21646179 0.16611406
v -1.06612861 -0.21646179 0.16611406
v -1.06612861 -0.21646179 0.16611406
v -1.06612861 -0.21646179 0.16611406
v -1.06612861 -0.21646179 0.16611406
v -1.06612861 -0.21646179 0.16611406
v -1.06288147 -0.24440347 0.16848743
v -1.06288147 -0.24440347 0.16848743
v -1.06288147 -0.24440347 0.16848743
v -1.06288147 -0.24440347 0.16848743
v -1.06288147 -0.24440347 0.16848743
v -1.06288147 -0.24440347 0.16848743
v -1.06288147 -0.24440347 0.16848743
v -1.08536863 -0.24440347 0.19071934
v -1.08536863 -0.24440347 0.19071934
v -1.08536863 -0.24440347 0.19071934
v -1.07989228 -0.28888586 0.19529650
v -1.07989228 -0.28888586 0.19529650
v -1.07989228 -0.28888586 0.19529650
v -1.07989228 -0.28888586 0.19529650
v -1.07989228 -0.28888586 0.19529650
v -1.07989228 -0.28888586 0.19529650
v -1.11071503 -0.21748973 0.21135288
v -1.11071503 -0.21748973 0.21135288
v -1.11071503 -0.21748973 0.21135288
v -1.11071503 -0.21748973 0.21135288
v -1.11071503 -0.21748973 0.21135288
v -1.11071503 -0.21748973 0.21135288
v -1.12404251 -0.20160317 0.22854751
v -1.12404251 -0.20160317 0.22854751
v -1.12404251 -0.20160317 0.22854751
v -1.12404251 -0.20160317 0.22854751
v -1.12404251 -0.20160317 0.22854751
v -1.12404251 -0.20160317 0.22854751
v -1.13402605 -0.20207043 0.24804282
v -1.13402605 -0.20207043 0.24804282
v -1.13402605 -0.20207043 0.24804282
v -1.13402605 -0.20207043 0.24804282
v -0.93803942 -0.67773318 0.24804282
v -0.93803942 -0.67773318 0.24804282
v -0.93803942 -0.67773318 0.24804282
v -0.97055846 -0.62848479 0.24804282
v -0.97055846 -0.62848479 0.24804282
v -0.97055846 -0.62848479 0.24804282
v -0.97055846 -0.62848479 0.24804282
v -0.97055846 -0.62848479 0.24804282
v -0.98538828 -0.60007584 0.24358675
v -0.98538828 -0.60007584 0.24358675
v -0.98538828 -0.60007584 0.24358675
v -0.98538828 -0.60007584 0.24358675
v -0.98538828 -0.60007584 0.24358675
v -0.98538828 -0.60007584 0.24358675
v -0.98538828 -0.60007584 0.24358675
v -0.98243201 -0.60970128 0.24804282
v -0.98243201 -0.60970128 0.24804282
v -0.98243201 -0.60970128 0.24804282
v -0.98243201 -0.60970128 0.24804282
v -1.00123596 -0.55690175 0.23087239
v -1.00123596 -0.55690175 0.23087239
v -1.00123596 -0.55690175 0.23087239
v -1.00123596 -0.55690175 0.23087239
v -1.01630807 -0.51111102 0.21936896
v -1.01630807 -0.51111102 0.21936896
v -1.01630807 -0.51111102 0.21936896
v -1.01630807 -0.51111102 0.21936896
v -1.01630807 -0.51111102 0.21936896
v -1.02197826 -0.48718771 0.21094117
v -1.02197826 -0.48718771 0.21094117
v -1.02197826 -0.48718771 0.21094117
v -1.02197826 -0.48718771 0.21094117
v -1.02197826 -0.48718771 0.21094117
v -1.02197826 -0.48718771 0.21094117
v -1.02197826 -0.48718771 0.21094117
v -1.02197826 -0.48718771 0.21094117
v -1.02197826 -0.48718771 0.21094117
v -0.98529136 -0.54699600 0.20217434
v -0.98529136 -0.54699600 0.20217434
v -0.98529136 -0.54699600 0.20217434
v -0.98529136 -0.54699600 0.20217434
v -0.98529136 -0.54699600 0.20217434
v -0.98529136 -0.54699600 0.20217434
v -0.98529136 -0.54699600 0.20217434
v -0.95829719 -0.55970526 0.18471330
v -0.95829719 -0.55970526 0.18471330
v -0.95829719 -0.55970526 0.18471330
v -0.95829719 -0.55970526 0.18471330
v -1.05721128 -0.28888586 0.17306459
v -1.05721128 -0.28888586 0.17306459
v -1.05721128 -0.28888586 0.17306459
v -1.05721128 -0.28888586 0.17306459
v -1.05721128 -0.28888586 0.17306459
v -1.05721128 -0.28888586 0.17306459
v -0.96920151 -0.51111102 0.17185369
v -0.96920151 -0.51111102 0.17185369
v -0.96920151 -0.51111102 0.17185369
v -0.96920151 -0.51111102 0.17185369
v -0.96920151 -0.51111102 0.17185369
v -0.96920151 -0.51111102 0.17185369
v -1.01223719 -0.42233312 0.17316145
v -1.01223719 -0.42233312 0.17316145
v -1.01223719 -0.42233312 0.17316145
v -1.01223719 -0.42233312 0.17316145
v -1.01223719 -0.42233312 0.17316145
v -1.01223719 -0.42233312 0.17316145
v -1.05086255 -0.33336830 0.17933697
v -1.05086255 -0.33336830 0.17933697
v -1.05086255 -0.33336830 0.17933697
v -1.05086255 -0.33336830 0.17933697
v -1.05086255 -0.33336830 0.17933697
v -1.05086255 -0.33336830 0.17933697
v -1.03651738 -0.42233312 0.19539338
v -1.03651738 -0.42233312 0.19539338
v -1.03651738 -0.42233312 0.19539338
v -1.03651738 -0.42233312 0.19539338
v -1.03651738 -0.42233312 0.19539338
v -1.03651738 -0.42233312 0.19539338
v -1.04461074 -0.37654239 0.18735304
v -1.04461074 -0.37654239 0.18735304
v -1.04461074 -0.37654239 0.18735304
v -1.04461074 -0.37654239 0.18735304
v -1.07393122 -0.33336830 0.20156890
v -1.07393122 -0.33336830 0.20156890
v -1.07393122 -0.33336830 0.20156890
v -1.07393122 -0.33336830 0.20156890
v -1.07393122 -0.33336830 0.20156890
v -1.07393122 -0.33336830 0.20156890
v -1.10761344 -0.24440347 0.21646282
v -1.10761344 -0.24440347 0.21646282
v -1.10761344 -0.24440347 0.21646282
v -1.10761344 -0.24440347 0.21646282
v -1.10761344 -0.24440347 0.21646282
v -1.12055314 -0.24440347 0.23869476
v -1.12055314 -0.24440347 0.23869476
v -1.12055314 -0.24440347 0.23869476
v -1.12055314 -0.24440347 0.23869476
v -1.12055314 -0.24440347 0.23869476
v -1.12055314 -0.24440347 0.23869476
v -1.12055314 -0.24440347 0.23869476
v -1.12055314 -0.24440347 0.23869476
v -1.12515724 -0.24440347 0.24804282
v -1.12515724 -0.24440347 0.24804282
v -1.12515724 -0.24440347 0.24804282
v -0.98805380 -0.59979552 0.24804282
v -0.98805380 -0.59979552 0.24804282
v -0.98805380 -0.59979552 0.24804282
v -1.00913537 -0.56185460 0.24804282
v -1.00913537 -0.56185460 0.24804282
v -1.00913537 -0.56185460 0.24804282
v -1.02105749 -0.54017413 0.24804282
v -1.02105749 -0.54017413 0.24804282
v -1.02105749 -0.54017413 0.24804282
v -1.02105749 -0.54017413 0.24804282
v -1.02105749 -0.54017413 0.24804282
v -1.02658236 -0.52877319 0.24804282
v -1.02658236 -0.52877319 0.24804282
v -1.02658236 -0.52877319 0.24804282
v -1.02658236 -0.52877319 0.24804282
v -1.02658236 -0.52877319 0.24804282
v -1.03060484 -0.51111102 0.24162510
v -1.03060484 -0.51111102 0.24162510
v -1.03060484 -0.51111102 0.24162510
v -1.03060484 -0.51111102 0.24162510
v -1.04490161 -0.46625486 0.23234972
v -1.04490161 -0.46625486 0.23234972
v -1.04490161 -0.46625486 0.23234972
v -1.04490161 -0.46625486 0.23234972
v -1.05876219 -0.42233312 0.22331649
v -1.05876219 -0.42233312 0.22331649
v -1.05876219 -0.42233312 0.22331649
v -1.05876219 -0.42233312 0.22331649
v -1.05876219 -0.42233312 0.22331649
v -1.05876219 -0.42233312 0.22331649
v -1.06477153 -0.39261588 0.21350828
v -1.06477153 -0.39261588 0.21350828
v -1.06477153 -0.39261588 0.21350828
v -1.06477153 -0.39261588 0.21350828
v -1.06477153 -0.39261588 0.21350828
v -1.06477153 -0.39261588 0.21350828
v -1.06477153 -0.39261588 0.21350828
v -1.02876318 -0.45765740 0.20282823
v -1.02876318 -0.45765740 0.20282823
v -1.02876318 -0.45765740 0.20282823
v -1.02876318 -0.45765740 0.20282823
v -1.02876318 -0.45765740 0.20282823
v -1.02876318 -0.45765740 0.20282823
v -0.99406332 -0.51111102 0.19408560
v -0.99406332 -0.51111102 0.19408560
v -0.99406332 -0.51111102 0.19408560
v -0.99406332 -0.51111102 0.19408560
v -1.06956959 -0.36299208 0.20677572
v -1.06956959 -0.36299208 0.20677572
v -1.06956959 -0.36299208 0.20677572
v -1.06956959 -0.36299208 0.20677572
v -1.06956959 -0.36299208 0.20677572
v -1.06956959 -0.36299208 0.20677572
v -1.06956959 -0.36299208 0.20677572
v -1.06956959 -0.36299208 0.20677572
v -1.06956959 -0.36299208 0.20677572
v -1.10213697 -0.28888586 0.22602886
v -1.10213697 -0.28888586 0.22602886
v -1.10213697 -0.28888586 0.22602886
v -1.10213697 -0.28888586 0.22602886
v -1.10213697 -0.28888586 0.22602886
v -1.10213697 -0.28888586 0.22602886
v -1.10213697 -0.28888586 0.22602886
v -1.11488295 -0.28888586 0.24804282
v -1.11488295 -0.28888586 0.24804282
v -1.11488295 -0.28888586 0.24804282
v -1.11488295 -0.28888586 0.24804282
v -1.11488295 -0.28888586 0.24804282
v -1.11512530 -0.28785792 0.24804282
v -1.11512530 -0.28785792 0.24804282
v -1.11512530 -0.28785792 0.24804282
v -1.06142759 -0.45083550 0.24804282
v -1.06142759 -0.45083550 0.24804282
v -1.06142759 -0.45083550 0.24804282
v -1.06142759 -0.45083550 0.24804282
v -1.06142759 -0.45083550 0.24804282
v -1.07097495 -0.42924845 0.24804282
v -1.07097495 -0.42924845 0.24804282
v -1.07097495 -0.42924845 0.24804282
v -1.07097495 -0.42924845 0.24804282
v -1.07247734 -0.42233312 0.24554840
v -1.07247734 -0.42233312 0.24554840
v -1.07247734 -0.42233312 0.24554840
v -1.07247734 -0.42233312 0.24554840
v -1.07247734 -0.42233312 0.24554840
v -1.07247734 -0.42233312 0.24554840
v -1.07940757 -0.37785071 0.22983104
v -1.07940757 -0.37785071 0.22983104
v -1.07940757 -0.37785071 0.22983104
v -1.07940757 -0.37785071 0.22983104
v -1.07940757 -0.37785071 0.22983104
v -1.07940757 -0.37785071 0.22983104
v -1.07940757 -0.37785071 0.22983104
v -1.09709680 -0.32953683 0.23617610
v -1.09709680 -0.32953683 0.23617610
v -1.09709680 -0.32953683 0.23617610
v -1.09709680 -0.32953683 0.23617610
v -1.10712874 -0.31785554 0.24804282
v -1.10712874 -0.31785554 0.24804282
v -1.10712874 -0.31785554 0.24804282
v -1.10712874 -0.31785554 0.24804282
v -1.10712874 -0.31785554 0.24804282
v -1.11468899 -0.28963348 0.24804282
v -1.11468899 -0.28963348 0.24804282
v -1.11468899 -0.28963348 0.24804282
v -1.11468899 -0.28963348 0.24804282
v -1.07373726 -0.42233312 0.24804282
v -1.07373726 -0.42233312 0.24804282
v -1.07373726 -0.42233312 0.24804282
v -1.08885801 -0.37859833 0.24804282
v -1.08885801 -0.37859833 0.24804282
v -1.08885801 -0.37859833 0.24804282
v -1.08885801 -0.37859833 0.24804282
v -1.10204005 -0.33514386 0.24804282
v -1.10204005 -0.33514386 0.24804282
v -1.10204005 -0.33514386 0.24804282
vn -0.00000000 0.00000000 1.00000000
vn -0.00000000 -0.00000000 1.00000000
vn 1.00000000 0.00000000 0.00000000
vn 1.00000000 0.00000000 0.00000000
vn 0.00000000 0.00000000 1.00000000
vn -0.50282217 -0.75455520 -0.42168272
vn -0.50480228 -0.75578253 -0.41709402
vn 0.00000000 0.00000000 1.00000000
vn -0.50480228 -0.75578253 -0.41709402
vn -0.52757532 -0.75021163 -0.39855588
vn -0.50282217 -0.75455520 -0.42168272
vn -0.50480228 -0.75578253 -0.41709402
vn -0.50531530 -0.72235029 -0.47208738
vn -0.52272022 -0.70772885 -0.47527197
vn -0.52486007 -0.70767868 -0.47298287
vn -0.52738832 -0.70907307 -0.46805656
vn -0.52757532 -0.75021163 -0.39855588
vn -0.54348423 -0.73674423 -0.40228451
vn 1.00000000 0.00000000 0.00000000
vn -0.49192538 -0.72720275 -0.47873331
vn -0.50282217 -0.75455520 -0.42168272
vn -0.50531530 -0.72235029 -0.47208738
vn -0.00000000 0.00000000 1.00000000
vn 0.22646076 0.10452051 0.96839609
vn 1.00000000 0.00000000 0.00000000
vn 0.00000000 0.00000000 1.00000000
vn 0.00000000 0.00000000 1.00000000
vn -0.52757532 -0.75021163 -0.39855588
vn -0.54348423 -0.73674423 -0.40228451
vn -0.52307030 -0.70082489 -0.48501746
vn -0.52345995 -0.70531132 -0.47804353
vn -0.52486007 -0.70767868 -0.47298287
vn -0.52738832 -0.70907307 -0.46805656
vn -0.53134395 -0.69361460 -0.48638708
vn -0.52272022 -0.70772885 -0.47527197
vn -0.52345995 -0.70531132 -0.47804353
vn -0.52486007 -0.70767868 -0.47298287
vn -0.31767905 -0.70832603 -0.63036042
vn -0.42548411 -0.63459626 -0.64517506
vn -0.43788273 -0.62884735 -0.64250271
vn -0.45597017 -0.63581911 -0.62275618
vn -0.49192538 -0.72720275 -0.47873331
vn -0.50531530 -0.72235029 -0.47208738
vn -0.52272022 -0.70772885 -0.47527197
vn -0.52307030 -0.70082489 -0.48501746
vn -0.52345995 -0.70531132 -0.47804353
vn 0.00000000 0.00000000 1.00000000
vn -0.52738832 -0.70907307 -0.46805656
vn -0.53134395 -0.69361460 -0.48638708
vn -0.54348423 -0.73674423 -0.40228451
vn -0.54643207 -0.66865948 -0.50428812
vn -0.57215479 -0.64469556 -0.50695812
vn -0.58401993 -0.63940363 -0.50008371
vn 1.00000000 0.00000000 0.00000000
vn 1.00000000 0.00000000 0.00000000
vn -0.31767905 -0.70832603 -0.63036042
vn -0.49192538 -0.72720275 -0.47873331
vn 0.00000000 1.00000000 -0.00000000
vn 0.22646076 0.10452051 0.96839609
vn 1.00000000 0.00000000 0.00000000
vn 0.00000000 1.00000000 -0.00000000
vn -0.00000000 0.00000000 1.00000000
vn 0.22646076 0.10452051 0.96839609
vn -0.45397645 -0.57520714 -0.68047199
vn -0.45597017 -0.63581911 -0.62275618
vn -0.45812044 -0.57164829 -0.68069369
vn -0.48591138 -0.58058215 -0.65331042
vn -0.52307030 -0.70082489 -0.48501746
vn -0.53134395 -0.69361460 -0.48638708
vn -0.54643207 -0.66865948 -0.50428812
vn -0.55328470 -0.64866494 -0.52259911
vn -0.43788273 -0.62884735 -0.64250271
vn -0.43798438 -0.58781870 -0.68017561
vn -0.44256469 -0.58141502 -0.68271009
vn -0.44597716 -0.57731875 -0.68396450
vn -0.45397645 -0.57520714 -0.68047199
vn -0.45597017 -0.63581911 -0.62275618
vn 1.00000000 0.00000000 0.00000000
vn -0.42548411 -0.63459626 -0.64517506
vn -0.43788273 -0.62884735 -0.64250271
vn -0.43798438 -0.58781870 -0.68017561
vn 1.00000000 0.00000000 0.00000000
vn -0.31767905 -0.70832603 -0.63036042
vn -0.42548411 -0.63459626 -0.64517506
vn 0.00000000 0.00000000 1.00000000
vn -0.58401993 -0.63940363 -0.50008371
vn -0.59369728 -0.63373927 -0.49588110
vn -0.61338340 -0.62902864 -0.47758118
vn -0.47596026 -0.54798290 -0.68787831
vn -0.48440020 -0.53010303 -0.69595059
vn -0.48591138 -0.58058215 -0.65331042
vn -0.50746594 -0.50772533 -0.69619919
vn -0.53082423 -0.51457074 -0.67338146
vn -0.55328470 -0.64866494 -0.52259911
vn -0.57215479 -0.64469556 -0.50695812
vn -0.58401993 -0.63940363 -0.50008371
vn -0.59369728 -0.63373927 -0.49588110
vn -0.61383675 -0.61393546 -0.49627381
vn -0.61750943 -0.60113557 -0.50726535
vn -0.54643207 -0.66865948 -0.50428812
vn -0.55328470 -0.64866494 -0.52259911
vn -0.57215479 -0.64469556 -0.50695812
vn -0.00000000 1.00000000 -0.00000000
vn 0.27745958 0.08075402 -0.95733744
vn 1.00000000 0.00000000 0.00000000
vn 0.00000000 1.00000000 -0.00000000
vn -0.00000000 0.00000000 1.00000000
vn -0.85719739 0.00378762 -0.51497407
vn -0.86033810 0.00000000 -0.50972380
vn -0.45812044 -0.57164829 -0.68069369
vn -0.46109514 -0.56131047 -0.68725674
vn -0.47596026 -0.54798290 -0.68787831
vn -0.48591138 -0.58058215 -0.65331042
vn -0.44074294 -0.55545592 -0.70513430
vn -0.44597716 -0.57731875 -0.68396450
vn -0.45397645 -0.57520714 -0.68047199
vn -0.45812044 -0.57164829 -0.68069369
vn -0.46109514 -0.56131047 -0.68725674
vn -0.22206424 -0.54841455 -0.80618172
vn -0.33877145 -0.44977748 -0.82639828
vn -0.34973354 -0.45472833 -0.81909010
vn -0.44074294 -0.55545592 -0.70513430
vn -0.44256469 -0.58141502 -0.68271009
vn -0.44597716 -0.57731875 -0.68396450
vn 1.00000000 0.00000000 0.00000000
vn -0.22206424 -0.54841455 -0.80618172
vn -0.43798438 -0.58781870 -0.68017561
vn -0.44256469 -0.58141502 -0.68271009
vn 0.00000000 0.00000000 1.00000000
vn -0.61338340 -0.62902864 -0.47758118
vn -0.61476759 -0.61486644 -0.49396364
vn -0.62427643 -0.60533458 -0.49381068
vn -0.62550156 -0.60520829 -0.49241315
vn -0.59369728 -0.63373927 -0.49588110
vn -0.61338340 -0.62902864 -0.47758118
vn -0.61383675 -0.61393546 -0.49627381
vn -0.61476759 -0.61486644 -0.49396364
vn -0.61383675 -0.61393546 -0.49627381
vn -0.61476759 -0.61486644 -0.49396364
vn -0.61750943 -0.60113557 -0.50726535
vn -0.61936626 -0.60057339 -0.50566494
vn -0.62427643 -0.60533458 -0.49381068
vn -0.52743343 -0.50286570 -0.68479199
vn -0.53082423 -0.51457074 -0.67338146
vn -0.53472339 -0.50513694 -0.67742716
vn -0.61750943 -0.60113557 -0.50726535
vn -0.61936626 -0.60057339 -0.50566494
vn -0.62188006 -0.59800897 -0.50561889
vn -0.62317368 -0.59303505 -0.50986665
vn -0.50746594 -0.50772533 -0.69619919
vn -0.50786422 -0.50585309 -0.69727081
vn -0.51724640 -0.49631285 -0.69723003
vn -0.52031502 -0.49560619 -0.69544718
vn -0.52743343 -0.50286570 -0.68479199
vn -0.53082423 -0.51457074 -0.67338146
vn -0.47173440 -0.49295558 -0.73106870
vn -0.48440020 -0.53010303 -0.69595059
vn -0.50746594 -0.50772533 -0.69619919
vn -0.50786422 -0.50585309 -0.69727081
vn -0.33395530 -0.39613918 -0.85530556
vn -0.34191250 -0.38856179 -0.85563752
vn -0.34973354 -0.45472833 -0.81909010
vn -0.38695279 -0.40599269 -0.82791151
vn -0.44074294 -0.55545592 -0.70513430
vn -0.46109514 -0.56131047 -0.68725674
vn -0.47173440 -0.49295558 -0.73106870
vn -0.47596026 -0.54798290 -0.68787831
vn -0.48440020 -0.53010303 -0.69595059
vn 0.00000000 1.00000000 -0.00000000
vn 0.03975058 0.01070252 -0.99915231
vn 0.27745958 0.08075402 -0.95733744
vn -0.01066488 0.00152682 -0.99994196
vn -0.33884927 0.00143657 -0.94083958
vn -0.34558750 0.00628402 -0.93836549
vn 0.00102499 -0.02503597 -0.99968603
vn 0.03416694 0.00812645 -0.99938310
vn 0.03975058 0.01070252 -0.99915231
vn 0.27745958 0.08075402 -0.95733744
vn 1.00000000 0.00000000 0.00000000
vn 0.00000000 1.00000000 -0.00000000
vn -0.83883578 0.00512405 -0.54436043
vn -0.83921599 0.00370817 -0.54378559
vn -0.85719739 0.00378762 -0.51497407
vn -0.83870975 -0.03642624 -0.54335907
vn -0.83921599 0.00370817 -0.54378559
vn -0.83964841 -0.03827687 -0.54177987
vn -0.85683910 -0.04281753 -0.51380290
vn -0.85719739 0.00378762 -0.51497407
vn -0.86033810 0.00000000 -0.50972380
vn -0.86655837 -0.01745060 -0.49877055
vn -0.00000000 -0.00000000 1.00000000
vn -0.86033810 0.00000000 -0.50972380
vn -0.86655837 -0.01745060 -0.49877055
vn -0.31472149 -0.39000937 -0.86535720
vn -0.31469926 -0.39134368 -0.86476268
vn -0.33185411 -0.44575872 -0.83136756
vn -0.33395530 -0.39613918 -0.85530556
vn -0.33877145 -0.44977748 -0.82639828
vn -0.34973354 -0.45472833 -0.81909010
vn 1.00000000 0.00000000 0.00000000
vn -0.22206424 -0.54841455 -0.80618172
vn -0.33185411 -0.44575872 -0.83136756
vn -0.33877145 -0.44977748 -0.82639828
vn 0.00000000 0.00000000 1.00000000
vn -0.62550156 -0.60520829 -0.49241315
vn -0.62572182 -0.60170326 -0.49641252
vn -0.63849206 -0.58850883 -0.49596900
vn -0.64170142 -0.58807305 -0.49233055
vn -0.61936626 -0.60057339 -0.50566494
vn -0.62188006 -0.59800897 -0.50561889
vn -0.62427643 -0.60533458 -0.49381068
vn -0.62550156 -0.60520829 -0.49241315
vn -0.62572182 -0.60170326 -0.49641252
vn -0.62188006 -0.59800897 -0.50561889
vn -0.62317368 -0.59303505 -0.50986665
vn -0.62572182 -0.60170326 -0.49641252
vn -0.63831135 -0.58834227 -0.49639902
vn -0.63849206 -0.58850883 -0.49596900
vn -0.52525320 -0.47618159 -0.70523767
vn -0.53302353 -0.46783695 -0.70499256
vn -0.53472339 -0.50513694 -0.67742716
vn -0.57808032 -0.47281777 -0.66503120
vn -0.62317368 -0.59303505 -0.50986665
vn -0.63831135 -0.58834227 -0.49639902
vn -0.66047435 -0.56475323 -0.49480039
vn -0.66068783 -0.55478851 -0.50566916
vn -0.52031502 -0.49560619 -0.69544718
vn -0.52395281 -0.47649539 -0.70599263
vn -0.52525320 -0.47618159 -0.70523767
vn -0.52743343 -0.50286570 -0.68479199
vn -0.53472339 -0.50513694 -0.67742716
vn -0.50782225 -0.46918061 -0.72248607
vn -0.51724640 -0.49631285 -0.69723003
vn -0.52031502 -0.49560619 -0.69544718
vn -0.52092526 -0.47346617 -0.71025816
vn -0.52395281 -0.47649539 -0.70599263
vn -0.37262335 -0.36438477 -0.85344922
vn -0.38695279 -0.40599269 -0.82791151
vn -0.41184036 -0.37716591 -0.82953806
vn -0.47173440 -0.49295558 -0.73106870
vn -0.50782225 -0.46918061 -0.72248607
vn -0.50786422 -0.50585309 -0.69727081
vn -0.51724640 -0.49631285 -0.69723003
vn -0.33170598 -0.35280659 -0.87492780
vn -0.33287141 -0.35164991 -0.87495083
vn -0.34191250 -0.38856179 -0.85563752
vn -0.37043149 -0.36221861 -0.85532344
vn -0.37262335 -0.36438477 -0.85344922
vn -0.38695279 -0.40599269 -0.82791151
vn -0.30721882 -0.38205735 -0.87157833
vn -0.31342577 -0.35800664 -0.87954280
vn -0.31450354 -0.35650873 -0.87976647
vn -0.31472149 -0.39000937 -0.86535720
vn -0.33170598 -0.35280659 -0.87492780
vn -0.33395530 -0.39613918 -0.85530556
vn -0.34191250 -0.38856179 -0.85563752
vn 0.03416694 0.00812645 -0.99938310
vn 0.03975058 0.01070252 -0.99915231
vn -0.01066488 0.00152682 -0.99994196
vn -0.04241589 -0.01740384 -0.99894845
vn -0.06730060 -0.01738003 -0.99758136
vn -0.01066488 0.00152682 -0.99994196
vn -0.06730060 -0.01738003 -0.99758136
vn -0.12091390 -0.03078961 -0.99218538
vn -0.33884927 0.00143657 -0.94083958
vn -0.36673308 -0.02885610 -0.92987858
vn -0.33884927 0.00143657 -0.94083958
vn -0.34558750 0.00628402 -0.93836549
vn -0.36673308 -0.02885610 -0.92987858
vn -0.40098864 -0.04749910 -0.91485078
vn -0.41425552 -0.00121789 -0.91015981
vn -0.48779846 -0.01267726 -0.87286422
vn -0.48796192 -0.05147901 -0.87134556
vn -0.48928580 -0.04302113 -0.87106176
vn -0.48956020 -0.02703583 -0.87155027
vn 0.00000000 1.00000000 -0.00000000
vn -0.34558750 0.00628402 -0.93836549
vn -0.41425552 -0.00121789 -0.91015981
vn -0.48797498 -0.00116798 -0.87285684
vn -0.48818909 0.00202898 -0.87273553
vn 0.00102499 -0.02503597 -0.99968603
vn 1.00000000 0.00000000 0.00000000
vn -0.20306202 -0.10913377 -0.97306507
vn -0.33753732 -0.24999316 -0.90750867
vn 0.00102499 -0.02503597 -0.99968603
vn 0.03416694 0.00812645 -0.99938310
vn -0.04241589 -0.01740384 -0.99894845
vn -0.20306202 -0.10913377 -0.97306507
vn -0.21463622 -0.10363366 -0.97118039
vn -0.21954877 -0.10873650 -0.96952293
vn -0.00000000 1.00000000 -0.00000000
vn -0.83864819 0.00547977 -0.54464593
vn -0.83883578 0.00512405 -0.54436043
vn -0.70872379 -0.03732622 -0.70449794
vn -0.70921267 0.00388376 -0.70498390
vn -0.70997943 0.00543999 -0.70420140
vn -0.83864819 0.00547977 -0.54464593
vn -0.83870975 -0.03642624 -0.54335907
vn -0.83883578 0.00512405 -0.54436043
vn -0.83921599 0.00370817 -0.54378559
vn -0.70777419 -0.06377678 -0.70355399
vn -0.70872379 -0.03732622 -0.70449794
vn -0.70998494 -0.06606799 -0.70111084
vn -0.83854325 -0.06396855 -0.54106677
vn -0.83870975 -0.03642624 -0.54335907
vn -0.83964841 -0.03827687 -0.54177987
vn -0.83854325 -0.06396855 -0.54106677
vn -0.83964841 -0.03827687 -0.54177987
vn -0.84217351 -0.07026307 -0.53460910
vn -0.84650188 -0.07378031 -0.52724855
vn -0.85683910 -0.04281753 -0.51380290
vn -0.86965152 -0.07579801 -0.48781236
vn -0.87064932 -0.05884305 -0.48837205
vn -0.00000000 -0.00000000 1.00000000
vn -0.85683910 -0.04281753 -0.51380290
vn -0.86655837 -0.01745060 -0.49877055
vn -0.87064932 -0.05884305 -0.48837205
vn 1.00000000 0.00000000 0.00000000
vn -0.30721882 -0.38205735 -0.87157833
vn -0.31472149 -0.39000937 -0.86535720
vn -0.31469926 -0.39134368 -0.86476268
vn 1.00000000 0.00000000 0.00000000
vn -0.31469926 -0.39134368 -0.86476268
vn -0.33185411 -0.44575872 -0.83136756
vn 0.00000000 0.00000000 1.00000000
vn -0.64170142 -0.58807305 -0.49233055
vn -0.66351830 -0.58086210 -0.47153227
vn -0.63831135 -0.58834227 -0.49639902
vn -0.63849206 -0.58850883 -0.49596900
vn -0.64170142 -0.58807305 -0.49233055
vn -0.66047435 -0.56475323 -0.49480039
vn -0.66319965 -0.56616987 -0.48950782
vn -0.66351830 -0.58086210 -0.47153227
vn -0.66047435 -0.56475323 -0.49480039
vn -0.66068783 -0.55478851 -0.50566916
vn -0.66319965 -0.56616987 -0.48950782
vn -0.67125879 -0.55857999 -0.48723714
vn -0.67146095 -0.55136649 -0.49511129
vn -0.56680168 -0.44344159 -0.69433091
vn -0.57808032 -0.47281777 -0.66503120
vn -0.63863936 -0.44525344 -0.62760588
vn -0.66068783 -0.55478851 -0.50566916
vn -0.67146095 -0.55136649 -0.49511129
vn -0.67866897 -0.46547440 -0.56810388
vn -0.70343752 -0.51472577 -0.49013573
vn -0.70347717 -0.49128051 -0.51357894
vn -0.53302353 -0.46783695 -0.70499256
vn -0.53734369 -0.45124451 -0.71248870
vn -0.54764558 -0.44250251 -0.71012383
vn -0.56613103 -0.44289489 -0.69522642
vn -0.56680168 -0.44344159 -0.69433091
vn -0.57808032 -0.47281777 -0.66503120
vn -0.51149245 -0.44394313 -0.73572412
vn -0.52092526 -0.47346617 -0.71025816
vn -0.52395281 -0.47649539 -0.70599263
vn -0.52525320 -0.47618159 -0.70523767
vn -0.53302353 -0.46783695 -0.70499256
vn -0.53734369 -0.45124451 -0.71248870
vn -0.40492453 -0.35967628 -0.84063613
vn -0.41184036 -0.37716591 -0.82953806
vn -0.42849694 -0.36673954 -0.82576781
vn -0.50782225 -0.46918061 -0.72248607
vn -0.51149245 -0.44394313 -0.73572412
vn -0.52092526 -0.47346617 -0.71025816
vn -0.36213780 -0.33308675 -0.87057994
vn -0.37043149 -0.36221861 -0.85532344
vn -0.37262335 -0.36438477 -0.85344922
vn -0.38316383 -0.33917300 -0.85915491
vn -0.40492453 -0.35967628 -0.84063613
vn -0.41184036 -0.37716591 -0.82953806
vn -0.33287141 -0.35164991 -0.87495083
vn -0.33708222 -0.33371397 -0.88034685
vn -0.35778216 -0.32882137 -0.87399567
vn -0.36213780 -0.33308675 -0.87057994
vn -0.37043149 -0.36221861 -0.85532344
vn -0.30619120 -0.34070763 -0.88891240
vn -0.30956827 -0.35144424 -0.88354651
vn -0.31450354 -0.35650873 -0.87976647
vn -0.33170598 -0.35280659 -0.87492780
vn -0.33287141 -0.35164991 -0.87495083
vn -0.33705279 -0.33368445 -0.88036930
vn -0.33708222 -0.33371397 -0.88034685
vn 1.00000000 0.00000000 0.00000000
vn -0.30956827 -0.35144424 -0.88354651
vn -0.31342577 -0.35800664 -0.87954280
vn -0.31450354 -0.35650873 -0.87976647
vn 1.00000000 0.00000000 0.00000000
vn -0.30721882 -0.38205735 -0.87157833
vn -0.31342577 -0.35800664 -0.87954280
vn -0.04241589 -0.01740384 -0.99894845
vn -0.06730060 -0.01738003 -0.99758136
vn -0.12091390 -0.03078961 -0.99218538
vn -0.21463622 -0.10363366 -0.97118039
vn -0.23819234 -0.07014234 -0.96868182
vn -0.29839067 -0.10127277 -0.94905576
vn -0.12091390 -0.03078961 -0.99218538
vn -0.23819234 -0.07014234 -0.96868182
vn -0.36673308 -0.02885610 -0.92987858
vn -0.40098864 -0.04749910 -0.91485078
vn -0.41795741 -0.06561037 -0.90609430
vn -0.40098864 -0.04749910 -0.91485078
vn -0.41795741 -0.06561037 -0.90609430
vn -0.43879146 -0.07633992 -0.89534031
vn -0.48388163 -0.07876453 -0.87158174
vn -0.48780899 -0.05722890 -0.87107247
vn -0.48796192 -0.05147901 -0.87134556
vn -0.48780899 -0.05722890 -0.87107247
vn -0.48796192 -0.05147901 -0.87134556
vn -0.48928580 -0.04302113 -0.87106176
vn -0.49114074 -0.05999656 -0.86901161
vn -0.61413788 -0.04601583 -0.78785608
vn -0.63516367 -0.06447866 -0.76968150
vn -0.63518277 -0.06401265 -0.76970464
vn -0.48928580 -0.04302113 -0.87106176
vn -0.48956020 -0.02703583 -0.87155027
vn -0.60423550 -0.02880506 -0.79628495
vn -0.61413788 -0.04601583 -0.78785608
vn -0.61436609 -0.03709059 -0.78814884
vn -0.48779846 -0.01267726 -0.87286422
vn -0.48797498 -0.00116798 -0.87285684
vn -0.48818909 0.00202898 -0.87273553
vn -0.48956020 -0.02703583 -0.87155027
vn -0.60423550 -0.02880506 -0.79628495
vn -0.60448487 0.00220067 -0.79661358
vn -0.41425552 -0.00121789 -0.91015981
vn -0.48779846 -0.01267726 -0.87286422
vn -0.48797498 -0.00116798 -0.87285684
vn -0.00000000 1.00000000 -0.00000000
vn -0.48818909 0.00202898 -0.87273553
vn -0.60448487 0.00220067 -0.79661358
vn -0.60558385 0.00395501 -0.79577167
vn -0.20306202 -0.10913377 -0.97306507
vn -0.21954877 -0.10873650 -0.96952293
vn -0.33753732 -0.24999316 -0.90750867
vn -0.39015969 -0.26721541 -0.88111937
vn -0.41390086 -0.26381334 -0.87125691
vn -0.41758814 -0.20786463 -0.88454081
vn -0.41928591 -0.25697400 -0.87072595
vn -0.43209167 -0.23538696 -0.87056865
vn -0.43490027 -0.22971384 -0.87068554
vn 1.00000000 0.00000000 0.00000000
vn -0.33753732 -0.24999316 -0.90750867
vn -0.36635744 -0.31903763 -0.87406935
vn -0.37246745 -0.31512638 -0.87290513
vn -0.38647239 -0.30166597 -0.87157142
vn -0.39015969 -0.26721541 -0.88111937
vn -0.39228845 -0.29488619 -0.87129324
vn -0.40196350 -0.28065901 -0.87158239
vn -0.40287829 -0.27888188 -0.87173045
vn -0.21463622 -0.10363366 -0.97118039
vn -0.21954877 -0.10873650 -0.96952293
vn -0.29839067 -0.10127277 -0.94905576
vn -0.41758814 -0.20786463 -0.88454081
vn -0.42503692 -0.14342411 -0.89374109
vn -0.44806531 -0.20276203 -0.87070376
vn -0.45509227 -0.18357382 -0.87131606
vn -0.45633123 -0.17775393 -0.87187462
vn -0.00000000 1.00000000 -0.00000000
vn -0.70997943 0.00543999 -0.70420140
vn -0.83864819 0.00547977 -0.54464593
vn -0.00000000 1.00000000 -0.00000000
vn -0.60558385 0.00395501 -0.79577167
vn -0.70921267 0.00388376 -0.70498390
vn -0.70997943 0.00543999 -0.70420140
vn -0.60423550 -0.02880506 -0.79628495
vn -0.60448487 0.00220067 -0.79661358
vn -0.60558385 0.00395501 -0.79577167
vn -0.61436609 -0.03709059 -0.78814884
vn -0.70872379 -0.03732622 -0.70449794
vn -0.70921267 0.00388376 -0.70498390
vn -0.61413788 -0.04601583 -0.78785608
vn -0.61436609 -0.03709059 -0.78814884
vn -0.63518277 -0.06401265 -0.76970464
vn -0.70777419 -0.06377678 -0.70355399
vn -0.70872379 -0.03732622 -0.70449794
vn -0.63516367 -0.06447866 -0.76968150
vn -0.63518277 -0.06401265 -0.76970464
vn -0.65411515 -0.08168248 -0.75197164
vn -0.70147105 -0.08175553 -0.70799322
vn -0.70777419 -0.06377678 -0.70355399
vn -0.70958588 -0.07405332 -0.70071677
vn -0.70998494 -0.06606799 -0.70111084
vn -0.70958588 -0.07405332 -0.70071677
vn -0.70998494 -0.06606799 -0.70111084
vn -0.83854325 -0.06396855 -0.54106677
vn -0.84217351 -0.07026307 -0.53460910
vn -0.69974782 -0.10750967 -0.70625396
vn -0.70147105 -0.08175553 -0.70799322
vn -0.70958588 -0.07405332 -0.70071677
vn -0.84217351 -0.07026307 -0.53460910
vn -0.84643656 -0.10124273 -0.52277630
vn -0.84650188 -0.07378031 -0.52724855
vn -0.84830123 -0.07671060 -0.52392795
vn -0.84650188 -0.07378031 -0.52724855
vn -0.84830123 -0.07671060 -0.52392795
vn -0.86965152 -0.07579801 -0.48781236
vn -0.87280725 -0.07892664 -0.48164104
vn -0.00000000 -0.00000000 1.00000000
vn -0.86965152 -0.07579801 -0.48781236
vn -0.87064932 -0.05884305 -0.48837205
vn -0.87280725 -0.07892664 -0.48164104
vn -0.87924200 -0.08238206 -0.46919793
vn 0.00000000 0.00000000 1.00000000
vn -0.66319965 -0.56616987 -0.48950782
vn -0.66351830 -0.58086210 -0.47153227
vn -0.67125879 -0.55857999 -0.48723714
vn -0.67513601 -0.55902910 -0.48132924
vn -0.67125879 -0.55857999 -0.48723714
vn -0.67146095 -0.55136649 -0.49511129
vn -0.67513601 -0.55902910 -0.48132924
vn -0.70343752 -0.51472577 -0.49013573
vn -0.70736589 -0.51449650 -0.48469253
vn -0.71608453 -0.54727283 -0.43326135
vn -0.71983546 -0.54239859 -0.43317512
vn -0.70343752 -0.51472577 -0.49013573
vn -0.70347717 -0.49128051 -0.51357894
vn -0.70736589 -0.51449650 -0.48469253
vn -0.70885037 -0.51249259 -0.48464678
vn -0.70896625 -0.49105752 -0.50619104
vn -0.67866897 -0.46547440 -0.56810388
vn -0.70347717 -0.49128051 -0.51357894
vn -0.70896625 -0.49105752 -0.50619104
vn -0.71200197 -0.46095789 -0.52968955
vn -0.71350040 -0.46165466 -0.52705992
vn -0.72196676 -0.46908130 -0.50865188
vn -0.72207388 -0.47539519 -0.50260196
vn -0.59283468 -0.39324614 -0.70278341
vn -0.59371174 -0.40484293 -0.69541971
vn -0.59780708 -0.38869599 -0.70110065
vn -0.63786799 -0.39084103 -0.66360207
vn -0.63863936 -0.44525344 -0.62760588
vn -0.67866897 -0.46547440 -0.56810388
vn -0.71200197 -0.46095789 -0.52968955
vn -0.56527894 -0.42633122 -0.70618794
vn -0.56613103 -0.44289489 -0.69522642
vn -0.56680168 -0.44344159 -0.69433091
vn -0.58712377 -0.40480570 -0.70101214
vn -0.59371174 -0.40484293 -0.69541971
vn -0.63863936 -0.44525344 -0.62760588
vn -0.54673838 -0.42615424 -0.72074247
vn -0.54764558 -0.44250251 -0.71012383
vn -0.56527894 -0.42633122 -0.70618794
vn -0.56613103 -0.44289489 -0.69522642
vn -0.42055683 -0.34802266 -0.83786167
vn -0.42849694 -0.36673954 -0.82576781
vn -0.47503697 -0.36217322 -0.80197907
vn -0.51149245 -0.44394313 -0.73572412
vn -0.53734369 -0.45124451 -0.71248870
vn -0.54673838 -0.42615424 -0.72074247
vn -0.54764558 -0.44250251 -0.71012383
vn -0.37693045 -0.31947599 -0.86940125
vn -0.38316383 -0.33917300 -0.85915491
vn -0.39569574 -0.32556684 -0.85873809
vn -0.40492453 -0.35967628 -0.84063613
vn -0.42055683 -0.34802266 -0.83786167
vn -0.42849694 -0.36673954 -0.82576781
vn -0.35778216 -0.32882137 -0.87399567
vn -0.35882020 -0.32392471 -0.87539754
vn -0.36213780 -0.33308675 -0.87057994
vn -0.36635744 -0.31903763 -0.87406935
vn -0.37246745 -0.31512638 -0.87290513
vn -0.37693045 -0.31947599 -0.86940125
vn -0.38316383 -0.33917300 -0.85915491
vn -0.33705279 -0.33368445 -0.88036930
vn -0.33708222 -0.33371397 -0.88034685
vn -0.35778216 -0.32882137 -0.87399567
vn -0.35882020 -0.32392471 -0.87539754
vn 1.00000000 0.00000000 0.00000000
vn -0.30619120 -0.34070763 -0.88891240
vn -0.30956827 -0.35144424 -0.88354651
vn 1.00000000 0.00000000 0.00000000
vn -0.30619120 -0.34070763 -0.88891240
vn -0.33705279 -0.33368445 -0.88036930
vn -0.35882020 -0.32392471 -0.87539754
vn -0.36635744 -0.31903763 -0.87406935
vn -0.23819234 -0.07014234 -0.96868182
vn -0.29839067 -0.10127277 -0.94905576
vn -0.41795741 -0.06561037 -0.90609430
vn -0.42503692 -0.14342411 -0.89374109
vn -0.43879146 -0.07633992 -0.89534031
vn -0.46235224 -0.14258125 -0.87515770
vn -0.46776439 -0.14152253 -0.87244934
vn -0.46913854 -0.13862365 -0.87217688
vn -0.47336011 -0.12584166 -0.87183375
vn -0.47567221 -0.11359436 -0.87225700
vn -0.43879146 -0.07633992 -0.89534031
vn -0.47567221 -0.11359436 -0.87225700
vn -0.47974002 -0.10202916 -0.87145830
vn -0.48379421 -0.08101163 -0.87142428
vn -0.48388163 -0.07876453 -0.87158174
vn -0.48379421 -0.08101163 -0.87142428
vn -0.48388163 -0.07876453 -0.87158174
vn -0.48780899 -0.05722890 -0.87107247
vn -0.49045196 -0.07995211 -0.86779291
vn -0.49114074 -0.05999656 -0.86901161
vn -0.49045196 -0.07995211 -0.86779291
vn -0.49083089 -0.08018396 -0.86755724
vn -0.49114074 -0.05999656 -0.86901161
vn -0.63516367 -0.06447866 -0.76968150
vn -0.65383067 -0.08680915 -0.75164461
vn -0.65411515 -0.08168248 -0.75197164
vn -0.41758814 -0.20786463 -0.88454081
vn -0.43490027 -0.22971384 -0.87068554
vn -0.43497466 -0.22961295 -0.87067499
vn -0.44337092 -0.21561824 -0.87001782
vn -0.44628893 -0.20870106 -0.87021265
vn -0.44746490 -0.20529363 -0.87041926
vn -0.44806531 -0.20276203 -0.87070376
vn -0.39015969 -0.26721541 -0.88111937
vn -0.40287829 -0.27888188 -0.87173045
vn -0.41341491 -0.26457174 -0.87125766
vn -0.41390086 -0.26381334 -0.87125691
vn -0.41209353 -0.27556083 -0.86847289
vn -0.41341491 -0.26457174 -0.87125766
vn -0.41390086 -0.26381334 -0.87125691
vn -0.41928591 -0.25697400 -0.87072595
vn -0.43976053 -0.26214524 -0.85900556
vn -0.45684436 -0.28557013 -0.84246242
vn -0.41928591 -0.25697400 -0.87072595
vn -0.43209167 -0.23538696 -0.87056865
vn -0.43976053 -0.26214524 -0.85900556
vn -0.44185428 -0.25965781 -0.85868656
vn -0.43209167 -0.23538696 -0.87056865
vn -0.43490027 -0.22971384 -0.87068554
vn -0.43497466 -0.22961295 -0.87067499
vn -0.44185428 -0.25965781 -0.85868656
vn -0.47416265 -0.23650984 -0.84807598
vn -0.52987317 -0.27504402 -0.80223763
vn -0.37246745 -0.31512638 -0.87290513
vn -0.37693045 -0.31947599 -0.86940125
vn -0.38647239 -0.30166597 -0.87157142
vn -0.39569574 -0.32556684 -0.85873809
vn -0.38647239 -0.30166597 -0.87157142
vn -0.39228845 -0.29488619 -0.87129324
vn -0.39569574 -0.32556684 -0.85873809
vn -0.42055683 -0.34802266 -0.83786167
vn -0.42112349 -0.30585691 -0.85387737
vn -0.46702738 -0.34485316 -0.81422461
vn -0.47503697 -0.36217322 -0.80197907
vn -0.39228845 -0.29488619 -0.87129324
vn -0.40196350 -0.28065901 -0.87158239
vn -0.40797040 -0.27992607 -0.86902333
vn -0.42112349 -0.30585691 -0.85387737
vn -0.40196350 -0.28065901 -0.87158239
vn -0.40287829 -0.27888188 -0.87173045
vn -0.40797040 -0.27992607 -0.86902333
vn -0.41209353 -0.27556083 -0.86847289
vn -0.41341491 -0.26457174 -0.87125766
vn -0.42503692 -0.14342411 -0.89374109
vn -0.45633123 -0.17775393 -0.87187462
vn -0.46235224 -0.14258125 -0.87515770
vn -0.46275141 -0.16081460 -0.87177967
vn -0.46526144 -0.15238877 -0.87195726
vn -0.46711616 -0.14346261 -0.87247978
vn -0.44746490 -0.20529363 -0.87041926
vn -0.44806531 -0.20276203 -0.87070376
vn -0.45509227 -0.18357382 -0.87131606
vn -0.47772482 -0.18888920 -0.85796262
vn -0.48831191 -0.19544504 -0.85050145
vn -0.50415745 -0.21358025 -0.83678476
vn -0.45509227 -0.18357382 -0.87131606
vn -0.45633123 -0.17775393 -0.87187462
vn -0.46275141 -0.16081460 -0.87177967
vn -0.47772482 -0.18888920 -0.85796262
vn -0.65383067 -0.08680915 -0.75164461
vn -0.65411515 -0.08168248 -0.75197164
vn -0.66948999 -0.10868625 -0.73482682
vn -0.68793209 -0.12204447 -0.71544014
vn -0.69974782 -0.10750967 -0.70625396
vn -0.70147105 -0.08175553 -0.70799322
vn -0.68793209 -0.12204447 -0.71544014
vn -0.69239023 -0.14057544 -0.70769648
vn -0.69549940 -0.14625220 -0.70348481
vn -0.69974782 -0.10750967 -0.70625396
vn -0.70934197 -0.15801250 -0.68692505
vn -0.73715140 -0.17123377 -0.65367179
vn -0.84643656 -0.10124273 -0.52277630
vn -0.84668591 -0.16159350 -0.50696204
vn -0.85957774 -0.13145141 -0.49380829
vn -0.84643656 -0.10124273 -0.52277630
vn -0.84830123 -0.07671060 -0.52392795
vn -0.85957774 -0.13145141 -0.49380829
vn -0.87280725 -0.07892664 -0.48164104
vn -0.87399811 -0.13637719 -0.46639958
vn -0.87924200 -0.08238206 -0.46919793
vn -0.00000000 -0.00000000 1.00000000
vn -0.87399811 -0.13637719 -0.46639958
vn -0.87924200 -0.08238206 -0.46919793
vn -0.87942711 -0.14378171 -0.45380037
vn 0.00000000 0.00000000 1.00000000
vn -0.67513601 -0.55902910 -0.48132924
vn -0.71608453 -0.54727283 -0.43326135
vn 0.00000000 0.00000000 1.00000000
vn -0.71608453 -0.54727283 -0.43326135
vn -0.71983546 -0.54239859 -0.43317512
vn 0.00000000 0.00000000 1.00000000
vn -0.70736589 -0.51449650 -0.48469253
vn -0.70885037 -0.51249259 -0.48464678
vn -0.71425603 -0.51536135 -0.47354091
vn -0.71983546 -0.54239859 -0.43317512
vn -0.70885037 -0.51249259 -0.48464678
vn -0.70896625 -0.49105752 -0.50619104
vn -0.71425603 -0.51536135 -0.47354091
vn -0.72207388 -0.47539519 -0.50260196
vn -0.72516074 -0.47530952 -0.49821958
vn -0.75686043 -0.49975995 -0.42119150
vn -0.72196676 -0.46908130 -0.50865188
vn -0.72207388 -0.47539519 -0.50260196
vn -0.72507359 -0.46888939 -0.50439175
vn -0.72516074 -0.47530952 -0.49821958
vn -0.71350040 -0.46165466 -0.52705992
vn -0.72196676 -0.46908130 -0.50865188
vn -0.72507359 -0.46888939 -0.50439175
vn -0.73280449 -0.46322471 -0.49841794
vn -0.73700224 -0.45692460 -0.49804378
vn -0.73741554 -0.45595224 -0.49832307
vn -0.62677354 -0.35977394 -0.69117121
vn -0.63786799 -0.39084103 -0.66360207
vn -0.71200197 -0.46095789 -0.52968955
vn -0.71350040 -0.46165466 -0.52705992
vn -0.72243841 -0.35628931 -0.59257124
vn -0.73741554 -0.45595224 -0.49832307
vn -0.75090547 -0.37055366 -0.54665433
vn -0.76429666 -0.38207458 -0.51948978
vn -0.76692190 -0.42350123 -0.48215922
vn -0.58624725 -0.39318179 -0.70832354
vn -0.58712377 -0.40480570 -0.70101214
vn -0.59283468 -0.39324614 -0.70278341
vn -0.59371174 -0.40484293 -0.69541971
vn -0.59780708 -0.38869599 -0.70110065
vn -0.60566075 -0.35865424 -0.71031134
vn -0.61060339 -0.35370818 -0.70855771
vn -0.61971746 -0.35375553 -0.70057640
vn -0.62677354 -0.35977394 -0.69117121
vn -0.63786799 -0.39084103 -0.66360207
vn -0.54035714 -0.35126654 -0.76460838
vn -0.54531763 -0.36005370 -0.75696104
vn -0.58624725 -0.39318179 -0.70832354
vn -0.59283468 -0.39324614 -0.70278341
vn -0.59780708 -0.38869599 -0.70110065
vn -0.60566075 -0.35865424 -0.71031134
vn -0.46702738 -0.34485316 -0.81422461
vn -0.47503697 -0.36217322 -0.80197907
vn -0.54531763 -0.36005370 -0.75696104
vn -0.54673838 -0.42615424 -0.72074247
vn -0.56527894 -0.42633122 -0.70618794
vn -0.58624725 -0.39318179 -0.70832354
vn -0.58712377 -0.40480570 -0.70101214
vn -0.47336011 -0.12584166 -0.87183375
vn -0.47567221 -0.11359436 -0.87225700
vn -0.47974002 -0.10202916 -0.87145830
vn -0.49811509 -0.10532200 -0.86069079
vn -0.51793942 -0.12954950 -0.84555052
vn -0.46235224 -0.14258125 -0.87515770
vn -0.46711616 -0.14346261 -0.87247978
vn -0.46776439 -0.14152253 -0.87244934
vn -0.46526144 -0.15238877 -0.87195726
vn -0.46711616 -0.14346261 -0.87247978
vn -0.46776439 -0.14152253 -0.87244934
vn -0.46913854 -0.13862365 -0.87217688
vn -0.53914373 -0.14501837 -0.82963468
vn -0.56235657 -0.15525661 -0.81218869
vn -0.57104244 -0.16274479 -0.80462703
vn -0.46913854 -0.13862365 -0.87217688
vn -0.47336011 -0.12584166 -0.87183375
vn -0.51793942 -0.12954950 -0.84555052
vn -0.52341128 -0.13232406 -0.84174282
vn -0.53914373 -0.14501837 -0.82963468
vn -0.47974002 -0.10202916 -0.87145830
vn -0.48379421 -0.08101163 -0.87142428
vn -0.49045196 -0.07995211 -0.86779291
vn -0.49083089 -0.08018396 -0.86755724
vn -0.49811509 -0.10532200 -0.86069079
vn -0.50124241 -0.10083940 -0.85941111
vn -0.49083089 -0.08018396 -0.86755724
vn -0.50124241 -0.10083940 -0.85941111
vn -0.65383067 -0.08680915 -0.75164461
vn -0.66948999 -0.10868625 -0.73482682
vn -0.43497466 -0.22961295 -0.87067499
vn -0.44337092 -0.21561824 -0.87001782
vn -0.44968984 -0.21702896 -0.86641646
vn -0.47036941 -0.23132566 -0.85161086
vn -0.47416265 -0.23650984 -0.84807598
vn -0.44337092 -0.21561824 -0.87001782
vn -0.44628893 -0.20870106 -0.87021265
vn -0.44968984 -0.21702896 -0.86641646
vn -0.44628893 -0.20870106 -0.87021265
vn -0.44746490 -0.20529363 -0.87041926
vn -0.44968984 -0.21702896 -0.86641646
vn -0.47036941 -0.23132566 -0.85161086
vn -0.50415745 -0.21358025 -0.83678476
vn -0.55108891 -0.24297590 -0.79828799
vn -0.43976053 -0.26214524 -0.85900556
vn -0.44185428 -0.25965781 -0.85868656
vn -0.45684436 -0.28557013 -0.84246242
vn -0.52987317 -0.27504402 -0.80223763
vn -0.54035714 -0.35126654 -0.76460838
vn -0.54203077 -0.28122089 -0.79190748
vn -0.60566075 -0.35865424 -0.71031134
vn -0.60792050 -0.32779071 -0.72317765
vn -0.61060339 -0.35370818 -0.70855771
vn -0.40797040 -0.27992607 -0.86902333
vn -0.41209353 -0.27556083 -0.86847289
vn -0.42112349 -0.30585691 -0.85387737
vn -0.45684436 -0.28557013 -0.84246242
vn -0.46702738 -0.34485316 -0.81422461
vn -0.54035714 -0.35126654 -0.76460838
vn -0.54531763 -0.36005370 -0.75696104
vn -0.47036941 -0.23132566 -0.85161086
vn -0.47416265 -0.23650984 -0.84807598
vn -0.52987317 -0.27504402 -0.80223763
vn -0.54203077 -0.28122089 -0.79190748
vn -0.55108891 -0.24297590 -0.79828799
vn -0.55327187 -0.24399622 -0.79646474
vn -0.61815266 -0.28888485 -0.73104914
vn -0.46275141 -0.16081460 -0.87177967
vn -0.46526144 -0.15238877 -0.87195726
vn -0.47772482 -0.18888920 -0.85796262
vn -0.48831191 -0.19544504 -0.85050145
vn -0.57104244 -0.16274479 -0.80462703
vn -0.62922681 -0.19586338 -0.75213773
vn -0.63734032 -0.20973700 -0.74149019
vn -0.48831191 -0.19544504 -0.85050145
vn -0.50415745 -0.21358025 -0.83678476
vn -0.55108891 -0.24297590 -0.79828799
vn -0.55327187 -0.24399622 -0.79646474
vn -0.63734032 -0.20973700 -0.74149019
vn -0.65362329 -0.25140738 -0.71384236
vn -0.66099521 -0.22842703 -0.71477719
vn -0.66314352 -0.24160035 -0.70842780
vn -0.49811509 -0.10532200 -0.86069079
vn -0.50124241 -0.10083940 -0.85941111
vn -0.51793942 -0.12954950 -0.84555052
vn -0.52341128 -0.13232406 -0.84174282
vn -0.66948999 -0.10868625 -0.73482682
vn -0.68793209 -0.12204447 -0.71544014
vn -0.69239023 -0.14057544 -0.70769648
vn -0.52341128 -0.13232406 -0.84174282
vn -0.53914373 -0.14501837 -0.82963468
vn -0.56235657 -0.15525661 -0.81218869
vn -0.69091486 -0.16060125 -0.70487155
vn -0.69239023 -0.14057544 -0.70769648
vn -0.69425842 -0.15773033 -0.70222959
vn -0.69549940 -0.14625220 -0.70348481
vn -0.69425842 -0.15773033 -0.70222959
vn -0.69549940 -0.14625220 -0.70348481
vn -0.70934197 -0.15801250 -0.68692505
vn -0.68712404 -0.19092861 -0.70100415
vn -0.69091486 -0.16060125 -0.70487155
vn -0.69425842 -0.15773033 -0.70222959
vn -0.70934197 -0.15801250 -0.68692505
vn -0.73715140 -0.17123377 -0.65367179
vn -0.76163978 -0.18944825 -0.61968880
vn -0.73715140 -0.17123377 -0.65367179
vn -0.76163978 -0.18944825 -0.61968880
vn -0.78848120 -0.20121723 -0.58121341
vn -0.84668591 -0.16159350 -0.50696204
vn -0.84827339 -0.19149636 -0.49372199
vn -0.85222363 -0.18546100 -0.48920251
vn -0.84668591 -0.16159350 -0.50696204
vn -0.85222363 -0.18546100 -0.48920251
vn -0.85957774 -0.13145141 -0.49380829
vn -0.87399811 -0.13637719 -0.46639958
vn -0.87405922 -0.17839288 -0.45188102
vn -0.87942711 -0.14378171 -0.45380037
vn 0.00000000 0.00000000 1.00000000
vn -0.87405922 -0.17839288 -0.45188102
vn -0.87942711 -0.14378171 -0.45380037
vn -0.88165947 -0.18470854 -0.43423420
vn -0.00000000 0.00000000 1.00000000
vn -0.71425603 -0.51536135 -0.47354091
vn -0.75686043 -0.49975995 -0.42119150
vn -0.00000000 -0.00000000 1.00000000
vn -0.72507359 -0.46888939 -0.50439175
vn -0.72516074 -0.47530952 -0.49821958
vn -0.73280449 -0.46322471 -0.49841794
vn -0.75686043 -0.49975995 -0.42119150
vn -0.73700224 -0.45692460 -0.49804378
vn -0.73741554 -0.45595224 -0.49832307
vn -0.76692190 -0.42350123 -0.48215922
vn -0.77032365 -0.42321791 -0.47695710
vn -0.77209108 -0.42457389 -0.47287670
vn -0.78123428 -0.44337212 -0.43942481
vn -0.78423344 -0.43575300 -0.44169813
vn -0.00000000 -0.00000000 1.00000000
vn -0.73280449 -0.46322471 -0.49841794
vn -0.73700224 -0.45692460 -0.49804378
vn -0.78123428 -0.44337212 -0.43942481
vn -0.76429666 -0.38207458 -0.51948978
vn -0.76692190 -0.42350123 -0.48215922
vn -0.76785352 -0.38194509 -0.51431403
vn -0.77032365 -0.42321791 -0.47695710
vn -0.75090547 -0.37055366 -0.54665433
vn -0.76429666 -0.38207458 -0.51948978
vn -0.76785352 -0.38194509 -0.51431403
vn -0.77469632 -0.37541642 -0.50883015
vn -0.78325113 -0.36335859 -0.50446824
vn -0.69681452 -0.33442302 -0.63451617
vn -0.72243841 -0.35628931 -0.59257124
vn -0.75090547 -0.37055366 -0.54665433
vn -0.75997398 -0.32866356 -0.56073150
vn -0.77178232 -0.33454869 -0.54076726
vn -0.78325113 -0.36335859 -0.50446824
vn -0.78530573 -0.36148145 -0.50261921
vn -0.79015285 -0.35247676 -0.50141660
vn -0.79042405 -0.35513373 -0.49910906
vn -0.61707085 -0.32778296 -0.71538933
vn -0.61971746 -0.35375553 -0.70057640
vn -0.62677354 -0.35977394 -0.69117121
vn -0.63282112 -0.31420721 -0.70768020
vn -0.65766126 -0.31500690 -0.68428965
vn -0.69681452 -0.33442302 -0.63451617
vn -0.72243841 -0.35628931 -0.59257124
vn -0.60792050 -0.32779071 -0.72317765
vn -0.61060339 -0.35370818 -0.70855771
vn -0.61707085 -0.32778296 -0.71538933
vn -0.61971746 -0.35375553 -0.70057640
vn -0.56235657 -0.15525661 -0.81218869
vn -0.57104244 -0.16274479 -0.80462703
vn -0.62922681 -0.19586338 -0.75213773
vn -0.68037712 -0.19665574 -0.70598406
vn -0.68712404 -0.19092861 -0.70100415
vn -0.69091486 -0.16060125 -0.70487155
vn -0.54203077 -0.28122089 -0.79190748
vn -0.60792050 -0.32779071 -0.72317765
vn -0.61707085 -0.32778296 -0.71538933
vn -0.61815266 -0.28888485 -0.73104914
vn -0.63282112 -0.31420721 -0.70768020
vn -0.63630132 -0.29796944 -0.71157209
vn -0.55327187 -0.24399622 -0.79646474
vn -0.61815266 -0.28888485 -0.73104914
vn -0.63630132 -0.29796944 -0.71157209
vn -0.63791214 -0.29795987 -0.71013239
vn -0.64621208 -0.29039496 -0.70574834
vn -0.65362329 -0.25140738 -0.71384236
vn -0.62922681 -0.19586338 -0.75213773
vn -0.63734032 -0.20973700 -0.74149019
vn -0.66099521 -0.22842703 -0.71477719
vn -0.67206439 -0.22811798 -0.70447970
vn -0.67645826 -0.22297028 -0.70191771
vn -0.68037712 -0.19665574 -0.70598406
vn -0.64621208 -0.29039496 -0.70574834
vn -0.65362329 -0.25140738 -0.71384236
vn -0.66314352 -0.24160035 -0.70842780
vn -0.67425850 -0.24170260 -0.69782185
vn -0.70186378 -0.26403202 -0.66156960
vn -0.71410933 -0.29078399 -0.63678296
vn -0.66099521 -0.22842703 -0.71477719
vn -0.66314352 -0.24160035 -0.70842780
vn -0.67206439 -0.22811798 -0.70447970
vn -0.67425850 -0.24170260 -0.69782185
vn -0.67645826 -0.22297028 -0.70191771
vn -0.68037712 -0.19665574 -0.70598406
vn -0.68712404 -0.19092861 -0.70100415
vn -0.76163978 -0.18944825 -0.61968880
vn -0.78848120 -0.20121723 -0.58121341
vn -0.80973757 -0.21517404 -0.54591685
vn -0.78848120 -0.20121723 -0.58121341
vn -0.80973757 -0.21517404 -0.54591685
vn -0.81249969 -0.21643779 -0.54129377
vn -0.84503197 -0.20980688 -0.49183538
vn -0.84827339 -0.19149636 -0.49372199
vn -0.84503197 -0.20980688 -0.49183538
vn -0.84596745 -0.21077060 -0.48981101
vn -0.84827339 -0.19149636 -0.49372199
vn -0.85222363 -0.18546100 -0.48920251
vn -0.87001460 -0.20511883 -0.44833119
vn -0.87405922 -0.17839288 -0.45188102
vn -0.87845386 -0.20280074 -0.43265538
vn -0.88165947 -0.18470854 -0.43423420
vn 0.00000000 0.00000000 1.00000000
vn -0.87845386 -0.20280074 -0.43265538
vn -0.88165947 -0.18470854 -0.43423420
vn -0.00000000 -0.00000000 1.00000000
vn -0.78123428 -0.44337212 -0.43942481
vn -0.78423344 -0.43575300 -0.44169813
vn -0.00000000 -0.00000000 1.00000000
vn -0.77209108 -0.42457389 -0.47287670
vn -0.78423344 -0.43575300 -0.44169813
vn -0.00000000 -0.00000000 1.00000000
vn -0.76785352 -0.38194509 -0.51431403
vn -0.77032365 -0.42321791 -0.47695710
vn -0.77209108 -0.42457389 -0.47287670
vn -0.77469632 -0.37541642 -0.50883015
vn -0.00000000 -0.00000000 1.00000000
vn -0.77469632 -0.37541642 -0.50883015
vn -0.78325113 -0.36335859 -0.50446824
vn -0.78530573 -0.36148145 -0.50261921
vn -0.79954102 -0.35746751 -0.48265012
vn -0.78530573 -0.36148145 -0.50261921
vn -0.79042405 -0.35513373 -0.49910906
vn -0.79631470 -0.35506657 -0.48970464
vn -0.79954102 -0.35746751 -0.48265012
vn -0.79015285 -0.35247676 -0.50141660
vn -0.79042405 -0.35513373 -0.49910906
vn -0.79605466 -0.35241082 -0.49204023
vn -0.79631470 -0.35506657 -0.48970464
vn -0.77178232 -0.33454869 -0.54076726
vn -0.79015285 -0.35247676 -0.50141660
vn -0.79605466 -0.35241082 -0.49204023
vn -0.79630199 -0.35218236 -0.49180354
vn -0.79707481 -0.35053905 -0.49172566
vn -0.80444521 -0.32646816 -0.49627255
vn -0.70186378 -0.26403202 -0.66156960
vn -0.71410933 -0.29078399 -0.63678296
vn -0.75997398 -0.32866356 -0.56073150
vn -0.77178232 -0.33454869 -0.54076726
vn -0.80444521 -0.32646816 -0.49627255
vn -0.82221309 -0.24944323 -0.51160895
vn -0.82867199 -0.29678945 -0.47457218
vn -0.63791214 -0.29795987 -0.71013239
vn -0.64621208 -0.29039496 -0.70574834
vn -0.65766126 -0.31500690 -0.68428965
vn -0.69681452 -0.33442302 -0.63451617
vn -0.71410933 -0.29078399 -0.63678296
vn -0.75997398 -0.32866356 -0.56073150
vn -0.63282112 -0.31420721 -0.70768020
vn -0.63630132 -0.29796944 -0.71157209
vn -0.63791214 -0.29795987 -0.71013239
vn -0.65766126 -0.31500690 -0.68428965
vn -0.67206439 -0.22811798 -0.70447970
vn -0.67425850 -0.24170260 -0.69782185
vn -0.67645826 -0.22297028 -0.70191771
vn -0.70186378 -0.26403202 -0.66156960
vn -0.80973757 -0.21517404 -0.54591685
vn -0.81249969 -0.21643779 -0.54129377
vn -0.82221309 -0.24944323 -0.51160895
vn -0.82728649 -0.23046026 -0.51233304
vn -0.82902319 -0.23701227 -0.50650343
vn -0.81249969 -0.21643779 -0.54129377
vn -0.82728649 -0.23046026 -0.51233304
vn -0.84230549 -0.22652072 -0.48909082
vn -0.84295037 -0.22581340 -0.48830624
vn -0.84438922 -0.21905784 -0.48889723
vn -0.84503197 -0.20980688 -0.49183538
vn -0.84596745 -0.21077060 -0.48981101
vn -0.00000000 -0.00000000 1.00000000
vn -0.00000000 -0.00000000 1.00000000
vn -0.84438922 -0.21905784 -0.48889723
vn -0.84596745 -0.21077060 -0.48981101
vn -0.87001460 -0.20511883 -0.44833119
vn -0.00000000 -0.00000000 1.00000000
vn -0.87001460 -0.20511883 -0.44833119
vn -0.87845386 -0.20280074 -0.43265538
vn -0.00000000 -0.00000000 1.00000000
vn -0.79605466 -0.35241082 -0.49204023
vn -0.79630199 -0.35218236 -0.49180354
vn -0.79631470 -0.35506657 -0.48970464
vn -0.79954102 -0.35746751 -0.48265012
vn -0.00000000 -0.00000000 1.00000000
vn -0.79630199 -0.35218236 -0.49180354
vn -0.79707481 -0.35053905 -0.49172566
vn -0.84075760 -0.33583925 -0.42466300
vn -0.79707481 -0.35053905 -0.49172566
vn -0.80444521 -0.32646816 -0.49627255
vn -0.82867199 -0.29678945 -0.47457218
vn -0.84075760 -0.33583925 -0.42466300
vn -0.84437873 -0.29058707 -0.45009301
vn -0.85290961 -0.29488261 -0.43080093
vn -0.82221309 -0.24944323 -0.51160895
vn -0.82867199 -0.29678945 -0.47457218
vn -0.82902319 -0.23701227 -0.50650343
vn -0.84437873 -0.29058707 -0.45009301
vn -0.84634447 -0.24796475 -0.47139636
vn -0.84761108 -0.24948784 -0.46830681
vn -0.85299547 -0.25875875 -0.45325780
vn -0.82728649 -0.23046026 -0.51233304
vn -0.82902319 -0.23701227 -0.50650343
vn -0.84230549 -0.22652072 -0.48909082
vn -0.84634447 -0.24796475 -0.47139636
vn -0.00000000 -0.00000000 1.00000000
vn -0.84230549 -0.22652072 -0.48909082
vn -0.84295037 -0.22581340 -0.48830624
vn -0.84634447 -0.24796475 -0.47139636
vn -0.84761108 -0.24948784 -0.46830681
vn -0.00000000 -0.00000000 1.00000000
vn -0.00000000 -0.00000000 1.00000000
vn -0.84295037 -0.22581340 -0.48830624
vn -0.84438922 -0.21905784 -0.48889723
vn -0.00000000 -0.00000000 1.00000000
vn -0.84075760 -0.33583925 -0.42466300
vn -0.85290961 -0.29488261 -0.43080093
vn -0.00000000 -0.00000000 1.00000000
vn -0.84437873 -0.29058707 -0.45009301
vn -0.85290961 -0.29488261 -0.43080093
vn -0.85299547 -0.25875875 -0.45325780
vn -0.00000000 -0.00000000 1.00000000
vn -0.84761108 -0.24948784 -0.46830681
vn -0.85299547 -0.25875875 -0.45325780
f 7//7 9//9 12//12
f 6//6 11//11 21//21
f 4//4 19//19 55//55
f 3//3 54//54 82//82
f 3//3 82//82 78//78
f 3//3 78//78 125//125
f 3//3 125//125 200//200
f 3//3 200//200 322//322
f 3//3 322//322 318//318
f 3//3 318//318 387//387
f 3//3 387//387 383//383
f 3//3 383//383 568//568
f 3//3 568//568 571//571
f 3//3 571//571 441//441
f 3//3 441//441 282//282
f 3//3 282//282 179//179
f 3//3 179//179 105//105
f 3//3 105//105 60//60
f 3//3 60//60 25//25
f 1//1 23//23 62//62
f 1//1 62//62 107//107
f 1//1 107//107 191//191
f 1//1 191//191 314//314
f 1//1 314//314 498//498
f 1//1 498//498 686//686
f 1//1 686//686 866//866
f 1//1 866//866 971//971
f 1//1 971//971 1042//1042
f 1//1 1042//1042 1037//1037
f 2//2 1038//1038 1077//1077
f 1//1 1076//1076 1071//1071
f 1//1 1071//1071 1087//1087
f 1//1 1087//1087 1083//1083
f 1//1 1083//1083 1080//1080
f 1//1 1080//1080 1050//1050
f 1//1 1050//1050 1045//1045
f 1//1 1045//1045 985//985
f 1//1 985//985 980//980
f 1//1 980//980 977//977
f 1//1 977//977 974//974
f 1//1 974//974 885//885
f 1//1 885//885 873//873
f 1//1 873//873 870//870
f 1//1 870//870 696//696
f 1//1 696//696 693//693
f 1//1 693//693 690//690
f 1//1 690//690 503//503
f 1//1 503//503 325//325
f 1//1 325//325 204//204
f 1//1 204//204 129//129
f 1//1 129//129 85//85
f 1//1 85//85 47//47
f 1//1 47//47 26//26
f 5//5 27//27 8//8
f 10//10 28//28 17//17
f 15//15 32//32 37//37
f 14//14 35//35 44//44
f 13//13 43//43 22//22
f 18//18 29//29 50//50
f 16//16 48//48 33//33
f 20//20 42//42 57//57
f 24//24 59//59 63//63
f 31//31 46//46 36//36
f 34//34 49//49 69//69
f 30//30 68//68 45//45
f 41//41 65//65 77//77
f 40//40 72//72 80//80
f 39//39 79//79 84//84
f 38//38 83//83 56//56
f 53//53 86//86 96//96
f 52//52 95//95 102//102
f 51//51 100//100 70//70
f 58//58 103//103 169//169
f 58//58 169//169 276//276
f 58//58 276//276 428//428
f 58//58 428//428 461//461
f 58//58 461//461 458//458
f 58//58 458//458 291//291
f 58//58 291//291 180//180
f 58//58 180//180 106//106
f 58//58 106//106 61//61
f 71//71 101//101 94//94
f 67//67 91//91 113//113
f 66//66 110//110 117//117
f 64//64 116//116 76//76
f 75//75 115//115 124//124
f 74//74 123//123 128//128
f 73//73 127//127 81//81
f 88//88 130//130 135//135
f 87//87 134//134 97//97
f 98//98 136//136 138//138
f 99//99 140//140 146//146
f 93//93 144//144 155//155
f 92//92 150//150 158//158
f 90//90 157//157 168//168
f 89//89 167//167 112//112
f 104//104 178//178 171//171
f 108//108 183//183 188//188
f 109//109 189//189 192//192
f 111//111 165//165 118//118
f 114//114 164//164 122//122
f 121//121 162//162 199//199
f 120//120 198//198 203//203
f 119//119 201//201 126//126
f 131//131 139//139 137//137
f 133//133 205//205 212//212
f 132//132 211//211 142//142
f 141//141 209//209 147//147
f 148//148 210//210 214//214
f 149//149 215//215 223//223
f 145//145 221//221 231//231
f 143//143 230//230 154//154
f 153//153 227//227 234//234
f 152//152 233//233 243//243
f 151//151 242//242 159//159
f 156//156 240//240 166//166
f 163//163 238//238 249//249
f 161//161 246//246 256//256
f 160//160 255//255 197//197
f 172//172 259//259 262//262
f 173//173 265//265 267//267
f 174//174 268//268 277//277
f 170//170 177//177 258//258
f 175//175 281//281 285//285
f 176//176 286//286 257//257
f 181//181 293//293 299//299
f 182//182 300//300 185//185
f 184//184 298//298 305//305
f 186//186 306//306 308//308
f 187//187 311//311 315//315
f 190//190 316//316 193//193
f 194//194 253//253 320//320
f 195//195 321//321 323//323
f 196//196 324//324 202//202
f 208//208 326//326 330//330
f 207//207 329//329 218//218
f 206//206 216//216 213//213
f 217//217 328//328 224//224
f 226//226 335//335 342//342
f 222//222 340//340 352//352
f 220//220 347//347 357//357
f 219//219 356//356 229//229
f 225//225 331//331 334//334
f 228//228 355//355 236//236
f 235//235 354//354 364//364
f 232//232 362//362 241//241
f 239//239 360//360 370//370
f 237//237 367//367 248//248
f 247//247 366//366 375//375
f 245//245 371//371 380//380
f 244//244 379//379 254//254
f 252//252 378//378 386//386
f 251//251 385//385 389//389
f 250//250 388//388 319//319
f 261//261 391//391 263//263
f 260//260 287//287 390//390
f 264//264 392//392 396//396
f 266//266 398//398 269//269
f 270//270 399//399 401//401
f 273//273 406//406 408//408
f 274//274 409//409 414//414
f 275//275 415//415 422//422
f 272//272 419//419 426//426
f 271//271 425//425 278//278
f 279//279 427//427 420//420
f 280//280 421//421 429//429
f 283//283 432//432 288//288
f 284//284 442//442 434//434
f 290//290 433//433 451//451
f 289//289 450//450 393//393
f 292//292 460//460 297//297
f 296//296 459//459 464//464
f 295//295 463//463 470//470
f 294//294 469//469 475//475
f 294//294 475//475 302//302
f 301//301 474//474 480//480
f 303//303 482//482 484//484
f 304//304 485//485 307//307
f 309//309 486//486 490//490
f 310//310 492//492 494//494
f 312//312 496//496 499//499
f 313//313 500//500 317//317
f 327//327 505//505 333//333
f 332//332 504//504 336//336
f 337//337 506//506 508//508
f 338//338 509//509 343//343
f 345//345 511//511 515//515
f 346//346 516//516 521//521
f 344//344 520//520 532//532
f 341//341 531//531 539//539
f 339//339 536//536 351//351
f 350//350 535//535 543//543
f 349//349 541//541 550//550
f 348//348 548//548 358//358
f 353//353 547//547 363//363
f 361//361 545//545 556//556
f 359//359 554//554 369//369
f 368//368 552//552 563//563
f 365//365 559//559 374//374
f 373//373 557//557 566//566
f 372//372 565//565 382//382
f 377//377 570//570 384//384
f 381//381 564//564 573//573
f 376//376 572//572 569//569
f 395//395 452//452 577//577
f 394//394 576//576 397//397
f 400//400 578//578 402//402
f 403//403 580//580 586//586
f 404//404 590//590 592//592
f 405//405 593//593 407//407
f 413//413 477//477 473//473
f 411//411 471//471 417//417
f 410//410 595//595 598//598
f 412//412 599//599 476//476
f 418//418 472//472 468//468
f 416//416 465//465 423//423
f 424//424 466//466 430//430
f 431//431 467//467 462//462
f 437//437 602//602 453//453
f 435//435 446//446 609//609
f 436//436 612//612 615//615
f 438//438 616//616 619//619
f 439//439 620//620 623//623
f 440//440 624//624 603//603
f 443//443 575//575 560//560
f 444//444 561//561 629//629
f 445//445 631//631 633//633
f 447//447 634//634 640//640
f 448//448 641//641 644//644
f 449//449 645//645 610//610
f 454//454 649//649 579//579
f 455//455 608//608 656//656
f 456//456 657//657 661//661
f 457//457 662//662 650//650
f 478//478 601//601 666//666
f 479//479 670//670 488//488
f 481//481 489//489 483//483
f 487//487 669//669 674//674
f 491//491 677//677 680//680
f 493//493 681//681 495//495
f 497//497 683//683 501//501
f 502//502 685//685 688//688
f 507//507 691//691 510//510
f 514//514 695//695 700//700
f 512//512 697//697 517//517
f 513//513 692//692 694//694
f 519//519 702//702 522//522
f 518//518 698//698 701//701
f 526//526 704//704 708//708
f 525//525 707//707 712//712
f 524//524 711//711 720//720
f 523//523 719//719 533//533
f 528//528 729//729 538//538
f 530//530 718//718 735//735
f 529//529 730//730 740//740
f 527//527 739//739 728//728
f 537//537 727//727 748//748
f 534//534 746//746 542//542
f 540//540 745//745 549//549
f 546//546 743//743 639//639
f 544//544 636//636 555//555
f 553//553 635//635 632//632
f 551//551 630//630 562//562
f 558//558 574//574 567//567
f 585//585 750//750 587//587
f 581//581 651//651 754//754
f 582//582 756//756 759//759
f 583//583 760//760 764//764
f 584//584 765//765 749//749
f 588//588 751//751 769//769
f 589//589 770//770 591//591
f 594//594 771//771 596//596
f 597//597 772//772 775//775
f 600//600 777//777 665//665
f 604//604 625//625 779//779
f 605//605 780//780 784//784
f 606//606 785//785 787//787
f 607//607 788//788 655//655
f 611//611 648//648 614//614
f 617//617 793//793 621//621
f 613//613 647//647 803//803
f 618//618 805//805 795//795
f 622//622 794//794 626//626
f 628//628 796//796 811//811
f 627//627 810//810 783//783
f 638//638 742//742 806//806
f 637//637 804//804 643//643
f 642//642 802//802 646//646
f 654//654 758//758 755//755
f 652//652 663//663 816//816
f 653//653 817//817 757//757
f 660//660 791//791 824//824
f 659//659 823//823 819//819
f 658//658 818//818 664//664
f 667//667 778//778 835//835
f 668//668 836//836 671//671
f 672//672 837//837 842//842
f 673//673 844//844 846//846
f 675//675 847//847 851//851
f 676//676 852//852 854//854
f 678//678 857//857 860//860
f 679//679 862//862 682//682
f 684//684 863//863 687//687
f 689//689 865//865 868//868
f 699//699 871//871 703//703
f 706//706 872//872 877//877
f 705//705 875//875 710//710
f 709//709 874//874 713//713
f 716//716 879//879 722//722
f 714//714 876//876 886//886
f 715//715 887//887 878//878
f 725//725 880//880 890//890
f 724//724 889//889 894//894
f 723//723 893//893 900//900
f 721//721 899//899 913//913
f 717//717 909//909 734//734
f 726//726 738//738 747//747
f 733//733 908//908 917//917
f 732//732 915//915 801//801
f 731//731 799//799 741//741
f 736//736 797//797 807//807
f 737//737 808//808 744//744
f 752//752 831//831 773//773
f 753//753 766//766 833//833
f 762//762 918//918 840//840
f 761//761 839//839 768//768
f 763//763 820//820 919//919
f 767//767 838//838 834//834
f 774//774 832//832 776//776
f 782//782 809//809 790//790
f 781//781 789//789 786//786
f 792//792 813//813 825//825
f 800//800 914//914 925//925
f 798//798 924//924 812//812
f 815//815 927//927 931//931
f 814//814 930//930 826//826
f 822//822 827//827 937//937
f 821//821 936//936 920//920
f 828//828 935//935 943//943
f 830//830 944//944 949//949
f 829//829 948//948 938//938
f 841//841 923//923 849//849
f 843//843 850//850 845//845
f 848//848 922//922 954//954
f 853//853 955//955 855//855
f 858//858 962//962 965//965
f 859//859 966//966 861//861
f 856//856 956//956 958//958
f 864//864 968//968 867//867
f 869//869 970//970 973//973
f 884//884 976//976 979//979
f 882//882 978//978 983//983
f 881//881 982//982 892//892
f 883//883 888//888 975//975
f 891//891 981//981 895//895
f 897//897 987//987 903//903
f 896//896 984//984 986//986
f 904//904 988//988 990//990
f 906//906 991//991 995//995
f 905//905 994//994 999//999
f 902//902 998//998 1007//1007
f 901//901 1006//1006 1016//1016
f 898//898 1014//1014 912//912
f 911//911 1013//1013 1020//1020
f 910//910 1017//1017 928//928
f 907//907 926//926 916//916
f 921//921 941//941 953//953
f 929//929 1018//1018 932//932
f 934//934 1012//1012 942//942
f 933//933 1019//1019 1011//1011
f 939//939 950//950 1021//1021
f 940//940 1023//1023 952//952
f 946//946 1004//1004 1024//1024
f 945//945 1022//1022 951//951
f 947//947 1015//1015 1005//1005
f 957//957 1025//1025 959//959
f 960//960 1026//1026 1030//1030
f 961//961 1035//1035 963//963
f 964//964 1036//1036 1040//1040
f 967//967 1041//1041 1043//1043
f 969//969 1044//1044 972//972
f 989//989 1049//1049 993//993
f 992//992 1048//1048 997//997
f 996//996 1046//1046 1000//1000
f 1001//1001 1047//1047 1051//1051
f 1002//1002 1052//1052 1054//1054
f 1003//1003 1055//1055 1008//1008
f 1010//1010 1056//1056 1061//1061
f 1009//1009 1060//1060 1027//1027
f 1029//1029 1062//1062 1068//1068
f 1028//1028 1067//1067 1031//1031
f 1032//1032 1069//1069 1072//1072
f 1033//1033 1073//1073 1078//1078
f 1034//1034 1079//1079 1039//1039
f 1053//1053 1081//1081 1057//1057
f 1059//1059 1082//1082 1085//1085
f 1058//1058 1084//1084 1063//1063
f 1066//1066 1086//1086 1089//1089
f 1065//1065 1088//1088 1075//1075
f 1064//1064 1074//1074 1070//1070

